<svg width="233" height="80" viewBox="0 0 233 80" fill="none" xmlns="http://www.w3.org/2000/svg">
<g clip-path="url(#clip0_692_550)">
<path d="M23.537 -0.000488281H24.2453C25.5132 0.224306 26.4862 1.14456 27.348 2.0367C28.8512 3.61495 29.9424 5.55029 30.6953 7.58749C30.3124 7.77716 29.9272 7.96214 29.542 8.14829C28.7565 6.13803 27.1208 4.60896 25.3518 3.44518C24.593 2.93003 23.7278 2.52025 23.1564 1.77678C22.8744 1.42906 22.68 0.937325 22.8685 0.501786C22.9868 0.226647 23.2817 0.108396 23.537 -0.000488281Z" fill="black"/>
<path d="M42.6627 -0.000488281H43.3301C43.8253 0.075614 44.2691 0.526373 44.1239 1.05323C43.8991 1.95709 43.0596 2.51439 42.3138 2.97687C40.265 4.21791 38.284 5.85587 37.3929 8.14829C37.0042 7.96331 36.6179 7.77364 36.2314 7.58515C37.1577 5.10773 38.5837 2.76847 40.6208 1.05206C41.2062 0.547447 41.897 0.148204 42.6627 -0.000488281Z" fill="black"/>
<path d="M30.0058 10.9065C31.392 10.5108 32.852 10.4429 34.2851 10.5237C35.3131 10.5997 36.3597 10.7438 37.307 11.1734C37.6372 11.3397 38.02 11.5528 38.1042 11.945C38.1674 12.212 37.9684 12.4496 37.7776 12.61C37.307 12.9835 36.7087 13.1298 36.142 13.2903C36.1854 13.501 36.2298 13.7129 36.2709 13.9237C40.2083 14.406 44.0543 15.8367 47.2365 18.2228C49.2784 19.7437 51.0264 21.665 52.2968 23.8744C46.0622 25.9373 39.4612 26.7581 32.9106 26.7404C26.6187 26.6913 20.2975 25.8495 14.3101 23.879C16.332 20.342 19.5834 17.6012 23.2655 15.9105C25.497 14.8767 27.8984 14.2292 30.3372 13.926C30.3769 13.7141 30.4191 13.5033 30.4636 13.2926C29.849 13.1228 29.1956 12.9496 28.7144 12.5082C28.4768 12.2986 28.4182 11.9017 28.6372 11.6582C28.9849 11.2519 29.5117 11.0657 30.0058 10.9065ZM37.1043 16.01C38.5643 17.2429 40.1532 18.4161 41.1612 20.0738C41.5652 20.7377 41.8099 21.6673 41.3018 22.3429C40.7691 23.0829 39.8418 23.2935 39.0538 23.6402C39.117 23.6589 39.2424 23.6963 39.3056 23.715C40.4037 23.7234 41.4937 23.5465 42.5803 23.4001C43.5684 23.242 44.5636 23.1004 45.526 22.8147C45.7894 22.6004 46.2155 22.4155 46.1454 22.001C46.0787 21.3817 45.5869 20.9204 45.1654 20.5047C42.8765 18.4219 40.1637 16.6727 37.1043 16.01Z" fill="black"/>
<path d="M2.23389 22.9772C3.30517 22.55 4.47481 22.4023 5.6222 22.4152C8.21669 22.4292 10.7105 23.4385 12.8531 24.8459C14.5706 26.0202 16.0072 27.5515 17.3314 29.1439C17.5819 29.4319 17.7904 29.7644 18.0843 30.0126C18.3254 30.1238 18.5924 30.1624 18.8499 30.221C28.5852 32.2886 38.7524 32.2032 48.4688 30.0735C48.9875 29.5408 49.422 28.9354 49.9196 28.3839C51.4123 26.664 53.1041 25.0624 55.1495 24.0181C57.4315 22.7805 60.0926 22.1226 62.6848 22.5289C63.4961 22.6751 64.3637 22.8274 65.0065 23.3859C66.2663 24.4594 66.847 26.2415 66.5414 27.8583C66.0146 30.612 64.736 33.2475 62.7609 35.2531C61.5854 36.4485 60.1675 37.4273 58.5847 37.994C57.6375 38.3312 56.6141 38.3206 55.6261 38.234C55.5195 40.8754 54.961 43.5634 53.5748 45.8442C52.685 47.3229 51.4614 48.5827 50.0752 49.6036C48.401 50.8517 46.5289 51.7907 44.6895 52.7672C42.3058 54.0222 39.9091 55.2644 37.6319 56.7081C36.131 57.653 34.6932 58.6925 33.3047 59.7954C30.0089 57.119 26.2938 55.0338 22.5333 53.0915C20.0407 51.7556 17.4309 50.5322 15.3223 48.6073C13.9841 47.3896 12.8952 45.8921 12.2068 44.2144C11.406 42.3235 11.0805 40.2699 10.9704 38.2305C10.4354 38.2749 9.8968 38.3112 9.36057 38.2668C8.0481 38.179 6.85389 37.5397 5.76503 36.8477C2.62025 34.7543 0.634575 31.2196 0 27.541V26.533C0.162741 25.1069 0.913227 23.6423 2.23389 22.9772ZM3.04292 25.0309C2.67996 25.149 2.25496 25.231 2.02899 25.574C1.59932 26.1641 1.57706 26.9368 1.63913 27.637C1.71055 28.1416 1.86041 28.6638 2.21047 29.0478C2.46336 29.3206 2.8872 29.378 3.21034 29.1977C4.43735 28.6181 5.78142 28.2986 7.13604 28.226C10.0197 28.0796 12.818 28.9683 15.4955 29.9388C13.6914 28.0538 11.6073 26.3608 9.16622 25.3821C7.24141 24.5942 5.04031 24.4033 3.04292 25.0309ZM57.3541 25.4172C54.9528 26.4018 52.8934 28.0714 51.1126 29.9342C52.8348 29.3195 54.577 28.7341 56.3834 28.4273C58.6197 28.0316 60.9966 28.1393 63.0958 29.0619C63.4131 29.2048 63.7678 29.4038 64.1201 29.2469C64.5546 29.0209 64.7571 28.5316 64.8766 28.0842C65.0768 27.2835 65.065 26.3679 64.6318 25.6431C64.3683 25.203 63.8321 25.1292 63.3885 24.9805C61.4075 24.3975 59.2461 24.6304 57.3541 25.4172ZM2.7549 30.6846C3.49485 32.099 4.45373 33.5016 5.89148 34.2766C6.08817 34.3505 6.30712 34.5459 6.51317 34.3984C8.01414 33.6092 9.60059 32.9607 11.2643 32.6093C13.449 32.12 15.7953 32.237 17.8605 33.1387C15.3082 30.8496 11.9375 29.5888 8.53984 29.35C6.54128 29.2153 4.44672 29.5594 2.7549 30.6846ZM56.3321 29.5619C53.535 30.0383 50.8597 31.2618 48.7276 33.1422C50.197 32.5182 51.808 32.2406 53.4015 32.339C55.667 32.4888 57.8564 33.2382 59.8597 34.2814C60.0493 34.3726 60.2612 34.5448 60.4685 34.389C62.0386 33.6701 63.0758 32.1786 63.8463 30.6882C61.6569 29.22 58.8527 29.1028 56.3321 29.5619ZM7.25898 35.2707C8.34431 35.9041 9.62985 36.1686 10.8779 36.0422C13.0228 35.8232 14.9734 34.8199 16.8245 33.7779C13.5954 33.0146 10.1075 33.5859 7.25898 35.2707ZM49.7813 33.7721C51.6101 34.8235 53.5583 35.8046 55.6834 36.0353C56.9491 36.1815 58.2486 35.8993 59.3562 35.273C56.5042 33.5835 53.014 33.0204 49.7813 33.7721ZM20.3988 34.3329C18.3429 35.65 16.1559 36.774 13.8459 37.5712C13.8658 37.7551 13.8869 37.9401 13.9091 38.1239C18.3336 39.8367 23.0414 40.7102 27.7563 41.1071C32.8692 41.5322 38.0301 41.3718 43.1044 40.6119C45.44 40.2465 47.7559 39.7431 50.0191 39.0547L50.0214 38.9939L50.094 39.0149C50.9885 38.7889 51.842 38.4272 52.7119 38.1227C52.7259 37.9401 52.7412 37.7562 52.7576 37.5748C51.7542 37.22 50.7742 36.8056 49.806 36.363V36.3442C48.5122 35.7379 47.2747 35.0166 46.0699 34.2485C45.9213 34.1373 45.7328 34.1936 45.5676 34.2134C44.6532 34.3738 43.733 34.5002 42.8139 34.6233C35.5174 35.5235 28.0898 35.3983 20.838 34.1853C20.6729 34.1455 20.5323 34.2579 20.3988 34.3329ZM17.7095 46.4238C19.1906 47.6777 20.8918 48.6248 22.593 49.5427C23.9347 50.3342 25.3596 50.9864 26.8442 51.4641C30.0827 52.5342 33.5869 52.7309 36.9388 52.1384C39.4279 51.6923 41.8444 50.82 44.0269 49.5404C45.7023 48.6213 47.4047 47.7104 48.8517 46.4471C46.0734 47.0536 43.2577 47.4845 40.4267 47.7526C37.8075 47.9845 35.1779 48.0992 32.5482 48.0827C27.5665 48.002 22.5742 47.5325 17.7095 46.4238Z" fill="black"/>
<path d="M37.104 16.0085C40.1633 16.6712 42.876 18.4203 45.165 20.5032C45.5864 20.9188 46.0782 21.3801 46.1449 21.9995C46.2152 22.414 45.7891 22.599 45.5256 22.8132C44.5631 23.0989 43.568 23.2405 42.5798 23.3986C41.4934 23.5449 40.4034 23.7217 39.3051 23.7136C39.2419 23.6948 39.1165 23.6573 39.0533 23.6387C39.8413 23.292 40.7686 23.0814 41.3013 22.3414C41.8094 21.6658 41.5647 20.7362 41.1609 20.0723C40.1527 18.4144 38.564 17.2414 37.104 16.0085Z" fill="white"/>
<path d="M3.04228 25.03C5.03967 24.4024 7.24078 24.5933 9.16557 25.3812C11.6067 26.3601 13.6907 28.053 15.4949 29.9381C12.8173 28.9674 10.0191 28.0789 7.1354 28.2251C5.78078 28.2977 4.4367 28.6174 3.2097 29.1968C2.88656 29.3772 2.46272 29.3199 2.20983 29.0471C1.85977 28.6631 1.70991 28.1408 1.63848 27.6363C1.57643 26.9361 1.59868 26.1634 2.02836 25.5733C2.25432 25.2302 2.67932 25.1483 3.04228 25.03Z" fill="white"/>
<path d="M57.3538 25.4178C59.2459 24.631 61.4071 24.398 63.3881 24.981C63.8319 25.1297 64.3682 25.2036 64.6316 25.6437C65.0648 26.3684 65.0765 27.284 64.8763 28.0848C64.7568 28.5321 64.5543 29.0215 64.12 29.2475C63.7675 29.4044 63.4127 29.2054 63.0955 29.0625C60.9962 28.1398 58.6196 28.0322 56.3833 28.4279C54.5767 28.7347 52.8345 29.3201 51.1123 29.9348C52.8931 28.072 54.9525 26.4024 57.3538 25.4178Z" fill="white"/>
<path d="M2.75415 30.6855C4.44597 29.5604 6.54053 29.2163 8.53909 29.3508C11.9368 29.5896 15.3075 30.8506 17.8599 33.1395C15.7945 32.238 13.4483 32.121 11.2635 32.6104C9.59984 32.9616 8.0134 33.6102 6.51242 34.3993C6.30637 34.5469 6.08742 34.3513 5.89073 34.2776C4.45298 33.5024 3.4941 32.1 2.75415 30.6855Z" fill="white"/>
<path d="M56.3318 29.5617C58.8526 29.1026 61.6566 29.2196 63.8462 30.6879C63.0757 32.1784 62.0383 33.6699 60.4684 34.3888C60.2611 34.5445 60.0492 34.3724 59.8596 34.281C57.8563 33.2379 55.6669 32.4886 53.4014 32.3388C51.8079 32.2404 50.1969 32.5179 48.7275 33.142C50.8596 31.2615 53.5349 30.0381 56.3318 29.5617Z" fill="white"/>
<path d="M7.25781 35.2692C10.1064 33.5844 13.5942 33.0131 16.8232 33.7764C14.9722 34.8184 13.0217 35.8217 10.8768 36.0407C9.62869 36.1671 8.34315 35.9026 7.25781 35.2692Z" fill="white"/>
<path d="M49.7817 33.7704C53.0144 33.0188 56.5044 33.5819 59.3566 35.2713C58.2489 35.8977 56.9493 36.1799 55.6837 36.0336C53.5587 35.803 51.6105 34.8218 49.7817 33.7704Z" fill="white"/>
<path d="M20.3991 34.3323C20.5326 34.2574 20.6732 34.145 20.8382 34.1848C28.0902 35.3978 35.5178 35.523 42.8142 34.6226C43.2217 36.5886 43.4101 38.6163 43.1045 40.6113C38.0302 41.3713 32.8694 41.5317 27.7565 41.1066C23.0417 40.7097 18.3339 39.8362 13.9094 38.1234C13.8872 37.9395 13.8661 37.7547 13.8462 37.5708C16.1562 36.7734 18.3433 35.6494 20.3991 34.3323Z" fill="#FFCB08"/>
<path d="M49.8068 36.363C50.775 36.8056 51.7551 37.2201 52.7585 37.5748C52.7421 37.7563 52.7268 37.9401 52.7128 38.1227C51.8429 38.4271 50.9894 38.7889 50.0949 39.0148L50.0223 38.9938C49.9063 38.1204 49.7624 37.247 49.8068 36.363Z" fill="#FFCB08"/>
<path d="M17.7087 46.4224C22.5734 47.5311 27.5658 48.0006 32.5475 48.0813C35.1771 48.0978 37.8068 47.9831 40.4258 47.7512C39.4342 49.3411 38.2166 50.7719 36.9381 52.137C33.586 52.7295 30.0818 52.5328 26.8433 51.4627C25.3589 50.985 23.9339 50.3328 22.5922 49.5413C20.8911 48.6234 19.1898 47.6763 17.7087 46.4224Z" fill="#FFCB08"/>
<path d="M45.5675 34.2146C45.7326 34.1946 45.921 34.1385 46.0697 34.2496C47.2746 35.0178 48.5121 35.7389 49.8058 36.3454V36.3641C49.7614 37.2481 49.9053 38.1215 50.0213 38.9948L50.0188 39.0557C47.7558 39.7442 45.4398 40.2477 43.1041 40.6129C43.4096 38.6179 43.2212 36.59 42.8137 34.6243C43.7329 34.5014 44.6531 34.375 45.5675 34.2146Z" fill="#F7E71E"/>
<path d="M40.4269 47.7547C43.2578 47.4865 46.0735 47.0557 48.8519 46.4492C47.4048 47.7125 45.7025 48.6234 44.027 49.5425C41.8447 50.8221 39.4281 51.6944 36.939 52.1405C38.2175 50.7754 39.4351 49.3446 40.4269 47.7547Z" fill="#F7E71E"/>
<path d="M84.61 18.1045C85.5717 17.1665 86.9774 16.9457 88.2649 16.9248C94.4947 16.9248 100.722 16.9248 106.952 16.9248C106.873 18.1229 106.884 19.4551 106.116 20.4535C105.638 21.1052 104.795 21.2865 104.03 21.255C101.148 21.1419 98.26 21.2154 95.3723 21.1945C93.8642 21.2313 92.3059 21.0578 90.8372 21.4782C90.0095 21.7015 89.5445 22.545 89.5419 23.3622C89.4788 25.4851 89.5393 27.6082 89.5208 29.7313C92.6107 29.7339 95.7034 29.7339 98.7933 29.7287C99.5396 29.705 100.367 29.889 100.827 30.5275C101.552 31.5469 101.568 32.8632 101.631 34.0667C97.5926 34.0772 93.5566 34.0667 89.5208 34.0719C89.5156 37.3353 89.5234 40.5987 89.5208 43.8621C89.5286 44.8684 89.2291 46.0062 88.2701 46.508C86.7935 47.3146 85.0461 47.2831 83.4093 47.3567C83.4065 38.741 83.4119 30.1281 83.4065 21.515C83.4145 20.2932 83.6825 18.9716 84.61 18.1045Z" fill="white"/>
<path d="M131.732 17.4963C133.112 16.9471 134.623 16.9025 136.089 16.9182C139.471 16.9393 142.852 16.8945 146.234 16.9419C148.788 17.0811 151.562 17.3098 153.659 18.9361C155.43 20.3472 155.725 22.8091 155.651 24.9243C155.61 26.6479 154.768 28.3138 153.412 29.3806C152.067 30.5 150.333 30.9176 148.683 31.3617C151.05 31.6665 153.72 31.8794 155.5 33.6714C157.264 35.5184 157.375 38.2853 157.178 40.6895C157.041 42.7704 155.897 44.7753 154.05 45.7947C151.384 47.2793 148.231 47.2057 145.272 47.3319C140.022 47.3449 134.773 47.3345 129.523 47.3371C129.52 39.4309 129.523 31.5246 129.523 23.6184C129.539 22.3414 129.436 21.0488 129.707 19.7927C129.93 18.7418 130.747 17.8826 131.732 17.4963ZM136.712 21.3536C135.831 21.7056 135.726 22.783 135.7 23.6052C135.687 25.5811 135.705 27.5571 135.7 29.533C138.283 29.5304 140.866 29.5435 143.449 29.533C145.072 29.4778 146.841 29.1467 148.036 27.9538C149.749 26.3353 149.663 22.8695 147.39 21.7845C145.346 20.8096 143.015 21.1171 140.829 21.0618C139.457 21.1171 138.028 20.8701 136.712 21.3536ZM136.727 34.2336C135.868 34.7565 135.7 35.8338 135.695 36.7587C135.692 38.9053 135.7 41.0521 135.7 43.1987C138.724 43.1935 141.749 43.2091 144.776 43.1908C146.41 43.1172 148.278 43.0122 149.479 41.743C150.517 40.7341 150.509 39.155 150.359 37.8176C150.167 36.0676 148.727 34.6934 147.096 34.1968C144.904 33.511 142.576 33.7081 140.311 33.6688C139.111 33.6871 137.805 33.6057 136.727 34.2336Z" fill="white"/>
<path d="M103.852 24.485C105.528 24.4035 107.341 24.4718 108.734 25.5333C112 24.7609 115.392 24.5217 118.732 24.887C120.621 25.1156 122.565 25.5727 124.123 26.721C125.293 27.5775 126.089 28.9701 126.041 30.4441C126.041 36.0776 126.044 41.7136 126.041 47.3497C124.37 47.2786 122.584 47.3497 121.07 46.5299C120.122 46.007 119.927 44.8509 119.932 43.8655C119.93 40.0031 119.93 36.1406 119.938 32.2809C119.951 31.2692 119.738 30.163 118.931 29.4799C117.749 28.421 116.06 28.3106 114.549 28.3447C113.167 28.3736 111.627 28.6575 110.678 29.7584C110.063 30.4441 109.953 31.4059 109.945 32.2887C109.948 36.0591 109.948 39.8297 109.951 43.5976C109.953 44.5881 109.753 45.7258 108.86 46.3118C107.399 47.3049 105.536 47.2708 103.839 47.3549C103.844 39.7325 103.823 32.1074 103.852 24.485Z" fill="white"/>
<path d="M164.408 25.7094C167.222 24.6479 170.293 24.6794 173.255 24.774C176.197 24.9527 179.523 25.7935 181.198 28.4499C182.856 31.1825 182.725 34.5326 182.73 37.6146C176.827 37.6199 170.927 37.6016 165.025 37.6226C165.068 39.1834 165.303 40.815 166.213 42.1287C167.198 43.6292 169.074 44.1572 170.776 44.2361C172.548 44.2912 174.505 44.1494 175.94 42.9933C176.681 42.4441 176.794 41.4876 176.8 40.6363C178.785 40.6363 180.775 40.6337 182.76 40.639C182.66 42.3259 182.167 44.1046 180.838 45.2425C178.825 46.9819 176.095 47.5756 173.509 47.7963H168.948C166.523 47.5915 163.941 47.1552 162.038 45.5077C159.912 43.679 159.132 40.7861 158.98 38.0851C158.877 35.2656 158.864 32.2992 160.118 29.7033C160.965 27.8797 162.54 26.4347 164.408 25.7094ZM166.538 29.6296C165.246 30.6675 164.996 32.4412 165.043 33.9993C168.532 33.9993 172.025 34.0123 175.517 33.9939C176.3 34.078 176.83 33.2897 176.694 32.5699C176.715 30.5046 174.994 28.7993 173.011 28.5052C170.835 28.1819 168.349 28.2082 166.538 29.6296Z" fill="#FFCB08"/>
<path d="M189.997 25.567C192.789 24.65 195.778 24.6631 198.681 24.7892C201.556 24.9863 204.774 25.856 206.412 28.4389C208.067 31.1742 207.94 34.5269 207.954 37.6142C202.052 37.6194 196.153 37.6037 190.254 37.622C190.283 38.9936 190.453 40.4099 191.125 41.6317C191.886 43.1739 193.568 44.007 195.223 44.162C197.228 44.359 199.498 44.2959 201.154 42.998C201.905 42.4541 202.003 41.4871 202.029 40.6358C204.005 40.6358 205.983 40.6358 207.959 40.6358C207.885 42.32 207.388 44.1016 206.06 45.2314C204.051 46.976 201.322 47.5751 198.74 47.7958H194.091C191.752 47.5698 189.262 47.173 187.394 45.6255C185.326 43.9333 184.446 41.2217 184.238 38.639C184.014 35.8458 184.051 32.9292 185.076 30.2861C185.916 28.0867 187.757 26.3053 189.997 25.567ZM191.755 29.6291C190.468 30.667 190.208 32.4431 190.268 33.9986C193.842 33.9856 197.417 34.0382 200.988 33.9751C202.048 33.8436 202.026 32.551 201.803 31.7679C201.474 29.8945 199.695 28.6332 197.88 28.4441C195.807 28.213 193.464 28.2654 191.755 29.6291Z" fill="#FFCB08"/>
<path d="M216.261 25.0812C218.458 24.6871 220.705 24.6845 222.93 24.7792C225.468 24.9788 228.226 25.4806 230.106 27.3515C231.411 28.6415 231.806 30.5255 231.874 32.2938C229.913 32.2938 227.956 32.2938 226 32.2938C225.934 31.1771 225.752 29.9422 224.84 29.1802C223.345 27.8848 221.228 27.9426 219.372 28.0661C218.281 28.1791 216.931 28.5181 216.524 29.6768C216.248 30.5964 216.138 31.7368 216.774 32.5382C217.457 33.2161 218.444 33.4289 219.353 33.626C221.797 34.0778 224.291 34.1041 226.749 34.4248C228.382 34.6639 230.095 35.2472 231.151 36.5925C232.24 37.9456 232.297 39.8006 232.148 41.4559C232.016 42.8355 231.348 44.1229 230.347 45.0688C228.399 46.9554 225.612 47.5545 223.001 47.7961H218.867C216.019 47.5861 212.89 46.9502 210.954 44.6616C209.819 43.4318 209.501 41.7292 209.427 40.116C211.463 40.1054 213.502 40.1133 215.541 40.1106C215.663 41.2037 215.756 42.4072 216.568 43.2427C217.594 44.3936 219.238 44.5512 220.687 44.5827C222.275 44.5854 224.013 44.4619 225.322 43.4555C226.693 42.3783 226.675 39.735 224.945 39.0203C223.193 38.2925 221.243 38.4238 219.393 38.1664C217.262 37.8773 215.04 37.8536 213.034 37.0023C211.544 36.3875 210.454 34.9476 210.273 33.3475C210.045 31.4425 210.086 29.2696 211.4 27.735C212.582 26.2321 214.42 25.4229 216.261 25.0812Z" fill="#FFCB08"/>
</g>
<defs>
<clipPath id="clip0_692_550">
<rect width="232.208" height="79.9658" fill="white"/>
</clipPath>
</defs>
</svg>
