<svg width="229" height="76" viewBox="0 0 229 76" fill="none" xmlns="http://www.w3.org/2000/svg">
<g clip-path="url(#clip0_618_35)">
<path d="M38.7352 2.29051C48.506 0.595384 58.4608 0.189115 68.366 0.525338C72.198 0.686445 76.0158 1.21179 79.862 1.17677C74.4392 2.1294 68.875 1.41493 63.4452 2.35355C58.8991 2.21346 54.452 3.04001 49.9342 3.3272C43.8327 4.32886 37.6322 4.65808 31.559 5.79984C27.5856 6.71744 25.5353 10.507 23.3223 13.526C20.4589 17.0003 17.7864 20.6287 14.9513 24.117C11.9041 27.6193 6.97622 27.7454 3.13008 29.8958C2.29581 33.153 1.46153 36.4171 0.5 39.6463V28.9082C3.81588 24.9645 10.3911 26.3164 13.2615 21.7214C12.703 21.3431 12.1515 20.9649 11.6001 20.5796C8.02967 19.2698 4.45219 20.8318 0.825225 20.8318L0.5 20.3905V19.2347C3.11594 19.0106 5.72481 18.7304 8.34782 18.5903C9.57095 19.0036 10.8365 20.4185 12.1798 19.7601C12.8091 20.0613 13.0989 21.5743 13.9403 20.5866C17.9773 15.8305 21.5831 10.7101 25.5847 5.93292C29.3885 3.19411 34.2527 2.99097 38.7352 2.29051Z" fill="#52B6B9"/>
<path d="M36.3242 6.72449C49.9412 4.1888 63.9542 3.31322 77.7621 4.40595C71.1303 5.37959 64.3925 5.00835 57.7396 5.72282C55.6963 6.05204 53.4621 5.60374 51.5461 6.47932C49.7079 6.86458 47.5445 6.19914 45.9113 7.24283C44.2993 7.53002 42.4469 7.07472 41.0046 8.00634C40.0784 8.26551 38.8058 7.8032 38.1341 8.68579C35.801 9.11307 33.4961 9.65943 31.2054 10.2618C26.7583 13.498 24.7009 18.8635 20.982 22.7931C23.1102 22.8492 25.2383 22.7441 27.3522 22.4919C31.5165 21.5463 35.9495 22.2188 40.1915 21.8335L40.6299 21.4412C53.2712 21.2731 65.9267 21.5603 78.5681 21.3992L78.6812 22.0647C79.1337 22.0086 80.0387 21.9036 80.4912 21.8545L81.1558 21.084L81.587 21.9806C82.2163 21.8475 83.4747 21.5813 84.0969 21.4412L84.4716 21.9876C91.9023 22.1557 99.3825 21.8265 106.785 22.3799C105.922 23.0733 104.742 22.7371 103.738 22.8212C90.5237 22.7441 77.3096 22.9472 64.0956 22.9472C60.3272 22.9963 56.5518 22.8212 52.7975 23.2695C39.9794 23.3815 27.1755 24.5583 14.4846 26.1063C17.1713 23.4796 19.363 20.4116 21.5194 17.3645C24.2626 14.4016 25.8251 10.4019 29.3813 8.23048C31.6508 7.50901 34.1183 7.54403 36.3242 6.72449Z" fill="#52B6B9"/>
<path d="M6.30469 60.4641C7.13189 61.3817 7.95909 62.3904 9.19636 62.7826C11.3174 63.5672 13.3324 64.856 15.6726 64.835L15.7362 65.4304C51.2423 65.7176 86.7484 65.5075 122.254 65.5915C123.428 65.5985 124.602 65.5355 125.775 65.4864C127.515 66.1659 129.452 65.6756 131.184 66.362C124.496 66.0958 117.793 66.4461 111.112 66.1799L111.204 66.9294C98.8029 66.7123 86.3878 67.1185 73.9798 67.0765C69.766 67.1606 65.5381 66.8804 61.3526 67.4197C49.5596 67.5598 37.7737 67.6509 25.9879 67.819C21.9933 67.868 17.8572 68.4004 14.004 67.0765C11.8618 66.4811 10.3347 64.772 8.58126 63.5181C7.51368 62.7616 6.81374 61.6409 6.30469 60.4641Z" fill="#52B6B9"/>
<path d="M0.5 72.407C51.2139 72.6802 101.935 72.8904 152.649 73.1635C143.422 73.6819 134.175 73.0725 124.955 73.6188C105.859 73.78 86.7695 73.906 67.6731 73.9761C59.9172 74.2072 52.1259 73.7589 44.3912 74.4874C29.7632 74.4944 15.1281 74.5084 0.5 74.6415V72.407Z" fill="#52B6B9"/>
<path d="M71.4343 9.46332C73.6402 9.44231 75.8461 9.53337 78.0378 9.31622L78.0873 10.1218C80.0245 8.6858 82.7041 9.77853 84.9524 9.48433C84.917 9.78553 84.8534 10.3809 84.8251 10.6821C83.6444 10.6751 82.4708 10.6681 81.2901 10.6611C81.283 11.2775 81.2618 12.5173 81.2547 13.1408C82.2233 13.1338 83.1919 13.1197 84.1605 13.1127C84.4575 13.484 84.7615 13.8622 85.0655 14.2335C83.5313 14.5417 81.686 14.0514 80.5123 15.3332C81.2618 17.6868 84.1535 15.5854 85.2635 17.5677C83.503 18.5624 81.3678 17.9179 79.4518 17.9249C79.5225 15.2912 79.3953 12.6504 79.6144 10.0237C78.3842 10.479 77.1258 10.8713 75.7895 10.6961C75.7754 13.1548 75.7683 15.6134 75.7824 18.072C75.1391 17.974 74.5028 17.8829 73.8594 17.7918C73.923 15.4173 73.9018 13.0427 73.8594 10.6681C73.2655 10.6681 72.0777 10.6681 71.4838 10.6681C71.4697 10.3669 71.4485 9.76452 71.4343 9.46332Z" fill="#FC6659"/>
<path d="M86.5292 10.2058C86.9959 8.91695 88.5937 9.5824 89.6259 9.4423C90.8773 9.2882 91.8601 10.0517 92.7368 10.8222C92.7226 11.5507 92.7085 12.2862 92.7014 13.0147C91.3581 13.7432 90.3542 15.5994 91.952 16.6851C92.0298 17.0213 92.1782 17.7008 92.256 18.044C91.8742 18.037 91.1036 18.023 90.7218 18.016C90.0077 16.7902 89.9582 14.3806 88.0069 14.7378C87.7948 15.9426 88.926 18.9406 86.4797 17.8899C86.5999 15.3262 86.4797 12.7695 86.5292 10.2058ZM87.9362 10.6261C87.9927 11.6978 88.0776 12.7835 88.6008 13.7502C89.1593 13.575 90.2905 13.2318 90.8561 13.0567C90.8279 12.2792 90.7996 11.5017 90.7713 10.7312C89.8239 10.6891 88.8765 10.6541 87.9362 10.6261Z" fill="#FC6659"/>
<path d="M101.362 10.0307C101.638 8.95194 102.932 9.65941 103.688 9.54733C103.073 12.1811 103.716 14.9199 103.193 17.5747C103.024 17.5676 102.684 17.5466 102.515 17.5326C101.355 16.0126 102.366 13.8062 102.055 12.027C101.249 14.0093 100.259 15.9286 99.7431 18.0089C99.0997 17.9739 98.4563 17.9319 97.8129 17.8899C97.7422 17.4346 97.6008 16.524 97.5301 16.0617C96.6393 14.7868 96.1515 13.3158 95.6283 11.8729C95.6071 13.9953 95.6212 16.1247 95.5293 18.2541C95.2182 18.149 94.589 17.9319 94.2779 17.8198C94.2567 15.018 94.3061 12.2161 94.2849 9.40724C96.1727 8.86788 96.809 10.619 97.1483 12.062C97.6927 13.1757 98.2371 14.2965 98.5624 15.5013C100.429 14.3525 100.273 11.7608 101.362 10.0307Z" fill="#FC6659"/>
<path d="M105.662 9.50534C106.022 9.47032 106.75 9.40728 107.111 9.37225C107.231 12.2862 107.182 15.2071 107.139 18.1281C106.772 18.093 106.022 18.023 105.647 17.988C105.676 15.1581 105.669 12.3352 105.662 9.50534Z" fill="#FC6659"/>
<path d="M121.067 9.35126C121.689 9.45633 122.311 9.55439 122.934 9.65246C123.45 11.929 124.319 14.1144 125.373 16.2018L125.104 16.475C124.941 16.6501 124.623 17.0143 124.461 17.1965C124.319 16.8602 124.044 16.1948 123.909 15.8586C122.573 15.7675 121.237 15.7395 119.9 15.8306C119.823 15.9706 119.674 16.2578 119.604 16.3979C119.54 17.6237 118.96 18.2051 117.864 18.1421C118.543 15.1021 119.596 12.1041 121.067 9.35126ZM121.06 12.1671C120.975 12.9657 120.89 13.7572 120.805 14.5557C121.272 14.5557 122.191 14.5417 122.651 14.5417C122.58 13.7502 122.509 12.9586 122.446 12.1671C122.099 12.1671 121.406 12.1671 121.06 12.1671Z" fill="#FC6659"/>
<path d="M109.337 11.1584C109.238 10.0797 110.341 9.77152 111.14 9.47032L111.522 9.32323C112.392 11.1935 113.007 13.54 114.774 14.7868C115.043 12.8466 114.166 10.479 115.828 8.95898C116.683 11.9149 116.04 15.06 116.224 18.1C115.828 18.065 115.029 18.002 114.633 17.974C113.799 16.489 112.929 15.032 112.158 13.526C111.769 12.8185 111.119 12.3212 110.483 11.8449C110.447 13.0987 110.447 14.3596 110.419 15.6134C111.854 16.489 109.507 18.065 109.45 16.7762C109.182 14.9199 109.182 13.0287 109.337 11.1584Z" fill="#FC6659"/>
<path d="M126.794 17.9109C127.317 14.997 125.903 11.5857 127.734 9.04303C129.607 11.0464 128.321 14.0584 128.702 16.538C129.911 16.531 131.12 16.524 132.337 16.517C132.329 16.9022 132.308 17.6728 132.294 18.058C130.463 18.1421 128.625 18.065 126.794 17.9109Z" fill="#FC6659"/>
<path d="M8.14239 36.8725C15.1913 36.074 21.8018 39.135 28.3841 41.0613L28.5184 41.6707C31.1344 42.07 33.312 43.618 35.9491 43.8982C27.5286 44.1083 20.1545 38.6307 11.7481 38.6097C10.4119 38.5816 9.16048 39.044 8.00806 39.6674C6.89805 41.9509 6.57989 44.8298 8.28379 46.9172C10.4897 48.6193 13.3601 49.0466 16.0256 49.5649C20.4514 50.5596 25.0117 49.7611 29.487 50.2864C25.5278 50.8958 21.4837 50.6787 17.4891 50.8398C12.7662 50.9308 7.11722 49.9852 4.42351 45.6633C4.20434 43.7721 4.03465 41.8038 4.58612 39.9476C5.24364 38.4345 6.67888 37.5099 8.14239 36.8725Z" fill="#FC6659"/>
<path d="M40.0713 48.8854C42.0509 47.9118 44.2922 48.0099 46.399 47.5195C53.6742 47.7577 61.013 48.5912 68.274 47.6526C67.3054 47.9468 66.464 48.5562 65.4742 48.7804C58.6303 48.3531 51.7653 49.1446 44.9355 49.5159C43.6205 49.9361 42.3196 50.3774 41.0399 50.8748C38.8623 52.3808 36.614 53.7957 34.6344 55.5539C33.1002 56.5765 31.7993 57.9144 30.2085 58.853C30.3711 59.5745 30.5479 60.296 30.7317 61.0175C31.1205 61.1926 31.9053 61.5358 32.3013 61.7109C32.4992 61.823 32.9022 62.0472 33.1072 62.1592C36.0555 62.9368 39.534 61.809 42.1499 63.5041C40.3824 63.7493 38.5866 63.6652 36.8191 63.9594C33.3335 64.5618 29.4237 64.0645 26.9987 61.2697C26.8502 59.8407 26.6876 58.2787 27.84 57.1929C29.5863 56.2053 30.9014 54.6222 32.6901 53.6766C35.2495 52.2196 37.2079 49.8241 40.0713 48.8854Z" fill="#FC6659"/>
<path d="M103.688 9.54731L103.78 9.13403C104.035 11.8939 103.985 14.6817 103.886 17.4485C103.653 17.7357 103.186 18.3171 102.953 18.6113C102.847 18.3451 102.621 17.8058 102.515 17.5326C102.684 17.5466 103.024 17.5676 103.193 17.5746C103.717 14.9199 103.073 12.1811 103.688 9.54731Z" fill="#FC6659"/>
<path d="M108.863 9.19006C109.683 9.19707 110.496 9.25311 111.302 9.37218L111.14 9.47025C110.341 9.77145 109.238 10.0797 109.337 11.1584C109.181 13.0286 109.181 14.9199 109.45 16.7761C109.507 18.0649 111.854 16.4889 110.419 15.6133C110.447 14.3595 110.447 13.0987 110.482 11.8448C111.119 12.3211 111.769 12.8185 112.158 13.5259L110.942 13.3578C111.034 14.9759 110.659 16.685 111.232 18.2471C110.461 18.17 109.69 18.093 108.92 18.0159C108.701 15.081 108.793 12.132 108.863 9.19006Z" fill="#FC6659"/>
<path d="M119.9 15.8305C121.236 15.7394 122.572 15.7674 123.908 15.8585C124.043 16.1947 124.319 16.8602 124.46 17.1964C124.623 17.0143 124.941 16.65 125.103 16.4749C125.351 16.685 125.832 17.1193 126.072 17.3365C125.711 17.6587 124.983 18.3101 124.623 18.6393C123.718 16.566 121.731 15.8165 119.603 16.3979C119.673 16.2578 119.822 15.9706 119.9 15.8305Z" fill="#FC6659"/>
<path d="M144.186 36.4031C144.044 34.2667 146.469 34.3368 147.961 34.638C148.704 35.8148 149.043 37.3838 148.138 38.5816C146.519 39.8845 143.415 38.8057 144.186 36.4031Z" fill="white"/>
<path d="M202.952 34.708C204.204 34.715 205.462 34.715 206.714 34.708C206.982 38.7567 206.445 42.8474 207.081 46.8681C208.092 44.9488 209.754 43.4918 211.26 41.9578C212.73 41.2714 214.512 41.8177 216.096 41.6846C214.646 43.8841 212.575 45.6703 210.836 47.6736C212.95 50.0972 214.901 52.864 216.089 55.792C214.675 55.785 213.261 55.771 211.847 55.7219C210.821 53.8587 209.393 52.2546 208.29 50.4404C207.774 51.0428 207.265 51.6522 206.749 52.2616C206.784 53.4314 206.777 54.6012 206.784 55.771C205.462 55.778 204.14 55.75 202.825 55.7079C202.967 48.7103 202.74 41.7056 202.952 34.708Z" fill="white"/>
<path d="M85.2563 35.3664C86.9885 35.1633 88.7419 35.1633 90.4811 35.2263C88.3106 38.5045 85.3553 41.1452 82.8313 44.1362C85.1078 48.1569 88.4803 51.5331 90.3538 55.7709C88.8691 55.7779 87.3844 55.7779 85.8997 55.7569C83.9908 53.2142 82.3081 50.5245 80.5052 47.9117C80.2082 47.9117 79.6214 47.9187 79.3316 47.9187C76.758 49.775 77.557 53.0461 77.4933 55.7429C76.1571 55.7569 74.8279 55.7709 73.4987 55.7779C73.4916 48.9134 73.4916 42.0558 73.4987 35.1913C74.835 35.1983 76.1641 35.2123 77.5004 35.2263C77.4721 38.3154 77.4438 41.3974 77.5145 44.4864C80.0668 41.4254 82.9514 38.6166 85.2563 35.3664Z" fill="white"/>
<path d="M117.581 34.715C118.748 34.715 119.914 34.715 121.081 34.708C121.208 41.7337 121.031 48.7593 121.194 55.778C119.844 55.6379 117.878 56.3734 117.235 54.7063C115.594 56.6746 112.795 55.7149 110.582 55.6939C105.689 52.808 105.406 44.4094 110.681 41.7827C112.632 41.3204 114.64 41.5095 116.605 41.7127C116.832 41.9648 117.277 42.4622 117.496 42.7073C117.588 40.0455 117.546 37.3768 117.581 34.715ZM113.268 44.5635C112.017 45.1379 111.324 46.3988 110.504 47.4284C110.044 49.8731 111.904 53.2283 114.704 52.829C117.97 52.0165 118.338 47.7717 116.577 45.4041C115.545 44.9068 114.449 44.3954 113.268 44.5635Z" fill="white"/>
<path d="M125.719 34.9672C126.581 34.1056 128.137 34.4838 129.077 35.0442C130.569 36.5642 129.275 39.5552 127.034 39.0999C124.92 39.226 124.276 36.1159 125.719 34.9672Z" fill="white"/>
<path d="M159.839 35.2053C163.049 35.2824 166.287 34.9812 169.475 35.4085C173.52 36.5082 175.28 41.9788 172.827 45.299C171.25 48.8084 166.831 47.8487 163.742 48.234C163.275 50.6996 163.692 53.2703 163.551 55.771C162.306 55.771 161.069 55.771 159.839 55.778C159.846 48.9204 159.839 42.0629 159.839 35.2053ZM163.529 38.7917C163.558 40.683 163.558 42.5742 163.544 44.4655C165.721 44.4585 168.323 45.0819 169.914 43.1766C169.857 42.0699 170.112 40.8861 169.68 39.8354C168.012 38.2594 165.608 38.7287 163.529 38.7917Z" fill="white"/>
<path d="M91.8035 44.8507C92.9489 43.1276 94.7235 41.7757 96.6748 41.0682C101.497 40.1015 105.88 44.8577 104.904 49.5718C101.582 49.5928 98.2586 49.5858 94.9356 49.5718C94.9992 50.4614 95.275 51.302 95.6143 52.1145C97.5727 53.6765 100.896 53.3053 101.596 50.6295C102.409 51.2109 103.314 51.5471 104.311 51.6452C104.381 54.377 101.249 56.1842 98.7959 56.3733C95.7699 56.9127 93.4792 54.5521 91.6833 52.5138C90.7501 50.0692 90.5168 47.2183 91.8035 44.8507ZM95.2608 47.1972C97.1132 47.1972 98.9656 47.1973 100.825 47.1902C101.822 43.2326 94.2851 43.1976 95.2608 47.1972Z" fill="white"/>
<path d="M126.256 41.2433C127.069 41.2223 127.889 41.2083 128.709 41.1943C129.289 46.0275 128.836 50.9307 128.971 55.792C127.762 55.7779 126.553 55.7429 125.351 55.7149C125.386 51.302 125.4 46.8961 125.337 42.4831C125.57 42.1749 126.03 41.5515 126.256 41.2433Z" fill="white"/>
<path d="M179.911 41.0893C182.704 40.5779 186.196 41.4325 187.497 44.1363C187.943 47.9959 187.554 51.9044 187.709 55.785C186.401 55.6239 184.528 56.3874 183.99 54.7133C182.584 56.2403 180.378 56.7867 178.398 56.1843C177.26 55.4628 176.418 54.3771 175.492 53.4245C175.528 52.0726 175.344 50.5876 176.291 49.4738C178.045 47.1203 181.36 47.5335 183.962 47.0993C185.291 43.681 179.798 43.2677 179.006 46.0906C177.981 46.0205 176.949 45.9365 175.931 45.8244C175.909 43.4568 177.988 42.0139 179.911 41.0893ZM179.869 50.1603C179.268 50.8888 179.162 51.8064 179.098 52.71C180.371 53.6276 181.869 53.4104 183.276 52.9692C183.807 51.8134 184.181 50.6086 184.146 49.3197C182.704 49.5229 181.283 49.8381 179.869 50.1603Z" fill="white"/>
<path d="M191.873 41.1943C192.934 41.2223 194.008 41.2153 195.076 41.1873C195.196 41.5796 195.444 42.3641 195.564 42.7634C196.992 41.8458 198.625 41.4675 200.322 41.5796C200.336 42.7564 200.35 43.9331 200.364 45.1169C199.226 45.187 198.109 45.278 196.985 45.3761C194.503 48.29 195.974 52.3527 195.479 55.806C194.192 55.785 192.913 55.764 191.626 55.757C191.767 50.9028 191.35 46.0275 191.873 41.1943Z" fill="white"/>
<path d="M133.128 41.7407C134.698 41.9018 137.469 40.648 137.215 43.2887C138.141 41.5445 140.092 41.5165 141.839 41.6076C141.817 42.8054 141.803 43.9962 141.782 45.194C141.266 45.201 140.227 45.201 139.703 45.201C139.307 45.4041 138.509 45.8104 138.106 46.0065C135.871 48.9905 137.936 52.9761 136.55 56.2473C136.133 56.1983 135.299 56.1072 134.882 56.0652C134.295 55.8831 133.708 55.7009 133.128 55.5188C133.149 50.9238 133.149 46.3287 133.128 41.7407Z" fill="white"/>
<path d="M144.391 41.6986C145.72 41.6426 147.063 41.6426 148.399 41.7477C148.032 46.5459 148.944 51.4841 147.876 56.1912C146.759 56.1562 145.642 56.1492 144.525 56.1632C144.242 51.351 144.475 46.5248 144.391 41.6986Z" fill="white"/>
<path d="M32.3013 61.7109C35.8222 61.914 39.4562 62.7966 42.9135 61.7039C43.8397 62.2502 44.7305 62.8386 45.6567 63.378C46.8728 63.399 48.0959 63.371 49.312 63.364C46.7526 63.9453 44.1366 63.7983 41.5348 63.8263C39.9087 63.7983 38.3109 64.5267 36.6918 64.1695L36.8191 63.9594C38.5866 63.6652 40.3824 63.7492 42.1499 63.5041C39.534 61.8089 36.0555 62.9367 33.1073 62.1592C32.9022 62.0471 32.4992 61.8229 32.3013 61.7109Z" fill="#FC6659"/>
</g>
<defs>
<clipPath id="clip0_618_35">
<rect width="228.365" height="75.6502" fill="white" transform="translate(0.5)"/>
</clipPath>
</defs>
</svg>
