<svg width="44" height="49" viewBox="0 0 44 49" fill="none" xmlns="http://www.w3.org/2000/svg">
<path d="M27.9987 2.3016C29.5315 1.48847 31.2417 0.759958 33.0649 0.96968C33.3432 6.33784 28.5674 11.9893 22.3919 11.8495C22.037 8.03401 24.437 4.23693 27.9987 2.3016Z" fill="white" fill-opacity="0.76"/>
<path d="M6.63639 14.9109C9.55271 12.8873 13.546 11.9269 17.0996 12.9866C19.0842 13.4612 20.8953 14.5871 22.9847 14.6386C25.8688 14.1566 28.4382 12.5304 31.4271 12.4163C35.7068 12.1587 40.0873 13.888 42.6164 17.0854C40.9909 18.1781 39.442 19.4328 38.4255 21.048C36.3361 24.1975 36.3764 28.3552 38.361 31.5415C39.6315 33.5872 41.7048 35.1141 44 36.1296C42.6729 39.7428 40.4988 43.0542 37.8164 45.9572C36.4772 47.3627 34.7387 48.6762 32.6049 48.7498C29.4466 49.0772 26.8933 46.8108 23.7673 46.8696C20.5645 46.6342 17.9386 48.6504 14.8327 48.9006H14.5383C10.5611 48.529 8.32245 45.1367 6.22093 42.4434C2.44141 37.1047 0.327785 30.6217 1.09418 24.2454C1.53384 20.6507 3.40545 17.0964 6.63639 14.9109Z" fill="white" fill-opacity="0.76"/>
</svg>
