<svg width="162" height="49" viewBox="0 0 162 49" fill="none" xmlns="http://www.w3.org/2000/svg">
<path d="M19.8785 0.844238H20.4488C21.4697 1.02523 22.2531 1.76618 22.947 2.4845C24.1573 3.75524 25.0359 5.3135 25.6421 6.95377C25.3338 7.10649 25.0236 7.25543 24.7135 7.40531C24.081 5.78672 22.7641 4.55558 21.3397 3.61855C20.7288 3.20377 20.0322 2.87384 19.572 2.27523C19.345 1.99525 19.1885 1.59933 19.3403 1.24865C19.4355 1.02712 19.673 0.931908 19.8785 0.844238Z" fill="white" fill-opacity="0.76"/>
<path d="M35.278 0.844238H35.8154C36.2141 0.905513 36.5714 1.26845 36.4546 1.69265C36.2735 2.4204 35.5976 2.86912 34.9971 3.24149C33.3475 4.24072 31.7525 5.55954 31.035 7.40531C30.722 7.25637 30.411 7.10365 30.0999 6.95189C30.8456 4.95717 31.9938 3.07369 33.634 1.69171C34.1054 1.28541 34.6615 0.963959 35.278 0.844238Z" fill="white" fill-opacity="0.76"/>
<path d="M25.0871 9.62636C26.2032 9.30773 27.3787 9.25305 28.5326 9.3181C29.3603 9.37937 30.203 9.49532 30.9657 9.84128C31.2315 9.97516 31.5397 10.1467 31.6076 10.4625C31.6585 10.6774 31.4982 10.8688 31.3446 10.998C30.9657 11.2987 30.4839 11.4165 30.0277 11.5457C30.0626 11.7153 30.0984 11.886 30.1314 12.0557C33.3016 12.444 36.3983 13.596 38.9605 15.5171C40.6045 16.7417 42.012 18.2887 43.0348 20.0676C38.015 21.7286 32.7001 22.3894 27.4259 22.3751C22.3599 22.3357 17.2703 21.6579 12.4495 20.0713C14.0774 17.2235 16.6953 15.0167 19.66 13.6554C21.4567 12.823 23.3903 12.3017 25.3539 12.0575C25.3858 11.8869 25.4198 11.7172 25.4557 11.5475C24.9608 11.4109 24.4347 11.2713 24.0473 10.9159C23.856 10.7472 23.8088 10.4276 23.9851 10.2316C24.265 9.90444 24.6892 9.75456 25.0871 9.62636ZM30.8025 13.7355C31.978 14.7282 33.2573 15.6728 34.0689 17.0075C34.3942 17.542 34.5912 18.2905 34.1821 18.8345C33.7532 19.4303 33.0066 19.5999 32.3721 19.879C32.423 19.8941 32.5239 19.9242 32.5748 19.9393C33.459 19.946 34.3366 19.8036 35.2115 19.6857C36.0071 19.5584 36.8084 19.4444 37.5833 19.2143C37.7954 19.0419 38.1385 18.8929 38.082 18.5592C38.0283 18.0606 37.6323 17.6891 37.2929 17.3545C35.45 15.6775 33.2657 14.269 30.8025 13.7355Z" fill="white" fill-opacity="0.76"/>
<path d="M2.72637 19.3452C3.58893 19.0012 4.53067 18.8824 5.4545 18.8928C7.54348 18.904 9.5514 19.7167 11.2765 20.8498C12.6594 21.7953 13.8161 23.0283 14.8822 24.3104C15.0839 24.5423 15.2518 24.81 15.4885 25.0099C15.6826 25.0994 15.8976 25.1305 16.1049 25.1776C23.9434 26.8424 32.1296 26.7737 39.9529 25.0589C40.3705 24.63 40.7203 24.1425 41.121 23.6985C42.3229 22.3137 43.685 21.0242 45.3319 20.1833C47.1692 19.1868 49.3119 18.6571 51.399 18.9843C52.0522 19.102 52.7508 19.2246 53.2684 19.6743C54.2827 20.5387 54.7502 21.9735 54.5042 23.2753C54.08 25.4925 53.0506 27.6145 51.4603 29.2293C50.5138 30.1918 49.3722 30.9799 48.0977 31.4361C47.3351 31.7077 46.5111 31.6991 45.7156 31.6294C45.6298 33.7561 45.1801 35.9204 44.064 37.7568C43.3476 38.9474 42.3624 39.9617 41.2463 40.7838C39.8983 41.7887 38.3909 42.5447 36.9099 43.3309C34.9906 44.3414 33.0609 45.3416 31.2274 46.504C30.019 47.2648 28.8613 48.1018 27.7433 48.9898C25.0897 46.8349 22.0985 45.1559 19.0706 43.5921C17.0637 42.5165 14.9624 41.5314 13.2646 39.9815C12.1871 39.0012 11.3105 37.7954 10.7561 36.4446C10.1114 34.9221 9.84929 33.2686 9.76067 31.6266C9.32987 31.6623 8.89624 31.6916 8.46449 31.6558C7.40774 31.5851 6.44621 31.0704 5.5695 30.5132C3.03745 28.8277 1.43867 25.9817 0.927734 23.0199V22.2082C1.05877 21.06 1.66303 19.8807 2.72637 19.3452ZM3.37777 20.9988C3.08553 21.0939 2.74334 21.1599 2.5614 21.4361C2.21544 21.9112 2.19752 22.5334 2.2475 23.0971C2.305 23.5034 2.42566 23.9239 2.70752 24.233C2.91113 24.4527 3.25239 24.4989 3.51257 24.3538C4.50051 23.8871 5.5827 23.6298 6.67339 23.5714C8.99522 23.4535 11.2482 24.169 13.4041 24.9504C11.9515 23.4327 10.2735 22.0696 8.30801 21.2816C6.75823 20.6471 4.98599 20.4935 3.37777 20.9988ZM47.1069 21.3098C45.1735 22.1026 43.5154 23.4469 42.0816 24.9467C43.4682 24.4518 44.8709 23.9804 46.3254 23.7334C48.126 23.4148 50.0397 23.5015 51.7299 24.2444C51.9854 24.3595 52.271 24.5197 52.5547 24.3934C52.9045 24.2114 53.0675 23.8174 53.1637 23.4572C53.325 22.8125 53.3154 22.0753 52.9666 21.4917C52.7545 21.1373 52.3228 21.0779 51.9656 20.9582C50.3705 20.4888 48.6303 20.6764 47.1069 21.3098ZM3.14587 25.551C3.74164 26.6897 4.5137 27.819 5.67132 28.4431C5.82968 28.5025 6.00597 28.6599 6.17188 28.5411C7.3804 27.9057 8.65774 27.3836 9.99729 27.1007C11.7563 26.7067 13.6454 26.8009 15.3083 27.5268C13.2533 25.6838 10.5393 24.6686 7.80367 24.4763C6.19451 24.3679 4.50805 24.645 3.14587 25.551ZM46.2841 24.647C44.0319 25.0305 41.8779 26.0156 40.1613 27.5297C41.3443 27.0272 42.6415 26.8037 43.9245 26.883C45.7485 27.0036 47.5113 27.6069 49.1243 28.4469C49.277 28.5203 49.4476 28.659 49.6145 28.5336C50.8787 27.9547 51.7138 26.7538 52.3342 25.5538C50.5714 24.3717 48.3135 24.2774 46.2841 24.647ZM6.77237 29.2434C7.64624 29.7535 8.6813 29.9664 9.68621 29.8646C11.4132 29.6883 12.9837 28.8805 14.4741 28.0415C11.8742 27.4269 9.06592 27.8869 6.77237 29.2434ZM41.0097 28.0368C42.4821 28.8834 44.0508 29.6733 45.7618 29.8591C46.7808 29.9768 47.8272 29.7496 48.7189 29.2453C46.4226 27.885 43.6124 27.4316 41.0097 28.0368ZM17.352 28.4884C15.6967 29.5489 13.9358 30.4539 12.0759 31.0958C12.0919 31.2438 12.1089 31.3928 12.1268 31.5408C15.6892 32.9198 19.4797 33.6231 23.276 33.9427C27.3927 34.2849 31.548 34.1558 35.6336 33.544C37.5142 33.2498 39.3789 32.8444 41.2011 32.2902L41.2029 32.2412L41.2614 32.2582C41.9816 32.0761 42.6688 31.7849 43.3693 31.5398C43.3805 31.3928 43.3928 31.2447 43.406 31.0986C42.5981 30.813 41.809 30.4793 41.0295 30.1229V30.1078C39.9878 29.6196 38.9914 29.0389 38.0213 28.4204C37.9017 28.3309 37.7499 28.3762 37.6169 28.3922C36.8807 28.5213 36.1398 28.6231 35.3997 28.7222C29.5249 29.447 23.5445 29.3462 17.7057 28.3695C17.5727 28.3375 17.4595 28.428 17.352 28.4884ZM15.1867 38.2235C16.3792 39.2331 17.749 39.9957 19.1187 40.7347C20.199 41.372 21.3463 41.8971 22.5416 42.2817C25.1491 43.1434 27.9705 43.3017 30.6694 42.8246C32.6735 42.4655 34.6192 41.7632 36.3764 40.7329C37.7254 39.9928 39.0961 39.2594 40.2612 38.2423C38.0242 38.7306 35.7571 39.0776 33.4777 39.2934C31.3688 39.4801 29.2516 39.5725 27.1343 39.5592C23.1232 39.4942 19.1036 39.1162 15.1867 38.2235Z" fill="white" fill-opacity="0.76"/>
<path d="M3.37728 20.9977C4.9855 20.4924 6.75774 20.6461 8.30751 21.2805C10.273 22.0686 11.951 23.4318 13.4036 24.9495C11.2477 24.168 8.99473 23.4526 6.6729 23.5703C5.58221 23.6288 4.50001 23.8862 3.51208 24.3527C3.2519 24.498 2.91065 24.4518 2.70703 24.2321C2.42517 23.9229 2.30451 23.5025 2.247 23.0962C2.19704 22.5325 2.21495 21.9103 2.56091 21.4352C2.74285 21.159 3.08505 21.093 3.37728 20.9977Z" fill="white" fill-opacity="0.76"/>
<path d="M47.1067 21.31C48.6301 20.6765 50.3703 20.4889 51.9653 20.9583C52.3226 21.078 52.7544 21.1375 52.9665 21.4918C53.3153 22.0754 53.3247 22.8126 53.1635 23.4573C53.0673 23.8175 52.9042 24.2115 52.5545 24.3935C52.2708 24.5198 51.9851 24.3596 51.7297 24.2446C50.0394 23.5017 48.1258 23.415 46.3253 23.7336C44.8707 23.9806 43.4679 24.452 42.0813 24.9469C43.5151 23.4471 45.1733 22.1028 47.1067 21.31Z" fill="white" fill-opacity="0.76"/>
<path d="M3.14526 25.5509C4.50745 24.6451 6.19391 24.368 7.80307 24.4763C10.5387 24.6686 13.2527 25.6839 15.3078 27.5268C13.6448 26.801 11.7557 26.7068 9.99668 27.1007C8.65714 27.3835 7.3798 27.9058 6.17127 28.5411C6.00537 28.66 5.82908 28.5025 5.67071 28.4432C4.51309 27.819 3.74104 26.6898 3.14526 25.5509Z" fill="white" fill-opacity="0.76"/>
<path d="M46.2838 24.6461C48.3134 24.2765 50.5711 24.3707 52.334 25.5529C51.7137 26.7529 50.8784 27.9539 49.6144 28.5327C49.4475 28.658 49.2768 28.5195 49.1242 28.4459C47.5112 27.6061 45.7484 27.0027 43.9243 26.8821C42.6413 26.8028 41.3442 27.0263 40.1611 27.5288C41.8777 26.0147 44.0318 25.0297 46.2838 24.6461Z" fill="white" fill-opacity="0.76"/>
<path d="M6.77148 29.2424C9.06504 27.8858 11.8733 27.4259 14.4732 28.0405C12.9828 28.8795 11.4123 29.6873 9.68533 29.8636C8.68042 29.9654 7.64535 29.7524 6.77148 29.2424Z" fill="white" fill-opacity="0.76"/>
<path d="M41.01 28.0357C43.6128 27.4305 46.4228 27.8839 48.7193 29.2441C47.8274 29.7485 46.781 29.9757 45.762 29.8579C44.0511 29.6722 42.4825 28.8822 41.01 28.0357Z" fill="white" fill-opacity="0.76"/>
<path d="M65.687 17.7696C66.3085 17.1635 67.217 17.0208 68.049 17.0073C72.0752 17.0073 76.0997 17.0073 80.126 17.0073C80.075 17.7816 80.0819 18.6425 79.5859 19.2877C79.2769 19.7089 78.7318 19.8261 78.2377 19.8057C76.3748 19.7327 74.5087 19.7802 72.6424 19.7667C71.6677 19.7904 70.6607 19.6783 69.7115 19.95C69.1766 20.0944 68.876 20.6395 68.8743 21.1676C68.8336 22.5396 68.8726 23.9117 68.8607 25.2838C70.8577 25.2855 72.8564 25.2855 74.8533 25.2821C75.3356 25.2668 75.8705 25.3857 76.1677 25.7983C76.6364 26.4572 76.6465 27.3079 76.6873 28.0857C74.0773 28.0924 71.469 28.0857 68.8607 28.0891C68.8573 30.1981 68.8624 32.3072 68.8607 34.4162C68.8658 35.0666 68.6722 35.8019 68.0524 36.1262C67.0981 36.6475 65.9688 36.6271 64.911 36.6747C64.9092 31.1066 64.9127 25.5402 64.9092 19.9738C64.9143 19.1842 65.0876 18.3301 65.687 17.7696Z" fill="white" fill-opacity="0.76"/>
<path d="M96.1412 17.3763C97.0327 17.0214 98.0092 16.9925 98.9567 17.0027C101.142 17.0163 103.328 16.9874 105.513 17.018C107.164 17.1079 108.957 17.2557 110.312 18.3068C111.456 19.2188 111.647 20.8098 111.599 22.1769C111.572 23.2908 111.029 24.3674 110.152 25.0568C109.283 25.7803 108.162 26.0502 107.096 26.3372C108.626 26.5342 110.351 26.6717 111.502 27.8299C112.642 29.0236 112.713 30.8117 112.586 32.3655C112.498 33.7104 111.758 35.0061 110.565 35.6649C108.841 36.6243 106.804 36.5768 104.892 36.6583C101.499 36.6668 98.106 36.66 94.7131 36.6617C94.7114 31.5521 94.7131 26.4425 94.7131 21.3329C94.7233 20.5076 94.6571 19.6722 94.832 18.8604C94.9763 18.1812 95.5045 17.6259 96.1412 17.3763ZM99.3591 19.8691C98.7902 20.0966 98.7223 20.7929 98.7054 21.3243C98.6969 22.6013 98.7087 23.8783 98.7054 25.1553C100.375 25.1536 102.044 25.1621 103.713 25.1553C104.763 25.1196 105.905 24.9057 106.678 24.1347C107.785 23.0887 107.729 20.8489 106.26 20.1476C104.939 19.5176 103.433 19.7163 102.02 19.6806C101.134 19.7163 100.21 19.5567 99.3591 19.8691ZM99.3693 28.1932C98.8141 28.5311 98.7053 29.2274 98.702 29.8251C98.7003 31.2124 98.7054 32.5998 98.7054 33.9872C100.66 33.9838 102.614 33.9939 104.571 33.9821C105.627 33.9345 106.834 33.8666 107.61 33.0464C108.281 32.3943 108.276 31.3738 108.179 30.5095C108.055 29.3785 107.125 28.4904 106.07 28.1695C104.654 27.7262 103.149 27.8536 101.686 27.8282C100.91 27.84 100.066 27.7874 99.3693 28.1932Z" fill="white" fill-opacity="0.76"/>
<path d="M78.1227 21.8385C79.206 21.7858 80.3777 21.8299 81.2778 22.516C83.3885 22.0168 85.5807 21.8622 87.7391 22.0983C88.96 22.2461 90.2165 22.5414 91.2235 23.2835C91.9792 23.8371 92.4937 24.7371 92.4631 25.6897C92.4631 29.3305 92.4648 32.973 92.4631 36.6154C91.3832 36.5695 90.2285 36.6154 89.2503 36.0856C88.6373 35.7477 88.5117 35.0005 88.5151 34.3637C88.5134 31.8675 88.5134 29.3713 88.5184 26.8768C88.527 26.2229 88.3894 25.5081 87.8681 25.0666C87.1039 24.3822 86.0121 24.3109 85.0356 24.3329C84.1424 24.3516 83.1474 24.5351 82.5343 25.2466C82.1369 25.6897 82.0657 26.3113 82.0605 26.8819C82.0622 29.3186 82.0622 31.7554 82.064 34.1905C82.0657 34.8307 81.9366 35.5659 81.3593 35.9447C80.4151 36.5865 79.2112 36.5644 78.1141 36.6188C78.1175 31.6926 78.104 26.7647 78.1227 21.8385Z" fill="white" fill-opacity="0.76"/>
<path d="M117.259 22.6296C119.078 21.9436 121.062 21.9639 122.976 22.0251C124.878 22.1405 127.027 22.684 128.11 24.4008C129.181 26.1667 129.097 28.3318 129.1 30.3237C125.285 30.3271 121.472 30.3152 117.657 30.3289C117.685 31.3375 117.837 32.392 118.426 33.241C119.062 34.2107 120.274 34.552 121.374 34.603C122.519 34.6386 123.784 34.5469 124.712 33.7998C125.191 33.4449 125.263 32.8267 125.267 32.2765C126.55 32.2765 127.836 32.2748 129.119 32.2783C129.055 33.3684 128.736 34.518 127.877 35.2534C126.576 36.3775 124.812 36.7612 123.14 36.9039H120.193C118.625 36.7715 116.957 36.4895 115.727 35.4248C114.353 34.2429 113.849 32.3733 113.751 30.6277C113.684 28.8056 113.676 26.8885 114.486 25.2107C115.034 24.0322 116.051 23.0983 117.259 22.6296ZM118.635 25.1631C117.8 25.8339 117.638 26.9802 117.669 27.9872C119.924 27.9872 122.181 27.9956 124.438 27.9837C124.944 28.038 125.287 27.5286 125.199 27.0634C125.213 25.7286 124.1 24.6266 122.818 24.4364C121.412 24.2275 119.806 24.2445 118.635 25.1631Z" fill="white" fill-opacity="0.76"/>
<path d="M133.796 22.5374C135.6 21.9448 137.532 21.9532 139.409 22.0347C141.266 22.1622 143.346 22.7242 144.405 24.3934C145.474 26.1612 145.393 28.328 145.402 30.3232C141.587 30.3266 137.775 30.3165 133.962 30.3283C133.981 31.2147 134.091 32.1301 134.525 32.9197C135.017 33.9164 136.104 34.4548 137.174 34.5549C138.47 34.6823 139.936 34.6415 141.007 33.8027C141.492 33.4512 141.555 32.8262 141.572 32.276C142.849 32.276 144.128 32.276 145.405 32.276C145.357 33.3645 145.036 34.5159 144.177 35.2461C142.879 36.3736 141.115 36.7608 139.446 36.9034H136.442C134.93 36.7573 133.321 36.5009 132.114 35.5008C130.777 34.4072 130.209 32.6547 130.074 30.9855C129.929 29.1804 129.953 27.2955 130.616 25.5873C131.159 24.1659 132.348 23.0146 133.796 22.5374ZM134.932 25.1627C134.101 25.8334 133.933 26.9813 133.971 27.9866C136.281 27.9782 138.592 28.0121 140.899 27.9714C141.584 27.8864 141.57 27.051 141.426 26.5449C141.214 25.3342 140.064 24.5191 138.891 24.3968C137.551 24.2474 136.037 24.2813 134.932 25.1627Z" fill="white" fill-opacity="0.76"/>
<path d="M150.77 22.2235C152.19 21.9688 153.642 21.9671 155.08 22.0283C156.72 22.1573 158.503 22.4816 159.718 23.6907C160.561 24.5244 160.817 25.742 160.86 26.8848C159.593 26.8848 158.328 26.8848 157.064 26.8848C157.021 26.1631 156.904 25.365 156.315 24.8726C155.349 24.0354 153.98 24.0727 152.78 24.1525C152.076 24.2256 151.203 24.4446 150.94 25.1935C150.762 25.7878 150.69 26.5249 151.102 27.0427C151.543 27.4808 152.181 27.6184 152.769 27.7458C154.348 28.0378 155.96 28.0548 157.548 28.262C158.603 28.4165 159.711 28.7935 160.393 29.6629C161.097 30.5374 161.134 31.7363 161.037 32.8061C160.952 33.6977 160.521 34.5297 159.874 35.141C158.614 36.3603 156.814 36.7475 155.126 36.9036H152.454C150.614 36.7679 148.591 36.3569 147.34 34.8778C146.607 34.0831 146.401 32.9827 146.353 31.9401C147.669 31.9333 148.987 31.9383 150.305 31.9367C150.383 32.6431 150.444 33.4209 150.969 33.9608C151.632 34.7046 152.694 34.8065 153.63 34.8269C154.657 34.8286 155.78 34.7487 156.626 34.0984C157.512 33.4022 157.5 31.6939 156.382 31.232C155.25 30.7616 153.99 30.8465 152.794 30.6801C151.417 30.4933 149.981 30.478 148.685 29.9278C147.722 29.5304 147.017 28.5999 146.9 27.5658C146.753 26.3346 146.78 24.9303 147.628 23.9386C148.393 22.9673 149.58 22.4443 150.77 22.2235Z" fill="white" fill-opacity="0.76"/>
</svg>
