<svg width="351" height="351" viewBox="0 0 351 351" fill="none" xmlns="http://www.w3.org/2000/svg">
<g clip-path="url(#clip0_1070_574)">
<rect x="0.5" y="0.179321" width="350" height="350" rx="175" fill="#191949"/>
<g clip-path="url(#clip1_1070_574)">
<path d="M107.767 109.345H115.378C110.84 110.325 106.378 112.142 103.051 115.477C98.8299 119.53 96.3807 125.31 96.4074 131.161C96.3941 177.028 96.4074 222.895 96.3985 268.763C96.3362 275.79 99.8942 282.714 105.688 286.7C108.409 288.762 111.74 289.621 114.906 290.734C112.924 290.748 110.938 290.806 108.956 290.672C102.548 290.485 96.3807 287.136 92.551 282.024C89.5719 278.132 88.0756 273.216 88.0979 268.331C88.1024 222.753 88.0979 177.18 88.1024 131.606C88.0667 125.982 90.133 120.34 94.025 116.248C97.5786 112.369 102.571 109.978 107.767 109.345Z" fill="url(#paint0_linear_1070_574)"/>
<path d="M115.378 109.345H260.96C266.361 109.501 271.7 111.67 275.57 115.464C279.805 119.507 282.254 125.31 282.241 131.161C282.263 141.149 282.245 151.133 282.25 161.117C278.349 161.117 274.444 161.117 270.543 161.117C270.485 158.214 270.841 155.19 269.75 152.425C268.08 147.816 263.453 144.471 258.537 144.422C213.178 144.347 167.809 144.498 122.45 144.347C119.274 144.267 116.099 144.311 112.924 144.302C110.52 144.298 108.061 144.748 105.991 146.03C102.152 148.221 99.7341 152.576 99.8544 156.989C99.8321 194.248 99.8232 231.508 99.8588 268.767C99.6584 273.995 104.143 278.84 109.366 279C113.12 279.014 116.874 279.036 120.628 278.965C141.816 279 163 278.969 184.188 278.983C184.188 282.879 184.188 286.776 184.188 290.676C161.094 290.712 138 290.605 114.906 290.734C111.74 289.621 108.409 288.762 105.688 286.7C99.8945 282.714 96.3364 275.79 96.3988 268.763C96.4077 222.895 96.3943 177.028 96.4077 131.161C96.3809 125.31 98.8302 119.53 103.052 115.477C106.378 112.142 110.84 110.325 115.378 109.345ZM105.563 120.282C102.891 120.839 100.638 123.088 100.09 125.764C99.1152 129.714 102.223 133.998 106.258 134.354C110.542 134.991 114.679 130.978 114.18 126.681C113.962 122.544 109.602 119.28 105.563 120.282ZM128.27 120.282C125.113 120.928 122.605 123.934 122.632 127.171C122.499 131.019 125.963 134.532 129.824 134.403C133.827 134.479 137.336 130.649 136.878 126.663C136.651 122.535 132.295 119.285 128.27 120.282ZM150.976 120.282C147.97 120.901 145.526 123.649 145.352 126.73C144.942 130.742 148.54 134.572 152.575 134.398C156.552 134.447 160.025 130.64 159.58 126.677C159.361 122.549 155.011 119.285 150.976 120.282Z" fill="url(#paint1_linear_1070_574)"/>
<path d="M216.758 291.594C217.893 291.273 219.091 291.411 220.258 291.385C240.738 291.398 261.218 291.385 281.698 291.393C283.719 291.175 285.679 292.948 285.505 295.009C285.461 296.938 283.59 298.465 281.698 298.278C260.479 298.269 239.255 298.291 218.036 298.265C215.858 298.421 213.979 296.167 214.553 294.056C214.803 292.93 215.671 291.963 216.758 291.594Z" fill="url(#paint2_linear_1070_574)"/>
<path d="M216.9 303.333C217.412 303.212 217.929 303.159 218.459 303.172C239.549 303.181 260.639 303.168 281.724 303.177C283.671 302.99 285.568 304.628 285.51 306.614C285.568 308.601 283.684 310.244 281.733 310.061C260.492 310.057 239.246 310.075 218.005 310.052C216.304 310.137 214.709 308.788 214.5 307.104C214.233 305.474 215.32 303.782 216.9 303.333Z" fill="url(#paint3_linear_1070_574)"/>
<path d="M105.563 120.282C109.602 119.28 113.962 122.544 114.18 126.681C114.679 130.979 110.542 134.991 106.258 134.354C102.223 133.998 99.1151 129.714 100.09 125.764C100.638 123.088 102.891 120.839 105.563 120.282Z" fill="#F1F4F6"/>
<path d="M128.27 120.282C132.295 119.285 136.65 122.535 136.878 126.663C137.336 130.649 133.827 134.479 129.824 134.403C125.963 134.532 122.498 131.018 122.632 127.171C122.605 123.934 125.112 120.928 128.27 120.282Z" fill="#F1F4F6"/>
<path d="M150.976 120.282C155.011 119.284 159.361 122.549 159.58 126.677C160.025 130.64 156.551 134.447 152.575 134.398C148.54 134.572 144.942 130.742 145.352 126.73C145.526 123.648 147.97 120.901 150.976 120.282Z" fill="#F1F4F6"/>
<path d="M208.555 175.407C213.266 175.073 218.009 175.291 222.729 175.323C222.68 178.462 223.66 181.642 225.722 184.042C228.073 186.892 231.707 188.615 235.407 188.629C245.044 188.651 254.685 188.637 264.322 188.633C268.151 188.678 271.954 186.914 274.359 183.926C276.349 181.53 277.285 178.404 277.253 175.314C281.261 175.309 285.269 175.305 289.277 175.314C293.156 175.278 296.981 177.229 299.234 180.386C300.891 182.617 301.674 185.418 301.603 188.179C301.594 228.996 301.608 269.813 301.594 310.631C301.728 315.645 298.477 320.512 293.788 322.294C291.241 323.371 288.426 323.14 285.728 323.153C263.818 323.166 241.9 323.131 219.991 323.175C217.947 322.262 215.769 321.47 214.117 319.902C211.294 317.359 210.114 313.445 210.042 309.74C210.02 269.658 210.065 229.571 210.02 189.484C209.98 186.001 210.782 182.354 213.053 179.624C214.447 177.856 216.575 176.975 218.45 175.844C215.159 175.438 211.837 175.937 208.555 175.407ZM237.18 205.577C230.678 209.1 225.775 215.427 224.034 222.619C222.231 229.824 223.607 237.755 227.775 243.905C231.03 248.795 235.946 252.433 241.432 254.455C230.709 257.772 223.023 268.638 223.224 279.837C229.048 279.815 234.877 279.913 240.698 279.788C252.699 279.699 264.7 279.78 276.706 279.748C276.67 275.812 275.82 271.88 274.118 268.331C271.113 261.914 265.439 256.828 258.746 254.513C261.93 252.811 265.301 251.355 267.955 248.83C274.617 242.752 278.028 233.155 276.238 224.258C275.267 218.888 272.622 213.851 268.708 210.048C265.8 206.975 261.966 205.016 258.087 203.466C251.18 201.48 243.49 202.032 237.18 205.577ZM216.758 291.594C215.671 291.963 214.803 292.93 214.553 294.056C213.979 296.167 215.858 298.42 218.036 298.264C239.255 298.291 260.478 298.269 281.698 298.278C283.59 298.465 285.461 296.937 285.505 295.009C285.679 292.947 283.719 291.175 281.698 291.393C261.218 291.384 240.738 291.398 220.258 291.384C219.091 291.411 217.893 291.273 216.758 291.594ZM216.9 303.332C215.319 303.782 214.233 305.474 214.5 307.104C214.709 308.787 216.303 310.137 218.005 310.052C239.246 310.074 260.492 310.056 281.733 310.061C283.684 310.243 285.567 308.6 285.51 306.614C285.567 304.628 283.67 302.989 281.724 303.176C260.639 303.167 239.549 303.181 218.459 303.172C217.929 303.158 217.412 303.212 216.9 303.332Z" fill="white"/>
<path d="M105.991 146.03C108.061 144.748 110.52 144.298 112.924 144.302C116.099 144.311 119.274 144.267 122.45 144.347C120.495 145.255 118.428 146.057 116.807 147.522C114.242 149.771 112.693 153.133 112.653 156.544C112.564 160 112.777 163.464 112.528 166.92C111.468 167.712 110.07 168.492 109.95 169.97C109.669 172.459 109.914 174.975 109.807 177.478C109.869 178.979 109.558 180.769 110.702 181.962C111.588 183.018 113.111 182.84 114.345 182.924C113.793 183.125 113.236 183.312 112.684 183.503C112.59 185.409 112.586 187.319 112.67 189.225C113.236 189.412 113.806 189.599 114.372 189.8C113.267 189.853 112.056 189.738 111.058 190.285C109.669 191.367 109.838 193.3 109.798 194.868C109.887 197.513 109.656 200.176 109.927 202.816C110.056 204.286 111.522 204.989 112.555 205.787C112.635 207.835 112.635 209.883 112.719 211.932C111.513 212.604 110.123 213.41 109.901 214.915C109.451 218.091 110.898 221.159 112.715 223.67C112.581 228.311 112.626 232.951 112.693 237.595C112.305 238.321 111.86 239.025 111.624 239.822C111.37 241.006 112.198 241.999 112.63 243.028C112.679 245.112 112.595 247.201 112.711 249.289C112.301 250.126 111.762 250.932 111.597 251.872C111.584 252.865 112.145 253.747 112.452 254.669C113.009 259.986 112.283 265.365 112.817 270.682C113.432 274.77 116.843 277.745 120.628 278.965C116.874 279.036 113.12 279.014 109.366 279C104.143 278.84 99.6584 273.995 99.8588 268.767C99.8232 231.508 99.8321 194.249 99.8544 156.989C99.7341 152.576 102.152 148.221 105.991 146.03Z" fill="white"/>
<path d="M122.449 144.347C167.809 144.498 213.177 144.347 258.537 144.422C263.453 144.471 268.08 147.816 269.75 152.425C270.841 155.19 270.485 158.214 270.543 161.117C253.492 161.122 236.436 161.117 219.385 161.122C214.01 161.086 208.613 160.788 203.247 161.206C197.747 161.856 192.551 164.702 189.05 168.995C185.996 172.731 184.161 177.518 184.183 182.363C184.192 214.572 184.188 246.777 184.188 278.982C163 278.969 141.816 279 120.628 278.965C116.843 277.744 113.432 274.77 112.817 270.682C112.283 265.365 113.009 259.985 112.452 254.668C113.45 255.118 114.483 255.572 115.601 255.528C133.271 255.532 150.945 255.514 168.615 255.537C169.635 255.51 170.757 255.457 171.554 254.74C173.113 253.515 173.219 250.91 171.719 249.592C170.913 248.75 169.693 248.67 168.602 248.661C151.083 248.67 133.569 248.679 116.055 248.657C114.906 248.621 113.788 248.919 112.71 249.289C112.595 247.201 112.679 245.112 112.63 243.028C114.67 244.043 116.985 243.714 119.181 243.74C135.813 243.732 152.45 243.754 169.087 243.732C170.868 243.865 172.618 242.52 172.774 240.708C173.108 238.579 171.14 236.655 169.034 236.883C152.268 236.883 135.497 236.887 118.727 236.883C116.7 236.896 114.563 236.611 112.693 237.595C112.626 232.951 112.581 228.31 112.715 223.67C113.913 224.895 115.195 226.289 116.945 226.645C119.029 226.997 121.105 225.046 120.833 222.944C120.735 221.07 118.829 220.232 117.796 218.919C116.487 217.409 117.048 215.187 116.095 213.526C115.387 212.346 113.935 212.186 112.719 211.932C112.635 209.883 112.635 207.835 112.555 205.786C114.291 205.622 116.389 204.874 116.607 202.861C116.861 199.757 116.669 196.631 116.714 193.518C116.83 191.928 115.988 190.232 114.371 189.8C113.806 189.599 113.236 189.412 112.67 189.225C112.586 187.319 112.59 185.409 112.684 183.503C113.236 183.312 113.793 183.124 114.345 182.924C115.583 182.568 116.549 181.441 116.638 180.145C116.847 177.634 116.643 175.104 116.736 172.588C116.687 171.137 116.972 169.44 115.921 168.264C115.106 167.236 113.703 167.196 112.528 166.92C112.777 163.464 112.563 159.999 112.653 156.544C112.693 153.133 114.242 149.771 116.807 147.522C118.428 146.057 120.494 145.255 122.449 144.347ZM121.55 158.989C119.524 159.34 118.237 161.781 119.11 163.651C119.68 165.072 121.216 165.882 122.712 165.78C125.696 165.766 128.684 165.829 131.667 165.748C133.747 165.717 135.372 163.433 134.758 161.451C134.379 159.893 132.816 158.788 131.222 158.904C128.002 158.935 124.765 158.775 121.55 158.989ZM143.833 159.029C140.56 159.737 140.569 164.956 143.847 165.646C147.187 165.944 150.566 165.731 153.92 165.762C156.16 165.846 157.976 163.402 157.202 161.282C156.73 159.701 155.055 158.761 153.452 158.891C150.25 158.971 147.022 158.717 143.833 159.029ZM166.941 160.316C164.79 160.258 163.044 162.547 163.645 164.608C164.099 166.461 166.273 167.067 167.047 168.741C168.023 170.406 167.23 172.767 168.882 174.08C170.712 175.848 174.181 174.655 174.489 172.116C174.84 168.438 173.264 164.684 170.557 162.204C169.541 161.3 168.374 160.311 166.941 160.316ZM169.653 181.699C167.306 182.737 167.658 185.596 167.684 187.693C167.8 190.165 167.444 192.681 167.898 195.126C168.7 197.9 172.97 198.181 174.177 195.58C174.934 193.509 174.435 191.234 174.569 189.078C174.52 187.297 174.738 185.494 174.382 183.739C173.843 181.811 171.425 180.782 169.653 181.699ZM170.525 203.921C169.083 204.134 167.867 205.377 167.756 206.837C167.582 209.518 167.756 212.208 167.671 214.893C167.644 216.349 167.56 218.09 168.855 219.075C170.69 220.807 174.141 219.631 174.449 217.106C174.698 213.856 174.542 210.582 174.551 207.323C174.658 205.243 172.556 203.466 170.525 203.921ZM129.61 221.35C127.793 221.742 126.595 223.79 127.139 225.572C127.513 227.153 129.125 228.212 130.719 228.114C133.707 228.123 136.704 228.163 139.692 228.097C141.647 228.132 143.33 226.213 143.05 224.285C142.885 222.437 141.055 221.052 139.238 221.234C136.031 221.301 132.807 221.092 129.61 221.35ZM152.281 221.323C149.76 221.671 148.62 225.095 150.357 226.93C152.054 228.8 154.828 227.932 157.041 228.123C159.33 227.936 161.819 228.604 163.966 227.607C166.593 226.155 165.796 221.657 162.781 221.314C159.286 221.19 155.772 221.168 152.281 221.323Z" fill="white"/>
<path d="M198.34 187.733C198.113 181.838 202.771 176.351 208.555 175.407C211.837 175.937 215.159 175.438 218.45 175.844C216.575 176.975 214.447 177.856 213.053 179.624C210.782 182.354 209.98 186.001 210.02 189.484C210.065 229.571 210.02 269.658 210.043 309.74C210.114 313.445 211.294 317.359 214.117 319.902C215.769 321.47 217.947 322.262 219.991 323.175C216.678 323.211 213.356 323.242 210.043 323.162C204.409 323.051 199.324 318.455 198.491 312.911C198.26 310.974 198.331 309.019 198.322 307.073C198.331 267.293 198.304 227.513 198.34 187.733Z" fill="white"/>
<path d="M121.55 158.989C124.765 158.775 128.003 158.935 131.222 158.904C132.816 158.788 134.379 159.893 134.758 161.451C135.372 163.433 133.747 165.717 131.667 165.748C128.684 165.829 125.696 165.766 122.712 165.78C121.216 165.882 119.68 165.072 119.11 163.651C118.237 161.781 119.524 159.34 121.55 158.989Z" fill="url(#paint4_linear_1070_574)"/>
<path d="M143.833 159.029C147.022 158.717 150.25 158.971 153.452 158.891C155.055 158.762 156.73 159.701 157.202 161.282C157.976 163.402 156.16 165.846 153.92 165.762C150.566 165.731 147.187 165.944 143.847 165.646C140.569 164.956 140.56 159.737 143.833 159.029Z" fill="url(#paint5_linear_1070_574)"/>
<path d="M166.941 160.316C168.375 160.311 169.541 161.3 170.557 162.204C173.264 164.684 174.841 168.438 174.489 172.116C174.182 174.655 170.713 175.848 168.882 174.08C167.23 172.767 168.023 170.406 167.048 168.741C166.273 167.067 164.1 166.461 163.645 164.608C163.044 162.547 164.79 160.258 166.941 160.316Z" fill="url(#paint6_linear_1070_574)"/>
<path d="M109.95 169.97C110.07 168.492 111.468 167.712 112.528 166.92C113.704 167.196 115.106 167.236 115.921 168.264C116.972 169.44 116.687 171.137 116.736 172.588C116.643 175.104 116.848 177.634 116.638 180.145C116.549 181.441 115.583 182.568 114.345 182.924C113.111 182.839 111.588 183.018 110.702 181.962C109.558 180.769 109.869 178.979 109.807 177.478C109.914 174.975 109.669 172.459 109.95 169.97Z" fill="url(#paint7_linear_1070_574)"/>
<path d="M169.653 181.7C171.425 180.782 173.843 181.811 174.382 183.739C174.738 185.494 174.52 187.297 174.569 189.078C174.435 191.234 174.934 193.509 174.177 195.58C172.97 198.181 168.7 197.9 167.898 195.126C167.444 192.681 167.8 190.165 167.684 187.694C167.658 185.596 167.306 182.737 169.653 181.7Z" fill="url(#paint8_linear_1070_574)"/>
<path d="M111.058 190.285C112.056 189.737 113.267 189.853 114.371 189.8C115.988 190.232 116.83 191.928 116.714 193.518C116.669 196.631 116.861 199.757 116.607 202.861C116.389 204.874 114.291 205.622 112.555 205.787C111.521 204.989 110.056 204.286 109.927 202.816C109.656 200.176 109.887 197.513 109.798 194.867C109.838 193.3 109.669 191.367 111.058 190.285Z" fill="url(#paint9_linear_1070_574)"/>
<path d="M170.525 203.921C172.556 203.466 174.658 205.243 174.551 207.323C174.542 210.583 174.698 213.856 174.449 217.106C174.141 219.631 170.69 220.807 168.856 219.075C167.56 218.091 167.644 216.349 167.671 214.893C167.756 212.208 167.582 209.518 167.756 206.837C167.867 205.377 169.083 204.134 170.525 203.921Z" fill="url(#paint10_linear_1070_574)"/>
<path d="M109.901 214.915C110.123 213.41 111.513 212.604 112.719 211.932C113.935 212.186 115.387 212.346 116.095 213.526C117.048 215.187 116.487 217.409 117.796 218.919C118.829 220.233 120.735 221.07 120.833 222.944C121.105 225.046 119.029 226.997 116.945 226.645C115.195 226.289 113.913 224.895 112.715 223.67C110.898 221.159 109.451 218.091 109.901 214.915Z" fill="url(#paint11_linear_1070_574)"/>
<path d="M129.61 221.35C132.807 221.092 136.031 221.301 139.238 221.234C141.055 221.052 142.885 222.437 143.05 224.285C143.33 226.213 141.647 228.132 139.692 228.097C136.704 228.163 133.707 228.123 130.719 228.114C129.125 228.212 127.513 227.153 127.139 225.572C126.595 223.79 127.793 221.742 129.61 221.35Z" fill="url(#paint12_linear_1070_574)"/>
<path d="M152.281 221.323C155.772 221.167 159.286 221.19 162.781 221.314C165.796 221.657 166.593 226.155 163.966 227.607C161.82 228.604 159.33 227.936 157.041 228.123C154.828 227.932 152.054 228.8 150.357 226.93C148.621 225.095 149.761 221.671 152.281 221.323Z" fill="url(#paint13_linear_1070_574)"/>
<path d="M112.693 237.595C114.563 236.611 116.7 236.896 118.727 236.883C135.497 236.887 152.268 236.883 169.034 236.883C171.14 236.655 173.108 238.579 172.774 240.708C172.618 242.52 170.868 243.865 169.087 243.731C152.45 243.754 135.813 243.731 119.181 243.74C116.985 243.714 114.67 244.043 112.63 243.028C112.198 241.999 111.37 241.006 111.624 239.822C111.86 239.025 112.305 238.321 112.693 237.595Z" fill="url(#paint14_linear_1070_574)"/>
<path d="M112.711 249.289C113.788 248.92 114.906 248.621 116.055 248.657C133.569 248.679 151.083 248.67 168.602 248.661C169.693 248.67 170.913 248.75 171.719 249.592C173.22 250.91 173.113 253.515 171.554 254.74C170.757 255.457 169.635 255.51 168.615 255.537C150.945 255.515 133.271 255.532 115.601 255.528C114.483 255.573 113.45 255.118 112.452 254.669C112.145 253.747 111.584 252.865 111.597 251.872C111.762 250.932 112.301 250.126 112.711 249.289Z" fill="url(#paint15_linear_1070_574)"/>
<path d="M203.247 161.206C208.613 160.788 214.01 161.086 219.385 161.122C236.436 161.117 253.492 161.122 270.543 161.117C274.443 161.117 278.349 161.117 282.25 161.117C286.373 161.135 290.497 161.095 294.616 161.14C299.412 161.224 304.155 162.956 307.851 166.02C312.834 170.055 315.822 176.4 315.773 182.813C315.791 225.714 315.777 268.611 315.782 311.513C315.764 313.726 315.862 315.948 315.626 318.157C315.092 323.131 312.718 327.869 309.111 331.325C305.299 335.003 300.116 337.158 294.825 337.345H215.239C210.929 336.33 206.564 334.736 203.398 331.503C199.03 327.615 196.487 321.813 196.505 315.97C196.509 271.586 196.509 227.202 196.505 182.817C196.327 175.964 199.845 169.24 205.389 165.263C207.713 163.424 210.554 162.533 213.28 161.482C209.949 161.086 206.591 161.371 203.247 161.206ZM208.555 175.407C202.77 176.351 198.112 181.838 198.34 187.734C198.304 227.513 198.331 267.293 198.322 307.073C198.331 309.019 198.259 310.974 198.491 312.911C199.324 318.455 204.409 323.051 210.042 323.162C213.355 323.242 216.678 323.211 219.991 323.175C241.9 323.131 263.818 323.167 285.728 323.153C288.426 323.14 291.241 323.371 293.788 322.294C298.477 320.512 301.728 315.645 301.594 310.631C301.608 269.814 301.594 228.996 301.603 188.179C301.674 185.418 300.891 182.617 299.234 180.386C296.981 177.229 293.155 175.278 289.277 175.314C285.269 175.305 281.261 175.309 277.253 175.314C277.285 178.404 276.349 181.53 274.359 183.926C271.954 186.914 268.151 188.678 264.322 188.633C254.685 188.638 245.044 188.651 235.407 188.629C231.707 188.615 228.073 186.892 225.722 184.042C223.66 181.642 222.68 178.462 222.729 175.323C218.009 175.292 213.266 175.073 208.555 175.407ZM235.109 175.425C233.92 175.679 232.882 176.579 232.553 177.763C231.783 179.834 233.684 182.256 235.839 182.212C245.191 182.238 254.542 182.212 263.894 182.221C265.466 182.332 266.993 181.205 267.43 179.718C268.098 177.536 266.205 175.087 263.903 175.309C255.295 175.256 246.687 175.314 238.079 175.278C237.086 175.287 236.089 175.247 235.109 175.425Z" fill="url(#paint16_linear_1070_574)"/>
<path d="M189.05 168.995C192.551 164.702 197.747 161.856 203.247 161.206C206.591 161.371 209.949 161.086 213.28 161.482C210.555 162.533 207.713 163.424 205.389 165.263C199.845 169.24 196.327 175.964 196.505 182.817C196.509 227.202 196.509 271.586 196.505 315.97C196.487 321.813 199.03 327.615 203.398 331.503C206.565 334.736 210.929 336.33 215.239 337.345H203.559C199.306 336.789 195.173 335.132 191.896 332.34C187.345 328.541 184.388 322.806 184.188 316.861C184.183 308.133 184.192 299.405 184.188 290.676C184.188 286.776 184.188 282.879 184.188 278.983C184.188 246.778 184.192 214.573 184.183 182.363C184.161 177.518 185.996 172.731 189.05 168.995Z" fill="url(#paint17_linear_1070_574)"/>
<path d="M235.109 175.425C236.089 175.247 237.086 175.287 238.079 175.278C246.687 175.313 255.295 175.256 263.903 175.309C266.205 175.086 268.098 177.536 267.43 179.718C266.994 181.205 265.466 182.332 263.894 182.22C254.543 182.211 245.191 182.238 235.839 182.211C233.684 182.256 231.783 179.833 232.553 177.763C232.883 176.578 233.92 175.679 235.109 175.425Z" fill="url(#paint18_linear_1070_574)"/>
<path d="M237.18 205.577C243.49 202.032 251.18 201.48 258.087 203.466C257.539 204.254 256.613 204.593 255.785 204.985C249.301 208.017 244.207 213.829 241.985 220.624C240.52 224.921 240.306 229.593 241.107 234.046C242.466 241.429 247.164 248.06 253.572 251.934C255.175 252.838 256.836 253.631 258.501 254.414C257.642 254.682 256.782 254.935 255.918 255.194C251.131 256.267 246.095 255.986 241.432 254.454C235.946 252.433 231.03 248.795 227.775 243.905C223.607 237.755 222.231 229.824 224.034 222.619C225.775 215.427 230.678 209.099 237.18 205.577Z" fill="url(#paint19_linear_1070_574)"/>
<path d="M258.087 203.466C261.966 205.016 265.8 206.975 268.708 210.048C272.622 213.851 275.267 218.888 276.238 224.258C278.028 233.155 274.617 242.752 267.955 248.83C265.301 251.355 261.93 252.811 258.746 254.513L258.501 254.415C256.836 253.631 255.175 252.838 253.572 251.934C247.164 248.06 242.466 241.429 241.107 234.046C240.306 229.593 240.52 224.922 241.985 220.624C244.207 213.829 249.301 208.018 255.785 204.985C256.613 204.593 257.54 204.255 258.087 203.466Z" fill="url(#paint20_linear_1070_574)"/>
<path d="M223.224 279.837C223.023 268.638 230.709 257.772 241.433 254.455C246.095 255.986 251.132 256.267 255.919 255.194C254.93 255.937 253.928 256.672 252.868 257.314C245.271 262.012 240.524 270.869 240.698 279.788C234.878 279.913 229.048 279.815 223.224 279.837Z" fill="url(#paint21_linear_1070_574)"/>
<path d="M255.919 255.194C256.782 254.935 257.642 254.682 258.501 254.414L258.746 254.512C265.439 256.828 271.113 261.913 274.118 268.33C275.82 271.88 276.67 275.812 276.706 279.748C264.7 279.779 252.699 279.699 240.698 279.788C240.524 270.869 245.271 262.011 252.868 257.313C253.928 256.672 254.93 255.937 255.919 255.194Z" fill="url(#paint22_linear_1070_574)"/>
</g>
</g>
<defs>
<linearGradient id="paint0_linear_1070_574" x1="101.738" y1="109.345" x2="101.738" y2="290.758" gradientUnits="userSpaceOnUse">
<stop stop-color="#FD0091"/>
<stop offset="0.0001" stop-color="#FD0091"/>
<stop offset="1" stop-color="#FF7732"/>
</linearGradient>
<linearGradient id="paint1_linear_1070_574" x1="189.325" y1="109.345" x2="189.325" y2="290.734" gradientUnits="userSpaceOnUse">
<stop stop-color="#FD0091"/>
<stop offset="0.0001" stop-color="#FD0091"/>
<stop offset="1" stop-color="#FF7732"/>
</linearGradient>
<linearGradient id="paint2_linear_1070_574" x1="249.982" y1="291.375" x2="249.982" y2="298.294" gradientUnits="userSpaceOnUse">
<stop stop-color="#FD0091"/>
<stop offset="0.0001" stop-color="#FD0091"/>
<stop offset="1" stop-color="#FF7732"/>
</linearGradient>
<linearGradient id="paint3_linear_1070_574" x1="249.985" y1="303.162" x2="249.985" y2="310.075" gradientUnits="userSpaceOnUse">
<stop stop-color="#FD0091"/>
<stop offset="0.0001" stop-color="#FD0091"/>
<stop offset="1" stop-color="#FF7732"/>
</linearGradient>
<linearGradient id="paint4_linear_1070_574" x1="126.861" y1="158.875" x2="126.861" y2="165.79" gradientUnits="userSpaceOnUse">
<stop stop-color="#FD0091"/>
<stop offset="0.0001" stop-color="#FD0091"/>
<stop offset="1" stop-color="#FF7732"/>
</linearGradient>
<linearGradient id="paint5_linear_1070_574" x1="149.383" y1="158.869" x2="149.383" y2="165.807" gradientUnits="userSpaceOnUse">
<stop stop-color="#FD0091"/>
<stop offset="0.0001" stop-color="#FD0091"/>
<stop offset="1" stop-color="#FF7732"/>
</linearGradient>
<linearGradient id="paint6_linear_1070_574" x1="169.032" y1="160.315" x2="169.032" y2="174.921" gradientUnits="userSpaceOnUse">
<stop stop-color="#FD0091"/>
<stop offset="0.0001" stop-color="#FD0091"/>
<stop offset="1" stop-color="#FF7732"/>
</linearGradient>
<linearGradient id="paint7_linear_1070_574" x1="113.272" y1="166.92" x2="113.272" y2="182.924" gradientUnits="userSpaceOnUse">
<stop stop-color="#FD0091"/>
<stop offset="0.0001" stop-color="#FD0091"/>
<stop offset="1" stop-color="#FF7732"/>
</linearGradient>
<linearGradient id="paint8_linear_1070_574" x1="171.129" y1="181.36" x2="171.129" y2="197.378" gradientUnits="userSpaceOnUse">
<stop stop-color="#FD0091"/>
<stop offset="0.0001" stop-color="#FD0091"/>
<stop offset="1" stop-color="#FF7732"/>
</linearGradient>
<linearGradient id="paint9_linear_1070_574" x1="113.266" y1="189.8" x2="113.266" y2="205.787" gradientUnits="userSpaceOnUse">
<stop stop-color="#FD0091"/>
<stop offset="0.0001" stop-color="#FD0091"/>
<stop offset="1" stop-color="#FF7732"/>
</linearGradient>
<linearGradient id="paint10_linear_1070_574" x1="171.125" y1="203.849" x2="171.125" y2="219.896" gradientUnits="userSpaceOnUse">
<stop stop-color="#FD0091"/>
<stop offset="0.0001" stop-color="#FD0091"/>
<stop offset="1" stop-color="#FF7732"/>
</linearGradient>
<linearGradient id="paint11_linear_1070_574" x1="115.337" y1="211.932" x2="115.337" y2="226.686" gradientUnits="userSpaceOnUse">
<stop stop-color="#FD0091"/>
<stop offset="0.0001" stop-color="#FD0091"/>
<stop offset="1" stop-color="#FF7732"/>
</linearGradient>
<linearGradient id="paint12_linear_1070_574" x1="135.044" y1="221.217" x2="135.044" y2="228.135" gradientUnits="userSpaceOnUse">
<stop stop-color="#FD0091"/>
<stop offset="0.0001" stop-color="#FD0091"/>
<stop offset="1" stop-color="#FF7732"/>
</linearGradient>
<linearGradient id="paint13_linear_1070_574" x1="157.539" y1="221.214" x2="157.539" y2="228.171" gradientUnits="userSpaceOnUse">
<stop stop-color="#FD0091"/>
<stop offset="0.0001" stop-color="#FD0091"/>
<stop offset="1" stop-color="#FF7732"/>
</linearGradient>
<linearGradient id="paint14_linear_1070_574" x1="142.194" y1="236.854" x2="142.194" y2="243.771" gradientUnits="userSpaceOnUse">
<stop stop-color="#FD0091"/>
<stop offset="0.0001" stop-color="#FD0091"/>
<stop offset="1" stop-color="#FF7732"/>
</linearGradient>
<linearGradient id="paint15_linear_1070_574" x1="142.192" y1="248.654" x2="142.192" y2="255.537" gradientUnits="userSpaceOnUse">
<stop stop-color="#FD0091"/>
<stop offset="0.0001" stop-color="#FD0091"/>
<stop offset="1" stop-color="#FF7732"/>
</linearGradient>
<linearGradient id="paint16_linear_1070_574" x1="256.143" y1="160.985" x2="256.143" y2="337.345" gradientUnits="userSpaceOnUse">
<stop stop-color="#FD0091"/>
<stop offset="0.0001" stop-color="#FD0091"/>
<stop offset="1" stop-color="#FF7732"/>
</linearGradient>
<linearGradient id="paint17_linear_1070_574" x1="199.711" y1="161.206" x2="199.711" y2="337.345" gradientUnits="userSpaceOnUse">
<stop stop-color="#FD0091"/>
<stop offset="0.0001" stop-color="#FD0091"/>
<stop offset="1" stop-color="#FF7732"/>
</linearGradient>
<linearGradient id="paint18_linear_1070_574" x1="249.972" y1="175.278" x2="249.972" y2="182.228" gradientUnits="userSpaceOnUse">
<stop stop-color="#FD0091"/>
<stop offset="0.0001" stop-color="#FD0091"/>
<stop offset="1" stop-color="#FF7732"/>
</linearGradient>
<linearGradient id="paint19_linear_1070_574" x1="240.88" y1="202.327" x2="240.88" y2="255.838" gradientUnits="userSpaceOnUse">
<stop stop-color="#FD0091"/>
<stop offset="0.0001" stop-color="#FD0091"/>
<stop offset="1" stop-color="#FF7732"/>
</linearGradient>
<linearGradient id="paint20_linear_1070_574" x1="258.679" y1="203.466" x2="258.679" y2="254.513" gradientUnits="userSpaceOnUse">
<stop stop-color="#FD0091"/>
<stop offset="0.0001" stop-color="#FD0091"/>
<stop offset="1" stop-color="#FF7732"/>
</linearGradient>
<linearGradient id="paint21_linear_1070_574" x1="239.569" y1="254.455" x2="239.569" y2="279.853" gradientUnits="userSpaceOnUse">
<stop stop-color="#FD0091"/>
<stop offset="0.0001" stop-color="#FD0091"/>
<stop offset="1" stop-color="#FF7732"/>
</linearGradient>
<linearGradient id="paint22_linear_1070_574" x1="258.699" y1="254.414" x2="258.699" y2="279.788" gradientUnits="userSpaceOnUse">
<stop stop-color="#FD0091"/>
<stop offset="0.0001" stop-color="#FD0091"/>
<stop offset="1" stop-color="#FF7732"/>
</linearGradient>
<clipPath id="clip0_1070_574">
<rect x="0.5" y="0.179321" width="350" height="350" rx="175" fill="white"/>
</clipPath>
<clipPath id="clip1_1070_574">
<rect width="228" height="228" fill="white" transform="translate(88.0001 109.345)"/>
</clipPath>
</defs>
</svg>
