<svg width="351" height="351" viewBox="0 0 351 351" fill="none" xmlns="http://www.w3.org/2000/svg">
<g clip-path="url(#clip0_1070_688)">
<rect x="0.5" y="0.179199" width="350" height="350" rx="175" fill="#191949"/>
<path d="M174.177 85.6773L272.063 101.181C275.31 102.641 278.47 104.671 280.333 107.794C281.918 110.218 282.558 113.086 282.912 115.919C278.895 115.359 274.902 114.645 270.888 114.091C266.51 113.515 262.169 112.736 257.81 112.071C256.741 111.973 255.389 111.698 254.622 112.665C252.507 115.266 251.401 118.537 249.249 121.116C247.953 122.645 245.796 122.896 243.934 122.545C232.608 120.736 221.282 118.952 209.953 117.158C208.084 116.913 206.157 115.943 205.442 114.096C204.341 111.196 204.16 108.048 203.226 105.098C203.002 104.413 202.651 103.657 201.902 103.415C200.155 102.791 198.288 102.664 196.47 102.356C188.99 101.186 181.513 99.9968 174.038 98.7974C173.028 98.7142 171.878 98.4196 170.981 99.0446C170.029 99.6352 169.908 100.849 169.689 101.842C157.957 176.178 146.143 250.507 134.39 324.845C133.938 326.44 134.895 328.238 136.646 328.357C169.24 333.658 201.892 338.625 234.481 343.955C238.474 344.669 242.489 345.218 246.482 345.932C245.048 349.075 243.034 352.075 240.071 353.958C237.579 355.619 234.568 356.191 231.65 356.603L133.734 341.094C129.167 340.126 125.084 337.07 122.98 332.892C121.366 329.808 120.925 326.2 121.533 322.783C128.223 280.606 134.894 238.426 141.579 196.248C143.192 186.066 144.805 175.88 146.419 165.693C147.028 161.847 147.638 157.996 148.247 154.149C149.86 143.963 151.474 133.776 153.086 123.594C154.369 115.498 155.651 107.401 156.928 99.3092C157.33 96.6064 158.301 93.963 159.989 91.7962C163.219 87.4497 168.806 85.0771 174.177 85.6773ZM217.143 101.851C213.591 101.999 212.363 107.266 215.454 108.998C218.069 110.113 221.014 110.053 223.768 110.652C225.82 110.865 228.191 111.844 230.065 110.54C231.92 109.351 232.298 106.516 230.851 104.866C229.698 103.399 227.677 103.407 226.006 103.075C223.044 102.729 220.13 101.945 217.143 101.851ZM239.642 105.481C236.755 105.918 235.446 109.889 237.489 111.967C239.328 114.211 243.354 113.33 244.098 110.533C245.101 107.849 242.444 104.805 239.642 105.481Z" fill="url(#paint0_linear_1070_688)"/>
<path d="M272.063 101.181L289.134 103.885C292.921 105.098 296.297 107.642 298.261 111.124C300.188 114.359 300.754 118.279 300.154 121.968C298.866 130.069 297.598 138.173 296.29 146.27C295.383 151.706 294.551 157.153 293.689 162.596C289.393 161.915 285.103 161.236 280.813 160.556C282.946 147.189 285.027 133.819 287.184 120.461C287.308 119.387 287.568 118.103 286.739 117.231C285.742 116.229 284.212 116.206 282.912 115.919C282.558 113.086 281.918 110.218 280.333 107.794C278.471 104.671 275.31 102.641 272.063 101.181Z" fill="url(#paint1_linear_1070_688)"/>
<path d="M270.124 228.139C274.419 228.819 278.715 229.499 283.015 230.18C277.113 267.44 271.206 304.704 265.309 341.97C264.811 345.501 264.292 349.198 262.214 352.213C259.31 356.698 254.024 359.364 248.71 359.305L231.649 356.602C234.568 356.19 237.579 355.619 240.071 353.958C243.034 352.075 245.048 349.075 246.482 345.932C248.064 346.111 250.226 346.73 251.303 345.131C252.112 343.352 252.134 341.335 252.491 339.438C258.357 302.337 264.228 265.236 270.124 228.139Z" fill="url(#paint2_linear_1070_688)"/>
<path d="M217.144 101.85C220.13 101.945 223.044 102.729 226.006 103.075C227.677 103.406 229.698 103.399 230.852 104.865C232.298 106.516 231.921 109.351 230.065 110.54C228.192 111.843 225.821 110.865 223.768 110.652C221.015 110.052 218.07 110.112 215.454 108.998C212.364 107.266 213.592 101.999 217.144 101.85Z" fill="#433F43"/>
<path d="M239.642 105.481C242.444 104.805 245.102 107.849 244.099 110.533C243.354 113.33 239.328 114.211 237.49 111.967C235.446 109.889 236.755 105.919 239.642 105.481Z" fill="#433F43"/>
<path d="M270.888 114.091C274.901 114.645 278.894 115.359 282.912 115.918C284.212 116.206 285.742 116.229 286.739 117.23C287.567 118.103 287.308 119.386 287.184 120.461C285.027 133.819 282.945 147.189 280.813 160.556C275.859 159.771 270.905 158.987 265.947 158.202C268.216 144.682 270.29 131.132 272.424 117.597C272.828 116.147 272.148 114.822 270.888 114.091Z" fill="white"/>
<path d="M256.104 176.116C257.149 175.396 258.317 174.61 259.657 174.797C261.92 174.945 263.66 177.358 263.071 179.556C262.828 180.868 261.748 181.745 260.709 182.46C256.948 185.025 253.204 187.617 249.45 190.198C252.344 194.139 255.434 197.942 258.327 201.888C259.704 203.594 259.216 206.381 257.33 207.509C255.657 208.645 253.215 208.146 252.07 206.492C248.547 201.97 245.128 197.374 241.604 192.858C240.793 191.778 239.822 190.612 239.938 189.173C239.938 187.751 240.886 186.577 242.021 185.836C246.721 182.602 251.426 179.374 256.104 176.116Z" fill="white"/>
<path d="M282.246 178.727C285.36 177.661 288.472 181.488 286.712 184.298C282.092 192.254 277.305 200.107 272.629 208.029C271.778 209.72 269.754 210.78 267.901 210.144C265.604 209.509 264.364 206.552 265.674 204.514C270.138 196.83 274.78 189.25 279.273 181.58C279.972 180.392 280.801 179.066 282.246 178.727Z" fill="white"/>
<path d="M293.223 184.291C293.378 181.989 295.857 180.25 298.077 180.893C299.378 181.17 300.197 182.297 300.978 183.275C303.915 187.166 306.899 191.024 309.861 194.894C310.72 196.058 311.761 197.138 312.257 198.526C312.766 200.186 311.95 202.016 310.51 202.933C305.71 206.279 300.865 209.557 296.074 212.91C294.987 213.673 293.683 214.382 292.305 214.046C290.179 213.679 288.688 211.341 289.283 209.262C289.552 207.919 290.711 207.095 291.762 206.366C295.493 203.828 299.204 201.255 302.914 198.687C300.086 194.977 297.258 191.261 294.407 187.568C293.68 186.634 293.054 185.518 293.223 184.291Z" fill="white"/>
<path d="M216.979 227.97C217.235 224.221 217.985 220.52 218.829 216.87C219.677 218.906 221.427 220.61 223.717 220.784C239.184 223.249 254.656 225.684 270.125 228.139C264.229 265.236 258.357 302.337 252.491 339.439C252.135 341.336 252.112 343.352 251.303 345.131C250.227 346.73 248.064 346.111 246.482 345.932C242.489 345.218 238.475 344.669 234.481 343.955C235.854 343.584 236.977 342.601 237.04 341.103C240.479 319.326 243.939 297.542 247.384 275.762C249.293 263.254 251.487 250.792 253.216 238.261C242.779 236.26 232.228 234.911 221.754 233.14C219.235 232.807 216.833 230.637 216.979 227.97Z" fill="white"/>
<path d="M170.982 99.0445C171.878 98.4195 173.028 98.7141 174.038 98.7973C181.513 99.9967 188.991 101.186 196.471 102.355C198.289 102.664 200.155 102.791 201.903 103.415C202.652 103.657 203.003 104.413 203.226 105.098C204.16 108.048 204.342 111.196 205.442 114.096C206.157 115.943 208.085 116.913 209.953 117.158C221.282 118.952 232.608 120.736 243.935 122.545C245.797 122.896 247.954 122.644 249.249 121.116C251.402 118.537 252.508 115.266 254.623 112.665C255.389 111.697 256.742 111.973 257.81 112.071C262.169 112.736 266.51 113.515 270.888 114.091C272.148 114.822 272.828 116.147 272.425 117.597C270.291 131.132 268.217 144.682 265.948 158.202C255.451 156.544 244.956 154.872 234.46 153.215C232.797 152.895 230.966 153.157 229.69 154.336C228.386 155.367 228.02 157.063 227.759 158.617C224.941 176.733 222.052 194.844 219.174 212.951C218.988 214.251 218.914 215.559 218.829 216.87C217.985 220.52 217.235 224.221 216.979 227.97C216.833 230.637 219.235 232.807 221.755 233.14C232.228 234.911 242.779 236.26 253.216 238.261C251.487 250.792 249.294 263.254 247.384 275.761C243.939 297.542 240.479 319.326 237.04 341.103C236.977 342.601 235.855 343.584 234.482 343.955C201.892 338.625 169.24 333.658 136.646 328.357C134.896 328.238 133.938 326.44 134.39 324.845C146.144 250.506 157.957 176.178 169.69 101.842C169.909 100.848 170.029 99.6351 170.982 99.0445ZM180.248 151.281C178.762 151.752 177.622 153.172 177.553 154.741C177.38 156.672 178.878 158.576 180.815 158.811C190.473 160.403 200.153 161.859 209.813 163.44C211.069 163.613 212.475 163.908 213.619 163.174C215.466 162.198 216.169 159.635 215.091 157.848C214.474 156.707 213.258 156.054 212.005 155.897C202.359 154.354 192.701 152.86 183.053 151.296C182.131 151.181 181.159 150.986 180.248 151.281ZM178.696 167.507C176.312 167.482 174.409 170.039 175.06 172.321C175.446 174.049 177.084 175.198 178.793 175.321C188.607 176.865 198.422 178.44 208.237 179.974C210.389 180.499 212.741 178.918 212.976 176.695C213.32 174.55 211.585 172.46 209.446 172.28C199.198 170.698 188.971 168.884 178.696 167.507ZM176.523 183.905C174.194 183.628 172.055 185.867 172.369 188.182C172.53 190.13 174.289 191.585 176.186 191.716C186.01 193.262 195.83 194.838 205.656 196.369C207.78 196.874 210.095 195.333 210.369 193.152C210.762 190.995 209.021 188.847 206.854 188.673C196.747 187.077 186.646 185.406 176.523 183.905ZM173.371 200.286C171.391 200.361 169.699 202.195 169.758 204.178C169.724 206.039 171.211 207.758 173.059 208.004C182.703 209.593 192.372 211.048 202.018 212.622C203.329 212.835 204.811 213.069 205.983 212.258C207.91 211.131 208.421 208.261 206.979 206.55C205.896 205.054 203.905 205.035 202.261 204.729C192.625 203.315 183.029 201.524 173.371 200.286ZM168.131 227.014C165.287 227.729 164.366 231.833 166.638 233.696C168.644 235.686 172.447 234.504 173.017 231.746C173.883 228.953 170.902 226.047 168.131 227.014ZM182.572 229.271C180.79 229.674 179.444 231.46 179.604 233.29C179.673 235.05 181.086 236.624 182.831 236.875C188.131 237.827 193.474 238.545 198.785 239.458C200.345 239.654 202.104 240.168 203.532 239.223C205.357 238.162 205.955 235.521 204.751 233.786C204.076 232.656 202.793 232.141 201.547 231.969C196.211 231.109 190.872 230.304 185.546 229.419C184.565 229.284 183.559 229.079 182.572 229.271ZM180.65 245.575C178.745 245.622 177.081 247.312 177.006 249.207C176.813 251.329 178.602 253.208 180.678 253.368C197.653 256.098 214.643 258.732 231.618 261.462C232.86 261.628 234.235 261.892 235.381 261.209C237.027 260.37 237.852 258.261 237.222 256.525C236.749 255.059 235.354 254.051 233.844 253.898C217.713 251.328 201.577 248.793 185.44 246.227C183.847 245.985 182.263 245.621 180.65 245.575ZM165.085 243.565C162.408 244.614 161.926 248.69 164.313 250.311C166.54 252.136 170.254 250.541 170.511 247.693C171.05 244.807 167.731 242.261 165.085 243.565ZM163.61 259.655C160.643 259.86 159.06 263.813 161.02 266.031C162.679 268.282 166.601 267.763 167.609 265.146C168.927 262.537 166.49 259.201 163.61 259.655ZM178.043 261.966C175.862 262.015 174.088 264.209 174.438 266.356C174.638 268.198 176.29 269.615 178.105 269.744C199.404 273.102 220.697 276.526 242.003 279.839C244.399 280.275 246.733 277.965 246.357 275.563C246.194 273.717 244.56 272.251 242.736 272.11C222.778 268.944 202.818 265.788 182.859 262.622C181.259 262.389 179.667 262.014 178.043 261.966ZM160.921 276.053C157.977 276.333 156.49 280.266 158.45 282.453C160.111 284.654 163.929 284.149 164.981 281.61C166.386 278.969 163.87 275.513 160.921 276.053ZM175.396 278.356C173.052 278.435 171.263 280.979 171.936 283.218C172.32 284.864 173.875 285.995 175.518 286.143C196.665 289.492 217.806 292.846 238.954 296.185C240.315 296.467 241.828 296.088 242.768 295.025C244.153 293.577 244.11 291.075 242.684 289.678C241.9 288.818 240.734 288.561 239.642 288.383C219.846 285.258 200.052 282.118 180.257 278.983C178.643 278.747 177.032 278.359 175.396 278.356ZM175.317 313.536C173.081 313.478 171.198 315.712 171.546 317.904C171.733 319.698 173.3 321.102 175.058 321.304C188.028 323.389 201.011 325.43 213.987 327.48C215.768 327.89 217.799 327.076 218.563 325.356C219.821 322.968 217.912 319.873 215.253 319.779C201.935 317.721 188.646 315.453 175.317 313.536Z" fill="white"/>
<path d="M229.689 154.336C230.965 153.158 232.797 152.895 234.459 153.215C244.956 154.872 255.45 156.545 265.947 158.202C270.906 158.988 275.859 159.772 280.813 160.557C285.103 161.236 289.393 161.916 293.689 162.596C297.62 163.219 301.556 163.842 305.487 164.465C309.248 165.03 312.982 165.734 316.758 166.173C318.006 167.235 319.464 168.361 319.731 170.096C319.999 171.959 319.483 173.825 319.227 175.667C316.358 193.458 313.614 211.269 310.74 229.06C310.49 231.577 308.325 233.3 305.989 233.84C298.34 232.578 290.671 231.404 283.015 230.181C278.715 229.5 274.42 228.82 270.124 228.139C254.656 225.684 239.184 223.249 223.716 220.784C221.427 220.611 219.677 218.907 218.829 216.87C218.914 215.559 218.988 214.251 219.173 212.951C222.051 194.844 224.94 176.734 227.758 158.617C228.02 157.063 228.386 155.367 229.689 154.336ZM256.104 176.116C251.425 179.374 246.721 182.602 242.02 185.836C240.886 186.577 239.938 187.751 239.937 189.173C239.822 190.612 240.793 191.778 241.604 192.858C245.128 197.374 248.547 201.971 252.07 206.492C253.215 208.146 255.656 208.645 257.33 207.509C259.216 206.381 259.704 203.595 258.327 201.889C255.434 197.943 252.344 194.14 249.45 190.199C253.203 187.618 256.948 185.025 260.709 182.46C261.748 181.745 262.828 180.868 263.071 179.557C263.66 177.359 261.92 174.946 259.657 174.797C258.316 174.61 257.149 175.397 256.104 176.116ZM282.246 178.728C280.801 179.067 279.973 180.393 279.273 181.581C274.78 189.251 270.138 196.83 265.674 204.515C264.364 206.552 265.604 209.51 267.902 210.145C269.754 210.781 271.778 209.721 272.629 208.03C277.305 200.108 282.093 192.255 286.713 184.298C288.472 181.488 285.36 177.661 282.246 178.728ZM293.223 184.291C293.055 185.518 293.681 186.634 294.407 187.568C297.259 191.261 300.086 194.977 302.915 198.687C299.204 201.255 295.494 203.827 291.762 206.366C290.711 207.095 289.553 207.918 289.284 209.262C288.689 211.341 290.18 213.679 292.305 214.046C293.684 214.382 294.988 213.673 296.075 212.91C300.866 209.557 305.711 206.279 310.511 202.933C311.95 202.016 312.767 200.186 312.257 198.526C311.761 197.138 310.72 196.058 309.862 194.894C306.9 191.024 303.916 187.166 300.978 183.275C300.197 182.297 299.379 181.17 298.078 180.893C295.858 180.25 293.378 181.989 293.223 184.291Z" fill="url(#paint3_linear_1070_688)"/>
<path d="M175.316 313.536C188.646 315.453 201.935 317.722 215.252 319.78C217.912 319.874 219.82 322.968 218.562 325.357C217.799 327.077 215.768 327.89 213.987 327.48C201.011 325.43 188.028 323.389 175.058 321.304C173.3 321.102 171.732 319.698 171.546 317.905C171.198 315.712 173.08 313.479 175.316 313.536Z" fill="url(#paint4_linear_1070_688)"/>
<path d="M316.758 166.172C320.779 166.707 324.786 167.398 328.793 168.027C330.713 168.27 332.475 169.541 333.212 171.346C333.782 172.592 333.493 173.998 333.342 175.304C330.364 193.916 327.465 212.542 324.471 231.152C324.285 234.037 321.418 236.35 318.565 235.862C314.365 235.233 310.172 234.553 305.989 233.84C308.325 233.299 310.49 231.576 310.74 229.059C313.614 211.268 316.358 193.457 319.227 175.666C319.483 173.825 319.999 171.958 319.731 170.095C319.464 168.36 318.006 167.234 316.758 166.172Z" fill="url(#paint5_linear_1070_688)"/>
<path d="M180.649 245.576C182.263 245.622 183.847 245.985 185.44 246.227C201.577 248.793 217.713 251.329 233.843 253.899C235.353 254.051 236.748 255.06 237.222 256.525C237.852 258.262 237.027 260.371 235.381 261.209C234.234 261.892 232.86 261.628 231.618 261.462C214.643 258.733 197.653 256.098 180.678 253.369C178.602 253.209 176.813 251.33 177.006 249.208C177.081 247.312 178.745 245.622 180.649 245.576Z" fill="url(#paint6_linear_1070_688)"/>
<path d="M165.084 243.566C167.73 242.261 171.05 244.807 170.511 247.693C170.254 250.541 166.539 252.137 164.312 250.311C161.925 248.69 162.407 244.614 165.084 243.566Z" fill="url(#paint7_linear_1070_688)"/>
<path d="M180.249 151.281C181.16 150.985 182.131 151.18 183.054 151.295C192.701 152.859 202.36 154.353 212.005 155.896C213.259 156.054 214.475 156.707 215.092 157.848C216.169 159.634 215.467 162.197 213.619 163.173C212.475 163.907 211.07 163.613 209.813 163.44C200.154 161.858 190.474 160.402 180.815 158.811C178.879 158.576 177.38 156.671 177.553 154.74C177.623 153.171 178.763 151.751 180.249 151.281Z" fill="url(#paint8_linear_1070_688)"/>
<path d="M178.696 167.506C188.971 168.883 199.198 170.697 209.446 172.279C211.585 172.46 213.32 174.55 212.975 176.694C212.741 178.917 210.389 180.498 208.237 179.973C198.422 178.439 188.607 176.864 178.793 175.32C177.084 175.198 175.445 174.048 175.06 172.32C174.408 170.039 176.312 167.481 178.696 167.506Z" fill="url(#paint9_linear_1070_688)"/>
<path d="M176.523 183.905C186.646 185.406 196.747 187.077 206.854 188.673C209.02 188.847 210.762 190.995 210.369 193.152C210.095 195.333 207.78 196.874 205.656 196.369C195.829 194.838 186.01 193.262 176.186 191.716C174.289 191.585 172.53 190.13 172.368 188.182C172.055 185.867 174.194 183.628 176.523 183.905Z" fill="url(#paint10_linear_1070_688)"/>
<path d="M173.371 200.286C183.029 201.524 192.625 203.315 202.261 204.729C203.905 205.035 205.896 205.054 206.979 206.55C208.421 208.261 207.91 211.131 205.982 212.258C204.811 213.069 203.329 212.835 202.018 212.622C192.372 211.048 182.702 209.593 173.059 208.004C171.211 207.758 169.724 206.039 169.758 204.178C169.699 202.195 171.39 200.361 173.371 200.286Z" fill="url(#paint11_linear_1070_688)"/>
<path d="M168.131 227.014C170.902 226.046 173.883 228.953 173.016 231.746C172.447 234.504 168.644 235.686 166.637 233.696C164.365 231.833 165.286 227.729 168.131 227.014Z" fill="url(#paint12_linear_1070_688)"/>
<path d="M182.572 229.271C183.559 229.08 184.564 229.285 185.545 229.42C190.872 230.305 196.211 231.109 201.546 231.97C202.792 232.142 204.076 232.657 204.751 233.786C205.954 235.521 205.357 238.163 203.532 239.224C202.104 240.168 200.344 239.655 198.785 239.459C193.473 238.546 188.131 237.827 182.83 236.875C181.085 236.625 179.673 235.051 179.604 233.291C179.444 231.461 180.79 229.674 182.572 229.271Z" fill="url(#paint13_linear_1070_688)"/>
<path d="M163.61 259.655C166.49 259.2 168.927 262.537 167.609 265.146C166.601 267.763 162.679 268.282 161.02 266.03C159.06 263.813 160.643 259.86 163.61 259.655Z" fill="url(#paint14_linear_1070_688)"/>
<path d="M178.043 261.967C179.667 262.015 181.259 262.39 182.859 262.623C202.817 265.789 222.777 268.945 242.736 272.111C244.56 272.252 246.194 273.718 246.357 275.564C246.733 277.966 244.399 280.275 242.003 279.84C220.697 276.527 199.404 273.103 178.105 269.745C176.29 269.616 174.638 268.198 174.438 266.357C174.088 264.21 175.862 262.016 178.043 261.967Z" fill="url(#paint15_linear_1070_688)"/>
<path d="M160.921 276.053C163.87 275.513 166.386 278.969 164.981 281.61C163.929 284.149 160.111 284.654 158.45 282.453C156.49 280.266 157.977 276.333 160.921 276.053Z" fill="url(#paint16_linear_1070_688)"/>
<path d="M175.396 278.357C177.032 278.36 178.643 278.748 180.258 278.983C200.052 282.119 219.846 285.259 239.642 288.384C240.734 288.562 241.9 288.818 242.685 289.679C244.11 291.076 244.153 293.578 242.768 295.026C241.828 296.089 240.315 296.468 238.954 296.186C217.806 292.846 196.665 289.493 175.518 286.144C173.875 285.996 172.32 284.865 171.937 283.219C171.263 280.98 173.052 278.435 175.396 278.357Z" fill="url(#paint17_linear_1070_688)"/>
</g>
<defs>
<linearGradient id="paint0_linear_1070_688" x1="222.189" y1="93.2815" x2="181.735" y2="348.697" gradientUnits="userSpaceOnUse">
<stop stop-color="#FD0091"/>
<stop offset="0.0001" stop-color="#FD0091"/>
<stop offset="1" stop-color="#FF7732"/>
</linearGradient>
<linearGradient id="paint1_linear_1070_688" x1="287.371" y1="103.605" x2="278.411" y2="160.176" gradientUnits="userSpaceOnUse">
<stop stop-color="#FD0091"/>
<stop offset="0.0001" stop-color="#FD0091"/>
<stop offset="1" stop-color="#FF7732"/>
</linearGradient>
<linearGradient id="paint2_linear_1070_688" x1="267.739" y1="227.761" x2="246.949" y2="359.026" gradientUnits="userSpaceOnUse">
<stop stop-color="#FD0091"/>
<stop offset="0.0001" stop-color="#FD0091"/>
<stop offset="1" stop-color="#FF7732"/>
</linearGradient>
<linearGradient id="paint3_linear_1070_688" x1="274.708" y1="159.513" x2="263.989" y2="227.188" gradientUnits="userSpaceOnUse">
<stop stop-color="#FD0091"/>
<stop offset="0.0001" stop-color="#FD0091"/>
<stop offset="1" stop-color="#FF7732"/>
</linearGradient>
<linearGradient id="paint4_linear_1070_688" x1="195.846" y1="316.68" x2="194.62" y2="324.422" gradientUnits="userSpaceOnUse">
<stop stop-color="#FD0091"/>
<stop offset="0.0001" stop-color="#FD0091"/>
<stop offset="1" stop-color="#FF7732"/>
</linearGradient>
<linearGradient id="paint5_linear_1070_688" x1="325.537" y1="167.501" x2="314.801" y2="235.286" gradientUnits="userSpaceOnUse">
<stop stop-color="#FD0091"/>
<stop offset="0.0001" stop-color="#FD0091"/>
<stop offset="1" stop-color="#FF7732"/>
</linearGradient>
<linearGradient id="paint6_linear_1070_688" x1="207.822" y1="249.751" x2="206.595" y2="257.499" gradientUnits="userSpaceOnUse">
<stop stop-color="#FD0091"/>
<stop offset="0.0001" stop-color="#FD0091"/>
<stop offset="1" stop-color="#FF7732"/>
</linearGradient>
<linearGradient id="paint7_linear_1070_688" x1="167.279" y1="243.279" x2="166.047" y2="251.058" gradientUnits="userSpaceOnUse">
<stop stop-color="#FD0091"/>
<stop offset="0.0001" stop-color="#FD0091"/>
<stop offset="1" stop-color="#FF7732"/>
</linearGradient>
<linearGradient id="paint8_linear_1070_688" x1="197.177" y1="153.532" x2="195.956" y2="161.245" gradientUnits="userSpaceOnUse">
<stop stop-color="#FD0091"/>
<stop offset="0.0001" stop-color="#FD0091"/>
<stop offset="1" stop-color="#FF7732"/>
</linearGradient>
<linearGradient id="paint9_linear_1070_688" x1="194.59" y1="169.893" x2="193.363" y2="177.644" gradientUnits="userSpaceOnUse">
<stop stop-color="#FD0091"/>
<stop offset="0.0001" stop-color="#FD0091"/>
<stop offset="1" stop-color="#FF7732"/>
</linearGradient>
<linearGradient id="paint10_linear_1070_688" x1="191.988" y1="186.299" x2="190.762" y2="194.041" gradientUnits="userSpaceOnUse">
<stop stop-color="#FD0091"/>
<stop offset="0.0001" stop-color="#FD0091"/>
<stop offset="1" stop-color="#FF7732"/>
</linearGradient>
<linearGradient id="paint11_linear_1070_688" x1="189.389" y1="202.683" x2="188.162" y2="210.428" gradientUnits="userSpaceOnUse">
<stop stop-color="#FD0091"/>
<stop offset="0.0001" stop-color="#FD0091"/>
<stop offset="1" stop-color="#FF7732"/>
</linearGradient>
<linearGradient id="paint12_linear_1070_688" x1="169.881" y1="226.881" x2="168.649" y2="234.66" gradientUnits="userSpaceOnUse">
<stop stop-color="#FD0091"/>
<stop offset="0.0001" stop-color="#FD0091"/>
<stop offset="1" stop-color="#FF7732"/>
</linearGradient>
<linearGradient id="paint13_linear_1070_688" x1="193.091" y1="230.615" x2="191.864" y2="238.363" gradientUnits="userSpaceOnUse">
<stop stop-color="#FD0091"/>
<stop offset="0.0001" stop-color="#FD0091"/>
<stop offset="1" stop-color="#FF7732"/>
</linearGradient>
<linearGradient id="paint14_linear_1070_688" x1="164.692" y1="259.658" x2="163.462" y2="267.42" gradientUnits="userSpaceOnUse">
<stop stop-color="#FD0091"/>
<stop offset="0.0001" stop-color="#FD0091"/>
<stop offset="1" stop-color="#FF7732"/>
</linearGradient>
<linearGradient id="paint15_linear_1070_688" x1="211.009" y1="267.064" x2="209.787" y2="274.777" gradientUnits="userSpaceOnUse">
<stop stop-color="#FD0091"/>
<stop offset="0.0001" stop-color="#FD0091"/>
<stop offset="1" stop-color="#FF7732"/>
</linearGradient>
<linearGradient id="paint16_linear_1070_688" x1="162.099" y1="276.043" x2="160.868" y2="283.813" gradientUnits="userSpaceOnUse">
<stop stop-color="#FD0091"/>
<stop offset="0.0001" stop-color="#FD0091"/>
<stop offset="1" stop-color="#FF7732"/>
</linearGradient>
<linearGradient id="paint17_linear_1070_688" x1="208.407" y1="283.425" x2="207.18" y2="291.168" gradientUnits="userSpaceOnUse">
<stop stop-color="#FD0091"/>
<stop offset="0.0001" stop-color="#FD0091"/>
<stop offset="1" stop-color="#FF7732"/>
</linearGradient>
<clipPath id="clip0_1070_688">
<rect x="0.5" y="0.179199" width="350" height="350" rx="175" fill="white"/>
</clipPath>
</defs>
</svg>
