<svg width="786" height="366" viewBox="0 0 786 366" fill="none" xmlns="http://www.w3.org/2000/svg">
<path d="M612.716 220.221C612.716 220.221 573.858 269.874 569.53 273.142C562.675 278.279 556.999 278.633 547.634 269.773C530.319 253.402 506.756 223.59 506.756 223.59L519.927 207.825L557.891 240.972L595.418 189.381L612.716 220.221Z" fill="#C58A8A"/>
<path d="M528.264 215.168C525.131 212.422 525.536 209.172 523.717 204.793C521.898 200.413 518.815 196.994 517.704 193.845C516.592 190.695 515.514 188.589 513.661 191.234C511.809 193.878 512.634 197.803 513.291 199.925C513.948 202.047 513.577 201.862 509.737 198.965C505.897 196.068 502.899 186.029 501.416 183.368C499.934 180.707 497.138 183.115 496.734 186.636C496.734 186.636 491.934 187.983 490.704 191.217C489.475 194.451 486.864 200.009 489.02 206.224C491.176 212.439 499.412 219.497 502.494 222.798C505.577 226.099 510.916 228.743 513.426 231.792L528.264 215.168Z" fill="#9E6767"/>
<path d="M557.891 241.039C562.557 246.513 565.42 254.799 565.184 258.185C565.184 258.185 569.749 248.618 561.125 236.609L557.891 241.039Z" fill="#874C4C"/>
<path d="M611.638 179.797C595.67 177.692 594.694 184.345 588.462 192.379C583.409 198.965 565.673 227.531 565.673 227.531C565.673 227.531 568.317 247.557 588.664 251.852L618.762 214.275L611.638 179.797Z" fill="#FF7732"/>
<path d="M321.852 274.962C315.115 275.922 302.803 274.271 301.27 273.277C299.737 272.284 299.586 271.104 309.405 270.801C319.225 270.498 316.344 266.153 312.555 265.748C308.765 265.344 303.342 263.458 295.88 265.748C292.36 267.02 288.657 267.714 284.915 267.803L236.357 261.925C236.357 261.925 230.866 247.81 221.535 226.218C211.934 204.018 209.576 203.176 195.344 198.612L192.666 236.105C192.666 236.105 204.456 260.46 211.698 272.991C217.88 283.703 220.406 286.381 227.396 286.802C239.186 287.51 251.903 287.072 261.992 287.038C272.081 287.004 279.29 287.594 287.071 289.817C293.017 291.502 309.843 295.443 317.035 292.293C324.227 289.143 328.539 274.002 321.852 274.962Z" fill="#FFC4C3"/>
<path d="M194.619 197.854C205.399 199.723 211.041 202.906 215.168 210.183C218.115 215.438 234.908 254.615 234.908 254.615C234.908 254.615 227.901 269.066 208.363 270.548L190.981 240.012L194.619 197.854Z" fill="#455A64"/>
<path d="M462.323 212.507C454.121 220.608 426.953 249.443 426.953 249.443L390.1 231.859C388.342 231.115 386.684 230.153 385.165 228.996C382.083 225.863 381.14 222.427 377.721 218.536C375.365 215.895 373.283 213.023 371.505 209.963C370.192 207.824 368.406 210.317 367.952 211.732C366.958 214.881 369.282 216.785 368.996 219.783C366.678 218.766 364.81 216.94 363.741 214.646C363.118 213.332 362.798 211.9 362.208 210.57C361.957 209.888 361.573 209.263 361.078 208.732C360.584 208.2 359.989 207.771 359.328 207.47C356.515 206.443 353.568 208.515 352.186 210.839C349.609 215.084 346.931 223.775 350.182 228.289C353.88 233.087 358.729 236.876 364.28 239.304C368.985 241.656 373.567 244.248 378.007 247.069C378.007 247.069 417.571 271.777 422.961 273.63C429.193 275.752 433.067 273.63 440.057 268.341C458.719 254.294 481.356 236.238 481.356 236.238L488.666 202.384C483.804 202.066 478.931 202.806 474.384 204.554C469.836 206.301 465.721 209.015 462.323 212.507Z" fill="#FFC4C3"/>
<path d="M534.698 252.071C541.065 252.476 547.836 258.034 551.457 262.986C555.451 268.498 557.367 275.246 556.864 282.035C556.56 285.875 555.179 290.103 551.625 291.72C548.071 293.337 543.76 291.619 541.317 288.621C539.072 285.449 537.723 281.731 537.41 277.858C537.174 276.174 536.702 270.936 534.361 271.239C533.741 264.858 533.854 258.427 534.698 252.071Z" fill="#FFC4C3"/>
<path d="M442.786 213.232C448.31 218.386 481.222 257.799 481.222 257.799L534.614 252.089L534.294 271.122C518.815 274.49 491.799 280.655 481.289 282.811C471.907 284.731 468.219 282.103 460.808 275.45C453.397 268.797 429.8 244.712 429.8 244.712L421.749 205.383C425.617 205.052 429.511 205.585 433.15 206.942C436.788 208.299 440.079 210.448 442.786 213.232Z" fill="#37474F"/>
<path d="M252.998 228.643C255.793 229.418 263.305 238.463 267.196 239.237C271.087 240.012 273.411 240.147 270.194 235.515C266.977 230.883 269.554 225.005 271.879 227.582C274.271 230.311 276.941 232.783 279.845 234.959C284.056 238.21 287.24 245.638 293.455 249.04L287.256 264.014C281.412 261.891 276.325 260.039 270.582 258.523C262.767 256.451 256.417 253.621 253.368 248.249C250.319 242.876 251.28 238.042 251.381 235.279C251.482 232.517 250.202 227.801 252.998 228.643Z" fill="#F28F8F"/>
<path d="M378.192 206.511C371.27 206.511 365.425 205.972 360.524 210.402C355.623 214.832 324.581 265.429 324.581 265.429L293.505 248.973L284.326 262.969C284.326 262.969 321.381 289.228 327.983 291.603C335.428 294.247 339.201 290.525 345.028 283.181C350.856 275.838 366.217 254.733 366.369 254.548C385.317 241.646 383.936 220.222 378.192 206.511Z" fill="#37474F"/>
<path d="M556.106 434.989C556.106 434.989 558.447 378.952 559.205 358.672C561.024 309.39 551.289 292.715 546.051 285.776C543.575 282.508 534.126 270.954 534.126 270.954L471.52 272.638C467.326 281.379 465.558 289.751 461.818 309.912C458.079 330.073 454.98 409.286 460.69 447.57C463.199 464.413 478.998 540.948 479.318 543.239C479.47 544.216 482.603 548.41 489.306 547.029C496.01 545.648 497.728 543.222 497.728 542.515C497.728 540.056 499.412 536.586 499.53 534.093C500.322 518.076 502.494 483.396 503.859 467.041C504.682 458.56 503.075 450.019 499.227 442.416L505.627 387.659C510.411 414.608 515.261 435.123 519.742 454.459C524.913 476.642 543.878 543.829 543.878 543.829C545.562 550.734 559.997 548.882 563.062 537.731L562.776 534.868C560.805 517.823 563.837 483.615 563.669 468.355C563.375 456.842 560.805 445.502 556.106 434.989Z" fill="#FFC4C3"/>
<path d="M505.594 387.693L499.614 343.362C499.614 343.362 481.996 333.963 477.331 324.666C477.331 324.666 478.56 339.454 492.102 347.051L499.867 391.483L499.193 442.45L505.594 387.693Z" fill="#FFA8A7"/>
<path d="M536.989 272.436C536.989 272.436 539.465 276.225 546 284.63C552.782 294.092 557.546 304.847 559.997 316.228C563.029 330.679 564.881 379.827 564.881 379.827C564.881 379.827 547.684 394.582 502.393 391.196C457.473 387.828 450.87 378.092 450.87 378.092C450.87 378.092 454.879 310.956 469.532 273.884L536.989 272.436Z" fill="#455A64"/>
<path d="M541.166 167.89C540.762 167.435 541.638 182.83 543.794 191.133C545.579 198.005 551.996 206.141 555.82 216.701C560.266 229.064 553.512 247.17 538.606 244.374L486.662 274.692C486.662 274.692 487.083 216.027 490.031 193.138C492.271 176.059 486.662 164.673 486.662 164.673L541.166 167.89Z" fill="#F0997A"/>
<path d="M497.627 202.57C497.627 202.57 495.555 206.292 499.176 207.505C504.6 209.324 517.704 207.505 522.656 202.839C522.656 202.839 536.349 203.816 539.179 204.389C542.85 205.13 545.411 218.251 543.844 231.489C542.867 239.759 540.156 254.177 538.657 262.615C537.73 267.837 539.836 271.391 535.658 273.53C525.387 278.537 514.164 281.29 502.742 281.603C491.319 281.917 479.962 279.785 469.431 275.349C468.353 274.625 467.629 272.923 467.747 269.74C467.882 265.832 465.877 259.735 465.726 255.659C463.649 254.134 461.923 252.181 460.665 249.932C459.407 247.683 458.646 245.191 458.433 242.623C457.86 233.662 462.172 227.464 470.425 217.459C475.722 211.525 481.876 206.416 488.683 202.3L497.627 202.57Z" fill="#263238"/>
<path opacity="0.2" d="M521.46 251.028C519.663 254.188 516.993 256.762 513.769 258.441C510.545 260.12 506.905 260.833 503.286 260.494C499.788 260.277 496.41 259.141 493.491 257.201C490.572 255.261 488.217 252.586 486.662 249.445C486.662 249.445 486.797 263.34 503.202 263.812C519.607 264.284 521.46 251.028 521.46 251.028Z" fill="black"/>
<path d="M476.961 143.552C472.497 149.885 470.863 176.548 472.548 192.397C474.232 208.247 477.398 215.792 477.398 215.792C477.398 215.792 476.994 196.776 479.083 191.016C479.083 191.016 479.42 202.099 481.761 205.653C481.761 205.653 485.012 185.441 488.818 178.047C492.625 170.653 476.961 143.552 476.961 143.552Z" fill="#F0997A"/>
<path d="M523.009 190.409C525.418 187.495 529.427 185.356 535.12 178.753C543.036 169.641 547.482 150.322 534.816 139.155C526.311 127.55 506.756 122.801 494.275 125.495C474.754 129.689 476.809 148.2 476.809 148.2L523.009 190.409Z" fill="#F0997A"/>
<path d="M536.972 162.955C536.487 162.293 535.853 161.756 535.122 161.385C534.39 161.014 533.582 160.821 532.762 160.821C531.941 160.821 531.133 161.014 530.401 161.385C529.67 161.756 529.036 162.293 528.551 162.955C527.81 163.965 527.321 165.144 526.614 166.172C526.287 166.705 525.84 167.154 525.307 167.482C524.774 167.81 524.172 168.007 523.548 168.058C523.066 168.073 522.587 167.962 522.16 167.738C521.732 167.514 521.369 167.183 521.106 166.778C520.65 165.654 520.41 164.454 520.399 163.241C518.277 146.432 513.224 141.177 501.433 144.427C495.993 139.627 492.894 137.69 486.679 138.313C479.942 139.055 475.226 142.272 475.815 164.403C476.287 181.684 482.552 189.752 485.416 191.352C488.279 192.952 492.001 193.323 497.778 192.818L497.627 202.637C497.627 202.637 489.896 208.903 493.803 217.931C499.371 217.26 504.812 215.785 509.956 213.552C521.46 208.078 522.656 202.907 522.656 202.907L523.38 176.716C523.38 176.716 527.136 182.173 533.216 177.625C538.236 173.802 540.341 166.997 536.972 162.955Z" fill="#FFC4C3"/>
<path d="M500.288 160.058C500.221 160.738 500.421 161.416 500.845 161.951C501.269 162.485 501.885 162.833 502.562 162.922C502.889 162.971 503.223 162.955 503.543 162.872C503.864 162.79 504.164 162.644 504.427 162.442C504.689 162.241 504.909 161.989 505.072 161.701C505.234 161.413 505.337 161.095 505.374 160.766C505.438 160.09 505.238 159.416 504.818 158.883C504.398 158.35 503.789 157.999 503.117 157.903C502.79 157.855 502.456 157.874 502.135 157.957C501.815 158.04 501.514 158.186 501.25 158.387C500.987 158.588 500.766 158.839 500.601 159.126C500.436 159.413 500.329 159.73 500.288 160.058Z" fill="#263238"/>
<path d="M479.251 154.82L484.759 152.21C484.606 151.842 484.38 151.51 484.094 151.232C483.808 150.955 483.469 150.739 483.097 150.597C482.725 150.455 482.328 150.391 481.93 150.407C481.533 150.424 481.143 150.521 480.784 150.694C480.049 151.055 479.48 151.684 479.195 152.452C478.91 153.219 478.93 154.067 479.251 154.82Z" fill="#263238"/>
<path d="M502.006 152.849L507.379 155.763C507.587 155.424 507.723 155.047 507.779 154.653C507.835 154.26 507.811 153.86 507.707 153.476C507.603 153.093 507.421 152.735 507.174 152.424C506.926 152.114 506.618 151.857 506.267 151.67C505.54 151.289 504.695 151.198 503.904 151.417C503.112 151.636 502.434 152.148 502.006 152.849Z" fill="#263238"/>
<path d="M500.962 175.453L490.974 178.653C491.198 179.347 491.565 179.987 492.051 180.531C492.536 181.076 493.13 181.513 493.794 181.816C494.457 182.119 495.177 182.28 495.907 182.289C496.636 182.298 497.36 182.156 498.031 181.87C498.649 181.647 499.216 181.303 499.7 180.858C500.183 180.413 500.573 179.875 500.846 179.278C501.119 178.68 501.27 178.034 501.29 177.377C501.309 176.72 501.198 176.066 500.962 175.453Z" fill="#9E6767"/>
<path d="M495.168 182.157C495.322 180.804 495.972 179.556 496.992 178.653C498.012 177.751 499.33 177.259 500.692 177.272H501.198C501.23 178.268 500.938 179.247 500.368 180.064C499.797 180.881 498.977 181.491 498.031 181.803C497.121 182.158 496.137 182.28 495.168 182.157Z" fill="#F28F8F"/>
<path d="M480.8 159.182C480.733 159.863 480.932 160.544 481.356 161.081C481.78 161.618 482.396 161.97 483.074 162.063C483.402 162.11 483.737 162.091 484.057 162.006C484.378 161.922 484.678 161.774 484.94 161.571C485.203 161.369 485.422 161.115 485.584 160.827C485.747 160.538 485.85 160.219 485.887 159.89C485.954 159.213 485.757 158.537 485.336 158.003C484.915 157.469 484.304 157.119 483.63 157.026C483.302 156.977 482.967 156.993 482.646 157.076C482.324 157.158 482.023 157.304 481.759 157.505C481.495 157.706 481.274 157.958 481.109 158.246C480.945 158.535 480.84 158.853 480.8 159.182Z" fill="#263238"/>
<path d="M493.012 157.313L492.591 173.179L483.815 170.838L493.012 157.313Z" fill="#FFA8A7"/>
<path d="M497.778 192.75C503.875 191.942 516.828 188.876 519.135 184.126C518.166 186.829 516.406 189.177 514.082 190.864C510.141 193.744 497.745 196.186 497.745 196.186L497.778 192.75Z" fill="#FFA8A7"/>
<path d="M475.765 145.876C475.765 145.876 479.369 137.893 503.69 145.068C517.956 149.123 530.889 156.895 541.166 167.587C541.166 167.587 544.417 163.376 544.72 148.1C557.403 131.762 544.518 123.273 527.675 118.557C508.423 113.15 490.738 121.706 485.449 126.641C475.765 135.669 475.765 145.876 475.765 145.876Z" fill="url(#paint0_linear_1683_950)"/>
<path opacity="0.2" d="M475.765 145.876C475.765 145.876 479.369 137.893 503.69 145.068C517.956 149.123 530.889 156.895 541.166 167.587C541.166 167.587 544.417 163.376 544.72 148.1C557.403 131.762 544.518 123.273 527.675 118.557C508.423 113.15 490.738 121.706 485.449 126.641C475.765 135.669 475.765 145.876 475.765 145.876Z" fill="black"/>
<path d="M475.377 146.971C474.451 146.971 474.602 145.286 474.754 142.777C474.906 140.267 476.624 133.058 481.154 131.509C485.685 129.959 503.303 128.308 520.382 136.764C537.461 145.219 544.973 155.055 545.108 157.531C545.242 160.007 543.423 169.995 541.133 170.652V168.867C532.443 159.28 521.417 152.107 509.131 148.049C488.768 141.311 475.933 145.606 475.933 145.606L475.377 146.971Z" fill="url(#paint1_linear_1683_950)"/>
<path opacity="0.3" d="M475.377 146.971C474.451 146.971 474.602 145.286 474.754 142.777C474.906 140.267 476.624 133.058 481.154 131.509C485.685 129.959 503.303 128.308 520.382 136.764C537.461 145.219 544.973 155.055 545.108 157.531C545.242 160.007 543.423 169.995 541.133 170.652V168.867C532.443 159.28 521.417 152.107 509.131 148.049C488.768 141.311 475.933 145.606 475.933 145.606L475.377 146.971Z" fill="black"/>
<path d="M515.396 150.457C519.691 155.325 520.601 168.984 519.27 182.29C517.889 196.27 517.586 204.187 517.586 204.187C517.586 204.187 523.279 193.727 524.121 188.135C524.121 188.135 527.961 193.626 528.298 197.466C529.907 190.418 530.837 183.233 531.077 176.008C531.362 170.384 531.125 164.745 530.37 159.165C525.687 155.392 520.466 151.788 515.396 150.457Z" fill="#F0997A"/>
<path d="M538.488 267.837C539.01 271.475 537.663 273.816 536.955 277.421C536.248 281.025 537.865 282.794 539.6 286.061C541.212 289.03 543.454 291.611 546.169 293.624C549.352 296.15 552.384 296.15 555.432 287.914C556.83 284.074 554.86 279.054 552.333 275.837C549.657 272.725 546.239 270.338 542.396 268.898" fill="#FFC4C3"/>
<path d="M702.27 488.024C697.301 464.629 692.771 453.159 692.771 453.159C692.771 453.159 686.033 357.76 681.183 310.683L588.461 310.026C588.461 310.026 590.28 434.312 591.645 452.233C592.689 465.842 601.565 572.88 601.582 573.065L601.077 577.478C601.751 583.356 620.918 585.445 627.133 581.049L627.251 571.094C627.251 571.094 633.87 494.66 634.494 481.708C635.42 462.894 630.754 451.054 630.754 451.054L638.974 392.372C638.974 392.372 651.084 460.62 655.11 473.219C664.996 504.076 691.861 574.783 691.861 574.783L692.737 579.078C692.198 587.281 713.774 580.223 713.606 573.756L712.427 570.538C712.427 570.538 707.188 511.082 702.27 488.024Z" fill="#9E6767"/>
<path d="M655.649 479.486C652.664 471.282 650.256 462.879 648.44 454.34C642.679 426.818 638.974 392.29 638.974 392.29L633.921 453.7C637.29 466.298 635.437 474.316 635.706 481.019C620.851 485.516 599.022 485.028 593.211 482.855C593.211 482.855 591.881 470.105 590.668 451.712C589.455 433.32 588.445 309.944 588.445 309.944L681.166 310.601C685.309 351.226 691.44 424.763 693.259 443.661C693.546 446.676 699.07 468.505 699.07 468.505C699.07 468.505 690.531 479.486 655.649 479.486Z" fill="#37474F"/>
<path d="M638.974 392.322L634.123 360.202C634.123 360.202 620.126 356.833 610.155 348.799C610.155 348.799 613.76 358.046 629.087 365.221L635.302 392.372L634.494 447.5L638.974 392.322Z" fill="#263238"/>
<path d="M673.738 185.07C681.873 186.518 682.412 190.56 684.198 198.645C685.09 202.654 687.061 211.277 686.286 218.503L680.206 266.304L682.294 321.28C669.174 335.546 616.724 340.127 588.091 319.208C587.973 275.517 588.461 258.876 588.461 226.571C588.461 199.858 600.336 182.947 610.155 179.949L649.248 182.408L673.738 185.07Z" fill="#FF7732"/>
<path d="M656.794 160.867C655.767 162.883 653.998 164.423 651.859 165.162L650.646 125.126C651.488 122.532 652.33 119.938 653.189 117.344C653.783 115.689 654.283 114.002 654.688 112.291C655.192 109.868 656.19 107.575 657.619 105.554C659.051 103.533 661.156 103.297 663.565 103.954C664.436 104.175 665.246 104.593 665.929 105.177C666.613 105.762 667.152 106.496 667.506 107.323C668.382 109.698 667.27 112.376 667.742 114.835C668.415 118.456 672.171 120.696 673.502 124.115C673.982 125.688 674.099 127.349 673.845 128.974C673.591 130.599 672.973 132.145 672.037 133.497C670.145 136.172 668.115 138.746 665.956 141.211C663.649 144.243 662.992 148.302 660.701 151.317C659.614 152.502 658.788 153.902 658.276 155.427C657.922 157.275 657.426 159.094 656.794 160.867Z" fill="#263238"/>
<path d="M586.912 106.969C585.938 108.446 585.405 110.17 585.376 111.938C585.346 113.707 585.82 115.448 586.744 116.957C587.838 118.49 589.59 119.685 589.961 121.538C589.983 123.144 589.721 124.74 589.186 126.254C588.957 128.133 589.368 130.034 590.352 131.65C591.336 133.266 592.836 134.504 594.609 135.164C596.404 135.772 598.321 135.927 600.189 135.615C602.058 135.304 603.821 134.536 605.322 133.379C608.289 131.042 610.455 127.84 611.52 124.216C612.489 121.439 612.84 118.485 612.549 115.558C612.258 112.632 611.332 109.804 609.835 107.272C608.541 105.31 606.795 103.688 604.743 102.542C602.691 101.396 600.394 100.76 598.045 100.686C595.795 100.627 593.57 101.18 591.609 102.287C589.648 103.393 588.025 105.012 586.912 106.969Z" fill="#263238"/>
<path d="M651.64 139.24C653.24 140.116 655.362 137.016 657.215 134.928C659.068 132.839 665.283 129.875 668.668 136.343C672.054 142.81 666.479 152.142 661.577 153.876C653.156 156.891 651.623 151.451 651.623 151.451L652.128 182.341C652.128 182.341 647.075 196.254 631.917 198.881C616.758 201.509 619.47 188.876 624.219 182.56L623.832 171.781C620.039 172.313 616.206 172.511 612.379 172.37C606.063 171.629 601.784 169.001 598.904 160.984C595.114 150.238 594.963 136.562 595.148 115.036C601.515 98.6142 626.072 95.7003 641.231 104.476C656.39 113.251 651.64 139.24 651.64 139.24Z" fill="#C58A8A"/>
<path d="M611.756 114.11C612.938 115.859 614.6 117.231 616.541 118.061C618.482 118.891 620.622 119.145 622.704 118.792C626.864 118.169 631.614 116.131 633.18 112.274C633.644 113.9 634.397 115.429 635.403 116.788C636.436 118.189 637.708 119.398 639.159 120.359C641.82 122.043 645.155 121.588 645.745 125.412C646.2 128.376 646.183 131.492 646.385 134.473C646.412 135.861 646.656 137.237 647.109 138.549C647.339 139.207 647.719 139.803 648.219 140.288C648.719 140.773 649.325 141.135 649.989 141.345C650.5 141.498 651.045 141.498 651.556 141.345C654.015 140.537 655.649 136.511 657.215 134.962C658.293 133.901 658.074 131.442 658.057 130.094C657.987 127.326 657.756 124.565 657.367 121.824C657.03 119.197 656.676 116.552 656.171 113.958C655.666 111.365 656.743 110.489 658.158 108.737C661.224 104.964 662.47 99.8944 659.607 95.5994C658.693 94.2413 657.463 93.1254 656.022 92.3479C654.582 91.5704 652.974 91.1545 651.337 91.136C649.102 91.425 646.853 91.5881 644.6 91.6244C639.85 91.0855 636.818 86.4199 632.725 83.9608C631.003 82.9324 629.079 82.2885 627.084 82.0734C625.09 81.8583 623.073 82.077 621.171 82.7144C619.87 83.1532 618.672 83.8524 617.651 84.7693C616.439 85.7587 615.13 86.6222 613.743 87.3463C611.565 88.6663 609.119 89.4834 606.585 89.738C604.865 89.8965 603.145 89.4367 601.734 88.4411C601.044 87.9302 600.518 87.23 600.219 86.4257C599.92 85.6214 599.861 84.7475 600.05 83.9103C596.93 85.5232 594.527 88.2449 593.312 91.5402C592.747 93.1868 592.706 94.9682 593.194 96.6392C593.683 98.3103 594.677 99.7888 596.041 100.871C594.818 101.418 593.75 102.259 592.932 103.32C592.115 104.382 591.574 105.63 591.359 106.952C590.954 109.596 592.807 111.769 594.003 114.16C595.199 116.552 599.056 117.529 601.852 117.765C605.491 117.811 609.019 116.509 611.756 114.11Z" fill="#263238"/>
<path d="M623.866 171.781C623.866 171.781 634.864 168.799 639.749 166.121C645.408 163.039 647.901 154.668 648.625 152.647C648.625 152.647 647.261 163.646 643.454 167.368C637.323 173.381 624.034 176.227 624.034 176.227L623.866 171.781Z" fill="#874C4C"/>
<path d="M623.765 133.883C623.808 134.433 624.012 134.958 624.351 135.393C624.691 135.828 625.15 136.153 625.673 136.329C626.196 136.504 626.759 136.522 627.292 136.381C627.825 136.239 628.305 135.943 628.671 135.531C629.037 135.119 629.275 134.608 629.353 134.062C629.431 133.516 629.347 132.959 629.112 132.461C628.876 131.962 628.499 131.543 628.027 131.257C627.556 130.971 627.011 130.83 626.459 130.852C626.082 130.871 625.713 130.965 625.373 131.128C625.032 131.292 624.728 131.521 624.477 131.803C624.227 132.086 624.034 132.415 623.912 132.772C623.79 133.129 623.74 133.507 623.765 133.883Z" fill="#263238"/>
<path d="M626.577 126.541L633.652 128.814C633.938 127.843 633.835 126.798 633.363 125.901C632.891 125.005 632.088 124.328 631.125 124.014C630.661 123.876 630.173 123.832 629.691 123.884C629.21 123.937 628.743 124.085 628.32 124.321C627.896 124.556 627.524 124.874 627.225 125.255C626.925 125.636 626.705 126.073 626.577 126.541Z" fill="#263238"/>
<path d="M623.445 152.85L613.558 154.366C613.652 155.038 613.88 155.684 614.229 156.266C614.578 156.848 615.04 157.354 615.589 157.753C616.137 158.152 616.761 158.437 617.422 158.59C618.083 158.743 618.768 158.761 619.436 158.644C620.089 158.546 620.715 158.315 621.275 157.966C621.835 157.617 622.318 157.157 622.694 156.614C623.069 156.071 623.33 155.457 623.459 154.81C623.588 154.162 623.583 153.496 623.445 152.85Z" fill="#874C4C"/>
<path d="M619.436 158.71C620.182 158.602 620.892 158.316 621.504 157.876C622.117 157.437 622.615 156.856 622.956 156.183C622.509 155.831 621.992 155.578 621.44 155.442C620.389 155.172 619.274 155.308 618.319 155.823C617.364 156.338 616.638 157.194 616.286 158.221C617.26 158.706 618.361 158.877 619.436 158.71Z" fill="#F28F8F"/>
<path d="M598.517 129.538L604.58 126.169C604.375 125.767 604.091 125.41 603.744 125.119C603.398 124.829 602.997 124.611 602.565 124.479C602.132 124.347 601.678 124.304 601.229 124.351C600.779 124.398 600.344 124.535 599.949 124.754C599.145 125.218 598.549 125.972 598.283 126.862C598.016 127.751 598.1 128.708 598.517 129.538Z" fill="#263238"/>
<path d="M600.588 134.473C600.632 135.022 600.835 135.547 601.174 135.981C601.512 136.416 601.971 136.741 602.493 136.918C603.015 137.094 603.577 137.113 604.109 136.973C604.642 136.832 605.122 136.539 605.489 136.128C605.856 135.717 606.095 135.208 606.175 134.663C606.256 134.118 606.174 133.562 605.941 133.062C605.708 132.563 605.333 132.144 604.864 131.855C604.394 131.567 603.851 131.423 603.3 131.441C602.923 131.461 602.552 131.555 602.211 131.718C601.87 131.881 601.565 132.11 601.312 132.392C601.06 132.674 600.866 133.003 600.742 133.36C600.618 133.717 600.566 134.096 600.588 134.473Z" fill="#263238"/>
<path d="M616.101 129.538L617.112 148.065L607.461 147.392C607.932 141.059 611.587 135.046 616.101 129.538Z" fill="#874C4C"/>
<path d="M673.974 186.401C691.693 187.074 696.308 198.292 707.66 214.208C715.678 225.51 727.013 242.96 727.013 242.96C727.013 242.96 750.273 209.021 751.57 203.951C753.137 197.854 751.082 195.125 751.57 188.405C752.059 181.684 753.254 177.356 752.379 174.29C751.503 171.225 756.994 171.781 758.425 175.655C759.857 179.529 759.032 184.379 760.733 183.857C762.434 183.335 765.786 173.347 766.224 165.667C766.662 157.986 771.175 157.009 772.169 159.704C772.718 161.146 773.114 162.642 773.348 164.168C773.348 164.168 779.664 163.477 782.511 168.564C785.357 173.65 787.362 180.708 784.869 191.639C782.376 202.57 774.982 209.593 772.422 214.006C768.582 220.609 754.753 258.994 739.763 277.202C732.908 285.522 722.802 282.406 715.913 276.612C702.59 265.395 678.858 234.504 678.858 234.504C671.549 223.321 667.877 199.622 673.974 186.401Z" fill="#C58A8A"/>
<path d="M726.979 242.957C724.015 247.201 720.714 254.006 721.253 259.716C721.253 259.716 717.278 251.749 724.621 239.824L726.979 242.957Z" fill="#874C4C"/>
<path d="M673.232 185.002C682.833 185.76 685.477 186.518 691.76 192.279C698.042 198.039 720.191 232.517 720.191 232.517C720.191 232.517 702.674 244.307 697.924 257.781C691.187 251.583 676.618 235.077 676.618 235.077C671.936 230.917 663.682 199.572 673.232 185.002Z" fill="#FF7732"/>
<path d="M309.422 538.657C311.326 524.98 322.745 457.574 323.031 440.478C323.621 406.944 321.246 336.287 315.789 301.119H246.884C240.989 314.239 234.673 323.402 233.662 348.279C231.523 401.066 231.691 439.232 231.691 439.232C231.287 443.881 228.508 450.635 225.426 474.603C223.32 491.041 223.741 510.765 223.32 524.34C222.899 537.916 223.522 550.262 222.63 561.041C222.327 564.578 218.183 588.9 218.705 596.328C219.497 607.461 234.167 609.6 235.548 603.149C236.93 596.698 238.294 565.993 238.664 563.13C239.523 554.574 244.526 536.888 248.534 520.702C252.543 504.516 265.024 458.383 268.746 443.106C274.052 422.338 279.105 391.768 279.105 391.768L286.415 443.578C286.415 443.578 284.73 464.278 285.269 476.489C285.926 490.705 287.459 518.479 287.408 533.756C287.408 548.022 287.661 554.422 286.246 558.313C285.949 558.731 285.717 559.19 285.556 559.677C283.029 566.33 287.981 573.286 292.124 579.889C293.809 582.533 297.952 592.841 304.555 597.608C313.498 604.059 321.027 602.341 321.617 597.608C316.227 594.003 308.243 583.51 304.959 575.156C303.443 571.147 306.946 555.399 309.422 538.657Z" fill="#B16668"/>
<path d="M279.105 391.767L285.269 354.527C285.269 354.527 307.553 352.119 315.738 344.421C315.738 344.421 305.38 358.721 290.238 360.894L283.501 391.75L286.314 443.105L279.105 391.767Z" fill="#9A4A4D"/>
<path d="M446.239 229.164C443.46 229.922 435.981 238.798 432.141 239.556C428.301 240.314 425.96 240.432 429.16 235.868C432.36 231.303 429.833 225.526 427.475 228.036C425.106 230.728 422.458 233.161 419.576 235.295C415.399 238.478 414.068 242.588 406.472 245.906L365.223 259.953C365.223 259.953 339.386 225.324 332.194 216.33C325.305 207.74 319.511 206.965 309.675 206.14L312.791 240.432C312.791 240.432 333.171 260.998 350.081 277.116C356.482 283.23 360.002 285.74 366.453 284.342C372.011 283.146 414.085 263.659 414.085 263.659C418.884 261.721 423.781 260.034 428.756 258.606C436.52 256.585 442.819 253.806 445.851 248.5C448.883 243.194 447.94 238.394 447.856 235.733C447.771 233.072 449.001 228.406 446.239 229.164Z" fill="#B16668"/>
<path d="M320.825 313.279C318.332 300.192 315.772 287.341 315.772 287.341C316.227 277.757 320.69 268.005 321.077 263.609C331.183 253.031 333.524 241.309 326.585 228.238C322.181 220.012 316.457 212.563 309.641 206.191L296.166 205.231L277.252 204.708L257.478 206.747C258.308 221.224 254.82 235.621 247.456 248.113L252.408 283.484C252.644 289.682 248.265 295.51 244.846 302.735C233.392 324.261 231.017 333.44 229.35 375.582C227.682 417.723 227.379 450.82 226.335 456.968C218.789 500.844 210.57 567.795 210.57 567.795C210.57 567.795 221.316 596.765 274.776 594.272C328.236 591.78 334.097 562.776 334.097 562.776C334.097 562.776 332.413 452.369 330.341 409.807C328.269 367.244 323.318 326.333 320.825 313.279Z" fill="url(#paint2_linear_1683_950)"/>
<path d="M171.393 267.92C178.13 271.963 187.107 282.439 202.923 290.776C208.886 293.909 215.572 293.522 222.781 284.191C228.693 276.561 253.385 248.281 253.385 248.281C255.884 234.572 257.253 220.68 257.478 206.746C248.096 207.774 244.003 207.774 234.285 223.32C225.863 236.878 205.989 266.219 205.989 266.219C205.989 266.219 175.536 251.465 172.875 248.281C170.214 245.098 169.506 241.78 166.643 237.855C164.609 235.199 162.859 232.337 161.422 229.316C159.956 226.453 156.184 231 157.885 235.885C159.586 240.769 157.531 240.095 154.263 238.428C150.996 236.76 146.6 226.874 144.309 225.476C142.019 224.078 141.968 228.558 141.193 231C140.418 233.442 138.313 237.451 139.677 242.959C141.042 248.466 146.415 254.193 152.916 258C159.417 261.806 164.706 263.861 171.393 267.92Z" fill="#B16668"/>
<path d="M205.989 266.186C210.419 268.308 215.488 274.001 216.095 278.145C215.917 275.199 215.117 272.325 213.747 269.712C212.376 267.099 210.467 264.806 208.145 262.986L205.989 266.186Z" fill="#9A4A4D"/>
<path d="M273.361 205.061L299.181 205.398C299.181 205.398 319.545 205.398 324.446 207.385C329.347 209.373 333.036 215.268 339.234 223.285C345.433 231.303 362.815 256.651 362.815 256.651C362.815 256.651 341.424 286.834 304.655 273.899C267.887 260.963 256.383 230.107 257.495 206.712L273.361 205.061Z" fill="url(#paint3_linear_1683_950)"/>
<path opacity="0.8" d="M273.361 205.061L299.181 205.398C299.181 205.398 319.545 205.398 324.446 207.385C329.347 209.373 333.036 215.268 339.234 223.285C345.433 231.303 362.815 256.651 362.815 256.651C362.815 256.651 341.424 286.834 304.655 273.899C267.887 260.963 256.383 230.107 257.495 206.712L273.361 205.061Z" fill="white"/>
<path d="M273.209 193.879C270.767 190.847 266.674 188.523 260.914 181.684C252.897 172.168 247.153 148.941 258.505 134.625C269.858 120.308 291.787 116.906 303.847 127.433C327.158 123.626 326.754 151.013 321.263 156.066L273.209 193.879Z" fill="#37474F"/>
<path d="M274.776 187.074C273.31 194.165 270.936 198.14 264.367 201.542C266.742 207.42 264.805 211.816 260.105 215.656C261.427 217.881 261.937 220.496 261.547 223.054C261.156 225.613 259.891 227.957 257.966 229.687C260.762 234.083 260.004 238.614 257.966 243.161C262.48 246.968 265.478 251.01 264.586 257.006C267.398 258.539 269.1 258.977 270.936 262.346C272.771 265.714 272.974 271.828 269.588 275.028C269.588 272.266 270.228 270.498 266.843 268.763C263.457 267.028 259.651 264.468 261.049 259.465C253.587 258.505 251.903 251.398 251.347 245.132C245.772 240.719 245.351 235.296 248.854 229.417C244.542 223.674 245.401 218.402 250.539 213.652C246.041 208.313 248.534 202.519 252.071 197.466C246.665 186.956 252.24 178.13 260.594 171.578C265.377 176.687 270.105 181.852 274.776 187.074Z" fill="#37474F"/>
<path d="M259.246 165.414C259.752 164.739 260.409 164.194 261.165 163.821C261.921 163.447 262.754 163.257 263.596 163.265C264.439 163.274 265.268 163.48 266.016 163.868C266.765 164.256 267.411 164.814 267.904 165.498C268.645 166.542 269.116 167.755 269.841 168.866C270.169 169.421 270.625 169.89 271.169 170.235C271.713 170.581 272.332 170.793 272.974 170.854C273.462 170.837 273.942 170.713 274.378 170.492C274.814 170.271 275.197 169.958 275.5 169.574C276.108 168.799 276.57 167.92 276.864 166.98C278.06 163.611 277.74 161.59 279.845 156.116C284.023 145.236 292.596 148.688 303.241 136.881C305.043 136.881 318.719 143.181 320.572 151.922C321.632 157.538 321.988 163.264 321.633 168.967C320.875 186.787 314.997 193.862 311.932 195.428C308.866 196.994 305.194 197.348 299.181 196.725V206.831C299.181 206.831 295.695 214.595 288.233 214.275C273.411 213.602 273.378 206.73 273.378 206.73L273.041 179.781C273.041 179.781 269.083 185.356 262.935 180.572C257.781 176.53 255.709 169.473 259.246 165.414Z" fill="#B16668"/>
<path d="M304.655 152.124C305.669 152.124 306.491 151.302 306.491 150.289C306.491 149.275 305.669 148.453 304.655 148.453C303.642 148.453 302.82 149.275 302.82 150.289C302.82 151.302 303.642 152.124 304.655 152.124Z" fill="#9A4A4D"/>
<path d="M297.042 164.067C297.104 164.768 296.891 165.466 296.448 166.013C296.005 166.559 295.366 166.913 294.668 166.997C294.328 167.042 293.984 167.018 293.654 166.927C293.324 166.836 293.016 166.68 292.747 166.468C292.479 166.256 292.256 165.993 292.091 165.693C291.926 165.393 291.823 165.064 291.787 164.723C291.73 164.021 291.947 163.323 292.393 162.776C292.839 162.23 293.479 161.878 294.179 161.793C294.517 161.748 294.861 161.772 295.19 161.863C295.519 161.954 295.826 162.11 296.093 162.323C296.36 162.535 296.582 162.798 296.745 163.098C296.908 163.398 297.009 163.727 297.042 164.067Z" fill="#263238"/>
<path d="M318.063 158.39L312.42 155.611C312.583 155.233 312.821 154.893 313.12 154.611C313.419 154.329 313.773 154.111 314.16 153.97C314.546 153.83 314.957 153.77 315.368 153.794C315.778 153.819 316.18 153.927 316.547 154.112C317.287 154.508 317.853 155.166 318.133 155.958C318.414 156.749 318.389 157.616 318.063 158.39Z" fill="#263238"/>
<path d="M295.746 156.218L290.171 159.132C289.964 158.778 289.832 158.386 289.782 157.98C289.731 157.573 289.764 157.161 289.877 156.768C289.991 156.374 290.182 156.008 290.441 155.69C290.7 155.373 291.02 155.111 291.383 154.921C292.141 154.553 293.009 154.482 293.817 154.722C294.624 154.962 295.312 155.496 295.746 156.218Z" fill="#263238"/>
<path d="M296.167 178.821L306.407 182.19C306.166 182.903 305.778 183.557 305.269 184.111C304.76 184.666 304.14 185.108 303.451 185.409C302.761 185.71 302.016 185.864 301.264 185.861C300.511 185.858 299.767 185.697 299.08 185.39C298.455 185.153 297.884 184.795 297.398 184.335C296.913 183.876 296.523 183.325 296.252 182.714C295.981 182.103 295.834 181.444 295.819 180.776C295.805 180.108 295.923 179.444 296.167 178.821Z" fill="#9A4A4D"/>
<path d="M302.045 185.827C301.891 184.438 301.231 183.154 300.19 182.222C299.148 181.29 297.8 180.774 296.402 180.774H295.88C295.834 181.8 296.121 182.814 296.698 183.663C297.274 184.513 298.11 185.154 299.08 185.49C300.025 185.847 301.044 185.963 302.045 185.827Z" fill="#F28F8F"/>
<path d="M316.9 163.056C316.957 163.764 316.736 164.466 316.283 165.013C315.83 165.561 315.181 165.91 314.475 165.986C314.136 166.031 313.791 166.007 313.462 165.916C313.132 165.825 312.823 165.669 312.555 165.457C312.286 165.245 312.063 164.982 311.898 164.682C311.733 164.382 311.63 164.053 311.595 163.713C311.537 163.012 311.752 162.317 312.194 161.771C312.637 161.225 313.273 160.871 313.97 160.782C314.313 160.73 314.663 160.748 314.998 160.836C315.334 160.923 315.649 161.078 315.923 161.29C316.197 161.503 316.425 161.769 316.593 162.073C316.761 162.376 316.866 162.71 316.9 163.056Z" fill="#263238"/>
<path d="M304.656 160.243L304.824 176.597L313.902 174.324L304.656 160.243Z" fill="#9A4A4D"/>
<path d="M299.182 196.641C292.899 195.698 279.61 192.346 277.286 187.428C278.218 190.233 279.98 192.688 282.339 194.469C286.347 197.517 299.097 200.229 299.097 200.229L299.182 196.641Z" fill="#9A4A4D"/>
<path d="M105.907 317.541C103.936 359.834 93.8302 453.633 93.8302 453.633C93.0554 458.821 84.937 480.717 84.1622 499.514C82.9495 529.006 81.72 551.323 81.72 551.323C81.72 551.323 98.0241 558.279 110.252 554.102C110.252 554.102 127.668 491.783 132.603 472.363C138.481 449.187 152.815 406.203 152.815 406.203L150.153 467.815C148.289 480.13 147.792 492.614 148.671 505.038C149.783 517.502 153.859 552.199 153.859 552.199C153.859 552.199 169.018 555.652 182.189 552.115C182.189 552.115 192.093 478.005 193.053 466.602C194.131 453.583 201.66 322.611 201.66 322.611L105.907 317.541Z" fill="#455A64"/>
<path opacity="0.25" d="M152.781 406.203L159.72 367.076C159.72 367.076 174.121 366.891 184.21 357.93C184.21 357.93 182.745 367.11 164.605 372.179L156.924 405.125L150.002 466.619L152.781 406.203Z" fill="#FF7732"/>
<path d="M152.781 406.203L159.72 367.076C159.72 367.076 174.121 366.891 184.21 357.93C184.21 357.93 182.745 367.11 164.605 372.179L156.924 405.125L150.002 466.619L152.781 406.203Z" fill="#37474F"/>
<path d="M117.613 197.062C112.644 201.049 108.652 206.119 105.94 211.884C104.256 215.421 100.669 218.958 102.841 240.197C104.896 260.409 107.052 271.323 106.968 287.038L105.081 324.48C116.417 339.184 172.572 349.644 201.643 332.042C201.643 332.042 205.466 259.162 204.675 235.026C204.153 218.638 199.992 203.159 194.569 197.854C186.989 196.169 179.612 194.805 179.612 194.805L151.568 191.756L117.613 197.062Z" fill="#455A64"/>
<path d="M210.166 135.164C210.09 133.521 209.594 131.925 208.724 130.53C207.853 129.135 206.639 127.987 205.197 127.197C206.189 126.422 206.893 125.339 207.198 124.118C207.503 122.897 207.392 121.61 206.881 120.46C206.293 119.313 205.367 118.375 204.229 117.772C203.09 117.17 201.793 116.932 200.514 117.091C201.238 116.583 201.853 115.933 202.32 115.182C202.788 114.431 203.099 113.594 203.236 112.72C203.373 111.846 203.332 110.953 203.116 110.095C202.9 109.237 202.514 108.432 201.98 107.726C200.742 106.363 199.043 105.507 197.21 105.323C195.378 105.14 193.543 105.642 192.059 106.733C192.221 104.994 191.816 103.249 190.906 101.759C189.995 100.268 188.627 99.1122 187.006 98.4626C185.354 97.8152 183.545 97.6827 181.817 98.0826C180.088 98.4824 178.521 99.3958 177.322 100.703C177.574 100.4 175.924 98.2773 175.637 97.9909C174.603 96.7132 173.297 95.6826 171.814 94.9744C170.33 94.2663 168.708 93.8986 167.064 93.8981C164.896 93.7503 162.733 94.2594 160.858 95.3591C158.983 96.4587 157.483 98.0979 156.554 100.063C154.469 98.552 151.985 97.6907 149.412 97.5867C147.695 97.4746 145.974 97.7256 144.36 98.3234C142.747 98.9213 141.277 99.8525 140.048 101.056C138.976 102.225 138.176 103.616 137.707 105.131C137.239 106.645 137.112 108.245 137.336 109.815C131.828 108.804 127.23 109.461 124.047 114.565C123.009 116.249 122.468 118.193 122.486 120.171C122.504 122.149 123.08 124.083 124.148 125.748C119.095 125.748 116.737 131.593 116.787 134.17C116.81 135.861 117.359 137.503 118.358 138.867C119.358 140.232 120.757 141.251 122.362 141.783C120.948 142.453 119.789 143.564 119.06 144.949C118.331 146.334 118.071 147.918 118.32 149.463C118.567 151.116 119.272 152.666 120.356 153.937C121.44 155.209 122.858 156.15 124.451 156.655C123.36 157.876 122.687 159.413 122.53 161.043C122.372 162.672 122.739 164.31 123.575 165.717C124.596 167.137 126.021 168.218 127.664 168.819C129.306 169.42 131.092 169.512 132.788 169.086C132.569 173.061 135.146 176.109 139.425 177.204C142.338 177.945 147.24 175.52 148.756 172.707C149.901 170.568 153.707 170.787 156.352 171.275C158.205 171.562 159.316 172.32 160.647 172.37C171.419 172.843 182.128 170.485 191.706 165.532C195.84 163.126 199.597 160.123 202.856 156.622C209.593 153.91 209.071 145.96 205.584 143.333C207.002 142.498 208.174 141.302 208.979 139.867C209.784 138.432 210.193 136.809 210.166 135.164Z" fill="#F28F8F"/>
<path d="M134.624 165.751C140.486 170.164 144.494 166.172 144.494 166.172L143.501 194.536C145.393 198.862 148.645 202.451 152.764 204.76C159.35 208.128 166.929 211.396 173.212 219.396C179.225 211.446 182.829 202.452 175.115 194.906L175.418 186.485C178.599 186.976 181.819 187.168 185.036 187.057C191.183 186.518 195.31 182.005 197.567 175.486C201.188 165.094 200.935 150.019 198.14 129.218C191.689 123.492 170.062 120.342 155.173 128.46C155.072 140.604 153.758 146.045 151.973 149.851C151.651 150.738 151.116 151.531 150.413 152.16C149.711 152.789 148.864 153.234 147.947 153.455C146.347 153.86 144.41 150.087 142.675 147.981C140.94 145.876 134.995 142.929 131.542 149.076C130.046 151.783 129.535 154.925 130.098 157.965C130.66 161.006 132.26 163.758 134.624 165.751Z" fill="#FFC4C3"/>
<path d="M175.418 186.535C168.681 185.71 155.392 181.667 152.04 177.675C148.688 173.684 147.644 165.885 147.644 165.885C147.644 165.885 147.644 175.621 150.053 180.084C152.461 184.547 159.485 186.821 163.679 188.236C167.49 189.302 171.359 190.151 175.267 190.779L175.418 186.535Z" fill="#FFA8A7"/>
<path d="M173.212 219.395C169.843 217.003 162.651 207.605 158.508 211.496C154.364 215.386 152.225 216.346 149.732 215.403C147.24 214.46 141.951 208.548 138.532 204.236C136.341 201.204 134.904 197.694 134.338 193.996C136.381 191.834 138.278 189.538 140.014 187.124C141.968 184.126 141.698 183.233 143.905 183.233L143.719 189.094C143.719 189.094 144.932 192.379 150.962 197.128C156.992 201.878 169.321 209.138 173.212 219.395Z" fill="#455A64"/>
<path d="M173.212 219.396C175.435 217.611 179.444 208.903 180.337 209.29C181.65 209.779 183.705 216.027 184.901 214.73C186.905 212.591 187.023 202.182 184.21 198.224C181.398 194.266 177.591 189.971 175.317 189.432L175.115 194.973C176.302 197.844 176.875 200.93 176.8 204.035C176.564 207.101 173.852 216.415 173.212 219.396Z" fill="#455A64"/>
<path d="M173.902 148.066C173.887 148.431 173.8 148.79 173.646 149.121C173.492 149.452 173.275 149.75 173.006 149.997C172.737 150.245 172.421 150.436 172.078 150.562C171.735 150.687 171.37 150.743 171.005 150.727C170.271 150.659 169.592 150.304 169.117 149.74C168.641 149.176 168.406 148.448 168.462 147.712C168.47 147.344 168.552 146.981 168.704 146.645C168.855 146.309 169.073 146.008 169.345 145.759C169.616 145.509 169.936 145.318 170.283 145.195C170.631 145.073 170.999 145.022 171.367 145.046C171.735 145.07 172.094 145.168 172.423 145.334C172.751 145.501 173.043 145.732 173.28 146.014C173.517 146.297 173.694 146.624 173.801 146.977C173.908 147.329 173.943 147.7 173.902 148.066Z" fill="#263238"/>
<path d="M172.622 138.245L166.879 141.614C166.44 140.826 166.324 139.899 166.557 139.028C166.79 138.158 167.352 137.411 168.125 136.948C168.504 136.73 168.922 136.59 169.356 136.537C169.79 136.485 170.229 136.52 170.649 136.641C171.069 136.762 171.46 136.966 171.799 137.242C172.138 137.518 172.418 137.859 172.622 138.245Z" fill="#B16668"/>
<path d="M196.843 142.219L190.981 138.851C191.178 138.459 191.452 138.112 191.787 137.83C192.121 137.548 192.51 137.336 192.929 137.209C193.348 137.081 193.788 137.04 194.224 137.088C194.659 137.135 195.08 137.271 195.461 137.486C196.266 137.937 196.861 138.686 197.119 139.571C197.377 140.456 197.278 141.407 196.843 142.219Z" fill="#B16668"/>
<path d="M194.485 149.261C194.427 149.792 194.215 150.295 193.875 150.707C193.535 151.119 193.081 151.422 192.57 151.579C192.059 151.735 191.513 151.738 191 151.587C190.488 151.435 190.031 151.137 189.686 150.729C189.341 150.32 189.124 149.819 189.062 149.289C188.999 148.758 189.094 148.22 189.334 147.743C189.574 147.266 189.949 146.869 190.413 146.603C190.876 146.337 191.408 146.213 191.941 146.246C192.676 146.315 193.354 146.669 193.83 147.233C194.306 147.797 194.541 148.525 194.485 149.261Z" fill="#263238"/>
<path d="M180.539 142.625L181.229 162.315L191.925 159.839L180.539 142.625Z" fill="#FFA8A7"/>
<path d="M172.69 166.323L183.789 169.557C183.61 170.299 183.282 170.997 182.827 171.609C182.371 172.221 181.797 172.735 181.138 173.121C180.479 173.506 179.749 173.754 178.992 173.851C178.235 173.948 177.467 173.891 176.732 173.684C175.236 173.219 173.979 172.193 173.225 170.82C172.471 169.447 172.279 167.835 172.69 166.323Z" fill="#B16668"/>
<path d="M176.732 173.7C176.959 173.757 177.189 173.797 177.422 173.818C177.478 172.451 176.996 171.116 176.08 170.099C175.164 169.083 173.887 168.465 172.521 168.378C172.601 169.587 173.046 170.744 173.798 171.694C174.55 172.645 175.573 173.344 176.732 173.7Z" fill="#F28F8F"/>
<path d="M116.787 198.527C98.26 199.217 93.4934 210.923 81.7033 227.514C73.2817 239.304 61.4915 257.477 61.4915 257.477C61.4915 257.477 37.2543 222.107 35.89 216.818C34.2057 210.468 36.4122 207.622 35.89 200.615C35.3679 193.608 34.0373 189.094 35.031 185.894C36.0248 182.694 30.2308 183.284 28.7317 187.326C27.2327 191.368 28.1085 196.421 26.3232 195.865C24.5378 195.31 21.0176 184.917 20.6134 176.917C20.2091 168.916 15.4594 167.889 14.4151 170.702C13.8389 172.197 13.4267 173.75 13.1856 175.334C13.1856 175.334 6.5999 174.626 3.63552 179.932C0.671134 185.237 -1.41741 192.581 1.17643 203.984C3.77026 215.387 11.4676 222.696 14.1456 227.295C18.1543 234.183 32.572 274.186 48.1855 293.168C55.327 301.842 65.8708 298.591 73.0459 292.545C87.093 280.856 111.751 248.618 111.751 248.618C124.468 236.659 123.137 212.304 116.787 198.527Z" fill="#FFC4C3"/>
<path d="M61.5251 257.478C64.6074 261.907 68.0603 268.998 67.4876 274.944C67.4876 274.944 71.2941 266.64 63.6642 254.21L61.5251 257.478Z" fill="#FFA8A7"/>
<path d="M117.613 197.062C107.608 197.853 104.846 198.662 98.3274 204.658C91.8092 210.654 68.7004 246.58 68.7004 246.58C68.7004 246.58 86.9752 258.96 91.9271 272.957C99.018 266.506 117.983 244.946 117.983 244.946C117.983 244.946 134.658 219.193 117.613 197.062Z" fill="#455A64"/>
<path d="M367.446 296.958C361.703 310.129 355.487 319.343 354.746 344.119C353.18 396.871 353.769 434.954 353.769 434.954C353.416 439.619 351.058 446.441 347.908 470.408C345.264 490.485 341.912 550.278 341.912 550.278C349.927 554.242 359.086 555.238 367.766 553.091C371.387 533.166 385.502 461.448 390.908 438.474C395.81 417.622 400.661 387.102 400.661 387.102L402.968 441.809C402.968 441.809 401.486 462.509 402.176 474.686C402.985 488.885 409.537 547.348 409.537 547.348C409.537 547.348 423.281 552.838 436.301 546.893C436.301 546.893 439.349 455.401 439.45 438.305C439.686 404.804 446.962 331.166 441.135 296.099L367.446 296.958Z" fill="#37474F"/>
<path d="M400.661 387.153L406.404 349.913C406.404 349.913 425.774 350.065 433.859 342.3C433.859 342.3 431.13 352.827 411.44 356.246L405.107 387.137L402.901 441.456L400.661 387.153Z" fill="#263238"/>
<path d="M447.535 328.151C446.205 299.097 445.682 268.358 446.07 263.962C451.931 256.332 449.977 237.771 443.038 224.667C437.362 213.904 434.28 209.138 430.271 205.382L416.796 204.438L397.882 203.899L378.057 205.954C387.574 241.089 366.267 253.974 366.267 253.974L371.32 280.569C371.556 286.767 366.991 293.37 363.572 300.596C352.119 322.121 350.098 330.509 346.965 374.234C346.19 385.384 345.281 396.955 344.944 406.522C346.628 412.501 415.365 433.471 450.954 408.981C448.798 366.418 448.074 341.491 447.535 328.151Z" fill="url(#paint4_linear_1683_950)"/>
<path opacity="0.6" d="M447.535 328.151C446.205 299.097 445.682 268.358 446.07 263.962C451.931 256.332 449.977 237.771 443.038 224.667C437.362 213.904 434.28 209.138 430.271 205.382L416.796 204.438L397.882 203.899L378.057 205.954C387.574 241.089 366.267 253.974 366.267 253.974L371.32 280.569C371.556 286.767 366.991 293.37 363.572 300.596C352.119 322.121 350.098 330.509 346.965 374.234C346.19 385.384 345.281 396.955 344.944 406.522C346.628 412.501 415.365 433.471 450.954 408.981C448.798 366.418 448.074 341.491 447.535 328.151Z" fill="white"/>
<path d="M395.221 193.558C392.661 190.661 391.044 184.851 384.98 178.299C376.559 169.17 371.354 153.977 381.46 141.244C391.566 128.51 410.733 127.281 423.568 129.892C440.933 133.395 441.927 154.028 441.927 154.028L395.221 193.558Z" fill="#FAFAFA"/>
<path d="M394.058 166.729C399.364 147.174 412.704 140.369 427.357 140.891C434.633 141.144 442.903 142.576 442.971 165.297C442.971 183.117 436.924 191.606 433.943 193.307C430.962 195.008 427.206 195.53 421.277 195.177L421.732 205.283C421.732 205.283 429.884 211.464 426.161 220.896C420.384 220.386 414.711 219.041 409.318 216.904C397.309 211.616 395.844 206.344 395.844 206.344L394.277 179.395C394.277 179.395 392.964 170.721 394.058 166.729Z" fill="#F28F8F"/>
<path d="M427.425 195.16H426.633C426.903 195.193 427.172 195.193 427.425 195.16Z" fill="#FFBDA7"/>
<path d="M417.655 161.625C417.743 162.32 417.559 163.021 417.142 163.583C416.724 164.145 416.106 164.524 415.415 164.64C415.078 164.703 414.732 164.696 414.398 164.622C414.063 164.547 413.747 164.406 413.469 164.206C413.19 164.006 412.955 163.752 412.777 163.459C412.6 163.166 412.483 162.84 412.434 162.501C412.346 161.806 412.53 161.105 412.948 160.543C413.365 159.981 413.984 159.602 414.674 159.486C415.011 159.421 415.358 159.426 415.694 159.499C416.029 159.573 416.346 159.714 416.625 159.914C416.904 160.114 417.139 160.369 417.317 160.664C417.494 160.958 417.609 161.285 417.655 161.625Z" fill="#263238"/>
<path d="M439.114 155.579L433.354 153.069C433.497 152.684 433.718 152.333 434.003 152.037C434.288 151.742 434.63 151.508 435.009 151.35C435.388 151.192 435.796 151.113 436.206 151.119C436.617 151.125 437.022 151.216 437.396 151.385C438.153 151.745 438.748 152.374 439.066 153.149C439.383 153.925 439.401 154.791 439.114 155.579Z" fill="#263238"/>
<path d="M415.651 154.281L410.228 157.447C410.006 157.103 409.857 156.717 409.788 156.313C409.72 155.909 409.735 155.495 409.831 155.097C409.927 154.699 410.102 154.324 410.347 153.996C410.592 153.667 410.901 153.392 411.255 153.186C411.993 152.789 412.852 152.682 413.665 152.884C414.478 153.086 415.186 153.584 415.651 154.281Z" fill="#263238"/>
<path d="M417.42 178.502L426.262 181.028C426.084 181.645 425.779 182.217 425.367 182.709C424.955 183.2 424.445 183.601 423.87 183.884C423.295 184.168 422.667 184.329 422.026 184.356C421.385 184.384 420.746 184.277 420.148 184.043C419.602 183.863 419.097 183.576 418.664 183.198C418.23 182.821 417.876 182.361 417.622 181.845C417.367 181.329 417.219 180.768 417.184 180.194C417.149 179.62 417.229 179.045 417.42 178.502Z" fill="#B16668"/>
<path d="M422.692 184.227C422.517 183.033 421.901 181.947 420.966 181.183C420.031 180.42 418.844 180.033 417.639 180.101H417.184C417.184 180.975 417.466 181.826 417.987 182.527C418.509 183.228 419.244 183.741 420.081 183.992C420.918 184.288 421.816 184.369 422.692 184.227Z" fill="#FFC4C3"/>
<path d="M437.682 160.108C437.77 160.805 437.587 161.508 437.17 162.073C436.752 162.638 436.134 163.02 435.442 163.14C435.106 163.202 434.761 163.196 434.427 163.121C434.094 163.046 433.779 162.905 433.502 162.705C433.225 162.505 432.991 162.251 432.815 161.958C432.639 161.665 432.524 161.339 432.478 161.001C432.38 160.307 432.559 159.604 432.974 159.04C433.39 158.476 434.01 158.098 434.701 157.986C435.037 157.923 435.381 157.929 435.715 158.003C436.048 158.076 436.364 158.216 436.642 158.414C436.92 158.612 437.156 158.864 437.334 159.155C437.513 159.446 437.631 159.77 437.682 160.108Z" fill="#263238"/>
<path d="M425.067 156.74L426.262 173.414L434.954 172.185C432.998 166.293 429.599 160.983 425.067 156.74Z" fill="#B16668"/>
<path d="M432.511 279.964C432.713 279.762 432.713 279.526 432.814 279.274C432.945 278.941 433.115 278.624 433.319 278.33C433.678 277.759 433.972 277.148 434.195 276.511C434.578 275.316 434.705 274.053 434.566 272.806C434.581 272.122 434.38 271.45 433.993 270.886C433.872 270.759 433.712 270.676 433.538 270.65H433.404C433.251 270.827 433.126 271.025 433.033 271.239C433.066 271.567 433.139 271.89 433.252 272.199C433.459 273.417 433.396 274.664 433.067 275.854C432.881 276.524 432.627 277.173 432.309 277.791C432.107 278.099 431.999 278.459 431.999 278.827C431.999 279.195 432.107 279.555 432.309 279.863C432.309 279.947 432.511 280.048 432.595 279.947L432.511 279.964Z" fill="#455A64"/>
<path d="M436.031 279.897C436.688 278.407 437.125 276.829 437.328 275.214C437.421 274.555 437.421 273.886 437.328 273.227C437.306 272.833 437.192 272.45 436.996 272.108C436.8 271.766 436.528 271.475 436.2 271.256C436.163 271.239 436.124 271.23 436.084 271.228C436.044 271.227 436.004 271.233 435.966 271.247C435.928 271.261 435.894 271.283 435.865 271.31C435.835 271.338 435.812 271.371 435.796 271.408C435.61 271.778 435.796 272.048 436.015 272.385C436.121 272.628 436.2 272.882 436.25 273.142C436.343 273.745 436.343 274.359 436.25 274.962C436.25 275.585 436.065 276.191 435.947 276.797C435.748 277.697 435.607 278.608 435.526 279.526C435.526 279.745 435.897 280.25 436.048 279.897H436.031Z" fill="#455A64"/>
<path d="M439.535 279.341C440.333 278.031 440.714 276.51 440.63 274.979C440.633 274.221 440.559 273.465 440.411 272.722C440.276 271.98 440.141 271.037 439.451 270.532C439.381 270.476 439.295 270.445 439.206 270.445C439.117 270.445 439.031 270.476 438.962 270.532C438.693 270.835 438.878 271.189 438.962 271.526C439.046 271.863 439.147 272.149 439.232 272.469C439.402 273.176 439.498 273.898 439.518 274.625C439.443 276.041 439.257 277.449 438.962 278.836C438.962 279.122 439.232 279.661 439.501 279.29L439.535 279.341Z" fill="#455A64"/>
<path d="M442.011 278.616C442.514 278.135 442.845 277.502 442.954 276.814C443.134 276.087 443.196 275.337 443.139 274.591C443.106 273.895 443.021 273.202 442.886 272.519C442.817 271.764 442.543 271.042 442.095 270.43C441.977 270.312 441.64 270.178 441.539 270.43C441.236 271.02 441.539 271.761 441.741 272.367C441.884 272.994 441.986 273.63 442.044 274.271C442.12 274.886 442.12 275.508 442.044 276.123C441.96 276.831 441.707 277.521 441.64 278.229C441.64 278.414 441.808 278.818 442.044 278.65L442.011 278.616Z" fill="#455A64"/>
<path d="M444.554 279.475C445.098 278.749 445.467 277.907 445.632 277.015C445.908 276.024 446.027 274.995 445.985 273.967C445.954 273.082 445.765 272.209 445.43 271.39C445.153 270.505 444.551 269.759 443.745 269.301C443.526 269.2 443.425 269.47 443.459 269.638C443.591 270.055 443.79 270.448 444.049 270.8C444.224 271.097 444.376 271.407 444.503 271.727C444.781 272.43 444.935 273.177 444.958 273.933C444.981 274.765 444.901 275.597 444.722 276.409C444.468 277.315 444.282 278.238 444.166 279.171C444.166 279.39 444.352 279.795 444.587 279.542L444.554 279.475Z" fill="#455A64"/>
<path d="M447.67 278.296C448.777 276.812 449.336 274.991 449.253 273.142C449.268 272.282 449.189 271.424 449.018 270.582C448.925 269.624 448.53 268.722 447.889 268.005C447.687 267.836 447.367 267.752 447.266 268.005C447.187 268.405 447.246 268.821 447.434 269.184C447.535 269.537 447.653 269.891 447.737 270.262C447.936 271.067 448.043 271.892 448.057 272.721C447.954 274.432 447.661 276.127 447.182 277.774C447.182 277.959 447.417 278.565 447.67 278.279V278.296Z" fill="#455A64"/>
<path d="M451.089 276.022C451.477 275.321 451.712 274.546 451.78 273.748C451.889 272.808 451.889 271.859 451.78 270.919C451.726 269.051 451.016 267.262 449.775 265.866C449.59 265.731 449.354 265.731 449.304 265.984C449.306 266.753 449.497 267.511 449.86 268.19C450.15 268.975 450.359 269.788 450.483 270.615C450.586 271.419 450.631 272.23 450.617 273.041C450.617 273.95 450.466 274.843 450.516 275.753C450.516 276.005 450.853 276.46 451.089 276.106V276.022Z" fill="#455A64"/>
<path d="M431.231 204.793C437.362 206.949 443.931 217.897 447.72 230.799C451.51 243.701 453.026 267.955 453.026 267.955C453.026 267.955 447.72 274.591 431.231 274.018C431.231 274.018 438.052 236.862 431.231 217.897V204.793Z" fill="url(#paint5_linear_1683_950)"/>
<path opacity="0.25" d="M431.231 204.793C437.362 206.949 443.931 217.897 447.72 230.799C451.51 243.701 453.026 267.955 453.026 267.955C453.026 267.955 447.72 274.591 431.231 274.018C431.231 274.018 438.052 236.862 431.231 217.897V204.793Z" fill="black"/>
<path opacity="0.1" d="M434.212 244.543C435.872 242.852 437.073 240.765 437.699 238.479C441.488 225.813 433.875 206.225 431.231 204.793V217.897C433.842 225.156 434.448 235.06 434.212 244.543Z" fill="black"/>
<path d="M380.971 184.295C381.359 187.327 380.247 197.77 378.799 199.741C377.35 201.711 375.245 202.739 374.925 206.478L380.668 205.737C380.668 205.737 386.631 222.074 404.249 236.24C421.866 250.405 433.202 246.345 435.072 239.473C437.699 229.873 432.916 209.408 431.231 204.81C429.547 200.212 427.425 199.522 427.425 199.522L380.971 184.295Z" fill="url(#paint6_linear_1683_950)"/>
<path opacity="0.25" d="M380.971 184.295C381.359 187.327 380.247 197.77 378.799 199.741C377.35 201.711 375.245 202.739 374.925 206.478L380.668 205.737C380.668 205.737 386.631 222.074 404.249 236.24C421.866 250.405 433.202 246.345 435.072 239.473C437.699 229.873 432.916 209.408 431.231 204.81C429.547 200.212 427.425 199.522 427.425 199.522L380.971 184.295Z" fill="black"/>
<path opacity="0.1" d="M381.039 184.295C380.798 191.551 382.9 198.691 387.035 204.659C393.873 214.141 407.617 218.453 418.767 216.061C429.917 213.67 431.938 208.499 427.29 204.002C422.641 199.505 381.039 184.295 381.039 184.295Z" fill="black"/>
<path d="M427.829 208.431C427.496 209.419 426.829 210.259 425.942 210.806C424.123 212.154 420.603 213.653 413.815 214.175C409.627 214.444 405.425 213.912 401.435 212.609C390.673 209.071 380.264 199.134 380.702 177.154C381.683 178.577 382.909 179.814 384.323 180.809C390.723 185.289 394.429 179.546 394.429 179.546C396.281 184.7 397.225 187.58 402.193 190.915C408.459 195.125 421.26 195.328 421.26 195.328C421.832 195.328 422.371 195.328 422.944 195.328C424.173 195.395 425.404 195.395 426.633 195.328C426.902 195.328 427.172 195.328 427.424 195.328L427.829 208.431Z" fill="url(#paint7_linear_1683_950)"/>
<path opacity="0.2" d="M427.829 208.431C427.496 209.419 426.829 210.259 425.942 210.806C424.123 212.154 420.603 213.653 413.815 214.175C409.627 214.444 405.425 213.912 401.435 212.609C390.673 209.071 380.264 199.134 380.702 177.154C381.683 178.577 382.909 179.814 384.323 180.809C390.723 185.289 394.429 179.546 394.429 179.546C396.281 184.7 397.225 187.58 402.193 190.915C408.459 195.125 421.26 195.328 421.26 195.328C421.832 195.328 422.371 195.328 422.944 195.328C424.173 195.395 425.404 195.395 426.633 195.328C426.902 195.328 427.172 195.328 427.424 195.328L427.829 208.431Z" fill="black"/>
<path d="M394.058 166.727C394.058 166.727 394.058 147.543 403.17 139.425C412.282 131.306 430.641 131.929 435.071 136.41C439.501 140.89 445.177 157.885 441.606 178.888C441.606 178.888 445.463 169.826 443.627 149.817C441.791 129.807 426.06 118.202 409.032 119.247C392.003 120.291 381.375 126.658 374.183 140.873C366.991 155.089 364.465 207.875 364.465 207.875C366.999 207.213 369.611 206.896 372.23 206.932C390.336 207.74 394.917 195.428 394.412 178.686L394.058 166.727Z" fill="url(#paint8_linear_1683_950)"/>
<path opacity="0.25" d="M394.058 166.727C394.058 166.727 394.058 147.543 403.17 139.425C412.282 131.306 430.641 131.929 435.071 136.41C439.501 140.89 445.177 157.885 441.606 178.888C441.606 178.888 445.463 169.826 443.627 149.817C441.791 129.807 426.06 118.202 409.032 119.247C392.003 120.291 381.375 126.658 374.183 140.873C366.991 155.089 364.465 207.875 364.465 207.875C366.999 207.213 369.611 206.896 372.23 206.932C390.336 207.74 394.917 195.428 394.412 178.686L394.058 166.727Z" fill="black"/>
<path d="M507.109 306.593C516.305 303.915 517.4 302.079 522.032 291.316C524.693 285.118 548.627 229.603 548.526 218.285C548.425 206.966 541.856 203.378 532.02 203.378C520.567 209.812 518.68 222.529 518.68 222.529L494.173 283.434C494.173 283.434 464.344 294.719 450.668 297.413C441.657 298.98 441.067 294.904 435.021 293.506C428.974 292.108 424.797 292.108 422.338 290.424C419.879 288.739 418.885 293.792 421.917 296.133C424.948 298.475 429.445 299.014 428.519 300.378C427.593 301.742 417.874 302.062 411.002 300.378C404.13 298.693 402.042 302.416 404.147 304.016C405.261 304.894 406.47 305.646 407.752 306.256C407.752 306.256 405.444 311.629 409.166 315.52C412.889 319.411 418.245 321.432 428.57 322.173C437.934 322.863 445.817 319.646 453.076 318.029C473.389 313.886 487.638 312.235 507.109 306.593Z" fill="#FFC4C3"/>
<path d="M569.799 72.929L565.555 71.5816C559.946 69.7962 552.99 66.3771 551.659 60.1956C551.281 58.4152 551.541 56.5587 552.393 54.9503C553.245 53.3419 554.634 52.0838 556.319 51.3958C558.004 50.7077 559.877 50.6335 561.612 51.186C563.346 51.7384 564.831 52.8825 565.807 54.4185C566.072 52.6167 566.961 50.9652 568.32 49.7529C569.679 48.5405 571.421 47.8444 573.241 47.7862C575.062 47.728 576.844 48.3114 578.278 49.4345C579.711 50.5576 580.705 52.1488 581.084 53.93C582.381 59.9935 577.463 65.9728 573.117 69.931L569.799 72.929Z" fill="url(#paint9_linear_1683_950)"/>
<path d="M357.054 119.332L350.317 117.361C341.491 114.75 330.509 109.63 328.252 99.9959C327.639 97.2387 328.006 94.354 329.29 91.8382C330.574 89.3224 332.695 87.3329 335.288 86.2121C337.88 85.0913 340.783 84.9093 343.495 85.6974C346.207 86.4855 348.56 88.1944 350.148 90.53C350.506 87.7067 351.844 85.0987 353.929 83.1612C356.013 81.2238 358.712 80.08 361.554 79.9296C364.396 79.7792 367.201 80.6316 369.478 82.3382C371.756 84.0448 373.361 86.497 374.015 89.2668C376.222 98.7158 368.726 108.232 362.04 114.531L357.054 119.332Z" fill="url(#paint10_linear_1683_950)"/>
<path d="M153.539 43.521L148.233 41.9546C141.227 39.8829 132.569 35.8069 130.716 28.2106C130.201 26.0096 130.476 23.6973 131.493 21.6785C132.511 19.6597 134.205 18.0629 136.281 17.1676C138.357 16.2722 140.681 16.1354 142.848 16.7809C145.014 17.4264 146.885 18.8132 148.132 20.6986C148.409 18.4512 149.468 16.373 151.125 14.8289C152.781 13.2848 154.928 12.3735 157.19 12.2549C159.451 12.1363 161.682 12.8181 163.491 14.1804C165.299 15.5428 166.57 17.4987 167.081 19.7049C168.765 27.2001 162.887 34.7458 157.581 39.765L153.539 43.521Z" fill="url(#paint11_linear_1683_950)"/>
<path d="M434.381 51.5388C433.488 56.2825 434.022 61.1844 435.915 65.6246C437.808 70.0649 440.975 73.844 445.016 76.4842C449.057 79.1243 453.79 80.5069 458.617 80.4571C463.444 80.4072 468.147 78.9272 472.133 76.2042C476.119 73.4812 479.207 69.6375 481.008 65.1591C482.809 60.6807 483.242 55.7688 482.251 51.0446C481.261 46.3203 478.892 41.9959 475.443 38.6181C471.995 35.2403 467.623 32.9609 462.879 32.0681C456.518 30.871 449.942 32.2498 444.597 35.9012C439.253 39.5527 435.578 45.1777 434.381 51.5388Z" fill="url(#paint12_linear_1683_950)"/>
<path d="M472.985 60.9034C472.331 64.2386 470.611 67.271 468.084 69.5439C466.379 71.1645 464.316 72.3611 462.063 73.037C459.81 73.7129 457.43 73.8492 455.115 73.4347C452.796 72.9644 450.619 71.9578 448.759 70.4954C446.899 69.033 445.407 67.1555 444.402 65.0131C442.878 61.9741 442.381 58.5222 442.988 55.1768L472.985 60.9034Z" fill="#455A64"/>
<path d="M468.083 69.5431C466.379 71.1636 464.316 72.3603 462.063 73.0362C459.81 73.7121 457.43 73.8483 455.114 73.4338C452.795 72.9635 450.619 71.9569 448.759 70.4945C446.898 69.0321 445.407 67.1546 444.402 65.0123C448.157 62.5169 452.738 61.5862 457.169 62.4184C461.605 63.2606 465.528 65.8214 468.083 69.5431Z" fill="#F28F8F"/>
<path d="M467.444 50.1067C467.423 50.581 467.539 51.0513 467.777 51.4616C468.016 51.8719 468.368 52.2048 468.791 52.4207C469.214 52.6367 469.69 52.7265 470.162 52.6795C470.635 52.6325 471.084 52.4506 471.456 52.1556C471.828 51.8606 472.107 51.4648 472.26 51.0155C472.414 50.5662 472.435 50.0823 472.321 49.6214C472.207 49.1605 471.963 48.7421 471.617 48.416C471.272 48.09 470.841 47.87 470.374 47.7823C469.678 47.7063 468.98 47.9077 468.432 48.3428C467.883 48.7779 467.528 49.4116 467.444 50.1067Z" fill="#455A64"/>
<path d="M447.316 46.5535C447.295 47.0278 447.411 47.4981 447.65 47.9084C447.889 48.3187 448.241 48.6516 448.664 48.8675C449.086 49.0835 449.562 49.1733 450.035 49.1263C450.507 49.0792 450.956 48.8974 451.328 48.6024C451.7 48.3074 451.979 47.9116 452.133 47.4623C452.286 47.013 452.307 46.5291 452.193 46.0682C452.079 45.6073 451.835 45.1889 451.49 44.8628C451.145 44.5368 450.713 44.3168 450.247 44.2291C449.551 44.1531 448.853 44.3545 448.304 44.7896C447.756 45.2246 447.401 45.8584 447.316 46.5535Z" fill="#455A64"/>
<path d="M643.538 17.0942C642.985 20.8156 643.548 24.6174 645.156 28.0186C646.765 31.4197 649.346 34.2674 652.573 36.2013C655.8 38.1352 659.528 39.0683 663.286 38.8826C667.044 38.697 670.662 37.4008 673.682 35.1582C676.703 32.9156 678.991 29.8274 680.256 26.2842C681.521 22.7411 681.707 18.9023 680.789 15.2536C679.872 11.6049 677.893 8.31032 675.103 5.7867C672.313 3.26308 668.836 1.62386 665.114 1.07646C660.13 0.3434 655.058 1.61846 651.012 4.62167C646.967 7.62488 644.279 12.1107 643.538 17.0942Z" fill="url(#paint13_linear_1683_950)"/>
<path d="M673.873 23.1579C673.455 25.775 672.209 28.1894 670.319 30.0467C669.046 31.3656 667.477 32.3613 665.742 32.9511C664.007 33.5408 662.156 33.7075 660.344 33.4373C658.531 33.167 656.809 32.4677 655.322 31.3975C653.834 30.3272 652.624 28.9171 651.791 27.2845C650.502 24.9691 650.005 22.2955 650.377 19.6714L673.873 23.1579Z" fill="#455A64"/>
<path d="M670.319 30.0802C669.046 31.3991 667.477 32.3948 665.742 32.9846C664.007 33.5743 662.156 33.741 660.344 33.4708C658.531 33.2005 656.809 32.5012 655.322 31.431C653.834 30.3607 652.624 28.9506 651.791 27.318C654.635 25.2856 658.157 24.4376 661.613 24.953C665.07 25.4684 668.192 27.3068 670.319 30.0802Z" fill="#F28F8F"/>
<path d="M669.224 14.9048C669.215 15.2741 669.313 15.6382 669.506 15.9532C669.699 16.2683 669.979 16.5211 670.312 16.6811C670.645 16.8412 671.017 16.9018 671.383 16.8557C671.75 16.8095 672.095 16.6586 672.378 16.421C672.661 16.1835 672.87 15.8693 672.978 15.5162C673.087 15.1632 673.092 14.7862 672.992 14.4306C672.892 14.0749 672.691 13.7557 672.414 13.5112C672.137 13.2666 671.796 13.1072 671.43 13.052C670.894 13.0142 670.364 13.1863 669.952 13.532C669.541 13.8778 669.279 14.37 669.224 14.9048Z" fill="#455A64"/>
<path d="M653.459 12.8163C653.388 13.0781 653.374 13.3519 653.416 13.6198C653.459 13.8876 653.558 14.1434 653.707 14.3702C653.855 14.597 654.05 14.7898 654.279 14.9358C654.507 15.0818 654.764 15.1777 655.033 15.2172C655.301 15.2567 655.575 15.239 655.836 15.1651C656.096 15.0912 656.339 14.9629 656.547 14.7886C656.754 14.6143 656.923 14.3979 657.041 14.1538C657.159 13.9096 657.224 13.6432 657.232 13.3721C657.303 13.1103 657.317 12.8365 657.274 12.5686C657.232 12.3008 657.133 12.0451 656.984 11.8182C656.836 11.5914 656.64 11.3986 656.412 11.2526C656.183 11.1066 655.926 11.0107 655.658 10.9712C655.39 10.9317 655.116 10.9494 654.855 11.0233C654.594 11.0972 654.352 11.2255 654.144 11.3998C653.936 11.5741 653.768 11.7905 653.65 12.0346C653.532 12.2788 653.467 12.5452 653.459 12.8163Z" fill="#455A64"/>
<path d="M231.085 79.4479C229.875 83.0057 229.748 86.8421 230.719 90.4721C231.691 94.1021 233.716 97.3626 236.541 99.8413C239.365 102.32 242.86 103.905 246.586 104.397C250.311 104.889 254.099 104.266 257.469 102.605C260.84 100.944 263.643 98.3213 265.523 95.0678C267.403 91.8143 268.276 88.0764 268.032 84.3267C267.788 80.577 266.437 76.984 264.15 74.0019C261.864 71.0199 258.745 68.7828 255.187 67.5736C250.416 65.9567 245.199 66.2989 240.68 68.5252C236.161 70.7515 232.71 74.6798 231.085 79.4479Z" fill="url(#paint14_linear_1683_950)"/>
<path d="M259.819 90.9009C258.95 93.4096 257.289 95.5675 255.086 97.0486C253.595 98.1256 251.868 98.8296 250.05 99.1016C248.231 99.3735 246.374 99.2055 244.633 98.6117C242.893 98.0178 241.32 97.0154 240.047 95.6884C238.774 94.3614 237.838 92.7486 237.317 90.9851C236.474 88.4712 236.474 85.7512 237.317 83.2373L259.819 90.9009Z" fill="#455A64"/>
<path d="M255.086 97.049C253.596 98.1259 251.869 98.8299 250.05 99.1019C248.231 99.3738 246.374 99.2058 244.633 98.612C242.893 98.0181 241.32 97.0157 240.047 95.6887C238.774 94.3617 237.838 92.7489 237.317 90.9854C240.478 89.4774 244.103 89.2599 247.423 90.3791C250.757 91.5045 253.511 93.9018 255.086 97.049Z" fill="#F28F8F"/>
<path d="M256.737 81.9239C256.666 82.2889 256.702 82.6665 256.84 83.0117C256.978 83.3568 257.213 83.6549 257.516 83.8704C257.819 84.0859 258.177 84.2096 258.549 84.2268C258.92 84.244 259.289 84.154 259.61 83.9675C259.932 83.7809 260.193 83.5058 260.362 83.1749C260.532 82.844 260.603 82.4713 260.566 82.1013C260.529 81.7313 260.387 81.3797 260.156 81.0884C259.925 80.7971 259.615 80.5784 259.263 80.4585C258.734 80.3196 258.171 80.3957 257.698 80.6703C257.224 80.9448 256.879 81.3955 256.737 81.9239Z" fill="#455A64"/>
<path d="M241.612 77.0555C241.544 77.4172 241.582 77.7905 241.721 78.1312C241.86 78.4719 242.093 78.7655 242.394 78.9772C242.695 79.1888 243.05 79.3096 243.418 79.3252C243.785 79.3408 244.15 79.2504 244.467 79.0649C244.785 78.8795 245.043 78.6066 245.21 78.2789C245.377 77.9512 245.446 77.5824 245.41 77.2164C245.373 76.8504 245.233 76.5025 245.004 76.2142C244.776 75.9259 244.469 75.7093 244.121 75.5902C243.594 75.4563 243.036 75.5349 242.566 75.809C242.097 76.0832 241.754 76.5308 241.612 77.0555Z" fill="#455A64"/>
<defs>
<linearGradient id="paint0_linear_1683_950" x1="512.8" y1="116.828" x2="512.8" y2="167.587" gradientUnits="userSpaceOnUse">
<stop stop-color="#FD0091"/>
<stop offset="0.0001" stop-color="#FD0091"/>
<stop offset="1" stop-color="#FF7732"/>
</linearGradient>
<linearGradient id="paint1_linear_1683_950" x1="509.878" y1="130.254" x2="509.878" y2="170.652" gradientUnits="userSpaceOnUse">
<stop stop-color="#FD0091"/>
<stop offset="0.0001" stop-color="#FD0091"/>
<stop offset="1" stop-color="#FF7732"/>
</linearGradient>
<linearGradient id="paint2_linear_1683_950" x1="272.333" y1="204.708" x2="272.333" y2="594.425" gradientUnits="userSpaceOnUse">
<stop stop-color="#FD0091" stop-opacity="0.09"/>
<stop offset="1" stop-color="#FF4DB3"/>
</linearGradient>
<linearGradient id="paint3_linear_1683_950" x1="310.119" y1="205.061" x2="310.119" y2="277.121" gradientUnits="userSpaceOnUse">
<stop stop-color="#FD0091" stop-opacity="0.09"/>
<stop offset="1" stop-color="#FF4DB3"/>
</linearGradient>
<linearGradient id="paint4_linear_1683_950" x1="397.949" y1="203.899" x2="397.949" y2="420.581" gradientUnits="userSpaceOnUse">
<stop stop-color="#FD0091"/>
<stop offset="0.0001" stop-color="#FD0091"/>
<stop offset="1" stop-color="#FF7732"/>
</linearGradient>
<linearGradient id="paint5_linear_1683_950" x1="442.128" y1="204.793" x2="442.128" y2="274.053" gradientUnits="userSpaceOnUse">
<stop stop-color="#FD0091"/>
<stop offset="0.0001" stop-color="#FD0091"/>
<stop offset="1" stop-color="#FF7732"/>
</linearGradient>
<linearGradient id="paint6_linear_1683_950" x1="405.384" y1="184.295" x2="405.384" y2="245.748" gradientUnits="userSpaceOnUse">
<stop stop-color="#FD0091"/>
<stop offset="0.0001" stop-color="#FD0091"/>
<stop offset="1" stop-color="#FF7732"/>
</linearGradient>
<linearGradient id="paint7_linear_1683_950" x1="404.258" y1="177.154" x2="404.258" y2="214.243" gradientUnits="userSpaceOnUse">
<stop stop-color="#FD0091"/>
<stop offset="0.0001" stop-color="#FD0091"/>
<stop offset="1" stop-color="#FF7732"/>
</linearGradient>
<linearGradient id="paint8_linear_1683_950" x1="404.294" y1="119.182" x2="404.294" y2="207.875" gradientUnits="userSpaceOnUse">
<stop stop-color="#FD0091"/>
<stop offset="0.0001" stop-color="#FD0091"/>
<stop offset="1" stop-color="#FF7732"/>
</linearGradient>
<linearGradient id="paint9_linear_1683_950" x1="566.393" y1="47.7822" x2="566.393" y2="72.929" gradientUnits="userSpaceOnUse">
<stop stop-color="#FD0091"/>
<stop offset="0.0001" stop-color="#FD0091"/>
<stop offset="1" stop-color="#FF7732"/>
</linearGradient>
<linearGradient id="paint10_linear_1683_950" x1="351.186" y1="79.9126" x2="351.186" y2="119.332" gradientUnits="userSpaceOnUse">
<stop stop-color="#FD0091"/>
<stop offset="0.0001" stop-color="#FD0091"/>
<stop offset="1" stop-color="#FF7732"/>
</linearGradient>
<linearGradient id="paint11_linear_1683_950" x1="148.919" y1="12.2417" x2="148.919" y2="43.521" gradientUnits="userSpaceOnUse">
<stop stop-color="#FD0091"/>
<stop offset="0.0001" stop-color="#FD0091"/>
<stop offset="1" stop-color="#FF7732"/>
</linearGradient>
<linearGradient id="paint12_linear_1683_950" x1="458.365" y1="31.647" x2="458.365" y2="80.4584" gradientUnits="userSpaceOnUse">
<stop stop-color="#FD0091"/>
<stop offset="0.0001" stop-color="#FD0091"/>
<stop offset="1" stop-color="#FF7732"/>
</linearGradient>
<linearGradient id="paint13_linear_1683_950" x1="662.347" y1="0.874023" x2="662.347" y2="38.9058" gradientUnits="userSpaceOnUse">
<stop stop-color="#FD0091"/>
<stop offset="0.0001" stop-color="#FD0091"/>
<stop offset="1" stop-color="#FF7732"/>
</linearGradient>
<linearGradient id="paint14_linear_1683_950" x1="249.073" y1="66.5674" x2="249.073" y2="104.561" gradientUnits="userSpaceOnUse">
<stop stop-color="#FD0091"/>
<stop offset="0.0001" stop-color="#FD0091"/>
<stop offset="1" stop-color="#FF7732"/>
</linearGradient>
</defs>
</svg>
