<svg width="460" height="471" viewBox="0 0 460 471" fill="none" xmlns="http://www.w3.org/2000/svg">
<path d="M267.224 403.203L261.56 397.761C261.174 397.392 260.867 396.952 260.658 396.469C260.448 395.985 260.341 395.466 260.341 394.942C260.341 394.418 260.448 393.899 260.658 393.416C260.867 392.932 261.174 392.492 261.56 392.123C261.945 391.752 262.402 391.457 262.906 391.256C263.41 391.055 263.95 390.951 264.495 390.951C265.04 390.951 265.58 391.055 266.084 391.256C266.588 391.457 267.045 391.752 267.43 392.123L273.146 397.597C273.532 397.967 273.839 398.406 274.048 398.89C274.257 399.373 274.365 399.892 274.365 400.416C274.365 400.94 274.257 401.459 274.048 401.943C273.839 402.426 273.532 402.866 273.146 403.235C272.758 403.612 272.295 403.91 271.786 404.113C271.276 404.316 270.729 404.418 270.178 404.415C269.626 404.412 269.081 404.303 268.574 404.095C268.067 403.887 267.608 403.583 267.224 403.203Z" fill="url(#paint0_linear_1070_378)"/>
<path d="M189.875 457.122L186.281 450.25C185.792 449.303 185.711 448.209 186.058 447.206C186.404 446.202 187.148 445.37 188.129 444.891C189.114 444.417 190.255 444.337 191.301 444.67C192.347 445.003 193.213 445.721 193.708 446.667L197.302 453.538C197.796 454.484 197.878 455.58 197.532 456.585C197.185 457.59 196.438 458.421 195.454 458.897C194.469 459.372 193.328 459.451 192.282 459.118C191.236 458.785 190.37 458.067 189.875 457.122Z" fill="url(#paint1_linear_1070_378)"/>
<path d="M239.451 387.849L235.19 387.257C234.103 387.106 233.122 386.547 232.465 385.703C231.807 384.858 231.525 383.797 231.681 382.753C231.757 382.234 231.938 381.735 232.215 381.284C232.492 380.833 232.858 380.439 233.294 380.125C233.73 379.81 234.226 379.581 234.754 379.451C235.281 379.321 235.831 379.292 236.37 379.366L240.631 379.942C241.723 380.092 242.707 380.653 243.369 381.501C244.03 382.349 244.313 383.414 244.157 384.462C244 385.511 243.416 386.457 242.534 387.092C241.651 387.727 240.542 387.999 239.451 387.849Z" fill="url(#paint2_linear_1070_378)"/>
<path d="M273.248 441.817L273.864 437.724C274.021 436.679 274.603 435.736 275.481 435.101C276.36 434.466 277.464 434.192 278.553 434.337C279.645 434.488 280.629 435.049 281.29 435.897C281.951 436.744 282.235 437.81 282.079 438.858L281.462 442.951C281.306 443.996 280.724 444.939 279.846 445.574C278.967 446.209 277.862 446.483 276.774 446.338C275.682 446.187 274.698 445.626 274.036 444.779C273.375 443.931 273.092 442.866 273.248 441.817Z" fill="url(#paint3_linear_1070_378)"/>
<path d="M181.935 433.647V428.633C181.935 426.672 183.589 425.082 185.631 425.082H186.538C188.579 425.082 190.234 426.672 190.234 428.633V433.647C190.234 435.608 188.579 437.198 186.538 437.198H185.631C183.589 437.198 181.935 435.608 181.935 433.647Z" fill="url(#paint4_linear_1070_378)"/>
<path d="M247.168 476.503L243.01 477.571C242.48 477.715 241.925 477.756 241.378 477.691C240.831 477.626 240.303 477.457 239.824 477.194C239.346 476.931 238.928 476.578 238.593 476.158C238.259 475.737 238.015 475.256 237.876 474.744C237.729 474.235 237.687 473.704 237.755 473.18C237.822 472.656 237.997 472.15 238.269 471.692C238.541 471.233 238.905 470.831 239.34 470.508C239.775 470.186 240.272 469.949 240.802 469.812L244.961 468.744C245.491 468.6 246.046 468.559 246.593 468.624C247.14 468.688 247.668 468.857 248.146 469.121C248.625 469.384 249.043 469.736 249.378 470.157C249.712 470.578 249.956 471.059 250.095 471.571C250.242 472.079 250.284 472.611 250.216 473.135C250.149 473.659 249.974 474.164 249.702 474.623C249.43 475.082 249.066 475.484 248.631 475.806C248.196 476.129 247.699 476.366 247.168 476.503Z" fill="url(#paint5_linear_1070_378)"/>
<path d="M232.777 475.417C206.323 475.417 184.878 454.817 184.878 429.405C184.878 403.994 206.323 383.394 232.777 383.394C259.23 383.394 280.675 403.994 280.675 429.405C280.675 454.817 259.23 475.417 232.777 475.417Z" fill="url(#paint6_linear_1070_378)"/>
<path d="M215.356 402.101C215.215 404.306 215.815 406.496 217.067 408.348C218.354 410.252 220.159 411.782 222.287 412.77C224.466 413.826 226.986 414.032 229.32 413.345C231.533 412.668 233.428 411.266 234.676 409.384C232.975 410.6 231.009 411.432 228.926 411.817C227.953 411.98 226.957 411.98 225.983 411.817C225.013 411.661 224.073 411.368 223.194 410.945C222.749 410.732 222.287 410.502 221.859 410.255C221.431 410.008 221.003 409.729 220.61 409.417C219.798 408.842 219.052 408.186 218.385 407.46C217.014 405.885 215.985 404.063 215.356 402.101Z" fill="#C7C7C7"/>
<path d="M232.571 404.748C232.786 403.218 232.435 401.664 231.578 400.359C230.713 398.997 229.46 397.902 227.967 397.202C226.414 396.46 224.618 396.336 222.97 396.857C221.427 397.357 220.145 398.411 219.394 399.8C220.608 399.083 221.957 398.602 223.364 398.386C224.628 398.242 225.907 398.459 227.043 399.011C229.56 400.202 231.529 402.245 232.571 404.748Z" fill="#C7C7C7"/>
<path d="M248.794 436.359C248.205 437.761 248.163 439.319 248.674 440.748C249.181 442.23 250.149 443.527 251.446 444.464C252.105 444.961 252.861 445.326 253.669 445.538C254.478 445.75 255.322 445.804 256.152 445.696C257.719 445.49 259.151 444.735 260.174 443.576C258.854 443.987 257.47 444.17 256.084 444.118C254.838 444.043 253.645 443.607 252.661 442.869C251.631 442.125 250.764 441.192 250.111 440.124C249.448 438.952 249.003 437.678 248.794 436.359Z" fill="#C7C7C7"/>
<path d="M258.719 441.587C259.246 440.638 259.363 439.527 259.045 438.496C258.717 437.422 258.039 436.477 257.111 435.8C256.632 435.44 256.08 435.181 255.491 435.039C254.901 434.898 254.287 434.877 253.688 434.978C253.144 435.064 252.622 435.254 252.155 435.536C251.688 435.819 251.284 436.188 250.967 436.622C251.892 436.449 252.838 436.41 253.774 436.507C254.531 436.608 255.247 436.904 255.845 437.362C257.261 438.427 258.272 439.913 258.719 441.587Z" fill="#C7C7C7"/>
<path d="M265.975 426.118C265.55 426.496 265.21 426.954 264.975 427.462C264.739 427.971 264.614 428.52 264.606 429.077C264.592 429.684 264.704 430.287 264.936 430.852C265.169 431.416 265.516 431.931 265.958 432.364C266.413 432.8 266.966 433.13 267.574 433.329C268.182 433.528 268.829 433.592 269.466 433.515C270.602 433.39 271.662 432.904 272.478 432.134C271.481 432.158 270.484 432.092 269.5 431.937C268.725 431.824 268.006 431.479 267.447 430.951C266.877 430.388 266.46 429.699 266.232 428.945C265.976 428.024 265.889 427.067 265.975 426.118Z" fill="#C7C7C7"/>
<path d="M271.913 430.589C272.26 430.36 272.547 430.056 272.752 429.703C272.957 429.349 273.074 428.955 273.094 428.551C273.122 428.107 273.053 427.663 272.891 427.247C272.729 426.83 272.477 426.451 272.153 426.135C271.816 425.808 271.402 425.564 270.946 425.424C270.491 425.284 270.007 425.251 269.535 425.329C269.127 425.388 268.735 425.524 268.382 425.73C268.029 425.936 267.723 426.208 267.481 426.529C268.162 426.616 268.836 426.742 269.501 426.907C269.942 427.016 270.344 427.237 270.664 427.548C271.011 427.882 271.284 428.279 271.469 428.715C271.705 429.318 271.855 429.948 271.913 430.589Z" fill="#C7C7C7"/>
<path d="M200.348 412.49C200.289 413.042 200.349 413.599 200.523 414.127C200.696 414.656 200.98 415.145 201.357 415.564C201.759 416.036 202.255 416.424 202.817 416.707C203.378 416.989 203.994 417.16 204.626 417.208C205.268 417.245 205.911 417.139 206.504 416.9C207.097 416.66 207.626 416.294 208.048 415.827C208.816 415.012 209.27 413.967 209.332 412.868C208.607 413.528 207.816 414.117 206.97 414.627C206.313 415.031 205.542 415.232 204.763 415.203C203.947 415.154 203.157 414.905 202.47 414.479C201.651 413.936 200.933 413.263 200.348 412.49Z" fill="#C7C7C7"/>
<path d="M207.86 412.047C207.962 411.653 207.969 411.243 207.88 410.847C207.791 410.451 207.609 410.079 207.347 409.762C207.064 409.409 206.704 409.119 206.294 408.912C205.883 408.705 205.431 408.585 204.968 408.562C204.49 408.534 204.013 408.616 203.575 408.802C203.137 408.988 202.752 409.272 202.452 409.63C202.187 409.933 201.988 410.284 201.868 410.663C201.747 411.041 201.707 411.439 201.751 411.833C202.296 411.46 202.868 411.125 203.462 410.83C203.868 410.63 204.324 410.539 204.78 410.567C205.268 410.596 205.745 410.719 206.183 410.929C206.802 411.21 207.369 411.587 207.86 412.047Z" fill="#C7C7C7"/>
<path d="M227.197 443.757C225.283 444.587 223.156 444.852 221.084 444.52C219.013 444.188 217.091 443.272 215.561 441.889C214.032 440.507 212.964 438.719 212.493 436.753C212.022 434.787 212.169 432.731 212.915 430.845C213.661 428.96 214.974 427.329 216.685 426.16C218.397 424.991 220.432 424.337 222.531 424.279C224.63 424.222 226.7 424.765 228.478 425.838C230.256 426.912 231.663 428.468 232.52 430.31C233.665 432.772 233.747 435.569 232.75 438.089C231.752 440.61 229.756 442.647 227.197 443.757Z" fill="url(#paint7_linear_1070_378)"/>
<path d="M217.906 429.652C216.525 430.242 215.31 431.138 214.361 432.267C213.412 433.396 212.756 434.725 212.447 436.146C212.156 434.462 212.313 432.734 212.901 431.124C213.489 429.513 214.49 428.07 215.812 426.93C217.134 425.789 218.734 424.986 220.464 424.596C222.194 424.206 223.999 424.241 225.711 424.698C227.423 425.155 228.988 426.019 230.261 427.21C231.533 428.402 232.473 429.882 232.993 431.514C233.513 433.146 233.597 434.878 233.236 436.55C232.875 438.221 232.081 439.778 230.928 441.077C231.522 439.377 231.588 437.547 231.118 435.811C230.649 434.075 229.665 432.507 228.285 431.299C226.906 430.09 225.19 429.293 223.347 429.003C221.505 428.714 219.614 428.945 217.906 429.669V429.652Z" fill="#C7C7C7"/>
<path d="M208.237 436.146C208.184 438.854 209.002 441.512 210.581 443.757C212.166 446.053 214.365 447.899 216.947 449.099C219.597 450.381 222.654 450.651 225.504 449.855C228.215 449.052 230.562 447.389 232.16 445.137C230.103 446.717 227.688 447.809 225.11 448.327C224.499 448.427 223.881 448.488 223.262 448.507C222.643 448.514 222.025 448.47 221.414 448.376C220.187 448.201 218.997 447.84 217.888 447.307C217.324 447.028 216.759 446.732 216.177 446.42C215.595 446.107 215.099 445.762 214.62 445.368C213.604 444.627 212.68 443.778 211.865 442.836C210.196 440.865 208.961 438.589 208.237 436.146Z" fill="#C7C7C7"/>
<path d="M196.634 440.025C195.876 440.197 195.081 440.15 194.35 439.889C193.619 439.629 192.985 439.166 192.527 438.56C192.069 437.954 191.808 437.232 191.776 436.484C191.745 435.735 191.944 434.995 192.349 434.355C192.754 433.716 193.347 433.205 194.054 432.889C194.76 432.572 195.548 432.463 196.319 432.575C197.09 432.687 197.808 433.016 198.385 433.52C198.962 434.023 199.371 434.68 199.561 435.406C199.688 435.894 199.713 436.401 199.635 436.899C199.556 437.396 199.375 437.874 199.103 438.303C198.831 438.733 198.472 439.107 198.049 439.402C197.625 439.698 197.144 439.91 196.634 440.025Z" fill="url(#paint8_linear_1070_378)"/>
<path d="M194.29 434.222C193.74 434.343 193.228 434.587 192.796 434.936C192.364 435.285 192.026 435.728 191.808 436.228C191.828 435.594 192.013 434.974 192.347 434.427C192.681 433.88 193.152 433.422 193.719 433.095C194.285 432.769 194.928 432.585 195.588 432.56C196.248 432.536 196.904 432.671 197.495 432.953C198.087 433.236 198.594 433.656 198.972 434.177C199.349 434.698 199.585 435.301 199.656 435.932C199.727 436.562 199.631 437.2 199.378 437.786C199.126 438.372 198.723 438.888 198.208 439.285C198.55 438.704 198.708 438.039 198.664 437.373C198.621 436.706 198.377 436.066 197.962 435.53C197.547 434.995 196.979 434.586 196.328 434.354C195.676 434.121 194.968 434.076 194.29 434.222Z" fill="#C7C7C7"/>
<path d="M190.268 435.948C189.997 436.934 190.063 437.977 190.456 438.924C190.866 439.898 191.539 440.75 192.407 441.39C193.282 442.042 194.382 442.351 195.484 442.253C196.587 442.155 197.61 441.659 198.345 440.864C197.462 441.261 196.497 441.463 195.522 441.455C194.619 441.426 193.75 441.121 193.04 440.584C192.278 440.029 191.64 439.333 191.164 438.537C190.688 437.74 190.383 436.86 190.268 435.948Z" fill="#C7C7C7"/>
<path d="M223.809 464.65C222.696 464.714 221.588 464.459 220.627 463.917C219.665 463.375 218.892 462.571 218.407 461.607C217.921 460.643 217.745 459.562 217.899 458.501C218.054 457.441 218.533 456.448 219.276 455.649C220.018 454.85 220.991 454.281 222.071 454.014C223.151 453.747 224.289 453.794 225.34 454.149C226.392 454.504 227.311 455.151 227.98 456.008C228.649 456.865 229.037 457.893 229.097 458.962C229.176 460.389 228.665 461.788 227.674 462.854C226.683 463.92 225.294 464.565 223.809 464.65Z" fill="url(#paint9_linear_1070_378)"/>
<path d="M221.995 455.971C221.197 456.01 220.421 456.232 219.73 456.618C219.04 457.004 218.455 457.543 218.025 458.19C218.215 457.306 218.633 456.482 219.242 455.794C219.85 455.106 220.63 454.576 221.507 454.254C222.385 453.932 223.333 453.827 224.264 453.949C225.195 454.071 226.079 454.417 226.835 454.954C227.59 455.491 228.193 456.202 228.586 457.022C228.98 457.841 229.153 458.743 229.089 459.643C229.024 460.544 228.725 461.415 228.218 462.175C227.711 462.935 227.013 463.56 226.188 463.993C226.806 463.256 227.19 462.364 227.295 461.423C227.4 460.482 227.22 459.532 226.778 458.686C226.336 457.84 225.65 457.134 224.802 456.653C223.954 456.172 222.98 455.935 221.995 455.971Z" fill="#C7C7C7"/>
<path d="M215.92 457.434C215.373 458.762 215.266 460.22 215.612 461.609C215.945 463.03 216.666 464.341 217.7 465.406C218.749 466.518 220.199 467.206 221.756 467.33C223.25 467.422 224.735 467.041 225.982 466.245C224.643 466.692 223.212 466.827 221.807 466.639C220.489 466.407 219.287 465.766 218.384 464.815C217.459 463.872 216.754 462.751 216.314 461.527C215.881 460.205 215.747 458.809 215.92 457.434Z" fill="#C7C7C7"/>
<path d="M248.863 412.523C251.395 416.255 257.008 417.044 261.389 414.299C265.77 411.553 267.259 406.293 264.726 402.578C262.194 398.863 256.581 398.057 252.217 400.802C247.853 403.548 246.33 408.808 248.863 412.523Z" fill="url(#paint10_linear_1070_378)"/>
<path d="M262.792 406.063C263.454 407.068 263.839 408.219 263.911 409.407C263.983 410.594 263.739 411.78 263.203 412.852C264.636 411.558 265.567 409.834 265.844 407.963C266.121 406.093 265.727 404.188 264.726 402.562C262.193 398.846 256.58 398.057 252.217 400.803C250.75 401.672 249.554 402.905 248.753 404.371C247.952 405.837 247.576 407.483 247.665 409.137C248.323 407.202 249.66 405.546 251.447 404.452C253.177 403.229 255.34 402.713 257.465 403.014C259.59 403.316 261.504 404.412 262.792 406.063Z" fill="#C7C7C7"/>
<path d="M245.765 406.375C245.117 407.338 244.674 408.415 244.462 409.544C244.251 410.673 244.275 411.831 244.533 412.951C244.785 414.146 245.318 415.27 246.09 416.238C246.849 417.191 247.776 418.009 248.828 418.655C249.926 419.243 251.126 419.634 252.37 419.806C253.572 419.946 254.789 419.913 255.981 419.707C258.279 419.314 260.448 418.407 262.313 417.06C260.194 417.655 258.013 418.019 255.81 418.145C253.762 418.287 251.714 417.865 249.906 416.929C249.049 416.424 248.281 415.791 247.63 415.055C246.962 414.325 246.44 413.484 246.09 412.572C245.381 410.576 245.269 408.43 245.765 406.375Z" fill="#C7C7C7"/>
<path d="M119.489 271.272C90.4902 266.551 70.9669 240.142 75.882 212.286C80.7971 184.43 108.289 165.675 137.288 170.397C166.286 175.118 185.809 201.528 180.894 229.384C175.979 257.24 148.487 275.994 119.489 271.272Z" fill="url(#paint11_linear_1070_378)"/>
<g opacity="0.1">
<path d="M180.308 209.407C173.86 208.199 167.255 207.966 160.731 208.716C149.266 209.883 121.834 219.385 106.963 220.223C86.0681 221.308 79.0005 213.96 76.4678 209.538C78.0127 203.128 80.8244 197.062 84.7504 191.669C88.5837 195.532 101.281 207.122 133.642 201.401C150.344 198.442 161.775 187.971 165.643 184.42C172.927 191.224 178.018 199.898 180.308 209.407Z" fill="black"/>
<path d="M175.91 243.994C170.38 254.452 161.28 262.769 150.133 267.557C138.985 272.344 126.464 273.311 114.664 270.296C116.462 267.48 118.611 264.885 121.064 262.57C131.742 252.821 148.821 250.98 155.426 250.931C162.897 251.036 170.16 248.576 175.91 243.994Z" fill="black"/>
<path d="M181.54 217.577C181.54 218.037 181.54 218.497 181.54 218.974C181.54 219.451 181.54 219.812 181.54 220.24C181.54 221.193 181.54 222.147 181.54 223.084C181.54 224.021 181.455 224.727 181.369 225.632L181.266 226.569C181.266 226.93 181.181 227.275 181.13 227.621L180.976 228.673C180.976 229.084 180.839 229.511 180.753 229.922C180.668 230.333 180.599 230.744 180.514 231.155C180.428 231.566 180.342 231.862 180.274 232.207C180.086 232.98 179.897 233.736 179.675 234.492C177.313 236.925 173.241 238.667 166.327 239.654C156.059 241.117 142.472 238.487 122.912 241.84C110.936 243.984 99.8018 249.244 90.7226 257.046C82.9387 249.586 77.76 239.987 75.9029 229.577C78.7778 227.851 89.0627 223.906 118.873 228.804C128.235 230.454 137.748 231.176 147.263 230.958C169.767 230.119 178.22 222.032 181.181 217.708L181.54 217.577Z" fill="black"/>
</g>
<g opacity="0.1">
<path d="M108.863 197.867C109.102 200.135 106.518 202.223 103.096 202.552C99.6732 202.88 96.7127 201.319 96.4731 199.05C96.2335 196.782 98.8176 194.694 102.24 194.365C105.663 194.036 108.657 195.615 108.863 197.867Z" fill="black"/>
<path d="M97.6025 208.125C97.7394 209.391 96.1821 210.591 94.1799 210.788C92.1777 210.985 90.3466 210.114 90.2097 208.832C90.0728 207.549 91.6472 206.366 93.6323 206.169C95.6174 205.971 97.4656 206.908 97.6025 208.125Z" fill="black"/>
<path d="M165.592 243.533C165.797 245.473 163.521 247.265 160.458 247.561C157.395 247.857 154.879 246.509 154.674 244.569C154.468 242.629 156.744 240.854 159.807 240.558C162.871 240.262 165.335 241.61 165.592 243.533Z" fill="black"/>
<path d="M157.942 249.649C158.045 250.684 156.984 251.621 155.581 251.753C154.989 251.877 154.37 251.775 153.856 251.468C153.341 251.161 152.972 250.674 152.825 250.109C152.723 249.073 153.767 248.136 155.187 248.005C155.778 247.885 156.395 247.989 156.908 248.295C157.422 248.602 157.792 249.086 157.942 249.649Z" fill="black"/>
<path d="M154.143 246.361C154.143 246.969 153.527 247.544 152.637 247.627C151.748 247.709 150.926 247.281 150.926 246.673C150.926 246.065 151.542 245.473 152.432 245.391C153.322 245.309 154.075 245.67 154.143 246.361Z" fill="black"/>
<path d="M125.086 261.78C125.257 263.507 123.374 265.068 121.064 265.315C118.754 265.561 116.581 264.328 116.409 262.602C116.238 260.876 118.018 259.315 120.414 259.068C122.81 258.821 124.897 260.054 125.086 261.78Z" fill="black"/>
<path d="M122.673 255.09C122.754 255.494 122.706 255.913 122.535 256.29C122.363 256.668 122.077 256.987 121.713 257.205C121.35 257.423 120.926 257.53 120.498 257.513C120.069 257.495 119.657 257.353 119.314 257.105C118.971 256.858 118.715 256.516 118.578 256.126C118.441 255.736 118.431 255.315 118.548 254.919C118.665 254.523 118.905 254.17 119.235 253.907C119.565 253.644 119.97 253.483 120.397 253.446C120.659 253.409 120.926 253.422 121.182 253.485C121.439 253.548 121.68 253.659 121.892 253.812C122.104 253.964 122.282 254.156 122.416 254.376C122.55 254.595 122.637 254.838 122.673 255.09Z" fill="black"/>
</g>
<path d="M181.609 223.084C166.252 229.266 150.533 234.585 134.532 239.013C118.18 243.681 101.551 247.397 84.7334 250.142C58.722 254.235 40.514 253.742 38.7171 247.857C36.9203 241.972 51.6544 232.191 75.1674 222.328C75.1674 223.528 75.2872 224.744 75.4241 225.961C75.4241 226.404 75.5267 226.865 75.5781 227.325C63.5991 233.259 56.6685 238.701 57.7466 242.284C58.8247 245.868 68.0142 246.936 81.79 245.572C99.0805 243.623 116.157 240.206 132.82 235.363C149.592 230.827 165.912 224.875 181.592 217.577C193.913 211.56 200.998 206.07 199.903 202.371C198.807 198.672 189.977 197.768 176.578 198.985C175.811 197.406 174.954 195.87 174.011 194.382C199.903 190.338 218.504 191.094 220.216 196.88C221.927 202.667 206.406 212.908 181.609 223.084Z" fill="url(#paint12_linear_1070_378)"/>
<g opacity="0.2">
<path d="M181.609 223.084C166.252 229.266 150.533 234.585 134.532 239.013C118.18 243.681 101.551 247.397 84.7334 250.142C58.722 254.235 40.514 253.742 38.7171 247.857C36.9203 241.972 51.6544 232.191 75.1674 222.328C75.1674 223.528 75.2872 224.744 75.4241 225.961C75.4241 226.404 75.5267 226.865 75.5781 227.325C63.5991 233.259 56.6685 238.701 57.7466 242.284C58.8247 245.868 68.0142 246.936 81.79 245.572C99.0805 243.623 116.157 240.206 132.82 235.363C149.592 230.827 165.912 224.875 181.592 217.577C193.913 211.56 200.998 206.07 199.903 202.371C198.807 198.672 189.977 197.768 176.578 198.985C175.811 197.406 174.954 195.87 174.011 194.382C199.903 190.338 218.504 191.094 220.216 196.88C221.927 202.667 206.406 212.908 181.609 223.084Z" fill="black"/>
</g>
<path d="M181.198 227.604C166.15 233.553 150.79 238.749 135.182 243.172C119.686 247.635 103.961 251.333 88.0706 254.251C52.4589 260.679 26.4645 260.268 23.9147 251.95C21.3649 243.632 42.4136 229.922 75.3216 216.771C75.3216 217.56 75.2018 218.415 75.1847 219.155C47.8042 230.662 30.6913 242.3 32.8989 249.418C35.1064 256.536 56.5488 257.342 86.4449 252.41C102.719 249.65 118.81 245.973 134.635 241.396C150.565 236.888 166.205 231.481 181.472 225.204C209.178 213.697 226.582 201.845 224.357 194.661C222.132 187.477 201.272 186.787 171.975 191.488C171.496 190.853 170.999 190.212 170.486 189.565C205.43 183.384 230.791 183.894 233.341 192.097C235.891 200.3 214.517 214.289 181.198 227.604Z" fill="url(#paint13_linear_1070_378)"/>
<path d="M362.988 85.5577C363.535 85.0317 393.654 74.741 417.954 96.2428C440.201 115.969 445.437 149.882 442.169 150.392C438.182 151 428.992 134.249 409.261 123.728C402.279 119.997 390.437 122.084 390.437 122.084L362.988 85.5577Z" fill="url(#paint14_linear_1070_378)"/>
<path opacity="0.1" d="M390.368 122.035C393.899 121.494 397.483 121.356 401.047 121.624C397.402 112.09 390.574 94.3359 386.142 82.8288C378.309 82.0769 370.4 83.0091 362.988 85.5576L390.368 122.035Z" fill="black"/>
<path d="M310.212 135.219C309.647 135.745 298.233 164.447 320.189 188.234C340.296 210.097 375.446 215.736 376.045 212.612C376.781 208.782 359.514 199.609 348.973 180.458C345.242 173.653 347.621 162.277 347.621 162.277L310.212 135.219Z" fill="url(#paint15_linear_1070_378)"/>
<path opacity="0.1" d="M306.909 157.592L346.97 172.765C346.75 169.268 346.962 165.758 347.603 162.31L310.212 135.252C307.387 142.368 306.258 150.002 306.909 157.592Z" fill="black"/>
<path d="M373.957 177.318L405.239 147.729C405.239 147.729 394.201 108.522 361.704 79.9684C345.69 66.3123 327.649 55.0213 308.175 46.4663C283.721 35.5017 262.792 31.0961 259.147 34.5154C255.502 37.9346 259.678 58.1213 270.561 81.8588C279.075 100.729 290.46 118.28 304.342 133.937C333.4 165.811 373.957 177.318 373.957 177.318Z" fill="#C7C7C7"/>
<path d="M310.315 120.736C313.809 124.166 318.284 126.523 323.174 127.509C328.063 128.495 333.147 128.067 337.783 126.277C342.418 124.488 346.397 121.418 349.217 117.456C352.036 113.494 353.569 108.818 353.622 104.019C353.674 99.2204 352.244 94.5143 349.512 90.4962C346.781 86.478 342.87 83.3283 338.275 81.4454C333.679 79.5625 328.606 79.031 323.696 79.918C318.786 80.8051 314.26 83.0708 310.691 86.4288C305.906 90.9307 303.178 97.074 303.107 103.508C303.037 109.941 305.629 116.139 310.315 120.736Z" fill="#A6A6A6"/>
<path d="M309.082 118.369C312.577 121.799 317.052 124.156 321.941 125.142C326.831 126.128 331.915 125.7 336.55 123.91C341.186 122.121 345.165 119.051 347.984 115.089C350.804 111.127 352.337 106.451 352.389 101.652C352.442 96.8532 351.012 92.1471 348.28 88.129C345.549 84.1109 341.638 80.9612 337.042 79.0783C332.447 77.1954 327.374 76.6639 322.464 77.5509C317.554 78.4379 313.028 80.7037 309.459 84.0617C304.674 88.5636 301.946 94.7069 301.875 101.141C301.805 107.574 304.397 113.771 309.082 118.369Z" fill="url(#paint16_linear_1070_378)"/>
<path d="M314.678 113.208C317.101 115.588 320.205 117.224 323.597 117.91C326.988 118.595 330.515 118.3 333.732 117.06C336.949 115.82 339.71 113.691 341.667 110.944C343.625 108.196 344.69 104.953 344.728 101.623C344.766 98.2942 343.776 95.029 341.883 92.2404C339.989 89.4519 337.277 87.2655 334.09 85.9575C330.903 84.6496 327.383 84.279 323.977 84.8925C320.57 85.506 317.429 87.0761 314.952 89.4043C313.305 90.9489 311.991 92.7903 311.086 94.8232C310.181 96.856 309.702 99.0404 309.676 101.251C309.651 103.462 310.079 105.656 310.938 107.708C311.796 109.759 313.067 111.628 314.678 113.208Z" fill="white"/>
<path d="M314.678 113.208C316.191 114.698 317.978 115.908 319.949 116.775L334.067 116.923C336.068 116.106 337.891 114.935 339.44 113.471C340.57 112.42 341.543 111.225 342.333 109.92L311.855 109.591C312.616 110.917 313.567 112.134 314.678 113.208Z" fill="url(#paint17_linear_1070_378)"/>
<path d="M313.241 91.2289L341.375 91.5248C340.858 90.8514 340.286 90.2192 339.663 89.6344C338.055 88.0523 336.138 86.7904 334.022 85.9208C331.906 85.0512 329.632 84.591 327.33 84.5666C325.029 84.5421 322.745 84.9539 320.609 85.7784C318.473 86.6029 316.528 87.8238 314.884 89.3714C314.283 89.9455 313.734 90.5669 313.241 91.2289Z" fill="url(#paint18_linear_1070_378)"/>
<path d="M310.314 105.86L343.975 106.221C344.127 105.74 344.253 105.252 344.352 104.758L309.955 104.38C310.041 104.873 310.178 105.366 310.314 105.86Z" fill="url(#paint19_linear_1070_378)"/>
<path d="M270.562 81.9741L308.21 46.5816C283.756 35.617 262.827 31.2114 259.182 34.6307C255.537 38.0499 259.678 58.1873 270.562 81.9741Z" fill="url(#paint20_linear_1070_378)"/>
<path d="M297.891 48.8995C298.169 49.1625 298.544 49.3099 298.935 49.3099C299.325 49.3099 299.7 49.1625 299.979 48.8995C300.238 48.634 300.382 48.2824 300.378 47.918C300.375 47.5537 300.225 47.2046 299.96 46.9438C299.695 46.683 299.335 46.5305 298.956 46.5181C298.577 46.5058 298.208 46.6345 297.925 46.8775C297.642 47.1413 297.479 47.5025 297.472 47.8817C297.466 48.2609 297.616 48.627 297.891 48.8995Z" fill="white"/>
<path d="M291.199 55.1953C291.478 55.4583 291.853 55.6057 292.243 55.6057C292.634 55.6057 293.009 55.4583 293.287 55.1953C293.547 54.9298 293.69 54.5782 293.687 54.2139C293.683 53.8495 293.533 53.5005 293.268 53.2397C293.004 52.9788 292.644 52.8263 292.265 52.814C291.886 52.8016 291.516 52.9304 291.234 53.1734C290.95 53.4372 290.787 53.7983 290.781 54.1775C290.774 54.5567 290.925 54.9228 291.199 55.1953Z" fill="white"/>
<path d="M284.508 61.4912C284.787 61.7542 285.162 61.9016 285.552 61.9016C285.943 61.9016 286.318 61.7542 286.596 61.4912C286.856 61.2257 286.999 60.8741 286.996 60.5098C286.992 60.1454 286.842 59.7964 286.577 59.5355C286.312 59.2747 285.953 59.1222 285.574 59.1099C285.195 59.0975 284.825 59.2263 284.543 59.4692C284.259 59.733 284.096 60.0942 284.09 60.4734C284.083 60.8526 284.234 61.2187 284.508 61.4912Z" fill="white"/>
<path d="M277.817 67.7875C278.096 68.0506 278.471 68.198 278.861 68.198C279.252 68.198 279.627 68.0506 279.905 67.7875C280.165 67.5221 280.308 67.1705 280.305 66.8061C280.301 66.4417 280.151 66.0927 279.886 65.8319C279.622 65.5711 279.262 65.4186 278.883 65.4062C278.504 65.3939 278.134 65.5226 277.852 65.7656C277.568 66.0294 277.405 66.3906 277.399 66.7698C277.392 67.1489 277.543 67.515 277.817 67.7875Z" fill="white"/>
<path d="M271.126 74.0834C271.405 74.3464 271.78 74.4938 272.17 74.4938C272.561 74.4938 272.936 74.3464 273.214 74.0834C273.474 73.8179 273.617 73.4663 273.613 73.1019C273.61 72.7376 273.46 72.3885 273.195 72.1277C272.93 71.8669 272.571 71.7144 272.192 71.702C271.813 71.6897 271.443 71.8184 271.16 72.0614C270.877 72.3252 270.714 72.6864 270.708 73.0656C270.701 73.4448 270.852 73.8109 271.126 74.0834Z" fill="white"/>
<path d="M397.179 146.315C397.316 146.447 397.478 146.552 397.657 146.624C397.837 146.695 398.029 146.732 398.223 146.732C398.417 146.732 398.609 146.695 398.788 146.624C398.967 146.552 399.13 146.447 399.267 146.315C399.404 146.185 399.513 146.03 399.587 145.859C399.661 145.689 399.699 145.505 399.699 145.32C399.699 145.135 399.661 144.952 399.587 144.781C399.513 144.611 399.404 144.456 399.267 144.326C399.134 144.184 398.973 144.069 398.793 143.988C398.613 143.907 398.418 143.862 398.22 143.856C398.021 143.849 397.823 143.881 397.638 143.95C397.453 144.019 397.284 144.123 397.142 144.257C397 144.39 396.887 144.549 396.811 144.725C396.735 144.902 396.696 145.091 396.698 145.282C396.7 145.472 396.742 145.661 396.822 145.835C396.901 146.01 397.017 146.168 397.162 146.298L397.179 146.315Z" fill="#A6A6A6"/>
<path d="M390.488 152.66C390.625 152.793 390.787 152.898 390.967 152.969C391.146 153.041 391.338 153.078 391.532 153.078C391.726 153.078 391.918 153.041 392.097 152.969C392.276 152.898 392.439 152.793 392.576 152.66C392.713 152.53 392.822 152.376 392.896 152.205C392.97 152.034 393.009 151.851 393.009 151.666C393.009 151.481 392.97 151.298 392.896 151.127C392.822 150.956 392.713 150.801 392.576 150.671C392.443 150.529 392.282 150.414 392.102 150.333C391.922 150.253 391.727 150.208 391.529 150.201C391.33 150.195 391.133 150.227 390.947 150.296C390.762 150.365 390.593 150.469 390.451 150.602C390.309 150.735 390.196 150.895 390.12 151.071C390.044 151.247 390.005 151.436 390.007 151.627C390.009 151.818 390.051 152.006 390.131 152.181C390.21 152.356 390.326 152.513 390.471 152.644L390.488 152.66Z" fill="#A6A6A6"/>
<path d="M383.797 158.907C384.075 159.17 384.45 159.317 384.841 159.317C385.231 159.317 385.606 159.17 385.885 158.907C386.022 158.776 386.131 158.619 386.206 158.447C386.28 158.275 386.319 158.091 386.319 157.904C386.319 157.718 386.28 157.533 386.206 157.361C386.131 157.189 386.022 157.033 385.885 156.902C385.606 156.638 385.231 156.491 384.841 156.491C384.45 156.491 384.075 156.638 383.797 156.902C383.527 157.171 383.376 157.53 383.376 157.904C383.376 158.278 383.527 158.638 383.797 158.907Z" fill="#A6A6A6"/>
<path d="M377.106 165.203C377.243 165.335 377.405 165.44 377.584 165.512C377.764 165.583 377.956 165.62 378.15 165.62C378.344 165.62 378.536 165.583 378.715 165.512C378.894 165.44 379.057 165.335 379.194 165.203C379.331 165.073 379.44 164.918 379.514 164.747C379.588 164.577 379.626 164.393 379.626 164.208C379.626 164.023 379.588 163.84 379.514 163.669C379.44 163.499 379.331 163.344 379.194 163.214C379.061 163.072 378.9 162.957 378.72 162.876C378.54 162.795 378.345 162.75 378.147 162.744C377.948 162.737 377.75 162.769 377.565 162.838C377.38 162.907 377.211 163.011 377.069 163.145C376.927 163.278 376.814 163.437 376.738 163.613C376.662 163.79 376.623 163.979 376.625 164.17C376.627 164.36 376.669 164.549 376.749 164.724C376.828 164.898 376.944 165.056 377.089 165.186L377.106 165.203Z" fill="#A6A6A6"/>
<path d="M370.414 171.499C370.551 171.631 370.714 171.736 370.893 171.808C371.072 171.879 371.264 171.916 371.458 171.916C371.652 171.916 371.844 171.879 372.024 171.808C372.203 171.736 372.365 171.631 372.502 171.499C372.639 171.369 372.748 171.214 372.822 171.044C372.897 170.873 372.935 170.69 372.935 170.505C372.935 170.32 372.897 170.136 372.822 169.966C372.748 169.795 372.639 169.64 372.502 169.51C372.224 169.247 371.849 169.1 371.458 169.1C371.068 169.1 370.693 169.247 370.414 169.51C370.15 169.779 370.002 170.135 370.002 170.505C370.002 170.875 370.15 171.23 370.414 171.499Z" fill="#A6A6A6"/>
<path opacity="0.2" d="M260.824 33.7759C280.23 36.8499 312.933 51.2173 345.943 81.2015C370.312 103.344 386.09 139.723 393.312 159.022L405.291 147.795C405.291 147.795 394.236 108.588 361.738 80.0343C345.724 66.3783 327.684 55.0873 308.21 46.5323C286.254 36.7019 267.173 32.1484 260.824 33.7759Z" fill="white"/>
<path d="M386.056 183.565L411.503 159.614L403.477 149.455L375.651 175.642L386.056 183.565Z" fill="url(#paint21_linear_1070_378)"/>
<path opacity="0.1" d="M375.651 175.642L380.717 179.505L406.557 153.351L403.477 149.471L375.651 175.642Z" fill="black"/>
<path opacity="0.6" d="M391.652 178.206C401.754 185.994 410.049 195.726 416.003 206.777C422.019 217.967 424.814 230.498 424.098 243.073C423.665 249.437 422.246 255.704 419.888 261.665C417.485 267.736 414.176 273.44 410.065 278.597C405.873 283.86 400.99 288.578 395.536 292.636C389.998 296.765 384.028 300.329 377.722 303.272C384.426 301.024 390.867 298.109 396.94 294.576C403.113 290.989 408.778 286.651 413.796 281.671C424.176 271.373 431.154 258.355 433.852 244.257C436.425 229.809 434.936 214.963 429.54 201.253C424.108 187.433 415.719 174.86 404.914 164.348L391.652 178.206Z" fill="url(#paint22_linear_1070_378)"/>
<path d="M408.337 195.483L412.444 196.601L412.974 200.924L414.309 196.765L418.57 196.404L414.497 195.056L413.933 190.962L412.581 194.875L408.337 195.483Z" fill="white"/>
<path d="M416.055 276.181L418.365 276.805L418.656 279.222L419.409 276.904L421.788 276.69L419.512 275.934L419.186 273.649L418.451 275.835L416.055 276.181Z" fill="white"/>
<path d="M419.306 255.747L421.599 256.372L421.89 258.789L422.643 256.454L425.022 256.257L422.746 255.501L422.438 253.216L421.685 255.402L419.306 255.747Z" fill="white"/>
<path d="M412.7 182.562L414.993 183.187L415.284 185.603L416.037 183.286L418.416 183.072L416.14 182.316L415.815 180.031L415.079 182.217L412.7 182.562Z" fill="white"/>
<path d="M410.048 280.882C410.229 280.897 410.397 280.981 410.514 281.115C410.631 281.25 410.688 281.423 410.672 281.597C410.656 281.772 410.569 281.933 410.429 282.045C410.29 282.158 410.109 282.213 409.928 282.197C409.746 282.182 409.578 282.098 409.461 281.964C409.344 281.83 409.287 281.657 409.303 281.482C409.319 281.308 409.406 281.147 409.546 281.034C409.686 280.922 409.866 280.867 410.048 280.882Z" fill="white"/>
<path d="M400.431 178.272C400.593 178.307 400.736 178.397 400.834 178.525C400.932 178.654 400.978 178.813 400.963 178.971C400.948 179.13 400.874 179.279 400.754 179.389C400.634 179.499 400.477 179.564 400.311 179.57C400.149 179.536 400.005 179.445 399.907 179.317C399.81 179.188 399.764 179.029 399.778 178.871C399.793 178.712 399.867 178.563 399.987 178.453C400.107 178.343 400.265 178.279 400.431 178.272Z" fill="white"/>
<path d="M431.319 239.572C431.501 239.589 431.667 239.675 431.783 239.811C431.899 239.946 431.953 240.121 431.935 240.295C431.917 240.469 431.827 240.63 431.686 240.741C431.545 240.852 431.364 240.904 431.182 240.887C431.001 240.869 430.834 240.783 430.718 240.648C430.603 240.512 430.548 240.338 430.566 240.163C430.584 239.989 430.674 239.829 430.815 239.718C430.956 239.607 431.137 239.554 431.319 239.572Z" fill="white"/>
<path d="M411.571 277.594C411.698 277.594 411.82 277.643 411.91 277.729C412 277.816 412.05 277.933 412.05 278.055C412.05 278.177 412 278.294 411.91 278.38C411.82 278.467 411.698 278.515 411.571 278.515C411.444 278.515 411.322 278.467 411.232 278.38C411.142 278.294 411.092 278.177 411.092 278.055C411.092 277.933 411.142 277.816 411.232 277.729C411.322 277.643 411.444 277.594 411.571 277.594Z" fill="white"/>
<path d="M433.749 216.853C433.876 216.853 433.998 216.902 434.088 216.988C434.178 217.075 434.229 217.192 434.229 217.314C434.229 217.436 434.178 217.553 434.088 217.639C433.998 217.725 433.876 217.774 433.749 217.774C433.622 217.774 433.5 217.725 433.411 217.639C433.321 217.553 433.27 217.436 433.27 217.314C433.27 217.192 433.321 217.075 433.411 216.988C433.5 216.902 433.622 216.853 433.749 216.853Z" fill="white"/>
<path d="M424.32 263.523C424.665 263.553 424.983 263.714 425.205 263.97C425.426 264.226 425.533 264.556 425.501 264.887C425.469 265.219 425.302 265.524 425.035 265.737C424.769 265.95 424.426 266.052 424.081 266.022C423.736 265.991 423.418 265.83 423.196 265.574C422.975 265.318 422.868 264.988 422.9 264.657C422.932 264.326 423.099 264.02 423.366 263.807C423.632 263.595 423.975 263.492 424.32 263.523Z" fill="white"/>
<path d="M428.016 212.07C428.361 212.1 428.679 212.261 428.901 212.517C429.122 212.773 429.229 213.103 429.197 213.434C429.165 213.766 428.998 214.071 428.731 214.284C428.465 214.497 428.122 214.599 427.777 214.569C427.432 214.538 427.114 214.377 426.892 214.121C426.671 213.865 426.564 213.535 426.596 213.204C426.628 212.873 426.795 212.567 427.062 212.354C427.328 212.142 427.671 212.039 428.016 212.07Z" fill="white"/>
<path d="M162.032 441.817L153.835 443.28L152.004 451.582L150.156 443.28L141.959 441.817L150.139 439.894L152.004 432.052L153.869 439.894L162.032 441.817Z" fill="white"/>
<path d="M107.031 181.625L98.8345 183.072L97.0034 191.374L95.1723 183.072L86.9753 181.625L95.1381 179.702L97.0034 171.861L98.8687 179.702L107.031 181.625Z" fill="white"/>
<path d="M245.765 203.621L237.568 205.084L235.737 213.385L233.906 205.084L225.709 203.621L233.872 201.697L235.737 193.856L237.602 201.697L245.765 203.621Z" fill="white"/>
<path d="M56.241 343.514L51.6547 344.319L50.628 348.955L49.6012 344.319L45.0321 343.514L49.5841 342.429L50.628 338.056L51.6718 342.429L56.241 343.514Z" fill="white"/>
<path d="M79.5312 209.193L74.945 210.015L73.9183 214.651L72.8915 210.015L68.3224 209.193L72.8744 208.124L73.9183 203.735L74.9622 208.124L79.5312 209.193Z" fill="white"/>
<path d="M160.988 271.841L156.402 272.646L155.375 277.298L154.348 272.646L149.762 271.841L154.331 270.772L155.375 266.383L156.419 270.772L160.988 271.841Z" fill="white"/>
<path d="M337.028 272.219L332.441 273.025L331.415 277.677L330.388 273.025L325.802 272.219L330.371 271.134L331.415 266.761L332.458 271.134L337.028 272.219Z" fill="white"/>
<path d="M171.803 467.346L167.217 468.168L166.19 472.804L165.181 468.168L160.595 467.346L165.147 466.278L166.19 461.889L167.251 466.278L171.803 467.346Z" fill="white"/>
<path d="M300.92 213.977C300.566 213.977 300.226 214.112 299.976 214.352C299.726 214.593 299.585 214.919 299.585 215.259C299.585 215.599 299.726 215.925 299.976 216.166C300.226 216.406 300.566 216.541 300.92 216.541C301.274 216.541 301.613 216.406 301.864 216.166C302.114 215.925 302.255 215.599 302.255 215.259C302.255 214.919 302.114 214.593 301.864 214.352C301.613 214.112 301.274 213.977 300.92 213.977Z" fill="white"/>
<path d="M319.059 343.135C318.733 343.171 318.433 343.321 318.214 343.555C317.996 343.79 317.875 344.094 317.875 344.409C317.875 344.724 317.996 345.028 318.214 345.263C318.433 345.498 318.733 345.648 319.059 345.683C319.385 345.648 319.686 345.498 319.904 345.263C320.122 345.028 320.243 344.724 320.243 344.409C320.243 344.094 320.122 343.79 319.904 343.555C319.686 343.321 319.385 343.171 319.059 343.135Z" fill="white"/>
<path d="M149.762 312.214C149.436 312.25 149.136 312.4 148.917 312.634C148.699 312.869 148.578 313.173 148.578 313.488C148.578 313.803 148.699 314.107 148.917 314.342C149.136 314.577 149.436 314.727 149.762 314.762C150.088 314.727 150.389 314.577 150.607 314.342C150.825 314.107 150.946 313.803 150.946 313.488C150.946 313.173 150.825 312.869 150.607 312.634C150.389 312.4 150.088 312.25 149.762 312.214Z" fill="white"/>
<path d="M142.523 356.96C142.198 356.996 141.897 357.146 141.679 357.381C141.46 357.616 141.339 357.919 141.339 358.234C141.339 358.549 141.46 358.853 141.679 359.088C141.897 359.323 142.198 359.473 142.523 359.508C142.849 359.473 143.15 359.323 143.368 359.088C143.587 358.853 143.707 358.549 143.707 358.234C143.707 357.919 143.587 357.616 143.368 357.381C143.15 357.146 142.849 356.996 142.523 356.96Z" fill="white"/>
<path d="M172.728 277.693C172.478 277.693 172.238 277.788 172.062 277.958C171.885 278.127 171.786 278.357 171.786 278.597C171.786 278.837 171.885 279.067 172.062 279.236C172.238 279.406 172.478 279.501 172.728 279.501C172.977 279.501 173.217 279.406 173.393 279.236C173.57 279.067 173.669 278.837 173.669 278.597C173.669 278.357 173.57 278.127 173.393 277.958C173.217 277.788 172.977 277.693 172.728 277.693Z" fill="white"/>
<path d="M405.838 343.514C405.613 343.543 405.406 343.65 405.256 343.815C405.106 343.98 405.024 344.191 405.024 344.41C405.024 344.628 405.106 344.84 405.256 345.004C405.406 345.169 405.613 345.276 405.838 345.305C406.064 345.276 406.271 345.169 406.421 345.004C406.57 344.84 406.653 344.628 406.653 344.41C406.653 344.191 406.57 343.98 406.421 343.815C406.271 343.65 406.064 343.543 405.838 343.514Z" fill="white"/>
<path d="M354.363 336.297C354.113 336.297 353.874 336.392 353.697 336.562C353.521 336.731 353.422 336.961 353.422 337.201C353.422 337.441 353.521 337.671 353.697 337.841C353.874 338.01 354.113 338.105 354.363 338.105C354.613 338.105 354.852 338.01 355.029 337.841C355.205 337.671 355.304 337.441 355.304 337.201C355.304 336.961 355.205 336.731 355.029 336.562C354.852 336.392 354.613 336.297 354.363 336.297Z" fill="white"/>
<path d="M260.379 188.941C259.699 188.941 259.046 189.2 258.564 189.663C258.083 190.125 257.812 190.752 257.812 191.406C257.812 192.06 258.083 192.688 258.564 193.15C259.046 193.612 259.699 193.872 260.379 193.872C261.06 193.872 261.713 193.612 262.194 193.15C262.676 192.688 262.946 192.06 262.946 191.406C262.946 190.752 262.676 190.125 262.194 189.663C261.713 189.2 261.06 188.941 260.379 188.941Z" fill="white"/>
<path d="M288.906 131.142L280.709 132.605L278.878 140.907L277.047 132.605L268.85 131.142L277.013 129.219L278.878 121.377L280.743 129.219L288.906 131.142Z" fill="white"/>
<path d="M365.589 42.6855L361.003 43.5074L359.976 48.1431L358.949 43.5074L354.363 42.6855L358.932 41.617L359.976 37.2278L361.02 41.617L365.589 42.6855Z" fill="white"/>
<path d="M44.0905 232.355C43.7647 232.391 43.464 232.54 43.2456 232.775C43.0273 233.01 42.9066 233.314 42.9066 233.629C42.9066 233.944 43.0273 234.248 43.2456 234.483C43.464 234.718 43.7647 234.867 44.0905 234.903C44.4163 234.867 44.717 234.718 44.9354 234.483C45.1537 234.248 45.2744 233.944 45.2744 233.629C45.2744 233.314 45.1537 233.01 44.9354 232.775C44.717 232.54 44.4163 232.391 44.0905 232.355Z" fill="white"/>
<path d="M200.125 142.107C199.876 142.107 199.636 142.202 199.46 142.372C199.283 142.541 199.184 142.771 199.184 143.011C199.184 143.251 199.283 143.481 199.46 143.65C199.636 143.82 199.876 143.915 200.125 143.915C200.375 143.915 200.614 143.82 200.791 143.65C200.967 143.481 201.066 143.251 201.066 143.011C201.066 142.771 200.967 142.541 200.791 142.372C200.614 142.202 200.375 142.107 200.125 142.107Z" fill="white"/>
<path d="M448.329 161.044C448.08 161.044 447.84 161.139 447.664 161.309C447.487 161.478 447.388 161.708 447.388 161.948C447.388 162.188 447.487 162.418 447.664 162.587C447.84 162.757 448.08 162.852 448.329 162.852C448.579 162.852 448.818 162.757 448.995 162.587C449.171 162.418 449.271 162.188 449.271 161.948C449.271 161.708 449.171 161.478 448.995 161.309C448.818 161.139 448.579 161.044 448.329 161.044Z" fill="white"/>
<path d="M369.867 86.9056C369.641 86.9351 369.435 87.0421 369.285 87.2068C369.135 87.3715 369.052 87.5828 369.052 87.8015C369.052 88.0203 369.135 88.2316 369.285 88.3963C369.435 88.561 369.641 88.668 369.867 88.6975C370.093 88.668 370.3 88.561 370.449 88.3963C370.599 88.2316 370.682 88.0203 370.682 87.8015C370.682 87.5828 370.599 87.3715 370.449 87.2068C370.3 87.0421 370.093 86.9351 369.867 86.9056Z" fill="white"/>
<path d="M426.219 302.68C425.538 302.68 424.886 302.94 424.404 303.402C423.923 303.865 423.652 304.492 423.652 305.146C423.652 305.8 423.923 306.427 424.404 306.889C424.886 307.352 425.538 307.612 426.219 307.612C426.9 307.612 427.553 307.352 428.034 306.889C428.516 306.427 428.786 305.8 428.786 305.146C428.786 304.492 428.516 303.865 428.034 303.402C427.553 302.94 426.9 302.68 426.219 302.68Z" fill="white"/>
<path d="M101.778 251.292C101.098 251.292 100.445 251.552 99.9632 252.015C99.4819 252.477 99.2114 253.104 99.2114 253.758C99.2114 254.412 99.4819 255.039 99.9632 255.502C100.445 255.964 101.098 256.224 101.778 256.224C102.459 256.224 103.112 255.964 103.593 255.502C104.075 255.039 104.345 254.412 104.345 253.758C104.345 253.104 104.075 252.477 103.593 252.015C103.112 251.552 102.459 251.292 101.778 251.292Z" fill="white"/>
<path d="M58.4655 276.049C58.1397 276.085 57.839 276.234 57.6207 276.469C57.4023 276.704 57.2816 277.008 57.2816 277.323C57.2816 277.638 57.4023 277.942 57.6207 278.177C57.839 278.412 58.1397 278.561 58.4655 278.597C58.7913 278.561 59.092 278.412 59.3104 278.177C59.5287 277.942 59.6494 277.638 59.6494 277.323C59.6494 277.008 59.5287 276.704 59.3104 276.469C59.092 276.234 58.7913 276.085 58.4655 276.049Z" fill="white"/>
<path d="M203.77 121.312C203.444 121.347 203.144 121.497 202.925 121.732C202.707 121.967 202.586 122.271 202.586 122.586C202.586 122.901 202.707 123.205 202.925 123.44C203.144 123.675 203.444 123.824 203.77 123.86C204.096 123.824 204.397 123.675 204.615 123.44C204.833 123.205 204.954 122.901 204.954 122.586C204.954 122.271 204.833 121.967 204.615 121.732C204.397 121.497 204.096 121.347 203.77 121.312Z" fill="white"/>
<path d="M342.863 251.753C342.537 251.788 342.236 251.938 342.018 252.173C341.8 252.408 341.679 252.712 341.679 253.027C341.679 253.342 341.8 253.646 342.018 253.881C342.236 254.116 342.537 254.265 342.863 254.301C343.189 254.265 343.489 254.116 343.708 253.881C343.926 253.646 344.047 253.342 344.047 253.027C344.047 252.712 343.926 252.408 343.708 252.173C343.489 251.938 343.189 251.788 342.863 251.753Z" fill="white"/>
<path d="M441.399 300.461C441.045 300.461 440.705 300.596 440.455 300.836C440.205 301.077 440.064 301.403 440.064 301.743C440.064 302.083 440.205 302.409 440.455 302.65C440.705 302.89 441.045 303.025 441.399 303.025C441.753 303.025 442.092 302.89 442.343 302.65C442.593 302.409 442.734 302.083 442.734 301.743C442.734 301.403 442.593 301.077 442.343 300.836C442.092 300.596 441.753 300.461 441.399 300.461Z" fill="white"/>
<path d="M365.127 255.106C364.446 255.106 363.793 255.366 363.312 255.829C362.83 256.291 362.56 256.918 362.56 257.572C362.56 258.226 362.83 258.853 363.312 259.316C363.793 259.778 364.446 260.038 365.127 260.038C365.808 260.038 366.461 259.778 366.942 259.316C367.423 258.853 367.694 258.226 367.694 257.572C367.694 256.918 367.423 256.291 366.942 255.829C366.461 255.366 365.808 255.106 365.127 255.106Z" fill="white"/>
<path d="M106.427 269.536L107.637 270.698L63.9299 312.684L62.7199 311.522L106.427 269.536Z" fill="white"/>
<path d="M351.112 209.121L352.36 210.246L333.215 229.824L331.967 228.698L351.112 209.121Z" fill="white"/>
<path d="M161.883 378.378L192.682 402.183L191.61 403.464L160.811 379.659L161.883 378.378Z" fill="white"/>
<path d="M50.1827 316.768H58.4653V319.595H50.1827V316.768Z" fill="white"/>
<path d="M41.5409 325.776H49.8235V328.604H41.5409V325.776Z" fill="white"/>
<path d="M31.4615 316.768H47.1711V319.595H31.4615V316.768Z" fill="white"/>
<path d="M25.934 316.768H28.5693V319.595H25.934V316.768Z" fill="white"/>
<path d="M21.7072 316.768H24.3425V319.595H21.7072V316.768Z" fill="white"/>
<path d="M17.4974 316.768H20.1328V319.595H17.4974V316.768Z" fill="white"/>
<path d="M42.7558 321.223H58.4653V324.05H42.7558V321.223Z" fill="white"/>
<path d="M37.2287 321.223H39.864V324.05H37.2287V321.223Z" fill="white"/>
<path d="M33.0014 321.223H35.6367V324.05H33.0014V321.223Z" fill="white"/>
<path d="M28.7921 321.223H31.4275V324.05H28.7921V321.223Z" fill="white"/>
<path d="M55.83 325.776H58.4653V328.604H55.83V325.776Z" fill="white"/>
<path d="M51.6029 325.776H54.2383V328.604H51.6029V325.776Z" fill="white"/>
<path d="M147.024 368.303H155.307V371.131H147.024V368.303Z" fill="white"/>
<path d="M138.382 377.312H146.665V380.139H138.382V377.312Z" fill="white"/>
<path d="M128.303 368.303H144.012V371.131H128.303V368.303Z" fill="white"/>
<path d="M122.775 368.303H125.411V371.131H122.775V368.303Z" fill="white"/>
<path d="M118.548 368.303H121.184V371.131H118.548V368.303Z" fill="white"/>
<path d="M114.339 368.303H116.974V371.131H114.339V368.303Z" fill="white"/>
<path d="M139.597 372.774H155.307V375.602H139.597V372.774Z" fill="white"/>
<path d="M134.07 372.774H136.705V375.602H134.07V372.774Z" fill="white"/>
<path d="M129.86 372.774H132.495V375.602H129.86V372.774Z" fill="white"/>
<path d="M125.633 372.774H128.269V375.602H125.633V372.774Z" fill="white"/>
<path d="M152.671 377.312H155.307V380.139H152.671V377.312Z" fill="white"/>
<path d="M148.462 377.312H151.097V380.139H148.462V377.312Z" fill="white"/>
<path d="M323.474 232.372H331.757V235.199H323.474V232.372Z" fill="white"/>
<path d="M314.849 241.38H323.132V244.207H314.849V241.38Z" fill="white"/>
<path d="M304.753 232.372H320.462V235.199H304.753V232.372Z" fill="white"/>
<path d="M299.225 232.372H301.861V235.199H299.225V232.372Z" fill="white"/>
<path d="M295.016 232.372H297.651V235.199H295.016V232.372Z" fill="white"/>
<path d="M290.789 232.372H293.424V235.199H290.789V232.372Z" fill="white"/>
<path d="M316.047 236.826H331.757V239.654H316.047V236.826Z" fill="white"/>
<path d="M310.52 236.826H313.155V239.654H310.52V236.826Z" fill="white"/>
<path d="M306.31 236.826H308.945V239.654H306.31V236.826Z" fill="white"/>
<path d="M302.101 236.826H304.736V239.654H302.101V236.826Z" fill="white"/>
<path d="M329.121 241.38H331.757V244.207H329.121V241.38Z" fill="white"/>
<path d="M324.912 241.38H327.547V244.207H324.912V241.38Z" fill="white"/>
<defs>
<linearGradient id="paint0_linear_1070_378" x1="267.353" y1="390.951" x2="267.353" y2="404.415" gradientUnits="userSpaceOnUse">
<stop stop-color="#FD0091"/>
<stop offset="0.0001" stop-color="#FD0091"/>
<stop offset="1" stop-color="#FF7732"/>
</linearGradient>
<linearGradient id="paint1_linear_1070_378" x1="191.794" y1="444.467" x2="191.794" y2="459.321" gradientUnits="userSpaceOnUse">
<stop stop-color="#FD0091"/>
<stop offset="0.0001" stop-color="#FD0091"/>
<stop offset="1" stop-color="#FF7732"/>
</linearGradient>
<linearGradient id="paint2_linear_1070_378" x1="237.919" y1="379.326" x2="237.919" y2="387.889" gradientUnits="userSpaceOnUse">
<stop stop-color="#FD0091"/>
<stop offset="0.0001" stop-color="#FD0091"/>
<stop offset="1" stop-color="#FF7732"/>
</linearGradient>
<linearGradient id="paint3_linear_1070_378" x1="277.663" y1="434.299" x2="277.663" y2="446.376" gradientUnits="userSpaceOnUse">
<stop stop-color="#FD0091"/>
<stop offset="0.0001" stop-color="#FD0091"/>
<stop offset="1" stop-color="#FF7732"/>
</linearGradient>
<linearGradient id="paint4_linear_1070_378" x1="181.935" y1="431.14" x2="190.234" y2="431.14" gradientUnits="userSpaceOnUse">
<stop stop-color="#FD0091"/>
<stop offset="0.0001" stop-color="#FD0091"/>
<stop offset="1" stop-color="#FF7732"/>
</linearGradient>
<linearGradient id="paint5_linear_1070_378" x1="243.985" y1="468.594" x2="243.985" y2="477.721" gradientUnits="userSpaceOnUse">
<stop stop-color="#FD0091"/>
<stop offset="0.0001" stop-color="#FD0091"/>
<stop offset="1" stop-color="#FF7732"/>
</linearGradient>
<linearGradient id="paint6_linear_1070_378" x1="232.777" y1="383.394" x2="232.777" y2="475.417" gradientUnits="userSpaceOnUse">
<stop stop-color="#FD0091"/>
<stop offset="0.0001" stop-color="#FD0091"/>
<stop offset="1" stop-color="#FF7732"/>
</linearGradient>
<linearGradient id="paint7_linear_1070_378" x1="222.832" y1="424.275" x2="222.832" y2="444.659" gradientUnits="userSpaceOnUse">
<stop stop-color="#FD0091"/>
<stop offset="0.0001" stop-color="#FD0091"/>
<stop offset="1" stop-color="#FF7732"/>
</linearGradient>
<linearGradient id="paint8_linear_1070_378" x1="195.726" y1="432.532" x2="195.726" y2="440.127" gradientUnits="userSpaceOnUse">
<stop stop-color="#FD0091"/>
<stop offset="0.0001" stop-color="#FD0091"/>
<stop offset="1" stop-color="#FF7732"/>
</linearGradient>
<linearGradient id="paint9_linear_1070_378" x1="223.475" y1="453.843" x2="223.475" y2="464.66" gradientUnits="userSpaceOnUse">
<stop stop-color="#FD0091"/>
<stop offset="0.0001" stop-color="#FD0091"/>
<stop offset="1" stop-color="#FF7732"/>
</linearGradient>
<linearGradient id="paint10_linear_1070_378" x1="256.799" y1="399.171" x2="256.799" y2="415.934" gradientUnits="userSpaceOnUse">
<stop stop-color="#FD0091"/>
<stop offset="0.0001" stop-color="#FD0091"/>
<stop offset="1" stop-color="#FF7732"/>
</linearGradient>
<linearGradient id="paint11_linear_1070_378" x1="137.288" y1="170.397" x2="120.828" y2="271.49" gradientUnits="userSpaceOnUse">
<stop stop-color="#FD0091"/>
<stop offset="0.0001" stop-color="#FD0091"/>
<stop offset="1" stop-color="#FF7732"/>
</linearGradient>
<linearGradient id="paint12_linear_1070_378" x1="129.457" y1="191.844" x2="129.457" y2="252.814" gradientUnits="userSpaceOnUse">
<stop stop-color="#FD0091"/>
<stop offset="0.0001" stop-color="#FD0091"/>
<stop offset="1" stop-color="#FF7732"/>
</linearGradient>
<linearGradient id="paint13_linear_1070_378" x1="128.627" y1="185.376" x2="128.627" y2="258.677" gradientUnits="userSpaceOnUse">
<stop stop-color="#FD0091"/>
<stop offset="0.0001" stop-color="#FD0091"/>
<stop offset="1" stop-color="#FF7732"/>
</linearGradient>
<linearGradient id="paint14_linear_1070_378" x1="403.023" y1="82.6392" x2="403.023" y2="150.408" gradientUnits="userSpaceOnUse">
<stop stop-color="#FD0091"/>
<stop offset="0.0001" stop-color="#FD0091"/>
<stop offset="1" stop-color="#FF7732"/>
</linearGradient>
<linearGradient id="paint15_linear_1070_378" x1="341.407" y1="135.219" x2="341.407" y2="213.409" gradientUnits="userSpaceOnUse">
<stop stop-color="#FD0091"/>
<stop offset="0.0001" stop-color="#FD0091"/>
<stop offset="1" stop-color="#FF7732"/>
</linearGradient>
<linearGradient id="paint16_linear_1070_378" x1="327.132" y1="77.1328" x2="327.132" y2="125.66" gradientUnits="userSpaceOnUse">
<stop stop-color="#FD0091"/>
<stop offset="0.0001" stop-color="#FD0091"/>
<stop offset="1" stop-color="#FF7732"/>
</linearGradient>
<linearGradient id="paint17_linear_1070_378" x1="327.094" y1="109.591" x2="327.094" y2="116.923" gradientUnits="userSpaceOnUse">
<stop stop-color="#FD0091"/>
<stop offset="0.0001" stop-color="#FD0091"/>
<stop offset="1" stop-color="#FF7732"/>
</linearGradient>
<linearGradient id="paint18_linear_1070_378" x1="327.308" y1="84.5656" x2="327.308" y2="91.5248" gradientUnits="userSpaceOnUse">
<stop stop-color="#FD0091"/>
<stop offset="0.0001" stop-color="#FD0091"/>
<stop offset="1" stop-color="#FF7732"/>
</linearGradient>
<linearGradient id="paint19_linear_1070_378" x1="327.153" y1="104.38" x2="327.153" y2="106.221" gradientUnits="userSpaceOnUse">
<stop stop-color="#FD0091"/>
<stop offset="0.0001" stop-color="#FD0091"/>
<stop offset="1" stop-color="#FF7732"/>
</linearGradient>
<linearGradient id="paint20_linear_1070_378" x1="283.049" y1="33.4965" x2="283.049" y2="81.9741" gradientUnits="userSpaceOnUse">
<stop stop-color="#FD0091"/>
<stop offset="0.0001" stop-color="#FD0091"/>
<stop offset="1" stop-color="#FF7732"/>
</linearGradient>
<linearGradient id="paint21_linear_1070_378" x1="393.577" y1="149.455" x2="393.577" y2="183.565" gradientUnits="userSpaceOnUse">
<stop stop-color="#FD0091"/>
<stop offset="0.0001" stop-color="#FD0091"/>
<stop offset="1" stop-color="#FF7732"/>
</linearGradient>
<linearGradient id="paint22_linear_1070_378" x1="406.401" y1="164.348" x2="406.401" y2="303.272" gradientUnits="userSpaceOnUse">
<stop stop-color="#FD0091"/>
<stop offset="0.0001" stop-color="#FD0091"/>
<stop offset="1" stop-color="#FF7732"/>
</linearGradient>
</defs>
</svg>
