<svg width="786" height="366" viewBox="0 0 786 366" fill="none" xmlns="http://www.w3.org/2000/svg">
<path d="M612.716 220.159C612.716 220.159 573.858 269.812 569.53 273.08C562.675 278.217 556.999 278.571 547.634 269.711C530.319 253.34 506.756 223.528 506.756 223.528L519.927 207.763L557.891 240.91L595.418 189.319L612.716 220.159Z" fill="#C58A8A"/>
<path d="M528.264 215.106C525.131 212.36 525.536 209.11 523.717 204.731C521.898 200.351 518.815 196.932 517.704 193.782C516.592 190.633 515.514 188.527 513.661 191.172C511.809 193.816 512.634 197.741 513.291 199.863C513.948 201.985 513.577 201.8 509.737 198.903C505.897 196.006 502.899 185.967 501.416 183.306C499.934 180.645 497.138 183.053 496.734 186.574C496.734 186.574 491.934 187.921 490.704 191.155C489.475 194.389 486.864 199.947 489.02 206.162C491.176 212.377 499.412 219.435 502.494 222.736C505.577 226.037 510.916 228.681 513.426 231.73L528.264 215.106Z" fill="#9E6767"/>
<path d="M557.891 240.977C562.557 246.451 565.42 254.737 565.184 258.123C565.184 258.123 569.749 248.556 561.125 236.547L557.891 240.977Z" fill="#874C4C"/>
<path d="M611.638 179.735C595.67 177.63 594.694 184.283 588.462 192.317C583.409 198.903 565.673 227.469 565.673 227.469C565.673 227.469 568.317 247.495 588.664 251.79L618.762 214.213L611.638 179.735Z" fill="#FF7732"/>
<path d="M321.852 274.9C315.115 275.86 302.803 274.209 301.27 273.215C299.737 272.222 299.586 271.042 309.405 270.739C319.225 270.436 316.344 266.091 312.555 265.686C308.765 265.282 303.342 263.396 295.88 265.686C292.36 266.958 288.657 267.652 284.915 267.741L236.357 261.863C236.357 261.863 230.866 247.748 221.535 226.156C211.934 203.956 209.576 203.114 195.344 198.55L192.666 236.043C192.666 236.043 204.456 260.398 211.698 272.929C217.88 283.641 220.406 286.319 227.396 286.74C239.186 287.448 251.903 287.01 261.992 286.976C272.081 286.942 279.29 287.532 287.071 289.755C293.017 291.439 309.843 295.381 317.035 292.231C324.227 289.081 328.539 273.939 321.852 274.9Z" fill="#FFC4C3"/>
<path d="M194.619 197.792C205.399 199.661 211.041 202.844 215.168 210.121C218.115 215.376 234.908 254.553 234.908 254.553C234.908 254.553 227.901 269.004 208.363 270.486L190.981 239.95L194.619 197.792Z" fill="#455A64"/>
<path d="M462.323 212.445C454.121 220.546 426.953 249.381 426.953 249.381L390.1 231.797C388.342 231.053 386.684 230.091 385.165 228.934C382.083 225.801 381.14 222.365 377.721 218.474C375.365 215.833 373.283 212.961 371.505 209.901C370.192 207.762 368.406 210.255 367.952 211.67C366.958 214.819 369.282 216.723 368.996 219.721C366.678 218.704 364.81 216.878 363.741 214.584C363.118 213.27 362.798 211.838 362.208 210.508C361.957 209.826 361.573 209.201 361.078 208.67C360.584 208.138 359.989 207.709 359.328 207.408C356.515 206.381 353.568 208.453 352.186 210.777C349.609 215.022 346.931 223.713 350.182 228.227C353.88 233.025 358.729 236.814 364.28 239.242C368.985 241.594 373.567 244.186 378.007 247.007C378.007 247.007 417.571 271.715 422.961 273.568C429.193 275.69 433.067 273.568 440.057 268.279C458.719 254.232 481.356 236.176 481.356 236.176L488.666 202.322C483.804 202.004 478.931 202.744 474.384 204.492C469.836 206.239 465.721 208.953 462.323 212.445Z" fill="#FFC4C3"/>
<path d="M534.698 252.009C541.065 252.414 547.836 257.972 551.457 262.924C555.451 268.436 557.367 275.184 556.864 281.973C556.56 285.813 555.179 290.041 551.625 291.658C548.071 293.275 543.76 291.557 541.317 288.559C539.072 285.387 537.723 281.669 537.41 277.796C537.174 276.112 536.702 270.874 534.361 271.177C533.741 264.796 533.854 258.365 534.698 252.009Z" fill="#FFC4C3"/>
<path d="M442.786 213.17C448.31 218.324 481.222 257.737 481.222 257.737L534.614 252.027L534.294 271.06C518.815 274.428 491.799 280.593 481.289 282.749C471.907 284.669 468.219 282.041 460.808 275.388C453.397 268.735 429.8 244.65 429.8 244.65L421.749 205.321C425.617 204.99 429.511 205.523 433.15 206.88C436.788 208.237 440.079 210.386 442.786 213.17Z" fill="#37474F"/>
<path d="M252.998 228.581C255.793 229.356 263.305 238.401 267.196 239.175C271.087 239.95 273.411 240.085 270.194 235.453C266.977 230.821 269.554 224.943 271.879 227.52C274.271 230.249 276.941 232.721 279.845 234.897C284.056 238.148 287.24 245.576 293.455 248.978L287.256 263.952C281.412 261.829 276.325 259.977 270.582 258.461C262.767 256.389 256.417 253.559 253.368 248.186C250.319 242.814 251.28 237.98 251.381 235.217C251.482 232.455 250.202 227.739 252.998 228.581Z" fill="#F28F8F"/>
<path d="M378.192 206.449C371.27 206.449 365.425 205.91 360.524 210.34C355.623 214.77 324.581 265.366 324.581 265.366L293.505 248.911L284.326 262.907C284.326 262.907 321.381 289.166 327.983 291.541C335.428 294.185 339.201 290.463 345.028 283.119C350.856 275.776 366.217 254.671 366.369 254.486C385.317 241.584 383.936 220.16 378.192 206.449Z" fill="#37474F"/>
<path d="M556.106 434.927C556.106 434.927 558.447 378.89 559.205 358.61C561.024 309.328 551.289 292.653 546.051 285.714C543.575 282.446 534.126 270.892 534.126 270.892L471.52 272.576C467.326 281.317 465.558 289.689 461.818 309.85C458.079 330.011 454.98 409.224 460.69 447.508C463.199 464.351 478.998 540.886 479.318 543.177C479.47 544.154 482.603 548.348 489.306 546.967C496.01 545.586 497.728 543.16 497.728 542.453C497.728 539.994 499.412 536.524 499.53 534.031C500.322 518.014 502.494 483.334 503.859 466.979C504.682 458.498 503.075 449.957 499.227 442.354L505.627 387.597C510.411 414.546 515.261 435.061 519.742 454.397C524.913 476.58 543.878 543.767 543.878 543.767C545.562 550.672 559.997 548.82 563.062 537.669L562.776 534.806C560.805 517.761 563.837 483.553 563.669 468.293C563.375 456.78 560.805 445.44 556.106 434.927Z" fill="#FFC4C3"/>
<path d="M505.594 387.631L499.614 343.3C499.614 343.3 481.996 333.901 477.331 324.604C477.331 324.604 478.56 339.392 492.102 346.988L499.867 391.421L499.193 442.388L505.594 387.631Z" fill="#FFA8A7"/>
<path d="M536.989 272.374C536.989 272.374 539.465 276.163 546 284.568C552.782 294.03 557.546 304.785 559.997 316.166C563.029 330.617 564.881 379.765 564.881 379.765C564.881 379.765 547.684 394.52 502.393 391.134C457.473 387.766 450.87 378.03 450.87 378.03C450.87 378.03 454.879 310.894 469.532 273.822L536.989 272.374Z" fill="#455A64"/>
<path d="M541.166 167.828C540.762 167.373 541.638 182.768 543.794 191.071C545.579 197.943 551.996 206.079 555.82 216.639C560.266 229.002 553.512 247.108 538.606 244.312L486.662 274.63C486.662 274.63 487.083 215.965 490.031 193.076C492.271 175.997 486.662 164.611 486.662 164.611L541.166 167.828Z" fill="#F0997A"/>
<path d="M497.627 202.508C497.627 202.508 495.555 206.23 499.176 207.443C504.6 209.262 517.704 207.443 522.656 202.777C522.656 202.777 536.349 203.754 539.179 204.327C542.85 205.068 545.411 218.189 543.844 231.427C542.867 239.697 540.156 254.115 538.657 262.553C537.73 267.775 539.836 271.329 535.658 273.468C525.387 278.475 514.164 281.228 502.742 281.541C491.319 281.855 479.962 279.723 469.431 275.287C468.353 274.563 467.629 272.861 467.747 269.678C467.882 265.77 465.877 259.673 465.726 255.597C463.649 254.072 461.923 252.119 460.665 249.87C459.407 247.621 458.646 245.129 458.433 242.561C457.86 233.6 462.172 227.402 470.425 217.397C475.722 211.463 481.876 206.354 488.683 202.238L497.627 202.508Z" fill="#263238"/>
<path opacity="0.2" d="M521.46 250.966C519.663 254.126 516.993 256.7 513.769 258.379C510.545 260.058 506.905 260.771 503.286 260.432C499.788 260.215 496.41 259.079 493.491 257.139C490.572 255.199 488.217 252.524 486.662 249.383C486.662 249.383 486.797 263.278 503.202 263.75C519.607 264.222 521.46 250.966 521.46 250.966Z" fill="black"/>
<path d="M476.961 143.49C472.497 149.823 470.863 176.486 472.548 192.335C474.232 208.185 477.398 215.73 477.398 215.73C477.398 215.73 476.994 196.714 479.083 190.954C479.083 190.954 479.42 202.037 481.761 205.591C481.761 205.591 485.012 185.379 488.818 177.985C492.625 170.591 476.961 143.49 476.961 143.49Z" fill="#F0997A"/>
<path d="M523.009 190.347C525.418 187.433 529.427 185.294 535.12 178.691C543.036 169.579 547.482 150.26 534.816 139.093C526.311 127.488 506.756 122.739 494.275 125.433C474.754 129.627 476.809 148.138 476.809 148.138L523.009 190.347Z" fill="#F0997A"/>
<path d="M536.972 162.893C536.487 162.231 535.853 161.694 535.122 161.323C534.39 160.952 533.582 160.759 532.762 160.759C531.941 160.759 531.133 160.952 530.401 161.323C529.67 161.694 529.036 162.231 528.551 162.893C527.81 163.903 527.321 165.082 526.614 166.11C526.287 166.643 525.84 167.092 525.307 167.42C524.774 167.748 524.172 167.945 523.548 167.996C523.066 168.011 522.587 167.9 522.16 167.676C521.732 167.452 521.369 167.121 521.106 166.716C520.65 165.592 520.41 164.392 520.399 163.179C518.277 146.37 513.224 141.115 501.433 144.365C495.993 139.565 492.894 137.628 486.679 138.251C479.942 138.993 475.226 142.21 475.815 164.341C476.287 181.622 482.552 189.69 485.416 191.29C488.279 192.89 492.001 193.261 497.778 192.756L497.627 202.575C497.627 202.575 489.896 208.841 493.803 217.869C499.371 217.198 504.812 215.723 509.956 213.49C521.46 208.016 522.656 202.845 522.656 202.845L523.38 176.654C523.38 176.654 527.136 182.111 533.216 177.563C538.236 173.74 540.341 166.935 536.972 162.893Z" fill="#FFC4C3"/>
<path d="M500.288 159.996C500.221 160.676 500.421 161.354 500.845 161.888C501.269 162.423 501.885 162.771 502.562 162.86C502.889 162.909 503.223 162.893 503.543 162.81C503.864 162.728 504.164 162.582 504.427 162.38C504.689 162.179 504.909 161.927 505.072 161.639C505.234 161.351 505.337 161.033 505.374 160.704C505.438 160.028 505.238 159.354 504.818 158.821C504.398 158.288 503.789 157.937 503.117 157.841C502.79 157.793 502.456 157.812 502.135 157.895C501.815 157.978 501.514 158.124 501.25 158.325C500.987 158.526 500.766 158.777 500.601 159.064C500.436 159.351 500.329 159.668 500.288 159.996Z" fill="#263238"/>
<path d="M479.251 154.758L484.759 152.148C484.606 151.78 484.38 151.448 484.094 151.17C483.808 150.893 483.469 150.677 483.097 150.535C482.725 150.393 482.328 150.329 481.93 150.345C481.533 150.362 481.143 150.459 480.784 150.632C480.049 150.993 479.48 151.622 479.195 152.39C478.91 153.157 478.93 154.005 479.251 154.758Z" fill="#263238"/>
<path d="M502.006 152.787L507.379 155.701C507.587 155.362 507.723 154.985 507.779 154.591C507.835 154.198 507.811 153.798 507.707 153.414C507.603 153.031 507.421 152.673 507.174 152.362C506.926 152.052 506.618 151.795 506.267 151.608C505.54 151.227 504.695 151.136 503.904 151.355C503.112 151.574 502.434 152.086 502.006 152.787Z" fill="#263238"/>
<path d="M500.962 175.391L490.974 178.591C491.198 179.285 491.565 179.925 492.051 180.469C492.536 181.014 493.13 181.451 493.794 181.754C494.457 182.057 495.177 182.218 495.907 182.227C496.636 182.236 497.36 182.094 498.031 181.808C498.649 181.585 499.216 181.241 499.7 180.796C500.183 180.351 500.573 179.813 500.846 179.216C501.119 178.618 501.27 177.972 501.29 177.315C501.309 176.658 501.198 176.004 500.962 175.391Z" fill="#9E6767"/>
<path d="M495.168 182.095C495.322 180.742 495.972 179.494 496.992 178.591C498.012 177.689 499.33 177.197 500.692 177.21H501.198C501.23 178.206 500.938 179.185 500.368 180.002C499.797 180.819 498.977 181.429 498.031 181.741C497.121 182.096 496.137 182.218 495.168 182.095Z" fill="#F28F8F"/>
<path d="M480.8 159.12C480.733 159.801 480.932 160.482 481.356 161.019C481.78 161.556 482.396 161.908 483.074 162.001C483.402 162.048 483.737 162.029 484.057 161.944C484.378 161.86 484.678 161.712 484.94 161.509C485.203 161.307 485.422 161.053 485.584 160.765C485.747 160.476 485.85 160.157 485.887 159.828C485.954 159.151 485.757 158.475 485.336 157.941C484.915 157.407 484.304 157.057 483.63 156.964C483.302 156.915 482.967 156.931 482.646 157.014C482.324 157.096 482.023 157.242 481.759 157.443C481.495 157.644 481.274 157.896 481.109 158.184C480.945 158.473 480.84 158.791 480.8 159.12Z" fill="#263238"/>
<path d="M493.012 157.251L492.591 173.117L483.815 170.776L493.012 157.251Z" fill="#FFA8A7"/>
<path d="M497.778 192.688C503.875 191.88 516.828 188.814 519.135 184.064C518.166 186.767 516.406 189.115 514.082 190.802C510.141 193.682 497.745 196.124 497.745 196.124L497.778 192.688Z" fill="#FFA8A7"/>
<path d="M475.765 145.814C475.765 145.814 479.369 137.831 503.69 145.006C517.956 149.061 530.889 156.833 541.166 167.525C541.166 167.525 544.417 163.314 544.72 148.038C557.403 131.7 544.518 123.211 527.675 118.495C508.423 113.088 490.738 121.644 485.449 126.579C475.765 135.607 475.765 145.814 475.765 145.814Z" fill="url(#paint0_linear_1070_851)"/>
<path opacity="0.2" d="M475.765 145.814C475.765 145.814 479.369 137.831 503.69 145.006C517.956 149.061 530.889 156.833 541.166 167.525C541.166 167.525 544.417 163.314 544.72 148.038C557.403 131.7 544.518 123.211 527.675 118.495C508.423 113.088 490.738 121.644 485.449 126.579C475.765 135.607 475.765 145.814 475.765 145.814Z" fill="black"/>
<path d="M475.377 146.909C474.451 146.909 474.602 145.224 474.754 142.715C474.906 140.205 476.624 132.996 481.154 131.447C485.685 129.897 503.303 128.246 520.382 136.702C537.461 145.157 544.973 154.993 545.108 157.469C545.242 159.945 543.423 169.933 541.133 170.59V168.805C532.443 159.218 521.417 152.045 509.131 147.987C488.768 141.249 475.933 145.544 475.933 145.544L475.377 146.909Z" fill="url(#paint1_linear_1070_851)"/>
<path opacity="0.3" d="M475.377 146.909C474.451 146.909 474.602 145.224 474.754 142.715C474.906 140.205 476.624 132.996 481.154 131.447C485.685 129.897 503.303 128.246 520.382 136.702C537.461 145.157 544.973 154.993 545.108 157.469C545.242 159.945 543.423 169.933 541.133 170.59V168.805C532.443 159.218 521.417 152.045 509.131 147.987C488.768 141.249 475.933 145.544 475.933 145.544L475.377 146.909Z" fill="black"/>
<path d="M515.396 150.395C519.691 155.263 520.601 168.922 519.27 182.228C517.889 196.208 517.586 204.124 517.586 204.124C517.586 204.124 523.279 193.665 524.121 188.073C524.121 188.073 527.961 193.564 528.298 197.404C529.907 190.356 530.837 183.171 531.077 175.946C531.362 170.322 531.125 164.683 530.37 159.103C525.687 155.33 520.466 151.726 515.396 150.395Z" fill="#F0997A"/>
<path d="M538.488 267.775C539.01 271.413 537.663 273.754 536.955 277.359C536.248 280.963 537.865 282.732 539.6 285.999C541.212 288.968 543.454 291.549 546.169 293.562C549.352 296.088 552.384 296.088 555.432 287.852C556.83 284.012 554.86 278.992 552.333 275.775C549.657 272.663 546.239 270.276 542.396 268.836" fill="#FFC4C3"/>
<path d="M702.27 487.962C697.301 464.567 692.771 453.097 692.771 453.097C692.771 453.097 686.033 357.698 681.183 310.621L588.461 309.964C588.461 309.964 590.28 434.25 591.645 452.171C592.689 465.78 601.565 572.818 601.582 573.003L601.077 577.416C601.751 583.294 620.918 585.383 627.133 580.987L627.251 571.032C627.251 571.032 633.87 494.598 634.494 481.646C635.42 462.832 630.754 450.992 630.754 450.992L638.974 392.31C638.974 392.31 651.084 460.558 655.11 473.157C664.996 504.014 691.861 574.721 691.861 574.721L692.737 579.016C692.198 587.219 713.774 580.161 713.606 573.694L712.427 570.476C712.427 570.476 707.188 511.02 702.27 487.962Z" fill="#9E6767"/>
<path d="M655.649 479.424C652.664 471.22 650.256 462.817 648.44 454.278C642.679 426.756 638.974 392.228 638.974 392.228L633.921 453.638C637.29 466.236 635.437 474.254 635.706 480.957C620.851 485.454 599.022 484.966 593.211 482.793C593.211 482.793 591.881 470.043 590.668 451.65C589.455 433.257 588.445 309.882 588.445 309.882L681.166 310.539C685.309 351.164 691.44 424.701 693.259 443.599C693.546 446.614 699.07 468.443 699.07 468.443C699.07 468.443 690.531 479.424 655.649 479.424Z" fill="#37474F"/>
<path d="M638.974 392.26L634.123 360.14C634.123 360.14 620.126 356.771 610.155 348.737C610.155 348.737 613.76 357.984 629.087 365.159L635.302 392.31L634.494 447.438L638.974 392.26Z" fill="#263238"/>
<path d="M673.738 185.008C681.873 186.456 682.412 190.498 684.198 198.583C685.09 202.592 687.061 211.215 686.286 218.441L680.206 266.242L682.294 321.218C669.174 335.484 616.724 340.065 588.091 319.146C587.973 275.455 588.461 258.814 588.461 226.509C588.461 199.796 600.336 182.885 610.155 179.887L649.248 182.346L673.738 185.008Z" fill="#FF7732"/>
<path d="M656.794 160.805C655.767 162.821 653.998 164.361 651.859 165.1L650.646 125.064C651.488 122.47 652.33 119.876 653.189 117.282C653.783 115.627 654.283 113.94 654.688 112.229C655.192 109.806 656.19 107.513 657.619 105.492C659.051 103.471 661.156 103.235 663.565 103.892C664.436 104.113 665.246 104.531 665.929 105.115C666.613 105.7 667.152 106.434 667.506 107.261C668.382 109.636 667.27 112.314 667.742 114.773C668.415 118.394 672.171 120.634 673.502 124.053C673.982 125.626 674.099 127.287 673.845 128.912C673.591 130.537 672.973 132.083 672.037 133.435C670.145 136.11 668.115 138.684 665.956 141.149C663.649 144.181 662.992 148.24 660.701 151.255C659.614 152.44 658.788 153.84 658.276 155.365C657.922 157.213 657.426 159.032 656.794 160.805Z" fill="#263238"/>
<path d="M586.912 106.907C585.938 108.384 585.405 110.108 585.376 111.876C585.346 113.645 585.82 115.386 586.744 116.895C587.838 118.428 589.59 119.623 589.961 121.476C589.983 123.082 589.721 124.678 589.186 126.192C588.957 128.071 589.368 129.972 590.352 131.588C591.336 133.204 592.836 134.442 594.609 135.102C596.404 135.71 598.321 135.865 600.189 135.553C602.058 135.242 603.821 134.474 605.322 133.317C608.289 130.98 610.455 127.778 611.52 124.154C612.489 121.377 612.84 118.423 612.549 115.496C612.258 112.57 611.332 109.742 609.835 107.21C608.541 105.248 606.795 103.626 604.743 102.48C602.691 101.334 600.394 100.697 598.045 100.624C595.795 100.565 593.57 101.118 591.609 102.225C589.648 103.331 588.025 104.95 586.912 106.907Z" fill="#263238"/>
<path d="M651.64 139.178C653.24 140.054 655.362 136.954 657.215 134.866C659.068 132.777 665.283 129.813 668.668 136.281C672.054 142.748 666.479 152.08 661.577 153.814C653.156 156.829 651.623 151.389 651.623 151.389L652.128 182.279C652.128 182.279 647.075 196.192 631.917 198.819C616.758 201.447 619.47 188.814 624.219 182.498L623.832 171.719C620.039 172.251 616.206 172.449 612.379 172.308C606.063 171.567 601.784 168.939 598.904 160.922C595.114 150.176 594.963 136.5 595.148 114.974C601.515 98.5522 626.072 95.6383 641.231 104.414C656.39 113.189 651.64 139.178 651.64 139.178Z" fill="#C58A8A"/>
<path d="M611.756 114.048C612.938 115.797 614.6 117.169 616.541 117.999C618.482 118.829 620.622 119.083 622.704 118.73C626.864 118.107 631.614 116.069 633.18 112.212C633.644 113.838 634.397 115.367 635.403 116.726C636.436 118.127 637.708 119.336 639.159 120.297C641.82 121.981 645.155 121.526 645.745 125.35C646.2 128.314 646.183 131.43 646.385 134.411C646.412 135.799 646.656 137.175 647.109 138.487C647.339 139.145 647.719 139.741 648.219 140.226C648.719 140.711 649.325 141.073 649.989 141.283C650.5 141.436 651.045 141.436 651.556 141.283C654.015 140.475 655.649 136.449 657.215 134.9C658.293 133.839 658.074 131.38 658.057 130.032C657.987 127.264 657.756 124.503 657.367 121.762C657.03 119.135 656.676 116.49 656.171 113.896C655.666 111.303 656.743 110.427 658.158 108.675C661.224 104.902 662.47 99.8324 659.607 95.5374C658.693 94.1793 657.463 93.0634 656.022 92.2859C654.582 91.5084 652.974 91.0925 651.337 91.074C649.102 91.363 646.853 91.5261 644.6 91.5624C639.85 91.0235 636.818 86.3579 632.725 83.8988C631.003 82.8704 629.079 82.2265 627.084 82.0114C625.09 81.7963 623.073 82.0149 621.171 82.6524C619.87 83.0912 618.672 83.7904 617.651 84.7073C616.439 85.6967 615.13 86.5602 613.743 87.2843C611.565 88.6043 609.119 89.4214 606.585 89.676C604.865 89.8345 603.145 89.3746 601.734 88.3791C601.044 87.8682 600.518 87.168 600.219 86.3637C599.92 85.5593 599.861 84.6855 600.05 83.8483C596.93 85.4612 594.527 88.1829 593.312 91.4782C592.747 93.1248 592.706 94.9062 593.194 96.5772C593.683 98.2483 594.677 99.7268 596.041 100.809C594.818 101.356 593.75 102.197 592.932 103.258C592.115 104.32 591.574 105.568 591.359 106.89C590.954 109.534 592.807 111.707 594.003 114.098C595.199 116.49 599.056 117.467 601.852 117.703C605.491 117.749 609.019 116.447 611.756 114.048Z" fill="#263238"/>
<path d="M623.866 171.719C623.866 171.719 634.864 168.737 639.749 166.059C645.408 162.977 647.901 154.606 648.625 152.585C648.625 152.585 647.261 163.584 643.454 167.306C637.323 173.319 624.034 176.165 624.034 176.165L623.866 171.719Z" fill="#874C4C"/>
<path d="M623.765 133.821C623.808 134.371 624.012 134.896 624.351 135.331C624.691 135.766 625.15 136.091 625.673 136.267C626.196 136.442 626.759 136.46 627.292 136.319C627.825 136.177 628.305 135.881 628.671 135.469C629.037 135.057 629.275 134.546 629.353 134C629.431 133.454 629.347 132.897 629.112 132.399C628.876 131.9 628.499 131.481 628.027 131.195C627.556 130.909 627.011 130.768 626.459 130.79C626.082 130.809 625.713 130.903 625.373 131.066C625.032 131.23 624.728 131.459 624.477 131.741C624.227 132.024 624.034 132.353 623.912 132.71C623.79 133.067 623.74 133.445 623.765 133.821Z" fill="#263238"/>
<path d="M626.577 126.479L633.652 128.752C633.938 127.781 633.835 126.736 633.363 125.839C632.891 124.943 632.088 124.266 631.125 123.952C630.661 123.814 630.173 123.77 629.691 123.822C629.21 123.875 628.743 124.023 628.32 124.259C627.896 124.494 627.524 124.812 627.225 125.193C626.925 125.574 626.705 126.011 626.577 126.479Z" fill="#263238"/>
<path d="M623.445 152.788L613.558 154.304C613.652 154.976 613.88 155.622 614.229 156.204C614.578 156.786 615.04 157.292 615.589 157.691C616.137 158.09 616.761 158.375 617.422 158.528C618.083 158.681 618.768 158.699 619.436 158.582C620.089 158.484 620.715 158.253 621.275 157.904C621.835 157.555 622.318 157.095 622.694 156.552C623.069 156.009 623.33 155.395 623.459 154.748C623.588 154.1 623.583 153.434 623.445 152.788Z" fill="#874C4C"/>
<path d="M619.436 158.648C620.182 158.54 620.892 158.254 621.504 157.814C622.117 157.375 622.615 156.794 622.956 156.121C622.509 155.769 621.992 155.516 621.44 155.38C620.389 155.11 619.274 155.246 618.319 155.761C617.364 156.276 616.638 157.132 616.286 158.159C617.26 158.644 618.361 158.815 619.436 158.648Z" fill="#F28F8F"/>
<path d="M598.517 129.476L604.58 126.107C604.375 125.705 604.091 125.348 603.744 125.057C603.398 124.767 602.997 124.549 602.565 124.417C602.132 124.285 601.678 124.242 601.229 124.289C600.779 124.336 600.344 124.473 599.949 124.692C599.145 125.156 598.549 125.91 598.283 126.799C598.016 127.689 598.1 128.646 598.517 129.476Z" fill="#263238"/>
<path d="M600.588 134.411C600.632 134.96 600.835 135.485 601.174 135.919C601.512 136.354 601.971 136.679 602.493 136.856C603.015 137.032 603.577 137.051 604.109 136.911C604.642 136.77 605.122 136.477 605.489 136.066C605.856 135.655 606.095 135.146 606.175 134.601C606.256 134.056 606.174 133.499 605.941 133C605.708 132.501 605.333 132.082 604.864 131.793C604.394 131.505 603.851 131.361 603.3 131.379C602.923 131.399 602.552 131.493 602.211 131.656C601.87 131.819 601.565 132.048 601.312 132.33C601.06 132.612 600.866 132.941 600.742 133.298C600.618 133.655 600.566 134.034 600.588 134.411Z" fill="#263238"/>
<path d="M616.101 129.476L617.112 148.003L607.461 147.33C607.932 140.997 611.587 134.984 616.101 129.476Z" fill="#874C4C"/>
<path d="M673.974 186.339C691.693 187.012 696.308 198.23 707.66 214.146C715.678 225.448 727.013 242.898 727.013 242.898C727.013 242.898 750.273 208.959 751.57 203.889C753.137 197.792 751.082 195.063 751.57 188.343C752.059 181.622 753.254 177.294 752.379 174.228C751.503 171.163 756.994 171.719 758.425 175.593C759.857 179.467 759.032 184.317 760.733 183.795C762.434 183.273 765.786 173.285 766.224 165.605C766.662 157.924 771.175 156.947 772.169 159.642C772.718 161.084 773.114 162.58 773.348 164.106C773.348 164.106 779.664 163.415 782.511 168.502C785.357 173.588 787.362 180.646 784.869 191.577C782.376 202.508 774.982 209.531 772.422 213.944C768.582 220.547 754.753 258.932 739.763 277.14C732.908 285.46 722.802 282.344 715.913 276.55C702.59 265.333 678.858 234.442 678.858 234.442C671.549 223.259 667.877 199.56 673.974 186.339Z" fill="#C58A8A"/>
<path d="M726.979 242.895C724.015 247.139 720.714 253.944 721.253 259.654C721.253 259.654 717.278 251.687 724.621 239.762L726.979 242.895Z" fill="#874C4C"/>
<path d="M673.232 184.94C682.833 185.698 685.477 186.456 691.76 192.217C698.042 197.977 720.191 232.455 720.191 232.455C720.191 232.455 702.674 244.245 697.924 257.719C691.187 251.521 676.618 235.015 676.618 235.015C671.936 230.855 663.682 199.51 673.232 184.94Z" fill="#FF7732"/>
<path d="M309.422 538.595C311.326 524.918 322.745 457.512 323.031 440.416C323.621 406.882 321.246 336.225 315.789 301.057H246.884C240.989 314.177 234.673 323.34 233.662 348.217C231.523 401.004 231.691 439.17 231.691 439.17C231.287 443.819 228.508 450.573 225.426 474.541C223.32 490.979 223.741 510.703 223.32 524.278C222.899 537.854 223.522 550.2 222.63 560.979C222.327 564.516 218.183 588.838 218.705 596.266C219.497 607.399 234.167 609.538 235.548 603.087C236.93 596.636 238.294 565.931 238.664 563.068C239.523 554.512 244.526 536.826 248.534 520.64C252.543 504.454 265.024 458.321 268.746 443.044C274.052 422.276 279.105 391.706 279.105 391.706L286.415 443.516C286.415 443.516 284.73 464.216 285.269 476.427C285.926 490.643 287.459 518.417 287.408 533.693C287.408 547.96 287.661 554.36 286.246 558.251C285.949 558.669 285.717 559.128 285.556 559.615C283.029 566.268 287.981 573.224 292.124 579.827C293.809 582.471 297.952 592.779 304.555 597.546C313.498 603.997 321.027 602.279 321.617 597.546C316.227 593.941 308.243 583.448 304.959 575.094C303.443 571.085 306.946 555.337 309.422 538.595Z" fill="#B16668"/>
<path d="M279.105 391.705L285.269 354.465C285.269 354.465 307.553 352.057 315.738 344.359C315.738 344.359 305.38 358.659 290.238 360.832L283.501 391.688L286.314 443.043L279.105 391.705Z" fill="#9A4A4D"/>
<path d="M446.239 229.102C443.46 229.86 435.981 238.736 432.141 239.494C428.301 240.252 425.96 240.37 429.16 235.806C432.36 231.241 429.833 225.464 427.475 227.974C425.106 230.666 422.458 233.099 419.576 235.233C415.399 238.416 414.068 242.526 406.472 245.844L365.223 259.891C365.223 259.891 339.386 225.262 332.194 216.268C325.305 207.678 319.511 206.903 309.675 206.078L312.791 240.37C312.791 240.37 333.171 260.936 350.081 277.054C356.482 283.168 360.002 285.678 366.453 284.28C372.011 283.084 414.085 263.597 414.085 263.597C418.884 261.659 423.781 259.972 428.756 258.544C436.52 256.523 442.819 253.744 445.851 248.438C448.883 243.132 447.94 238.332 447.856 235.671C447.771 233.01 449.001 228.344 446.239 229.102Z" fill="#B16668"/>
<path d="M320.825 313.217C318.332 300.13 315.772 287.279 315.772 287.279C316.227 277.695 320.69 267.943 321.077 263.547C331.183 252.969 333.524 241.247 326.585 228.176C322.181 219.95 316.457 212.501 309.641 206.129L296.166 205.169L277.252 204.646L257.478 206.685C258.308 221.162 254.82 235.559 247.456 248.051L252.408 283.422C252.644 289.62 248.265 295.448 244.846 302.673C233.392 324.199 231.017 333.378 229.35 375.52C227.682 417.661 227.379 450.758 226.335 456.906C218.789 500.782 210.57 567.733 210.57 567.733C210.57 567.733 221.316 596.703 274.776 594.21C328.236 591.718 334.097 562.714 334.097 562.714C334.097 562.714 332.413 452.307 330.341 409.745C328.269 367.182 323.318 326.27 320.825 313.217Z" fill="url(#paint2_linear_1070_851)"/>
<path d="M171.393 267.858C178.13 271.901 187.107 282.377 202.923 290.714C208.886 293.847 215.572 293.46 222.781 284.129C228.693 276.499 253.385 248.219 253.385 248.219C255.884 234.51 257.253 220.618 257.478 206.684C248.096 207.712 244.003 207.712 234.285 223.258C225.863 236.816 205.989 266.157 205.989 266.157C205.989 266.157 175.536 251.403 172.875 248.219C170.214 245.036 169.506 241.718 166.643 237.793C164.609 235.137 162.859 232.275 161.422 229.254C159.956 226.39 156.184 230.938 157.885 235.823C159.586 240.707 157.531 240.033 154.263 238.366C150.996 236.698 146.6 226.812 144.309 225.414C142.019 224.016 141.968 228.496 141.193 230.938C140.418 233.38 138.313 237.389 139.677 242.897C141.042 248.404 146.415 254.131 152.916 257.938C159.417 261.744 164.706 263.799 171.393 267.858Z" fill="#B16668"/>
<path d="M205.989 266.124C210.419 268.246 215.488 273.939 216.095 278.083C215.917 275.137 215.117 272.263 213.747 269.65C212.376 267.037 210.467 264.744 208.145 262.924L205.989 266.124Z" fill="#9A4A4D"/>
<path d="M273.361 204.999L299.181 205.336C299.181 205.336 319.545 205.336 324.446 207.323C329.347 209.311 333.036 215.206 339.234 223.223C345.433 231.241 362.815 256.589 362.815 256.589C362.815 256.589 341.424 286.772 304.655 273.837C267.887 260.901 256.383 230.045 257.495 206.65L273.361 204.999Z" fill="url(#paint3_linear_1070_851)"/>
<path opacity="0.8" d="M273.361 204.999L299.181 205.336C299.181 205.336 319.545 205.336 324.446 207.323C329.347 209.311 333.036 215.206 339.234 223.223C345.433 231.241 362.815 256.589 362.815 256.589C362.815 256.589 341.424 286.772 304.655 273.837C267.887 260.901 256.383 230.045 257.495 206.65L273.361 204.999Z" fill="white"/>
<path d="M273.209 193.817C270.767 190.785 266.674 188.461 260.914 181.622C252.897 172.106 247.153 148.879 258.505 134.563C269.858 120.246 291.787 116.844 303.847 127.371C327.158 123.564 326.754 150.951 321.263 156.004L273.209 193.817Z" fill="#37474F"/>
<path d="M274.776 187.012C273.31 194.103 270.936 198.078 264.367 201.48C266.742 207.358 264.805 211.754 260.105 215.594C261.427 217.819 261.937 220.434 261.547 222.992C261.156 225.551 259.891 227.895 257.966 229.625C260.762 234.021 260.004 238.552 257.966 243.099C262.48 246.906 265.478 250.948 264.586 256.944C267.398 258.477 269.1 258.915 270.936 262.284C272.771 265.652 272.974 271.766 269.588 274.966C269.588 272.204 270.228 270.436 266.843 268.701C263.457 266.966 259.651 264.406 261.049 259.403C253.587 258.443 251.903 251.336 251.347 245.07C245.772 240.657 245.351 235.234 248.854 229.355C244.542 223.612 245.401 218.34 250.539 213.59C246.041 208.251 248.534 202.457 252.071 197.404C246.665 186.894 252.24 178.068 260.594 171.516C265.377 176.625 270.105 181.79 274.776 187.012Z" fill="#37474F"/>
<path d="M259.246 165.352C259.752 164.677 260.409 164.132 261.165 163.759C261.921 163.385 262.754 163.195 263.596 163.203C264.439 163.212 265.268 163.418 266.016 163.806C266.765 164.194 267.411 164.752 267.904 165.436C268.645 166.48 269.116 167.693 269.841 168.804C270.169 169.359 270.625 169.828 271.169 170.173C271.713 170.519 272.332 170.731 272.974 170.792C273.462 170.775 273.942 170.651 274.378 170.43C274.814 170.209 275.197 169.896 275.5 169.512C276.108 168.737 276.57 167.858 276.864 166.918C278.06 163.549 277.74 161.528 279.845 156.054C284.023 145.174 292.596 148.626 303.241 136.819C305.043 136.819 318.719 143.119 320.572 151.86C321.632 157.476 321.988 163.202 321.633 168.905C320.875 186.725 314.997 193.8 311.932 195.366C308.866 196.932 305.194 197.286 299.181 196.663V206.769C299.181 206.769 295.695 214.533 288.233 214.213C273.411 213.54 273.378 206.668 273.378 206.668L273.041 179.719C273.041 179.719 269.083 185.294 262.935 180.51C257.781 176.468 255.709 169.411 259.246 165.352Z" fill="#B16668"/>
<path d="M304.655 152.062C305.669 152.062 306.491 151.24 306.491 150.227C306.491 149.213 305.669 148.391 304.655 148.391C303.642 148.391 302.82 149.213 302.82 150.227C302.82 151.24 303.642 152.062 304.655 152.062Z" fill="#9A4A4D"/>
<path d="M297.042 164.005C297.104 164.706 296.891 165.404 296.448 165.951C296.005 166.497 295.366 166.851 294.668 166.935C294.328 166.98 293.984 166.956 293.654 166.865C293.324 166.774 293.016 166.618 292.747 166.406C292.479 166.194 292.256 165.931 292.091 165.631C291.926 165.331 291.823 165.002 291.787 164.661C291.73 163.959 291.947 163.261 292.393 162.714C292.839 162.168 293.479 161.815 294.179 161.731C294.517 161.686 294.861 161.71 295.19 161.801C295.519 161.892 295.826 162.048 296.093 162.261C296.36 162.473 296.582 162.736 296.745 163.036C296.908 163.336 297.009 163.665 297.042 164.005Z" fill="#263238"/>
<path d="M318.063 158.328L312.42 155.549C312.583 155.171 312.821 154.831 313.12 154.549C313.419 154.267 313.773 154.049 314.16 153.908C314.546 153.768 314.957 153.708 315.368 153.732C315.778 153.757 316.18 153.865 316.547 154.05C317.287 154.446 317.853 155.104 318.133 155.895C318.414 156.687 318.389 157.554 318.063 158.328Z" fill="#263238"/>
<path d="M295.746 156.156L290.171 159.07C289.964 158.716 289.832 158.324 289.782 157.918C289.731 157.511 289.764 157.099 289.877 156.706C289.991 156.312 290.182 155.946 290.441 155.628C290.7 155.311 291.02 155.049 291.383 154.859C292.141 154.491 293.009 154.42 293.817 154.66C294.624 154.9 295.312 155.434 295.746 156.156Z" fill="#263238"/>
<path d="M296.167 178.759L306.407 182.128C306.166 182.841 305.778 183.495 305.269 184.049C304.76 184.604 304.14 185.046 303.451 185.347C302.761 185.648 302.016 185.802 301.264 185.799C300.511 185.795 299.767 185.635 299.08 185.328C298.455 185.091 297.884 184.733 297.398 184.273C296.913 183.814 296.523 183.263 296.252 182.652C295.981 182.041 295.834 181.382 295.819 180.714C295.805 180.046 295.923 179.382 296.167 178.759Z" fill="#9A4A4D"/>
<path d="M302.045 185.765C301.891 184.376 301.231 183.092 300.19 182.16C299.148 181.228 297.8 180.712 296.402 180.712H295.88C295.834 181.738 296.121 182.752 296.698 183.601C297.274 184.451 298.11 185.092 299.08 185.428C300.025 185.785 301.044 185.901 302.045 185.765Z" fill="#F28F8F"/>
<path d="M316.9 162.994C316.957 163.702 316.736 164.404 316.283 164.951C315.83 165.499 315.181 165.848 314.475 165.924C314.136 165.969 313.791 165.945 313.462 165.854C313.132 165.763 312.823 165.607 312.555 165.395C312.286 165.183 312.063 164.92 311.898 164.62C311.733 164.32 311.63 163.991 311.595 163.651C311.537 162.95 311.752 162.255 312.194 161.709C312.637 161.163 313.273 160.809 313.97 160.72C314.313 160.668 314.663 160.686 314.998 160.774C315.334 160.861 315.649 161.016 315.923 161.228C316.197 161.441 316.425 161.707 316.593 162.011C316.761 162.314 316.866 162.648 316.9 162.994Z" fill="#263238"/>
<path d="M304.656 160.181L304.824 176.535L313.902 174.261L304.656 160.181Z" fill="#9A4A4D"/>
<path d="M299.182 196.579C292.899 195.636 279.61 192.284 277.286 187.366C278.218 190.171 279.98 192.626 282.339 194.407C286.347 197.455 299.097 200.167 299.097 200.167L299.182 196.579Z" fill="#9A4A4D"/>
<path d="M105.907 317.479C103.936 359.772 93.8302 453.571 93.8302 453.571C93.0554 458.759 84.937 480.655 84.1622 499.452C82.9495 528.944 81.72 551.261 81.72 551.261C81.72 551.261 98.0241 558.217 110.252 554.04C110.252 554.04 127.668 491.721 132.603 472.301C138.481 449.125 152.815 406.141 152.815 406.141L150.153 467.753C148.289 480.068 147.792 492.552 148.671 504.976C149.783 517.44 153.859 552.137 153.859 552.137C153.859 552.137 169.018 555.59 182.189 552.053C182.189 552.053 192.093 477.943 193.053 466.54C194.131 453.521 201.66 322.549 201.66 322.549L105.907 317.479Z" fill="#455A64"/>
<path opacity="0.25" d="M152.781 406.141L159.72 367.014C159.72 367.014 174.121 366.829 184.21 357.868C184.21 357.868 182.745 367.048 164.605 372.117L156.924 405.063L150.002 466.557L152.781 406.141Z" fill="#FF7732"/>
<path d="M152.781 406.141L159.72 367.014C159.72 367.014 174.121 366.829 184.21 357.868C184.21 357.868 182.745 367.048 164.605 372.117L156.924 405.063L150.002 466.557L152.781 406.141Z" fill="#37474F"/>
<path d="M117.613 197C112.644 200.987 108.652 206.057 105.94 211.822C104.256 215.359 100.669 218.896 102.841 240.135C104.896 260.347 107.052 271.261 106.968 286.976L105.081 324.418C116.417 339.122 172.572 349.582 201.643 331.98C201.643 331.98 205.466 259.1 204.675 234.964C204.153 218.576 199.992 203.097 194.569 197.792C186.989 196.107 179.612 194.743 179.612 194.743L151.568 191.694L117.613 197Z" fill="#455A64"/>
<path d="M210.166 135.102C210.09 133.459 209.594 131.863 208.724 130.468C207.853 129.073 206.639 127.925 205.197 127.135C206.189 126.36 206.893 125.277 207.198 124.056C207.503 122.835 207.392 121.548 206.881 120.398C206.293 119.251 205.367 118.313 204.229 117.71C203.09 117.108 201.793 116.87 200.514 117.029C201.238 116.521 201.853 115.871 202.32 115.12C202.788 114.369 203.099 113.532 203.236 112.658C203.373 111.784 203.332 110.891 203.116 110.033C202.9 109.175 202.514 108.37 201.98 107.664C200.742 106.301 199.043 105.445 197.21 105.261C195.378 105.078 193.543 105.58 192.059 106.671C192.221 104.932 191.816 103.187 190.906 101.697C189.995 100.206 188.627 99.0502 187.006 98.4005C185.354 97.7532 183.545 97.6207 181.817 98.0205C180.088 98.4204 178.521 99.3337 177.322 100.641C177.574 100.338 175.924 98.2153 175.637 97.9289C174.603 96.6512 173.297 95.6206 171.814 94.9124C170.33 94.2043 168.708 93.8366 167.064 93.8361C164.896 93.6883 162.733 94.1974 160.858 95.2971C158.983 96.3967 157.483 98.0358 156.554 100.001C154.469 98.49 151.985 97.6287 149.412 97.5247C147.695 97.4126 145.974 97.6636 144.36 98.2614C142.747 98.8593 141.277 99.7905 140.048 100.994C138.976 102.163 138.176 103.554 137.707 105.069C137.239 106.583 137.112 108.183 137.336 109.753C131.828 108.742 127.23 109.399 124.047 114.503C123.009 116.187 122.468 118.131 122.486 120.109C122.504 122.087 123.08 124.021 124.148 125.686C119.095 125.686 116.737 131.531 116.787 134.108C116.81 135.799 117.359 137.441 118.358 138.805C119.358 140.17 120.757 141.189 122.362 141.721C120.948 142.391 119.789 143.502 119.06 144.887C118.331 146.272 118.071 147.856 118.32 149.401C118.567 151.054 119.272 152.604 120.356 153.875C121.44 155.147 122.858 156.088 124.451 156.593C123.36 157.814 122.687 159.351 122.53 160.981C122.372 162.61 122.739 164.248 123.575 165.655C124.596 167.075 126.021 168.156 127.664 168.757C129.306 169.357 131.092 169.45 132.788 169.024C132.569 172.999 135.146 176.047 139.425 177.142C142.338 177.883 147.24 175.458 148.756 172.645C149.901 170.506 153.707 170.725 156.352 171.213C158.205 171.5 159.316 172.258 160.647 172.308C171.419 172.781 182.128 170.423 191.706 165.47C195.84 163.064 199.597 160.061 202.856 156.56C209.593 153.848 209.071 145.898 205.584 143.271C207.002 142.436 208.174 141.24 208.979 139.805C209.784 138.37 210.193 136.747 210.166 135.102Z" fill="#F28F8F"/>
<path d="M134.624 165.689C140.486 170.102 144.494 166.11 144.494 166.11L143.501 194.474C145.393 198.8 148.645 202.389 152.764 204.698C159.35 208.066 166.929 211.334 173.212 219.334C179.225 211.384 182.829 202.39 175.115 194.844L175.418 186.423C178.599 186.914 181.819 187.106 185.036 186.995C191.183 186.456 195.31 181.943 197.567 175.424C201.188 165.032 200.935 149.957 198.14 129.156C191.689 123.43 170.062 120.28 155.173 128.398C155.072 140.542 153.758 145.983 151.973 149.789C151.651 150.676 151.116 151.469 150.413 152.098C149.711 152.727 148.864 153.172 147.947 153.393C146.347 153.798 144.41 150.025 142.675 147.919C140.94 145.814 134.995 142.867 131.542 149.014C130.046 151.721 129.535 154.863 130.098 157.903C130.66 160.944 132.26 163.696 134.624 165.689Z" fill="#FFC4C3"/>
<path d="M175.418 186.473C168.681 185.648 155.392 181.605 152.04 177.613C148.688 173.622 147.644 165.823 147.644 165.823C147.644 165.823 147.644 175.559 150.053 180.022C152.461 184.485 159.485 186.759 163.679 188.174C167.49 189.24 171.359 190.089 175.267 190.717L175.418 186.473Z" fill="#FFA8A7"/>
<path d="M173.212 219.333C169.843 216.941 162.651 207.543 158.508 211.434C154.364 215.324 152.225 216.284 149.732 215.341C147.24 214.398 141.951 208.486 138.532 204.174C136.341 201.142 134.904 197.632 134.338 193.934C136.381 191.772 138.278 189.476 140.014 187.062C141.968 184.064 141.698 183.171 143.905 183.171L143.719 189.032C143.719 189.032 144.932 192.317 150.962 197.066C156.992 201.816 169.321 209.076 173.212 219.333Z" fill="#455A64"/>
<path d="M173.212 219.334C175.435 217.549 179.444 208.841 180.337 209.228C181.65 209.717 183.705 215.965 184.901 214.668C186.905 212.529 187.023 202.12 184.21 198.162C181.398 194.204 177.591 189.909 175.317 189.37L175.115 194.911C176.302 197.782 176.875 200.868 176.8 203.973C176.564 207.039 173.852 216.353 173.212 219.334Z" fill="#455A64"/>
<path d="M173.902 148.004C173.887 148.369 173.8 148.728 173.646 149.059C173.492 149.39 173.275 149.688 173.006 149.935C172.737 150.183 172.421 150.374 172.078 150.5C171.735 150.625 171.37 150.681 171.005 150.665C170.271 150.597 169.592 150.242 169.117 149.678C168.641 149.114 168.406 148.386 168.462 147.65C168.47 147.282 168.552 146.919 168.704 146.583C168.855 146.247 169.073 145.946 169.345 145.696C169.616 145.447 169.936 145.256 170.283 145.133C170.631 145.011 170.999 144.96 171.367 144.984C171.735 145.008 172.094 145.106 172.423 145.272C172.751 145.439 173.043 145.67 173.28 145.952C173.517 146.235 173.694 146.562 173.801 146.915C173.908 147.267 173.943 147.638 173.902 148.004Z" fill="#263238"/>
<path d="M172.622 138.183L166.879 141.552C166.44 140.764 166.324 139.837 166.557 138.966C166.79 138.096 167.352 137.349 168.125 136.886C168.504 136.668 168.922 136.528 169.356 136.475C169.79 136.423 170.229 136.458 170.649 136.579C171.069 136.7 171.46 136.904 171.799 137.18C172.138 137.456 172.418 137.797 172.622 138.183Z" fill="#B16668"/>
<path d="M196.843 142.157L190.981 138.789C191.178 138.397 191.452 138.05 191.787 137.768C192.121 137.486 192.51 137.274 192.929 137.147C193.348 137.019 193.788 136.978 194.224 137.026C194.659 137.073 195.08 137.209 195.461 137.424C196.266 137.875 196.861 138.624 197.119 139.509C197.377 140.394 197.278 141.345 196.843 142.157Z" fill="#B16668"/>
<path d="M194.485 149.199C194.427 149.73 194.215 150.233 193.875 150.645C193.535 151.057 193.081 151.36 192.57 151.517C192.059 151.673 191.513 151.676 191 151.525C190.488 151.373 190.031 151.075 189.686 150.667C189.341 150.258 189.124 149.757 189.062 149.227C188.999 148.696 189.094 148.158 189.334 147.681C189.574 147.204 189.949 146.807 190.413 146.541C190.876 146.275 191.408 146.151 191.941 146.184C192.676 146.253 193.354 146.607 193.83 147.171C194.306 147.735 194.541 148.463 194.485 149.199Z" fill="#263238"/>
<path d="M180.539 142.563L181.229 162.253L191.925 159.777L180.539 142.563Z" fill="#FFA8A7"/>
<path d="M172.69 166.261L183.789 169.495C183.61 170.237 183.282 170.935 182.827 171.547C182.371 172.159 181.797 172.673 181.138 173.059C180.479 173.444 179.749 173.692 178.992 173.789C178.235 173.886 177.467 173.829 176.732 173.622C175.236 173.157 173.979 172.131 173.225 170.758C172.471 169.385 172.279 167.773 172.69 166.261Z" fill="#B16668"/>
<path d="M176.732 173.638C176.959 173.695 177.189 173.735 177.422 173.756C177.478 172.389 176.996 171.054 176.08 170.037C175.164 169.021 173.887 168.403 172.521 168.316C172.601 169.525 173.046 170.682 173.798 171.632C174.55 172.583 175.573 173.282 176.732 173.638Z" fill="#F28F8F"/>
<path d="M116.787 198.465C98.26 199.155 93.4934 210.861 81.7033 227.452C73.2817 239.242 61.4915 257.415 61.4915 257.415C61.4915 257.415 37.2543 222.045 35.89 216.756C34.2057 210.406 36.4122 207.56 35.89 200.553C35.3679 193.546 34.0373 189.032 35.031 185.832C36.0248 182.632 30.2308 183.222 28.7317 187.264C27.2327 191.306 28.1085 196.359 26.3232 195.803C24.5378 195.248 21.0176 184.855 20.6134 176.855C20.2091 168.854 15.4594 167.827 14.4151 170.64C13.8389 172.135 13.4267 173.688 13.1856 175.272C13.1856 175.272 6.5999 174.564 3.63552 179.87C0.671134 185.175 -1.41741 192.519 1.17643 203.922C3.77026 215.325 11.4676 222.634 14.1456 227.233C18.1543 234.121 32.572 274.124 48.1855 293.106C55.327 301.78 65.8708 298.529 73.0459 292.483C87.093 280.794 111.751 248.556 111.751 248.556C124.468 236.597 123.137 212.242 116.787 198.465Z" fill="#FFC4C3"/>
<path d="M61.5251 257.416C64.6074 261.845 68.0603 268.936 67.4876 274.882C67.4876 274.882 71.2941 266.578 63.6642 254.148L61.5251 257.416Z" fill="#FFA8A7"/>
<path d="M117.613 197C107.608 197.791 104.846 198.6 98.3274 204.596C91.8092 210.592 68.7004 246.518 68.7004 246.518C68.7004 246.518 86.9752 258.898 91.9271 272.894C99.018 266.444 117.983 244.884 117.983 244.884C117.983 244.884 134.658 219.131 117.613 197Z" fill="#455A64"/>
<path d="M367.446 296.896C361.703 310.067 355.487 319.281 354.746 344.057C353.18 396.809 353.769 434.892 353.769 434.892C353.416 439.557 351.058 446.379 347.908 470.346C345.264 490.423 341.912 550.216 341.912 550.216C349.927 554.18 359.086 555.176 367.766 553.029C371.387 533.104 385.502 461.386 390.908 438.412C395.81 417.56 400.661 387.04 400.661 387.04L402.968 441.747C402.968 441.747 401.486 462.447 402.176 474.624C402.985 488.823 409.537 547.286 409.537 547.286C409.537 547.286 423.281 552.776 436.301 546.831C436.301 546.831 439.349 455.339 439.45 438.243C439.686 404.742 446.962 331.104 441.135 296.037L367.446 296.896Z" fill="#37474F"/>
<path d="M400.661 387.091L406.404 349.851C406.404 349.851 425.774 350.003 433.859 342.238C433.859 342.238 431.13 352.765 411.44 356.184L405.107 387.075L402.901 441.394L400.661 387.091Z" fill="#263238"/>
<path d="M447.535 328.089C446.205 299.035 445.682 268.296 446.07 263.9C451.931 256.27 449.977 237.709 443.038 224.605C437.362 213.842 434.28 209.076 430.271 205.32L416.796 204.376L397.882 203.837L378.057 205.892C387.574 241.027 366.267 253.912 366.267 253.912L371.32 280.507C371.556 286.705 366.991 293.308 363.572 300.534C352.119 322.059 350.098 330.447 346.965 374.172C346.19 385.322 345.281 396.893 344.944 406.46C346.628 412.439 415.365 433.409 450.954 408.919C448.798 366.356 448.074 341.429 447.535 328.089Z" fill="url(#paint4_linear_1070_851)"/>
<path opacity="0.6" d="M447.535 328.089C446.205 299.035 445.682 268.296 446.07 263.9C451.931 256.27 449.977 237.709 443.038 224.605C437.362 213.842 434.28 209.076 430.271 205.32L416.796 204.376L397.882 203.837L378.057 205.892C387.574 241.027 366.267 253.912 366.267 253.912L371.32 280.507C371.556 286.705 366.991 293.308 363.572 300.534C352.119 322.059 350.098 330.447 346.965 374.172C346.19 385.322 345.281 396.893 344.944 406.46C346.628 412.439 415.365 433.409 450.954 408.919C448.798 366.356 448.074 341.429 447.535 328.089Z" fill="white"/>
<path d="M395.221 193.496C392.661 190.599 391.044 184.789 384.98 178.237C376.559 169.108 371.354 153.915 381.46 141.182C391.566 128.448 410.733 127.219 423.568 129.83C440.933 133.333 441.927 153.966 441.927 153.966L395.221 193.496Z" fill="#FAFAFA"/>
<path d="M394.058 166.667C399.364 147.112 412.704 140.307 427.357 140.829C434.633 141.082 442.903 142.514 442.971 165.235C442.971 183.055 436.924 191.544 433.943 193.245C430.962 194.946 427.206 195.468 421.277 195.115L421.732 205.221C421.732 205.221 429.884 211.402 426.161 220.834C420.384 220.324 414.711 218.979 409.318 216.842C397.309 211.554 395.844 206.282 395.844 206.282L394.277 179.333C394.277 179.333 392.964 170.659 394.058 166.667Z" fill="#F28F8F"/>
<path d="M427.425 195.098H426.633C426.903 195.131 427.172 195.131 427.425 195.098Z" fill="#FFBDA7"/>
<path d="M417.655 161.563C417.743 162.258 417.559 162.959 417.142 163.521C416.724 164.083 416.106 164.462 415.415 164.578C415.078 164.641 414.732 164.634 414.398 164.56C414.063 164.485 413.747 164.344 413.469 164.144C413.19 163.944 412.955 163.69 412.777 163.397C412.6 163.104 412.483 162.778 412.434 162.439C412.346 161.744 412.53 161.043 412.948 160.481C413.365 159.919 413.984 159.54 414.674 159.424C415.011 159.359 415.358 159.364 415.694 159.437C416.029 159.511 416.346 159.652 416.625 159.852C416.904 160.052 417.139 160.307 417.317 160.601C417.494 160.896 417.609 161.223 417.655 161.563Z" fill="#263238"/>
<path d="M439.114 155.517L433.354 153.007C433.497 152.622 433.718 152.271 434.003 151.975C434.288 151.68 434.63 151.446 435.009 151.288C435.388 151.13 435.796 151.051 436.206 151.057C436.617 151.063 437.022 151.154 437.396 151.323C438.153 151.683 438.748 152.312 439.066 153.087C439.383 153.863 439.401 154.729 439.114 155.517Z" fill="#263238"/>
<path d="M415.651 154.219L410.228 157.385C410.006 157.041 409.857 156.655 409.788 156.251C409.72 155.847 409.735 155.433 409.831 155.035C409.927 154.637 410.102 154.262 410.347 153.934C410.592 153.605 410.901 153.33 411.255 153.124C411.993 152.727 412.852 152.62 413.665 152.822C414.478 153.024 415.186 153.522 415.651 154.219Z" fill="#263238"/>
<path d="M417.42 178.44L426.262 180.966C426.084 181.583 425.779 182.155 425.367 182.647C424.955 183.138 424.445 183.539 423.87 183.822C423.295 184.106 422.667 184.267 422.026 184.294C421.385 184.321 420.746 184.215 420.148 183.981C419.602 183.801 419.097 183.514 418.664 183.136C418.23 182.759 417.876 182.299 417.622 181.783C417.367 181.267 417.219 180.706 417.184 180.132C417.149 179.558 417.229 178.983 417.42 178.44Z" fill="#B16668"/>
<path d="M422.692 184.165C422.517 182.971 421.901 181.885 420.966 181.121C420.031 180.358 418.844 179.971 417.639 180.039H417.184C417.184 180.913 417.466 181.764 417.987 182.465C418.509 183.166 419.244 183.679 420.081 183.93C420.918 184.226 421.816 184.307 422.692 184.165Z" fill="#FFC4C3"/>
<path d="M437.682 160.046C437.77 160.743 437.587 161.446 437.17 162.011C436.752 162.576 436.134 162.958 435.442 163.078C435.106 163.14 434.761 163.134 434.427 163.059C434.094 162.984 433.779 162.843 433.502 162.643C433.225 162.443 432.991 162.189 432.815 161.896C432.639 161.603 432.524 161.277 432.478 160.939C432.38 160.245 432.559 159.542 432.974 158.978C433.39 158.414 434.01 158.036 434.701 157.924C435.037 157.861 435.381 157.867 435.715 157.941C436.048 158.014 436.364 158.154 436.642 158.352C436.92 158.55 437.156 158.802 437.334 159.093C437.513 159.384 437.631 159.708 437.682 160.046Z" fill="#263238"/>
<path d="M425.067 156.678L426.262 173.352L434.954 172.123C432.998 166.231 429.599 160.921 425.067 156.678Z" fill="#B16668"/>
<path d="M432.511 279.902C432.713 279.7 432.713 279.464 432.814 279.212C432.945 278.879 433.115 278.562 433.319 278.268C433.678 277.697 433.972 277.086 434.195 276.449C434.578 275.254 434.705 273.991 434.566 272.744C434.581 272.06 434.38 271.388 433.993 270.824C433.872 270.697 433.712 270.614 433.538 270.588H433.404C433.251 270.765 433.126 270.963 433.033 271.177C433.066 271.505 433.139 271.828 433.252 272.137C433.459 273.355 433.396 274.602 433.067 275.792C432.881 276.462 432.627 277.111 432.309 277.729C432.107 278.037 431.999 278.397 431.999 278.765C431.999 279.133 432.107 279.493 432.309 279.801C432.309 279.885 432.511 279.986 432.595 279.885L432.511 279.902Z" fill="#455A64"/>
<path d="M436.031 279.835C436.688 278.345 437.125 276.767 437.328 275.152C437.421 274.493 437.421 273.824 437.328 273.165C437.306 272.771 437.192 272.388 436.996 272.046C436.8 271.704 436.528 271.413 436.2 271.194C436.163 271.177 436.124 271.168 436.084 271.166C436.044 271.165 436.004 271.171 435.966 271.185C435.928 271.199 435.894 271.221 435.865 271.248C435.835 271.276 435.812 271.309 435.796 271.346C435.61 271.716 435.796 271.986 436.015 272.323C436.121 272.566 436.2 272.82 436.25 273.08C436.343 273.683 436.343 274.297 436.25 274.9C436.25 275.523 436.065 276.129 435.947 276.735C435.748 277.635 435.607 278.546 435.526 279.464C435.526 279.683 435.897 280.188 436.048 279.835H436.031Z" fill="#455A64"/>
<path d="M439.535 279.279C440.333 277.969 440.714 276.448 440.63 274.917C440.633 274.159 440.559 273.403 440.411 272.66C440.276 271.918 440.141 270.975 439.451 270.47C439.381 270.414 439.295 270.383 439.206 270.383C439.117 270.383 439.031 270.414 438.962 270.47C438.693 270.773 438.878 271.127 438.962 271.464C439.046 271.801 439.147 272.087 439.232 272.407C439.402 273.114 439.498 273.836 439.518 274.563C439.443 275.979 439.257 277.387 438.962 278.774C438.962 279.06 439.232 279.599 439.501 279.228L439.535 279.279Z" fill="#455A64"/>
<path d="M442.011 278.554C442.514 278.073 442.845 277.44 442.954 276.752C443.134 276.025 443.196 275.275 443.139 274.529C443.106 273.833 443.021 273.14 442.886 272.457C442.817 271.702 442.543 270.98 442.095 270.368C441.977 270.25 441.64 270.116 441.539 270.368C441.236 270.958 441.539 271.699 441.741 272.305C441.884 272.932 441.986 273.568 442.044 274.209C442.12 274.824 442.12 275.446 442.044 276.061C441.96 276.769 441.707 277.459 441.64 278.167C441.64 278.352 441.808 278.756 442.044 278.588L442.011 278.554Z" fill="#455A64"/>
<path d="M444.554 279.413C445.098 278.687 445.467 277.845 445.632 276.953C445.908 275.962 446.027 274.933 445.985 273.905C445.954 273.02 445.765 272.147 445.43 271.328C445.153 270.443 444.551 269.697 443.745 269.239C443.526 269.138 443.425 269.408 443.459 269.576C443.591 269.993 443.79 270.386 444.049 270.738C444.224 271.035 444.376 271.345 444.503 271.665C444.781 272.368 444.935 273.115 444.958 273.871C444.981 274.703 444.901 275.535 444.722 276.347C444.468 277.253 444.282 278.176 444.166 279.109C444.166 279.328 444.352 279.733 444.587 279.48L444.554 279.413Z" fill="#455A64"/>
<path d="M447.67 278.234C448.777 276.75 449.336 274.929 449.253 273.08C449.268 272.22 449.189 271.362 449.018 270.52C448.925 269.562 448.53 268.66 447.889 267.943C447.687 267.774 447.367 267.69 447.266 267.943C447.187 268.343 447.246 268.759 447.434 269.122C447.535 269.475 447.653 269.829 447.737 270.2C447.936 271.005 448.043 271.83 448.057 272.659C447.954 274.37 447.661 276.065 447.182 277.712C447.182 277.897 447.417 278.503 447.67 278.217V278.234Z" fill="#455A64"/>
<path d="M451.089 275.96C451.477 275.259 451.712 274.484 451.78 273.686C451.889 272.746 451.889 271.797 451.78 270.857C451.726 268.989 451.016 267.2 449.775 265.804C449.59 265.669 449.354 265.669 449.304 265.921C449.306 266.691 449.497 267.449 449.86 268.128C450.15 268.913 450.359 269.726 450.483 270.553C450.586 271.357 450.631 272.168 450.617 272.979C450.617 273.888 450.466 274.781 450.516 275.69C450.516 275.943 450.853 276.398 451.089 276.044V275.96Z" fill="#455A64"/>
<path d="M431.231 204.731C437.362 206.887 443.931 217.835 447.72 230.737C451.51 243.639 453.026 267.893 453.026 267.893C453.026 267.893 447.72 274.529 431.231 273.956C431.231 273.956 438.052 236.8 431.231 217.835V204.731Z" fill="url(#paint5_linear_1070_851)"/>
<path opacity="0.25" d="M431.231 204.731C437.362 206.887 443.931 217.835 447.72 230.737C451.51 243.639 453.026 267.893 453.026 267.893C453.026 267.893 447.72 274.529 431.231 273.956C431.231 273.956 438.052 236.8 431.231 217.835V204.731Z" fill="black"/>
<path opacity="0.1" d="M434.212 244.481C435.872 242.79 437.073 240.703 437.699 238.417C441.488 225.751 433.875 206.163 431.231 204.731V217.835C433.842 225.094 434.448 234.998 434.212 244.481Z" fill="black"/>
<path d="M380.971 184.233C381.359 187.265 380.247 197.708 378.799 199.679C377.35 201.649 375.245 202.677 374.925 206.416L380.668 205.675C380.668 205.675 386.631 222.012 404.249 236.177C421.866 250.343 433.202 246.283 435.072 239.411C437.699 229.811 432.916 209.346 431.231 204.748C429.547 200.15 427.425 199.46 427.425 199.46L380.971 184.233Z" fill="url(#paint6_linear_1070_851)"/>
<path opacity="0.25" d="M380.971 184.233C381.359 187.265 380.247 197.708 378.799 199.679C377.35 201.649 375.245 202.677 374.925 206.416L380.668 205.675C380.668 205.675 386.631 222.012 404.249 236.177C421.866 250.343 433.202 246.283 435.072 239.411C437.699 229.811 432.916 209.346 431.231 204.748C429.547 200.15 427.425 199.46 427.425 199.46L380.971 184.233Z" fill="black"/>
<path opacity="0.1" d="M381.039 184.233C380.798 191.489 382.9 198.629 387.035 204.597C393.873 214.079 407.617 218.391 418.767 215.999C429.917 213.608 431.938 208.437 427.29 203.94C422.641 199.443 381.039 184.233 381.039 184.233Z" fill="black"/>
<path d="M427.829 208.369C427.496 209.357 426.829 210.197 425.942 210.744C424.123 212.092 420.603 213.591 413.815 214.113C409.627 214.382 405.425 213.85 401.435 212.547C390.673 209.009 380.264 199.072 380.702 177.092C381.683 178.515 382.909 179.752 384.323 180.747C390.723 185.227 394.429 179.484 394.429 179.484C396.281 184.638 397.225 187.518 402.193 190.853C408.459 195.063 421.26 195.265 421.26 195.265C421.832 195.265 422.371 195.265 422.944 195.265C424.173 195.333 425.404 195.333 426.633 195.265C426.902 195.265 427.172 195.265 427.424 195.265L427.829 208.369Z" fill="url(#paint7_linear_1070_851)"/>
<path opacity="0.2" d="M427.829 208.369C427.496 209.357 426.829 210.197 425.942 210.744C424.123 212.092 420.603 213.591 413.815 214.113C409.627 214.382 405.425 213.85 401.435 212.547C390.673 209.009 380.264 199.072 380.702 177.092C381.683 178.515 382.909 179.752 384.323 180.747C390.723 185.227 394.429 179.484 394.429 179.484C396.281 184.638 397.225 187.518 402.193 190.853C408.459 195.063 421.26 195.265 421.26 195.265C421.832 195.265 422.371 195.265 422.944 195.265C424.173 195.333 425.404 195.333 426.633 195.265C426.902 195.265 427.172 195.265 427.424 195.265L427.829 208.369Z" fill="black"/>
<path d="M394.058 166.665C394.058 166.665 394.058 147.481 403.17 139.363C412.282 131.244 430.641 131.867 435.071 136.348C439.501 140.828 445.177 157.823 441.606 178.826C441.606 178.826 445.463 169.764 443.627 149.755C441.791 129.745 426.06 118.14 409.032 119.185C392.003 120.229 381.375 126.596 374.183 140.811C366.991 155.027 364.465 207.813 364.465 207.813C366.999 207.151 369.611 206.834 372.23 206.87C390.336 207.678 394.917 195.366 394.412 178.624L394.058 166.665Z" fill="url(#paint8_linear_1070_851)"/>
<path opacity="0.25" d="M394.058 166.665C394.058 166.665 394.058 147.481 403.17 139.363C412.282 131.244 430.641 131.867 435.071 136.348C439.501 140.828 445.177 157.823 441.606 178.826C441.606 178.826 445.463 169.764 443.627 149.755C441.791 129.745 426.06 118.14 409.032 119.185C392.003 120.229 381.375 126.596 374.183 140.811C366.991 155.027 364.465 207.813 364.465 207.813C366.999 207.151 369.611 206.834 372.23 206.87C390.336 207.678 394.917 195.366 394.412 178.624L394.058 166.665Z" fill="black"/>
<path d="M507.109 306.531C516.305 303.853 517.4 302.017 522.032 291.254C524.693 285.056 548.627 229.541 548.526 218.223C548.425 206.904 541.856 203.316 532.02 203.316C520.567 209.75 518.68 222.467 518.68 222.467L494.173 283.372C494.173 283.372 464.344 294.657 450.668 297.351C441.657 298.918 441.067 294.842 435.021 293.444C428.974 292.046 424.797 292.046 422.338 290.362C419.879 288.677 418.885 293.73 421.917 296.071C424.948 298.413 429.445 298.951 428.519 300.316C427.593 301.68 417.874 302 411.002 300.316C404.13 298.631 402.042 302.354 404.147 303.954C405.261 304.832 406.47 305.584 407.752 306.194C407.752 306.194 405.444 311.567 409.166 315.458C412.889 319.348 418.245 321.37 428.57 322.111C437.934 322.801 445.817 319.584 453.076 317.967C473.389 313.824 487.638 312.173 507.109 306.531Z" fill="#FFC4C3"/>
<path d="M569.799 72.867L565.555 71.5196C559.946 69.7342 552.99 66.3151 551.659 60.1336C551.281 58.3532 551.541 56.4967 552.393 54.8883C553.245 53.2799 554.634 52.0218 556.319 51.3338C558.004 50.6457 559.877 50.5715 561.612 51.1239C563.346 51.6764 564.831 52.8205 565.807 54.3565C566.072 52.5547 566.961 50.9032 568.32 49.6909C569.679 48.4785 571.421 47.7824 573.241 47.7242C575.062 47.666 576.844 48.2494 578.278 49.3725C579.711 50.4956 580.705 52.0868 581.084 53.868C582.381 59.9315 577.463 65.9108 573.117 69.8689L569.799 72.867Z" fill="url(#paint9_linear_1070_851)"/>
<path d="M357.054 119.27L350.317 117.299C341.491 114.688 330.509 109.568 328.252 99.9339C327.639 97.1767 328.006 94.292 329.29 91.7762C330.574 89.2604 332.695 87.2709 335.288 86.1501C337.88 85.0293 340.783 84.8473 343.495 85.6354C346.207 86.4235 348.56 88.1324 350.148 90.468C350.506 87.6447 351.844 85.0366 353.929 83.0992C356.013 81.1618 358.712 80.018 361.554 79.8676C364.396 79.7171 367.201 80.5696 369.478 82.2762C371.756 83.9828 373.361 86.435 374.015 89.2048C376.222 98.6538 368.726 108.17 362.04 114.469L357.054 119.27Z" fill="url(#paint10_linear_1070_851)"/>
<path d="M153.539 43.459L148.233 41.8926C141.227 39.8209 132.569 35.7449 130.716 28.1486C130.201 25.9476 130.476 23.6353 131.493 21.6165C132.511 19.5977 134.205 18.0009 136.281 17.1056C138.357 16.2102 140.681 16.0733 142.848 16.7189C145.014 17.3644 146.885 18.7512 148.132 20.6366C148.409 18.3892 149.468 16.311 151.125 14.7669C152.781 13.2228 154.928 12.3115 157.19 12.1929C159.451 12.0743 161.682 12.756 163.491 14.1184C165.299 15.4808 166.57 17.4367 167.081 19.6429C168.765 27.1381 162.887 34.6838 157.581 39.703L153.539 43.459Z" fill="url(#paint11_linear_1070_851)"/>
<path d="M434.381 51.4767C433.488 56.2204 434.022 61.1224 435.915 65.5626C437.808 70.0029 440.975 73.782 445.016 76.4222C449.057 79.0623 453.79 80.4449 458.617 80.3951C463.444 80.3452 468.147 78.8652 472.133 76.1422C476.119 73.4192 479.207 69.5755 481.008 65.0971C482.809 60.6187 483.242 55.7068 482.251 50.9826C481.261 46.2583 478.892 41.9339 475.443 38.5561C471.995 35.1783 467.623 32.8989 462.879 32.0061C456.518 30.809 449.942 32.1878 444.597 35.8392C439.253 39.4907 435.578 45.1156 434.381 51.4767Z" fill="url(#paint12_linear_1070_851)"/>
<path d="M472.985 60.8414C472.331 64.1766 470.611 67.209 468.084 69.4819C466.379 71.1025 464.316 72.2991 462.063 72.975C459.81 73.6509 457.43 73.7871 455.115 73.3727C452.796 72.9024 450.619 71.8957 448.759 70.4334C446.899 68.971 445.407 67.0935 444.402 64.9511C442.878 61.9121 442.381 58.4602 442.988 55.1147L472.985 60.8414Z" fill="#455A64"/>
<path d="M468.083 69.481C466.379 71.1016 464.316 72.2982 462.063 72.9742C459.81 73.6501 457.43 73.7863 455.114 73.3718C452.795 72.9015 450.619 71.8949 448.759 70.4325C446.898 68.9701 445.407 67.0926 444.402 64.9502C448.157 62.4548 452.738 61.5242 457.169 62.3564C461.605 63.1986 465.528 65.7594 468.083 69.481Z" fill="#F28F8F"/>
<path d="M467.444 50.0447C467.423 50.519 467.539 50.9893 467.777 51.3996C468.016 51.8099 468.368 52.1428 468.791 52.3587C469.214 52.5747 469.69 52.6645 470.162 52.6175C470.635 52.5705 471.084 52.3886 471.456 52.0936C471.828 51.7986 472.107 51.4028 472.26 50.9535C472.414 50.5042 472.435 50.0203 472.321 49.5594C472.207 49.0985 471.963 48.6801 471.617 48.354C471.272 48.028 470.841 47.808 470.374 47.7203C469.678 47.6443 468.98 47.8457 468.432 48.2808C467.883 48.7158 467.528 49.3496 467.444 50.0447Z" fill="#455A64"/>
<path d="M447.316 46.4915C447.295 46.9658 447.411 47.4361 447.65 47.8464C447.889 48.2566 448.241 48.5896 448.664 48.8055C449.086 49.0214 449.562 49.1113 450.035 49.0642C450.507 49.0172 450.956 48.8354 451.328 48.5404C451.7 48.2453 451.979 47.8496 452.133 47.4003C452.286 46.951 452.307 46.467 452.193 46.0062C452.079 45.5453 451.835 45.1269 451.49 44.8008C451.145 44.4747 450.713 44.2548 450.247 44.1671C449.551 44.0911 448.853 44.2924 448.304 44.7275C447.756 45.1626 447.401 45.7964 447.316 46.4915Z" fill="#455A64"/>
<path d="M643.538 17.0322C642.985 20.7536 643.548 24.5554 645.156 27.9565C646.765 31.3577 649.346 34.2054 652.573 36.1393C655.8 38.0732 659.528 39.0063 663.286 38.8206C667.044 38.635 670.662 37.3388 673.682 35.0962C676.703 32.8536 678.991 29.7654 680.256 26.2222C681.521 22.6791 681.707 18.8403 680.789 15.1916C679.872 11.5429 677.893 8.24831 675.103 5.72469C672.313 3.20107 668.836 1.56185 665.114 1.01445C660.13 0.281388 655.058 1.55645 651.012 4.55966C646.967 7.56287 644.279 12.0487 643.538 17.0322Z" fill="url(#paint13_linear_1070_851)"/>
<path d="M673.873 23.0959C673.455 25.713 672.209 28.1274 670.319 29.9847C669.046 31.3035 667.477 32.2993 665.742 32.889C664.007 33.4788 662.156 33.6455 660.344 33.3753C658.531 33.105 656.809 32.4057 655.322 31.3355C653.834 30.2652 652.624 28.8551 651.791 27.2225C650.502 24.9071 650.005 22.2335 650.377 19.6094L673.873 23.0959Z" fill="#455A64"/>
<path d="M670.319 30.0182C669.046 31.337 667.477 32.3328 665.742 32.9225C664.007 33.5123 662.156 33.679 660.344 33.4088C658.531 33.1385 656.809 32.4392 655.322 31.369C653.834 30.2987 652.624 28.8886 651.791 27.256C654.635 25.2236 658.157 24.3756 661.613 24.891C665.07 25.4064 668.192 27.2448 670.319 30.0182Z" fill="#F28F8F"/>
<path d="M669.224 14.8427C669.215 15.2121 669.313 15.5762 669.506 15.8912C669.699 16.2063 669.979 16.4591 670.312 16.6191C670.645 16.7792 671.017 16.8398 671.383 16.7936C671.75 16.7475 672.095 16.5966 672.378 16.359C672.661 16.1214 672.87 15.8073 672.978 15.4542C673.087 15.1012 673.092 14.7242 672.992 14.3685C672.892 14.0129 672.691 13.6937 672.414 13.4491C672.137 13.2046 671.796 13.0452 671.43 12.99C670.894 12.9522 670.364 13.1243 669.952 13.47C669.541 13.8157 669.279 14.308 669.224 14.8427Z" fill="#455A64"/>
<path d="M653.459 12.7543C653.388 13.0161 653.374 13.2899 653.416 13.5578C653.459 13.8256 653.558 14.0813 653.707 14.3082C653.855 14.535 654.05 14.7278 654.279 14.8738C654.507 15.0198 654.764 15.1157 655.033 15.1552C655.301 15.1947 655.575 15.177 655.836 15.1031C656.096 15.0292 656.339 14.9009 656.547 14.7266C656.754 14.5522 656.923 14.3359 657.041 14.0917C657.159 13.8476 657.224 13.5812 657.232 13.3101C657.303 13.0483 657.317 12.7745 657.274 12.5066C657.232 12.2388 657.133 11.983 656.984 11.7562C656.836 11.5294 656.64 11.3366 656.412 11.1906C656.183 11.0446 655.926 10.9487 655.658 10.9092C655.39 10.8696 655.116 10.8874 654.855 10.9613C654.594 11.0352 654.352 11.1635 654.144 11.3378C653.936 11.5121 653.768 11.7285 653.65 11.9726C653.532 12.2168 653.467 12.4832 653.459 12.7543Z" fill="#455A64"/>
<path d="M231.085 79.3859C229.875 82.9437 229.748 86.7801 230.719 90.4101C231.691 94.0401 233.716 97.3006 236.541 99.7793C239.365 102.258 242.86 103.843 246.586 104.335C250.311 104.827 254.099 104.203 257.469 102.543C260.84 100.882 263.643 98.2593 265.523 95.0058C267.403 91.7523 268.276 88.0144 268.032 84.2647C267.788 80.515 266.437 76.922 264.15 73.9399C261.864 70.9579 258.745 68.7208 255.187 67.5115C250.416 65.8946 245.199 66.2369 240.68 68.4632C236.161 70.6895 232.71 74.6178 231.085 79.3859Z" fill="url(#paint14_linear_1070_851)"/>
<path d="M259.819 90.8389C258.95 93.3476 257.289 95.5055 255.086 96.9866C253.595 98.0636 251.868 98.7676 250.05 99.0396C248.231 99.3115 246.374 99.1435 244.633 98.5496C242.893 97.9558 241.32 96.9533 240.047 95.6264C238.774 94.2994 237.838 92.6866 237.317 90.9231C236.474 88.4092 236.474 85.6892 237.317 83.1753L259.819 90.8389Z" fill="#455A64"/>
<path d="M255.086 96.9869C253.596 98.0639 251.869 98.7679 250.05 99.0399C248.231 99.3118 246.374 99.1438 244.633 98.5499C242.893 97.9561 241.32 96.9537 240.047 95.6267C238.774 94.2997 237.838 92.6869 237.317 90.9234C240.478 89.4154 244.103 89.1979 247.423 90.3171C250.757 91.4425 253.511 93.8398 255.086 96.9869Z" fill="#F28F8F"/>
<path d="M256.737 81.8618C256.666 82.2269 256.702 82.6045 256.84 82.9496C256.978 83.2948 257.213 83.5929 257.516 83.8084C257.819 84.0239 258.177 84.1476 258.549 84.1648C258.92 84.182 259.289 84.092 259.61 83.9055C259.932 83.7189 260.193 83.4438 260.362 83.1129C260.532 82.782 260.603 82.4093 260.566 82.0393C260.529 81.6693 260.387 81.3177 260.156 81.0264C259.925 80.7351 259.615 80.5164 259.263 80.3965C258.734 80.2576 258.171 80.3337 257.698 80.6082C257.224 80.8828 256.879 81.3334 256.737 81.8618Z" fill="#455A64"/>
<path d="M241.612 76.9935C241.544 77.3552 241.582 77.7285 241.721 78.0692C241.86 78.4098 242.093 78.7035 242.394 78.9151C242.695 79.1268 243.05 79.2476 243.418 79.2632C243.785 79.2787 244.15 79.1884 244.467 79.0029C244.785 78.8175 245.043 78.5446 245.21 78.2169C245.377 77.8892 245.446 77.5204 245.41 77.1544C245.373 76.7884 245.233 76.4405 245.004 76.1522C244.776 75.8639 244.469 75.6473 244.121 75.5282C243.594 75.3943 243.036 75.4729 242.566 75.747C242.097 76.0211 241.754 76.4688 241.612 76.9935Z" fill="#455A64"/>
<defs>
<linearGradient id="paint0_linear_1070_851" x1="512.8" y1="116.766" x2="512.8" y2="167.525" gradientUnits="userSpaceOnUse">
<stop stop-color="#FD0091"/>
<stop offset="0.0001" stop-color="#FD0091"/>
<stop offset="1" stop-color="#FF7732"/>
</linearGradient>
<linearGradient id="paint1_linear_1070_851" x1="509.878" y1="130.192" x2="509.878" y2="170.59" gradientUnits="userSpaceOnUse">
<stop stop-color="#FD0091"/>
<stop offset="0.0001" stop-color="#FD0091"/>
<stop offset="1" stop-color="#FF7732"/>
</linearGradient>
<linearGradient id="paint2_linear_1070_851" x1="272.333" y1="204.646" x2="272.333" y2="594.363" gradientUnits="userSpaceOnUse">
<stop stop-color="#FD0091" stop-opacity="0.09"/>
<stop offset="1" stop-color="#FF4DB3"/>
</linearGradient>
<linearGradient id="paint3_linear_1070_851" x1="310.119" y1="204.999" x2="310.119" y2="277.059" gradientUnits="userSpaceOnUse">
<stop stop-color="#FD0091" stop-opacity="0.09"/>
<stop offset="1" stop-color="#FF4DB3"/>
</linearGradient>
<linearGradient id="paint4_linear_1070_851" x1="397.949" y1="203.837" x2="397.949" y2="420.519" gradientUnits="userSpaceOnUse">
<stop stop-color="#FD0091"/>
<stop offset="0.0001" stop-color="#FD0091"/>
<stop offset="1" stop-color="#FF7732"/>
</linearGradient>
<linearGradient id="paint5_linear_1070_851" x1="442.128" y1="204.731" x2="442.128" y2="273.991" gradientUnits="userSpaceOnUse">
<stop stop-color="#FD0091"/>
<stop offset="0.0001" stop-color="#FD0091"/>
<stop offset="1" stop-color="#FF7732"/>
</linearGradient>
<linearGradient id="paint6_linear_1070_851" x1="405.384" y1="184.233" x2="405.384" y2="245.686" gradientUnits="userSpaceOnUse">
<stop stop-color="#FD0091"/>
<stop offset="0.0001" stop-color="#FD0091"/>
<stop offset="1" stop-color="#FF7732"/>
</linearGradient>
<linearGradient id="paint7_linear_1070_851" x1="404.258" y1="177.092" x2="404.258" y2="214.181" gradientUnits="userSpaceOnUse">
<stop stop-color="#FD0091"/>
<stop offset="0.0001" stop-color="#FD0091"/>
<stop offset="1" stop-color="#FF7732"/>
</linearGradient>
<linearGradient id="paint8_linear_1070_851" x1="404.294" y1="119.12" x2="404.294" y2="207.813" gradientUnits="userSpaceOnUse">
<stop stop-color="#FD0091"/>
<stop offset="0.0001" stop-color="#FD0091"/>
<stop offset="1" stop-color="#FF7732"/>
</linearGradient>
<linearGradient id="paint9_linear_1070_851" x1="566.393" y1="47.7202" x2="566.393" y2="72.867" gradientUnits="userSpaceOnUse">
<stop stop-color="#FD0091"/>
<stop offset="0.0001" stop-color="#FD0091"/>
<stop offset="1" stop-color="#FF7732"/>
</linearGradient>
<linearGradient id="paint10_linear_1070_851" x1="351.186" y1="79.8506" x2="351.186" y2="119.27" gradientUnits="userSpaceOnUse">
<stop stop-color="#FD0091"/>
<stop offset="0.0001" stop-color="#FD0091"/>
<stop offset="1" stop-color="#FF7732"/>
</linearGradient>
<linearGradient id="paint11_linear_1070_851" x1="148.919" y1="12.1797" x2="148.919" y2="43.459" gradientUnits="userSpaceOnUse">
<stop stop-color="#FD0091"/>
<stop offset="0.0001" stop-color="#FD0091"/>
<stop offset="1" stop-color="#FF7732"/>
</linearGradient>
<linearGradient id="paint12_linear_1070_851" x1="458.365" y1="31.585" x2="458.365" y2="80.3964" gradientUnits="userSpaceOnUse">
<stop stop-color="#FD0091"/>
<stop offset="0.0001" stop-color="#FD0091"/>
<stop offset="1" stop-color="#FF7732"/>
</linearGradient>
<linearGradient id="paint13_linear_1070_851" x1="662.347" y1="0.812012" x2="662.347" y2="38.8438" gradientUnits="userSpaceOnUse">
<stop stop-color="#FD0091"/>
<stop offset="0.0001" stop-color="#FD0091"/>
<stop offset="1" stop-color="#FF7732"/>
</linearGradient>
<linearGradient id="paint14_linear_1070_851" x1="249.073" y1="66.5054" x2="249.073" y2="104.499" gradientUnits="userSpaceOnUse">
<stop stop-color="#FD0091"/>
<stop offset="0.0001" stop-color="#FD0091"/>
<stop offset="1" stop-color="#FF7732"/>
</linearGradient>
</defs>
</svg>
