<svg width="327" height="162" viewBox="0 0 327 162" fill="none" xmlns="http://www.w3.org/2000/svg">
<g opacity="0.1">
<path d="M150.701 103.302C150.865 104.259 149.843 105.226 148.422 105.471C147 105.717 145.718 105.145 145.554 104.189C145.39 103.232 146.412 102.265 147.834 102.02C149.255 101.774 150.552 102.352 150.701 103.302Z" fill="black"/>
<path d="M146.298 108.016C146.391 108.55 145.774 109.108 144.942 109.254C144.111 109.399 143.321 109.086 143.227 108.545C143.134 108.005 143.759 107.454 144.583 107.308C145.408 107.163 146.207 107.504 146.298 108.016Z" fill="black"/>
<path d="M175.713 121.091C175.853 121.909 174.952 122.741 173.679 122.961C172.407 123.182 171.317 122.687 171.177 121.869C171.036 121.052 171.938 120.227 173.21 120.006C174.483 119.786 175.551 120.282 175.713 121.091Z" fill="black"/>
<path d="M172.698 123.93C172.77 124.367 172.353 124.799 171.769 124.898C171.525 124.969 171.264 124.945 171.04 124.83C170.816 124.716 170.648 124.52 170.571 124.285C170.499 123.848 170.909 123.417 171.499 123.317C171.743 123.248 172.004 123.273 172.227 123.387C172.451 123.501 172.619 123.696 172.698 123.93Z" fill="black"/>
<path d="M171.013 122.643C171.031 122.902 170.789 123.166 170.419 123.228C170.049 123.291 169.693 123.134 169.676 122.876C169.659 122.617 169.9 122.346 170.27 122.284C170.64 122.221 170.965 122.352 171.013 122.643Z" fill="black"/>
<path d="M159.338 130.084C159.458 130.812 158.715 131.534 157.756 131.71C156.796 131.887 155.853 131.43 155.733 130.702C155.613 129.973 156.313 129.255 157.308 129.076C158.303 128.897 159.211 129.356 159.338 130.084Z" fill="black"/>
<path d="M158.133 127.304C158.179 127.474 158.17 127.653 158.109 127.819C158.048 127.985 157.937 128.13 157.791 128.234C157.645 128.338 157.471 128.397 157.291 128.402C157.112 128.408 156.935 128.36 156.785 128.266C156.634 128.171 156.517 128.034 156.449 127.872C156.381 127.71 156.365 127.532 156.403 127.359C156.441 127.187 156.531 127.03 156.661 126.908C156.792 126.786 156.957 126.705 157.135 126.676C157.243 126.652 157.355 126.649 157.465 126.668C157.574 126.687 157.678 126.726 157.771 126.785C157.864 126.843 157.943 126.919 158.006 127.009C158.068 127.098 158.111 127.198 158.133 127.304Z" fill="black"/>
</g>
<path d="M25.3276 119.553C9.00298 107.802 5.13725 85.6151 16.6933 69.9983C28.2493 54.3816 50.851 51.2485 67.1756 63.0002C83.5002 74.752 87.3659 96.9385 75.8099 112.555C64.2539 128.172 41.6522 131.305 25.3276 119.553Z" fill="url(#paint0_linear_1151_637)"/>
<g opacity="0.1">
<path d="M81.5827 100.101C78.0008 97.3915 74.0241 95.2325 69.7961 93.7023C62.4111 90.9201 42.6846 88.3861 33.3133 84.3626C20.1746 78.6521 18.0967 71.9799 17.9007 68.4898C20.8136 65.0223 24.3973 62.153 28.4572 60.038C29.6218 63.5817 33.8495 74.5782 55.437 80.9395C66.5809 84.2189 76.7985 81.2736 80.2578 80.2721C82.6356 86.6759 83.0956 93.5599 81.5827 100.101Z" fill="black"/>
<path d="M68.2769 120.012C61.6799 124.75 53.5519 127.083 45.2515 126.622C36.951 126.162 28.981 122.935 22.6733 117.48C24.6389 116.299 26.7519 115.36 28.9654 114.686C38.4997 111.956 49.5315 116.037 53.595 118.022C58.1412 120.367 63.3475 121.072 68.2769 120.012Z" fill="black"/>
<path d="M79.8301 105.496C79.6889 105.779 79.5477 106.062 79.4015 106.355C79.2553 106.648 79.1444 106.87 79.0133 107.133C78.7209 107.719 78.4285 108.304 78.1411 108.88C77.8537 109.456 77.5845 109.864 77.2548 110.394L76.9045 110.938C76.7935 111.16 76.6352 111.346 76.4979 111.543L76.0808 112.142C75.9548 112.395 75.7398 112.615 75.5613 112.842C75.3828 113.068 75.2148 113.3 75.0364 113.526C74.8579 113.753 74.7147 113.908 74.5669 114.1C74.2145 114.517 73.8672 114.924 73.499 115.321C71.3055 116.095 68.2749 115.923 63.7352 114.419C56.9936 112.184 49.4727 106.421 36.4563 102.512C28.459 100.174 20.0221 100.007 12.0647 102.031C9.58195 95.0713 9.35201 87.5927 11.4066 80.6291C13.698 80.446 21.2114 81.1607 37.9792 93.2691C43.2108 97.14 48.82 100.487 54.7185 103.257C68.7675 109.61 76.4291 107.221 79.5695 105.468L79.8301 105.496Z" fill="black"/>
</g>
<path d="M78.1813 108.901C66.8727 108.013 55.6074 106.483 44.4426 104.321C32.9894 102.198 21.6574 99.4066 10.5086 95.9603C-6.68889 90.5366 -17.6971 84.6763 -16.9934 80.5117C-16.2896 76.3471 -4.25941 74.8338 13.1765 75.9495C12.8084 76.6869 12.5088 77.4709 12.2196 78.2602C12.0834 78.5329 12.0052 78.8471 11.8955 79.1456C2.73364 79.136 -3.18292 80.3642 -3.62129 82.8953C-4.05965 85.4264 1.24479 88.8877 10.1063 92.2538C21.3012 96.3332 32.8151 99.446 44.5131 101.556C56.1832 103.887 68.0115 105.211 79.8598 105.512C89.2566 105.575 95.2827 104.364 95.7459 101.757C96.2091 99.1497 91.0744 95.8991 82.4891 92.557C82.503 91.353 82.4491 90.1473 82.3276 88.9452C99.4365 94.3627 110.605 100.505 109.879 104.583C109.153 108.66 96.4996 110.216 78.1813 108.901Z" fill="url(#paint1_linear_1151_637)"/>
<path d="M78.1803 108.9C66.8717 108.012 55.6064 106.482 44.4417 104.32C32.9884 102.198 21.6565 99.4058 10.5076 95.9595C-6.68987 90.5358 -17.6981 84.6755 -16.9943 80.5109C-16.2906 76.3463 -4.26039 74.833 13.1755 75.9487C12.8075 76.6861 12.5078 77.4701 12.2186 78.2594C12.0825 78.5321 12.0042 78.8463 11.8945 79.1448C2.73266 79.1352 -3.1839 80.3634 -3.62226 82.8945C-4.06062 85.4256 1.24381 88.8869 10.1053 92.253C21.3002 96.3324 32.8142 99.4452 44.5121 101.555C56.1823 103.886 68.0106 105.21 79.8588 105.511C89.2556 105.574 95.2817 104.363 95.7449 101.756C96.2081 99.1489 91.0735 95.8983 82.4881 92.5562C82.502 91.3522 82.4481 90.1465 82.3266 88.9444C99.4355 94.3619 110.604 100.504 109.878 104.582C109.152 108.66 96.4986 110.215 78.1803 108.9Z" fill="url(#paint2_linear_1151_637)"/>
<path d="M76.543 111.553C65.4953 110.615 54.4881 109.12 43.5656 107.074C32.6989 105.087 21.9274 102.56 11.2933 99.5034C-12.504 92.584 -28.3096 84.3978 -27.3211 78.5084C-26.3327 72.6189 -9.22731 70.6188 14.975 72.5816C14.733 73.0665 14.3974 73.5552 14.16 74.0045C-6.15039 72.7186 -20.2082 74.6473 -21.0384 79.6948C-21.8685 84.7424 -8.97384 91.7817 10.8616 97.8759C21.6824 101.147 32.6723 103.798 43.7745 105.816C54.9207 107.908 66.1643 109.359 77.4469 110.161C97.9566 111.547 112.258 109.575 113.098 104.482C113.938 99.389 101.365 92.598 81.9668 86.5452C81.8681 86.0084 81.7606 85.463 81.6442 84.909C104.957 91.7762 120.344 99.8297 119.391 105.648C118.438 111.467 101.047 113.54 76.543 111.553Z" fill="url(#paint3_linear_1151_637)"/>
<path d="M281.063 88.8515C281.327 88.5609 296.497 82.1628 309.789 92.3268C321.959 101.653 325.857 118.9 324.189 119.282C322.154 119.741 316.823 111.465 306.276 106.78C302.543 105.117 296.509 106.626 296.509 106.626L281.063 88.8515Z" fill="url(#paint4_linear_1151_637)"/>
<path opacity="0.1" d="M296.474 106.603C298.276 106.196 300.119 105.993 301.967 106C299.75 101.231 295.602 92.3519 292.911 86.5974C288.844 86.4985 284.798 87.2684 281.066 88.8512L296.474 106.603Z" fill="black"/>
<path d="M255.596 116.327C255.323 116.618 250.45 131.797 262.613 143.222C273.754 153.726 292.081 155.334 292.28 153.706C292.524 151.71 283.296 147.627 277.183 138.166C275.019 134.804 275.844 128.867 275.844 128.867L255.596 116.327Z" fill="url(#paint5_linear_1151_637)"/>
<path opacity="0.1" d="M254.684 127.953L275.881 134.284C275.644 132.494 275.63 130.681 275.839 128.884L255.599 116.344C254.393 120.107 254.081 124.074 254.684 127.953Z" fill="black"/>
<path d="M289.958 135.634L305.048 119.269C305.048 119.269 297.971 99.5139 280.203 86.0247C271.462 79.5908 261.759 74.4475 251.413 70.7637C238.414 66.0238 227.464 64.5273 225.705 66.4194C223.946 68.3116 226.812 78.5386 233.263 90.3451C238.32 99.7358 244.811 108.343 252.523 115.884C268.635 131.207 289.958 135.634 289.958 135.634Z" fill="#C7C7C7"/>
<path d="M255.139 108.876C257.062 110.511 259.453 111.559 262.01 111.886C264.566 112.214 267.173 111.806 269.501 110.716C271.828 109.626 273.772 107.901 275.087 105.76C276.401 103.619 277.026 101.158 276.884 98.6886C276.742 96.219 275.838 93.8515 274.288 91.8857C272.737 89.9198 270.609 88.4439 268.172 87.6445C265.736 86.845 263.1 86.7581 260.599 87.3946C258.098 88.0311 255.844 89.3625 254.122 91.2203C251.813 93.7111 250.623 96.9703 250.813 100.281C251.004 103.592 252.56 106.684 255.139 108.876Z" fill="#A6A6A6"/>
<path d="M254.42 107.704C256.344 109.339 258.735 110.386 261.291 110.714C263.848 111.042 266.455 110.634 268.783 109.544C271.11 108.453 273.054 106.729 274.368 104.588C275.683 102.447 276.308 99.9861 276.166 97.5165C276.024 95.0469 275.12 92.6795 273.569 90.7136C272.019 88.7478 269.89 87.2718 267.454 86.4724C265.017 85.673 262.382 85.586 259.881 86.2225C257.38 86.8591 255.126 88.1904 253.404 90.0483C251.095 92.539 249.905 95.7983 250.095 99.1092C250.286 102.42 251.842 105.512 254.42 107.704Z" fill="url(#paint6_linear_1151_637)"/>
<path d="M257.122 104.845C258.456 105.98 260.114 106.708 261.888 106.936C263.661 107.164 265.47 106.882 267.085 106.126C268.7 105.371 270.049 104.175 270.961 102.69C271.874 101.205 272.308 99.4979 272.211 97.7845C272.113 96.0711 271.487 94.4284 270.412 93.064C269.337 91.6996 267.861 90.6749 266.171 90.1194C264.481 89.5639 262.653 89.5026 260.918 89.9432C259.183 90.3838 257.619 91.3066 256.423 92.5948C255.628 93.4496 255.016 94.4448 254.621 95.5234C254.225 96.6021 254.056 97.7429 254.12 98.8808C254.185 100.019 254.484 101.131 254.999 102.155C255.514 103.178 256.235 104.092 257.122 104.845Z" fill="white"/>
<path d="M257.121 104.845C257.954 105.556 258.918 106.112 259.965 106.485L267.252 106.043C268.255 105.549 269.153 104.88 269.901 104.07C270.446 103.489 270.906 102.838 271.267 102.138L255.537 103.089C255.977 103.742 256.51 104.333 257.121 104.845Z" fill="url(#paint7_linear_1151_637)"/>
<path d="M255.607 93.5957L270.126 92.7144C269.836 92.3871 269.519 92.083 269.177 91.8051C268.292 91.0507 267.259 90.4722 266.137 90.1027C265.015 89.7333 263.826 89.5802 262.638 89.6522C261.45 89.7242 260.287 90.0198 259.214 90.5223C258.142 91.0247 257.182 91.724 256.388 92.5802C256.099 92.8975 255.837 93.2372 255.607 93.5957Z" fill="url(#paint8_linear_1151_637)"/>
<path d="M254.612 101.226L271.985 100.176C272.046 99.9225 272.094 99.6668 272.127 99.4093L254.375 100.478C254.436 100.729 254.524 100.977 254.612 101.226Z" fill="url(#paint9_linear_1151_637)"/>
<path d="M233.267 90.4036L251.435 70.821C238.436 66.0811 227.486 64.5845 225.727 66.4767C223.968 68.3688 226.815 78.5718 233.267 90.4036Z" fill="url(#paint10_linear_1151_637)"/>
<path d="M246.194 72.3934C246.347 72.5185 246.546 72.5805 246.748 72.5661C246.949 72.5518 247.138 72.4621 247.272 72.3165C247.397 72.1704 247.459 71.9842 247.444 71.7969C247.43 71.6095 247.34 71.4355 247.194 71.311C247.048 71.1865 246.857 71.1213 246.66 71.1289C246.464 71.1365 246.278 71.2163 246.14 71.3518C246.003 71.4979 245.932 71.6898 245.942 71.8851C245.952 72.0804 246.042 72.2633 246.194 72.3934Z" fill="white"/>
<path d="M242.963 75.8772C243.116 76.0023 243.315 76.0643 243.517 76.05C243.718 76.0356 243.907 75.9459 244.042 75.8004C244.166 75.6542 244.228 75.468 244.213 75.2807C244.199 75.0933 244.109 74.9193 243.963 74.7948C243.817 74.6704 243.626 74.6051 243.429 74.6127C243.233 74.6203 243.047 74.7002 242.909 74.8356C242.772 74.9818 242.701 75.1736 242.711 75.3689C242.721 75.5643 242.811 75.7471 242.963 75.8772Z" fill="white"/>
<path d="M239.737 79.3595C239.89 79.4846 240.089 79.5466 240.291 79.5323C240.492 79.5179 240.681 79.4282 240.815 79.2827C240.94 79.1365 241.002 78.9503 240.987 78.763C240.973 78.5756 240.883 78.4016 240.737 78.2771C240.591 78.1527 240.4 78.0874 240.203 78.095C240.007 78.1026 239.821 78.1825 239.683 78.3179C239.546 78.4641 239.475 78.6559 239.485 78.8512C239.495 79.0466 239.585 79.2294 239.737 79.3595Z" fill="white"/>
<path d="M236.507 82.8435C236.66 82.9686 236.859 83.0306 237.06 83.0163C237.262 83.0019 237.451 82.9123 237.585 82.7667C237.71 82.6205 237.772 82.4343 237.757 82.247C237.742 82.0596 237.653 81.8856 237.506 81.7611C237.36 81.6367 237.169 81.5715 236.973 81.579C236.777 81.5866 236.59 81.6665 236.453 81.8019C236.316 81.9481 236.244 82.1399 236.254 82.3352C236.264 82.5306 236.355 82.7134 236.507 82.8435Z" fill="white"/>
<path d="M233.28 86.3268C233.433 86.4519 233.632 86.514 233.834 86.4996C234.035 86.4852 234.224 86.3956 234.358 86.25C234.483 86.1038 234.545 85.9177 234.53 85.7303C234.515 85.543 234.426 85.3689 234.28 85.2445C234.134 85.12 233.943 85.0548 233.746 85.0624C233.55 85.07 233.364 85.1498 233.226 85.2852C233.089 85.4314 233.017 85.6232 233.028 85.8186C233.038 86.0139 233.128 86.1967 233.28 86.3268Z" fill="white"/>
<path d="M300.839 118.838C300.914 118.901 301.002 118.949 301.097 118.98C301.192 119.01 301.293 119.022 301.393 119.015C301.493 119.008 301.591 118.982 301.681 118.938C301.771 118.895 301.851 118.835 301.917 118.762C301.984 118.69 302.034 118.606 302.067 118.515C302.099 118.425 302.112 118.329 302.106 118.234C302.099 118.139 302.073 118.046 302.029 117.961C301.984 117.876 301.923 117.8 301.847 117.738C301.774 117.67 301.687 117.617 301.591 117.582C301.495 117.547 301.393 117.531 301.29 117.535C301.187 117.539 301.086 117.563 300.993 117.605C300.899 117.647 300.816 117.707 300.747 117.781C300.678 117.855 300.626 117.941 300.593 118.034C300.56 118.128 300.546 118.226 300.554 118.324C300.562 118.423 300.59 118.518 300.637 118.605C300.685 118.692 300.75 118.769 300.829 118.831L300.839 118.838Z" fill="#A6A6A6"/>
<path d="M297.613 122.348C297.688 122.411 297.776 122.459 297.871 122.489C297.966 122.519 298.066 122.531 298.167 122.524C298.267 122.517 298.365 122.491 298.455 122.447C298.545 122.404 298.625 122.344 298.691 122.271C298.757 122.199 298.808 122.115 298.841 122.025C298.873 121.934 298.886 121.838 298.88 121.743C298.873 121.648 298.847 121.555 298.802 121.47C298.758 121.385 298.696 121.309 298.621 121.247C298.547 121.179 298.46 121.126 298.364 121.091C298.269 121.056 298.166 121.04 298.063 121.044C297.961 121.048 297.86 121.072 297.766 121.114C297.673 121.156 297.59 121.216 297.521 121.29C297.452 121.364 297.4 121.45 297.366 121.543C297.333 121.637 297.32 121.736 297.328 121.834C297.335 121.932 297.364 122.027 297.411 122.114C297.458 122.201 297.524 122.278 297.603 122.34L297.613 122.348Z" fill="#A6A6A6"/>
<path d="M294.383 125.805C294.536 125.93 294.735 125.992 294.937 125.978C295.139 125.963 295.327 125.874 295.462 125.728C295.528 125.656 295.579 125.571 295.612 125.48C295.644 125.389 295.657 125.292 295.651 125.196C295.644 125.1 295.618 125.007 295.573 124.921C295.529 124.835 295.467 124.759 295.391 124.696C295.238 124.571 295.039 124.509 294.837 124.524C294.635 124.538 294.447 124.628 294.312 124.773C294.182 124.922 294.117 125.112 294.131 125.305C294.144 125.497 294.234 125.676 294.383 125.805Z" fill="#A6A6A6"/>
<path d="M291.154 129.289C291.229 129.352 291.317 129.4 291.412 129.43C291.507 129.46 291.607 129.472 291.708 129.465C291.808 129.458 291.906 129.432 291.996 129.389C292.086 129.345 292.166 129.285 292.232 129.212C292.298 129.14 292.349 129.057 292.382 128.966C292.414 128.875 292.427 128.78 292.421 128.684C292.414 128.589 292.388 128.496 292.343 128.411C292.299 128.326 292.237 128.251 292.162 128.189C292.088 128.12 292.001 128.067 291.905 128.032C291.81 127.997 291.707 127.981 291.604 127.985C291.502 127.989 291.401 128.013 291.307 128.055C291.214 128.098 291.131 128.157 291.062 128.231C290.993 128.305 290.941 128.391 290.907 128.485C290.874 128.578 290.861 128.677 290.869 128.775C290.876 128.873 290.905 128.968 290.952 129.055C290.999 129.142 291.065 129.219 291.144 129.281L291.154 129.289Z" fill="#A6A6A6"/>
<path d="M287.925 132.773C288 132.836 288.088 132.884 288.183 132.914C288.278 132.944 288.379 132.956 288.479 132.949C288.579 132.942 288.677 132.916 288.767 132.872C288.857 132.829 288.938 132.769 289.004 132.696C289.07 132.624 289.121 132.54 289.153 132.45C289.185 132.359 289.199 132.263 289.192 132.168C289.186 132.073 289.159 131.98 289.115 131.895C289.071 131.81 289.009 131.734 288.933 131.672C288.78 131.547 288.581 131.485 288.38 131.5C288.178 131.514 287.989 131.604 287.855 131.749C287.728 131.897 287.664 132.086 287.677 132.276C287.69 132.466 287.779 132.644 287.925 132.773Z" fill="#A6A6A6"/>
<path opacity="0.2" d="M226.545 65.9772C236.662 66.845 254.036 73.0316 272.119 87.2374C285.469 97.7285 294.89 115.856 299.296 125.514L305.078 119.301C305.078 119.301 297.992 99.5462 280.224 86.057C271.483 79.6231 261.78 74.4798 251.434 70.796C239.764 66.5476 229.762 64.9071 226.545 65.9772Z" fill="white"/>
<path d="M296.421 138.402L308.699 125.151L304.201 120.222L290.775 134.71L296.421 138.402Z" fill="url(#paint11_linear_1151_637)"/>
<path opacity="0.1" d="M290.777 134.71L293.525 136.51L305.929 122.112L304.204 120.23L290.777 134.71Z" fill="black"/>
<path opacity="0.6" d="M299.116 135.441C304.601 139.074 309.222 143.774 312.683 149.238C316.181 154.771 318.064 161.112 318.139 167.605C318.14 170.894 317.63 174.168 316.624 177.321C315.599 180.531 314.093 183.585 312.155 186.388C310.179 189.248 307.827 191.854 305.158 194.141C302.447 196.468 299.494 198.52 296.346 200.265C299.724 198.863 302.943 197.127 305.95 195.087C309.007 193.016 311.776 190.577 314.188 187.832C319.178 182.155 322.317 175.205 323.211 167.856C324.028 160.332 322.736 152.752 319.469 145.9C316.18 138.993 311.41 132.836 305.467 127.827L299.116 135.441Z" fill="url(#paint12_linear_1151_637)"/>
<path d="M308.333 143.712L310.491 144.136L310.917 146.339L311.459 144.152L313.643 143.809L311.495 143.266L311.06 141.181L310.501 143.243L308.333 143.712Z" fill="white"/>
<path d="M310.124 136.907L311.33 137.144L311.565 138.375L311.872 137.156L313.091 136.959L311.89 136.654L311.642 135.491L311.339 136.642L310.124 136.907Z" fill="white"/>
<path d="M303.645 135.151C303.73 135.163 303.807 135.204 303.862 135.267C303.918 135.33 303.947 135.409 303.945 135.492C303.943 135.574 303.91 135.653 303.852 135.714C303.794 135.775 303.715 135.814 303.629 135.824C303.544 135.812 303.467 135.771 303.412 135.708C303.357 135.646 303.328 135.566 303.33 135.483C303.332 135.401 303.365 135.322 303.423 135.261C303.481 135.2 303.56 135.161 303.645 135.151Z" fill="white"/>
<path d="M319.065 151.518C319.244 151.521 319.414 151.592 319.538 151.715C319.661 151.839 319.728 152.004 319.723 152.176C319.719 152.348 319.643 152.511 319.513 152.63C319.383 152.75 319.209 152.815 319.03 152.812C318.85 152.809 318.68 152.738 318.557 152.614C318.433 152.491 318.367 152.325 318.371 152.153C318.376 151.982 318.452 151.818 318.582 151.699C318.712 151.58 318.886 151.515 319.065 151.518Z" fill="white"/>
<path d="M149.47 96.4291L146.085 97.2948L145.557 100.887L144.554 97.4063L141.087 97.0397L144.444 95.972L144.999 92.5753L146.003 95.8584L149.47 96.4291Z" fill="white"/>
<path d="M208.017 101.673L204.633 102.545L204.105 106.137L203.102 102.657L199.634 102.283L202.991 101.216L203.546 97.8189L204.55 101.102L208.017 101.673Z" fill="white"/>
<path d="M138.792 109.011L136.899 109.501L136.603 111.507L136.041 109.563L134.108 109.352L135.98 108.759L136.29 106.857L136.852 108.695L138.792 109.011Z" fill="white"/>
<path d="M174.619 133.306L172.726 133.788L172.429 135.801L171.867 133.851L169.927 133.647L171.806 133.053L172.117 131.152L172.679 132.99L174.619 133.306Z" fill="white"/>
<path d="M242.679 159.007C242.544 159.032 242.422 159.105 242.337 159.212C242.253 159.319 242.211 159.452 242.22 159.587C242.229 159.721 242.288 159.847 242.386 159.94C242.484 160.034 242.615 160.088 242.752 160.094C242.887 160.069 243.009 159.996 243.093 159.889C243.178 159.782 243.22 159.649 243.211 159.514C243.202 159.38 243.143 159.254 243.044 159.161C242.946 159.067 242.816 159.012 242.679 159.007Z" fill="white"/>
<path d="M171.11 150.868C170.974 150.893 170.853 150.966 170.768 151.072C170.683 151.179 170.642 151.313 170.651 151.447C170.66 151.581 170.719 151.707 170.817 151.801C170.915 151.894 171.045 151.949 171.183 151.954C171.318 151.929 171.439 151.856 171.524 151.749C171.609 151.642 171.651 151.509 171.641 151.375C171.632 151.24 171.573 151.115 171.475 151.021C171.377 150.927 171.247 150.873 171.11 150.868Z" fill="white"/>
<path d="M179.689 135.456C179.584 135.463 179.487 135.511 179.418 135.589C179.349 135.667 179.314 135.768 179.321 135.87C179.328 135.972 179.376 136.067 179.454 136.134C179.533 136.201 179.636 136.234 179.74 136.227C179.845 136.219 179.942 136.171 180.011 136.093C180.08 136.016 180.115 135.915 180.108 135.812C180.101 135.71 180.053 135.615 179.975 135.548C179.896 135.481 179.793 135.448 179.689 135.456Z" fill="white"/>
<path d="M278.912 156.58C278.819 156.599 278.735 156.651 278.677 156.726C278.619 156.801 278.591 156.893 278.597 156.986C278.603 157.08 278.644 157.167 278.711 157.233C278.779 157.299 278.868 157.338 278.964 157.344C279.057 157.324 279.141 157.272 279.199 157.197C279.257 157.123 279.285 157.03 279.279 156.937C279.273 156.844 279.232 156.756 279.165 156.69C279.097 156.625 279.008 156.585 278.912 156.58Z" fill="white"/>
<path d="M257.215 155.037C257.111 155.044 257.014 155.092 256.945 155.17C256.876 155.248 256.841 155.349 256.847 155.451C256.854 155.553 256.902 155.648 256.981 155.715C257.06 155.782 257.163 155.815 257.267 155.808C257.372 155.8 257.469 155.752 257.538 155.675C257.607 155.597 257.642 155.496 257.635 155.394C257.628 155.291 257.58 155.196 257.501 155.129C257.423 155.063 257.32 155.029 257.215 155.037Z" fill="white"/>
<path d="M124.671 119.953C124.536 119.978 124.414 120.051 124.329 120.158C124.245 120.265 124.203 120.398 124.212 120.532C124.221 120.666 124.28 120.792 124.378 120.886C124.476 120.979 124.607 121.034 124.744 121.039C124.879 121.014 125.001 120.941 125.085 120.834C125.17 120.728 125.212 120.594 125.203 120.46C125.194 120.326 125.135 120.2 125.036 120.106C124.938 120.013 124.808 119.958 124.671 119.953Z" fill="white"/>
<path d="M111.614 133.753C111.478 133.778 111.357 133.851 111.272 133.958C111.187 134.065 111.146 134.198 111.155 134.332C111.164 134.467 111.223 134.592 111.321 134.686C111.419 134.78 111.549 134.834 111.687 134.839C111.822 134.814 111.943 134.741 112.028 134.634C112.113 134.528 112.154 134.394 112.145 134.26C112.136 134.126 112.077 134 111.979 133.906C111.881 133.813 111.751 133.758 111.614 133.753Z" fill="white"/>
<path d="M256.407 48.1906C256.314 48.21 256.23 48.262 256.172 48.3368C256.114 48.4116 256.086 48.5042 256.092 48.5975C256.098 48.6907 256.139 48.7783 256.206 48.844C256.274 48.9097 256.363 48.949 256.459 48.9547C256.552 48.9353 256.636 48.8833 256.694 48.8085C256.751 48.7337 256.78 48.6411 256.774 48.5478C256.767 48.4545 256.727 48.367 256.659 48.3013C256.592 48.2356 256.502 48.1963 256.407 48.1906Z" fill="white"/>
<path d="M149.304 126.31C149.019 126.331 148.754 126.462 148.566 126.673C148.378 126.885 148.283 127.16 148.301 127.439C148.32 127.717 148.451 127.976 148.665 128.159C148.88 128.341 149.16 128.432 149.445 128.411C149.729 128.39 149.995 128.26 150.183 128.048C150.371 127.836 150.466 127.561 150.447 127.283C150.428 127.004 150.297 126.745 150.083 126.563C149.868 126.38 149.588 126.29 149.304 126.31Z" fill="white"/>
<path d="M95.0304 125.026C94.7459 125.047 94.4804 125.178 94.2925 125.389C94.1045 125.601 94.0094 125.876 94.0281 126.155C94.0468 126.433 94.1778 126.692 94.3923 126.875C94.6067 127.057 94.887 127.148 95.1715 127.127C95.4561 127.106 95.7215 126.976 95.9095 126.764C96.0975 126.552 96.1926 126.277 96.1738 125.999C96.1551 125.72 96.0241 125.461 95.8097 125.279C95.5953 125.096 95.3149 125.006 95.0304 125.026Z" fill="white"/>
<path d="M14.745 152.169C14.4605 152.189 14.195 152.32 14.0071 152.532C13.8191 152.743 13.724 153.019 13.7427 153.297C13.7614 153.576 13.8924 153.835 14.1069 154.017C14.3213 154.199 14.6016 154.29 14.8861 154.269C15.1707 154.248 15.4361 154.118 15.6241 153.906C15.8121 153.695 15.9072 153.419 15.8884 153.141C15.8697 152.862 15.7387 152.603 15.5243 152.421C15.3099 152.239 15.0295 152.148 14.745 152.169Z" fill="white"/>
<path d="M131.947 138.163C131.811 138.188 131.69 138.261 131.605 138.368C131.521 138.475 131.479 138.608 131.488 138.742C131.497 138.877 131.556 139.003 131.654 139.096C131.752 139.19 131.882 139.244 132.02 139.25C132.155 139.224 132.277 139.152 132.361 139.045C132.446 138.938 132.488 138.805 132.479 138.67C132.47 138.536 132.41 138.41 132.312 138.316C132.214 138.223 132.084 138.168 131.947 138.163Z" fill="white"/>
<defs>
<linearGradient id="paint0_linear_1151_637" x1="67.1756" y1="63.0002" x2="26.0762" y2="120.092" gradientUnits="userSpaceOnUse">
<stop stop-color="#FD0091"/>
<stop offset="0.0001" stop-color="#FD0091"/>
<stop offset="1" stop-color="#FF7732"/>
</linearGradient>
<linearGradient id="paint1_linear_1151_637" x1="55.7993" y1="73.7873" x2="37.1339" y2="111.269" gradientUnits="userSpaceOnUse">
<stop stop-color="#FD0091"/>
<stop offset="0.0001" stop-color="#FD0091"/>
<stop offset="1" stop-color="#FF7732"/>
</linearGradient>
<linearGradient id="paint2_linear_1151_637" x1="55.7983" y1="73.7865" x2="37.1329" y2="111.269" gradientUnits="userSpaceOnUse">
<stop stop-color="#FD0091"/>
<stop offset="0.0001" stop-color="#FD0091"/>
<stop offset="1" stop-color="#FF7732"/>
</linearGradient>
<linearGradient id="paint3_linear_1151_637" x1="57.2738" y1="69.5594" x2="34.8337" y2="114.622" gradientUnits="userSpaceOnUse">
<stop stop-color="#FD0091"/>
<stop offset="0.0001" stop-color="#FD0091"/>
<stop offset="1" stop-color="#FF7732"/>
</linearGradient>
<linearGradient id="paint4_linear_1151_637" x1="301.608" y1="85.88" x2="304.09" y2="120.722" gradientUnits="userSpaceOnUse">
<stop stop-color="#FD0091"/>
<stop offset="0.0001" stop-color="#FD0091"/>
<stop offset="1" stop-color="#FF7732"/>
</linearGradient>
<linearGradient id="paint5_linear_1151_637" x1="271.685" y1="115.181" x2="274.548" y2="155.381" gradientUnits="userSpaceOnUse">
<stop stop-color="#FD0091"/>
<stop offset="0.0001" stop-color="#FD0091"/>
<stop offset="1" stop-color="#FF7732"/>
</linearGradient>
<linearGradient id="paint6_linear_1151_637" x1="262.274" y1="85.8361" x2="264.051" y2="110.785" gradientUnits="userSpaceOnUse">
<stop stop-color="#FD0091"/>
<stop offset="0.0001" stop-color="#FD0091"/>
<stop offset="1" stop-color="#FF7732"/>
</linearGradient>
<linearGradient id="paint7_linear_1151_637" x1="263.396" y1="102.529" x2="263.665" y2="106.298" gradientUnits="userSpaceOnUse">
<stop stop-color="#FD0091"/>
<stop offset="0.0001" stop-color="#FD0091"/>
<stop offset="1" stop-color="#FF7732"/>
</linearGradient>
<linearGradient id="paint8_linear_1151_637" x1="262.626" y1="89.6525" x2="262.881" y2="93.2305" gradientUnits="userSpaceOnUse">
<stop stop-color="#FD0091"/>
<stop offset="0.0001" stop-color="#FD0091"/>
<stop offset="1" stop-color="#FF7732"/>
</linearGradient>
<linearGradient id="paint9_linear_1151_637" x1="263.244" y1="99.8467" x2="263.312" y2="100.793" gradientUnits="userSpaceOnUse">
<stop stop-color="#FD0091"/>
<stop offset="0.0001" stop-color="#FD0091"/>
<stop offset="1" stop-color="#FF7732"/>
</linearGradient>
<linearGradient id="paint10_linear_1151_637" x1="237.997" y1="65.0167" x2="239.772" y2="89.9403" gradientUnits="userSpaceOnUse">
<stop stop-color="#FD0091"/>
<stop offset="0.0001" stop-color="#FD0091"/>
<stop offset="1" stop-color="#FF7732"/>
</linearGradient>
<linearGradient id="paint11_linear_1151_637" x1="299.096" y1="120.585" x2="300.345" y2="138.123" gradientUnits="userSpaceOnUse">
<stop stop-color="#FD0091"/>
<stop offset="0.0001" stop-color="#FD0091"/>
<stop offset="1" stop-color="#FF7732"/>
</linearGradient>
<linearGradient id="paint12_linear_1151_637" x1="306.233" y1="127.773" x2="311.321" y2="199.198" gradientUnits="userSpaceOnUse">
<stop stop-color="#FD0091"/>
<stop offset="0.0001" stop-color="#FD0091"/>
<stop offset="1" stop-color="#FF7732"/>
</linearGradient>
</defs>
</svg>
