<svg width="481" height="515" viewBox="0 0 481 515" fill="none" xmlns="http://www.w3.org/2000/svg">
<path fill-rule="evenodd" clip-rule="evenodd" d="M284.886 184.206C204.757 246.773 49.6378 239.286 40.8143 340.622C32.0294 441.518 161.228 495.336 254.313 535.33C320.315 563.687 387.59 531.465 458.471 520.067C547.577 505.737 658.232 536.631 709.205 462.177C764.851 380.899 735.625 269.222 690.078 181.771C644.448 94.1571 569.69 4.15569 470.969 4.74912C380.266 5.29435 356.345 128.41 284.886 184.206Z" fill="#090931"/>
<path d="M288.224 447.857L282.56 442.416C282.173 442.046 281.867 441.607 281.657 441.123C281.448 440.64 281.34 440.121 281.34 439.597C281.34 439.073 281.448 438.554 281.657 438.07C281.867 437.587 282.173 437.147 282.56 436.778C282.945 436.406 283.402 436.112 283.906 435.911C284.409 435.71 284.949 435.606 285.495 435.606C286.04 435.606 286.58 435.71 287.084 435.911C287.587 436.112 288.045 436.406 288.43 436.778L294.145 442.252C294.532 442.621 294.838 443.061 295.048 443.544C295.257 444.028 295.365 444.547 295.365 445.071C295.365 445.595 295.257 446.114 295.048 446.597C294.838 447.081 294.532 447.521 294.145 447.89C293.757 448.267 293.295 448.565 292.785 448.768C292.276 448.97 291.729 449.073 291.178 449.07C290.626 449.067 290.081 448.958 289.574 448.75C289.066 448.542 288.608 448.238 288.224 447.857Z" fill="url(#paint0_linear_1683_467)"/>
<path d="M210.874 501.776L207.281 494.905C206.791 493.958 206.711 492.864 207.057 491.86C207.403 490.857 208.148 490.025 209.129 489.546C210.114 489.072 211.255 488.992 212.301 489.325C213.347 489.658 214.212 490.376 214.708 491.321L218.301 498.193C218.795 499.139 218.878 500.235 218.532 501.24C218.185 502.244 217.438 503.076 216.453 503.552C215.468 504.026 214.327 504.106 213.281 503.773C212.235 503.44 211.37 502.722 210.874 501.776Z" fill="url(#paint1_linear_1683_467)"/>
<path d="M260.45 432.504L256.189 431.912C255.102 431.761 254.122 431.202 253.464 430.357C252.806 429.513 252.525 428.452 252.681 427.408C252.757 426.889 252.938 426.39 253.215 425.939C253.492 425.488 253.858 425.094 254.294 424.779C254.729 424.465 255.225 424.236 255.753 424.106C256.281 423.976 256.831 423.947 257.37 424.021L261.631 424.597C262.723 424.747 263.707 425.308 264.368 426.156C265.029 427.003 265.313 428.069 265.156 429.117C265 430.166 264.416 431.111 263.533 431.746C262.651 432.381 261.542 432.654 260.45 432.504Z" fill="url(#paint2_linear_1683_467)"/>
<path d="M294.248 486.472L294.864 482.379C295.021 481.333 295.602 480.39 296.481 479.756C297.36 479.121 298.464 478.847 299.553 478.992C300.645 479.143 301.629 479.704 302.29 480.551C302.951 481.399 303.235 482.464 303.078 483.513L302.462 487.606C302.305 488.651 301.724 489.594 300.845 490.229C299.967 490.863 298.862 491.138 297.773 490.992C296.682 490.842 295.697 490.281 295.036 489.433C294.375 488.586 294.092 487.52 294.248 486.472Z" fill="url(#paint3_linear_1683_467)"/>
<path d="M202.934 478.302V473.288C202.934 471.327 204.589 469.737 206.63 469.737H207.537C209.579 469.737 211.234 471.327 211.234 473.288V478.302C211.234 480.263 209.579 481.852 207.537 481.852H206.63C204.589 481.852 202.934 480.263 202.934 478.302Z" fill="url(#paint4_linear_1683_467)"/>
<path d="M268.168 521.157L264.01 522.226C263.479 522.37 262.924 522.411 262.377 522.346C261.83 522.281 261.302 522.112 260.824 521.849C260.346 521.585 259.927 521.233 259.593 520.812C259.258 520.392 259.015 519.911 258.876 519.398C258.728 518.89 258.687 518.359 258.754 517.835C258.822 517.311 258.996 516.805 259.269 516.347C259.541 515.888 259.905 515.486 260.34 515.163C260.774 514.84 261.272 514.604 261.802 514.467L265.961 513.398C266.491 513.254 267.046 513.214 267.593 513.278C268.14 513.343 268.668 513.512 269.146 513.776C269.624 514.039 270.043 514.391 270.378 514.812C270.712 515.233 270.956 515.713 271.094 516.226C271.242 516.734 271.284 517.266 271.216 517.79C271.149 518.313 270.974 518.819 270.702 519.278C270.43 519.736 270.066 520.139 269.631 520.461C269.196 520.784 268.699 521.02 268.168 521.157Z" fill="url(#paint5_linear_1683_467)"/>
<path d="M253.776 520.072C227.323 520.072 205.878 499.472 205.878 474.06C205.878 448.649 227.323 428.048 253.776 428.048C280.23 428.048 301.675 448.649 301.675 474.06C301.675 499.472 280.23 520.072 253.776 520.072Z" fill="url(#paint6_linear_1683_467)"/>
<path d="M236.356 446.756C236.215 448.961 236.815 451.151 238.067 453.003C239.354 454.907 241.159 456.436 243.286 457.425C245.466 458.481 247.986 458.687 250.32 458C252.533 457.322 254.428 455.92 255.676 454.038C253.975 455.255 252.009 456.087 249.926 456.471C248.952 456.635 247.957 456.635 246.983 456.471C246.013 456.316 245.073 456.023 244.193 455.6C243.748 455.386 243.286 455.156 242.859 454.91C242.431 454.663 242.003 454.384 241.609 454.071C240.798 453.497 240.052 452.841 239.385 452.115C238.014 450.54 236.984 448.718 236.356 446.756Z" fill="#C7C7C7"/>
<path d="M253.57 449.403C253.786 447.873 253.435 446.319 252.578 445.013C251.713 443.652 250.46 442.556 248.967 441.857C247.414 441.115 245.618 440.99 243.97 441.512C242.427 442.012 241.145 443.066 240.393 444.454C241.607 443.737 242.956 443.257 244.364 443.041C245.627 442.897 246.907 443.114 248.043 443.665C250.56 444.857 252.528 446.9 253.57 449.403Z" fill="#C7C7C7"/>
<path d="M269.794 481.014C269.205 482.416 269.163 483.974 269.674 485.403C270.181 486.885 271.149 488.181 272.446 489.118C273.105 489.616 273.861 489.981 274.669 490.193C275.478 490.405 276.322 490.459 277.152 490.351C278.719 490.145 280.151 489.389 281.174 488.231C279.854 488.641 278.47 488.825 277.084 488.773C275.838 488.697 274.645 488.262 273.661 487.524C272.631 486.78 271.764 485.847 271.111 484.779C270.448 483.607 270.003 482.333 269.794 481.014Z" fill="#C7C7C7"/>
<path d="M279.719 486.241C280.246 485.292 280.363 484.182 280.044 483.151C279.717 482.077 279.039 481.132 278.111 480.455C277.632 480.095 277.08 479.836 276.49 479.694C275.901 479.552 275.287 479.532 274.688 479.633C274.143 479.719 273.622 479.909 273.155 480.191C272.688 480.473 272.284 480.843 271.967 481.277C272.891 481.104 273.837 481.065 274.774 481.162C275.531 481.263 276.246 481.558 276.844 482.017C278.261 483.082 279.272 484.567 279.719 486.241Z" fill="#C7C7C7"/>
<path d="M286.975 470.773C286.55 471.151 286.21 471.608 285.974 472.117C285.739 472.626 285.614 473.175 285.606 473.732C285.592 474.338 285.704 474.942 285.936 475.507C286.168 476.071 286.516 476.585 286.958 477.019C287.413 477.455 287.966 477.784 288.574 477.984C289.181 478.183 289.829 478.247 290.466 478.17C291.602 478.045 292.662 477.559 293.478 476.789C292.481 476.813 291.484 476.747 290.5 476.592C289.725 476.479 289.006 476.134 288.447 475.606C287.877 475.043 287.46 474.354 287.232 473.6C286.976 472.679 286.889 471.722 286.975 470.773Z" fill="#C7C7C7"/>
<path d="M292.913 475.244C293.26 475.015 293.547 474.711 293.752 474.358C293.957 474.004 294.074 473.61 294.094 473.206C294.122 472.762 294.053 472.318 293.891 471.901C293.729 471.485 293.477 471.106 293.153 470.789C292.816 470.463 292.402 470.219 291.946 470.079C291.49 469.939 291.006 469.906 290.535 469.984C290.126 470.042 289.734 470.179 289.382 470.385C289.029 470.591 288.723 470.862 288.481 471.184C289.161 471.27 289.836 471.397 290.5 471.562C290.941 471.67 291.344 471.892 291.664 472.203C292.01 472.537 292.284 472.934 292.468 473.37C292.705 473.972 292.855 474.603 292.913 475.244Z" fill="#C7C7C7"/>
<path d="M221.347 457.145C221.289 457.697 221.349 458.254 221.522 458.782C221.696 459.311 221.98 459.8 222.357 460.219C222.758 460.691 223.255 461.079 223.817 461.362C224.378 461.644 224.994 461.815 225.626 461.863C226.268 461.899 226.91 461.794 227.504 461.555C228.097 461.315 228.625 460.948 229.048 460.482C229.816 459.666 230.269 458.622 230.332 457.523C229.606 458.183 228.815 458.772 227.97 459.282C227.313 459.686 226.542 459.887 225.762 459.858C224.946 459.808 224.157 459.559 223.469 459.134C222.651 458.591 221.933 457.918 221.347 457.145Z" fill="#C7C7C7"/>
<path d="M228.86 456.701C228.962 456.308 228.969 455.898 228.88 455.501C228.791 455.105 228.608 454.734 228.346 454.416C228.063 454.063 227.704 453.774 227.294 453.566C226.883 453.359 226.431 453.24 225.968 453.216C225.49 453.188 225.012 453.271 224.575 453.457C224.137 453.643 223.752 453.927 223.452 454.285C223.187 454.588 222.988 454.939 222.868 455.318C222.747 455.696 222.707 456.094 222.75 456.488C223.295 456.115 223.867 455.78 224.462 455.485C224.868 455.285 225.324 455.194 225.779 455.222C226.268 455.251 226.745 455.374 227.183 455.584C227.802 455.864 228.369 456.242 228.86 456.701Z" fill="#C7C7C7"/>
<path d="M248.197 488.412C246.283 489.242 244.155 489.507 242.084 489.175C240.012 488.842 238.09 487.927 236.561 486.544C235.031 485.162 233.964 483.374 233.493 481.408C233.022 479.442 233.168 477.386 233.915 475.5C234.661 473.614 235.973 471.984 237.685 470.815C239.397 469.646 241.431 468.991 243.531 468.934C245.63 468.877 247.7 469.419 249.478 470.493C251.256 471.566 252.663 473.123 253.519 474.965C254.664 477.426 254.747 480.224 253.75 482.744C252.752 485.264 250.756 487.302 248.197 488.412Z" fill="url(#paint7_linear_1683_467)"/>
<path d="M238.905 474.307C237.525 474.897 236.31 475.793 235.361 476.922C234.412 478.051 233.755 479.38 233.446 480.801C233.156 479.116 233.312 477.389 233.9 475.778C234.489 474.168 235.49 472.725 236.812 471.584C238.134 470.443 239.734 469.641 241.464 469.251C243.194 468.861 244.998 468.896 246.71 469.353C248.423 469.81 249.987 470.674 251.26 471.865C252.533 473.056 253.473 474.536 253.993 476.169C254.513 477.801 254.596 479.533 254.235 481.204C253.874 482.876 253.081 484.433 251.928 485.732C252.521 484.031 252.587 482.202 252.118 480.466C251.649 478.73 250.664 477.162 249.285 475.953C247.905 474.745 246.19 473.947 244.347 473.658C242.504 473.369 240.614 473.6 238.905 474.324V474.307Z" fill="#C7C7C7"/>
<path d="M229.236 480.8C229.183 483.509 230.002 486.167 231.581 488.411C233.166 490.708 235.365 492.553 237.947 493.754C240.597 495.036 243.654 495.306 246.503 494.51C249.214 493.707 251.561 492.044 253.16 489.792C251.103 491.372 248.688 492.464 246.11 492.981C245.499 493.082 244.881 493.143 244.262 493.162C243.643 493.169 243.024 493.125 242.413 493.031C241.187 492.855 239.997 492.495 238.888 491.962C238.323 491.683 237.759 491.387 237.177 491.074C236.595 490.762 236.099 490.417 235.62 490.022C234.604 489.282 233.679 488.433 232.864 487.491C231.195 485.52 229.961 483.244 229.236 480.8Z" fill="#C7C7C7"/>
<path d="M217.634 484.68C216.875 484.852 216.081 484.805 215.35 484.544C214.619 484.283 213.985 483.821 213.527 483.215C213.069 482.609 212.808 481.887 212.776 481.138C212.744 480.39 212.944 479.65 213.349 479.01C213.754 478.37 214.347 477.86 215.054 477.543C215.76 477.227 216.548 477.117 217.319 477.23C218.089 477.342 218.808 477.671 219.385 478.174C219.962 478.678 220.371 479.334 220.56 480.061C220.688 480.549 220.713 481.056 220.634 481.553C220.556 482.051 220.375 482.528 220.103 482.958C219.831 483.388 219.472 483.761 219.048 484.057C218.624 484.353 218.144 484.564 217.634 484.68Z" fill="url(#paint8_linear_1683_467)"/>
<path d="M215.289 478.877C214.739 478.997 214.227 479.242 213.796 479.591C213.364 479.94 213.026 480.383 212.808 480.882C212.827 480.248 213.013 479.629 213.346 479.082C213.68 478.534 214.152 478.076 214.719 477.75C215.285 477.424 215.928 477.24 216.588 477.215C217.248 477.19 217.904 477.325 218.495 477.608C219.086 477.89 219.594 478.311 219.972 478.832C220.349 479.352 220.584 479.956 220.655 480.586C220.726 481.217 220.631 481.855 220.378 482.441C220.125 483.027 219.723 483.543 219.208 483.94C219.55 483.358 219.708 482.694 219.664 482.028C219.62 481.361 219.376 480.721 218.961 480.185C218.547 479.649 217.979 479.241 217.327 479.008C216.676 478.776 215.968 478.73 215.289 478.877Z" fill="#C7C7C7"/>
<path d="M211.268 480.603C210.997 481.589 211.063 482.632 211.456 483.579C211.865 484.553 212.539 485.405 213.407 486.044C214.281 486.697 215.381 487.005 216.484 486.908C217.587 486.81 218.609 486.313 219.345 485.518C218.462 485.916 217.497 486.118 216.521 486.11C215.619 486.081 214.75 485.775 214.04 485.239C213.278 484.684 212.64 483.988 212.164 483.191C211.688 482.395 211.383 481.515 211.268 480.603Z" fill="#C7C7C7"/>
<path d="M244.809 509.305C243.696 509.369 242.588 509.113 241.626 508.572C240.665 508.03 239.892 507.226 239.406 506.262C238.921 505.298 238.744 504.217 238.899 503.156C239.054 502.095 239.533 501.103 240.275 500.304C241.018 499.505 241.991 498.936 243.071 498.669C244.15 498.402 245.288 498.449 246.34 498.803C247.392 499.158 248.311 499.805 248.98 500.662C249.648 501.519 250.037 502.548 250.097 503.617C250.176 505.044 249.665 506.443 248.674 507.509C247.683 508.574 246.294 509.22 244.809 509.305Z" fill="url(#paint9_linear_1683_467)"/>
<path d="M242.995 500.625C242.197 500.665 241.421 500.887 240.73 501.273C240.039 501.659 239.455 502.198 239.025 502.845C239.215 501.96 239.633 501.136 240.242 500.449C240.85 499.761 241.629 499.231 242.507 498.909C243.385 498.586 244.333 498.481 245.264 498.604C246.195 498.726 247.079 499.072 247.835 499.609C248.59 500.146 249.192 500.857 249.586 501.676C249.98 502.496 250.153 503.398 250.088 504.298C250.024 505.199 249.724 506.069 249.218 506.829C248.711 507.59 248.013 508.215 247.188 508.647C247.806 507.911 248.19 507.018 248.295 506.077C248.4 505.136 248.22 504.186 247.778 503.341C247.336 502.495 246.65 501.789 245.802 501.308C244.954 500.826 243.98 500.589 242.995 500.625Z" fill="#C7C7C7"/>
<path d="M236.92 502.088C236.373 503.417 236.266 504.875 236.612 506.264C236.945 507.685 237.666 508.995 238.7 510.061C239.749 511.173 241.198 511.861 242.755 511.985C244.25 512.077 245.735 511.696 246.982 510.9C245.642 511.346 244.211 511.482 242.807 511.294C241.489 511.062 240.287 510.421 239.384 509.469C238.459 508.527 237.753 507.406 237.313 506.182C236.881 504.86 236.747 503.464 236.92 502.088Z" fill="#C7C7C7"/>
<path d="M269.863 457.178C272.395 460.91 278.008 461.699 282.389 458.953C286.77 456.208 288.259 450.948 285.726 447.233C283.193 443.517 277.58 442.712 273.217 445.457C268.853 448.202 267.33 453.463 269.863 457.178Z" fill="url(#paint10_linear_1683_467)"/>
<path d="M283.792 450.718C284.454 451.723 284.839 452.874 284.911 454.061C284.982 455.249 284.739 456.435 284.203 457.507C285.636 456.213 286.567 454.489 286.844 452.618C287.121 450.748 286.726 448.843 285.726 447.216C283.193 443.501 277.58 442.712 273.216 445.457C271.75 446.327 270.554 447.56 269.753 449.026C268.952 450.492 268.576 452.138 268.664 453.792C269.323 451.857 270.659 450.201 272.446 449.107C274.177 447.884 276.34 447.367 278.464 447.669C280.589 447.971 282.504 449.066 283.792 450.718Z" fill="#C7C7C7"/>
<path d="M266.765 451.03C266.117 451.993 265.674 453.07 265.462 454.199C265.251 455.328 265.275 456.486 265.533 457.605C265.785 458.801 266.318 459.925 267.09 460.893C267.849 461.846 268.776 462.664 269.828 463.31C270.926 463.898 272.126 464.288 273.37 464.46C274.572 464.601 275.789 464.567 276.981 464.362C279.279 463.969 281.448 463.062 283.313 461.715C281.194 462.309 279.013 462.673 276.81 462.8C274.762 462.942 272.714 462.52 270.906 461.584C270.049 461.079 269.281 460.446 268.63 459.71C267.962 458.98 267.44 458.139 267.09 457.227C266.381 455.231 266.269 453.084 266.765 451.03Z" fill="#C7C7C7"/>
<path d="M140.489 315.927C111.49 311.206 91.9669 284.796 96.882 256.94C101.797 229.084 129.289 210.33 158.288 215.052C187.286 219.773 206.809 246.182 201.894 274.038C196.979 301.894 169.487 320.649 140.489 315.927Z" fill="url(#paint11_linear_1683_467)"/>
<g opacity="0.1">
<path d="M201.308 254.062C194.86 252.854 188.255 252.621 181.731 253.371C170.266 254.538 142.834 264.04 127.963 264.878C107.068 265.963 100.001 258.615 97.4678 254.193C99.0127 247.782 101.824 241.716 105.75 236.324C109.584 240.187 122.281 251.777 154.642 246.056C171.344 243.097 182.775 232.625 186.643 229.075C193.927 235.878 199.018 244.553 201.308 254.062Z" fill="black"/>
<path d="M196.91 288.649C191.38 299.107 182.28 307.424 171.133 312.211C159.985 316.999 147.464 317.966 135.664 314.951C137.462 312.134 139.611 309.54 142.064 307.224C152.742 297.476 169.821 295.635 176.426 295.586C183.897 295.69 191.16 293.231 196.91 288.649Z" fill="black"/>
<path d="M202.54 262.231C202.54 262.692 202.54 263.152 202.54 263.629C202.54 264.105 202.54 264.467 202.54 264.895C202.54 265.848 202.54 266.801 202.54 267.738C202.54 268.675 202.455 269.382 202.369 270.286L202.266 271.223C202.266 271.585 202.181 271.93 202.13 272.275L201.976 273.328C201.976 273.739 201.839 274.166 201.753 274.577C201.668 274.988 201.599 275.399 201.514 275.81C201.428 276.221 201.342 276.517 201.274 276.862C201.086 277.634 200.897 278.391 200.675 279.147C198.313 281.58 194.241 283.322 187.327 284.309C177.059 285.772 163.472 283.141 143.912 286.495C131.936 288.639 120.802 293.898 111.723 301.701C103.939 294.241 98.76 284.642 96.9029 274.232C99.7778 272.506 110.063 268.56 139.873 273.459C149.235 275.109 158.748 275.83 168.263 275.613C190.767 274.774 199.22 266.686 202.181 262.363L202.54 262.231Z" fill="black"/>
</g>
<g opacity="0.1">
<path d="M129.862 242.521C130.102 244.79 127.518 246.878 124.095 247.207C120.673 247.535 117.712 245.974 117.473 243.705C117.233 241.437 119.817 239.349 123.24 239.02C126.662 238.691 129.657 240.269 129.862 242.521Z" fill="black"/>
<path d="M118.602 252.78C118.739 254.045 117.182 255.245 115.179 255.443C113.177 255.64 111.346 254.769 111.209 253.486C111.072 252.204 112.647 251.021 114.632 250.823C116.617 250.626 118.465 251.563 118.602 252.78Z" fill="black"/>
<path d="M186.591 288.188C186.796 290.128 184.52 291.92 181.457 292.216C178.394 292.512 175.879 291.164 175.673 289.224C175.468 287.284 177.744 285.509 180.807 285.213C183.87 284.917 186.334 286.265 186.591 288.188Z" fill="black"/>
<path d="M178.942 294.304C179.044 295.339 177.983 296.276 176.58 296.408C175.988 296.532 175.37 296.43 174.855 296.123C174.341 295.816 173.971 295.328 173.825 294.764C173.722 293.728 174.766 292.791 176.186 292.66C176.778 292.54 177.394 292.644 177.908 292.95C178.421 293.256 178.791 293.741 178.942 294.304Z" fill="black"/>
<path d="M175.143 291.016C175.143 291.624 174.527 292.199 173.637 292.281C172.747 292.364 171.926 291.936 171.926 291.328C171.926 290.72 172.542 290.128 173.432 290.046C174.321 289.964 175.074 290.325 175.143 291.016Z" fill="black"/>
<path d="M146.085 306.435C146.256 308.161 144.374 309.723 142.064 309.97C139.753 310.216 137.58 308.983 137.409 307.257C137.238 305.531 139.018 303.969 141.413 303.723C143.809 303.476 145.897 304.709 146.085 306.435Z" fill="black"/>
<path d="M143.672 299.745C143.753 300.149 143.705 300.568 143.534 300.945C143.363 301.323 143.076 301.642 142.713 301.86C142.349 302.078 141.925 302.185 141.497 302.167C141.069 302.15 140.656 302.008 140.313 301.76C139.971 301.513 139.714 301.171 139.577 300.781C139.441 300.391 139.43 299.97 139.548 299.574C139.665 299.177 139.904 298.825 140.234 298.562C140.564 298.299 140.969 298.138 141.396 298.101C141.658 298.064 141.925 298.077 142.182 298.14C142.439 298.202 142.68 298.313 142.892 298.466C143.103 298.619 143.281 298.811 143.415 299.03C143.549 299.25 143.637 299.493 143.672 299.745Z" fill="black"/>
</g>
<path d="M202.609 267.739C187.251 273.921 171.532 279.24 155.531 283.668C139.18 288.336 122.55 292.052 105.733 294.797C79.7217 298.89 61.5137 298.397 59.7169 292.512C57.92 286.627 72.6541 276.846 96.1671 266.982C96.1671 268.182 96.2869 269.399 96.4238 270.615C96.4238 271.059 96.5265 271.519 96.5778 271.98C84.5989 277.914 77.6682 283.355 78.7463 286.939C79.8244 290.523 89.014 291.591 102.79 290.227C120.08 288.277 137.157 284.861 153.82 280.018C170.591 275.482 186.912 269.53 202.592 262.232C214.913 256.215 221.998 250.725 220.902 247.026C219.807 243.327 210.977 242.423 197.578 243.639C196.81 242.061 195.954 240.525 195.011 239.037C220.902 234.993 239.504 235.749 241.215 241.535C242.927 247.322 227.405 257.563 202.609 267.739Z" fill="url(#paint12_linear_1683_467)"/>
<g opacity="0.2">
<path d="M202.609 267.739C187.251 273.921 171.532 279.24 155.531 283.668C139.18 288.336 122.55 292.052 105.733 294.797C79.7217 298.89 61.5137 298.397 59.7169 292.512C57.92 286.627 72.6541 276.846 96.1671 266.982C96.1671 268.182 96.2869 269.399 96.4238 270.615C96.4238 271.059 96.5265 271.519 96.5778 271.98C84.5989 277.914 77.6682 283.355 78.7463 286.939C79.8244 290.523 89.014 291.591 102.79 290.227C120.08 288.277 137.157 284.861 153.82 280.018C170.591 275.482 186.912 269.53 202.592 262.232C214.913 256.215 221.998 250.725 220.902 247.026C219.807 243.327 210.977 242.423 197.578 243.639C196.81 242.061 195.954 240.525 195.011 239.037C220.902 234.993 239.504 235.749 241.215 241.535C242.927 247.322 227.405 257.563 202.609 267.739Z" fill="black"/>
</g>
<path d="M202.198 272.259C187.149 278.208 171.79 283.404 156.182 287.826C140.685 292.29 124.961 295.988 109.07 298.906C73.4584 305.334 47.464 304.923 44.9142 296.605C42.3644 288.287 63.4131 274.577 96.3211 261.426C96.3211 262.215 96.2013 263.07 96.1842 263.809C68.8037 275.317 51.6909 286.955 53.8984 294.073C56.106 301.191 77.5483 301.997 107.444 297.065C123.719 294.305 139.81 290.627 155.634 286.051C171.564 281.543 187.204 276.136 202.472 269.859C230.177 258.352 247.581 246.5 245.356 239.316C243.132 232.132 222.271 231.442 192.974 236.143C192.495 235.508 191.999 234.866 191.485 234.22C226.43 228.039 251.791 228.549 254.341 236.751C256.891 244.954 235.517 258.944 202.198 272.259Z" fill="url(#paint13_linear_1683_467)"/>
<path d="M383.988 130.212C384.535 129.686 414.654 119.396 438.954 140.898C461.201 160.624 466.437 194.537 463.169 195.047C459.181 195.655 449.992 178.904 430.261 168.383C423.279 164.652 411.437 166.739 411.437 166.739L383.988 130.212Z" fill="url(#paint14_linear_1683_467)"/>
<path opacity="0.1" d="M411.368 166.69C414.898 166.149 418.483 166.011 422.047 166.279C418.402 156.744 411.574 138.991 407.141 127.484C399.308 126.732 391.399 127.664 383.988 130.212L411.368 166.69Z" fill="black"/>
<path d="M331.212 179.874C330.647 180.4 319.233 209.102 341.189 232.889C361.296 254.752 396.446 260.391 397.045 257.267C397.781 253.437 380.514 244.264 369.972 225.113C366.242 218.307 368.62 206.932 368.62 206.932L331.212 179.874Z" fill="url(#paint15_linear_1683_467)"/>
<path opacity="0.1" d="M327.909 202.247L367.97 217.42C367.75 213.923 367.962 210.413 368.603 206.965L331.212 179.906C328.387 187.023 327.258 194.656 327.909 202.247Z" fill="black"/>
<path d="M394.957 221.973L426.239 192.383C426.239 192.383 415.201 153.177 382.704 124.623C366.69 110.967 348.649 99.6761 329.175 91.1211C304.721 80.1565 283.792 75.7509 280.147 79.1702C276.502 82.5894 280.677 102.776 291.561 126.514C300.075 145.384 311.459 162.935 325.342 178.591C354.399 210.466 394.957 221.973 394.957 221.973Z" fill="#C7C7C7"/>
<path d="M331.314 165.391C334.809 168.821 339.284 171.178 344.173 172.164C349.062 173.15 354.146 172.722 358.782 170.932C363.418 169.143 367.397 166.073 370.216 162.111C373.036 158.149 374.568 153.473 374.621 148.674C374.674 143.875 373.244 139.169 370.512 135.151C367.78 131.133 363.869 127.983 359.274 126.1C354.679 124.217 349.605 123.686 344.695 124.573C339.786 125.46 335.26 127.726 331.691 131.084C326.905 135.586 324.178 141.729 324.107 148.163C324.036 154.596 326.629 160.793 331.314 165.391Z" fill="#A6A6A6"/>
<path d="M330.082 163.024C333.577 166.454 338.052 168.81 342.941 169.797C347.831 170.783 352.914 170.354 357.55 168.565C362.186 166.775 366.165 163.706 368.984 159.744C371.804 155.782 373.337 151.106 373.389 146.307C373.442 141.508 372.012 136.802 369.28 132.784C366.548 128.766 362.637 125.616 358.042 123.733C353.447 121.85 348.373 121.319 343.463 122.206C338.554 123.093 334.028 125.358 330.459 128.716C325.673 133.218 322.946 139.362 322.875 145.795C322.804 152.229 325.397 158.426 330.082 163.024Z" fill="url(#paint16_linear_1683_467)"/>
<path d="M335.678 157.862C338.101 160.243 341.205 161.879 344.597 162.565C347.988 163.25 351.515 162.954 354.732 161.715C357.948 160.475 360.71 158.346 362.667 155.599C364.624 152.851 365.69 149.607 365.728 146.278C365.766 142.949 364.776 139.684 362.882 136.895C360.989 134.107 358.277 131.92 355.09 130.612C351.902 129.304 348.383 128.934 344.976 129.547C341.57 130.161 338.429 131.731 335.952 134.059C334.305 135.604 332.991 137.445 332.086 139.478C331.18 141.511 330.701 143.695 330.676 145.906C330.65 148.117 331.079 150.311 331.937 152.363C332.796 154.414 334.067 156.283 335.678 157.862Z" fill="white"/>
<path d="M335.678 157.862C337.191 159.353 338.978 160.563 340.949 161.43L355.067 161.578C357.068 160.761 358.89 159.59 360.44 158.125C361.569 157.075 362.543 155.88 363.332 154.575L332.854 154.246C333.616 155.571 334.567 156.789 335.678 157.862Z" fill="url(#paint17_linear_1683_467)"/>
<path d="M334.241 135.884L362.374 136.18C361.858 135.506 361.286 134.874 360.663 134.289C359.055 132.707 357.138 131.445 355.022 130.576C352.906 129.706 350.632 129.246 348.33 129.221C346.029 129.197 343.745 129.609 341.609 130.433C339.473 131.258 337.528 132.479 335.884 134.026C335.283 134.6 334.734 135.222 334.241 135.884Z" fill="url(#paint18_linear_1683_467)"/>
<path d="M331.314 150.514L364.975 150.876C365.127 150.395 365.252 149.907 365.352 149.413L330.955 149.035C331.04 149.528 331.177 150.021 331.314 150.514Z" fill="url(#paint19_linear_1683_467)"/>
<path d="M291.562 126.629L329.21 91.2365C304.756 80.2718 283.827 75.8663 280.182 79.2855C276.537 82.7048 280.678 102.842 291.562 126.629Z" fill="url(#paint20_linear_1683_467)"/>
<path d="M318.891 93.5543C319.169 93.8173 319.544 93.9647 319.935 93.9647C320.325 93.9647 320.7 93.8173 320.978 93.5543C321.238 93.2888 321.381 92.9372 321.378 92.5728C321.374 92.2084 321.225 91.8594 320.96 91.5986C320.695 91.3378 320.335 91.1853 319.956 91.1729C319.577 91.1606 319.208 91.2893 318.925 91.5323C318.641 91.7961 318.478 92.1573 318.472 92.5365C318.466 92.9156 318.616 93.2817 318.891 93.5543Z" fill="white"/>
<path d="M312.199 99.8502C312.478 100.113 312.853 100.261 313.243 100.261C313.634 100.261 314.009 100.113 314.287 99.8502C314.547 99.5847 314.69 99.2331 314.686 98.8687C314.683 98.5043 314.533 98.1553 314.268 97.8945C314.003 97.6337 313.644 97.4812 313.265 97.4688C312.886 97.4565 312.516 97.5852 312.233 97.8282C311.95 98.092 311.787 98.4532 311.781 98.8324C311.774 99.2115 311.925 99.5776 312.199 99.8502Z" fill="white"/>
<path d="M305.508 106.146C305.787 106.409 306.161 106.556 306.552 106.556C306.943 106.556 307.317 106.409 307.596 106.146C307.856 105.881 307.999 105.529 307.995 105.165C307.992 104.8 307.842 104.451 307.577 104.19C307.312 103.93 306.953 103.777 306.574 103.765C306.194 103.752 305.825 103.881 305.542 104.124C305.259 104.388 305.096 104.749 305.089 105.128C305.083 105.507 305.234 105.874 305.508 106.146Z" fill="white"/>
<path d="M298.817 112.442C299.095 112.705 299.47 112.853 299.861 112.853C300.251 112.853 300.626 112.705 300.905 112.442C301.165 112.177 301.308 111.825 301.304 111.461C301.301 111.097 301.151 110.747 300.886 110.487C300.621 110.226 300.262 110.073 299.882 110.061C299.503 110.049 299.134 110.177 298.851 110.42C298.568 110.684 298.405 111.045 298.398 111.425C298.392 111.804 298.542 112.17 298.817 112.442Z" fill="white"/>
<path d="M292.126 118.738C292.404 119.001 292.779 119.149 293.17 119.149C293.56 119.149 293.935 119.001 294.214 118.738C294.474 118.473 294.617 118.121 294.613 117.757C294.61 117.392 294.46 117.043 294.195 116.783C293.93 116.522 293.571 116.369 293.192 116.357C292.812 116.345 292.443 116.473 292.16 116.716C291.877 116.98 291.714 117.341 291.707 117.72C291.701 118.1 291.852 118.466 292.126 118.738Z" fill="white"/>
<path d="M418.179 190.97C418.315 191.102 418.478 191.207 418.657 191.278C418.836 191.35 419.028 191.387 419.222 191.387C419.417 191.387 419.609 191.35 419.788 191.278C419.967 191.207 420.13 191.102 420.266 190.97C420.403 190.84 420.512 190.685 420.587 190.514C420.661 190.343 420.699 190.16 420.699 189.975C420.699 189.79 420.661 189.607 420.587 189.436C420.512 189.265 420.403 189.111 420.266 188.981C420.134 188.838 419.973 188.723 419.793 188.643C419.613 188.562 419.418 188.517 419.219 188.51C419.021 188.504 418.823 188.536 418.638 188.605C418.453 188.674 418.284 188.778 418.142 188.911C418 189.045 417.887 189.204 417.811 189.38C417.735 189.556 417.696 189.746 417.698 189.936C417.7 190.127 417.742 190.316 417.821 190.49C417.901 190.665 418.017 190.823 418.161 190.953L418.179 190.97Z" fill="#A6A6A6"/>
<path d="M411.488 197.315C411.624 197.447 411.787 197.552 411.966 197.624C412.145 197.696 412.338 197.732 412.532 197.732C412.726 197.732 412.918 197.696 413.097 197.624C413.276 197.552 413.439 197.447 413.575 197.315C413.713 197.185 413.821 197.03 413.896 196.86C413.97 196.689 414.008 196.506 414.008 196.321C414.008 196.136 413.97 195.952 413.896 195.782C413.821 195.611 413.713 195.456 413.575 195.326C413.443 195.184 413.282 195.069 413.102 194.988C412.922 194.907 412.727 194.862 412.529 194.856C412.33 194.849 412.132 194.882 411.947 194.951C411.762 195.019 411.593 195.124 411.451 195.257C411.309 195.39 411.196 195.55 411.12 195.726C411.044 195.902 411.005 196.091 411.007 196.282C411.009 196.473 411.051 196.661 411.131 196.836C411.21 197.011 411.326 197.168 411.471 197.299L411.488 197.315Z" fill="#A6A6A6"/>
<path d="M404.797 203.562C405.075 203.825 405.45 203.972 405.841 203.972C406.231 203.972 406.606 203.825 406.885 203.562C407.022 203.43 407.131 203.274 407.206 203.102C407.28 202.93 407.319 202.745 407.319 202.559C407.319 202.373 407.28 202.188 407.206 202.016C407.131 201.844 407.022 201.688 406.885 201.556C406.606 201.293 406.231 201.146 405.841 201.146C405.45 201.146 405.075 201.293 404.797 201.556C404.527 201.826 404.376 202.185 404.376 202.559C404.376 202.933 404.527 203.292 404.797 203.562Z" fill="#A6A6A6"/>
<path d="M398.106 209.858C398.242 209.99 398.405 210.095 398.584 210.166C398.763 210.238 398.955 210.275 399.149 210.275C399.344 210.275 399.536 210.238 399.715 210.166C399.894 210.095 400.057 209.99 400.193 209.858C400.33 209.728 400.439 209.573 400.514 209.402C400.588 209.231 400.626 209.048 400.626 208.863C400.626 208.678 400.588 208.495 400.514 208.324C400.439 208.153 400.33 207.999 400.193 207.869C400.061 207.726 399.9 207.611 399.72 207.531C399.54 207.45 399.345 207.405 399.147 207.398C398.948 207.392 398.75 207.424 398.565 207.493C398.38 207.562 398.211 207.666 398.069 207.799C397.927 207.933 397.814 208.092 397.738 208.268C397.662 208.444 397.623 208.634 397.625 208.824C397.627 209.015 397.669 209.204 397.748 209.378C397.828 209.553 397.944 209.711 398.088 209.841L398.106 209.858Z" fill="#A6A6A6"/>
<path d="M391.414 216.154C391.551 216.286 391.714 216.391 391.893 216.463C392.072 216.534 392.264 216.571 392.458 216.571C392.652 216.571 392.844 216.534 393.024 216.463C393.203 216.391 393.365 216.286 393.502 216.154C393.639 216.024 393.748 215.869 393.822 215.698C393.897 215.528 393.935 215.344 393.935 215.159C393.935 214.974 393.897 214.791 393.822 214.62C393.748 214.45 393.639 214.295 393.502 214.165C393.224 213.902 392.849 213.754 392.458 213.754C392.068 213.754 391.693 213.902 391.414 214.165C391.15 214.434 391.002 214.789 391.002 215.159C391.002 215.529 391.15 215.885 391.414 216.154Z" fill="#A6A6A6"/>
<path opacity="0.2" d="M281.824 78.4306C301.23 81.5047 333.932 95.8721 366.943 125.856C391.312 147.999 407.09 184.378 414.311 203.677L426.29 192.449C426.29 192.449 415.235 153.243 382.738 124.689C366.724 111.033 348.683 99.7421 329.209 91.1871C307.254 81.3567 288.173 76.8032 281.824 78.4306Z" fill="white"/>
<path d="M407.056 228.22L432.502 204.269L424.477 194.11L396.651 220.296L407.056 228.22Z" fill="url(#paint21_linear_1683_467)"/>
<path opacity="0.1" d="M396.651 220.296L401.716 224.16L427.557 198.006L424.476 194.126L396.651 220.296Z" fill="black"/>
<path opacity="0.6" d="M412.652 222.861C422.754 230.649 431.049 240.381 437.003 251.431C443.019 262.621 445.814 275.152 445.097 287.728C444.665 294.092 443.246 300.358 440.888 306.32C438.484 312.391 435.176 318.095 431.065 323.252C426.873 328.514 421.99 333.233 416.536 337.291C410.998 341.42 405.028 344.984 398.722 347.926C405.425 345.679 411.866 342.764 417.939 339.23C424.113 335.643 429.778 331.306 434.796 326.326C445.176 316.028 452.154 303.01 454.852 288.912C457.424 274.464 455.936 259.618 450.539 245.908C445.108 232.087 436.719 219.515 425.914 209.003L412.652 222.861Z" fill="url(#paint22_linear_1683_467)"/>
<path d="M429.336 240.138L433.443 241.256L433.974 245.579L435.309 241.42L439.57 241.058L435.497 239.71L434.932 235.617L433.58 239.53L429.336 240.138Z" fill="white"/>
<path d="M437.055 320.836L439.365 321.46L439.656 323.877L440.409 321.559L442.787 321.345L440.511 320.589L440.186 318.304L439.45 320.49L437.055 320.836Z" fill="white"/>
<path d="M440.306 300.402L442.599 301.027L442.89 303.443L443.643 301.109L446.022 300.912L443.746 300.156L443.438 297.871L442.685 300.057L440.306 300.402Z" fill="white"/>
<path d="M433.7 227.217L435.993 227.842L436.284 230.258L437.037 227.94L439.416 227.727L437.14 226.971L436.815 224.686L436.079 226.872L433.7 227.217Z" fill="white"/>
<path d="M431.047 325.537C431.229 325.552 431.397 325.636 431.514 325.77C431.631 325.904 431.688 326.078 431.672 326.252C431.656 326.426 431.569 326.588 431.429 326.7C431.289 326.813 431.109 326.867 430.928 326.852C430.746 326.837 430.578 326.753 430.461 326.619C430.344 326.485 430.287 326.311 430.303 326.137C430.319 325.963 430.406 325.801 430.546 325.689C430.685 325.576 430.866 325.522 431.047 325.537Z" fill="white"/>
<path d="M421.43 222.927C421.592 222.961 421.736 223.051 421.834 223.18C421.932 223.309 421.978 223.467 421.963 223.626C421.948 223.785 421.874 223.933 421.754 224.044C421.634 224.154 421.476 224.218 421.311 224.225C421.149 224.19 421.005 224.1 420.907 223.972C420.809 223.843 420.763 223.684 420.778 223.525C420.793 223.367 420.867 223.218 420.987 223.108C421.107 222.998 421.265 222.933 421.43 222.927Z" fill="white"/>
<path d="M452.319 284.226C452.501 284.244 452.667 284.33 452.783 284.466C452.899 284.601 452.953 284.775 452.935 284.95C452.917 285.124 452.827 285.284 452.686 285.395C452.545 285.506 452.364 285.559 452.182 285.542C452.001 285.524 451.834 285.438 451.718 285.302C451.603 285.167 451.548 284.993 451.566 284.818C451.584 284.644 451.674 284.484 451.815 284.373C451.956 284.262 452.137 284.209 452.319 284.226Z" fill="white"/>
<path d="M432.571 322.249C432.698 322.249 432.82 322.298 432.91 322.384C433 322.47 433.05 322.587 433.05 322.71C433.05 322.832 433 322.949 432.91 323.035C432.82 323.121 432.698 323.17 432.571 323.17C432.444 323.17 432.322 323.121 432.232 323.035C432.142 322.949 432.092 322.832 432.092 322.71C432.092 322.587 432.142 322.47 432.232 322.384C432.322 322.298 432.444 322.249 432.571 322.249Z" fill="white"/>
<path d="M454.749 261.508C454.876 261.508 454.998 261.557 455.088 261.643C455.178 261.729 455.228 261.846 455.228 261.968C455.228 262.091 455.178 262.208 455.088 262.294C454.998 262.38 454.876 262.429 454.749 262.429C454.622 262.429 454.5 262.38 454.41 262.294C454.32 262.208 454.27 262.091 454.27 261.968C454.27 261.846 454.32 261.729 454.41 261.643C454.5 261.557 454.622 261.508 454.749 261.508Z" fill="white"/>
<path d="M445.32 308.178C445.665 308.208 445.983 308.369 446.205 308.625C446.426 308.881 446.533 309.211 446.501 309.542C446.469 309.873 446.302 310.179 446.035 310.392C445.769 310.604 445.425 310.707 445.08 310.676C444.736 310.646 444.417 310.485 444.196 310.229C443.974 309.973 443.868 309.643 443.9 309.312C443.931 308.981 444.099 308.675 444.365 308.462C444.632 308.249 444.975 308.147 445.32 308.178Z" fill="white"/>
<path d="M449.016 256.725C449.361 256.755 449.679 256.916 449.901 257.172C450.122 257.428 450.229 257.758 450.197 258.089C450.165 258.42 449.998 258.726 449.731 258.939C449.465 259.151 449.121 259.254 448.777 259.223C448.432 259.193 448.113 259.032 447.892 258.776C447.671 258.52 447.564 258.19 447.596 257.859C447.628 257.528 447.795 257.222 448.061 257.009C448.328 256.796 448.671 256.694 449.016 256.725Z" fill="white"/>
<path d="M183.032 486.472L174.835 487.935L173.004 496.236L171.155 487.935L162.958 486.472L171.138 484.548L173.004 476.707L174.869 484.548L183.032 486.472Z" fill="white"/>
<path d="M128.031 226.28L119.834 227.727L118.003 236.028L116.172 227.727L107.975 226.28L116.138 224.357L118.003 216.516L119.868 224.357L128.031 226.28Z" fill="white"/>
<path d="M266.765 248.275L258.568 249.738L256.737 258.04L254.906 249.738L246.709 248.275L254.871 246.352L256.737 238.511L258.602 246.352L266.765 248.275Z" fill="white"/>
<path d="M77.2407 388.168L72.6545 388.974L71.6277 393.61L70.6009 388.974L66.0319 388.168L70.5838 387.083L71.6277 382.711L72.6716 387.083L77.2407 388.168Z" fill="white"/>
<path d="M100.531 253.848L95.9448 254.67L94.918 259.305L93.8913 254.67L89.3221 253.848L93.8742 252.779L94.918 248.39L95.9619 252.779L100.531 253.848Z" fill="white"/>
<path d="M181.988 316.496L177.402 317.301L176.375 321.953L175.348 317.301L170.762 316.496L175.331 315.427L176.375 311.038L177.419 315.427L181.988 316.496Z" fill="white"/>
<path d="M358.027 316.874L353.441 317.679L352.414 322.332L351.388 317.679L346.801 316.874L351.37 315.789L352.414 311.416L353.458 315.789L358.027 316.874Z" fill="white"/>
<path d="M192.803 512.001L188.217 512.823L187.19 517.459L186.181 512.823L181.594 512.001L186.146 510.932L187.19 506.543L188.251 510.932L192.803 512.001Z" fill="white"/>
<path d="M321.92 258.632C321.566 258.632 321.226 258.767 320.976 259.007C320.725 259.248 320.585 259.574 320.585 259.914C320.585 260.254 320.725 260.58 320.976 260.82C321.226 261.061 321.566 261.196 321.92 261.196C322.274 261.196 322.613 261.061 322.863 260.82C323.114 260.58 323.254 260.254 323.254 259.914C323.254 259.574 323.114 259.248 322.863 259.007C322.613 258.767 322.274 258.632 321.92 258.632Z" fill="white"/>
<path d="M340.059 387.79C339.733 387.826 339.432 387.975 339.214 388.21C338.996 388.445 338.875 388.749 338.875 389.064C338.875 389.379 338.996 389.683 339.214 389.918C339.432 390.153 339.733 390.303 340.059 390.338C340.385 390.303 340.685 390.153 340.904 389.918C341.122 389.683 341.243 389.379 341.243 389.064C341.243 388.749 341.122 388.445 340.904 388.21C340.685 387.975 340.385 387.826 340.059 387.79Z" fill="white"/>
<path d="M170.762 356.869C170.436 356.905 170.135 357.054 169.917 357.289C169.699 357.524 169.578 357.828 169.578 358.143C169.578 358.458 169.699 358.762 169.917 358.997C170.135 359.232 170.436 359.382 170.762 359.417C171.088 359.382 171.388 359.232 171.607 358.997C171.825 358.762 171.946 358.458 171.946 358.143C171.946 357.828 171.825 357.524 171.607 357.289C171.388 357.054 171.088 356.905 170.762 356.869Z" fill="white"/>
<path d="M163.523 401.615C163.197 401.651 162.897 401.8 162.678 402.035C162.46 402.27 162.339 402.574 162.339 402.889C162.339 403.204 162.46 403.508 162.678 403.743C162.897 403.978 163.197 404.128 163.523 404.163C163.849 404.128 164.15 403.978 164.368 403.743C164.586 403.508 164.707 403.204 164.707 402.889C164.707 402.574 164.586 402.27 164.368 402.035C164.15 401.8 163.849 401.651 163.523 401.615Z" fill="white"/>
<path d="M193.727 322.348C193.478 322.348 193.238 322.443 193.062 322.613C192.885 322.782 192.786 323.012 192.786 323.252C192.786 323.492 192.885 323.722 193.062 323.891C193.238 324.061 193.478 324.156 193.727 324.156C193.977 324.156 194.216 324.061 194.393 323.891C194.569 323.722 194.668 323.492 194.668 323.252C194.668 323.012 194.569 322.782 194.393 322.613C194.216 322.443 193.977 322.348 193.727 322.348Z" fill="white"/>
<path d="M426.838 388.168C426.612 388.198 426.406 388.305 426.256 388.47C426.106 388.634 426.023 388.846 426.023 389.064C426.023 389.283 426.106 389.494 426.256 389.659C426.406 389.824 426.612 389.931 426.838 389.96C427.064 389.931 427.27 389.824 427.42 389.659C427.57 389.494 427.653 389.283 427.653 389.064C427.653 388.846 427.57 388.634 427.42 388.47C427.27 388.305 427.064 388.198 426.838 388.168Z" fill="white"/>
<path d="M375.363 380.952C375.113 380.952 374.874 381.047 374.697 381.217C374.521 381.386 374.422 381.616 374.422 381.856C374.422 382.096 374.521 382.326 374.697 382.495C374.874 382.665 375.113 382.76 375.363 382.76C375.612 382.76 375.852 382.665 376.028 382.495C376.205 382.326 376.304 382.096 376.304 381.856C376.304 381.616 376.205 381.386 376.028 381.217C375.852 381.047 375.612 380.952 375.363 380.952Z" fill="white"/>
<path d="M281.379 233.595C280.698 233.595 280.045 233.855 279.564 234.318C279.083 234.78 278.812 235.407 278.812 236.061C278.812 236.715 279.083 237.342 279.564 237.805C280.045 238.267 280.698 238.527 281.379 238.527C282.06 238.527 282.713 238.267 283.194 237.805C283.676 237.342 283.946 236.715 283.946 236.061C283.946 235.407 283.676 234.78 283.194 234.318C282.713 233.855 282.06 233.595 281.379 233.595Z" fill="white"/>
<path d="M309.906 175.797L301.709 177.26L299.878 185.561L298.047 177.26L289.85 175.797L298.013 173.873L299.878 166.032L301.743 173.873L309.906 175.797Z" fill="white"/>
<path d="M386.589 87.3402L382.002 88.1621L380.976 92.7979L379.949 88.1621L375.363 87.3402L379.932 86.2717L380.976 81.8826L382.02 86.2717L386.589 87.3402Z" fill="white"/>
<path d="M65.0905 277.01C64.7647 277.045 64.464 277.195 64.2456 277.43C64.0273 277.665 63.9066 277.969 63.9066 278.284C63.9066 278.599 64.0273 278.903 64.2456 279.138C64.464 279.373 64.7647 279.522 65.0905 279.558C65.4163 279.522 65.717 279.373 65.9354 279.138C66.1537 278.903 66.2744 278.599 66.2744 278.284C66.2744 277.969 66.1537 277.665 65.9354 277.43C65.717 277.195 65.4163 277.045 65.0905 277.01Z" fill="white"/>
<path d="M221.125 186.762C220.875 186.762 220.636 186.857 220.459 187.026C220.283 187.196 220.184 187.426 220.184 187.666C220.184 187.906 220.283 188.135 220.459 188.305C220.636 188.475 220.875 188.57 221.125 188.57C221.375 188.57 221.614 188.475 221.79 188.305C221.967 188.135 222.066 187.906 222.066 187.666C222.066 187.426 221.967 187.196 221.79 187.026C221.614 186.857 221.375 186.762 221.125 186.762Z" fill="white"/>
<path d="M469.329 205.699C469.079 205.699 468.84 205.794 468.664 205.964C468.487 206.133 468.388 206.363 468.388 206.603C468.388 206.843 468.487 207.073 468.664 207.242C468.84 207.412 469.079 207.507 469.329 207.507C469.579 207.507 469.818 207.412 469.995 207.242C470.171 207.073 470.27 206.843 470.27 206.603C470.27 206.363 470.171 206.133 469.995 205.964C469.818 205.794 469.579 205.699 469.329 205.699Z" fill="white"/>
<path d="M390.867 131.56C390.641 131.59 390.434 131.697 390.285 131.862C390.135 132.026 390.052 132.238 390.052 132.456C390.052 132.675 390.135 132.886 390.285 133.051C390.434 133.216 390.641 133.323 390.867 133.352C391.092 133.323 391.299 133.216 391.449 133.051C391.599 132.886 391.681 132.675 391.681 132.456C391.681 132.238 391.599 132.026 391.449 131.862C391.299 131.697 391.092 131.59 390.867 131.56Z" fill="white"/>
<path d="M447.219 347.335C446.538 347.335 445.886 347.595 445.404 348.057C444.923 348.519 444.652 349.147 444.652 349.801C444.652 350.454 444.923 351.082 445.404 351.544C445.886 352.007 446.538 352.266 447.219 352.266C447.9 352.266 448.553 352.007 449.034 351.544C449.516 351.082 449.786 350.454 449.786 349.801C449.786 349.147 449.516 348.519 449.034 348.057C448.553 347.595 447.9 347.335 447.219 347.335Z" fill="white"/>
<path d="M122.778 295.947C122.097 295.947 121.444 296.207 120.963 296.669C120.481 297.132 120.211 297.759 120.211 298.413C120.211 299.067 120.481 299.694 120.963 300.157C121.444 300.619 122.097 300.879 122.778 300.879C123.459 300.879 124.112 300.619 124.593 300.157C125.074 299.694 125.345 299.067 125.345 298.413C125.345 297.759 125.074 297.132 124.593 296.669C124.112 296.207 123.459 295.947 122.778 295.947Z" fill="white"/>
<path d="M79.465 320.704C79.1392 320.739 78.8385 320.889 78.6202 321.124C78.4018 321.359 78.2811 321.663 78.2811 321.978C78.2811 322.293 78.4018 322.597 78.6202 322.832C78.8385 323.067 79.1392 323.216 79.465 323.252C79.7908 323.216 80.0915 323.067 80.3099 322.832C80.5282 322.597 80.6489 322.293 80.6489 321.978C80.6489 321.663 80.5282 321.359 80.3099 321.124C80.0915 320.889 79.7908 320.739 79.465 320.704Z" fill="white"/>
<path d="M224.77 165.967C224.444 166.002 224.143 166.152 223.925 166.387C223.706 166.622 223.586 166.926 223.586 167.241C223.586 167.556 223.706 167.859 223.925 168.094C224.143 168.329 224.444 168.479 224.77 168.515C225.095 168.479 225.396 168.329 225.615 168.094C225.833 167.859 225.954 167.556 225.954 167.241C225.954 166.926 225.833 166.622 225.615 166.387C225.396 166.152 225.095 166.002 224.77 165.967Z" fill="white"/>
<path d="M363.863 296.407C363.537 296.443 363.236 296.593 363.018 296.828C362.8 297.063 362.679 297.366 362.679 297.681C362.679 297.996 362.8 298.3 363.018 298.535C363.236 298.77 363.537 298.92 363.863 298.955C364.188 298.92 364.489 298.77 364.708 298.535C364.926 298.3 365.047 297.996 365.047 297.681C365.047 297.366 364.926 297.063 364.708 296.828C364.489 296.593 364.188 296.443 363.863 296.407Z" fill="white"/>
<path d="M462.399 345.115C462.045 345.115 461.705 345.251 461.455 345.491C461.204 345.731 461.064 346.058 461.064 346.398C461.064 346.738 461.204 347.064 461.455 347.304C461.705 347.545 462.045 347.68 462.399 347.68C462.753 347.68 463.092 347.545 463.342 347.304C463.593 347.064 463.733 346.738 463.733 346.398C463.733 346.058 463.593 345.731 463.342 345.491C463.092 345.251 462.753 345.115 462.399 345.115Z" fill="white"/>
<path d="M386.127 299.761C385.446 299.761 384.793 300.021 384.312 300.483C383.83 300.946 383.56 301.573 383.56 302.227C383.56 302.881 383.83 303.508 384.312 303.97C384.793 304.433 385.446 304.693 386.127 304.693C386.807 304.693 387.46 304.433 387.942 303.97C388.423 303.508 388.694 302.881 388.694 302.227C388.694 301.573 388.423 300.946 387.942 300.483C387.46 300.021 386.807 299.761 386.127 299.761Z" fill="white"/>
<path d="M127.427 314.191L128.637 315.353L84.9297 357.339L83.7196 356.176L127.427 314.191Z" fill="white"/>
<path d="M372.112 253.776L373.359 254.901L354.214 274.479L352.967 273.353L372.112 253.776Z" fill="white"/>
<path d="M182.883 423.033L213.682 446.838L212.609 448.118L181.81 424.314L182.883 423.033Z" fill="white"/>
<path d="M71.1823 361.422H79.4648V364.25H71.1823V361.422Z" fill="white"/>
<path d="M62.5407 370.431H70.8232V373.258H62.5407V370.431Z" fill="white"/>
<path d="M52.4613 361.422H68.1709V364.25H52.4613V361.422Z" fill="white"/>
<path d="M46.9338 361.422H49.5691V364.25H46.9338V361.422Z" fill="white"/>
<path d="M42.707 361.422H45.3423V364.25H42.707V361.422Z" fill="white"/>
<path d="M38.4972 361.422H41.1326V364.25H38.4972V361.422Z" fill="white"/>
<path d="M63.7553 365.877H79.4648V368.705H63.7553V365.877Z" fill="white"/>
<path d="M58.2284 365.877H60.8638V368.705H58.2284V365.877Z" fill="white"/>
<path d="M54.0014 365.877H56.6367V368.705H54.0014V365.877Z" fill="white"/>
<path d="M49.7919 365.877H52.4272V368.705H49.7919V365.877Z" fill="white"/>
<path d="M76.8295 370.431H79.4648V373.258H76.8295V370.431Z" fill="white"/>
<path d="M72.6029 370.431H75.2383V373.258H72.6029V370.431Z" fill="white"/>
<path d="M168.024 412.958H176.307V415.785H168.024V412.958Z" fill="white"/>
<path d="M159.382 421.966H167.664V424.794H159.382V421.966Z" fill="white"/>
<path d="M149.303 412.958H165.012V415.785H149.303V412.958Z" fill="white"/>
<path d="M143.775 412.958H146.411V415.785H143.775V412.958Z" fill="white"/>
<path d="M139.548 412.958H142.183V415.785H139.548V412.958Z" fill="white"/>
<path d="M135.338 412.958H137.974V415.785H135.338V412.958Z" fill="white"/>
<path d="M160.597 417.429H176.307V420.257H160.597V417.429Z" fill="white"/>
<path d="M155.069 417.429H157.705V420.257H155.069V417.429Z" fill="white"/>
<path d="M150.859 417.429H153.495V420.257H150.859V417.429Z" fill="white"/>
<path d="M146.633 417.429H149.268V420.257H146.633V417.429Z" fill="white"/>
<path d="M173.671 421.966H176.307V424.794H173.671V421.966Z" fill="white"/>
<path d="M169.462 421.966H172.097V424.794H169.462V421.966Z" fill="white"/>
<path d="M344.474 277.026H352.757V279.854H344.474V277.026Z" fill="white"/>
<path d="M335.849 286.035H344.132V288.862H335.849V286.035Z" fill="white"/>
<path d="M325.752 277.026H341.462V279.854H325.752V277.026Z" fill="white"/>
<path d="M320.225 277.026H322.861V279.854H320.225V277.026Z" fill="white"/>
<path d="M316.015 277.026H318.651V279.854H316.015V277.026Z" fill="white"/>
<path d="M311.788 277.026H314.424V279.854H311.788V277.026Z" fill="white"/>
<path d="M337.047 281.481H352.757V284.309H337.047V281.481Z" fill="white"/>
<path d="M331.52 281.481H334.155V284.309H331.52V281.481Z" fill="white"/>
<path d="M327.31 281.481H329.945V284.309H327.31V281.481Z" fill="white"/>
<path d="M323.1 281.481H325.736V284.309H323.1V281.481Z" fill="white"/>
<path d="M350.121 286.035H352.757V288.862H350.121V286.035Z" fill="white"/>
<path d="M345.911 286.035H348.547V288.862H345.911V286.035Z" fill="white"/>
<defs>
<linearGradient id="paint0_linear_1683_467" x1="288.353" y1="435.606" x2="288.353" y2="449.07" gradientUnits="userSpaceOnUse">
<stop stop-color="#FD0091"/>
<stop offset="0.0001" stop-color="#FD0091"/>
<stop offset="1" stop-color="#FF7732"/>
</linearGradient>
<linearGradient id="paint1_linear_1683_467" x1="212.794" y1="489.122" x2="212.794" y2="503.976" gradientUnits="userSpaceOnUse">
<stop stop-color="#FD0091"/>
<stop offset="0.0001" stop-color="#FD0091"/>
<stop offset="1" stop-color="#FF7732"/>
</linearGradient>
<linearGradient id="paint2_linear_1683_467" x1="258.919" y1="423.981" x2="258.919" y2="432.544" gradientUnits="userSpaceOnUse">
<stop stop-color="#FD0091"/>
<stop offset="0.0001" stop-color="#FD0091"/>
<stop offset="1" stop-color="#FF7732"/>
</linearGradient>
<linearGradient id="paint3_linear_1683_467" x1="298.663" y1="478.954" x2="298.663" y2="491.031" gradientUnits="userSpaceOnUse">
<stop stop-color="#FD0091"/>
<stop offset="0.0001" stop-color="#FD0091"/>
<stop offset="1" stop-color="#FF7732"/>
</linearGradient>
<linearGradient id="paint4_linear_1683_467" x1="202.934" y1="475.795" x2="211.234" y2="475.795" gradientUnits="userSpaceOnUse">
<stop stop-color="#FD0091"/>
<stop offset="0.0001" stop-color="#FD0091"/>
<stop offset="1" stop-color="#FF7732"/>
</linearGradient>
<linearGradient id="paint5_linear_1683_467" x1="264.985" y1="513.249" x2="264.985" y2="522.376" gradientUnits="userSpaceOnUse">
<stop stop-color="#FD0091"/>
<stop offset="0.0001" stop-color="#FD0091"/>
<stop offset="1" stop-color="#FF7732"/>
</linearGradient>
<linearGradient id="paint6_linear_1683_467" x1="253.776" y1="428.048" x2="253.776" y2="520.072" gradientUnits="userSpaceOnUse">
<stop stop-color="#FD0091"/>
<stop offset="0.0001" stop-color="#FD0091"/>
<stop offset="1" stop-color="#FF7732"/>
</linearGradient>
<linearGradient id="paint7_linear_1683_467" x1="243.832" y1="468.93" x2="243.832" y2="489.314" gradientUnits="userSpaceOnUse">
<stop stop-color="#FD0091"/>
<stop offset="0.0001" stop-color="#FD0091"/>
<stop offset="1" stop-color="#FF7732"/>
</linearGradient>
<linearGradient id="paint8_linear_1683_467" x1="216.726" y1="477.187" x2="216.726" y2="484.781" gradientUnits="userSpaceOnUse">
<stop stop-color="#FD0091"/>
<stop offset="0.0001" stop-color="#FD0091"/>
<stop offset="1" stop-color="#FF7732"/>
</linearGradient>
<linearGradient id="paint9_linear_1683_467" x1="244.475" y1="498.498" x2="244.475" y2="509.315" gradientUnits="userSpaceOnUse">
<stop stop-color="#FD0091"/>
<stop offset="0.0001" stop-color="#FD0091"/>
<stop offset="1" stop-color="#FF7732"/>
</linearGradient>
<linearGradient id="paint10_linear_1683_467" x1="277.798" y1="443.826" x2="277.798" y2="460.589" gradientUnits="userSpaceOnUse">
<stop stop-color="#FD0091"/>
<stop offset="0.0001" stop-color="#FD0091"/>
<stop offset="1" stop-color="#FF7732"/>
</linearGradient>
<linearGradient id="paint11_linear_1683_467" x1="158.288" y1="215.052" x2="141.828" y2="316.145" gradientUnits="userSpaceOnUse">
<stop stop-color="#FD0091"/>
<stop offset="0.0001" stop-color="#FD0091"/>
<stop offset="1" stop-color="#FF7732"/>
</linearGradient>
<linearGradient id="paint12_linear_1683_467" x1="150.456" y1="236.498" x2="150.456" y2="297.469" gradientUnits="userSpaceOnUse">
<stop stop-color="#FD0091"/>
<stop offset="0.0001" stop-color="#FD0091"/>
<stop offset="1" stop-color="#FF7732"/>
</linearGradient>
<linearGradient id="paint13_linear_1683_467" x1="149.626" y1="230.031" x2="149.626" y2="303.332" gradientUnits="userSpaceOnUse">
<stop stop-color="#FD0091"/>
<stop offset="0.0001" stop-color="#FD0091"/>
<stop offset="1" stop-color="#FF7732"/>
</linearGradient>
<linearGradient id="paint14_linear_1683_467" x1="424.023" y1="127.294" x2="424.023" y2="195.063" gradientUnits="userSpaceOnUse">
<stop stop-color="#FD0091"/>
<stop offset="0.0001" stop-color="#FD0091"/>
<stop offset="1" stop-color="#FF7732"/>
</linearGradient>
<linearGradient id="paint15_linear_1683_467" x1="362.407" y1="179.874" x2="362.407" y2="258.064" gradientUnits="userSpaceOnUse">
<stop stop-color="#FD0091"/>
<stop offset="0.0001" stop-color="#FD0091"/>
<stop offset="1" stop-color="#FF7732"/>
</linearGradient>
<linearGradient id="paint16_linear_1683_467" x1="348.132" y1="121.788" x2="348.132" y2="170.315" gradientUnits="userSpaceOnUse">
<stop stop-color="#FD0091"/>
<stop offset="0.0001" stop-color="#FD0091"/>
<stop offset="1" stop-color="#FF7732"/>
</linearGradient>
<linearGradient id="paint17_linear_1683_467" x1="348.093" y1="154.246" x2="348.093" y2="161.578" gradientUnits="userSpaceOnUse">
<stop stop-color="#FD0091"/>
<stop offset="0.0001" stop-color="#FD0091"/>
<stop offset="1" stop-color="#FF7732"/>
</linearGradient>
<linearGradient id="paint18_linear_1683_467" x1="348.308" y1="129.22" x2="348.308" y2="136.18" gradientUnits="userSpaceOnUse">
<stop stop-color="#FD0091"/>
<stop offset="0.0001" stop-color="#FD0091"/>
<stop offset="1" stop-color="#FF7732"/>
</linearGradient>
<linearGradient id="paint19_linear_1683_467" x1="348.153" y1="149.035" x2="348.153" y2="150.876" gradientUnits="userSpaceOnUse">
<stop stop-color="#FD0091"/>
<stop offset="0.0001" stop-color="#FD0091"/>
<stop offset="1" stop-color="#FF7732"/>
</linearGradient>
<linearGradient id="paint20_linear_1683_467" x1="304.049" y1="78.1514" x2="304.049" y2="126.629" gradientUnits="userSpaceOnUse">
<stop stop-color="#FD0091"/>
<stop offset="0.0001" stop-color="#FD0091"/>
<stop offset="1" stop-color="#FF7732"/>
</linearGradient>
<linearGradient id="paint21_linear_1683_467" x1="414.577" y1="194.11" x2="414.577" y2="228.22" gradientUnits="userSpaceOnUse">
<stop stop-color="#FD0091"/>
<stop offset="0.0001" stop-color="#FD0091"/>
<stop offset="1" stop-color="#FF7732"/>
</linearGradient>
<linearGradient id="paint22_linear_1683_467" x1="427.4" y1="209.003" x2="427.4" y2="347.926" gradientUnits="userSpaceOnUse">
<stop stop-color="#FD0091"/>
<stop offset="0.0001" stop-color="#FD0091"/>
<stop offset="1" stop-color="#FF7732"/>
</linearGradient>
</defs>
</svg>
