<svg width="162" height="48" viewBox="0 0 162 48" fill="none" xmlns="http://www.w3.org/2000/svg">
<g clip-path="url(#clip0_1683_403)">
<path d="M124.107 0.582947H124.983C126.928 0.669277 128.885 1.33615 130.351 2.64486C130.868 3.09403 131.258 3.6608 131.689 4.18754C132.399 5.06336 133.113 5.93542 133.83 6.80497C134.28 7.35048 134.705 7.92977 135.277 8.35766C136.755 9.49872 138.759 9.82528 140.56 9.4199C141.458 9.23223 142.265 8.77805 143.078 8.37268C144.492 7.6445 145.867 6.84751 147.229 6.028C148.102 5.50752 148.961 4.95826 149.888 4.53787C151.062 3.9811 152.354 3.49065 153.675 3.67707C154.812 3.82471 155.802 4.5166 156.541 5.36363C158.028 7.07522 159.471 8.8306 160.765 10.6948C156.275 13.2847 151.787 15.8784 147.298 18.467C146.126 19.1214 144.745 19.5531 143.401 19.2403C141.847 18.9162 140.708 17.7038 139.734 16.534C138.5 15.0301 137.407 13.3698 135.844 12.175C134.039 10.7649 131.669 10.1593 129.402 10.3695C127.304 10.5647 125.268 11.2366 123.401 12.2025C122.051 12.9294 120.741 13.7289 119.41 14.4884C116.771 16.0185 114.134 17.5462 111.495 19.0751C110.724 19.5293 109.909 19.9372 109.025 20.1136C107.953 20.3626 106.754 20.2975 105.812 19.6882C105.228 19.3228 104.846 18.736 104.415 18.2168C103.551 17.1558 102.704 16.0811 101.83 15.0301C100.713 13.794 99.4414 12.6516 97.9337 11.9147C96.3623 11.2003 94.5844 11.0452 92.8828 11.2328C90.6357 11.4856 88.4912 12.3026 86.5056 13.3561C82.4481 15.672 78.4219 18.0417 74.3656 20.3588C72.1723 21.5399 69.386 21.0895 67.4304 19.6419C66.5684 19.0488 65.9691 18.1805 65.3109 17.3873C64.4727 16.3576 63.6356 15.3291 62.7974 14.2994C68.9819 10.7636 75.1676 7.23037 81.3508 3.69333C82.0803 3.2792 82.7997 2.84129 83.5754 2.51724C85.1669 1.84162 86.8935 1.48879 88.6226 1.47002C90.4681 1.43624 92.3423 2.00802 93.7786 3.18661C94.5556 3.79092 95.1049 4.61669 95.7279 5.36614C96.5887 6.42712 97.4258 7.50687 98.2991 8.55785C99.8818 10.332 102.548 10.7874 104.763 10.1193C105.437 9.93413 106.019 9.53626 106.622 9.19844C110.124 7.19659 113.621 5.18722 117.115 3.17285C118.238 2.53476 119.337 1.84036 120.551 1.38369C121.686 0.934523 122.889 0.67303 124.107 0.582947Z" fill="white" fill-opacity="0.76"/>
<path d="M88.7752 18.5581C90.4693 18.5568 92.1633 18.5568 93.8574 18.5581C93.8574 24.2859 93.8574 30.0137 93.8574 35.7415C93.8662 39.4174 93.8024 43.0958 94.0226 46.7668C92.5074 46.768 90.9923 46.7668 89.4784 46.7668C89.4008 45.687 89.3532 44.6047 89.2594 43.5262C88.9566 43.9629 88.6851 44.4233 88.3273 44.8174C87.3364 45.9335 85.9701 46.6917 84.5162 47.007C84.1459 47.0845 83.7768 47.1684 83.4077 47.2509H81.8525C80.7302 47.0182 79.5917 46.7517 78.6033 46.1437C76.2173 44.7611 74.7372 42.175 74.2555 39.51C73.8238 37.0703 73.9564 34.4966 74.8235 32.1644C75.588 30.1075 77.0355 28.2721 78.9799 27.2186C80.7565 26.2327 82.891 25.9587 84.8728 26.3753C86.4305 26.6831 87.8981 27.5552 88.7664 28.9064C88.7865 25.457 88.7689 22.0075 88.7752 18.5581ZM83.4277 30.1839C81.8788 30.4116 80.5951 31.5564 79.962 32.9552C79.0975 34.8507 78.9936 37.0452 79.4528 39.0608C79.7856 40.4184 80.535 41.7396 81.7562 42.4778C83.1763 43.3311 85.073 43.3698 86.5006 42.5115C87.4803 41.9298 88.2084 40.9539 88.5212 39.8616C88.8765 38.7718 88.7527 37.612 88.7752 36.4872C88.7577 35.5288 88.8415 34.5542 88.6251 33.6108C88.3335 32.4222 87.5828 31.3312 86.5181 30.7118C85.5972 30.1626 84.4775 30.0124 83.4277 30.1839Z" fill="white" fill-opacity="0.76"/>
<path d="M7.49233 27.5542C9.2352 26.2392 11.6187 25.8664 13.7056 26.4607C15.4184 26.9512 16.7985 28.3099 17.4416 29.9577C18.6827 28.0184 20.7221 26.4757 23.058 26.2392C24.7058 26.0416 26.4637 26.3656 27.8074 27.3765C29.2575 28.44 30.0946 30.1454 30.4561 31.872C30.8377 33.5535 30.7477 35.2876 30.7577 36.9992C30.7564 40.2548 30.7589 43.5115 30.7564 46.767C29.1036 46.767 27.4521 46.7683 25.7993 46.767C25.7943 42.9673 25.8068 39.1675 25.7931 35.3677C25.748 33.9326 25.5478 32.3587 24.5407 31.2526C23.322 29.9552 21.0774 30.0615 19.8225 31.2564C18.8604 32.0909 18.4125 33.3646 18.405 34.6158C18.395 38.6658 18.405 42.7158 18.4012 46.767C16.7472 46.7683 15.0944 46.767 13.4404 46.767C13.4391 42.9685 13.4391 39.17 13.4404 35.3715C13.4479 34.2817 13.3428 33.1594 12.8711 32.1635C12.542 31.4528 11.969 30.836 11.2308 30.5495C10.1761 30.1391 8.92366 30.2893 7.99655 30.9386C7.12574 31.5317 6.5427 32.4713 6.24242 33.4685C5.9997 34.1979 6.04224 34.9761 6.04099 35.7331C6.04099 39.4115 6.04099 43.0886 6.03973 46.767C4.3882 46.7645 2.73667 46.7746 1.08514 46.7608C1.08764 41.9213 1.08764 37.0818 1.08388 32.2423C1.07012 30.4657 1.06887 28.6853 0.91748 26.9136V26.6459C2.37759 26.6434 3.83894 26.6446 5.29905 26.6446C5.41415 27.6543 5.36035 28.689 5.57305 29.6837C6.10479 28.8867 6.71536 28.1272 7.49233 27.5542Z" fill="white" fill-opacity="0.76"/>
<path d="M34.4948 27.964C36.4854 26.8067 38.7988 26.3037 41.0822 26.2011C42.9139 26.1298 44.8244 26.3262 46.4584 27.2158C47.9773 28.0203 49.0734 29.4854 49.5738 31.1144C50.282 33.2527 50.033 35.5323 50.0793 37.7456C50.1206 40.7521 49.9379 43.7787 50.3671 46.7665C48.8544 46.7552 47.3393 46.7915 45.8279 46.7502C45.5964 46.032 45.6026 45.22 45.4262 44.4706C44.9082 44.9961 44.4115 45.5541 43.7797 45.9469C42.705 46.6964 41.4175 47.0079 40.1513 47.2507H38.6412C37.9318 47.0792 37.2023 46.9579 36.5342 46.6513C35.4345 46.1697 34.4911 45.3401 33.8843 44.3042C33.0085 42.8491 32.8633 41.0461 33.2674 39.4184C33.6891 37.6192 35.0078 36.1391 36.6181 35.2858C39.1754 33.9158 42.1469 33.6355 45.0021 33.6243C45.0221 32.6934 44.8607 31.6987 44.2264 30.9768C43.4832 30.1148 42.2971 29.8232 41.2023 29.7894C39.213 29.7432 37.1998 30.2424 35.487 31.2658C35.1567 30.1648 34.8251 29.065 34.4948 27.964ZM40.1463 37.6868C39.228 38.0884 38.416 38.8541 38.192 39.8588C37.9618 40.896 38.1194 42.1322 38.939 42.8804C39.7485 43.6123 40.9433 43.7024 41.9668 43.4759C43.6045 43.1306 45.0108 41.6867 45.1072 39.9839C45.1385 38.968 45.1122 37.9508 45.1184 36.9348C43.4419 36.9186 41.7015 36.9961 40.1463 37.6868Z" fill="white" fill-opacity="0.76"/>
<path d="M60.6416 27.2721C62.4145 26.2011 64.6253 25.9208 66.6247 26.4363C68.0247 26.7991 69.2972 27.6412 70.153 28.811C71.0488 30.0159 71.513 31.4897 71.7031 32.9661C71.852 34.0521 71.8145 35.1506 71.8195 36.2441C71.8208 39.7499 71.8145 43.2556 71.822 46.7614C70.1267 46.7739 68.4301 46.7639 66.7348 46.7664C66.731 42.9241 66.7385 39.0805 66.731 35.2382C66.701 33.8432 66.452 32.3167 65.4386 31.277C64.1624 30.0221 61.9704 30.0396 60.5628 31.0718C59.4543 31.8838 58.7011 33.2163 58.7248 34.6076C58.7073 38.6601 58.7223 42.7139 58.7161 46.7664C57.0095 46.7664 55.3029 46.7677 53.5963 46.7664C53.5951 43.5472 53.5963 40.3279 53.5963 37.1087C53.5876 33.6167 53.6439 30.1222 53.4399 26.634C54.9226 26.6565 56.4064 26.6365 57.8891 26.6452C57.9917 27.6724 58.0217 28.7084 58.1756 29.7306C58.8124 28.7484 59.6194 27.8626 60.6416 27.2721Z" fill="white" fill-opacity="0.76"/>
<path d="M97.437 26.6581C99.1524 26.6256 100.869 26.6531 102.584 26.6443C102.574 33.3556 102.602 40.0655 102.571 46.7755C100.864 46.753 99.1586 46.773 97.452 46.7655C97.4408 40.063 97.4695 33.3606 97.437 26.6581Z" fill="white" fill-opacity="0.76"/>
<path d="M106.015 26.642C107.484 26.6432 108.954 26.652 110.424 26.637C110.499 27.9332 110.527 29.2307 110.604 30.5269C110.828 30.4668 110.848 30.2053 110.943 30.0326C111.495 28.6601 112.635 27.5366 114.031 27.0361C115.119 26.6132 116.303 26.6245 117.452 26.6207C117.466 28.1159 117.457 29.611 117.457 31.1061C116.377 30.8822 115.221 30.8559 114.181 31.2675C113.164 31.6604 112.334 32.4724 111.868 33.4546C111.413 34.3942 111.27 35.4539 111.261 36.4899C111.261 39.9156 111.261 43.3413 111.261 46.7669C109.562 46.7594 107.863 46.7844 106.165 46.7532C106.184 43.6253 106.168 40.4961 106.174 37.3682C106.163 33.7924 106.225 30.2128 106.015 26.642Z" fill="white" fill-opacity="0.76"/>
<path d="M119.814 26.6444C121.517 26.6369 123.22 26.6582 124.923 26.6332C124.954 33.3432 124.929 40.0544 124.935 46.7656C123.227 46.7631 121.519 46.7731 119.812 46.7606C119.818 40.0556 119.812 33.3494 119.814 26.6444Z" fill="white" fill-opacity="0.76"/>
</g>
<defs>
<clipPath id="clip0_1683_403">
<rect width="160.149" height="46.6683" fill="white" transform="translate(0.91748 0.582886)"/>
</clipPath>
</defs>
</svg>
