<svg width="238" height="231" viewBox="0 0 238 231" fill="none" xmlns="http://www.w3.org/2000/svg">
<path d="M39.6273 154.149C20.0408 153.715 6.67343 113.436 16.8586 85.6565C30.7503 47.7705 95.4642 25.6829 135.613 25.7392C156.684 25.7392 190.121 25.7392 208.809 71.0854C218.709 95.0984 217.349 164.154 185.823 173.308C135.956 187.795 136.028 133.739 116.26 131.295C88.0667 127.81 83.6541 155.095 39.6273 154.149Z" fill="#000032" fill-opacity="0.2"/>
<path opacity="0.9" d="M39.6273 154.149C20.0408 153.715 6.67343 113.436 16.8586 85.6565C30.7503 47.7705 95.4642 25.6829 135.613 25.7392C156.684 25.7392 190.121 25.7392 208.809 71.0854C218.709 95.0984 217.349 164.154 185.823 173.308C135.956 187.795 136.028 133.739 116.26 131.295C88.0667 127.81 83.6541 155.095 39.6273 154.149Z" fill="#000032" fill-opacity="0.2"/>
<path d="M111.308 206.91C166.897 206.91 211.96 204.056 211.96 200.536C211.96 197.016 166.897 194.163 111.308 194.163C55.7188 194.163 10.655 197.016 10.655 200.536C10.655 204.056 55.7188 206.91 111.308 206.91Z" fill="#000032" fill-opacity="0.2"/>
<path d="M166.058 149.391C166.058 148.883 166.031 148.382 165.992 147.887L168.709 146.25C168.507 144.853 168.169 143.483 167.701 142.162L164.594 142.222C164.204 141.31 163.74 140.437 163.207 139.614L164.806 136.727C163.976 135.628 163.043 134.626 162.021 133.738L159.36 135.471C158.603 134.891 157.8 134.386 156.96 133.961L157.01 130.597C155.795 130.089 154.533 129.72 153.246 129.498L151.737 132.445C151.275 132.403 150.818 132.379 150.351 132.379C149.883 132.379 149.421 132.379 148.964 132.445L147.455 129.498C146.167 129.72 144.903 130.088 143.686 130.597L143.736 133.961C142.897 134.387 142.094 134.892 141.336 135.471L138.674 133.738C137.651 134.624 136.718 135.626 135.89 136.727L137.483 139.614C136.95 140.437 136.486 141.31 136.096 142.222L132.995 142.162C132.525 143.482 132.186 144.853 131.981 146.25L134.699 147.887C134.66 148.382 134.637 148.883 134.637 149.391C134.637 149.898 134.637 150.399 134.699 150.894L131.981 152.531C132.186 153.927 132.525 155.295 132.995 156.613L136.096 156.559C136.485 157.47 136.949 158.342 137.483 159.162L135.89 162.049C136.718 163.158 137.651 164.17 138.674 165.068L141.336 163.335C142.095 163.911 142.898 164.416 143.736 164.845L143.686 168.208C144.902 168.718 146.166 169.085 147.455 169.301L148.964 166.354C149.421 166.403 149.883 166.427 150.351 166.427C150.818 166.427 151.275 166.427 151.737 166.354L153.246 169.301C154.533 169.084 155.795 168.718 157.01 168.208L156.96 164.845C157.799 164.418 158.602 163.912 159.36 163.335L162.021 165.068C163.043 164.169 163.976 163.157 164.806 162.049L163.207 159.162C163.741 158.342 164.205 157.47 164.594 156.559L167.701 156.613C168.169 155.295 168.507 153.927 168.709 152.531L165.992 150.894C166.031 150.399 166.058 149.898 166.058 149.391ZM150.373 160.937C148.266 160.939 146.206 160.262 144.453 158.993C142.701 157.724 141.334 155.92 140.527 153.809C139.721 151.697 139.509 149.374 139.92 147.132C140.331 144.891 141.345 142.832 142.835 141.216C144.325 139.6 146.224 138.499 148.291 138.054C150.357 137.608 152.5 137.837 154.446 138.713C156.393 139.588 158.056 141.069 159.226 142.97C160.396 144.871 161.02 147.105 161.019 149.391C161.019 152.453 159.898 155.39 157.901 157.555C155.904 159.721 153.197 160.937 150.373 160.937Z" fill="url(#paint0_linear_2253_527)"/>
<path opacity="0.5" d="M166.058 149.391C166.058 148.883 166.031 148.382 165.992 147.887L168.709 146.25C168.507 144.853 168.169 143.483 167.701 142.162L164.594 142.222C164.204 141.31 163.74 140.437 163.207 139.614L164.806 136.727C163.976 135.628 163.043 134.626 162.021 133.738L159.36 135.471C158.603 134.891 157.8 134.386 156.96 133.961L157.01 130.597C155.795 130.089 154.533 129.72 153.246 129.498L151.737 132.445C151.275 132.403 150.818 132.379 150.351 132.379C149.883 132.379 149.421 132.379 148.964 132.445L147.455 129.498C146.167 129.72 144.903 130.088 143.686 130.597L143.736 133.961C142.897 134.387 142.094 134.892 141.336 135.471L138.674 133.738C137.651 134.624 136.718 135.626 135.89 136.727L137.483 139.614C136.95 140.437 136.486 141.31 136.096 142.222L132.995 142.162C132.525 143.482 132.186 144.853 131.981 146.25L134.699 147.887C134.66 148.382 134.637 148.883 134.637 149.391C134.637 149.898 134.637 150.399 134.699 150.894L131.981 152.531C132.186 153.927 132.525 155.295 132.995 156.613L136.096 156.559C136.485 157.47 136.949 158.342 137.483 159.162L135.89 162.049C136.718 163.158 137.651 164.17 138.674 165.068L141.336 163.335C142.095 163.911 142.898 164.416 143.736 164.845L143.686 168.208C144.902 168.718 146.166 169.085 147.455 169.301L148.964 166.354C149.421 166.403 149.883 166.427 150.351 166.427C150.818 166.427 151.275 166.427 151.737 166.354L153.246 169.301C154.533 169.084 155.795 168.718 157.01 168.208L156.96 164.845C157.799 164.418 158.602 163.912 159.36 163.335L162.021 165.068C163.043 164.169 163.976 163.157 164.806 162.049L163.207 159.162C163.741 158.342 164.205 157.47 164.594 156.559L167.701 156.613C168.169 155.295 168.507 153.927 168.709 152.531L165.992 150.894C166.031 150.399 166.058 149.898 166.058 149.391ZM150.373 160.937C148.266 160.939 146.206 160.262 144.453 158.993C142.701 157.724 141.334 155.92 140.527 153.809C139.721 151.697 139.509 149.374 139.92 147.132C140.331 144.891 141.345 142.832 142.835 141.216C144.325 139.6 146.224 138.499 148.291 138.054C150.357 137.608 152.5 137.837 154.446 138.713C156.393 139.588 158.056 141.069 159.226 142.97C160.396 144.871 161.02 147.105 161.019 149.391C161.019 152.453 159.898 155.39 157.901 157.555C155.904 159.721 153.197 160.937 150.373 160.937Z" fill="white"/>
<path d="M82.6366 60.5445C82.6366 60.1761 82.6366 59.8138 82.5865 59.4514L84.5632 58.2436C84.4136 57.2283 84.1673 56.2326 83.8282 55.2724L81.5731 55.3147C81.2901 54.6519 80.9508 54.0191 80.5597 53.4245L81.7234 51.3229C81.1267 50.5247 80.4549 49.7961 79.7189 49.1488L77.7812 50.405C77.2315 49.9849 76.6482 49.6191 76.0384 49.3119L76.0718 46.8963C75.1903 46.5222 74.2734 46.2549 73.3378 46.0991L72.2242 48.2369C71.8901 48.2067 71.556 48.1886 71.2164 48.1886C70.8767 48.1886 70.5371 48.1886 70.2085 48.2369L69.0949 46.0991C68.1575 46.2549 67.2388 46.5222 66.3554 46.8963L66.3944 49.3119C65.7827 49.619 65.1976 49.9848 64.646 50.405L62.7138 49.1488C61.9761 49.796 61.3025 50.5246 60.7037 51.3229L61.8675 53.4245C61.4784 54.0205 61.1392 54.6531 60.8541 55.3147L58.6268 55.2724C58.2877 56.2326 58.0414 57.2283 57.8918 58.2436L59.8685 59.4514C59.8685 59.8138 59.824 60.1761 59.824 60.5445C59.824 60.9129 59.824 61.2752 59.8685 61.6376L57.9085 62.8333C58.0574 63.8488 58.3037 64.8446 58.6435 65.8045L60.8708 65.7622C61.1572 66.425 61.4962 67.0595 61.8842 67.6585L60.7205 69.754C61.3192 70.5524 61.9928 71.281 62.7305 71.9281L64.6627 70.672C65.2143 71.0921 65.7994 71.4579 66.4111 71.765L66.3721 74.2108C67.2555 74.5849 68.1742 74.8522 69.1116 75.008L70.2252 72.8702C70.5538 72.8702 70.8934 72.9185 71.2331 72.9185C71.5727 72.9185 71.9068 72.9185 72.2409 72.8702L73.3545 75.008C74.2901 74.8522 75.207 74.5849 76.0885 74.2108L76.0551 71.765C76.6649 71.4578 77.2482 71.092 77.7979 70.672L79.7356 71.9281C80.4716 71.2809 81.1434 70.5522 81.7401 69.754L80.5597 67.6645C80.9498 67.0671 81.289 66.4324 81.5731 65.7683L83.8282 65.8105C84.168 64.8506 84.4143 63.8548 84.5632 62.8393L82.5865 61.6315C82.6143 61.2752 82.6366 60.9129 82.6366 60.5445ZM71.2331 65.418C70.3443 65.418 69.4756 65.1322 68.7366 64.5967C67.9977 64.0612 67.4217 63.3 67.0816 62.4095C66.7415 61.519 66.6526 60.5391 66.8259 59.5937C66.9993 58.6484 67.4273 57.78 68.0557 57.0984C68.6841 56.4168 69.4848 55.9527 70.3564 55.7646C71.2281 55.5766 72.1316 55.6731 72.9526 56.042C73.7737 56.4108 74.4755 57.0355 74.9693 57.8369C75.463 58.6384 75.7265 59.5806 75.7265 60.5445C75.7265 61.837 75.2531 63.0766 74.4104 63.9906C73.5677 64.9045 72.4248 65.418 71.2331 65.418Z" fill="url(#paint1_linear_2253_527)"/>
<path opacity="0.6" d="M82.6366 60.5445C82.6366 60.1761 82.6366 59.8138 82.5865 59.4514L84.5632 58.2436C84.4136 57.2283 84.1673 56.2326 83.8282 55.2724L81.5731 55.3147C81.2901 54.6519 80.9508 54.0191 80.5597 53.4245L81.7234 51.3229C81.1267 50.5247 80.4549 49.7961 79.7189 49.1488L77.7812 50.405C77.2315 49.9849 76.6482 49.6191 76.0384 49.3119L76.0718 46.8963C75.1903 46.5222 74.2734 46.2549 73.3378 46.0991L72.2242 48.2369C71.8901 48.2067 71.556 48.1886 71.2164 48.1886C70.8767 48.1886 70.5371 48.1886 70.2085 48.2369L69.0949 46.0991C68.1575 46.2549 67.2388 46.5222 66.3554 46.8963L66.3944 49.3119C65.7827 49.619 65.1976 49.9848 64.646 50.405L62.7138 49.1488C61.9761 49.796 61.3025 50.5246 60.7037 51.3229L61.8675 53.4245C61.4784 54.0205 61.1392 54.6531 60.8541 55.3147L58.6268 55.2724C58.2877 56.2326 58.0414 57.2283 57.8918 58.2436L59.8685 59.4514C59.8685 59.8138 59.824 60.1761 59.824 60.5445C59.824 60.9129 59.824 61.2752 59.8685 61.6376L57.9085 62.8333C58.0574 63.8488 58.3037 64.8446 58.6435 65.8045L60.8708 65.7622C61.1572 66.425 61.4962 67.0595 61.8842 67.6585L60.7205 69.754C61.3192 70.5524 61.9928 71.281 62.7305 71.9281L64.6627 70.672C65.2143 71.0921 65.7994 71.4579 66.4111 71.765L66.3721 74.2108C67.2555 74.5849 68.1742 74.8522 69.1116 75.008L70.2252 72.8702C70.5538 72.8702 70.8934 72.9185 71.2331 72.9185C71.5727 72.9185 71.9068 72.9185 72.2409 72.8702L73.3545 75.008C74.2901 74.8522 75.207 74.5849 76.0885 74.2108L76.0551 71.765C76.6649 71.4578 77.2482 71.092 77.7979 70.672L79.7356 71.9281C80.4716 71.2809 81.1434 70.5522 81.7401 69.754L80.5597 67.6645C80.9498 67.0671 81.289 66.4324 81.5731 65.7683L83.8282 65.8105C84.168 64.8506 84.4143 63.8548 84.5632 62.8393L82.5865 61.6315C82.6143 61.2752 82.6366 60.9129 82.6366 60.5445ZM71.2331 65.418C70.3443 65.418 69.4756 65.1322 68.7366 64.5967C67.9977 64.0612 67.4217 63.3 67.0816 62.4095C66.7415 61.519 66.6526 60.5391 66.8259 59.5937C66.9993 58.6484 67.4273 57.78 68.0557 57.0984C68.6841 56.4168 69.4848 55.9527 70.3564 55.7646C71.2281 55.5766 72.1316 55.6731 72.9526 56.042C73.7737 56.4108 74.4755 57.0355 74.9693 57.8369C75.463 58.6384 75.7265 59.5806 75.7265 60.5445C75.7265 61.837 75.2531 63.0766 74.4104 63.9906C73.5677 64.9045 72.4248 65.418 71.2331 65.418Z" fill="white"/>
<path d="M150.011 23.4174H135.534L120.973 204.172H135.45C138.752 204.106 141.918 202.731 144.35 200.307C146.781 197.882 148.31 194.576 148.646 191.013L161.086 36.5764C161.255 34.9007 161.094 33.2051 160.612 31.6025C160.13 29.9998 159.338 28.5269 158.291 27.2819C157.243 26.0369 155.962 25.0482 154.535 24.3819C153.107 23.7155 151.565 23.3867 150.011 23.4174Z" fill="#263238"/>
<path d="M132.471 204.172H72.8922C71.3372 204.204 69.7937 203.877 68.3647 203.211C66.9357 202.545 65.6539 201.557 64.6048 200.312C63.5557 199.067 62.7634 197.593 62.2808 195.99C61.7982 194.386 61.6364 192.689 61.806 191.013L74.2675 36.5764C74.6033 33.0124 76.1315 29.7054 78.5631 27.2806C80.9947 24.8559 84.1613 23.4815 87.4639 23.4173H147.043C148.598 23.3841 150.142 23.711 151.572 24.3762C153.002 25.0414 154.284 26.0296 155.334 27.275C156.384 28.5203 157.176 29.9941 157.659 31.598C158.142 33.202 158.304 34.8992 158.135 36.5764L145.668 191.013C145.332 194.577 143.804 197.884 141.372 200.308C138.94 202.733 135.774 204.108 132.471 204.172Z" fill="url(#paint2_linear_2253_527)"/>
<path d="M146.809 26.4367H131.324C130.817 26.4466 130.327 26.6441 129.938 26.9966C129.548 27.3492 129.281 27.8356 129.18 28.3753L129.08 28.9007C128.812 30.2041 128.148 31.3721 127.195 32.2175C126.242 33.0629 125.055 33.5366 123.824 33.5628H109.091C107.925 33.5872 106.797 33.1109 105.953 32.2377C105.11 31.3645 104.618 30.165 104.586 28.9007V28.3753C104.574 27.8574 104.374 27.3656 104.028 27.0079C103.683 26.6501 103.221 26.4556 102.743 26.4669H87.2357C84.691 26.5162 82.251 27.5752 80.3775 29.4436C78.5039 31.312 77.3267 33.8603 77.0683 36.6065L64.5902 191.013C64.4594 192.304 64.5839 193.611 64.9554 194.846C65.3268 196.081 65.9367 197.216 66.7444 198.175C67.5521 199.135 68.539 199.897 69.6394 200.41C70.7398 200.923 71.9285 201.176 73.1261 201.152H132.705C135.249 201.102 137.689 200.042 139.562 198.174C141.435 196.306 142.613 193.758 142.872 191.013L155.351 36.5763C155.481 35.2844 155.357 33.977 154.985 32.7415C154.613 31.506 154.003 30.3706 153.195 29.4111C152.386 28.4515 151.399 27.69 150.298 27.1771C149.196 26.6642 148.007 26.4118 146.809 26.4367Z" fill="url(#paint3_linear_2253_527)"/>
<path opacity="0.7" d="M146.809 26.4367H131.324C130.817 26.4466 130.327 26.6441 129.938 26.9966C129.548 27.3492 129.281 27.8356 129.18 28.3753L129.08 28.9007C128.812 30.2041 128.148 31.3721 127.195 32.2175C126.242 33.0629 125.055 33.5366 123.824 33.5628H109.091C107.925 33.5872 106.797 33.1109 105.953 32.2377C105.11 31.3645 104.618 30.165 104.586 28.9007V28.3753C104.574 27.8574 104.374 27.3656 104.028 27.0079C103.683 26.6501 103.221 26.4556 102.743 26.4669H87.2357C84.691 26.5162 82.251 27.5752 80.3775 29.4436C78.5039 31.312 77.3267 33.8603 77.0683 36.6065L64.5902 191.013C64.4594 192.304 64.5839 193.611 64.9554 194.846C65.3268 196.081 65.9367 197.216 66.7444 198.175C67.5521 199.135 68.539 199.897 69.6394 200.41C70.7398 200.923 71.9285 201.176 73.1261 201.152H132.705C135.249 201.102 137.689 200.042 139.562 198.174C141.435 196.306 142.613 193.758 142.872 191.013L155.351 36.5763C155.481 35.2844 155.357 33.977 154.985 32.7415C154.613 31.506 154.003 30.3706 153.195 29.4111C152.386 28.4515 151.399 27.69 150.298 27.1771C149.196 26.6642 148.007 26.4118 146.809 26.4367Z" fill="white"/>
<g opacity="0.2">
<path d="M113.283 28.1459C113.251 28.4947 113.101 28.8183 112.863 29.0554C112.625 29.2925 112.315 29.4266 111.991 29.4322C111.84 29.435 111.69 29.4027 111.55 29.3374C111.411 29.272 111.287 29.1752 111.185 29.0534C111.083 28.9316 111.007 28.7876 110.96 28.6311C110.914 28.4746 110.899 28.3092 110.917 28.1459C110.949 27.7987 111.098 27.4766 111.336 27.2406C111.573 27.0046 111.881 26.8712 112.203 26.8656C112.354 26.863 112.504 26.8952 112.643 26.9602C112.782 27.0251 112.907 27.1212 113.009 27.2422C113.111 27.3632 113.188 27.5063 113.235 27.6621C113.283 27.8179 113.299 27.9828 113.283 28.1459Z" fill="black"/>
<path d="M121.775 26.8656H117.716C117.394 26.8712 117.085 27.0046 116.848 27.2406C116.611 27.4766 116.462 27.7987 116.429 28.1459C116.413 28.3095 116.428 28.4751 116.475 28.6316C116.522 28.7881 116.599 28.932 116.702 29.0536C116.804 29.1753 116.929 29.272 117.068 29.3373C117.207 29.4026 117.358 29.4349 117.509 29.4322H121.569C121.891 29.4252 122.2 29.2904 122.437 29.0535C122.674 28.8165 122.822 28.4937 122.855 28.1459C122.871 27.9828 122.854 27.8179 122.807 27.6621C122.76 27.5063 122.682 27.3632 122.58 27.2422C122.478 27.1212 122.354 27.0251 122.215 26.9602C122.076 26.8952 121.926 26.863 121.775 26.8656Z" fill="black"/>
</g>
<path d="M83.8 33.5086H85.0529L85.1587 32.1498H83.9058L83.8 33.5086Z" fill="url(#paint4_linear_2253_527)"/>
<path d="M86.4117 32.1498L86.3059 33.5086H87.5587L87.6645 32.1498L87.7759 30.791H86.5231L86.4117 32.1498Z" fill="url(#paint5_linear_2253_527)"/>
<path d="M89.14 29.4321L89.0287 30.7909L88.9173 32.1497L88.8115 33.5085H90.0644L90.1701 32.1497L90.2815 30.7909L90.3929 29.4321H89.14Z" fill="url(#paint6_linear_2253_527)"/>
<path d="M143.006 29.5227L142.928 30.5191H142.316L142.154 32.512H142.767L142.683 33.5085H148.195L148.518 29.5227H143.006ZM145.233 32.512H143.396L143.557 30.5191H145.395L145.233 32.512Z" fill="url(#paint7_linear_2253_527)"/>
<g opacity="0.4">
<path d="M109.135 33.5327L68.009 199.383C69.5028 200.551 71.3015 201.171 73.1428 201.152H76.3557L117.922 33.5327H109.135Z" fill="white"/>
<path d="M146.809 26.4368H131.324C130.817 26.4467 130.327 26.6442 129.938 26.9967C129.548 27.3493 129.281 27.8357 129.18 28.3754L129.08 28.9008C128.818 30.1692 128.181 31.3101 127.267 32.1504C126.352 32.9908 125.21 33.4846 124.013 33.5569L82.436 201.152H114.147L155.351 34.976C155.217 32.6326 154.254 30.4356 152.663 28.8442C151.071 27.2529 148.974 26.3903 146.809 26.4368Z" fill="white"/>
</g>
<path d="M98.4944 73.7034H80.3646C80.0794 73.7097 79.7963 73.6498 79.5342 73.5276C79.2721 73.4054 79.0372 73.2238 78.8452 72.995C78.6532 72.7662 78.5086 72.4954 78.4211 72.201C78.3336 71.9065 78.3052 71.5951 78.3378 71.2878L80.0695 49.8371C80.1282 49.1838 80.4062 48.5767 80.8508 48.1312C81.2954 47.6858 81.8754 47.4332 82.4805 47.4215H100.616C100.901 47.415 101.184 47.4749 101.446 47.5972C101.708 47.7194 101.942 47.9011 102.134 48.1301C102.325 48.359 102.469 48.6299 102.556 48.9244C102.643 49.2188 102.671 49.5301 102.637 49.8371L100.911 71.2878C100.85 71.9411 100.57 72.5476 100.125 72.9926C99.6799 73.4377 99.0998 73.6905 98.4944 73.7034Z" fill="white"/>
<path d="M144.699 92.5332H105.093C104.808 92.5395 104.525 92.4796 104.262 92.3574C104 92.2352 103.765 92.0536 103.573 91.8248C103.382 91.596 103.237 91.3252 103.149 91.0307C103.062 90.7363 103.033 90.4249 103.066 90.1176L106.318 49.813C106.377 49.1597 106.655 48.5526 107.099 48.1072C107.544 47.6618 108.124 47.4091 108.729 47.3974H148.335C148.62 47.3921 148.903 47.4527 149.164 47.5752C149.426 47.6977 149.66 47.8793 149.852 48.1079C150.044 48.3365 150.189 48.6068 150.277 48.9009C150.364 49.1949 150.393 49.5059 150.362 49.813L147.11 90.1176C147.051 90.7709 146.773 91.378 146.329 91.8234C145.884 92.2688 145.304 92.5214 144.699 92.5332Z" fill="white"/>
<path d="M141.72 129.426H75.8657C75.5807 129.431 75.298 129.37 75.0364 129.248C74.7747 129.125 74.5402 128.944 74.3484 128.715C74.1566 128.486 74.0119 128.216 73.9241 127.922C73.8362 127.628 73.8072 127.317 73.8389 127.01L76.1274 98.6265C76.1885 97.9732 76.468 97.3667 76.9133 96.9217C77.3585 96.4766 77.9386 96.2238 78.5439 96.2109H144.398C144.683 96.2055 144.966 96.2661 145.227 96.3887C145.489 96.5112 145.724 96.6928 145.915 96.9214C146.107 97.15 146.252 97.4203 146.34 97.7144C146.428 98.0084 146.457 98.3193 146.425 98.6265L144.136 127.01C144.075 127.663 143.796 128.27 143.351 128.715C142.905 129.16 142.325 129.413 141.72 129.426Z" fill="white"/>
<path d="M137.054 187.273H71.1994C70.9145 187.279 70.6317 187.218 70.3701 187.096C70.1085 186.973 69.8739 186.792 69.6821 186.563C69.4903 186.334 69.3457 186.064 69.2578 185.77C69.1699 185.476 69.1409 185.165 69.1726 184.858L73.1538 135.525C73.2126 134.871 73.4914 134.263 73.9372 133.817C74.3829 133.372 74.9643 133.12 75.5704 133.109H141.43C141.715 133.103 141.998 133.163 142.26 133.285C142.522 133.407 142.756 133.589 142.948 133.818C143.14 134.047 143.284 134.318 143.37 134.612C143.457 134.907 143.485 135.218 143.451 135.525L139.476 184.858C139.415 185.512 139.134 186.119 138.688 186.565C138.241 187.01 137.66 187.262 137.054 187.273Z" fill="white"/>
<path d="M91.3953 68.0871H73.2655C72.9803 68.0934 72.6972 68.0335 72.4351 67.9113C72.173 67.7891 71.9381 67.6075 71.7461 67.3787C71.5541 67.1499 71.4095 66.8791 71.322 66.5847C71.2345 66.2902 71.2061 65.9788 71.2387 65.6715L72.9704 44.2148C73.0303 43.5609 73.3096 42.9537 73.755 42.5084C74.2005 42.0631 74.7812 41.8107 75.387 41.7992H93.5446C93.8296 41.7938 94.1123 41.8544 94.3739 41.9769C94.6355 42.0994 94.8701 42.2811 95.0619 42.5097C95.2537 42.7383 95.3984 43.0086 95.4862 43.3026C95.5741 43.5966 95.6031 43.9076 95.5714 44.2148L93.8397 65.6715C93.7792 66.3304 93.4961 66.9418 93.0447 67.3878C92.5934 67.8338 92.0059 68.0829 91.3953 68.0871Z" fill="url(#paint8_linear_2253_527)"/>
<path opacity="0.4" d="M91.3953 68.0871H73.2655C72.9803 68.0934 72.6972 68.0335 72.4351 67.9113C72.173 67.7891 71.9381 67.6075 71.7461 67.3787C71.5541 67.1499 71.4095 66.8791 71.322 66.5847C71.2345 66.2902 71.2061 65.9788 71.2387 65.6715L72.9704 44.2148C73.0303 43.5609 73.3096 42.9537 73.755 42.5084C74.2005 42.0631 74.7812 41.8107 75.387 41.7992H93.5446C93.8296 41.7938 94.1123 41.8544 94.3739 41.9769C94.6355 42.0994 94.8701 42.2811 95.0619 42.5097C95.2537 42.7383 95.3984 43.0086 95.4862 43.3026C95.5741 43.5966 95.6031 43.9076 95.5714 44.2148L93.8397 65.6715C93.7792 66.3304 93.4961 66.9418 93.0447 67.3878C92.5934 67.8338 92.0059 68.0829 91.3953 68.0871Z" fill="white"/>
<path opacity="0.8" d="M93.8731 44.227C93.8809 44.1507 93.8738 44.0735 93.8522 44.0004C93.8305 43.9273 93.7949 43.86 93.7475 43.803C93.7002 43.7459 93.6422 43.7004 93.5775 43.6694C93.5128 43.6384 93.4427 43.6226 93.3719 43.6231H75.2366C75.0862 43.6268 74.9424 43.6905 74.8325 43.8018C74.7227 43.9132 74.6544 44.0645 74.6408 44.227L72.9091 65.6837C72.9003 65.7601 72.9068 65.8377 72.928 65.9113C72.9493 65.9848 72.985 66.0525 73.0325 66.1097C73.08 66.167 73.1383 66.2125 73.2035 66.2432C73.2687 66.2739 73.3392 66.289 73.4102 66.2876H91.5456C91.6959 66.2838 91.8398 66.2201 91.9496 66.1088C92.0595 65.9974 92.1278 65.8461 92.1414 65.6837L93.8731 44.227Z" fill="white"/>
<path d="M86.9519 54.0404C86.7514 56.4983 85.3705 58.4911 83.1043 58.4911C80.8381 58.4911 79.7634 56.4983 79.9806 54.0404C80.1977 51.5825 81.5563 49.5896 83.8226 49.5896C86.0888 49.5896 87.1467 51.5825 86.9519 54.0404Z" fill="url(#paint9_linear_2253_527)"/>
<path d="M91.061 62.6581C90.7834 61.5813 90.1837 60.6351 89.3562 59.9682C88.5287 59.3014 87.5203 58.9517 86.4896 58.9743H79.6241C78.5303 58.995 77.4645 59.3522 76.5507 60.0044C75.6369 60.6566 74.9127 61.5769 74.4624 62.6581L73.0203 66.1004C73.0675 66.1565 73.1252 66.2011 73.1895 66.2313C73.2538 66.2615 73.3233 66.2766 73.3933 66.2755H91.5287C91.6777 66.273 91.8206 66.2106 91.9296 66.1004L91.061 62.6581Z" fill="url(#paint10_linear_2253_527)"/>
<path d="M127.276 181.235H61.4221C61.1371 181.24 60.8544 181.179 60.5928 181.057C60.3311 180.934 60.0966 180.753 59.9048 180.524C59.713 180.295 59.5683 180.025 59.4805 179.731C59.3926 179.437 59.3636 179.126 59.3953 178.819L63.3765 129.486C63.4351 128.833 63.7132 128.226 64.1577 127.78C64.6023 127.335 65.1823 127.082 65.7875 127.07H131.642C131.927 127.065 132.209 127.126 132.471 127.248C132.733 127.371 132.967 127.552 133.159 127.781C133.351 128.009 133.495 128.28 133.583 128.574C133.671 128.868 133.7 129.179 133.668 129.486L129.687 178.819C129.627 179.472 129.349 180.078 128.905 180.523C128.46 180.968 127.881 181.221 127.276 181.235Z" fill="url(#paint11_linear_2253_527)"/>
<path opacity="0.4" d="M127.276 181.235H61.4221C61.1371 181.24 60.8544 181.179 60.5928 181.057C60.3311 180.934 60.0966 180.753 59.9048 180.524C59.713 180.295 59.5683 180.025 59.4805 179.731C59.3926 179.437 59.3636 179.126 59.3953 178.819L63.3765 129.486C63.4351 128.833 63.7132 128.226 64.1577 127.78C64.6023 127.335 65.1823 127.082 65.7875 127.07H131.642C131.927 127.065 132.209 127.126 132.471 127.248C132.733 127.371 132.967 127.552 133.159 127.781C133.351 128.009 133.495 128.28 133.583 128.574C133.671 128.868 133.7 129.179 133.668 129.486L129.687 178.819C129.627 179.472 129.349 180.078 128.905 180.523C128.46 180.968 127.881 181.221 127.276 181.235Z" fill="white"/>
<path d="M131.497 128.894H65.6426C65.4915 128.895 65.3463 128.958 65.2359 129.07C65.1255 129.182 65.058 129.335 65.0468 129.498L61.0656 178.831C61.0568 178.907 61.0633 178.985 61.0845 179.059C61.1058 179.132 61.1415 179.2 61.189 179.257C61.2365 179.314 61.2948 179.36 61.36 179.39C61.4252 179.421 61.4957 179.436 61.5667 179.435H127.421C127.571 179.43 127.714 179.366 127.824 179.255C127.933 179.143 128.002 178.993 128.017 178.831L131.998 129.498C132.007 129.422 132 129.344 131.979 129.27C131.958 129.197 131.922 129.129 131.875 129.072C131.827 129.015 131.769 128.969 131.703 128.938C131.638 128.908 131.568 128.893 131.497 128.894Z" fill="#263238"/>
<path d="M102.236 160.617C105.828 156.888 106.185 150.97 103.034 147.399C99.882 143.829 94.4153 143.957 90.8233 147.687C87.2312 151.416 86.8742 157.334 90.0257 160.905C93.1772 164.475 98.6439 164.346 102.236 160.617Z" fill="url(#paint12_linear_2253_527)"/>
<path opacity="0.9" d="M101.039 154.155L93.8618 158.926L94.6358 149.391L101.039 154.155Z" fill="white"/>
<path opacity="0.8" d="M120.071 172.122H64.874L64.913 171.62H120.11L120.071 172.122Z" fill="white"/>
<path d="M86.061 171.868C86.0458 172.053 85.9679 172.225 85.8424 172.351C85.7169 172.477 85.5527 172.548 85.3817 172.55H64.3508C64.2712 172.551 64.1924 172.533 64.1196 172.498C64.0469 172.463 63.9819 172.411 63.9291 172.347C63.8764 172.282 63.837 172.206 63.8137 172.123C63.7904 172.041 63.7837 171.954 63.794 171.868C63.8105 171.684 63.8889 171.514 64.0143 171.389C64.1397 171.264 64.3032 171.194 64.4733 171.192H85.5042C85.5833 171.191 85.6616 171.209 85.7339 171.243C85.8062 171.278 85.8708 171.329 85.9235 171.393C85.9762 171.457 86.0157 171.533 86.0394 171.615C86.0631 171.696 86.0705 171.783 86.061 171.868Z" fill="url(#paint13_linear_2253_527)"/>
<g opacity="0.8">
<path d="M125.233 170.389H125.94L125.89 171.053H126.485L126.575 169.984H125.266L125.233 170.389Z" fill="white"/>
<path d="M121.519 171.053L121.574 170.389H122.281L122.315 169.984H121.006L120.917 171.053H121.519Z" fill="white"/>
<path d="M122.048 173.354H121.335L121.391 172.689H120.789L120.7 173.758H122.014L122.048 173.354Z" fill="white"/>
<path d="M125.756 172.689L125.701 173.354H124.993L124.96 173.758H126.268L126.358 172.689H125.756Z" fill="white"/>
</g>
<g opacity="0.8">
<path opacity="0.9" d="M93.3552 177.237L95.4934 175.818L93.5835 174.392L93.3552 177.237Z" fill="white"/>
<path opacity="0.9" d="M95.5991 174.543L95.4933 175.818L95.3931 177.086H95.9387L96.1448 174.543H95.5991Z" fill="white"/>
</g>
<g opacity="0.8">
<path opacity="0.9" d="M98.0381 177.086H98.7508L98.9568 174.543H98.2441L98.0381 177.086Z" fill="white"/>
<path opacity="0.9" d="M99.5024 174.543L99.2964 177.086H100.004L100.21 174.543H99.5024Z" fill="white"/>
</g>
<path opacity="0.8" d="M91.4843 175.818L89.3462 177.237L89.5745 174.392L91.4843 175.818Z" fill="white"/>
<path d="M131.575 122.777H65.704C65.4191 122.782 65.1364 122.721 64.8747 122.599C64.6131 122.476 64.3786 122.295 64.1868 122.066C63.995 121.838 63.8503 121.567 63.7624 121.273C63.6746 120.979 63.6455 120.668 63.6772 120.361L65.9657 91.9776C66.0269 91.3243 66.3064 90.7178 66.7516 90.2727C67.1969 89.8277 67.7769 89.5749 68.3823 89.562H134.253C134.538 89.5556 134.822 89.6156 135.084 89.7378C135.346 89.8599 135.581 90.0416 135.773 90.2704C135.965 90.4992 136.109 90.7699 136.197 91.0644C136.284 91.3589 136.313 91.6702 136.28 91.9776L133.992 120.361C133.93 121.014 133.651 121.621 133.206 122.066C132.76 122.511 132.18 122.764 131.575 122.777Z" fill="url(#paint14_linear_2253_527)"/>
<path opacity="0.4" d="M131.575 122.777H65.704C65.4191 122.782 65.1364 122.721 64.8747 122.599C64.6131 122.476 64.3786 122.295 64.1868 122.066C63.995 121.838 63.8503 121.567 63.7624 121.273C63.6746 120.979 63.6455 120.668 63.6772 120.361L65.9657 91.9776C66.0269 91.3243 66.3064 90.7178 66.7516 90.2727C67.1969 89.8277 67.7769 89.5749 68.3823 89.562H134.253C134.538 89.5556 134.822 89.6156 135.084 89.7378C135.346 89.8599 135.581 90.0416 135.773 90.2704C135.965 90.4992 136.109 90.7699 136.197 91.0644C136.284 91.3589 136.313 91.6702 136.28 91.9776L133.992 120.361C133.93 121.014 133.651 121.621 133.206 122.066C132.76 122.511 132.18 122.764 131.575 122.777Z" fill="white"/>
<path opacity="0.3" d="M134.131 91.0959H68.2764C68.0512 91.099 67.8348 91.1918 67.6685 91.3566C67.5022 91.5213 67.3975 91.7466 67.3743 91.9896L65.0858 120.373C65.0748 120.488 65.0863 120.603 65.1195 120.713C65.1526 120.822 65.2068 120.922 65.2783 121.007C65.3498 121.092 65.4371 121.16 65.5345 121.206C65.6318 121.251 65.737 121.274 65.8431 121.273H131.697C131.923 121.267 132.138 121.173 132.304 121.007C132.47 120.841 132.575 120.616 132.599 120.373L134.888 91.9896C134.899 91.8755 134.887 91.76 134.854 91.651C134.821 91.542 134.767 91.4419 134.695 91.3574C134.624 91.2729 134.536 91.2058 134.439 91.1607C134.342 91.1156 134.236 91.0935 134.131 91.0959Z" fill="white"/>
<path opacity="0.4" d="M81.7289 106.181H113.467L111.908 97.8837L109.82 91.0958H77.7979L81.7289 106.181Z" fill="white"/>
<path opacity="0.4" d="M81.7288 106.181L66.1826 106.785L65.069 120.367C65.058 120.482 65.0694 120.597 65.1026 120.707C65.1358 120.816 65.1899 120.916 65.2614 121.001C65.333 121.086 65.4203 121.154 65.5176 121.2C65.615 121.245 65.7202 121.268 65.8263 121.267H85.6711L81.7288 106.181Z" fill="white"/>
<path d="M132.956 115.904L133.217 112.673L115.043 104.847L113.284 99.315L118.857 91.0958H116.201L112.565 96.4585L111.307 91.0958H108.929L110.783 99.0855L112.565 104.672H82.4973L79.2066 91.0958H76.8457L80.1365 104.672H66.3553L66.1104 107.691H80.8715L84.1622 121.267H86.5175L83.2268 107.691H99.7474L108.406 121.267H111.229L102.57 107.691H113.874L132.956 115.904Z" fill="white"/>
<path opacity="0.2" d="M101.321 103.357C103.243 103.348 104.799 102.97 104.797 102.514C104.796 102.057 103.236 101.694 101.314 101.703C99.3921 101.712 97.8355 102.09 97.8373 102.546C97.8392 103.003 99.3987 103.366 101.321 103.357Z" fill="black"/>
<path d="M102.103 92.9076C101.157 92.931 100.251 93.3269 99.554 94.0214C98.8573 94.7159 98.4174 95.6616 98.3162 96.682C98.1492 98.7654 101.301 102.872 101.301 102.872C101.301 102.872 105.109 98.7654 105.276 96.682C105.325 96.2017 105.278 95.7157 105.14 95.2564C105.002 94.7971 104.775 94.375 104.475 94.018C104.175 93.661 103.808 93.3774 103.399 93.1859C102.99 92.9945 102.548 92.8996 102.103 92.9076ZM101.657 98.4031C101.454 98.407 101.252 98.3639 101.066 98.2767C100.879 98.1895 100.712 98.0601 100.575 97.8973C100.438 97.7345 100.334 97.5419 100.271 97.3323C100.208 97.1228 100.187 96.9011 100.209 96.682C100.254 96.2161 100.454 95.7841 100.772 95.4671C101.09 95.1502 101.504 94.9701 101.936 94.9608C102.139 94.9569 102.34 95 102.527 95.0873C102.714 95.1745 102.881 95.3038 103.018 95.4666C103.155 95.6295 103.258 95.8221 103.321 96.0316C103.384 96.2412 103.405 96.4629 103.383 96.682C103.341 97.1488 103.141 97.5823 102.823 97.8998C102.505 98.2173 102.09 98.3964 101.657 98.4031Z" fill="url(#paint15_linear_2253_527)"/>
<path d="M116.177 82.2435H153.322C154.059 82.2271 154.765 81.9192 155.308 81.3775C155.85 80.8359 156.191 80.0979 156.267 79.3025L158.973 45.7677C159.011 45.3936 158.974 45.0153 158.866 44.6577C158.758 44.3001 158.582 43.9714 158.348 43.6934C158.114 43.4153 157.829 43.1943 157.51 43.0449C157.192 42.8955 156.848 42.8211 156.501 42.8267H119.356C118.618 42.8405 117.911 43.1476 117.368 43.6897C116.825 44.2318 116.484 44.9713 116.411 45.7677L113.705 79.3025C113.667 79.6768 113.703 80.0555 113.81 80.4135C113.918 80.7716 114.094 81.1007 114.328 81.3789C114.562 81.6572 114.848 81.8782 115.167 82.0272C115.485 82.1763 115.83 82.25 116.177 82.2435Z" fill="url(#paint16_linear_2253_527)"/>
<g opacity="0.4">
<path d="M116.177 82.8458H153.322C154.059 82.8296 154.765 82.5245 155.308 81.9879C155.85 81.4514 156.191 80.7203 156.267 79.9323L158.973 46.7114C159.011 46.3408 158.974 45.966 158.866 45.6117C158.758 45.2575 158.582 44.9319 158.348 44.6565C158.114 44.381 157.829 44.1621 157.51 44.0141C157.192 43.8661 156.848 43.7924 156.501 43.7979H119.356C118.618 43.8115 117.911 44.1158 117.368 44.6528C116.825 45.1899 116.484 45.9224 116.411 46.7114L113.705 79.9323C113.667 80.3031 113.703 80.6783 113.81 81.033C113.918 81.3876 114.094 81.7137 114.328 81.9893C114.562 82.2649 114.848 82.4839 115.167 82.6316C115.485 82.7793 115.83 82.8523 116.177 82.8458Z" fill="white"/>
</g>
<path opacity="0.8" d="M119.316 44.981C119.038 44.9798 118.769 45.0891 118.562 45.2874C118.356 45.4856 118.228 45.7584 118.203 46.0517L115.485 78.8626C115.472 78.9988 115.486 79.1363 115.527 79.2663C115.567 79.3963 115.633 79.5158 115.72 79.6169C115.808 79.718 115.914 79.7985 116.033 79.853C116.152 79.9076 116.28 79.9349 116.41 79.9334H153.718C153.997 79.9346 154.266 79.8253 154.472 79.627C154.678 79.4288 154.807 79.156 154.832 78.8626L157.549 46.0517C157.563 45.9154 157.55 45.7775 157.51 45.6471C157.47 45.5167 157.404 45.3968 157.316 45.2955C157.229 45.1942 157.122 45.1137 157.003 45.0595C156.883 45.0052 156.755 44.9785 156.625 44.981H119.316Z" fill="white"/>
<path d="M127.151 61.4862L115.552 78.108L115.485 78.8685C115.472 79.0039 115.486 79.1407 115.526 79.27C115.567 79.3992 115.632 79.5181 115.719 79.6186C115.806 79.7192 115.912 79.7992 116.031 79.8534C116.149 79.9077 116.277 79.9349 116.406 79.9334H136.965L127.151 61.4862Z" fill="url(#paint17_linear_2253_527)"/>
<path d="M154.926 75.8545L145.95 55.9257L130.916 80.5045H153.523C153.801 80.5058 154.07 80.3935 154.277 80.19C154.483 79.9865 154.611 79.7066 154.636 79.4054L154.926 75.8545Z" fill="url(#paint18_linear_2253_527)"/>
<path opacity="0.2" d="M154.869 76.3122L145.833 56.6317L130.699 80.9044H153.456C153.737 80.9056 154.008 80.7947 154.216 80.5938C154.423 80.3928 154.552 80.1163 154.578 79.8189L154.869 76.3122Z" fill="white"/>
<path d="M139.637 52.7482C139.563 53.5372 139.227 54.2693 138.691 54.806C138.156 55.3426 137.459 55.6466 136.732 55.6605C136.391 55.667 136.051 55.594 135.737 55.4465C135.423 55.299 135.141 55.0802 134.911 54.8048C134.68 54.5294 134.506 54.2035 134.399 53.849C134.293 53.4944 134.257 53.1191 134.293 52.7482C134.367 51.9591 134.704 51.227 135.239 50.6904C135.774 50.1537 136.471 49.8497 137.198 49.8358C137.54 49.8294 137.879 49.9023 138.193 50.0498C138.507 50.1974 138.789 50.4161 139.019 50.6915C139.25 50.967 139.425 51.2928 139.531 51.6474C139.637 52.002 139.673 52.3772 139.637 52.7482Z" fill="url(#paint19_linear_2253_527)"/>
<defs>
<linearGradient id="paint0_linear_2253_527" x1="150.345" y1="129.498" x2="150.345" y2="169.301" gradientUnits="userSpaceOnUse">
<stop stop-color="#FD0091"/>
<stop offset="0.0001" stop-color="#FD0091"/>
<stop offset="1" stop-color="#FF7732"/>
</linearGradient>
<linearGradient id="paint1_linear_2253_527" x1="71.2275" y1="46.0991" x2="71.2275" y2="75.008" gradientUnits="userSpaceOnUse">
<stop stop-color="#FD0091"/>
<stop offset="0.0001" stop-color="#FD0091"/>
<stop offset="1" stop-color="#FF7732"/>
</linearGradient>
<linearGradient id="paint2_linear_2253_527" x1="109.97" y1="23.415" x2="109.97" y2="204.174" gradientUnits="userSpaceOnUse">
<stop stop-color="#FD0091"/>
<stop offset="0.0001" stop-color="#FD0091"/>
<stop offset="1" stop-color="#FF7732"/>
</linearGradient>
<linearGradient id="paint3_linear_2253_527" x1="109.97" y1="26.4351" x2="109.97" y2="201.154" gradientUnits="userSpaceOnUse">
<stop stop-color="#FD0091"/>
<stop offset="0.0001" stop-color="#FD0091"/>
<stop offset="1" stop-color="#FF7732"/>
</linearGradient>
<linearGradient id="paint4_linear_2253_527" x1="84.4794" y1="32.1498" x2="84.4794" y2="33.5086" gradientUnits="userSpaceOnUse">
<stop stop-color="#FD0091"/>
<stop offset="0.0001" stop-color="#FD0091"/>
<stop offset="1" stop-color="#FF7732"/>
</linearGradient>
<linearGradient id="paint5_linear_2253_527" x1="87.0409" y1="30.791" x2="87.0409" y2="33.5086" gradientUnits="userSpaceOnUse">
<stop stop-color="#FD0091"/>
<stop offset="0.0001" stop-color="#FD0091"/>
<stop offset="1" stop-color="#FF7732"/>
</linearGradient>
<linearGradient id="paint6_linear_2253_527" x1="89.6022" y1="29.4321" x2="89.6022" y2="33.5085" gradientUnits="userSpaceOnUse">
<stop stop-color="#FD0091"/>
<stop offset="0.0001" stop-color="#FD0091"/>
<stop offset="1" stop-color="#FF7732"/>
</linearGradient>
<linearGradient id="paint7_linear_2253_527" x1="145.336" y1="29.5227" x2="145.336" y2="33.5085" gradientUnits="userSpaceOnUse">
<stop stop-color="#FD0091"/>
<stop offset="0.0001" stop-color="#FD0091"/>
<stop offset="1" stop-color="#FF7732"/>
</linearGradient>
<linearGradient id="paint8_linear_2253_527" x1="83.4047" y1="41.7988" x2="83.4047" y2="68.0875" gradientUnits="userSpaceOnUse">
<stop stop-color="#FD0091"/>
<stop offset="0.0001" stop-color="#FD0091"/>
<stop offset="1" stop-color="#FF7732"/>
</linearGradient>
<linearGradient id="paint9_linear_2253_527" x1="83.4639" y1="49.5896" x2="83.4639" y2="58.4911" gradientUnits="userSpaceOnUse">
<stop stop-color="#FD0091"/>
<stop offset="0.0001" stop-color="#FD0091"/>
<stop offset="1" stop-color="#FF7732"/>
</linearGradient>
<linearGradient id="paint10_linear_2253_527" x1="82.4749" y1="58.9733" x2="82.4749" y2="66.2755" gradientUnits="userSpaceOnUse">
<stop stop-color="#FD0091"/>
<stop offset="0.0001" stop-color="#FD0091"/>
<stop offset="1" stop-color="#FF7732"/>
</linearGradient>
<linearGradient id="paint11_linear_2253_527" x1="96.5319" y1="127.07" x2="96.5319" y2="181.235" gradientUnits="userSpaceOnUse">
<stop stop-color="#FD0091"/>
<stop offset="0.0001" stop-color="#FD0091"/>
<stop offset="1" stop-color="#FF7732"/>
</linearGradient>
<linearGradient id="paint12_linear_2253_527" x1="90.8233" y1="147.687" x2="103.204" y2="159.612" gradientUnits="userSpaceOnUse">
<stop stop-color="#FD0091"/>
<stop offset="0.0001" stop-color="#FD0091"/>
<stop offset="1" stop-color="#FF7732"/>
</linearGradient>
<linearGradient id="paint13_linear_2253_527" x1="74.9271" y1="171.192" x2="74.9271" y2="172.55" gradientUnits="userSpaceOnUse">
<stop stop-color="#FD0091"/>
<stop offset="0.0001" stop-color="#FD0091"/>
<stop offset="1" stop-color="#FF7732"/>
</linearGradient>
<linearGradient id="paint14_linear_2253_527" x1="99.979" y1="89.5615" x2="99.979" y2="122.777" gradientUnits="userSpaceOnUse">
<stop stop-color="#FD0091"/>
<stop offset="0.0001" stop-color="#FD0091"/>
<stop offset="1" stop-color="#FF7732"/>
</linearGradient>
<linearGradient id="paint15_linear_2253_527" x1="101.802" y1="92.9071" x2="101.802" y2="102.872" gradientUnits="userSpaceOnUse">
<stop stop-color="#FD0091"/>
<stop offset="0.0001" stop-color="#FD0091"/>
<stop offset="1" stop-color="#FF7732"/>
</linearGradient>
<linearGradient id="paint16_linear_2253_527" x1="136.339" y1="42.8264" x2="136.339" y2="82.2439" gradientUnits="userSpaceOnUse">
<stop stop-color="#FD0091"/>
<stop offset="0.0001" stop-color="#FD0091"/>
<stop offset="1" stop-color="#FF7732"/>
</linearGradient>
<linearGradient id="paint17_linear_2253_527" x1="126.223" y1="61.4862" x2="126.223" y2="79.9334" gradientUnits="userSpaceOnUse">
<stop stop-color="#FD0091"/>
<stop offset="0.0001" stop-color="#FD0091"/>
<stop offset="1" stop-color="#FF7732"/>
</linearGradient>
<linearGradient id="paint18_linear_2253_527" x1="142.921" y1="55.9257" x2="142.921" y2="80.5045" gradientUnits="userSpaceOnUse">
<stop stop-color="#FD0091"/>
<stop offset="0.0001" stop-color="#FD0091"/>
<stop offset="1" stop-color="#FF7732"/>
</linearGradient>
<linearGradient id="paint19_linear_2253_527" x1="136.965" y1="49.8354" x2="136.965" y2="55.6609" gradientUnits="userSpaceOnUse">
<stop stop-color="#FD0091"/>
<stop offset="0.0001" stop-color="#FD0091"/>
<stop offset="1" stop-color="#FF7732"/>
</linearGradient>
</defs>
</svg>
