<svg width="238" height="217" viewBox="0 0 238 217" fill="none" xmlns="http://www.w3.org/2000/svg">
<path d="M39.6273 144.806C20.0408 144.399 6.67343 106.561 16.8586 80.4652C30.7503 44.8753 95.4642 24.1264 135.613 24.1793C156.684 24.1793 190.121 24.1793 208.809 66.7772C218.709 89.3349 217.349 154.205 185.823 162.805C135.956 176.414 136.028 125.634 116.26 123.338C88.0667 120.064 83.6541 145.695 39.6273 144.806Z" fill="#000032" fill-opacity="0.2"/>
<path opacity="0.9" d="M39.6273 144.806C20.0408 144.399 6.67343 106.561 16.8586 80.4652C30.7503 44.8753 95.4642 24.1264 135.613 24.1793C156.684 24.1793 190.121 24.1793 208.809 66.7772C218.709 89.3349 217.349 154.205 185.823 162.805C135.956 176.414 136.028 125.634 116.26 123.338C88.0667 120.064 83.6541 145.695 39.6273 144.806Z" fill="#000032" fill-opacity="0.2"/>
<path d="M111.308 194.37C166.897 194.37 211.96 191.689 211.96 188.383C211.96 185.076 166.897 182.396 111.308 182.396C55.7188 182.396 10.655 185.076 10.655 188.383C10.655 191.689 55.7188 194.37 111.308 194.37Z" fill="#000032" fill-opacity="0.2"/>
<path d="M166.058 140.337C166.058 139.86 166.031 139.389 165.992 138.924L168.709 137.387C168.507 136.074 168.169 134.786 167.701 133.546L164.594 133.603C164.204 132.745 163.74 131.925 163.207 131.152L164.806 128.44C163.976 127.408 163.043 126.466 162.021 125.632L159.36 127.26C158.603 126.716 157.8 126.241 156.96 125.842L157.01 122.682C155.795 122.204 154.533 121.858 153.246 121.65L151.737 124.418C151.275 124.378 150.818 124.356 150.351 124.356C149.883 124.356 149.421 124.356 148.964 124.418L147.455 121.65C146.167 121.858 144.903 122.204 143.686 122.682L143.736 125.842C142.897 126.242 142.094 126.717 141.336 127.26L138.674 125.632C137.651 126.465 136.718 127.406 135.89 128.44L137.483 131.152C136.95 131.925 136.486 132.745 136.096 133.603L132.995 133.546C132.525 134.786 132.186 136.074 131.981 137.387L134.699 138.924C134.66 139.389 134.637 139.86 134.637 140.337C134.637 140.813 134.637 141.284 134.699 141.749L131.981 143.287C132.186 144.598 132.525 145.883 132.995 147.122L136.096 147.071C136.485 147.927 136.949 148.745 137.483 149.516L135.89 152.227C136.718 153.27 137.651 154.221 138.674 155.064L141.336 153.436C142.095 153.977 142.898 154.451 143.736 154.854L143.686 158.014C144.902 158.493 146.166 158.837 147.455 159.041L148.964 156.272C149.421 156.318 149.883 156.34 150.351 156.34C150.818 156.34 151.275 156.34 151.737 156.272L153.246 159.041C154.533 158.836 155.795 158.492 157.01 158.014L156.96 154.854C157.799 154.453 158.602 153.978 159.36 153.436L162.021 155.064C163.043 154.219 163.976 153.268 164.806 152.227L163.207 149.516C163.741 148.745 164.205 147.927 164.594 147.071L167.701 147.122C168.169 145.883 168.507 144.598 168.709 143.287L165.992 141.749C166.031 141.284 166.058 140.813 166.058 140.337ZM150.373 151.183C148.266 151.185 146.206 150.549 144.453 149.357C142.701 148.165 141.334 146.47 140.527 144.487C139.721 142.503 139.509 140.321 139.92 138.215C140.331 136.109 141.345 134.175 142.835 132.657C144.325 131.139 146.224 130.105 148.291 129.687C150.357 129.268 152.5 129.484 154.446 130.306C156.393 131.128 158.056 132.52 159.226 134.305C160.396 136.091 161.02 138.19 161.019 140.337C161.019 143.213 159.898 145.972 157.901 148.006C155.904 150.041 153.197 151.183 150.373 151.183V151.183Z" fill="url(#paint0_linear_2363_395)"/>
<path opacity="0.5" d="M166.058 140.337C166.058 139.86 166.031 139.389 165.992 138.924L168.709 137.387C168.507 136.074 168.169 134.786 167.701 133.546L164.594 133.603C164.204 132.745 163.74 131.925 163.207 131.152L164.806 128.44C163.976 127.408 163.043 126.466 162.021 125.632L159.36 127.26C158.603 126.716 157.8 126.241 156.96 125.842L157.01 122.682C155.795 122.204 154.533 121.858 153.246 121.65L151.737 124.418C151.275 124.378 150.818 124.356 150.351 124.356C149.883 124.356 149.421 124.356 148.964 124.418L147.455 121.65C146.167 121.858 144.903 122.204 143.686 122.682L143.736 125.842C142.897 126.242 142.094 126.717 141.336 127.26L138.674 125.632C137.651 126.465 136.718 127.406 135.89 128.44L137.483 131.152C136.95 131.925 136.486 132.745 136.096 133.603L132.995 133.546C132.525 134.786 132.186 136.074 131.981 137.387L134.699 138.924C134.66 139.389 134.637 139.86 134.637 140.337C134.637 140.813 134.637 141.284 134.699 141.749L131.981 143.287C132.186 144.598 132.525 145.883 132.995 147.122L136.096 147.071C136.485 147.927 136.949 148.745 137.483 149.516L135.89 152.227C136.718 153.27 137.651 154.221 138.674 155.064L141.336 153.436C142.095 153.977 142.898 154.451 143.736 154.854L143.686 158.014C144.902 158.493 146.166 158.837 147.455 159.041L148.964 156.272C149.421 156.318 149.883 156.34 150.351 156.34C150.818 156.34 151.275 156.34 151.737 156.272L153.246 159.041C154.533 158.836 155.795 158.492 157.01 158.014L156.96 154.854C157.799 154.453 158.602 153.978 159.36 153.436L162.021 155.064C163.043 154.219 163.976 153.268 164.806 152.227L163.207 149.516C163.741 148.745 164.205 147.927 164.594 147.071L167.701 147.122C168.169 145.883 168.507 144.598 168.709 143.287L165.992 141.749C166.031 141.284 166.058 140.813 166.058 140.337ZM150.373 151.183C148.266 151.185 146.206 150.549 144.453 149.357C142.701 148.165 141.334 146.47 140.527 144.487C139.721 142.503 139.509 140.321 139.92 138.215C140.331 136.109 141.345 134.175 142.835 132.657C144.325 131.139 146.224 130.105 148.291 129.687C150.357 129.268 152.5 129.484 154.446 130.306C156.393 131.128 158.056 132.52 159.226 134.305C160.396 136.091 161.02 138.19 161.019 140.337C161.019 143.213 159.898 145.972 157.901 148.006C155.904 150.041 153.197 151.183 150.373 151.183V151.183Z" fill="white"/>
<path d="M82.6366 56.8751C82.6366 56.529 82.6366 56.1886 82.5865 55.8483L84.5632 54.7136C84.4136 53.7599 84.1673 52.8245 83.8282 51.9225L81.5731 51.9622C81.2901 51.3396 80.9508 50.7452 80.5597 50.1866L81.7234 48.2124C81.1267 47.4625 80.4549 46.7781 79.7189 46.1701L77.7812 47.3501C77.2315 46.9554 76.6482 46.6118 76.0384 46.3232L76.0718 44.054C75.1903 43.7026 74.2734 43.4515 73.3378 43.3052L72.2242 45.3134C71.8901 45.2851 71.556 45.268 71.2164 45.268C70.8767 45.268 70.5371 45.2681 70.2085 45.3134L69.0949 43.3052C68.1575 43.4515 67.2388 43.7026 66.3554 44.054L66.3944 46.3232C65.7827 46.6118 65.1976 46.9554 64.646 47.3501L62.7138 46.1701C61.9761 46.778 61.3025 47.4624 60.7037 48.2124L61.8675 50.1866C61.4784 50.7465 61.1392 51.3407 60.8541 51.9622L58.6268 51.9225C58.2877 52.8245 58.0414 53.7599 57.8918 54.7136L59.8685 55.8483C59.8685 56.1886 59.824 56.529 59.824 56.8751C59.824 57.2211 59.824 57.5615 59.8685 57.9019L57.9085 59.0252C58.0574 59.9791 58.3037 60.9145 58.6435 61.8163L60.8708 61.7766C61.1572 62.3992 61.4962 62.9953 61.8842 63.5579L60.7205 65.5265C61.3192 66.2764 61.9928 66.9608 62.7305 67.5687L64.6627 66.3888C65.2143 66.7834 65.7994 67.127 66.4111 67.4156L66.3721 69.7131C67.2555 70.0645 68.1742 70.3157 69.1116 70.462L70.2252 68.4537C70.5538 68.4537 70.8934 68.4991 71.2331 68.4991C71.5727 68.4991 71.9068 68.4991 72.2409 68.4537L73.3545 70.462C74.2901 70.3157 75.207 70.0645 76.0885 69.7131L76.0551 67.4156C76.6649 67.127 77.2482 66.7834 77.7979 66.3888L79.7356 67.5687C80.4716 66.9608 81.1434 66.2763 81.7401 65.5265L80.5597 63.5636C80.9498 63.0023 81.289 62.4061 81.5731 61.7823L83.8282 61.822C84.168 60.9202 84.4143 59.9848 84.5632 59.0308L82.5865 57.8962C82.6143 57.5615 82.6366 57.2211 82.6366 56.8751ZM71.2331 61.4532C70.3443 61.4532 69.4756 61.1847 68.7366 60.6817C67.9977 60.1786 67.4217 59.4636 67.0816 58.627C66.7415 57.7905 66.6526 56.87 66.8259 55.9819C66.9993 55.0939 67.4273 54.2781 68.0557 53.6378C68.6841 52.9976 69.4848 52.5616 70.3564 52.3849C71.2281 52.2083 72.1316 52.2989 72.9526 52.6454C73.7737 52.9919 74.4755 53.5787 74.9693 54.3316C75.463 55.0845 75.7265 55.9696 75.7265 56.8751C75.7265 58.0893 75.2531 59.2537 74.4104 60.1123C73.5677 60.9709 72.4248 61.4532 71.2331 61.4532Z" fill="url(#paint1_linear_2363_395)"/>
<path opacity="0.6" d="M82.6366 56.8751C82.6366 56.529 82.6366 56.1886 82.5865 55.8483L84.5632 54.7136C84.4136 53.7599 84.1673 52.8245 83.8282 51.9225L81.5731 51.9622C81.2901 51.3396 80.9508 50.7452 80.5597 50.1866L81.7234 48.2124C81.1267 47.4625 80.4549 46.7781 79.7189 46.1701L77.7812 47.3501C77.2315 46.9554 76.6482 46.6118 76.0384 46.3232L76.0718 44.054C75.1903 43.7026 74.2734 43.4515 73.3378 43.3052L72.2242 45.3134C71.8901 45.2851 71.556 45.268 71.2164 45.268C70.8767 45.268 70.5371 45.2681 70.2085 45.3134L69.0949 43.3052C68.1575 43.4515 67.2388 43.7026 66.3554 44.054L66.3944 46.3232C65.7827 46.6118 65.1976 46.9554 64.646 47.3501L62.7138 46.1701C61.9761 46.778 61.3025 47.4624 60.7037 48.2124L61.8675 50.1866C61.4784 50.7465 61.1392 51.3407 60.8541 51.9622L58.6268 51.9225C58.2877 52.8245 58.0414 53.7599 57.8918 54.7136L59.8685 55.8483C59.8685 56.1886 59.824 56.529 59.824 56.8751C59.824 57.2211 59.824 57.5615 59.8685 57.9019L57.9085 59.0252C58.0574 59.9791 58.3037 60.9145 58.6435 61.8163L60.8708 61.7766C61.1572 62.3992 61.4962 62.9953 61.8842 63.5579L60.7205 65.5265C61.3192 66.2764 61.9928 66.9608 62.7305 67.5687L64.6627 66.3888C65.2143 66.7834 65.7994 67.127 66.4111 67.4156L66.3721 69.7131C67.2555 70.0645 68.1742 70.3157 69.1116 70.462L70.2252 68.4537C70.5538 68.4537 70.8934 68.4991 71.2331 68.4991C71.5727 68.4991 71.9068 68.4991 72.2409 68.4537L73.3545 70.462C74.2901 70.3157 75.207 70.0645 76.0885 69.7131L76.0551 67.4156C76.6649 67.127 77.2482 66.7834 77.7979 66.3888L79.7356 67.5687C80.4716 66.9608 81.1434 66.2763 81.7401 65.5265L80.5597 63.5636C80.9498 63.0023 81.289 62.4061 81.5731 61.7823L83.8282 61.822C84.168 60.9202 84.4143 59.9848 84.5632 59.0308L82.5865 57.8962C82.6143 57.5615 82.6366 57.2211 82.6366 56.8751ZM71.2331 61.4532C70.3443 61.4532 69.4756 61.1847 68.7366 60.6817C67.9977 60.1786 67.4217 59.4636 67.0816 58.627C66.7415 57.7905 66.6526 56.87 66.8259 55.9819C66.9993 55.0939 67.4273 54.2781 68.0557 53.6378C68.6841 52.9976 69.4848 52.5616 70.3564 52.3849C71.2281 52.2083 72.1316 52.2989 72.9526 52.6454C73.7737 52.9919 74.4755 53.5787 74.9693 54.3316C75.463 55.0845 75.7265 55.9696 75.7265 56.8751C75.7265 58.0893 75.2531 59.2537 74.4104 60.1123C73.5677 60.9709 72.4248 61.4532 71.2331 61.4532Z" fill="white"/>
<path d="M150.011 21.9979H135.534L120.973 191.798H135.45C138.752 191.736 141.918 190.445 144.35 188.167C146.781 185.889 148.31 182.783 148.646 179.436L161.086 34.3595C161.255 32.7854 161.094 31.1925 160.612 29.687C160.13 28.1815 159.338 26.7978 158.291 25.6283C157.243 24.4587 155.962 23.53 154.535 22.904C153.107 22.278 151.565 21.9691 150.011 21.9979Z" fill="#263238"/>
<path d="M132.471 191.798H72.8922C71.3372 191.828 69.7937 191.52 68.3647 190.895C66.9357 190.27 65.6539 189.341 64.6048 188.172C63.5557 187.002 62.7634 185.618 62.2808 184.111C61.7982 182.605 61.6364 181.011 61.806 179.436L74.2675 34.3596C74.6033 31.0116 76.1315 27.9049 78.5631 25.6272C80.9947 23.3494 84.1613 22.0583 87.4639 21.998H147.043C148.598 21.9668 150.142 22.2738 151.572 22.8987C153.002 23.5236 154.284 24.452 155.334 25.6218C156.384 26.7917 157.176 28.1762 157.659 29.6829C158.142 31.1896 158.304 32.784 158.135 34.3596L145.668 179.436C145.332 182.784 143.804 185.891 141.372 188.168C138.94 190.446 135.774 191.737 132.471 191.798V191.798Z" fill="url(#paint2_linear_2363_395)"/>
<path d="M146.809 24.8343H131.324C130.817 24.8436 130.327 25.0291 129.938 25.3603C129.548 25.6915 129.281 26.1484 129.18 26.6554L129.08 27.1489C128.812 28.3733 128.148 29.4706 127.195 30.2647C126.242 31.0589 125.055 31.5039 123.824 31.5285H109.091C107.925 31.5514 106.797 31.104 105.953 30.2837C105.11 29.4634 104.618 28.3367 104.586 27.1489V26.6554C104.574 26.1689 104.374 25.7069 104.028 25.3708C103.683 25.0348 103.221 24.852 102.743 24.8627H87.2357C84.691 24.909 82.251 25.9038 80.3775 27.659C78.5039 29.4141 77.3267 31.808 77.0683 34.3877L64.5902 179.436C64.4594 180.649 64.5839 181.877 64.9554 183.037C65.3268 184.197 65.9367 185.263 66.7444 186.165C67.5521 187.066 68.539 187.781 69.6394 188.264C70.7398 188.746 71.9285 188.983 73.1261 188.961H132.705C135.249 188.913 137.689 187.918 139.562 186.163C141.435 184.408 142.613 182.015 142.872 179.436L155.351 34.3594C155.481 33.1458 155.357 31.9177 154.985 30.757C154.613 29.5963 154.003 28.5298 153.195 27.6284C152.386 26.727 151.399 26.0116 150.298 25.5298C149.196 25.048 148.007 24.8109 146.809 24.8343Z" fill="url(#paint3_linear_2363_395)"/>
<path opacity="0.7" d="M146.809 24.8343H131.324C130.817 24.8436 130.327 25.0291 129.938 25.3603C129.548 25.6915 129.281 26.1484 129.18 26.6554L129.08 27.1489C128.812 28.3733 128.148 29.4706 127.195 30.2647C126.242 31.0589 125.055 31.5039 123.824 31.5285H109.091C107.925 31.5514 106.797 31.104 105.953 30.2837C105.11 29.4634 104.618 28.3367 104.586 27.1489V26.6554C104.574 26.1689 104.374 25.7069 104.028 25.3708C103.683 25.0348 103.221 24.852 102.743 24.8627H87.2357C84.691 24.909 82.251 25.9038 80.3775 27.659C78.5039 29.4141 77.3267 31.808 77.0683 34.3877L64.5902 179.436C64.4594 180.649 64.5839 181.877 64.9554 183.037C65.3268 184.197 65.9367 185.263 66.7444 186.165C67.5521 187.066 68.539 187.781 69.6394 188.264C70.7398 188.746 71.9285 188.983 73.1261 188.961H132.705C135.249 188.913 137.689 187.918 139.562 186.163C141.435 184.408 142.613 182.015 142.872 179.436L155.351 34.3594C155.481 33.1458 155.357 31.9177 154.985 30.757C154.613 29.5963 154.003 28.5298 153.195 27.6284C152.386 26.727 151.399 26.0116 150.298 25.5298C149.196 25.048 148.007 24.8109 146.809 24.8343Z" fill="white"/>
<g opacity="0.2">
<path d="M113.283 26.4399C113.251 26.7675 113.101 27.0716 112.863 27.2943C112.625 27.517 112.315 27.643 111.991 27.6482C111.84 27.6509 111.69 27.6205 111.55 27.5591C111.411 27.4978 111.287 27.4068 111.185 27.2924C111.083 27.178 111.007 27.0427 110.96 26.8957C110.914 26.7487 110.899 26.5933 110.917 26.4399C110.949 26.1137 111.098 25.8111 111.336 25.5895C111.573 25.3678 111.881 25.2424 112.203 25.2372C112.354 25.2348 112.504 25.265 112.643 25.326C112.782 25.387 112.907 25.4773 113.009 25.591C113.111 25.7046 113.188 25.8391 113.235 25.9854C113.283 26.1317 113.299 26.2866 113.283 26.4399V26.4399Z" fill="black"/>
<path d="M121.775 25.2372H117.716C117.394 25.2424 117.085 25.3678 116.848 25.5895C116.611 25.8111 116.462 26.1137 116.429 26.4399C116.413 26.5936 116.428 26.7491 116.475 26.8961C116.522 27.0431 116.599 27.1783 116.702 27.2926C116.804 27.4069 116.929 27.4977 117.068 27.5591C117.207 27.6204 117.358 27.6508 117.509 27.6482H121.569C121.891 27.6416 122.2 27.515 122.437 27.2924C122.674 27.0698 122.822 26.7666 122.855 26.4399C122.871 26.2866 122.854 26.1317 122.807 25.9854C122.76 25.8391 122.682 25.7046 122.58 25.591C122.478 25.4773 122.354 25.387 122.215 25.326C122.076 25.265 121.926 25.2348 121.775 25.2372V25.2372Z" fill="black"/>
</g>
<path d="M83.8 31.4776H85.0529L85.1587 30.2012H83.9058L83.8 31.4776Z" fill="url(#paint4_linear_2363_395)"/>
<path d="M86.4117 30.2012L86.3059 31.4777H87.5587L87.6645 30.2012L87.7759 28.9248H86.5231L86.4117 30.2012Z" fill="url(#paint5_linear_2363_395)"/>
<path d="M89.14 27.6482L89.0287 28.9246L88.9173 30.2011L88.8115 31.4775H90.0644L90.1701 30.2011L90.2815 28.9246L90.3929 27.6482H89.14Z" fill="url(#paint6_linear_2363_395)"/>
<path d="M143.006 27.7334L142.928 28.6694H142.316L142.154 30.5415H142.767L142.683 31.4776H148.195L148.518 27.7334H143.006ZM145.233 30.5415H143.396L143.557 28.6694H145.395L145.233 30.5415Z" fill="url(#paint7_linear_2363_395)"/>
<g opacity="0.4">
<path d="M109.135 31.5002L68.009 187.299C69.5028 188.396 71.3015 188.978 73.1428 188.961H76.3557L117.922 31.5002H109.135Z" fill="white"/>
<path d="M146.809 24.8344H131.324C130.817 24.8437 130.327 25.0292 129.938 25.3604C129.548 25.6916 129.281 26.1485 129.18 26.6555L129.08 27.149C128.818 28.3406 128.181 29.4124 127.267 30.2018C126.352 30.9911 125.21 31.455 124.013 31.523L82.436 188.961H114.147L155.351 32.8561C155.217 30.6547 154.254 28.5908 152.663 27.0959C151.071 25.601 148.974 24.7907 146.809 24.8344V24.8344Z" fill="white"/>
</g>
<path d="M98.4944 69.2366H80.3646C80.0794 69.2426 79.7963 69.1863 79.5342 69.0715C79.2721 68.9567 79.0372 68.7861 78.8452 68.5711C78.6532 68.3562 78.5086 68.1019 78.4211 67.8252C78.3336 67.5486 78.3052 67.2561 78.3378 66.9674L80.0695 46.8168C80.1282 46.2031 80.4062 45.6327 80.8508 45.2143C81.2954 44.7959 81.8754 44.5586 82.4805 44.5476H100.616C100.901 44.5415 101.184 44.5978 101.446 44.7126C101.708 44.8274 101.942 44.9981 102.134 45.2132C102.325 45.4283 102.469 45.6827 102.556 45.9593C102.643 46.236 102.671 46.5284 102.637 46.8168L100.911 66.9674C100.85 67.5811 100.57 68.1508 100.125 68.5689C99.6799 68.987 99.0998 69.2245 98.4944 69.2366V69.2366Z" fill="white"/>
<path d="M144.699 86.9252H105.093C104.808 86.9312 104.525 86.8749 104.262 86.7601C104 86.6453 103.765 86.4747 103.573 86.2598C103.382 86.0448 103.237 85.7905 103.149 85.5138C103.062 85.2372 103.033 84.9447 103.066 84.656L106.318 46.7942C106.377 46.1805 106.655 45.6101 107.099 45.1917C107.544 44.7733 108.124 44.536 108.729 44.525H148.335C148.62 44.5199 148.903 44.5769 149.164 44.692C149.426 44.807 149.66 44.9777 149.852 45.1924C150.044 45.4071 150.189 45.6611 150.277 45.9373C150.364 46.2135 150.393 46.5056 150.362 46.7942L147.11 84.656C147.051 85.2697 146.773 85.8401 146.329 86.2585C145.884 86.6769 145.304 86.9142 144.699 86.9252V86.9252Z" fill="white"/>
<path d="M141.72 121.582H75.8657C75.5807 121.587 75.298 121.53 75.0364 121.415C74.7747 121.3 74.5402 121.129 74.3484 120.914C74.1566 120.699 74.0119 120.445 73.9241 120.169C73.8362 119.893 73.8072 119.601 73.8389 119.312L76.1274 92.6492C76.1885 92.0354 76.468 91.4657 76.9133 91.0476C77.3585 90.6296 77.9386 90.392 78.5439 90.3799H144.398C144.683 90.3749 144.966 90.4318 145.227 90.5469C145.489 90.662 145.724 90.8326 145.915 91.0474C146.107 91.2621 146.252 91.5161 146.34 91.7923C146.428 92.0685 146.457 92.3606 146.425 92.6492L144.136 119.312C144.075 119.926 143.796 120.496 143.351 120.914C142.905 121.332 142.325 121.57 141.72 121.582Z" fill="white"/>
<path d="M137.054 175.924H71.1994C70.9145 175.929 70.6317 175.872 70.3701 175.757C70.1085 175.642 69.8739 175.471 69.6821 175.256C69.4903 175.041 69.3457 174.787 69.2578 174.511C69.1699 174.235 69.1409 173.943 69.1726 173.654L73.1538 127.311C73.2126 126.697 73.4914 126.126 73.9372 125.707C74.3829 125.289 74.9643 125.052 75.5704 125.042H141.43C141.715 125.036 141.998 125.092 142.26 125.207C142.522 125.322 142.756 125.493 142.948 125.708C143.14 125.923 143.284 126.177 143.37 126.454C143.457 126.731 143.485 127.023 143.451 127.311L139.476 173.654C139.415 174.269 139.134 174.84 138.688 175.258C138.241 175.676 137.66 175.913 137.054 175.924V175.924Z" fill="white"/>
<path d="M91.3953 63.9606H73.2655C72.9803 63.9666 72.6972 63.9103 72.4351 63.7955C72.173 63.6807 71.9381 63.5101 71.7461 63.2952C71.5541 63.0802 71.4095 62.8259 71.322 62.5493C71.2345 62.2727 71.2061 61.9802 71.2387 61.6914L72.9704 41.5351C73.0303 40.9209 73.3096 40.3505 73.755 39.9322C74.2005 39.5139 74.7812 39.2768 75.387 39.2659H93.5446C93.8296 39.2609 94.1123 39.3178 94.3739 39.4329C94.6355 39.548 94.8701 39.7186 95.0619 39.9334C95.2537 40.1481 95.3984 40.4021 95.4862 40.6783C95.5741 40.9545 95.6031 41.2466 95.5714 41.5351L93.8397 61.6914C93.7792 62.3104 93.4961 62.8848 93.0447 63.3037C92.5934 63.7227 92.0059 63.9567 91.3953 63.9606V63.9606Z" fill="url(#paint8_linear_2363_395)"/>
<path opacity="0.4" d="M91.3953 63.9606H73.2655C72.9803 63.9666 72.6972 63.9103 72.4351 63.7955C72.173 63.6807 71.9381 63.5101 71.7461 63.2952C71.5541 63.0802 71.4095 62.8259 71.322 62.5493C71.2345 62.2727 71.2061 61.9802 71.2387 61.6914L72.9704 41.5351C73.0303 40.9209 73.3096 40.3505 73.755 39.9322C74.2005 39.5139 74.7812 39.2768 75.387 39.2659H93.5446C93.8296 39.2609 94.1123 39.3178 94.3739 39.4329C94.6355 39.548 94.8701 39.7186 95.0619 39.9334C95.2537 40.1481 95.3984 40.4021 95.4862 40.6783C95.5741 40.9545 95.6031 41.2466 95.5714 41.5351L93.8397 61.6914C93.7792 62.3104 93.4961 62.8848 93.0447 63.3037C92.5934 63.7227 92.0059 63.9567 91.3953 63.9606V63.9606Z" fill="white"/>
<path opacity="0.8" d="M93.8731 41.5466C93.8809 41.4749 93.8738 41.4024 93.8522 41.3337C93.8305 41.2651 93.7949 41.2019 93.7475 41.1483C93.7002 41.0947 93.6422 41.0519 93.5775 41.0228C93.5128 40.9936 93.4427 40.9788 93.3719 40.9793H75.2366C75.0862 40.9828 74.9424 41.0426 74.8325 41.1472C74.7227 41.2518 74.6544 41.394 74.6408 41.5466L72.9091 61.7028C72.9003 61.7747 72.9068 61.8476 72.928 61.9167C72.9493 61.9857 72.985 62.0493 73.0325 62.1031C73.08 62.1569 73.1383 62.1997 73.2035 62.2285C73.2687 62.2573 73.3392 62.2715 73.4102 62.2702H91.5456C91.6959 62.2666 91.8398 62.2068 91.9496 62.1022C92.0595 61.9976 92.1277 61.8554 92.1414 61.7028L93.8731 41.5466Z" fill="white"/>
<path d="M86.9519 50.7653C86.7514 53.0742 85.3705 54.9463 83.1043 54.9463C80.8381 54.9463 79.7634 53.0742 79.9806 50.7653C80.1977 48.4563 81.5563 46.5842 83.8226 46.5842C86.0888 46.5842 87.1467 48.4563 86.9519 50.7653Z" fill="url(#paint9_linear_2363_395)"/>
<path d="M91.061 58.8607C90.7834 57.8491 90.1837 56.9603 89.3562 56.3338C88.5287 55.7074 87.5203 55.379 86.4896 55.4001H79.6241C78.5303 55.4196 77.4645 55.7551 76.5507 56.3678C75.6369 56.9804 74.9127 57.845 74.4624 58.8607L73.0203 62.0943C73.0675 62.1471 73.1252 62.189 73.1895 62.2173C73.2538 62.2457 73.3233 62.2598 73.3933 62.2588H91.5287C91.6777 62.2565 91.8206 62.1979 91.9296 62.0943L91.061 58.8607Z" fill="url(#paint10_linear_2363_395)"/>
<path d="M127.276 170.251H61.4221C61.1371 170.256 60.8544 170.199 60.5928 170.084C60.3311 169.969 60.0966 169.798 59.9048 169.583C59.713 169.368 59.5683 169.115 59.4805 168.838C59.3926 168.562 59.3636 168.27 59.3953 167.981L63.3765 121.638C63.4351 121.025 63.7132 120.454 64.1577 120.036C64.6023 119.618 65.1823 119.38 65.7875 119.369H131.642C131.927 119.364 132.209 119.421 132.471 119.536C132.733 119.651 132.967 119.822 133.159 120.037C133.351 120.251 133.495 120.505 133.583 120.782C133.671 121.058 133.7 121.35 133.668 121.638L129.687 167.981C129.627 168.595 129.349 169.164 128.905 169.583C128.46 170.001 127.881 170.238 127.276 170.251Z" fill="url(#paint11_linear_2363_395)"/>
<path opacity="0.4" d="M127.276 170.251H61.4221C61.1371 170.256 60.8544 170.199 60.5928 170.084C60.3311 169.969 60.0966 169.798 59.9048 169.583C59.713 169.368 59.5683 169.115 59.4805 168.838C59.3926 168.562 59.3636 168.27 59.3953 167.981L63.3765 121.638C63.4351 121.025 63.7132 120.454 64.1577 120.036C64.6023 119.618 65.1823 119.38 65.7875 119.369H131.642C131.927 119.364 132.209 119.421 132.471 119.536C132.733 119.651 132.967 119.822 133.159 120.037C133.351 120.251 133.495 120.505 133.583 120.782C133.671 121.058 133.7 121.35 133.668 121.638L129.687 167.981C129.627 168.595 129.349 169.164 128.905 169.583C128.46 170.001 127.881 170.238 127.276 170.251Z" fill="white"/>
<path d="M131.497 121.082H65.6426C65.4915 121.083 65.3463 121.142 65.2359 121.247C65.1255 121.353 65.058 121.496 65.0468 121.65L61.0656 167.993C61.0568 168.064 61.0633 168.137 61.0845 168.206C61.1058 168.276 61.1415 168.339 61.189 168.393C61.2365 168.447 61.2948 168.489 61.36 168.518C61.4252 168.547 61.4957 168.561 61.5667 168.56H127.421C127.571 168.555 127.714 168.495 127.824 168.391C127.933 168.286 128.002 168.145 128.017 167.993L131.998 121.65C132.007 121.578 132 121.505 131.979 121.436C131.958 121.367 131.922 121.303 131.875 121.249C131.827 121.196 131.769 121.153 131.703 121.124C131.638 121.095 131.568 121.081 131.497 121.082V121.082Z" fill="#263238"/>
<path d="M102.236 150.883C105.828 147.379 106.185 141.82 103.034 138.466C99.882 135.112 94.4153 135.233 90.8233 138.736C87.2312 142.24 86.8742 147.799 90.0257 151.153C93.1772 154.507 98.6439 154.386 102.236 150.883Z" fill="url(#paint12_linear_2363_395)"/>
<path opacity="0.9" d="M101.039 144.813L93.8618 149.294L94.6358 140.337L101.039 144.813Z" fill="white"/>
<path opacity="0.8" d="M120.071 161.69H64.874L64.913 161.219H120.11L120.071 161.69Z" fill="white"/>
<path d="M86.061 161.452C86.0458 161.625 85.9679 161.787 85.8424 161.906C85.7169 162.024 85.5527 162.091 85.3817 162.093H64.3508C64.2712 162.094 64.1924 162.077 64.1196 162.044C64.0469 162.011 63.9819 161.962 63.9291 161.902C63.8764 161.841 63.837 161.769 63.8137 161.692C63.7904 161.614 63.7837 161.532 63.794 161.452C63.8105 161.279 63.8889 161.119 64.0143 161.002C64.1397 160.884 64.3032 160.818 64.4733 160.816H85.5042C85.5833 160.816 85.6616 160.832 85.7339 160.865C85.8062 160.898 85.8708 160.946 85.9235 161.006C85.9762 161.066 86.0157 161.137 86.0394 161.214C86.0631 161.291 86.0705 161.372 86.061 161.452Z" fill="url(#paint13_linear_2363_395)"/>
<g opacity="0.8">
<path d="M125.233 160.062H125.94L125.89 160.686H126.485L126.575 159.682H125.266L125.233 160.062Z" fill="white"/>
<path d="M121.519 160.686L121.574 160.062H122.281L122.315 159.682H121.006L120.917 160.686H121.519Z" fill="white"/>
<path d="M122.048 162.847H121.335L121.391 162.223H120.789L120.7 163.228H122.014L122.048 162.847Z" fill="white"/>
<path d="M125.756 162.223L125.701 162.847H124.993L124.96 163.228H126.268L126.358 162.223H125.756Z" fill="white"/>
</g>
<g opacity="0.8">
<path opacity="0.9" d="M93.3552 166.495L95.4934 165.162L93.5835 163.823L93.3552 166.495Z" fill="white"/>
<path opacity="0.9" d="M95.5991 163.965L95.4933 165.162L95.3931 166.353H95.9387L96.1448 163.965H95.5991Z" fill="white"/>
</g>
<g opacity="0.8">
<path opacity="0.9" d="M98.0381 166.353H98.7508L98.9568 163.965H98.2441L98.0381 166.353Z" fill="white"/>
<path opacity="0.9" d="M99.5024 163.965L99.2964 166.353H100.004L100.21 163.965H99.5024Z" fill="white"/>
</g>
<path opacity="0.8" d="M91.4843 165.162L89.3462 166.495L89.5745 163.823L91.4843 165.162Z" fill="white"/>
<path d="M131.575 115.336H65.704C65.4191 115.341 65.1364 115.284 64.8747 115.169C64.6131 115.054 64.3786 114.883 64.1868 114.668C63.995 114.453 63.8503 114.2 63.7624 113.923C63.6746 113.647 63.6455 113.355 63.6772 113.066L65.9657 86.4032C66.0269 85.7894 66.3064 85.2197 66.7516 84.8017C67.1969 84.3836 67.7769 84.1461 68.3823 84.134H134.253C134.538 84.128 134.822 84.1843 135.084 84.2991C135.346 84.4139 135.581 84.5845 135.773 84.7994C135.965 85.0144 136.109 85.2687 136.197 85.5453C136.284 85.822 136.313 86.1145 136.28 86.4032L133.992 113.066C133.93 113.68 133.651 114.25 133.206 114.668C132.76 115.086 132.18 115.324 131.575 115.336V115.336Z" fill="url(#paint14_linear_2363_395)"/>
<path opacity="0.4" d="M131.575 115.336H65.704C65.4191 115.341 65.1364 115.284 64.8747 115.169C64.6131 115.054 64.3786 114.883 64.1868 114.668C63.995 114.453 63.8503 114.2 63.7624 113.923C63.6746 113.647 63.6455 113.355 63.6772 113.066L65.9657 86.4032C66.0269 85.7894 66.3064 85.2197 66.7516 84.8017C67.1969 84.3836 67.7769 84.1461 68.3823 84.134H134.253C134.538 84.128 134.822 84.1843 135.084 84.2991C135.346 84.4139 135.581 84.5845 135.773 84.7994C135.965 85.0144 136.109 85.2687 136.197 85.5453C136.284 85.822 136.313 86.1145 136.28 86.4032L133.992 113.066C133.93 113.68 133.651 114.25 133.206 114.668C132.76 115.086 132.18 115.324 131.575 115.336V115.336Z" fill="white"/>
<path opacity="0.3" d="M134.131 85.5751H68.2764C68.0512 85.5781 67.8348 85.6652 67.6685 85.82C67.5022 85.9748 67.3975 86.1864 67.3743 86.4147L65.0858 113.078C65.0748 113.185 65.0863 113.294 65.1195 113.397C65.1526 113.5 65.2068 113.594 65.2783 113.674C65.3498 113.754 65.4371 113.817 65.5345 113.86C65.6318 113.903 65.737 113.925 65.8431 113.923H131.697C131.923 113.918 132.138 113.829 132.304 113.673C132.47 113.518 132.575 113.306 132.599 113.078L134.888 86.4147C134.899 86.3075 134.887 86.199 134.854 86.0966C134.821 85.9942 134.767 85.9002 134.695 85.8208C134.624 85.7414 134.536 85.6784 134.439 85.636C134.342 85.5937 134.236 85.5729 134.131 85.5751V85.5751Z" fill="white"/>
<path opacity="0.4" d="M81.7289 99.7462H113.467L111.908 91.9514L109.82 85.575H77.7979L81.7289 99.7462Z" fill="white"/>
<path opacity="0.4" d="M81.7288 99.7461L66.1826 100.313L65.069 113.072C65.058 113.18 65.0694 113.288 65.1026 113.391C65.1358 113.494 65.1899 113.588 65.2614 113.668C65.333 113.748 65.4203 113.811 65.5176 113.854C65.615 113.897 65.7202 113.919 65.8263 113.917H85.6711L81.7288 99.7461Z" fill="white"/>
<path d="M132.956 108.88L133.217 105.845L115.043 98.4924L113.284 93.2959L118.857 85.575H116.201L112.565 90.6126L111.307 85.575H108.929L110.783 93.0804L112.565 98.3279H82.4973L79.2066 85.575H76.8457L80.1365 98.3279H66.3553L66.1104 101.164H80.8715L84.1622 113.917H86.5175L83.2268 101.164H99.7474L108.406 113.917H111.229L102.57 101.164H113.874L132.956 108.88Z" fill="white"/>
<path opacity="0.2" d="M101.321 97.0934C103.243 97.0848 104.799 96.7299 104.797 96.3007C104.796 95.8715 103.236 95.5304 101.314 95.539C99.3921 95.5475 97.8355 95.9024 97.8373 96.3316C97.8392 96.7609 99.3987 97.1019 101.321 97.0934Z" fill="black"/>
<path d="M102.103 87.2768C101.157 87.2988 100.251 87.6707 99.554 88.3231C98.8573 88.9755 98.4174 89.8639 98.3162 90.8224C98.1492 92.7796 101.301 96.6373 101.301 96.6373C101.301 96.6373 105.109 92.7796 105.276 90.8224C105.325 90.3713 105.278 89.9148 105.14 89.4833C105.002 89.0518 104.775 88.6553 104.475 88.3199C104.175 87.9846 103.808 87.7181 103.399 87.5383C102.99 87.3584 102.548 87.2693 102.103 87.2768V87.2768ZM101.657 92.4393C101.454 92.4429 101.252 92.4024 101.066 92.3205C100.879 92.2386 100.712 92.1171 100.575 91.9641C100.438 91.8112 100.334 91.6302 100.271 91.4334C100.208 91.2365 100.187 91.0283 100.209 90.8224C100.254 90.3849 100.454 89.979 100.772 89.6812C101.09 89.3835 101.504 89.2143 101.936 89.2056C102.139 89.202 102.34 89.2425 102.527 89.3244C102.714 89.4063 102.881 89.5278 103.018 89.6808C103.155 89.8337 103.258 90.0147 103.321 90.2115C103.384 90.4084 103.405 90.6166 103.383 90.8224C103.341 91.261 103.141 91.6682 102.823 91.9665C102.505 92.2647 102.09 92.433 101.657 92.4393V92.4393Z" fill="url(#paint15_linear_2363_395)"/>
<path d="M116.177 77.2591H153.322C154.059 77.2437 154.765 76.9544 155.308 76.4456C155.85 75.9368 156.191 75.2436 156.267 74.4964L158.973 42.994C159.011 42.6426 158.974 42.2872 158.866 41.9512C158.758 41.6153 158.582 41.3065 158.348 41.0454C158.114 40.7842 157.829 40.5766 157.51 40.4362C157.192 40.2959 156.848 40.226 156.501 40.2312H119.356C118.618 40.2442 117.911 40.5326 117.368 41.0419C116.825 41.5512 116.484 42.2458 116.411 42.994L113.705 74.4964C113.667 74.8479 113.703 75.2037 113.81 75.5401C113.918 75.8764 114.094 76.1855 114.328 76.4469C114.562 76.7083 114.848 76.9159 115.167 77.056C115.485 77.196 115.83 77.2653 116.177 77.2591V77.2591Z" fill="url(#paint16_linear_2363_395)"/>
<g opacity="0.4">
<path d="M116.177 77.8249H153.322C154.059 77.8097 154.765 77.5231 155.308 77.0191C155.85 76.515 156.191 75.8283 156.267 75.088L158.973 43.8805C159.011 43.5324 158.974 43.1803 158.866 42.8475C158.758 42.5147 158.582 42.2088 158.348 41.9501C158.114 41.6914 157.829 41.4857 157.51 41.3466C157.192 41.2076 156.848 41.1384 156.501 41.1436H119.356C118.618 41.1564 117.911 41.4422 117.368 41.9467C116.825 42.4512 116.484 43.1393 116.411 43.8805L113.705 75.088C113.667 75.4363 113.703 75.7888 113.81 76.122C113.918 76.4552 114.094 76.7614 114.328 77.0204C114.562 77.2793 114.848 77.485 115.167 77.6237C115.485 77.7624 115.83 77.831 116.177 77.8249V77.8249Z" fill="white"/>
</g>
<path opacity="0.8" d="M119.316 42.2548C119.038 42.2537 118.769 42.3564 118.562 42.5426C118.356 42.7288 118.228 42.9851 118.203 43.2606L115.485 74.083C115.472 74.2109 115.486 74.3401 115.527 74.4622C115.567 74.5843 115.633 74.6966 115.72 74.7915C115.808 74.8865 115.914 74.9621 116.033 75.0133C116.152 75.0646 116.28 75.0903 116.41 75.0889H153.718C153.997 75.09 154.266 74.9873 154.472 74.801C154.678 74.6148 154.807 74.3586 154.832 74.083L157.549 43.2606C157.563 43.1326 157.55 43.003 157.51 42.8805C157.47 42.758 157.404 42.6454 157.316 42.5502C157.229 42.455 157.122 42.3795 157.003 42.3285C156.883 42.2776 156.755 42.2524 156.625 42.2548H119.316Z" fill="white"/>
<path d="M127.151 57.7598L115.552 73.3741L115.485 74.0886C115.472 74.2158 115.486 74.3443 115.526 74.4657C115.567 74.5872 115.632 74.6988 115.719 74.7932C115.806 74.8877 115.912 74.9629 116.031 75.0138C116.149 75.0648 116.277 75.0904 116.406 75.0889H136.965L127.151 57.7598Z" fill="url(#paint17_linear_2363_395)"/>
<path d="M154.926 71.2571L145.95 52.5361L130.916 75.6254H153.523C153.801 75.6265 154.07 75.5211 154.277 75.3299C154.483 75.1388 154.611 74.8758 154.636 74.5929L154.926 71.2571Z" fill="url(#paint18_linear_2363_395)"/>
<path opacity="0.2" d="M154.869 71.6872L145.833 53.1995L130.699 76.001H153.456C153.737 76.0022 154.008 75.8981 154.216 75.7093C154.423 75.5205 154.552 75.2608 154.578 74.9814L154.869 71.6872Z" fill="white"/>
<path d="M139.637 49.5511C139.563 50.2923 139.227 50.9801 138.691 51.4842C138.156 51.9884 137.459 52.2739 136.732 52.2869C136.391 52.293 136.051 52.2245 135.737 52.0859C135.423 51.9473 135.141 51.7419 134.911 51.4831C134.68 51.2244 134.506 50.9183 134.399 50.5852C134.293 50.2521 134.257 49.8996 134.293 49.5511C134.367 48.8099 134.704 48.1222 135.239 47.6181C135.774 47.1139 136.471 46.8283 137.198 46.8153C137.54 46.8092 137.879 46.8778 138.193 47.0163C138.507 47.1549 138.789 47.3604 139.019 47.6191C139.25 47.8779 139.425 48.184 139.531 48.5171C139.637 48.8501 139.673 49.2026 139.637 49.5511V49.5511Z" fill="url(#paint19_linear_2363_395)"/>
<defs>
<linearGradient id="paint0_linear_2363_395" x1="150.345" y1="121.65" x2="150.345" y2="159.041" gradientUnits="userSpaceOnUse">
<stop stop-color="#FD0091"/>
<stop offset="0.0001" stop-color="#FD0091"/>
<stop offset="1" stop-color="#FF7732"/>
</linearGradient>
<linearGradient id="paint1_linear_2363_395" x1="71.2275" y1="43.3052" x2="71.2275" y2="70.462" gradientUnits="userSpaceOnUse">
<stop stop-color="#FD0091"/>
<stop offset="0.0001" stop-color="#FD0091"/>
<stop offset="1" stop-color="#FF7732"/>
</linearGradient>
<linearGradient id="paint2_linear_2363_395" x1="109.97" y1="21.9958" x2="109.97" y2="191.8" gradientUnits="userSpaceOnUse">
<stop stop-color="#FD0091"/>
<stop offset="0.0001" stop-color="#FD0091"/>
<stop offset="1" stop-color="#FF7732"/>
</linearGradient>
<linearGradient id="paint3_linear_2363_395" x1="109.97" y1="24.8328" x2="109.97" y2="188.962" gradientUnits="userSpaceOnUse">
<stop stop-color="#FD0091"/>
<stop offset="0.0001" stop-color="#FD0091"/>
<stop offset="1" stop-color="#FF7732"/>
</linearGradient>
<linearGradient id="paint4_linear_2363_395" x1="84.4794" y1="30.2012" x2="84.4794" y2="31.4776" gradientUnits="userSpaceOnUse">
<stop stop-color="#FD0091"/>
<stop offset="0.0001" stop-color="#FD0091"/>
<stop offset="1" stop-color="#FF7732"/>
</linearGradient>
<linearGradient id="paint5_linear_2363_395" x1="87.0409" y1="28.9248" x2="87.0409" y2="31.4777" gradientUnits="userSpaceOnUse">
<stop stop-color="#FD0091"/>
<stop offset="0.0001" stop-color="#FD0091"/>
<stop offset="1" stop-color="#FF7732"/>
</linearGradient>
<linearGradient id="paint6_linear_2363_395" x1="89.6022" y1="27.6482" x2="89.6022" y2="31.4775" gradientUnits="userSpaceOnUse">
<stop stop-color="#FD0091"/>
<stop offset="0.0001" stop-color="#FD0091"/>
<stop offset="1" stop-color="#FF7732"/>
</linearGradient>
<linearGradient id="paint7_linear_2363_395" x1="145.336" y1="27.7334" x2="145.336" y2="31.4776" gradientUnits="userSpaceOnUse">
<stop stop-color="#FD0091"/>
<stop offset="0.0001" stop-color="#FD0091"/>
<stop offset="1" stop-color="#FF7732"/>
</linearGradient>
<linearGradient id="paint8_linear_2363_395" x1="83.4047" y1="39.2656" x2="83.4047" y2="63.9611" gradientUnits="userSpaceOnUse">
<stop stop-color="#FD0091"/>
<stop offset="0.0001" stop-color="#FD0091"/>
<stop offset="1" stop-color="#FF7732"/>
</linearGradient>
<linearGradient id="paint9_linear_2363_395" x1="83.4639" y1="46.5842" x2="83.4639" y2="54.9463" gradientUnits="userSpaceOnUse">
<stop stop-color="#FD0091"/>
<stop offset="0.0001" stop-color="#FD0091"/>
<stop offset="1" stop-color="#FF7732"/>
</linearGradient>
<linearGradient id="paint10_linear_2363_395" x1="82.4749" y1="55.3992" x2="82.4749" y2="62.2589" gradientUnits="userSpaceOnUse">
<stop stop-color="#FD0091"/>
<stop offset="0.0001" stop-color="#FD0091"/>
<stop offset="1" stop-color="#FF7732"/>
</linearGradient>
<linearGradient id="paint11_linear_2363_395" x1="96.5319" y1="119.369" x2="96.5319" y2="170.251" gradientUnits="userSpaceOnUse">
<stop stop-color="#FD0091"/>
<stop offset="0.0001" stop-color="#FD0091"/>
<stop offset="1" stop-color="#FF7732"/>
</linearGradient>
<linearGradient id="paint12_linear_2363_395" x1="90.8233" y1="138.736" x2="102.458" y2="150.666" gradientUnits="userSpaceOnUse">
<stop stop-color="#FD0091"/>
<stop offset="0.0001" stop-color="#FD0091"/>
<stop offset="1" stop-color="#FF7732"/>
</linearGradient>
<linearGradient id="paint13_linear_2363_395" x1="74.9271" y1="160.816" x2="74.9271" y2="162.093" gradientUnits="userSpaceOnUse">
<stop stop-color="#FD0091"/>
<stop offset="0.0001" stop-color="#FD0091"/>
<stop offset="1" stop-color="#FF7732"/>
</linearGradient>
<linearGradient id="paint14_linear_2363_395" x1="99.979" y1="84.1335" x2="99.979" y2="115.336" gradientUnits="userSpaceOnUse">
<stop stop-color="#FD0091"/>
<stop offset="0.0001" stop-color="#FD0091"/>
<stop offset="1" stop-color="#FF7732"/>
</linearGradient>
<linearGradient id="paint15_linear_2363_395" x1="101.802" y1="87.2764" x2="101.802" y2="96.6373" gradientUnits="userSpaceOnUse">
<stop stop-color="#FD0091"/>
<stop offset="0.0001" stop-color="#FD0091"/>
<stop offset="1" stop-color="#FF7732"/>
</linearGradient>
<linearGradient id="paint16_linear_2363_395" x1="136.339" y1="40.231" x2="136.339" y2="77.2595" gradientUnits="userSpaceOnUse">
<stop stop-color="#FD0091"/>
<stop offset="0.0001" stop-color="#FD0091"/>
<stop offset="1" stop-color="#FF7732"/>
</linearGradient>
<linearGradient id="paint17_linear_2363_395" x1="126.223" y1="57.7598" x2="126.223" y2="75.089" gradientUnits="userSpaceOnUse">
<stop stop-color="#FD0091"/>
<stop offset="0.0001" stop-color="#FD0091"/>
<stop offset="1" stop-color="#FF7732"/>
</linearGradient>
<linearGradient id="paint18_linear_2363_395" x1="142.921" y1="52.5361" x2="142.921" y2="75.6254" gradientUnits="userSpaceOnUse">
<stop stop-color="#FD0091"/>
<stop offset="0.0001" stop-color="#FD0091"/>
<stop offset="1" stop-color="#FF7732"/>
</linearGradient>
<linearGradient id="paint19_linear_2363_395" x1="136.965" y1="46.8149" x2="136.965" y2="52.2873" gradientUnits="userSpaceOnUse">
<stop stop-color="#FD0091"/>
<stop offset="0.0001" stop-color="#FD0091"/>
<stop offset="1" stop-color="#FF7732"/>
</linearGradient>
</defs>
</svg>
