<svg width="156" height="58" viewBox="0 0 156 58" fill="none" xmlns="http://www.w3.org/2000/svg">
<path d="M18.498 34.6787C17.7427 34.5766 17.0156 34.3296 16.3583 33.9518C16.0798 34.1119 15.7981 34.2643 15.5105 34.4026C16.493 34.601 17.4948 34.6936 18.498 34.6787Z" fill="white" fill-opacity="0.76"/>
<path d="M28.0672 21.1733L26.806 21.6674C27.7627 20.083 26.9221 16.9689 26.9221 16.9689L26.0286 18.1606C25.6874 16.9887 25.0862 15.9048 24.2678 14.9859C25.4345 23.7288 22.3884 25.5868 22.3884 25.5868C21.671 18.165 15.4033 18.9142 15.4033 18.9142C15.4033 18.9142 15.3041 17.5076 15.3028 17.4292C24.498 14.8227 24.2228 11.6187 24.2228 11.6187L18.6144 10.0884C17.7516 9.32328 18.8329 6.95329 18.8329 6.95329C17.8429 6.89463 15.9739 8.73158 15.9739 8.73158C15.3961 8.11629 14.0566 8.22149 14.0566 8.22149C14.0566 8.22149 13.9164 4.7784 14.2626 4.45959C12.7655 5.50574 11.3448 6.6526 10.0107 7.89185C7.67047 10.1009 5.73648 12.6871 4.29334 15.5374C3.79408 16.5142 3.35144 17.5177 2.96753 18.5431L3.15209 19.2069C4.2505 23.3664 6.15433 27.2814 8.76052 30.74C10.7629 30.975 12.7827 30.4682 14.4218 29.3194C14.9661 28.9414 15.6417 28.7902 16.3 28.8992C16.9582 29.0082 17.5453 29.3684 17.9319 29.9006C18.3186 30.4327 18.4732 31.0933 18.3617 31.7369C18.2502 32.3805 17.8818 32.9545 17.3375 33.3325C17.0166 33.5557 16.6854 33.7603 16.3534 33.9523C17.0107 34.3301 17.7378 34.5771 18.4931 34.6791C19.8008 34.6611 21.0996 34.466 22.3525 34.0996C22.8006 33.971 23.2765 33.9674 23.7266 34.0893C23.3733 33.0659 22.7001 32.1769 21.8021 31.5478C21.3658 30.9306 22.2227 27.939 22.2227 27.939C29.1935 30.3064 28.0672 21.1733 28.0672 21.1733Z" fill="white" fill-opacity="0.76"/>
<path d="M54.7923 42.3443C52.4738 45.296 49.2949 47.4915 45.6747 48.6414C45.2658 48.7736 44.829 48.8011 44.4061 48.7214C43.9832 48.6416 43.5883 48.4572 43.259 48.1857C42.9298 47.9143 42.6772 47.5648 42.5253 47.1707C42.3735 46.7767 42.3275 46.3511 42.3918 45.9347C41.7492 46.0142 41.0971 46.0631 40.4354 46.0814C39.9093 46.099 39.3912 45.9528 38.9557 45.6637C38.5202 45.3747 38.19 44.9578 38.0127 44.4733C36.0555 45.325 34.1622 46.3104 32.3468 47.4223C32.3468 47.4223 32.4525 45.4457 30.6936 45.1741L30.41 41.9911C30.41 41.9911 28.5461 43.698 28.2709 44.8189C28.2709 44.8189 26.7795 44.3892 24.8954 45.8691C24.8954 45.8691 23.6935 43.9511 24.5087 43.1063C24.5087 43.1063 19.3392 46.4914 22.4629 51.7C22.8958 52.4046 23.5075 52.988 24.2387 53.3935C25.0572 53.8577 25.9343 54.4724 24.7683 54.4437C23.0296 54.3997 17.1499 52.3937 14.8733 50.516C14.8733 50.516 20.3363 62.5859 40.7282 55.724C40.7282 55.724 42.9931 56.412 46.7794 55.2368C50.5658 54.0617 51.6529 55.2113 52.1968 57.6406C52.1968 57.6406 57.0963 53.1703 50.7151 49.4244C50.7151 49.4244 58.1613 42.0625 58.7039 36.1557L58.6947 36.1665C58.1209 36.8398 57.6374 37.5821 57.2561 38.3752C56.5888 39.784 55.7624 41.1153 54.7923 42.3443Z" fill="white" fill-opacity="0.76"/>
<path d="M44.66 24.1264C44.6676 24.1154 44.6758 24.1083 44.6828 24.0974L44.6587 24.0884L44.66 24.1264Z" fill="white" fill-opacity="0.76"/>
<path d="M23.3694 39.582C20.4811 39.9077 17.5581 39.4095 14.9529 38.1474C17.7807 38.6851 20.7 38.5389 23.4568 37.7214C23.6264 37.6722 23.7845 37.5907 23.9219 37.4817C24.0593 37.3727 24.1734 37.2383 24.2577 37.0862C24.342 36.9341 24.3948 36.7673 24.4132 36.5952C24.4315 36.4232 24.415 36.2492 24.3646 36.0834C24.3142 35.9176 24.2309 35.7631 24.1194 35.6287C24.008 35.4944 23.8705 35.3828 23.7149 35.3004C23.5594 35.218 23.3887 35.1663 23.2127 35.1484C23.0367 35.1304 22.8589 35.1466 22.6892 35.1959C19.0756 36.2523 15.1903 35.9666 11.7789 34.3937C13.5412 34.1006 15.2118 33.418 16.6635 32.398C16.8105 32.299 16.9359 32.1723 17.0325 32.0254C17.129 31.8786 17.1947 31.7144 17.2258 31.5425C17.2568 31.3705 17.2527 31.1943 17.2134 31.0239C17.1742 30.8536 17.1007 30.6926 16.9973 30.5503C16.8939 30.408 16.7626 30.2872 16.611 30.1949C16.4594 30.1027 16.2905 30.0408 16.1142 30.0129C15.938 29.985 15.7578 29.9916 15.5842 30.0324C15.4105 30.0732 15.2469 30.1474 15.1029 30.2505C13.0814 31.6503 10.576 32.212 8.13276 31.8133C5.27715 28.1509 3.19996 23.9668 2.02348 19.5074C0.789351 23.7107 0.534646 28.1311 1.27809 32.4433C1.55851 32.8781 1.84631 33.306 2.14152 33.7268C2.66323 34.4647 3.20887 35.1786 3.7784 35.8685C4.38545 37.7063 5.25933 39.4492 6.37328 41.044C8.38962 43.9289 11.252 46.1493 14.5838 47.4131C14.9144 47.5334 15.2801 47.5221 15.6023 47.3816C15.9245 47.2412 16.1775 46.9827 16.3069 46.6619C16.4364 46.341 16.432 45.9834 16.2946 45.6657C16.1573 45.3479 15.898 45.0956 15.5724 44.9628C13.622 44.2206 11.8508 43.0897 10.3716 41.6421C13.0603 43.6222 16.2715 44.8103 19.6275 45.0667C19.9804 45.0904 20.3287 44.9774 20.5971 44.7521C20.8656 44.5269 21.0326 44.2075 21.0623 43.8628C21.0919 43.5182 20.9817 43.1759 20.7554 42.91C20.5292 42.6441 20.2051 42.4759 19.8531 42.4417C17.035 42.224 14.3364 41.2354 12.0658 39.589C15.5103 41.7359 19.6054 42.659 23.6636 42.2032C23.8424 42.1879 24.0163 42.1379 24.1751 42.056C24.3339 41.9741 24.4744 41.862 24.5883 41.7263C24.7021 41.5906 24.7871 41.434 24.8382 41.2657C24.8893 41.0974 24.9054 40.9209 24.8858 40.7464C24.8661 40.5719 24.8109 40.4031 24.7235 40.2497C24.6362 40.0964 24.5183 39.9617 24.3769 39.8535C24.2355 39.7453 24.0735 39.6658 23.9002 39.6198C23.727 39.5737 23.5461 39.5619 23.3681 39.5852L23.3694 39.582Z" fill="white" fill-opacity="0.76"/>
<path d="M59.0866 21.3727C57.6564 25.3905 55.4683 29.1104 52.6356 32.3396C50.1734 32.6039 47.704 31.9063 45.7653 30.3988C45.486 30.1809 45.1296 30.0804 44.7745 30.1194C44.4194 30.1585 44.0947 30.3338 43.8718 30.6069C43.649 30.88 43.5462 31.2285 43.5861 31.5757C43.6261 31.9229 43.8054 32.2403 44.0847 32.4582C45.4752 33.5554 47.1034 34.3278 48.8454 34.7167C45.3497 36.1015 41.4541 36.1751 37.9063 34.9232C37.5714 34.8107 37.2045 34.8317 36.8852 34.9816C36.566 35.1315 36.3199 35.3983 36.2003 35.7243C36.0807 36.0502 36.0972 36.4092 36.2462 36.7233C36.3953 37.0375 36.6648 37.2816 36.9966 37.4029C39.7023 38.3696 42.6088 38.6748 45.4627 38.2917C42.7897 39.41 39.8429 39.7482 36.9777 39.2654C36.8022 39.2344 36.6221 39.2379 36.448 39.2755C36.2738 39.3131 36.109 39.3842 35.9632 39.4846C35.8173 39.5849 35.6933 39.7126 35.5983 39.8602C35.5033 40.0078 35.4393 40.1724 35.4098 40.3443C35.3804 40.5163 35.3862 40.6923 35.4268 40.8621C35.4675 41.0319 35.5422 41.1921 35.6467 41.3334C35.7512 41.4747 35.8833 41.5944 36.0354 41.6854C36.1876 41.7764 36.3567 41.837 36.5329 41.8636C40.5587 42.5405 44.7 41.8425 48.2617 39.887C45.9008 41.4071 43.1499 42.2468 40.3238 42.31C40.1455 42.3127 39.9694 42.35 39.8059 42.4197C39.6424 42.4894 39.4947 42.5902 39.3713 42.7162C39.248 42.8422 39.1514 42.9909 39.0873 43.1537C39.0232 43.3165 38.9928 43.4901 38.9978 43.6644C39.0029 43.8388 39.0433 44.0104 39.1168 44.1694C39.1902 44.3283 39.2952 44.4714 39.4256 44.5904C39.5561 44.7094 39.7094 44.8018 39.8767 44.8624C40.044 44.923 40.2219 44.9505 40.4001 44.9433C43.7653 44.87 47.0391 43.8589 49.8367 42.0288C48.2771 43.3934 46.4442 44.4259 44.4545 45.0606C44.1183 45.1728 43.841 45.4103 43.683 45.7214C43.525 46.0325 43.499 46.3921 43.6108 46.7218C43.7226 47.0515 43.9631 47.3247 44.2798 47.4819C44.5966 47.6391 44.9641 47.6677 45.3023 47.5613C48.701 46.4811 51.6855 44.4201 53.863 41.6494C55.0661 40.1179 56.0379 38.4254 56.7487 36.6238C57.3574 35.9649 57.943 35.2818 58.5056 34.5745C58.7097 34.3194 58.9099 34.0542 59.1082 33.7896C60.0085 29.6974 60.0003 25.464 59.084 21.3753L59.0866 21.3727Z" fill="white" fill-opacity="0.76"/>
<path d="M44.648 19.6092L44.6297 19.5907C44.6213 19.6015 44.616 19.6123 44.6069 19.6238L44.648 19.6092Z" fill="white" fill-opacity="0.76"/>
<path d="M57.5939 20.8317C57.5411 20.838 57.393 20.7411 57.2756 20.7207C57.2026 20.7073 57.0265 20.4095 57.1354 20.3101C57.3193 20.143 57.9969 19.7362 57.5032 19.5296C57.4376 19.5101 57.3678 19.5075 57.3008 19.522C57.2337 19.5366 57.1717 19.5678 57.1206 19.6127C57.0696 19.6576 57.0313 19.7147 57.0094 19.7783C56.9876 19.842 56.9829 19.9101 56.9959 19.976C56.8863 20.2948 56.6241 20.064 56.3437 20.0965C55.6981 20.1602 55.8096 18.8213 55.0955 18.7754C54.8268 18.6555 53.8121 19.1222 52.813 19.6629C52.7706 19.2995 52.7728 18.9323 52.8195 18.5694C53.0563 17.7501 52.4563 16.1688 51.9026 15.5682C51.4669 15.0953 50.9999 14.651 50.5044 14.2381C50.4053 14.1642 50.1053 13.9193 49.774 13.6483C49.7929 13.64 49.6436 13.5272 49.6606 13.5208C50.0574 13.4545 50.4612 13.4371 50.8625 13.4692C51.1096 13.4322 51.2003 13.2141 51.274 13.1414C51.3884 12.7519 51.4824 12.3569 51.5557 11.958C51.5814 11.8777 51.6112 11.7988 51.645 11.7215C51.675 11.687 51.8113 11.6928 51.885 11.6858C51.9587 11.6787 52.0526 11.7903 52.1602 11.9057C52.2251 11.9845 52.3147 12.0403 52.4152 12.0645C52.7478 12.1576 53.0374 11.8229 52.8182 11.5991C52.6794 11.5426 52.5273 11.5247 52.3787 11.5474C52.2176 11.5582 52.0526 11.3427 51.9528 11.2547C51.8531 11.1667 51.9352 11.1585 51.9352 11.1585C52.2007 11.0035 52.4328 10.9143 52.6741 10.788C52.7557 10.7517 52.8457 10.7369 52.935 10.7453C53.3341 10.6114 53.1958 10.2773 52.9682 10.2352C52.8758 10.2215 52.7814 10.2393 52.7009 10.2856C52.6465 10.3463 52.6025 10.4152 52.5704 10.4896C52.5143 10.5923 52.4341 10.6063 52.2861 10.6732C52.1456 10.7512 51.9942 10.8088 51.8368 10.8441C51.735 10.8441 51.7442 10.6802 51.7579 10.503C51.8145 10.312 51.9084 10.1336 52.0344 9.97761C52.0678 9.93279 52.0893 9.88051 52.097 9.82552C52.1046 9.77053 52.0981 9.71455 52.0781 9.66263C52.0632 9.61829 52.0362 9.57876 52 9.54837C51.9639 9.51798 51.9198 9.49787 51.8728 9.49025C51.8257 9.48262 51.7774 9.48777 51.7331 9.50512C51.6888 9.52247 51.6502 9.55137 51.6216 9.58867C51.5473 9.64931 51.4964 9.73287 51.4772 9.82558C51.458 9.9183 51.4716 10.0146 51.5159 10.0987C51.48 10.2059 51.4448 10.313 51.409 10.4176C51.4046 10.5054 51.3843 10.5917 51.349 10.6726C51.2981 10.7631 51.2303 10.6407 51.2303 10.6407C51.2303 10.6407 50.9975 10.2581 50.9661 10.2154C50.9259 10.1577 50.898 10.0926 50.884 10.0242C51.0014 9.65306 50.1236 9.69769 50.3434 10.2868C50.3606 10.3326 50.3905 10.3728 50.4298 10.4028C50.4691 10.4329 50.5162 10.4517 50.5657 10.4571C50.6388 10.4392 50.7275 10.6854 50.8083 10.7466C50.9048 10.8103 50.7972 10.9378 50.7692 11.0016C50.7933 11.2171 50.1301 11.1062 50.0603 11.0953C50.0116 11.0568 49.9538 11.0307 49.8922 11.0196C49.8306 11.0085 49.7671 11.0126 49.7075 11.0316C49.0991 11.2579 49.7447 11.7565 50.0258 11.5174C50.0258 11.5174 50.1836 11.4728 50.2814 11.4377C50.3823 11.4037 50.4895 11.3911 50.5957 11.4008C50.6316 11.4141 50.6466 12.6677 50.284 12.5759C49.9335 12.5006 49.5781 12.4486 49.2204 12.4203C48.743 12.3967 48.7926 12.8666 48.3902 12.6415C48.2613 12.2719 48.1007 11.9136 47.9102 11.5704C47.5531 11.0362 47.0138 10.6433 46.3881 10.4615C46.0686 10.3759 45.7438 10.3103 45.4158 10.2652C44.8849 10.2518 44.3469 9.92787 43.7978 9.95274C42.9226 9.99291 42.322 10.3908 42.6076 11.3899C42.772 11.9638 43.1567 12.4203 43.3211 13.0107C43.3724 13.276 43.4772 13.5286 43.6293 13.7539C43.7815 13.9792 43.978 14.1726 44.2073 14.3229C44.6024 14.5481 45.0418 14.6888 45.4966 14.7355C45.6466 14.7514 46.0496 14.7144 46.0327 14.9267C46.0118 15.1945 45.3668 15.7403 45.4145 16.1089C45.4334 16.2294 45.2338 18.8238 44.6319 19.5934L44.6501 19.6113L44.6091 19.6259C44.6182 19.6151 44.6234 19.6042 44.6319 19.5928L43.9726 18.9195L43.9445 18.4534C44.1917 18.3112 44.6528 18.3029 44.7806 18.0772C44.9586 17.7635 44.5634 17.5709 44.3423 17.8731C44.1467 17.9962 44.0573 18.2665 43.6654 18.1173C43.4782 17.8476 44.2569 17.2929 43.7306 17.1042C43.4235 16.9939 43.1104 17.3305 43.2982 17.5562C43.3302 17.7348 43.4287 17.9331 43.3635 18.0268L42.9911 18.0574C42.7589 17.8534 42.9911 17.532 42.5998 17.3924C41.9575 17.1616 41.752 17.9841 42.4107 18.03C42.5718 18.1231 42.6507 18.1958 42.6115 18.3756C42.5763 18.5362 42.3598 18.4942 42.2203 18.5031C41.9027 18.5152 41.9861 18.3329 41.7422 18.2481C41.6388 18.2113 41.5256 18.2103 41.4215 18.2451C41.3173 18.2798 41.2285 18.3484 41.1696 18.4393C40.9844 18.7658 41.3914 19.0438 41.7338 18.8927C42.0188 18.8506 42.3507 18.7428 42.5476 18.8347C42.5678 18.9341 42.2555 19.1362 41.947 19.2568C41.6007 19.3926 41.467 19.624 41.7898 19.7974C41.9855 19.902 42.2463 19.7637 42.3729 19.515C42.4321 19.4273 42.5089 19.3521 42.5985 19.2941C42.6882 19.236 42.7889 19.1962 42.8946 19.177C43.5076 19.2893 43.8011 20.4344 44.8393 20.5702C45.7457 20.6895 46.2257 16.9671 46.5557 16.5087C46.6445 16.3958 46.7553 16.3013 46.8818 16.2307C46.9105 16.3199 46.9294 16.3875 46.9372 16.4219C46.9888 16.5544 47.0211 16.6932 47.0331 16.8345C47.2568 18.301 50.5755 19.485 49.8216 20.6238C48.9843 20.6149 46.9666 20.56 46.7566 21.3035C46.7122 21.4629 47.0109 21.8773 47.0787 22.052C47.1283 22.1796 47.8287 22.8312 47.8293 22.8554L47.3076 22.7744C47.2532 22.734 47.1891 22.7078 47.1215 22.6983C47.0538 22.6887 46.9848 22.6961 46.9208 22.7197C46.8569 22.7433 46.8001 22.7825 46.7559 22.8334C46.7117 22.8844 46.6814 22.9455 46.6679 23.011C46.6483 23.3049 47.1465 23.259 47.3324 23.1022L47.7165 23.1659C47.7576 23.4274 47.2992 23.3897 47.0096 23.405C46.469 23.0684 46.0725 23.9732 46.69 23.9304C46.809 23.9151 46.9174 23.8555 46.9926 23.764C47.0963 23.7247 47.2038 23.6958 47.3135 23.6779C47.8698 23.6391 47.3031 24.0388 47.1602 24.1944C46.4122 24.5343 47.4968 25.0839 47.6167 24.3984C47.62 24.3768 47.5946 24.3187 47.6083 24.3003C47.6428 24.2543 48.1404 23.6046 48.0648 24.0414C48.038 24.1651 48.0165 24.292 47.9832 24.415C47.7224 24.6484 47.9109 24.9366 48.2611 24.9124C48.5774 24.8907 48.9823 24.5419 48.6824 24.3251C48.6706 24.2065 48.5597 24.0994 48.5884 23.9362C48.6673 23.4975 48.9706 23.3961 49.3749 23.6563C49.403 24.0529 50.1953 23.9266 50.2631 23.5485C50.3525 23.0461 49.343 23.4172 49.1199 23.1213C48.9119 23.0486 48.6908 22.2969 48.9999 22.3013C49.5297 22.2488 50.0648 22.3142 50.5651 22.4926C50.7946 22.6367 51.3809 22.821 51.4846 22.9842C51.7605 23.4379 51.9418 23.9405 52.0181 24.4631C52.0944 24.9856 52.0643 25.5177 51.9294 26.0288C51.7443 26.8223 51.3255 27.5453 50.7249 28.1087C50.1204 28.7007 49.3706 29.1312 48.5474 29.359C48.0672 29.472 47.5651 29.4601 47.0911 29.3246C46.3185 29.0714 45.6184 28.6425 45.0486 28.073C44.8979 27.9512 43.9602 26.9891 43.9602 26.9891C43.8774 26.9055 43.7645 26.9489 43.775 27.0726C43.7919 27.1471 43.8278 27.2161 43.8793 27.2734C44.5272 28.4476 45.5661 29.3699 46.8237 29.8876C47.6037 30.1464 48.4515 30.1317 49.2217 29.8462C50.039 29.5611 50.792 29.1237 51.439 28.5582C51.9932 28.0519 52.4355 27.44 52.7387 26.7602C53.0691 26.1917 53.2642 25.5577 53.3093 24.9053C53.3745 23.9751 53.5049 22.1917 53.0484 21.5024C53.6724 21.1805 54.1931 20.6961 54.5529 20.1029C55.0127 19.8013 55.5312 20.2144 55.7118 20.5817C55.7379 20.634 55.6603 20.7908 55.6759 20.8367C55.4353 20.9566 55.2044 20.8642 55.0029 20.9726C54.4747 21.255 55.2514 21.6414 55.4007 21.1709C55.5124 21.1059 55.6301 21.0515 55.7522 21.0083C55.8429 21.146 56.0561 21.16 55.9955 21.3111C55.9348 21.4622 55.3166 22.0061 55.8475 22.0763C55.9019 22.0813 55.9568 22.0717 56.0061 22.0484C56.0554 22.0251 56.0972 21.9891 56.127 21.9442C56.1568 21.8993 56.1734 21.8473 56.175 21.7938C56.1767 21.7403 56.1633 21.6874 56.1363 21.6408C56.1733 21.5517 56.2169 21.4654 56.2668 21.3825C56.2981 21.3111 56.5244 21.3188 56.5505 21.3972C56.6013 21.5502 56.3607 22.3045 56.8765 22.0986C56.9288 22.0829 56.9746 22.0516 57.0076 22.009C57.0407 21.9665 57.0592 21.9149 57.0607 21.8615C57.0621 21.8081 57.0464 21.7556 57.0157 21.7114C56.985 21.6673 56.9409 21.6336 56.8896 21.6153C56.7689 21.2416 57.035 21.2595 57.1328 21.0593C57.4498 21.0529 57.5071 21.2844 57.7745 21.3048C58.4978 21.3609 58.1397 20.4344 57.5939 20.8317Z" fill="white" fill-opacity="0.76"/>
<path d="M26.377 2.30282C25.6706 2.15115 24.9325 2.23897 24.284 2.55184C23.6354 2.86471 23.1151 3.384 22.8084 4.02437C22.748 4.13988 22.718 4.26832 22.7212 4.39804C22.7244 4.52776 22.7606 4.65464 22.8267 4.76718C23.0967 5.21924 23.9067 5.90723 25.5148 6.05197C25.5148 6.05197 26.6326 6.59904 25.9713 7.5223C25.3101 8.44556 24.3866 10.1365 24.3866 10.1365C24.3866 10.1365 23.8753 11.5864 24.952 10.7378C26.6196 9.42429 31.4363 2.85818 41.5341 10.7378C41.461 10.6606 42.5338 11.1038 41.6189 9.70356C40.7039 8.30337 41.5426 7.42282 40.9889 7.41517C40.4352 7.40752 37.6773 7.22389 38.5681 5.53805C39.459 3.85221 39.7922 3.66092 38.752 2.82565C38.7038 2.92958 38.2192 4.00396 37.586 3.52321C36.9528 3.04245 35.2592 0.505391 28.6693 3.57612C28.7116 3.54361 27.8795 3.54998 27.7426 3.28793C27.601 3.06376 27.4317 2.85753 27.2385 2.67391C27.8306 2.47885 28.4389 2.33462 29.0566 2.24288C29.6136 2.21546 31.2433 1.18253 31.1233 0.228668C31.0033 -0.725197 26.8126 1.56702 26.377 2.30282Z" fill="white" fill-opacity="0.76"/>
<path d="M42.1415 27.144C39.859 23.6441 33.6284 25.1738 33.6284 25.1738L30.5874 24.0203L30.6703 26.7142C29.8401 27.4202 29.0649 28.1858 28.3512 29.0045L26.9974 29.132L27.3782 30.6247C26.4391 33.9224 27.7552 35.9169 28.0252 36.7362C28.2162 37.319 27.6019 38.0012 27.2198 38.3194C26.8224 38.6459 26.4792 39.0307 26.2024 39.4601C24.8688 41.5642 26.0498 42.6347 26.0498 42.6347C26.0498 42.6347 25.8359 41.7746 27.3482 41.0547C28.8606 40.3349 28.7953 38.4016 28.7953 38.4016C29.0562 39.7967 31.6296 39.777 32.5289 39.7827C32.7631 39.7654 32.998 39.8068 33.2113 39.9028C33.4247 39.9989 33.6095 40.1465 33.7484 40.3317C33.5279 37.5683 32.3476 37.1551 31.6517 37.1589C31.4361 37.1633 31.2237 37.2118 31.0283 37.3011C30.3378 37.3439 29.6467 37.2259 29.0119 36.9568C28.2371 36.543 28.3786 35.2958 28.3154 35.16C28.3571 34.545 28.5051 33.9414 28.753 33.3747C28.9391 33.4155 29.11 33.506 29.2465 33.6363C29.3829 33.7666 29.4796 33.9315 29.5257 34.1124L29.8323 31.9981C30.8524 31.3119 32.0912 31.0079 33.3219 31.1418C33.3831 31.4588 33.405 31.7818 33.3871 32.1039C33.9239 32.0138 34.4149 31.7521 34.7833 31.3599L34.8375 31.3739C39.6327 32.0115 41.9699 29.0938 41.9699 29.0938L40.7309 28.1622L42.1415 27.144Z" fill="white" fill-opacity="0.76"/>
<path d="M38.6204 21.0302C38.2754 21.0398 34.8614 20.0904 35.6349 17.8893C36.4083 15.6883 39.7016 15.7763 41.4318 16.3591C41.4318 16.3591 38.3908 12.4059 33.5102 13.7174C33.0022 13.9776 32.333 13.7908 31.8615 13.0103C31.4585 12.344 30.8612 11.0892 29.1447 11.2467V11.2518C28.4926 11.2824 27.7752 11.6815 27.1511 12.9C27.1511 12.9 28.6876 12.3109 28.9152 13.6607C28.9289 13.7421 28.9487 13.8225 28.9745 13.9011C28.9797 13.9954 28.9928 14.0853 28.9915 14.1829C28.9745 15.7132 28.8297 19.2302 31.5257 20.4697C34.2217 21.7092 36.1227 21.9197 38.6243 22.3571C41.1259 22.7945 43.7423 23.4614 45.1522 25.1734C45.1516 25.1734 43.4749 22.0185 38.6204 21.0302Z" fill="white" fill-opacity="0.76"/>
<path d="M78.9584 20.8236C80.021 21.4487 80.8829 22.3527 81.4464 23.4327C82.0667 24.6327 82.3764 25.9632 82.3483 27.3075C82.3745 28.6589 82.065 29.9964 81.4464 31.2052C80.8882 32.2949 80.0255 33.2075 78.9584 33.8373C77.8498 34.4695 76.5844 34.7907 75.3012 34.7656C74.3449 34.7783 73.3954 34.606 72.5074 34.2587C71.7234 33.9601 71.0351 33.4622 70.5138 32.8165V40.7961H66.9512V20.3403H69.9021L70.1688 22.3507C70.7028 21.5756 71.4403 20.9554 72.304 20.5552C73.2526 20.1067 74.2952 19.8808 75.3488 19.8953C76.6165 19.874 77.8655 20.1953 78.9584 20.8236ZM77.5694 30.4076C78.2857 29.5334 78.676 28.4467 78.676 27.3266C78.676 26.2065 78.2857 25.1198 77.5694 24.2457C77.1991 23.8565 76.7473 23.5501 76.2447 23.3475C75.7421 23.1449 75.2007 23.0509 74.6575 23.0718C74.1122 23.0518 73.5689 23.1462 73.064 23.3487C72.5592 23.5512 72.1045 23.857 71.7307 24.2457C70.9537 25.1039 70.5509 26.2252 70.6084 27.37C70.5518 28.4965 70.9523 29.5994 71.7229 30.4388C72.5079 31.1825 73.5598 31.5958 74.6528 31.5901C75.7459 31.5844 76.7932 31.1601 77.57 30.4082L77.5694 30.4076Z" fill="white" fill-opacity="0.76"/>
<path d="M95.4245 33.4463C94.0706 34.3459 92.4621 34.8075 90.8256 34.7661C89.463 34.7938 88.1173 34.4682 86.9251 33.8225C85.8118 33.205 84.9024 32.2891 84.3042 31.1828C83.6632 29.9778 83.342 28.6347 83.3703 27.2768C83.3384 25.9219 83.6655 24.5821 84.3198 23.3873C84.9267 22.3032 85.8355 21.4093 86.9408 20.8095C88.1022 20.1892 89.4085 19.8746 90.7317 19.8964C92.0194 19.8718 93.292 20.1704 94.428 20.7636C95.469 21.3104 96.3319 22.132 96.9186 23.1348C97.5182 24.1897 97.8215 25.3809 97.7977 26.5875C97.8086 27.1694 97.7561 27.7508 97.6411 28.3218H86.9017C86.9023 28.8034 87.0035 29.2798 87.1992 29.7218C87.3949 30.1638 87.6809 30.562 88.0396 30.892C88.8033 31.5592 89.803 31.9089 90.8262 31.8669C91.5978 31.887 92.3621 31.7154 93.0474 31.3683C93.6342 31.0751 94.0897 30.5807 94.327 29.9796H97.827C97.5217 31.3983 96.659 32.6432 95.4245 33.4463ZM94.1372 25.9575C94.149 25.5231 94.0662 25.0912 93.8943 24.6904C93.7224 24.2896 93.4653 23.9291 93.14 23.6328C92.4471 23.0477 91.5519 22.7433 90.6371 22.7816C89.695 22.7461 88.7729 23.0538 88.0494 23.6449C87.7118 23.933 87.4407 24.2879 87.254 24.6862C87.0672 25.0844 86.9691 25.5169 86.9662 25.955L94.1372 25.9575Z" fill="white" fill-opacity="0.76"/>
<path d="M107.072 23.2259H104.341V34.3515H100.747V23.2259H98.0154V20.3407H100.747V16.6578H104.341V20.3407H107.072V23.2259Z" fill="white" fill-opacity="0.76"/>
<path d="M108.423 31.2982L115.531 23.4103H108.423V20.3408H119.991V23.4409L112.771 31.2369H119.991V34.3523H108.423V31.2982Z" fill="white" fill-opacity="0.76"/>
<path d="M121.759 34.06C121.54 33.8534 121.367 33.6055 121.25 33.3315C121.133 33.0575 121.073 32.7631 121.076 32.466C121.07 32.1614 121.127 31.8588 121.245 31.5765C121.362 31.2943 121.537 31.0383 121.759 30.8242C121.985 30.601 122.256 30.4259 122.554 30.3097C122.852 30.1935 123.172 30.1388 123.493 30.1489C123.818 30.1379 124.142 30.1921 124.445 30.3082C124.748 30.4244 125.023 30.5999 125.254 30.8242C125.478 31.0371 125.655 31.2926 125.774 31.5751C125.892 31.8575 125.951 32.1607 125.945 32.466C125.946 32.7627 125.885 33.0565 125.766 33.3295C125.648 33.6025 125.473 33.8491 125.254 34.0543C125.025 34.2805 124.75 34.4579 124.447 34.5754C124.144 34.6929 123.819 34.748 123.493 34.7372C123.172 34.747 122.852 34.692 122.554 34.5754C122.255 34.4589 121.985 34.2835 121.759 34.06Z" fill="white" fill-opacity="0.76"/>
<path d="M128.603 33.5385C128.066 33.1587 127.625 32.6639 127.314 32.0921C127.002 31.5202 126.829 30.8864 126.806 30.2389H130.337C130.345 30.5141 130.419 30.7837 130.552 31.0262C130.686 31.2686 130.876 31.4772 131.106 31.6353C131.64 31.9806 132.272 32.1524 132.911 32.1262C133.509 32.1611 134.103 32.0165 134.614 31.7118C134.811 31.5791 134.969 31.3996 135.075 31.1901C135.181 30.9807 135.23 30.7483 135.219 30.515C135.236 30.3146 135.201 30.1132 135.117 29.9295C135.034 29.7458 134.904 29.5855 134.741 29.4636C134.363 29.2205 133.938 29.0559 133.492 28.9803L131.075 28.4122C129.948 28.2313 128.907 27.7077 128.101 26.9157C127.47 26.2214 127.131 25.3198 127.152 24.3914C127.132 23.7618 127.266 23.1366 127.543 22.568C127.82 21.9994 128.232 21.5037 128.745 21.1223C129.939 20.2627 131.399 19.8294 132.881 19.8949C134.355 19.8269 135.809 20.2606 136.993 21.1223C137.499 21.5056 137.908 21.9964 138.191 22.5575C138.473 23.1187 138.621 23.7353 138.623 24.3608H135.092C135.103 24.1056 135.051 23.8515 134.942 23.6195C134.833 23.3874 134.669 23.1839 134.464 23.0256C133.989 22.6804 133.407 22.5067 132.816 22.534C132.294 22.5076 131.777 22.6448 131.34 22.9255C131.161 23.0516 131.017 23.2194 130.921 23.4137C130.825 23.608 130.781 23.8226 130.791 24.0381C130.77 24.2277 130.798 24.4194 130.874 24.5953C130.949 24.7711 131.07 24.9252 131.223 25.043C131.613 25.2731 132.04 25.4367 132.486 25.527L135.249 26.141C136.315 26.3377 137.287 26.868 138.019 27.6521C138.623 28.3707 138.944 29.2776 138.921 30.2077C138.942 30.8472 138.805 31.4821 138.522 32.0591C138.239 32.6361 137.819 33.1382 137.296 33.5232C136.03 34.4076 134.495 34.8459 132.941 34.7666C131.396 34.8339 129.872 34.4024 128.603 33.5385Z" fill="white" fill-opacity="0.76"/>
<path d="M155.075 20.341V34.3525C155.119 35.284 154.958 36.2138 154.603 37.0794C154.249 37.9449 153.708 38.7262 153.019 39.3705C151.648 40.6185 149.786 41.2425 147.432 41.2425C145.596 41.3137 143.792 40.7575 142.331 39.6695C141.669 39.1535 141.122 38.5111 140.723 37.7816C140.323 37.052 140.08 36.2507 140.008 35.4262H143.57C143.635 35.833 143.784 36.2226 144.008 36.571C144.232 36.9194 144.527 37.2192 144.875 37.4519C145.633 37.9388 146.526 38.1853 147.433 38.1578C147.974 38.1912 148.517 38.1197 149.031 37.9472C149.544 37.7747 150.017 37.5048 150.423 37.1529C150.78 36.8029 151.059 36.384 151.241 35.923C151.424 35.4619 151.506 34.9688 151.483 34.4749V31.9245C151.001 32.625 150.326 33.1778 149.537 33.5185C148.636 33.9181 147.656 34.1174 146.667 34.1019C145.421 34.1229 144.192 33.8126 143.112 33.2042C142.079 32.6143 141.243 31.7456 140.703 30.7022C140.14 29.5543 139.85 28.2966 139.855 27.0235C139.861 25.7504 140.161 24.4951 140.734 23.3518C141.287 22.2948 142.133 21.4111 143.175 20.8014C144.252 20.1833 145.482 19.8673 146.73 19.8883C147.738 19.8714 148.737 20.0815 149.649 20.5023C150.448 20.8606 151.12 21.4429 151.58 22.1754L151.784 20.3334L155.075 20.341ZM150.233 29.8714C150.607 29.4843 150.898 29.0288 151.091 28.5311C151.283 28.0334 151.373 27.5034 151.356 26.9715C151.373 26.4431 151.283 25.9166 151.09 25.4226C150.897 24.9286 150.606 24.477 150.233 24.094C149.865 23.7174 149.419 23.4209 148.926 23.2239C148.432 23.0268 147.902 22.9335 147.369 22.9501C146.844 22.9293 146.322 23.0209 145.837 23.2185C145.353 23.4161 144.919 23.7149 144.565 24.094C143.843 24.8948 143.464 25.9358 143.505 27.0021C143.464 28.0667 143.851 29.1048 144.583 29.8937C144.938 30.2658 145.37 30.559 145.851 30.7536C146.331 30.9482 146.849 31.0396 147.369 31.0216C147.902 31.0382 148.433 30.9443 148.927 30.7459C149.421 30.5475 149.866 30.2493 150.233 29.8707V29.8714Z" fill="white" fill-opacity="0.76"/>
</svg>
