<svg width="117" height="117" viewBox="0 0 117 117" fill="none" xmlns="http://www.w3.org/2000/svg">
<path d="M17.9935 30.6735C24.8331 23.2586 35.1828 19.5 48.7499 19.5H53.6249V33.2426L49.7054 34.0275C43.0266 35.3632 38.3808 37.9909 35.8945 41.847C34.5972 43.9244 33.8615 46.303 33.7593 48.75H48.7499C50.0428 48.75 51.2828 49.2636 52.197 50.1779C53.1113 51.0921 53.6249 52.3321 53.6249 53.625V87.75C53.6249 93.1271 49.252 97.5 43.8749 97.5H14.6249C13.332 97.5 12.092 96.9864 11.1777 96.0722C10.2635 95.1579 9.74989 93.9179 9.74989 92.625V68.25L9.76452 54.0199C9.72064 53.4788 8.79439 40.6575 17.9935 30.6735ZM97.4999 97.5H68.2499C66.957 97.5 65.717 96.9864 64.8027 96.0722C63.8885 95.1579 63.3749 93.9179 63.3749 92.625V68.25L63.3895 54.0199C63.3456 53.4788 62.4194 40.6575 71.6185 30.6735C78.4581 23.2586 88.8078 19.5 102.375 19.5H107.25V33.2426L103.33 34.0275C96.6516 35.3632 92.0058 37.9909 89.5195 41.847C88.2223 43.9244 87.4865 46.303 87.3843 48.75H102.375C103.668 48.75 104.908 49.2636 105.822 50.1779C106.736 51.0921 107.25 52.3321 107.25 53.625V87.75C107.25 93.1271 102.877 97.5 97.4999 97.5Z" fill="white" fill-opacity="0.1"/>
</svg>
