<svg width="243" height="199" viewBox="0 0 243 199" fill="none" xmlns="http://www.w3.org/2000/svg">
<path d="M47.1294 120.077C50.0185 138.698 38.0325 166.064 62.0044 176.453C94.0189 190.323 114.081 155.211 140.089 148.784C159.922 143.857 194.218 179.509 218.915 156.883C243.611 134.257 202.009 103.366 200.442 84.9545C198.892 66.7475 233.349 34.979 205.713 15.6244C178.584 -3.36053 147.707 32.8935 122.051 39.6687C99.2673 45.6494 43.8944 17.1141 27.4298 45.0977C11.8353 71.6358 44.3406 102.102 47.1294 120.077Z" fill="#000032" fill-opacity="0.2"/>
<path opacity="0.9" d="M47.1294 120.077C50.0185 138.698 38.0326 166.064 62.0044 176.453C94.0189 190.323 114.081 155.211 140.089 148.784C159.922 143.857 194.218 179.509 218.915 156.883C243.612 134.257 202.009 103.366 200.442 84.9545C198.892 66.7475 233.349 34.979 205.713 15.6244C178.584 -3.36053 147.707 32.8935 122.051 39.6687C99.2673 45.6494 43.8944 17.1141 27.4298 45.0977C11.8353 71.6358 44.3406 102.102 47.1294 120.077Z" fill="#000032" fill-opacity="0.2"/>
<path d="M189.473 65.5951H40.8636C39.225 65.5934 37.6527 66.2344 36.4911 67.3776C35.3295 68.5208 34.6735 70.0729 34.6667 71.6937V164.867C34.6667 165.672 34.8271 166.468 35.1386 167.212C35.4501 167.955 35.9066 168.63 36.4821 169.199C37.0577 169.768 37.7408 170.219 38.4926 170.526C39.2444 170.834 40.0501 170.991 40.8636 170.991H60.5831V168.004C60.5896 167.589 60.7597 167.193 61.057 166.9C61.3543 166.607 61.7555 166.44 62.1751 166.435H168.098C168.524 166.435 168.932 166.603 169.233 166.9C169.534 167.198 169.703 167.602 169.703 168.023V171.009H189.429C191.071 171.009 192.645 170.364 193.806 169.216C194.967 168.067 195.619 166.51 195.619 164.886V71.6937C195.613 70.0815 194.964 68.537 193.813 67.3952C192.662 66.2535 191.103 65.6066 189.473 65.5951Z" fill="#263238"/>
<path d="M116.469 69.6043C116.469 69.8615 116.391 70.1129 116.246 70.3262C116.1 70.5395 115.894 70.705 115.653 70.8016C115.412 70.8983 115.147 70.9215 114.893 70.8685C114.638 70.8156 114.406 70.6887 114.225 70.5041C114.043 70.3196 113.922 70.0858 113.876 69.8326C113.83 69.5795 113.861 69.3185 113.966 69.0831C114.071 68.8476 114.244 68.6485 114.464 68.5111C114.684 68.3737 114.94 68.3043 115.2 68.3118C115.541 68.32 115.864 68.46 116.101 68.7017C116.339 68.9434 116.47 69.2675 116.469 69.6043Z" fill="url(#paint0_linear_2253_461)"/>
<path d="M207.823 168.694H22.5078V173.281H207.823V168.694Z" fill="#263238"/>
<path opacity="0.5" d="M207.823 168.694H22.5078V173.281H207.823V168.694Z" fill="white"/>
<path d="M22.5078 173.287L25.3874 175.558C27.2787 177.057 29.63 177.874 32.0536 177.873H198.29C200.713 177.874 203.065 177.057 204.956 175.558L207.823 173.287H22.5078Z" fill="#263238"/>
<path opacity="0.3" d="M22.5078 173.287L25.3874 175.558C27.2787 177.057 29.63 177.874 32.0536 177.873H198.29C200.713 177.874 203.065 177.057 204.956 175.558L207.823 173.287H22.5078Z" fill="white"/>
<path opacity="0.4" d="M97.3582 168.845C97.3582 169.414 97.5867 169.96 97.9935 170.362C98.4003 170.765 98.9521 170.991 99.5274 170.991H130.803C131.379 170.991 131.93 170.765 132.337 170.362C132.744 169.96 132.972 169.414 132.972 168.845C132.972 168.795 132.972 168.744 132.972 168.694H97.3708C97.3708 168.744 97.3582 168.795 97.3582 168.845Z" fill="white"/>
<path d="M188.427 73.9022H41.9102V156.397H188.427V73.9022Z" fill="url(#paint1_linear_2253_461)"/>
<path opacity="0.6" d="M188.427 73.9022H41.9102V156.397H188.427V73.9022Z" fill="white"/>
<path d="M188.427 73.9022H41.9102V83.8344H188.427V73.9022Z" fill="url(#paint2_linear_2253_461)"/>
<path opacity="0.8" d="M106.574 81.3436H49.8006C49.1479 81.3436 48.5219 81.0871 48.0604 80.6305C47.5989 80.174 47.3396 79.5548 47.3396 78.9092C47.3396 78.2635 47.5989 77.6443 48.0604 77.1878C48.5219 76.7312 49.1479 76.4747 49.8006 76.4747H106.574C107.227 76.4747 107.853 76.7312 108.314 77.1878C108.776 77.6443 109.035 78.2635 109.035 78.9092C109.035 79.5548 108.776 80.174 108.314 80.6305C107.853 81.0871 107.227 81.3436 106.574 81.3436Z" fill="white"/>
<path opacity="0.8" d="M182.852 78.9092C182.852 79.3906 182.707 79.8613 182.437 80.2617C182.166 80.662 181.782 80.974 181.332 81.1583C180.883 81.3425 180.388 81.3907 179.911 81.2968C179.433 81.2029 178.995 80.971 178.65 80.6306C178.306 80.2901 178.072 79.8563 177.977 79.3841C177.882 78.9119 177.931 78.4224 178.117 77.9775C178.303 77.5327 178.619 77.1525 179.023 76.885C179.428 76.6175 179.904 76.4747 180.391 76.4747C180.714 76.4739 181.034 76.5363 181.333 76.6584C181.632 76.7804 181.904 76.9597 182.133 77.1859C182.361 77.4121 182.543 77.6808 182.666 77.9766C182.789 78.2723 182.852 78.5892 182.852 78.9092Z" fill="white"/>
<path opacity="0.6" d="M171.853 81.3436C173.212 81.3436 174.314 80.2537 174.314 78.9092C174.314 77.5647 173.212 76.4747 171.853 76.4747C170.494 76.4747 169.392 77.5647 169.392 78.9092C169.392 80.2537 170.494 81.3436 171.853 81.3436Z" fill="white"/>
<path opacity="0.4" d="M163.31 81.3436C164.669 81.3436 165.771 80.2537 165.771 78.9092C165.771 77.5647 164.669 76.4747 163.31 76.4747C161.95 76.4747 160.849 77.5647 160.849 78.9092C160.849 80.2537 161.95 81.3436 163.31 81.3436Z" fill="white"/>
<path d="M182.852 93.3274H47.3396V140.353H182.852V93.3274Z" fill="url(#paint3_linear_2253_461)"/>
<path d="M60.3167 140.353L86.3218 114.629C86.644 114.31 87.0266 114.056 87.4478 113.884C87.869 113.711 88.3205 113.622 88.7764 113.622C89.2323 113.622 89.6838 113.711 90.105 113.884C90.5262 114.056 90.9088 114.31 91.231 114.629L117.236 140.353H60.3167Z" fill="url(#paint4_linear_2253_461)"/>
<path opacity="0.3" d="M60.3167 140.353L86.3218 114.629C86.644 114.31 87.0266 114.056 87.4478 113.884C87.869 113.711 88.3205 113.622 88.7764 113.622C89.2323 113.622 89.6838 113.711 90.105 113.884C90.5262 114.056 90.9088 114.31 91.231 114.629L117.236 140.353H60.3167Z" fill="black"/>
<path d="M91.231 114.629C90.7622 114.165 90.1685 113.845 89.5208 113.706C88.873 113.567 88.1985 113.615 87.5776 113.844C87.5776 115.946 92.4235 117.691 92.4235 119.799C92.4235 121.907 87.5713 123.657 87.5713 125.766C87.5713 127.874 96.4511 129.618 96.4511 131.726C96.4511 133.834 87.5713 135.579 87.5713 137.687C87.5713 138.44 88.529 139.406 89.7786 140.353H117.236L91.231 114.629Z" fill="url(#paint5_linear_2253_461)"/>
<path opacity="0.4" d="M91.231 114.629C90.7622 114.165 90.1685 113.845 89.5208 113.706C88.873 113.567 88.1985 113.615 87.5776 113.844C87.5776 115.946 92.4235 117.691 92.4235 119.799C92.4235 121.907 87.5713 123.657 87.5713 125.766C87.5713 127.874 96.4511 129.618 96.4511 131.726C96.4511 133.834 87.5713 135.579 87.5713 137.687C87.5713 138.44 88.529 139.406 89.7786 140.353H117.236L91.231 114.629Z" fill="white"/>
<path d="M106.498 140.353L140.191 106.999C141.034 106.172 142.174 105.707 143.362 105.707C144.55 105.707 145.69 106.172 146.533 106.999L180.251 140.353H106.498Z" fill="url(#paint6_linear_2253_461)"/>
<path opacity="0.3" d="M106.498 140.353L140.191 106.999C141.034 106.172 142.174 105.707 143.362 105.707C144.55 105.707 145.69 106.172 146.533 106.999L180.251 140.353H106.498Z" fill="black"/>
<path d="M146.584 106.999C145.975 106.397 145.204 105.981 144.363 105.801C143.522 105.621 142.646 105.684 141.84 105.983C141.84 108.712 148.132 111.002 148.132 113.7C148.132 116.398 141.84 118.719 141.84 121.436C141.84 124.153 153.383 126.456 153.383 129.166C153.383 131.877 141.84 134.186 141.84 136.896C141.84 137.875 143.108 139.13 144.7 140.353H180.302L146.584 106.999Z" fill="url(#paint7_linear_2253_461)"/>
<path opacity="0.4" d="M146.584 106.999C145.975 106.397 145.204 105.981 144.363 105.801C143.522 105.621 142.646 105.684 141.84 105.983C141.84 108.712 148.132 111.002 148.132 113.7C148.132 116.398 141.84 118.719 141.84 121.436C141.84 124.153 153.383 126.456 153.383 129.166C153.383 131.877 141.84 134.186 141.84 136.896C141.84 137.875 143.108 139.13 144.7 140.353H180.302L146.584 106.999Z" fill="white"/>
<path opacity="0.5" d="M115.644 89.9392H101.17C100.961 89.9401 100.753 89.9 100.559 89.8212C100.365 89.7424 100.189 89.6265 100.04 89.4802C99.8918 89.3339 99.774 89.16 99.6936 88.9685C99.6132 88.777 99.5718 88.5718 99.5718 88.3644C99.5718 88.1571 99.6132 87.9518 99.6936 87.7603C99.774 87.5688 99.8918 87.3949 100.04 87.2486C100.189 87.1023 100.365 86.9864 100.559 86.9076C100.753 86.8289 100.961 86.7887 101.17 86.7896H115.644C116.066 86.7896 116.471 86.9555 116.77 87.2508C117.068 87.5462 117.236 87.9467 117.236 88.3644C117.236 88.7821 117.068 89.1827 116.77 89.478C116.471 89.7733 116.066 89.9392 115.644 89.9392Z" fill="white"/>
<path d="M137.653 89.9394H123.173C122.751 89.9394 122.346 89.7735 122.047 89.4781C121.749 89.1828 121.581 88.7822 121.581 88.3645C121.581 87.9468 121.749 87.5463 122.047 87.2509C122.346 86.9556 122.751 86.7897 123.173 86.7897H137.653C138.076 86.7897 138.481 86.9556 138.779 87.2509C139.078 87.5463 139.246 87.9468 139.246 88.3645C139.246 88.7822 139.078 89.1828 138.779 89.4781C138.481 89.7735 138.076 89.9394 137.653 89.9394Z" fill="url(#paint8_linear_2253_461)"/>
<path opacity="0.5" d="M159.656 89.9394H145.182C144.76 89.9394 144.355 89.7735 144.056 89.4781C143.758 89.1828 143.59 88.7822 143.59 88.3645C143.59 87.9468 143.758 87.5463 144.056 87.2509C144.355 86.9556 144.76 86.7897 145.182 86.7897H159.656C160.078 86.7897 160.483 86.9556 160.782 87.2509C161.08 87.5463 161.248 87.9468 161.248 88.3645C161.248 88.7822 161.08 89.1828 160.782 89.4781C160.483 89.7735 160.078 89.9394 159.656 89.9394Z" fill="white"/>
<path d="M138.11 147.28H113.374C113.057 147.28 112.754 147.156 112.53 146.935C112.307 146.713 112.181 146.413 112.181 146.101C112.181 145.787 112.307 145.486 112.53 145.264C112.753 145.042 113.057 144.916 113.374 144.915H138.11C138.427 144.916 138.73 145.042 138.954 145.264C139.177 145.486 139.303 145.787 139.303 146.101C139.303 146.413 139.177 146.713 138.953 146.935C138.73 147.156 138.426 147.28 138.11 147.28Z" fill="#263238"/>
<path d="M156.681 147.28H142.607C142.291 147.28 141.987 147.156 141.764 146.935C141.54 146.713 141.415 146.413 141.415 146.101C141.415 145.787 141.54 145.486 141.763 145.264C141.987 145.042 142.29 144.916 142.607 144.915H156.681C156.998 144.916 157.302 145.042 157.525 145.264C157.748 145.486 157.874 145.787 157.874 146.101C157.874 146.413 157.748 146.713 157.525 146.935C157.301 147.156 156.998 147.28 156.681 147.28Z" fill="#263238"/>
<path d="M131.812 152.544H113.418C113.101 152.542 112.798 152.417 112.574 152.195C112.351 151.972 112.226 151.672 112.226 151.358C112.226 151.045 112.351 150.745 112.575 150.524C112.798 150.303 113.102 150.179 113.418 150.179H131.812C132.128 150.179 132.431 150.303 132.655 150.524C132.879 150.745 133.004 151.045 133.004 151.358C133.004 151.672 132.879 151.972 132.655 152.195C132.432 152.417 132.129 152.542 131.812 152.544Z" fill="#263238"/>
<path d="M149.07 152.544H136.15C135.833 152.542 135.53 152.417 135.307 152.195C135.083 151.972 134.958 151.672 134.958 151.358C134.958 151.045 135.083 150.745 135.307 150.524C135.531 150.303 135.834 150.179 136.15 150.179H149.07C149.387 150.179 149.69 150.303 149.913 150.524C150.137 150.745 150.263 151.045 150.263 151.358C150.263 151.672 150.137 151.972 149.914 152.195C149.69 152.417 149.387 152.542 149.07 152.544Z" fill="#263238"/>
<path opacity="0.4" d="M138.11 147.28H113.374C113.057 147.28 112.754 147.156 112.53 146.935C112.307 146.713 112.181 146.413 112.181 146.101C112.181 145.787 112.307 145.486 112.53 145.264C112.753 145.042 113.057 144.916 113.374 144.915H138.11C138.427 144.916 138.73 145.042 138.954 145.264C139.177 145.486 139.303 145.787 139.303 146.101C139.303 146.413 139.177 146.713 138.953 146.935C138.73 147.156 138.426 147.28 138.11 147.28Z" fill="white"/>
<path opacity="0.4" d="M156.681 147.28H142.607C142.291 147.28 141.987 147.156 141.764 146.935C141.54 146.713 141.415 146.413 141.415 146.101C141.415 145.787 141.54 145.486 141.763 145.264C141.987 145.042 142.29 144.916 142.607 144.915H156.681C156.998 144.916 157.302 145.042 157.525 145.264C157.748 145.486 157.874 145.787 157.874 146.101C157.874 146.413 157.748 146.713 157.525 146.935C157.301 147.156 156.998 147.28 156.681 147.28Z" fill="white"/>
<path opacity="0.4" d="M131.812 152.544H113.418C113.101 152.542 112.798 152.417 112.574 152.195C112.351 151.972 112.226 151.672 112.226 151.358C112.226 151.045 112.351 150.745 112.575 150.524C112.798 150.303 113.102 150.179 113.418 150.179H131.812C132.128 150.179 132.431 150.303 132.655 150.524C132.879 150.745 133.004 151.045 133.004 151.358C133.004 151.672 132.879 151.972 132.655 152.195C132.432 152.417 132.129 152.542 131.812 152.544Z" fill="white"/>
<path opacity="0.4" d="M149.07 152.544H136.15C135.833 152.542 135.53 152.417 135.307 152.195C135.083 151.972 134.958 151.672 134.958 151.358C134.958 151.045 135.083 150.745 135.307 150.524C135.531 150.303 135.834 150.179 136.15 150.179H149.07C149.387 150.179 149.69 150.303 149.913 150.524C150.137 150.745 150.263 151.045 150.263 151.358C150.263 151.672 150.137 151.972 149.914 152.195C149.69 152.417 149.387 152.542 149.07 152.544Z" fill="white"/>
<path opacity="0.5" d="M181.665 89.9394H167.185C166.763 89.9394 166.358 89.7735 166.059 89.4781C165.761 89.1828 165.593 88.7822 165.593 88.3645C165.593 87.9468 165.761 87.5463 166.059 87.2509C166.358 86.9556 166.763 86.7897 167.185 86.7897H181.665C182.088 86.7897 182.493 86.9556 182.791 87.2509C183.09 87.5463 183.257 87.9468 183.257 88.3645C183.257 88.7822 183.09 89.1828 182.791 89.4781C182.493 89.7735 182.088 89.9394 181.665 89.9394Z" fill="white"/>
<path d="M105.978 118.293H59.6506V156.39H105.978V118.293Z" fill="url(#paint9_linear_2253_461)"/>
<path opacity="0.8" d="M105.978 118.293H59.6506V156.39H105.978V118.293Z" fill="white"/>
<path d="M97.4976 122.591H68.1372V141.683H97.4976V122.591Z" fill="url(#paint10_linear_2253_461)"/>
<path opacity="0.4" d="M97.4976 122.591H68.1372V141.683H97.4976V122.591Z" fill="white"/>
<path d="M78.1777 133.006L69.3994 141.69H86.956L78.1777 133.006Z" fill="url(#paint11_linear_2253_461)"/>
<path opacity="0.2" d="M78.1777 133.006L69.3994 141.69H86.956L78.1777 133.006Z" fill="black"/>
<path d="M97.1996 141.69L88.4847 126.983L79.7761 141.69H97.1996Z" fill="url(#paint12_linear_2253_461)"/>
<path opacity="0.8" d="M82.256 128.702C82.256 129.047 82.1526 129.384 81.9589 129.671C81.7651 129.958 81.4897 130.181 81.1675 130.313C80.8454 130.445 80.4908 130.48 80.1488 130.413C79.8067 130.345 79.4925 130.179 79.2459 129.935C78.9993 129.691 78.8314 129.38 78.7634 129.042C78.6953 128.704 78.7303 128.353 78.8637 128.034C78.9972 127.716 79.2232 127.443 79.5131 127.252C79.8031 127.06 80.144 126.958 80.4928 126.958C80.7246 126.957 80.9542 127.001 81.1685 127.089C81.3828 127.176 81.5776 127.304 81.7415 127.467C81.9054 127.629 82.0352 127.821 82.1235 128.033C82.2118 128.245 82.2569 128.472 82.256 128.702Z" fill="white"/>
<path d="M171.6 100.97H170.965C170.965 100.552 170.798 100.151 170.499 99.856C170.2 99.5606 169.796 99.3947 169.373 99.3947H168.358C168.359 99.1874 168.319 98.9819 168.239 98.7901C168.159 98.5983 168.042 98.424 167.894 98.2771C167.746 98.1302 167.571 98.0136 167.377 97.9341C167.184 97.8545 166.976 97.8136 166.766 97.8136H156.973C156.764 97.8136 156.556 97.8545 156.363 97.9341C156.169 98.0136 155.993 98.1302 155.845 98.2771C155.697 98.424 155.58 98.5983 155.501 98.7901C155.421 98.9819 155.38 99.1874 155.381 99.3947H154.366C153.944 99.3947 153.539 99.5606 153.241 99.856C152.942 100.151 152.774 100.552 152.774 100.97H149.489C149.093 101.005 148.724 101.185 148.456 101.475C148.188 101.766 148.039 102.145 148.039 102.538C148.039 102.931 148.188 103.311 148.456 103.601C148.724 103.891 149.093 104.072 149.489 104.107H171.6C171.996 104.072 172.364 103.891 172.632 103.601C172.901 103.311 173.05 102.931 173.05 102.538C173.05 102.145 172.901 101.766 172.632 101.475C172.364 101.185 171.996 101.005 171.6 100.97Z" fill="url(#paint13_linear_2253_461)"/>
<path opacity="0.8" d="M171.6 100.97H170.965C170.965 100.552 170.798 100.151 170.499 99.856C170.2 99.5606 169.796 99.3947 169.373 99.3947H168.358C168.359 99.1874 168.319 98.9819 168.239 98.7901C168.159 98.5983 168.042 98.424 167.894 98.2771C167.746 98.1302 167.571 98.0136 167.377 97.9341C167.184 97.8545 166.976 97.8136 166.766 97.8136H156.973C156.764 97.8136 156.556 97.8545 156.363 97.9341C156.169 98.0136 155.993 98.1302 155.845 98.2771C155.697 98.424 155.58 98.5983 155.501 98.7901C155.421 98.9819 155.38 99.1874 155.381 99.3947H154.366C153.944 99.3947 153.539 99.5606 153.241 99.856C152.942 100.151 152.774 100.552 152.774 100.97H149.489C149.093 101.005 148.724 101.185 148.456 101.475C148.188 101.766 148.039 102.145 148.039 102.538C148.039 102.931 148.188 103.311 148.456 103.601C148.724 103.891 149.093 104.072 149.489 104.107H171.6C171.996 104.072 172.364 103.891 172.632 103.601C172.901 103.311 173.05 102.931 173.05 102.538C173.05 102.145 172.901 101.766 172.632 101.475C172.364 101.185 171.996 101.005 171.6 100.97Z" fill="white"/>
<path d="M88.9351 112.652H88.3833C88.3833 112.299 88.2416 111.961 87.9895 111.712C87.7373 111.462 87.3953 111.322 87.0387 111.322H86.1824C86.1824 110.969 86.0407 110.631 85.7886 110.382C85.5364 110.132 85.1944 109.992 84.8377 109.992H81.9645C81.6079 109.992 81.2658 110.132 81.0137 110.382C80.7615 110.631 80.6198 110.969 80.6198 111.322H79.7636C79.5873 111.322 79.4127 111.357 79.25 111.423C79.0872 111.49 78.9393 111.588 78.815 111.712C78.6906 111.836 78.5922 111.982 78.5253 112.144C78.4584 112.305 78.4244 112.478 78.4253 112.652H75.6472C75.2905 112.652 74.9485 112.792 74.6963 113.042C74.4442 113.291 74.3025 113.63 74.3025 113.982C74.3025 114.335 74.4442 114.673 74.6963 114.923C74.9485 115.172 75.2905 115.313 75.6472 115.313H88.9351C89.2918 115.313 89.6338 115.172 89.8859 114.923C90.1381 114.673 90.2798 114.335 90.2798 113.982C90.2798 113.63 90.1381 113.291 89.8859 113.042C89.6338 112.792 89.2918 112.652 88.9351 112.652Z" fill="url(#paint14_linear_2253_461)"/>
<path opacity="0.8" d="M88.9351 112.652H88.3833C88.3833 112.299 88.2416 111.961 87.9895 111.712C87.7373 111.462 87.3953 111.322 87.0387 111.322H86.1824C86.1824 110.969 86.0407 110.631 85.7886 110.382C85.5364 110.132 85.1944 109.992 84.8377 109.992H81.9645C81.6079 109.992 81.2658 110.132 81.0137 110.382C80.7615 110.631 80.6198 110.969 80.6198 111.322H79.7636C79.5873 111.322 79.4127 111.357 79.25 111.423C79.0872 111.49 78.9393 111.588 78.815 111.712C78.6906 111.836 78.5922 111.982 78.5253 112.144C78.4584 112.305 78.4244 112.478 78.4253 112.652H75.6472C75.2905 112.652 74.9485 112.792 74.6963 113.042C74.4442 113.291 74.3025 113.63 74.3025 113.982C74.3025 114.335 74.4442 114.673 74.6963 114.923C74.9485 115.172 75.2905 115.313 75.6472 115.313H88.9351C89.2918 115.313 89.6338 115.172 89.8859 114.923C90.1381 114.673 90.2798 114.335 90.2798 113.982C90.2798 113.63 90.1381 113.291 89.8859 113.042C89.6338 112.792 89.2918 112.652 88.9351 112.652Z" fill="white"/>
<path d="M134.856 116.869H134.222C134.222 116.451 134.054 116.05 133.756 115.755C133.457 115.46 133.052 115.294 132.63 115.294H131.615C131.614 115.016 131.539 114.744 131.399 114.503C131.54 114.264 131.615 113.993 131.616 113.716C131.616 113.44 131.543 113.168 131.403 112.929C131.263 112.689 131.062 112.49 130.82 112.353C130.577 112.215 130.303 112.143 130.023 112.144H126.623C126.201 112.144 125.796 112.31 125.498 112.605C125.199 112.901 125.031 113.301 125.031 113.719H123.699C123.277 113.719 122.872 113.885 122.574 114.18C122.275 114.475 122.107 114.876 122.107 115.294H121.099C120.889 115.293 120.682 115.333 120.488 115.412C120.294 115.491 120.118 115.606 119.969 115.753C119.82 115.899 119.703 116.073 119.622 116.264C119.542 116.456 119.5 116.661 119.5 116.869H116.215C115.819 116.904 115.45 117.084 115.182 117.374C114.914 117.665 114.765 118.044 114.765 118.437C114.765 118.831 114.914 119.21 115.182 119.5C115.45 119.79 115.819 119.971 116.215 120.006H134.85C135.246 119.971 135.614 119.79 135.883 119.5C136.151 119.21 136.3 118.831 136.3 118.437C136.3 118.044 136.151 117.665 135.883 117.374C135.614 117.084 135.246 116.904 134.85 116.869H134.856Z" fill="url(#paint15_linear_2253_461)"/>
<path opacity="0.8" d="M134.856 116.869H134.222C134.222 116.451 134.054 116.05 133.756 115.755C133.457 115.46 133.052 115.294 132.63 115.294H131.615C131.614 115.016 131.539 114.744 131.399 114.503C131.54 114.264 131.615 113.993 131.616 113.716C131.616 113.44 131.543 113.168 131.403 112.929C131.263 112.689 131.062 112.49 130.82 112.353C130.577 112.215 130.303 112.143 130.023 112.144H126.623C126.201 112.144 125.796 112.31 125.498 112.605C125.199 112.901 125.031 113.301 125.031 113.719H123.699C123.277 113.719 122.872 113.885 122.574 114.18C122.275 114.475 122.107 114.876 122.107 115.294H121.099C120.889 115.293 120.682 115.333 120.488 115.412C120.294 115.491 120.118 115.606 119.969 115.753C119.82 115.899 119.703 116.073 119.622 116.264C119.542 116.456 119.5 116.661 119.5 116.869H116.215C115.819 116.904 115.45 117.084 115.182 117.374C114.914 117.665 114.765 118.044 114.765 118.437C114.765 118.831 114.914 119.21 115.182 119.5C115.45 119.79 115.819 119.971 116.215 120.006H134.85C135.246 119.971 135.614 119.79 135.883 119.5C136.151 119.21 136.3 118.831 136.3 118.437C136.3 118.044 136.151 117.665 135.883 117.374C135.614 117.084 135.246 116.904 134.85 116.869H134.856Z" fill="white"/>
<path d="M95.4553 146.264H68.8159C68.7262 146.264 68.6373 146.248 68.5542 146.214C68.4711 146.181 68.3956 146.132 68.3319 146.069C68.2682 146.007 68.2176 145.933 68.1831 145.851C68.1486 145.769 68.1309 145.681 68.1309 145.592C68.1309 145.413 68.203 145.24 68.3315 145.113C68.46 144.986 68.6342 144.915 68.8159 144.915H95.4553C95.5452 144.915 95.6343 144.932 95.7174 144.966C95.8005 145 95.876 145.05 95.9396 145.113C96.0032 145.176 96.0537 145.251 96.0881 145.333C96.1226 145.415 96.1403 145.503 96.1403 145.592C96.1403 145.681 96.1225 145.769 96.088 145.851C96.0535 145.933 96.003 146.007 95.9393 146.069C95.8756 146.132 95.8 146.181 95.7169 146.214C95.6338 146.248 95.5449 146.264 95.4553 146.264Z" fill="#263238"/>
<path opacity="0.4" d="M95.4553 146.264H68.8159C68.7262 146.264 68.6373 146.248 68.5542 146.214C68.4711 146.181 68.3956 146.132 68.3319 146.069C68.2682 146.007 68.2176 145.933 68.1831 145.851C68.1486 145.769 68.1309 145.681 68.1309 145.592C68.1309 145.413 68.203 145.24 68.3315 145.113C68.46 144.986 68.6342 144.915 68.8159 144.915H95.4553C95.5452 144.915 95.6343 144.932 95.7174 144.966C95.8005 145 95.876 145.05 95.9396 145.113C96.0032 145.176 96.0537 145.251 96.0881 145.333C96.1226 145.415 96.1403 145.503 96.1403 145.592C96.1403 145.681 96.1225 145.769 96.088 145.851C96.0535 145.933 96.003 146.007 95.9393 146.069C95.8756 146.132 95.8 146.181 95.7169 146.214C95.6338 146.248 95.5449 146.264 95.4553 146.264Z" fill="white"/>
<path d="M91.1359 148.968H68.8222C68.7323 148.968 68.6432 148.95 68.5601 148.916C68.477 148.882 68.4015 148.832 68.3378 148.769C68.2742 148.706 68.2238 148.632 68.1894 148.549C68.1549 148.467 68.1372 148.379 68.1372 148.29C68.1372 148.201 68.155 148.114 68.1895 148.032C68.224 147.95 68.2745 147.876 68.3382 147.813C68.4019 147.751 68.4775 147.701 68.5606 147.668C68.6436 147.635 68.7326 147.618 68.8222 147.619H91.1359C91.3159 147.619 91.4885 147.69 91.6158 147.815C91.7431 147.941 91.8146 148.112 91.8146 148.29C91.8154 148.379 91.7985 148.467 91.7647 148.549C91.731 148.631 91.6811 148.706 91.618 148.769C91.5549 148.832 91.4798 148.882 91.3971 148.916C91.3143 148.95 91.2255 148.968 91.1359 148.968Z" fill="#263238"/>
<path opacity="0.4" d="M91.1359 148.968H68.8222C68.7323 148.968 68.6432 148.95 68.5601 148.916C68.477 148.882 68.4015 148.832 68.3378 148.769C68.2742 148.706 68.2238 148.632 68.1894 148.549C68.1549 148.467 68.1372 148.379 68.1372 148.29C68.1372 148.201 68.155 148.114 68.1895 148.032C68.224 147.95 68.2745 147.876 68.3382 147.813C68.4019 147.751 68.4775 147.701 68.5606 147.668C68.6436 147.635 68.7326 147.618 68.8222 147.619H91.1359C91.3159 147.619 91.4885 147.69 91.6158 147.815C91.7431 147.941 91.8146 148.112 91.8146 148.29C91.8154 148.379 91.7985 148.467 91.7647 148.549C91.731 148.631 91.6811 148.706 91.618 148.769C91.5549 148.832 91.4798 148.882 91.3971 148.916C91.3143 148.95 91.2255 148.968 91.1359 148.968Z" fill="white"/>
<path d="M92.544 151.666H68.8222C68.7326 151.667 68.6436 151.65 68.5606 151.616C68.4775 151.583 68.4019 151.534 68.3382 151.471C68.2745 151.409 68.224 151.335 68.1895 151.253C68.155 151.171 68.1372 151.083 68.1372 150.994C68.1372 150.905 68.1549 150.817 68.1894 150.735C68.2238 150.653 68.2742 150.578 68.3378 150.515C68.4015 150.452 68.477 150.402 68.5601 150.368C68.6432 150.334 68.7323 150.317 68.8222 150.317H92.544C92.6336 150.317 92.7224 150.334 92.8052 150.368C92.8879 150.403 92.963 150.453 93.0261 150.516C93.0892 150.579 93.1391 150.653 93.1728 150.736C93.2065 150.818 93.2235 150.906 93.2226 150.994C93.2226 151.172 93.1511 151.343 93.0239 151.469C92.8966 151.595 92.724 151.666 92.544 151.666Z" fill="#263238"/>
<path opacity="0.4" d="M92.544 151.666H68.8222C68.7326 151.667 68.6436 151.65 68.5606 151.616C68.4775 151.583 68.4019 151.534 68.3382 151.471C68.2745 151.409 68.224 151.335 68.1895 151.253C68.155 151.171 68.1372 151.083 68.1372 150.994C68.1372 150.905 68.1549 150.817 68.1894 150.735C68.2238 150.653 68.2742 150.578 68.3378 150.515C68.4015 150.452 68.477 150.402 68.5601 150.368C68.6432 150.334 68.7323 150.317 68.8222 150.317H92.544C92.6336 150.317 92.7224 150.334 92.8052 150.368C92.8879 150.403 92.963 150.453 93.0261 150.516C93.0892 150.579 93.1391 150.653 93.1728 150.736C93.2065 150.818 93.2235 150.906 93.2226 150.994C93.2226 151.172 93.1511 151.343 93.0239 151.469C92.8966 151.595 92.724 151.666 92.544 151.666Z" fill="white"/>
<path d="M78.4822 77.4409C78.2405 77.225 77.9241 77.1094 77.5986 77.1179C77.2731 77.1264 76.9633 77.2584 76.7335 77.4865C76.5036 77.7147 76.3713 78.0216 76.3639 78.3436C76.3564 78.6657 76.4745 78.9782 76.6936 79.2165C76.9031 79.4223 77.1787 79.5493 77.4728 79.5757C77.7669 79.602 78.0611 79.526 78.3046 79.3608C78.3109 79.4258 78.3375 79.4872 78.3807 79.5365L79.237 80.3773C79.2649 80.4049 79.298 80.4268 79.3345 80.4417C79.3709 80.4566 79.41 80.4643 79.4495 80.4643C79.4889 80.4643 79.528 80.4566 79.5645 80.4417C79.6009 80.4268 79.634 80.4049 79.6619 80.3773C79.6899 80.3497 79.712 80.3169 79.7271 80.2809C79.7422 80.2448 79.75 80.2061 79.75 80.1671C79.75 80.1281 79.7422 80.0894 79.7271 80.0533C79.712 80.0173 79.6899 79.9845 79.6619 79.9569L78.812 79.1099C78.7622 79.0671 78.7001 79.0408 78.6344 79.0346C78.8006 78.793 78.8763 78.5016 78.8486 78.2106C78.8208 77.9197 78.6912 77.6475 78.4822 77.4409ZM78.2285 78.9593C78.1028 79.0846 77.9424 79.1702 77.7674 79.2052C77.5925 79.2401 77.4111 79.2229 77.2461 79.1557C77.0811 79.0885 76.94 78.9743 76.8407 78.8276C76.7414 78.6809 76.6884 78.5084 76.6884 78.3319C76.6884 78.1553 76.7414 77.9828 76.8407 77.8361C76.94 77.6895 77.0811 77.5753 77.2461 77.508C77.4111 77.4408 77.5925 77.4236 77.7674 77.4586C77.9424 77.4935 78.1028 77.5791 78.2285 77.7044C78.3943 77.8721 78.4871 78.0973 78.4871 78.3319C78.4871 78.5664 78.3943 78.7916 78.2285 78.9593Z" fill="url(#paint16_linear_2253_461)"/>
<path opacity="0.2" d="M78.4822 77.4409C78.2405 77.225 77.9241 77.1094 77.5986 77.1179C77.2731 77.1264 76.9633 77.2584 76.7335 77.4865C76.5036 77.7147 76.3713 78.0216 76.3639 78.3436C76.3564 78.6657 76.4745 78.9782 76.6936 79.2165C76.9031 79.4223 77.1787 79.5493 77.4728 79.5757C77.7669 79.602 78.0611 79.526 78.3046 79.3608C78.3109 79.4258 78.3375 79.4872 78.3807 79.5365L79.237 80.3773C79.2649 80.4049 79.298 80.4268 79.3345 80.4417C79.3709 80.4566 79.41 80.4643 79.4495 80.4643C79.4889 80.4643 79.528 80.4566 79.5645 80.4417C79.6009 80.4268 79.634 80.4049 79.6619 80.3773C79.6899 80.3497 79.712 80.3169 79.7271 80.2809C79.7422 80.2448 79.75 80.2061 79.75 80.1671C79.75 80.1281 79.7422 80.0894 79.7271 80.0533C79.712 80.0173 79.6899 79.9845 79.6619 79.9569L78.812 79.1099C78.7622 79.0671 78.7001 79.0408 78.6344 79.0346C78.8006 78.793 78.8763 78.5016 78.8486 78.2106C78.8208 77.9197 78.6912 77.6475 78.4822 77.4409ZM78.2285 78.9593C78.1028 79.0846 77.9424 79.1702 77.7674 79.2052C77.5925 79.2401 77.4111 79.2229 77.2461 79.1557C77.0811 79.0885 76.94 78.9743 76.8407 78.8276C76.7414 78.6809 76.6884 78.5084 76.6884 78.3319C76.6884 78.1553 76.7414 77.9828 76.8407 77.8361C76.94 77.6895 77.0811 77.5753 77.2461 77.508C77.4111 77.4408 77.5925 77.4236 77.7674 77.4586C77.9424 77.4935 78.1028 77.5791 78.2285 77.7044C78.3943 77.8721 78.4871 78.0973 78.4871 78.3319C78.4871 78.5664 78.3943 78.7916 78.2285 78.9593Z" fill="black"/>
<path d="M97.0156 52.8833H59.0672C56.6641 52.8833 54.7161 54.8103 54.7161 57.1875V63.7943C54.7161 66.1714 56.6641 68.0984 59.0672 68.0984H97.0156C99.4187 68.0984 101.367 66.1714 101.367 63.7943V57.1875C101.367 54.8103 99.4187 52.8833 97.0156 52.8833Z" fill="url(#paint17_linear_2253_461)"/>
<path opacity="0.7" d="M97.0156 52.8833H59.0672C56.6641 52.8833 54.7161 54.8103 54.7161 57.1875V63.7943C54.7161 66.1714 56.6641 68.0984 59.0672 68.0984H97.0156C99.4187 68.0984 101.367 66.1714 101.367 63.7943V57.1875C101.367 54.8103 99.4187 52.8833 97.0156 52.8833Z" fill="white"/>
<path opacity="0.8" d="M79.4526 56.2777C78.9139 55.744 78.2328 55.373 77.4888 55.2082C76.7449 55.0434 75.9689 55.0915 75.2515 55.3469C74.5342 55.6024 73.9052 56.0545 73.4381 56.6506C72.9711 57.2467 72.6852 57.962 72.614 58.7128C72.5428 59.4637 72.6892 60.2191 73.036 60.8907C73.3829 61.5623 73.9158 62.1223 74.5726 62.5053C75.2294 62.8882 75.9829 63.0783 76.7448 63.0532C77.5068 63.0282 78.2458 62.789 78.8754 62.3637C78.8956 62.5687 78.9849 62.761 79.1291 62.9096L81.8375 65.5887C82.0179 65.7607 82.2593 65.856 82.5098 65.854C82.7604 65.852 83.0002 65.753 83.1778 65.5781C83.3554 65.4032 83.4567 65.1665 83.4598 64.9186C83.463 64.6708 83.3679 64.4316 83.1948 64.2523L80.4865 61.5732C80.3352 61.4274 80.1384 61.3367 79.9283 61.3159C80.4548 60.5528 80.6953 59.6318 80.6085 58.712C80.5216 57.7921 80.1128 56.9311 79.4526 56.2777ZM78.6661 61.0775C78.2671 61.4727 77.7585 61.742 77.2048 61.8512C76.651 61.9604 76.0769 61.9047 75.5552 61.6911C75.0334 61.4775 74.5874 61.1156 74.2737 60.6513C73.9599 60.1869 73.7924 59.6408 73.7924 59.0823C73.7924 58.5237 73.9599 57.9777 74.2737 57.5133C74.5874 57.0489 75.0334 56.687 75.5552 56.4734C76.0769 56.2598 76.651 56.2041 77.2048 56.3134C77.7585 56.4226 78.2671 56.6918 78.6661 57.0871C78.9315 57.3488 79.1421 57.6597 79.2858 58.0021C79.4295 58.3445 79.5035 58.7116 79.5035 59.0823C79.5035 59.453 79.4295 59.8201 79.2858 60.1624C79.1421 60.5048 78.9315 60.8158 78.6661 61.0775Z" fill="white"/>
<defs>
<linearGradient id="paint0_linear_2253_461" x1="115.162" y1="68.3113" x2="115.162" y2="70.8963" gradientUnits="userSpaceOnUse">
<stop stop-color="#FD0091"/>
<stop offset="0.0001" stop-color="#FD0091"/>
<stop offset="1" stop-color="#FF7732"/>
</linearGradient>
<linearGradient id="paint1_linear_2253_461" x1="115.168" y1="73.9022" x2="115.168" y2="156.397" gradientUnits="userSpaceOnUse">
<stop stop-color="#FD0091"/>
<stop offset="0.0001" stop-color="#FD0091"/>
<stop offset="1" stop-color="#FF7732"/>
</linearGradient>
<linearGradient id="paint2_linear_2253_461" x1="115.168" y1="73.9022" x2="115.168" y2="83.8344" gradientUnits="userSpaceOnUse">
<stop stop-color="#FD0091"/>
<stop offset="0.0001" stop-color="#FD0091"/>
<stop offset="1" stop-color="#FF7732"/>
</linearGradient>
<linearGradient id="paint3_linear_2253_461" x1="115.096" y1="93.3274" x2="115.096" y2="140.353" gradientUnits="userSpaceOnUse">
<stop stop-color="#FD0091"/>
<stop offset="0.0001" stop-color="#FD0091"/>
<stop offset="1" stop-color="#FF7732"/>
</linearGradient>
<linearGradient id="paint4_linear_2253_461" x1="88.7764" y1="113.622" x2="88.7764" y2="140.353" gradientUnits="userSpaceOnUse">
<stop stop-color="#FD0091"/>
<stop offset="0.0001" stop-color="#FD0091"/>
<stop offset="1" stop-color="#FF7732"/>
</linearGradient>
<linearGradient id="paint5_linear_2253_461" x1="102.404" y1="113.628" x2="102.404" y2="140.353" gradientUnits="userSpaceOnUse">
<stop stop-color="#FD0091"/>
<stop offset="0.0001" stop-color="#FD0091"/>
<stop offset="1" stop-color="#FF7732"/>
</linearGradient>
<linearGradient id="paint6_linear_2253_461" x1="143.375" y1="105.707" x2="143.375" y2="140.353" gradientUnits="userSpaceOnUse">
<stop stop-color="#FD0091"/>
<stop offset="0.0001" stop-color="#FD0091"/>
<stop offset="1" stop-color="#FF7732"/>
</linearGradient>
<linearGradient id="paint7_linear_2253_461" x1="161.071" y1="105.7" x2="161.071" y2="140.353" gradientUnits="userSpaceOnUse">
<stop stop-color="#FD0091"/>
<stop offset="0.0001" stop-color="#FD0091"/>
<stop offset="1" stop-color="#FF7732"/>
</linearGradient>
<linearGradient id="paint8_linear_2253_461" x1="130.413" y1="86.7897" x2="130.413" y2="89.9394" gradientUnits="userSpaceOnUse">
<stop stop-color="#FD0091"/>
<stop offset="0.0001" stop-color="#FD0091"/>
<stop offset="1" stop-color="#FF7732"/>
</linearGradient>
<linearGradient id="paint9_linear_2253_461" x1="82.8142" y1="118.293" x2="82.8142" y2="156.39" gradientUnits="userSpaceOnUse">
<stop stop-color="#FD0091"/>
<stop offset="0.0001" stop-color="#FD0091"/>
<stop offset="1" stop-color="#FF7732"/>
</linearGradient>
<linearGradient id="paint10_linear_2253_461" x1="82.8174" y1="122.591" x2="82.8174" y2="141.683" gradientUnits="userSpaceOnUse">
<stop stop-color="#FD0091"/>
<stop offset="0.0001" stop-color="#FD0091"/>
<stop offset="1" stop-color="#FF7732"/>
</linearGradient>
<linearGradient id="paint11_linear_2253_461" x1="78.1777" y1="133.006" x2="78.1777" y2="141.69" gradientUnits="userSpaceOnUse">
<stop stop-color="#FD0091"/>
<stop offset="0.0001" stop-color="#FD0091"/>
<stop offset="1" stop-color="#FF7732"/>
</linearGradient>
<linearGradient id="paint12_linear_2253_461" x1="88.4878" y1="126.983" x2="88.4878" y2="141.69" gradientUnits="userSpaceOnUse">
<stop stop-color="#FD0091"/>
<stop offset="0.0001" stop-color="#FD0091"/>
<stop offset="1" stop-color="#FF7732"/>
</linearGradient>
<linearGradient id="paint13_linear_2253_461" x1="160.544" y1="97.8136" x2="160.544" y2="104.107" gradientUnits="userSpaceOnUse">
<stop stop-color="#FD0091"/>
<stop offset="0.0001" stop-color="#FD0091"/>
<stop offset="1" stop-color="#FF7732"/>
</linearGradient>
<linearGradient id="paint14_linear_2253_461" x1="82.2911" y1="109.992" x2="82.2911" y2="115.313" gradientUnits="userSpaceOnUse">
<stop stop-color="#FD0091"/>
<stop offset="0.0001" stop-color="#FD0091"/>
<stop offset="1" stop-color="#FF7732"/>
</linearGradient>
<linearGradient id="paint15_linear_2253_461" x1="125.532" y1="112.144" x2="125.532" y2="120.006" gradientUnits="userSpaceOnUse">
<stop stop-color="#FD0091"/>
<stop offset="0.0001" stop-color="#FD0091"/>
<stop offset="1" stop-color="#FF7732"/>
</linearGradient>
<linearGradient id="paint16_linear_2253_461" x1="78.0567" y1="77.1174" x2="78.0567" y2="80.4643" gradientUnits="userSpaceOnUse">
<stop stop-color="#FD0091"/>
<stop offset="0.0001" stop-color="#FD0091"/>
<stop offset="1" stop-color="#FF7732"/>
</linearGradient>
<linearGradient id="paint17_linear_2253_461" x1="78.0414" y1="52.8833" x2="78.0414" y2="68.0984" gradientUnits="userSpaceOnUse">
<stop stop-color="#FD0091"/>
<stop offset="0.0001" stop-color="#FD0091"/>
<stop offset="1" stop-color="#FF7732"/>
</linearGradient>
</defs>
</svg>
