<svg width="265" height="217" viewBox="0 0 265 217" fill="none" xmlns="http://www.w3.org/2000/svg">
<path d="M51.3922 130.939C54.5427 151.244 41.4726 181.085 67.6127 192.413C102.523 207.538 124.4 169.251 152.76 162.242C174.387 156.869 211.785 195.746 238.716 171.074C265.647 146.401 220.281 112.715 218.572 92.6388C216.882 72.7849 254.456 38.1429 224.32 17.0376C194.737 -3.66454 161.068 35.8687 133.091 43.2568C108.246 49.7785 47.8647 18.662 29.9108 49.1768C12.9057 78.1153 48.3513 111.337 51.3922 130.939Z" fill="#000032" fill-opacity="0.2"/>
<path opacity="0.9" d="M51.3922 130.939C54.5427 151.244 41.4726 181.085 67.6127 192.413C102.523 207.538 124.4 169.251 152.76 162.242C174.387 156.869 211.785 195.746 238.716 171.074C265.647 146.401 220.281 112.715 218.572 92.6388C216.882 72.7849 254.456 38.1429 224.32 17.0376C194.737 -3.66454 161.068 35.8687 133.091 43.2568C108.246 49.7785 47.8647 18.662 29.9108 49.1768C12.9057 78.1153 48.3513 111.337 51.3922 130.939Z" fill="#000032" fill-opacity="0.2"/>
<path d="M206.612 71.5283H44.5598C42.7731 71.5265 41.0585 72.2255 39.7919 73.4721C38.5252 74.7186 37.8098 76.4111 37.8025 78.1786V179.779C37.8025 180.657 37.9773 181.526 38.317 182.336C38.6567 183.147 39.1545 183.883 39.7821 184.504C40.4097 185.124 41.1546 185.616 41.9744 185.951C42.7942 186.286 43.6728 186.458 44.5598 186.457H66.063V183.2C66.0702 182.748 66.2556 182.316 66.5798 181.996C66.904 181.677 67.3415 181.495 67.799 181.49H183.303C183.767 181.49 184.212 181.672 184.541 181.997C184.869 182.321 185.053 182.762 185.053 183.221V186.478H206.563C208.354 186.478 210.071 185.774 211.337 184.522C212.602 183.269 213.314 181.571 213.314 179.8V78.1786C213.306 76.4206 212.599 74.7363 211.344 73.4913C210.089 72.2463 208.389 71.5409 206.612 71.5283V71.5283Z" fill="#263238"/>
<path d="M127.004 75.9002C127.004 76.1807 126.919 76.4548 126.76 76.6874C126.602 76.92 126.377 77.1005 126.114 77.2058C125.851 77.3112 125.563 77.3366 125.285 77.2788C125.008 77.221 124.754 77.0827 124.557 76.8814C124.359 76.6802 124.227 76.4252 124.177 76.1492C124.126 75.8731 124.161 75.5885 124.275 75.3318C124.389 75.0751 124.578 74.858 124.818 74.7081C125.057 74.5583 125.337 74.4827 125.62 74.4908C125.992 74.4998 126.344 74.6524 126.603 74.916C126.862 75.1795 127.006 75.5329 127.004 75.9002V75.9002Z" fill="url(#paint0_linear_2297_395)"/>
<path d="M226.621 183.953H24.5437V188.954H226.621V183.953Z" fill="#263238"/>
<path opacity="0.5" d="M226.621 183.953H24.5437V188.954H226.621V183.953Z" fill="white"/>
<path d="M24.5437 188.961L27.6838 191.438C29.7461 193.073 32.3101 193.963 34.9529 193.963H216.226C218.868 193.963 221.432 193.073 223.495 191.438L226.621 188.961H24.5437Z" fill="#263238"/>
<path opacity="0.3" d="M24.5437 188.961L27.6838 191.438C29.7461 193.073 32.3101 193.963 34.9529 193.963H216.226C218.868 193.963 221.432 193.073 223.495 191.438L226.621 188.961H24.5437Z" fill="white"/>
<path opacity="0.4" d="M106.165 184.117C106.165 184.738 106.414 185.333 106.857 185.772C107.301 186.21 107.903 186.457 108.53 186.457H142.635C143.262 186.457 143.864 186.21 144.307 185.772C144.751 185.333 145 184.738 145 184.117C145 184.062 145 184.008 145 183.953H106.178C106.178 184.008 106.165 184.062 106.165 184.117Z" fill="white"/>
<path d="M205.471 80.5869H45.7012V170.543H205.471V80.5869Z" fill="url(#paint1_linear_2297_395)"/>
<path opacity="0.6" d="M205.471 80.5869H45.7012V170.543H205.471V80.5869Z" fill="white"/>
<path d="M205.471 80.5869H45.7012V91.4175H205.471V80.5869Z" fill="url(#paint2_linear_2297_395)"/>
<path opacity="0.8" d="M116.214 88.7012H54.3052C53.5934 88.7012 52.9109 88.4215 52.4076 87.9237C51.9043 87.4258 51.6216 86.7506 51.6216 86.0466C51.6216 85.3425 51.9043 84.6673 52.4076 84.1695C52.9109 83.6717 53.5934 83.392 54.3052 83.392H116.214C116.926 83.392 117.608 83.6717 118.112 84.1695C118.615 84.6673 118.898 85.3425 118.898 86.0466V86.0466C118.898 86.7506 118.615 87.4258 118.112 87.9237C117.608 88.4215 116.926 88.7012 116.214 88.7012V88.7012Z" fill="white"/>
<path opacity="0.8" d="M199.391 86.0466C199.391 86.5716 199.234 87.0849 198.939 87.5214C198.644 87.958 198.225 88.2982 197.734 88.4992C197.244 88.7001 196.705 88.7526 196.184 88.6502C195.663 88.5478 195.185 88.2949 194.81 87.9237C194.435 87.5524 194.179 87.0794 194.075 86.5645C193.972 86.0496 194.025 85.5158 194.228 85.0307C194.431 84.5456 194.775 84.1311 195.217 83.8394C195.658 83.5477 196.177 83.392 196.708 83.392C197.06 83.3911 197.41 83.4591 197.736 83.5922C198.062 83.7253 198.358 83.9208 198.607 84.1675C198.856 84.4142 199.054 84.7072 199.189 85.0297C199.323 85.3521 199.392 85.6977 199.391 86.0466Z" fill="white"/>
<path opacity="0.6" d="M187.398 88.7012C188.88 88.7012 190.081 87.5127 190.081 86.0466C190.081 84.5805 188.88 83.392 187.398 83.392C185.916 83.392 184.714 84.5805 184.714 86.0466C184.714 87.5127 185.916 88.7012 187.398 88.7012Z" fill="white"/>
<path opacity="0.4" d="M178.081 88.7012C179.563 88.7012 180.765 87.5127 180.765 86.0466C180.765 84.5805 179.563 83.392 178.081 83.392C176.599 83.392 175.398 84.5805 175.398 86.0466C175.398 87.5127 176.599 88.7012 178.081 88.7012Z" fill="white"/>
<path d="M199.391 101.769H51.6216V153.049H199.391V101.769Z" fill="url(#paint3_linear_2297_395)"/>
<path d="M65.7725 153.048L94.1298 124.997C94.4812 124.649 94.8984 124.373 95.3577 124.185C95.817 123.996 96.3093 123.899 96.8065 123.899C97.3036 123.899 97.7959 123.996 98.2552 124.185C98.7145 124.373 99.1317 124.649 99.4831 124.997L127.84 153.048H65.7725Z" fill="url(#paint4_linear_2297_395)"/>
<path opacity="0.3" d="M65.7725 153.048L94.1298 124.997C94.4812 124.649 94.8984 124.373 95.3577 124.185C95.817 123.996 96.3093 123.899 96.8065 123.899C97.3036 123.899 97.7959 123.996 98.2552 124.185C98.7145 124.373 99.1317 124.649 99.4831 124.997L127.84 153.048H65.7725Z" fill="black"/>
<path d="M99.4832 124.997C98.9719 124.492 98.3246 124.142 97.6182 123.991C96.9119 123.839 96.1764 123.892 95.4994 124.142C95.4994 126.434 100.784 128.336 100.784 130.635C100.784 132.934 95.4924 134.842 95.4924 137.141C95.4924 139.44 105.175 141.342 105.175 143.641C105.175 145.94 95.4924 147.842 95.4924 150.141C95.4924 150.962 96.5368 152.015 97.8994 153.048H127.841L99.4832 124.997Z" fill="url(#paint5_linear_2297_395)"/>
<path opacity="0.4" d="M99.4832 124.997C98.9719 124.492 98.3246 124.142 97.6182 123.991C96.9119 123.839 96.1764 123.892 95.4994 124.142C95.4994 126.434 100.784 128.336 100.784 130.635C100.784 132.934 95.4924 134.842 95.4924 137.141C95.4924 139.44 105.175 141.342 105.175 143.641C105.175 145.94 95.4924 147.842 95.4924 150.141C95.4924 150.962 96.5368 152.015 97.8994 153.048H127.841L99.4832 124.997Z" fill="white"/>
<path d="M116.131 153.048L152.871 116.677C153.791 115.775 155.034 115.269 156.329 115.269C157.625 115.269 158.868 115.775 159.788 116.677L196.555 153.048H116.131Z" fill="url(#paint6_linear_2297_395)"/>
<path opacity="0.3" d="M116.131 153.048L152.871 116.677C153.791 115.775 155.034 115.269 156.329 115.269C157.625 115.269 158.868 115.775 159.788 116.677L196.555 153.048H116.131Z" fill="black"/>
<path d="M159.843 116.677C159.179 116.021 158.338 115.567 157.421 115.371C156.504 115.174 155.548 115.243 154.669 115.569C154.669 118.545 161.531 121.042 161.531 123.984C161.531 126.926 154.669 129.458 154.669 132.42C154.669 135.383 167.257 137.894 167.257 140.85C167.257 143.805 154.669 146.323 154.669 149.279C154.669 150.346 156.053 151.714 157.789 153.048H196.611L159.843 116.677Z" fill="url(#paint7_linear_2297_395)"/>
<path opacity="0.4" d="M159.843 116.677C159.179 116.021 158.338 115.567 157.421 115.371C156.504 115.174 155.548 115.243 154.669 115.569C154.669 118.545 161.531 121.042 161.531 123.984C161.531 126.926 154.669 129.458 154.669 132.42C154.669 135.383 167.257 137.894 167.257 140.85C167.257 143.805 154.669 146.323 154.669 149.279C154.669 150.346 156.053 151.714 157.789 153.048H196.611L159.843 116.677Z" fill="white"/>
<path opacity="0.5" d="M126.105 98.0745H110.321C110.093 98.0754 109.866 98.0316 109.655 97.9457C109.443 97.8598 109.251 97.7335 109.089 97.5739C108.927 97.4144 108.799 97.2248 108.711 97.016C108.623 96.8072 108.578 96.5833 108.578 96.3572V96.3572C108.578 96.1311 108.623 95.9072 108.711 95.6984C108.799 95.4896 108.927 95.3 109.089 95.1405C109.251 94.9809 109.443 94.8546 109.655 94.7687C109.866 94.6828 110.093 94.639 110.321 94.6399H126.105C126.565 94.6399 127.007 94.8208 127.332 95.1429C127.658 95.4649 127.841 95.9018 127.841 96.3572C127.841 96.8127 127.658 97.2495 127.332 97.5715C127.007 97.8936 126.565 98.0745 126.105 98.0745Z" fill="white"/>
<path d="M150.105 98.0745H134.314C133.854 98.0745 133.412 97.8936 133.087 97.5715C132.761 97.2495 132.578 96.8126 132.578 96.3572V96.3572C132.578 95.9017 132.761 95.4649 133.087 95.1429C133.412 94.8208 133.854 94.6399 134.314 94.6399H150.105C150.565 94.6399 151.007 94.8208 151.332 95.1429C151.658 95.4649 151.841 95.9017 151.841 96.3572C151.841 96.8126 151.658 97.2495 151.332 97.5715C151.007 97.8936 150.565 98.0745 150.105 98.0745Z" fill="url(#paint8_linear_2297_395)"/>
<path opacity="0.5" d="M174.097 98.0745H158.314C157.854 98.0745 157.412 97.8936 157.087 97.5715C156.761 97.2495 156.578 96.8126 156.578 96.3572V96.3572C156.578 95.9017 156.761 95.4649 157.087 95.1429C157.412 94.8208 157.854 94.6399 158.314 94.6399H174.097C174.558 94.6399 174.999 94.8208 175.325 95.1429C175.651 95.4649 175.833 95.9017 175.833 96.3572C175.833 96.8126 175.651 97.2495 175.325 97.5715C174.999 97.8936 174.558 98.0745 174.097 98.0745Z" fill="white"/>
<path d="M150.602 160.602H123.628C123.284 160.602 122.953 160.466 122.709 160.225C122.465 159.984 122.328 159.657 122.328 159.316V159.316C122.328 158.974 122.465 158.646 122.709 158.404C122.952 158.161 123.283 158.024 123.628 158.022H150.602C150.948 158.024 151.279 158.161 151.522 158.404C151.766 158.646 151.903 158.974 151.903 159.316V159.316C151.903 159.657 151.766 159.984 151.522 160.225C151.278 160.466 150.947 160.602 150.602 160.602V160.602Z" fill="#263238"/>
<path d="M170.854 160.602H155.506C155.161 160.602 154.831 160.466 154.587 160.225C154.343 159.984 154.206 159.657 154.206 159.316V159.316C154.206 158.974 154.343 158.646 154.586 158.404C154.83 158.161 155.161 158.024 155.506 158.022H170.854C171.199 158.024 171.53 158.161 171.774 158.404C172.017 158.646 172.154 158.974 172.154 159.316V159.316C172.154 159.657 172.017 159.984 171.773 160.225C171.529 160.466 171.199 160.602 170.854 160.602V160.602Z" fill="#263238"/>
<path d="M143.734 166.342H123.677C123.331 166.34 123.001 166.203 122.757 165.961C122.513 165.719 122.376 165.391 122.376 165.049V165.049C122.376 164.708 122.513 164.381 122.757 164.139C123.001 163.898 123.332 163.763 123.677 163.763H143.734C144.079 163.763 144.41 163.898 144.654 164.139C144.898 164.381 145.035 164.708 145.035 165.049V165.049C145.035 165.391 144.898 165.719 144.654 165.961C144.411 166.203 144.08 166.34 143.734 166.342V166.342Z" fill="#263238"/>
<path d="M162.554 166.342H148.465C148.12 166.34 147.789 166.203 147.545 165.961C147.302 165.719 147.165 165.391 147.165 165.049V165.049C147.165 164.708 147.302 164.381 147.546 164.139C147.79 163.898 148.12 163.763 148.465 163.763H162.554C162.899 163.763 163.23 163.898 163.474 164.139C163.717 164.381 163.854 164.708 163.854 165.049V165.049C163.854 165.391 163.718 165.719 163.474 165.961C163.23 166.203 162.9 166.34 162.554 166.342Z" fill="#263238"/>
<path opacity="0.4" d="M150.602 160.602H123.628C123.284 160.602 122.953 160.466 122.709 160.225C122.465 159.984 122.328 159.657 122.328 159.316V159.316C122.328 158.974 122.465 158.646 122.709 158.404C122.952 158.161 123.283 158.024 123.628 158.022H150.602C150.948 158.024 151.279 158.161 151.522 158.404C151.766 158.646 151.903 158.974 151.903 159.316V159.316C151.903 159.657 151.766 159.984 151.522 160.225C151.278 160.466 150.947 160.602 150.602 160.602V160.602Z" fill="white"/>
<path opacity="0.4" d="M170.854 160.602H155.506C155.161 160.602 154.831 160.466 154.587 160.225C154.343 159.984 154.206 159.657 154.206 159.316V159.316C154.206 158.974 154.343 158.646 154.586 158.404C154.83 158.161 155.161 158.024 155.506 158.022H170.854C171.199 158.024 171.53 158.161 171.774 158.404C172.017 158.646 172.154 158.974 172.154 159.316V159.316C172.154 159.657 172.017 159.984 171.773 160.225C171.529 160.466 171.199 160.602 170.854 160.602V160.602Z" fill="white"/>
<path opacity="0.4" d="M143.734 166.342H123.677C123.331 166.34 123.001 166.203 122.757 165.961C122.513 165.719 122.376 165.391 122.376 165.049V165.049C122.376 164.708 122.513 164.381 122.757 164.139C123.001 163.898 123.332 163.763 123.677 163.763H143.734C144.079 163.763 144.41 163.898 144.654 164.139C144.898 164.381 145.035 164.708 145.035 165.049V165.049C145.035 165.391 144.898 165.719 144.654 165.961C144.411 166.203 144.08 166.34 143.734 166.342V166.342Z" fill="white"/>
<path opacity="0.4" d="M162.554 166.342H148.465C148.12 166.34 147.789 166.203 147.545 165.961C147.302 165.719 147.165 165.391 147.165 165.049V165.049C147.165 164.708 147.302 164.381 147.546 164.139C147.79 163.898 148.12 163.763 148.465 163.763H162.554C162.899 163.763 163.23 163.898 163.474 164.139C163.717 164.381 163.854 164.708 163.854 165.049V165.049C163.854 165.391 163.718 165.719 163.474 165.961C163.23 166.203 162.9 166.34 162.554 166.342Z" fill="white"/>
<path opacity="0.5" d="M198.098 98.0745H182.307C181.847 98.0745 181.405 97.8936 181.08 97.5715C180.754 97.2495 180.571 96.8126 180.571 96.3572C180.571 95.9017 180.754 95.4649 181.08 95.1429C181.405 94.8208 181.847 94.6399 182.307 94.6399H198.098C198.558 94.6399 198.999 94.8208 199.325 95.1429C199.651 95.4649 199.834 95.9017 199.834 96.3572C199.834 96.8126 199.651 97.2495 199.325 97.5715C198.999 97.8936 198.558 98.0745 198.098 98.0745Z" fill="white"/>
<path d="M115.564 128.993H65.0464V170.536H115.564V128.993Z" fill="url(#paint9_linear_2297_395)"/>
<path opacity="0.8" d="M115.564 128.993H65.0464V170.536H115.564V128.993Z" fill="white"/>
<path d="M106.317 133.679H74.3005V154.499H106.317V133.679Z" fill="url(#paint10_linear_2297_395)"/>
<path opacity="0.4" d="M106.317 133.679H74.3005V154.499H106.317V133.679Z" fill="white"/>
<path d="M85.2491 145.037L75.6768 154.506H94.8214L85.2491 145.037Z" fill="url(#paint11_linear_2297_395)"/>
<path opacity="0.2" d="M85.2491 145.037L75.6768 154.506H94.8214L85.2491 145.037Z" fill="black"/>
<path d="M105.992 154.506L96.4884 138.469L86.9922 154.506H105.992Z" fill="url(#paint12_linear_2297_395)"/>
<path opacity="0.8" d="M89.6964 140.343C89.6964 140.719 89.5836 141.087 89.3723 141.4C89.161 141.713 88.8608 141.956 88.5094 142.1C88.1581 142.244 87.7715 142.282 87.3985 142.209C87.0255 142.135 86.6829 141.954 86.414 141.688C86.1451 141.422 85.962 141.083 85.8878 140.714C85.8136 140.345 85.8517 139.963 85.9972 139.615C86.1427 139.268 86.3892 138.971 86.7054 138.762C87.0216 138.553 87.3933 138.441 87.7736 138.441C88.0264 138.44 88.2768 138.489 88.5105 138.584C88.7442 138.679 88.9565 138.819 89.1352 138.996C89.314 139.173 89.4556 139.383 89.5519 139.614C89.6482 139.845 89.6973 140.093 89.6964 140.343V140.343Z" fill="white"/>
<path d="M187.121 110.102H186.43C186.43 109.647 186.247 109.21 185.921 108.888C185.596 108.566 185.154 108.385 184.694 108.385H183.587C183.588 108.159 183.544 107.935 183.457 107.726C183.37 107.517 183.242 107.327 183.081 107.166C182.92 107.006 182.728 106.879 182.517 106.792C182.306 106.706 182.08 106.661 181.851 106.661H171.172C170.943 106.661 170.717 106.706 170.506 106.792C170.295 106.879 170.103 107.006 169.942 107.166C169.781 107.327 169.653 107.517 169.566 107.726C169.479 107.935 169.435 108.159 169.436 108.385H168.329C167.869 108.385 167.427 108.566 167.102 108.888C166.776 109.21 166.593 109.647 166.593 110.102H163.011C162.579 110.141 162.177 110.337 161.884 110.654C161.592 110.971 161.429 111.384 161.429 111.813C161.429 112.242 161.592 112.655 161.884 112.972C162.177 113.288 162.579 113.485 163.011 113.523H187.121C187.553 113.485 187.955 113.288 188.248 112.972C188.54 112.655 188.703 112.242 188.703 111.813C188.703 111.384 188.54 110.971 188.248 110.654C187.955 110.337 187.553 110.141 187.121 110.102V110.102Z" fill="url(#paint13_linear_2297_395)"/>
<path opacity="0.8" d="M187.121 110.102H186.43C186.43 109.647 186.247 109.21 185.921 108.888C185.596 108.566 185.154 108.385 184.694 108.385H183.587C183.588 108.159 183.544 107.935 183.457 107.726C183.37 107.517 183.242 107.327 183.081 107.166C182.92 107.006 182.728 106.879 182.517 106.792C182.306 106.706 182.08 106.661 181.851 106.661H171.172C170.943 106.661 170.717 106.706 170.506 106.792C170.295 106.879 170.103 107.006 169.942 107.166C169.781 107.327 169.653 107.517 169.566 107.726C169.479 107.935 169.435 108.159 169.436 108.385H168.329C167.869 108.385 167.427 108.566 167.102 108.888C166.776 109.21 166.593 109.647 166.593 110.102H163.011C162.579 110.141 162.177 110.337 161.884 110.654C161.592 110.971 161.429 111.384 161.429 111.813C161.429 112.242 161.592 112.655 161.884 112.972C162.177 113.288 162.579 113.485 163.011 113.523H187.121C187.553 113.485 187.955 113.288 188.248 112.972C188.54 112.655 188.703 112.242 188.703 111.813C188.703 111.384 188.54 110.971 188.248 110.654C187.955 110.337 187.553 110.141 187.121 110.102V110.102Z" fill="white"/>
<path d="M96.9794 122.842H96.3777C96.3777 122.457 96.2232 122.088 95.9482 121.816C95.6732 121.544 95.3003 121.391 94.9114 121.391H93.9777C93.9777 121.007 93.8232 120.638 93.5482 120.366C93.2732 120.094 92.9003 119.941 92.5114 119.941H89.3782C88.9894 119.941 88.6164 120.094 88.3414 120.366C88.0664 120.638 87.912 121.007 87.912 121.391H86.9782C86.786 121.391 86.5957 121.429 86.4182 121.502C86.2407 121.575 86.0795 121.682 85.9439 121.817C85.8082 121.951 85.7009 122.111 85.628 122.287C85.555 122.463 85.518 122.652 85.5189 122.842H82.4895C82.1006 122.842 81.7276 122.995 81.4527 123.267C81.1777 123.539 81.0232 123.908 81.0232 124.292C81.0232 124.677 81.1777 125.046 81.4527 125.318C81.7276 125.59 82.1006 125.743 82.4895 125.743H96.9794C97.3683 125.743 97.7412 125.59 98.0162 125.318C98.2912 125.046 98.4457 124.677 98.4457 124.292C98.4457 123.908 98.2912 123.539 98.0162 123.267C97.7412 122.995 97.3683 122.842 96.9794 122.842V122.842Z" fill="url(#paint14_linear_2297_395)"/>
<path opacity="0.8" d="M96.9794 122.842H96.3777C96.3777 122.457 96.2232 122.088 95.9482 121.816C95.6732 121.544 95.3003 121.391 94.9114 121.391H93.9777C93.9777 121.007 93.8232 120.638 93.5482 120.366C93.2732 120.094 92.9003 119.941 92.5114 119.941H89.3782C88.9894 119.941 88.6164 120.094 88.3414 120.366C88.0664 120.638 87.912 121.007 87.912 121.391H86.9782C86.786 121.391 86.5957 121.429 86.4182 121.502C86.2407 121.575 86.0795 121.682 85.9439 121.817C85.8082 121.951 85.7009 122.111 85.628 122.287C85.555 122.463 85.518 122.652 85.5189 122.842H82.4895C82.1006 122.842 81.7276 122.995 81.4527 123.267C81.1777 123.539 81.0232 123.908 81.0232 124.292C81.0232 124.677 81.1777 125.046 81.4527 125.318C81.7276 125.59 82.1006 125.743 82.4895 125.743H96.9794C97.3683 125.743 97.7412 125.59 98.0162 125.318C98.2912 125.046 98.4457 124.677 98.4457 124.292C98.4457 123.908 98.2912 123.539 98.0162 123.267C97.7412 122.995 97.3683 122.842 96.9794 122.842V122.842Z" fill="white"/>
<path d="M147.054 127.44H146.363C146.363 126.984 146.18 126.547 145.854 126.225C145.529 125.903 145.087 125.722 144.627 125.722H143.52C143.519 125.42 143.438 125.123 143.285 124.86C143.439 124.6 143.52 124.304 143.521 124.002C143.521 123.701 143.441 123.404 143.289 123.143C143.137 122.882 142.917 122.665 142.653 122.515C142.389 122.365 142.089 122.286 141.784 122.288H138.077C137.616 122.288 137.175 122.469 136.849 122.791C136.524 123.113 136.341 123.55 136.341 124.005H134.888C134.428 124.005 133.986 124.186 133.661 124.508C133.335 124.83 133.152 125.267 133.152 125.722H132.053C131.824 125.721 131.598 125.765 131.386 125.851C131.175 125.937 130.983 126.063 130.821 126.223C130.659 126.382 130.53 126.572 130.442 126.781C130.355 126.99 130.31 127.214 130.31 127.44H126.727C126.295 127.478 125.893 127.675 125.601 127.991C125.308 128.308 125.146 128.721 125.146 129.15C125.146 129.579 125.308 129.992 125.601 130.309C125.893 130.626 126.295 130.822 126.727 130.861H147.047C147.479 130.822 147.881 130.626 148.174 130.309C148.466 129.992 148.629 129.579 148.629 129.15C148.629 128.721 148.466 128.308 148.174 127.991C147.881 127.675 147.479 127.478 147.047 127.44H147.054Z" fill="url(#paint15_linear_2297_395)"/>
<path opacity="0.8" d="M147.054 127.44H146.363C146.363 126.984 146.18 126.547 145.854 126.225C145.529 125.903 145.087 125.722 144.627 125.722H143.52C143.519 125.42 143.438 125.123 143.285 124.86C143.439 124.6 143.52 124.304 143.521 124.002C143.521 123.701 143.441 123.404 143.289 123.143C143.137 122.882 142.917 122.665 142.653 122.515C142.389 122.365 142.089 122.286 141.784 122.288H138.077C137.616 122.288 137.175 122.469 136.849 122.791C136.524 123.113 136.341 123.55 136.341 124.005H134.888C134.428 124.005 133.986 124.186 133.661 124.508C133.335 124.83 133.152 125.267 133.152 125.722H132.053C131.824 125.721 131.598 125.765 131.386 125.851C131.175 125.937 130.983 126.063 130.821 126.223C130.659 126.382 130.53 126.572 130.442 126.781C130.355 126.99 130.31 127.214 130.31 127.44H126.727C126.295 127.478 125.893 127.675 125.601 127.991C125.308 128.308 125.146 128.721 125.146 129.15C125.146 129.579 125.308 129.992 125.601 130.309C125.893 130.626 126.295 130.822 126.727 130.861H147.047C147.479 130.822 147.881 130.626 148.174 130.309C148.466 129.992 148.629 129.579 148.629 129.15C148.629 128.721 148.466 128.308 148.174 127.991C147.881 127.675 147.479 127.478 147.047 127.44H147.054Z" fill="white"/>
<path d="M104.089 159.493H75.0404C74.9427 159.494 74.8457 159.476 74.7551 159.44C74.6645 159.403 74.5821 159.35 74.5127 159.281C74.4432 159.213 74.3881 159.132 74.3504 159.043C74.3128 158.954 74.2935 158.858 74.2935 158.761C74.2935 158.565 74.3722 158.377 74.5122 158.239C74.6523 158.1 74.8423 158.022 75.0404 158.022H104.089C104.188 158.022 104.285 158.042 104.375 158.079C104.466 158.116 104.548 158.17 104.618 158.239C104.687 158.307 104.742 158.389 104.78 158.479C104.817 158.568 104.836 158.664 104.836 158.761C104.836 158.858 104.817 158.954 104.779 159.043C104.742 159.132 104.687 159.213 104.617 159.281C104.548 159.35 104.465 159.403 104.375 159.44C104.284 159.476 104.187 159.494 104.089 159.493V159.493Z" fill="#263238"/>
<path opacity="0.4" d="M104.089 159.493H75.0404C74.9427 159.494 74.8457 159.476 74.7551 159.44C74.6645 159.403 74.5821 159.35 74.5127 159.281C74.4432 159.213 74.3881 159.132 74.3504 159.043C74.3128 158.954 74.2935 158.858 74.2935 158.761C74.2935 158.565 74.3722 158.377 74.5122 158.239C74.6523 158.1 74.8423 158.022 75.0404 158.022H104.089C104.188 158.022 104.285 158.042 104.375 158.079C104.466 158.116 104.548 158.17 104.618 158.239C104.687 158.307 104.742 158.389 104.78 158.479C104.817 158.568 104.836 158.664 104.836 158.761C104.836 158.858 104.817 158.954 104.779 159.043C104.742 159.132 104.687 159.213 104.617 159.281C104.548 159.35 104.465 159.403 104.375 159.44C104.284 159.476 104.187 159.494 104.089 159.493V159.493Z" fill="white"/>
<path d="M99.3795 162.442H75.0475C74.9494 162.442 74.8523 162.423 74.7617 162.386C74.671 162.349 74.5887 162.295 74.5193 162.226C74.45 162.157 74.3949 162.076 74.3574 161.986C74.3199 161.897 74.3005 161.8 74.3005 161.703C74.3005 161.607 74.3199 161.511 74.3575 161.422C74.3951 161.332 74.4503 161.251 74.5197 161.183C74.5892 161.115 74.6716 161.061 74.7622 161.025C74.8528 160.989 74.9497 160.97 75.0475 160.971H99.3795C99.5758 160.971 99.764 161.048 99.9028 161.186C100.042 161.323 100.12 161.509 100.12 161.703V161.703C100.12 161.8 100.102 161.896 100.065 161.986C100.028 162.075 99.9741 162.157 99.9053 162.225C99.8364 162.294 99.7545 162.349 99.6643 162.386C99.5741 162.423 99.4773 162.442 99.3795 162.442V162.442Z" fill="#263238"/>
<path opacity="0.4" d="M99.3795 162.442H75.0475C74.9494 162.442 74.8523 162.423 74.7617 162.386C74.671 162.349 74.5887 162.295 74.5193 162.226C74.45 162.157 74.3949 162.076 74.3574 161.986C74.3199 161.897 74.3005 161.8 74.3005 161.703C74.3005 161.607 74.3199 161.511 74.3575 161.422C74.3951 161.332 74.4503 161.251 74.5197 161.183C74.5892 161.115 74.6716 161.061 74.7622 161.025C74.8528 160.989 74.9497 160.97 75.0475 160.971H99.3795C99.5758 160.971 99.764 161.048 99.9028 161.186C100.042 161.323 100.12 161.509 100.12 161.703V161.703C100.12 161.8 100.102 161.896 100.065 161.986C100.028 162.075 99.9741 162.157 99.9053 162.225C99.8364 162.294 99.7545 162.349 99.6643 162.386C99.5741 162.423 99.4773 162.442 99.3795 162.442V162.442Z" fill="white"/>
<path d="M100.915 165.384H75.0475C74.9497 165.385 74.8528 165.367 74.7622 165.33C74.6716 165.294 74.5892 165.24 74.5197 165.172C74.4503 165.104 74.3951 165.023 74.3575 164.934C74.3199 164.845 74.3005 164.749 74.3005 164.652V164.652C74.3005 164.555 74.3199 164.459 74.3574 164.369C74.3949 164.28 74.45 164.198 74.5193 164.13C74.5887 164.061 74.671 164.007 74.7617 163.969C74.8523 163.932 74.9494 163.913 75.0475 163.913H100.915C101.013 163.913 101.11 163.932 101.2 163.97C101.29 164.007 101.372 164.061 101.441 164.13C101.51 164.199 101.564 164.28 101.601 164.37C101.637 164.459 101.656 164.555 101.655 164.652V164.652C101.655 164.846 101.577 165.032 101.438 165.17C101.299 165.307 101.111 165.384 100.915 165.384V165.384Z" fill="#263238"/>
<path opacity="0.4" d="M100.915 165.384H75.0475C74.9497 165.385 74.8528 165.367 74.7622 165.33C74.6716 165.294 74.5892 165.24 74.5197 165.172C74.4503 165.104 74.3951 165.023 74.3575 164.934C74.3199 164.845 74.3005 164.749 74.3005 164.652V164.652C74.3005 164.555 74.3199 164.459 74.3574 164.369C74.3949 164.28 74.45 164.198 74.5193 164.13C74.5887 164.061 74.671 164.007 74.7617 163.969C74.8523 163.932 74.9494 163.913 75.0475 163.913H100.915C101.013 163.913 101.11 163.932 101.2 163.97C101.29 164.007 101.372 164.061 101.441 164.13C101.51 164.199 101.564 164.28 101.601 164.37C101.637 164.459 101.656 164.555 101.655 164.652V164.652C101.655 164.846 101.577 165.032 101.438 165.17C101.299 165.307 101.111 165.384 100.915 165.384V165.384Z" fill="white"/>
<path d="M85.5811 84.4456C85.3175 84.2102 84.9725 84.0841 84.6176 84.0934C84.2626 84.1026 83.9248 84.2466 83.6742 84.4954C83.4235 84.7442 83.2792 85.0788 83.2711 85.43C83.263 85.7812 83.3917 86.122 83.6306 86.3819C83.8592 86.6063 84.1597 86.7448 84.4804 86.7735C84.8011 86.8022 85.1218 86.7194 85.3874 86.5392C85.3942 86.6101 85.4233 86.677 85.4704 86.7308L86.4041 87.6476C86.4345 87.6777 86.4707 87.7016 86.5104 87.7179C86.5502 87.7342 86.5928 87.7425 86.6358 87.7425C86.6789 87.7425 86.7215 87.7342 86.7612 87.7179C86.801 87.7016 86.8371 87.6777 86.8675 87.6476C86.898 87.6175 86.9221 87.5818 86.9386 87.5425C86.955 87.5031 86.9635 87.461 86.9635 87.4184C86.9635 87.3758 86.955 87.3337 86.9386 87.2944C86.9221 87.255 86.898 87.2193 86.8675 87.1892L85.9407 86.2656C85.8864 86.2189 85.8187 86.1902 85.7471 86.1835C85.9283 85.92 86.0109 85.6022 85.9806 85.285C85.9503 84.9677 85.809 84.6709 85.5811 84.4456ZM85.3044 86.1014C85.1674 86.238 84.9924 86.3313 84.8017 86.3695C84.6109 86.4076 84.413 86.3888 84.2331 86.3155C84.0532 86.2422 83.8993 86.1177 83.7911 85.9578C83.6828 85.7978 83.625 85.6097 83.625 85.4172C83.625 85.2247 83.6828 85.0365 83.7911 84.8766C83.8993 84.7167 84.0532 84.5921 84.2331 84.5188C84.413 84.4455 84.6109 84.4268 84.8017 84.4649C84.9924 84.503 85.1674 84.5963 85.3044 84.733C85.4852 84.9158 85.5865 85.1614 85.5865 85.4172C85.5865 85.6729 85.4852 85.9185 85.3044 86.1014V86.1014Z" fill="url(#paint16_linear_2297_395)"/>
<path opacity="0.2" d="M85.5811 84.4456C85.3175 84.2102 84.9725 84.0841 84.6176 84.0934C84.2626 84.1026 83.9248 84.2466 83.6742 84.4954C83.4235 84.7442 83.2792 85.0788 83.2711 85.43C83.263 85.7812 83.3917 86.122 83.6306 86.3819C83.8592 86.6063 84.1597 86.7448 84.4804 86.7735C84.8011 86.8022 85.1218 86.7194 85.3874 86.5392C85.3942 86.6101 85.4233 86.677 85.4704 86.7308L86.4041 87.6476C86.4345 87.6777 86.4707 87.7016 86.5104 87.7179C86.5502 87.7342 86.5928 87.7425 86.6358 87.7425C86.6789 87.7425 86.7215 87.7342 86.7612 87.7179C86.801 87.7016 86.8371 87.6777 86.8675 87.6476C86.898 87.6175 86.9221 87.5818 86.9386 87.5425C86.955 87.5031 86.9635 87.461 86.9635 87.4184C86.9635 87.3758 86.955 87.3337 86.9386 87.2944C86.9221 87.255 86.898 87.2193 86.8675 87.1892L85.9407 86.2656C85.8864 86.2189 85.8187 86.1902 85.7471 86.1835C85.9283 85.92 86.0109 85.6022 85.9806 85.285C85.9503 84.9677 85.809 84.6709 85.5811 84.4456ZM85.3044 86.1014C85.1674 86.238 84.9924 86.3313 84.8017 86.3695C84.6109 86.4076 84.413 86.3888 84.2331 86.3155C84.0532 86.2422 83.8993 86.1177 83.7911 85.9578C83.6828 85.7978 83.625 85.6097 83.625 85.4172C83.625 85.2247 83.6828 85.0365 83.7911 84.8766C83.8993 84.7167 84.0532 84.5921 84.2331 84.5188C84.413 84.4455 84.6109 84.4268 84.8017 84.4649C84.9924 84.503 85.1674 84.5963 85.3044 84.733C85.4852 84.9158 85.5865 85.1614 85.5865 85.4172C85.5865 85.6729 85.4852 85.9185 85.3044 86.1014V86.1014Z" fill="black"/>
<path d="M105.791 57.6667H64.41C61.7895 57.6667 59.6653 59.7681 59.6653 62.3602V69.5647C59.6653 72.1568 61.7895 74.2581 64.41 74.2581H105.791C108.411 74.2581 110.536 72.1568 110.536 69.5647V62.3602C110.536 59.7681 108.411 57.6667 105.791 57.6667Z" fill="url(#paint17_linear_2297_395)"/>
<path opacity="0.7" d="M105.791 57.6667H64.41C61.7895 57.6667 59.6653 59.7681 59.6653 62.3602V69.5647C59.6653 72.1568 61.7895 74.2581 64.41 74.2581H105.791C108.411 74.2581 110.536 72.1568 110.536 69.5647V62.3602C110.536 59.7681 108.411 57.6667 105.791 57.6667Z" fill="white"/>
<path opacity="0.8" d="M86.6394 61.3682C86.052 60.7862 85.3093 60.3817 84.498 60.202C83.6868 60.0223 82.8405 60.0747 82.0583 60.3533C81.2761 60.6318 80.5902 61.1249 80.0809 61.7749C79.5716 62.4249 79.2599 63.2048 79.1822 64.0236C79.1046 64.8424 79.2642 65.6662 79.6424 66.3985C80.0207 67.1308 80.6018 67.7415 81.318 68.1591C82.0342 68.5767 82.8558 68.784 83.6867 68.7566C84.5176 68.7293 85.3235 68.4685 86.01 68.0048C86.032 68.2283 86.1294 68.438 86.2867 68.6L89.24 71.5214C89.4367 71.709 89.6999 71.8129 89.9732 71.8107C90.2464 71.8086 90.5079 71.7006 90.7016 71.5099C90.8952 71.3192 91.0056 71.061 91.0091 70.7907C91.0126 70.5205 90.9088 70.2596 90.7201 70.0641L87.7668 67.1427C87.6019 66.9837 87.3873 66.8848 87.1582 66.8622C87.7322 66.03 87.9945 65.0257 87.8998 64.0227C87.8051 63.0196 87.3593 62.0808 86.6394 61.3682V61.3682ZM85.7818 66.6022C85.3467 67.0331 84.7921 67.3268 84.1882 67.4459C83.5844 67.565 82.9584 67.5042 82.3895 67.2713C81.8205 67.0384 81.3342 66.6438 80.992 66.1374C80.6499 65.631 80.4672 65.0356 80.4672 64.4265C80.4672 63.8174 80.6499 63.222 80.992 62.7156C81.3342 62.2092 81.8205 61.8146 82.3895 61.5817C82.9584 61.3487 83.5844 61.288 84.1882 61.4071C84.7921 61.5262 85.3467 61.8198 85.7818 62.2508C86.0712 62.5362 86.3008 62.8753 86.4575 63.2486C86.6142 63.622 86.6949 64.0222 86.6949 64.4265C86.6949 64.8307 86.6142 65.231 86.4575 65.6044C86.3008 65.9777 86.0712 66.3168 85.7818 66.6022Z" fill="white"/>
<defs>
<linearGradient id="paint0_linear_2297_395" x1="125.579" y1="74.4902" x2="125.579" y2="77.3091" gradientUnits="userSpaceOnUse">
<stop stop-color="#FD0091"/>
<stop offset="0.0001" stop-color="#FD0091"/>
<stop offset="1" stop-color="#FF7732"/>
</linearGradient>
<linearGradient id="paint1_linear_2297_395" x1="125.586" y1="80.5869" x2="125.586" y2="170.543" gradientUnits="userSpaceOnUse">
<stop stop-color="#FD0091"/>
<stop offset="0.0001" stop-color="#FD0091"/>
<stop offset="1" stop-color="#FF7732"/>
</linearGradient>
<linearGradient id="paint2_linear_2297_395" x1="125.586" y1="80.5869" x2="125.586" y2="91.4175" gradientUnits="userSpaceOnUse">
<stop stop-color="#FD0091"/>
<stop offset="0.0001" stop-color="#FD0091"/>
<stop offset="1" stop-color="#FF7732"/>
</linearGradient>
<linearGradient id="paint3_linear_2297_395" x1="125.506" y1="101.769" x2="125.506" y2="153.049" gradientUnits="userSpaceOnUse">
<stop stop-color="#FD0091"/>
<stop offset="0.0001" stop-color="#FD0091"/>
<stop offset="1" stop-color="#FF7732"/>
</linearGradient>
<linearGradient id="paint4_linear_2297_395" x1="96.8065" y1="123.899" x2="96.8065" y2="153.048" gradientUnits="userSpaceOnUse">
<stop stop-color="#FD0091"/>
<stop offset="0.0001" stop-color="#FD0091"/>
<stop offset="1" stop-color="#FF7732"/>
</linearGradient>
<linearGradient id="paint5_linear_2297_395" x1="111.666" y1="123.906" x2="111.666" y2="153.048" gradientUnits="userSpaceOnUse">
<stop stop-color="#FD0091"/>
<stop offset="0.0001" stop-color="#FD0091"/>
<stop offset="1" stop-color="#FF7732"/>
</linearGradient>
<linearGradient id="paint6_linear_2297_395" x1="156.343" y1="115.269" x2="156.343" y2="153.048" gradientUnits="userSpaceOnUse">
<stop stop-color="#FD0091"/>
<stop offset="0.0001" stop-color="#FD0091"/>
<stop offset="1" stop-color="#FF7732"/>
</linearGradient>
<linearGradient id="paint7_linear_2297_395" x1="175.64" y1="115.261" x2="175.64" y2="153.048" gradientUnits="userSpaceOnUse">
<stop stop-color="#FD0091"/>
<stop offset="0.0001" stop-color="#FD0091"/>
<stop offset="1" stop-color="#FF7732"/>
</linearGradient>
<linearGradient id="paint8_linear_2297_395" x1="142.209" y1="94.6399" x2="142.209" y2="98.0745" gradientUnits="userSpaceOnUse">
<stop stop-color="#FD0091"/>
<stop offset="0.0001" stop-color="#FD0091"/>
<stop offset="1" stop-color="#FF7732"/>
</linearGradient>
<linearGradient id="paint9_linear_2297_395" x1="90.3052" y1="128.993" x2="90.3052" y2="170.536" gradientUnits="userSpaceOnUse">
<stop stop-color="#FD0091"/>
<stop offset="0.0001" stop-color="#FD0091"/>
<stop offset="1" stop-color="#FF7732"/>
</linearGradient>
<linearGradient id="paint10_linear_2297_395" x1="90.3086" y1="133.679" x2="90.3086" y2="154.499" gradientUnits="userSpaceOnUse">
<stop stop-color="#FD0091"/>
<stop offset="0.0001" stop-color="#FD0091"/>
<stop offset="1" stop-color="#FF7732"/>
</linearGradient>
<linearGradient id="paint11_linear_2297_395" x1="85.2491" y1="145.037" x2="85.2491" y2="154.506" gradientUnits="userSpaceOnUse">
<stop stop-color="#FD0091"/>
<stop offset="0.0001" stop-color="#FD0091"/>
<stop offset="1" stop-color="#FF7732"/>
</linearGradient>
<linearGradient id="paint12_linear_2297_395" x1="96.4919" y1="138.469" x2="96.4919" y2="154.506" gradientUnits="userSpaceOnUse">
<stop stop-color="#FD0091"/>
<stop offset="0.0001" stop-color="#FD0091"/>
<stop offset="1" stop-color="#FF7732"/>
</linearGradient>
<linearGradient id="paint13_linear_2297_395" x1="175.066" y1="106.661" x2="175.066" y2="113.523" gradientUnits="userSpaceOnUse">
<stop stop-color="#FD0091"/>
<stop offset="0.0001" stop-color="#FD0091"/>
<stop offset="1" stop-color="#FF7732"/>
</linearGradient>
<linearGradient id="paint14_linear_2297_395" x1="89.7344" y1="119.941" x2="89.7344" y2="125.743" gradientUnits="userSpaceOnUse">
<stop stop-color="#FD0091"/>
<stop offset="0.0001" stop-color="#FD0091"/>
<stop offset="1" stop-color="#FF7732"/>
</linearGradient>
<linearGradient id="paint15_linear_2297_395" x1="136.887" y1="122.288" x2="136.887" y2="130.861" gradientUnits="userSpaceOnUse">
<stop stop-color="#FD0091"/>
<stop offset="0.0001" stop-color="#FD0091"/>
<stop offset="1" stop-color="#FF7732"/>
</linearGradient>
<linearGradient id="paint16_linear_2297_395" x1="85.1171" y1="84.0929" x2="85.1171" y2="87.7425" gradientUnits="userSpaceOnUse">
<stop stop-color="#FD0091"/>
<stop offset="0.0001" stop-color="#FD0091"/>
<stop offset="1" stop-color="#FF7732"/>
</linearGradient>
<linearGradient id="paint17_linear_2297_395" x1="85.1004" y1="57.6667" x2="85.1004" y2="74.2581" gradientUnits="userSpaceOnUse">
<stop stop-color="#FD0091"/>
<stop offset="0.0001" stop-color="#FD0091"/>
<stop offset="1" stop-color="#FF7732"/>
</linearGradient>
</defs>
</svg>
