<svg width="303" height="225" viewBox="0 0 303 225" fill="none" xmlns="http://www.w3.org/2000/svg">
<g clip-path="url(#clip0_1794_847)">
<path d="M150.78 9.71358L149.679 10.9204C140.344 21.1631 136.701 36.2105 140.637 50.0381C141.145 51.8166 141.769 53.5531 142.505 55.2338C147.829 67.3503 159.042 76.1674 171.259 77.8385C178.442 78.8224 186.184 77.5991 192.556 81.3654C200.844 86.2705 203.595 97.565 205.536 107.622C207.478 117.678 210.265 128.971 218.573 133.839C223.766 136.889 230.147 136.616 235.805 134.804C250.756 129.94 261.706 114.743 265.115 98.1306C268.525 81.5177 265.236 63.9057 258.633 48.4291C249.404 26.7748 233.169 8.13232 212.673 -0.266355C192.176 -8.66503 167.456 -5.65395 150.78 9.71358Z" fill="#000032" fill-opacity="0.2"/>
<path d="M64.4308 111.468C69.8115 111.468 74.1735 106.554 74.1735 100.493C74.1735 94.4312 69.8115 89.5172 64.4308 89.5172C59.05 89.5172 54.688 94.4312 54.688 100.493C54.688 106.554 59.05 111.468 64.4308 111.468Z" fill="#000032" fill-opacity="0.2"/>
<path d="M70 86.4583C81.598 86.4583 91 75.7318 91 62.5C91 49.2681 81.598 38.5416 70 38.5416C58.402 38.5416 49 49.2681 49 62.5C49 75.7318 58.402 86.4583 70 86.4583Z" fill="#000032" fill-opacity="0.2"/>
<path d="M294.516 202.082C294.516 202.149 232.91 202.199 156.934 202.199C80.9576 202.199 19.3435 202.149 19.3435 202.082C19.3435 202.014 80.9333 201.965 156.934 201.965C232.934 201.965 294.516 202.019 294.516 202.082Z" fill="#263238"/>
<path d="M55.6112 101.469H39.418C39.1508 101.469 38.8862 101.41 38.6395 101.296C38.3928 101.181 38.1688 101.014 37.9805 100.802C37.7922 100.591 37.6433 100.341 37.5423 100.065C37.4413 99.7895 37.3903 99.4944 37.3921 99.1968V74.2303C37.3921 73.6318 37.6056 73.0579 37.9855 72.6347C38.3654 72.2115 38.8807 71.9738 39.418 71.9738H49.6875L57.6371 81.1014V99.1968C57.6389 99.4944 57.5879 99.7895 57.4869 100.065C57.3859 100.341 57.237 100.591 57.0487 100.802C56.8604 101.014 56.6364 101.181 56.3897 101.296C56.143 101.41 55.8784 101.469 55.6112 101.469V101.469Z" fill="url(#paint0_linear_1794_847)"/>
<g opacity="0.2">
<path d="M37.3921 92.505H57.637V97.934C57.637 98.8643 57.3053 99.7565 56.7147 100.414C56.1241 101.072 55.3232 101.442 54.488 101.442H40.5936C39.7463 101.442 38.9336 101.068 38.3335 100.401C37.7334 99.735 37.3949 98.831 37.3921 97.8872V92.505Z" fill="black"/>
</g>
<g opacity="0.2">
<path d="M49.6873 71.9738V78.989C49.6873 79.5461 49.886 80.0804 50.2396 80.4744C50.5933 80.8683 51.073 81.0897 51.5732 81.0897H57.6369L49.6873 71.9738Z" fill="white"/>
</g>
<g opacity="0.2">
<path d="M49.7716 79.6165C49.7716 79.6165 49.6911 81.3196 51.4336 81.8808C51.4988 81.9032 51.5655 81.9202 51.633 81.9315C52.4238 82.0874 57.6372 83.1241 57.6372 82.9877V81.1014H51.5735C51.5735 81.1014 50.0585 81.0429 49.7716 79.6165Z" fill="black"/>
</g>
<path d="M43.1899 96.4023C43.2213 96.0309 43.3476 95.6774 43.554 95.3836C43.7604 95.0899 44.0382 94.8683 44.3543 94.7452C44.6704 94.6221 45.0116 94.6026 45.3374 94.6891C45.6632 94.7756 45.9598 94.9644 46.192 95.2331L45.7267 95.7125C45.6296 95.5832 45.508 95.4795 45.3707 95.4087C45.2334 95.338 45.0837 95.302 44.9324 95.3033C44.6652 95.3033 44.4089 95.4215 44.2199 95.632C44.0309 95.8425 43.9247 96.128 43.9247 96.4257C43.9247 96.7234 44.0309 97.0089 44.2199 97.2194C44.4089 97.4299 44.6652 97.5481 44.9324 97.5481C45.0845 97.5499 45.2349 97.5133 45.3725 97.4411C45.51 97.3688 45.6311 97.2629 45.7267 97.1311L46.192 97.6144C45.9607 97.8934 45.6605 98.0901 45.3292 98.1799C44.9979 98.2697 44.6501 98.2486 44.3295 98.1192C44.0089 97.9897 43.7298 97.7578 43.5271 97.4523C43.3243 97.1469 43.2071 96.7817 43.1899 96.4023Z" fill="#FAFAFA"/>
<path d="M46.4089 97.8131L46.6539 97.2013C46.9618 97.4402 47.3282 97.568 47.7035 97.5676C48.1374 97.5676 48.3124 97.4078 48.3124 97.1779C48.3124 96.5192 46.4824 96.9713 46.4824 95.6696C46.4824 95.0733 46.9128 94.5783 47.8085 94.5783C48.1906 94.5699 48.5677 94.6762 48.9002 94.8862L48.6763 95.502C48.4114 95.33 48.1115 95.2361 47.805 95.2292C47.3711 95.2292 47.2067 95.4085 47.2067 95.6189C47.2067 96.262 49.0367 95.8177 49.0367 97.1038C49.0367 97.6923 48.5993 98.1912 47.7 98.1912C47.2451 98.2156 46.7943 98.0836 46.4089 97.8131Z" fill="#FAFAFA"/>
<path d="M49.2886 97.8132L49.537 97.2013C49.845 97.4403 50.2114 97.5681 50.5867 97.5677C51.0206 97.5677 51.1955 97.4079 51.1955 97.178C51.1955 96.5193 49.3621 96.9714 49.3621 95.6697C49.3621 95.0734 49.7959 94.5784 50.6917 94.5784C51.0737 94.5704 51.4507 94.6767 51.7833 94.8863L51.5594 95.5021C51.2935 95.3296 50.9923 95.2357 50.6847 95.2293C50.2543 95.2293 50.0863 95.4086 50.0863 95.619C50.0863 96.2621 51.9198 95.8178 51.9198 97.1039C51.9198 97.6924 51.4824 98.1913 50.5832 98.1913C50.1272 98.215 49.6755 98.0831 49.2886 97.8132V97.8132Z" fill="#FAFAFA"/>
<path d="M44.215 85.0572C44.5649 85.1702 44.7014 85.4002 44.7014 85.9575V87.2475C44.6941 87.3265 44.7028 87.4062 44.7269 87.4809C44.751 87.5556 44.7898 87.6233 44.8405 87.679C44.8912 87.7348 44.9525 87.7771 45.0199 87.8029C45.0873 87.8288 45.159 87.8374 45.2297 87.8282H45.3592V88.8104H44.9393C44.0366 88.8104 43.5712 88.2959 43.5712 87.3683V85.9107C43.5712 85.6535 43.4488 85.521 43.2563 85.521H43.0149V84.535H43.2563C43.4488 84.535 43.5712 84.4142 43.5712 84.1452V82.6876C43.5712 81.7601 44.0366 81.2456 44.9393 81.2456H45.3592V82.2277H45.2297C45.1577 82.2181 45.0846 82.227 45.016 82.2537C44.9475 82.2803 44.8854 82.3241 44.8344 82.3817C44.7834 82.4392 44.7449 82.509 44.7219 82.5857C44.6988 82.6624 44.6918 82.7439 44.7014 82.824V84.1141C44.7014 84.7104 44.5509 84.9442 44.215 85.0572Z" fill="#FAFAFA"/>
<path d="M52.0142 84.5622V85.5482H51.7763C51.7307 85.5438 51.6848 85.5512 51.6421 85.5697C51.5995 85.5883 51.5613 85.6176 51.5305 85.6553C51.4996 85.693 51.4771 85.7382 51.4645 85.7872C51.4519 85.8362 51.4496 85.8878 51.4579 85.938V87.3956C51.4579 88.3232 50.996 88.8376 50.0898 88.8376H49.6699V87.8282H49.8029C49.8742 87.8386 49.9467 87.831 50.0149 87.8057C50.0832 87.7805 50.1454 87.7383 50.1969 87.6824C50.2485 87.6265 50.288 87.5584 50.3124 87.483C50.3369 87.4077 50.3457 87.3272 50.3382 87.2475V85.9575C50.3382 85.4001 50.4887 85.178 50.8211 85.0572C50.4712 84.9442 50.3382 84.7103 50.3382 84.153V82.863C50.3478 82.7828 50.3408 82.7013 50.3178 82.6246C50.2947 82.548 50.2562 82.4782 50.2052 82.4206C50.1542 82.3631 50.0921 82.3193 50.0236 82.2926C49.9551 82.2659 49.882 82.257 49.8099 82.2667H49.6769V81.2845H50.0968C51.003 81.2845 51.4649 81.799 51.4649 82.7266V84.1842C51.4566 84.2343 51.4589 84.2859 51.4715 84.335C51.4841 84.384 51.5066 84.4291 51.5375 84.4669C51.5683 84.5046 51.6065 84.5339 51.6491 84.5524C51.6918 84.571 51.7377 84.5783 51.7833 84.5739L52.0142 84.5622Z" fill="#FAFAFA"/>
<path d="M68.2634 107.233C68.1481 107.257 68.0307 107.266 67.9135 107.26L66.9233 107.28L63.3369 107.315H63.2844V107.229C63.2844 105.019 63.2844 102.272 63.2844 99.2942C63.2844 97.4429 63.2844 95.6774 63.2844 94.0678C63.2844 93.2689 63.2844 92.5089 63.2844 91.7879C63.2972 91.6275 63.2759 91.466 63.2225 91.3164C63.169 91.1668 63.0847 91.0333 62.9765 90.9265C62.8729 90.8298 62.7529 90.7573 62.6237 90.7131C62.4945 90.6689 62.3587 90.654 62.2242 90.6693L59.642 90.6381L58.9422 90.6187C58.8608 90.6296 58.7786 90.6296 58.6973 90.6187C58.7779 90.6013 58.8601 90.5947 58.9422 90.5992H59.642L62.2242 90.568C62.3748 90.5492 62.5272 90.5639 62.6726 90.6114C62.818 90.659 62.9534 90.7383 63.071 90.8447C63.1923 90.9682 63.2868 91.1208 63.3474 91.2909C63.408 91.461 63.4331 91.6443 63.4209 91.8268C63.4209 92.5439 63.4209 93.3078 63.4209 94.1068C63.4209 95.7164 63.4209 97.4819 63.4209 99.3331C63.4209 102.311 63.4209 105.058 63.4209 107.268L63.3474 107.186L66.9338 107.221L67.924 107.245C68.0367 107.231 68.1502 107.227 68.2634 107.233V107.233Z" fill="#263238"/>
<path d="M58.4067 123.621C58.4717 123.611 58.5377 123.611 58.6027 123.621L59.1625 123.602L61.2269 123.571C61.6608 123.54 62.1611 123.653 62.5845 123.368C62.8093 123.222 62.9914 123.007 63.1088 122.748C63.2261 122.49 63.2737 122.199 63.2458 121.911C63.2458 120.624 63.2458 119.214 63.2458 117.736C63.2458 114.786 63.2668 112.117 63.2738 110.152C63.2738 109.201 63.2948 108.422 63.3018 107.853C63.3018 107.599 63.3018 107.393 63.3018 107.229C63.2965 107.157 63.2965 107.084 63.3018 107.011C63.3178 107.082 63.3248 107.156 63.3228 107.229C63.3228 107.393 63.3228 107.599 63.3228 107.853C63.3228 108.422 63.3228 109.201 63.3508 110.152C63.3508 112.101 63.3683 114.786 63.3753 117.736C63.3753 119.214 63.3753 120.624 63.3753 121.911C63.3815 122.075 63.3721 122.239 63.3473 122.402C63.3199 122.561 63.2703 122.715 63.2003 122.858C63.0733 123.125 62.8818 123.347 62.6475 123.499C62.4132 123.651 62.1453 123.727 61.8742 123.719H61.1744L59.11 123.688L58.5502 123.668C58.5009 123.659 58.4528 123.643 58.4067 123.621V123.621Z" fill="#263238"/>
<path d="M69.6908 107.233C69.6908 107.387 69.6498 107.538 69.5729 107.666C69.496 107.794 69.3867 107.894 69.2588 107.953C69.131 108.012 68.9903 108.028 68.8545 107.998C68.7188 107.967 68.5941 107.893 68.4962 107.784C68.3984 107.675 68.3317 107.536 68.3047 107.385C68.2777 107.234 68.2916 107.077 68.3445 106.935C68.3975 106.792 68.4872 106.671 68.6023 106.585C68.7173 106.499 68.8526 106.454 68.9911 106.454C69.1766 106.454 69.3546 106.536 69.4859 106.682C69.6171 106.828 69.6908 107.026 69.6908 107.233Z" fill="#263238"/>
<path d="M55.5586 137.897H39.8762C39.3556 137.897 38.8564 137.667 38.4883 137.257C38.1201 136.847 37.9133 136.291 37.9133 135.711V111.547C37.9133 110.968 38.1201 110.412 38.4883 110.001C38.8564 109.591 39.3556 109.361 39.8762 109.361H49.8203L57.518 118.2V135.738C57.5115 136.313 57.3024 136.861 56.9357 137.265C56.569 137.669 56.0743 137.897 55.5586 137.897Z" fill="url(#paint1_linear_1794_847)"/>
<g opacity="0.2">
<path d="M37.9133 129.234H57.5075V134.69C57.5075 135.539 57.2048 136.352 56.6661 136.952C56.1274 137.553 55.3967 137.89 54.6348 137.89H40.744C39.9932 137.89 39.2733 137.557 38.7424 136.966C38.2116 136.375 37.9133 135.573 37.9133 134.737V129.234V129.234Z" fill="black"/>
</g>
<path d="M44.8623 134.822L45.3557 134.164C45.4294 134.299 45.5317 134.413 45.6536 134.494C45.7755 134.576 45.9135 134.623 46.0554 134.631C46.4053 134.631 46.6013 134.394 46.6013 133.926V131.892H45.2612V131.112H47.4935V133.883C47.4935 134.939 47.0142 135.462 46.1114 135.462C45.8731 135.469 45.6364 135.416 45.4198 135.305C45.2031 135.194 45.0124 135.029 44.8623 134.822V134.822Z" fill="#FAFAFA"/>
<path d="M48.022 135.064L48.3089 134.382C48.6184 134.59 48.9727 134.7 49.3341 134.702C49.7295 134.702 49.8764 134.585 49.8764 134.402C49.8764 133.864 48.0955 134.402 48.0955 133.1C48.0955 132.476 48.5993 132.036 49.46 132.036C49.8534 132.028 50.2425 132.127 50.5937 132.324L50.3103 133.002C50.0512 132.839 49.7579 132.754 49.46 132.757C49.0752 132.757 48.9107 132.893 48.9107 133.065C48.9107 133.626 50.6917 133.065 50.6917 134.374C50.6917 134.986 50.1843 135.419 49.2921 135.419C48.8481 135.427 48.4101 135.304 48.022 135.064V135.064Z" fill="#FAFAFA"/>
<path d="M42.0667 124.685L42.6825 123.883C42.8461 124.176 43.0737 124.419 43.344 124.589C43.6143 124.758 43.9187 124.849 44.229 124.853C45.0653 124.853 45.5026 124.284 45.5026 123.177V118.547H42.8189V117.518H46.5488V123.13C46.5488 124.97 45.7441 125.878 44.229 125.878C43.8087 125.89 43.3921 125.788 43.0153 125.58C42.6385 125.372 42.3129 125.065 42.0667 124.685Z" fill="#FAFAFA"/>
<path d="M47.854 125.122L48.2809 124.226C48.8668 124.651 49.5513 124.877 50.2508 124.876C51.1955 124.876 51.5874 124.557 51.5874 124.027C51.5874 122.62 48.0359 123.836 48.0359 121.345C48.0359 120.223 48.9352 119.467 50.3768 119.467C51.0967 119.451 51.8077 119.647 52.4376 120.036L52.0038 120.932C51.5177 120.594 50.9532 120.422 50.3803 120.437C49.4915 120.437 49.0576 120.804 49.0576 121.299C49.0576 122.776 52.6196 121.572 52.6196 124.003C52.6196 125.138 51.6854 125.855 50.1913 125.855C49.3632 125.883 48.5472 125.628 47.854 125.122V125.122Z" fill="#FAFAFA"/>
<g opacity="0.3">
<path d="M49.8203 109.345V116.15C49.8203 116.69 50.0127 117.207 50.3553 117.589C50.6978 117.97 51.1624 118.185 51.6468 118.185H57.5215L49.8203 109.345Z" fill="white"/>
</g>
<g opacity="0.2">
<path d="M49.9009 116.747C49.9044 117.262 50.066 117.76 50.3587 118.159C50.6514 118.559 51.0578 118.834 51.5104 118.941L51.7028 118.991C52.4691 119.143 57.5216 120.161 57.5216 120.013V118.185H51.6469C51.6469 118.185 50.1808 118.13 49.9009 116.747Z" fill="black"/>
</g>
<path d="M143.792 173.456C194.064 173.456 234.817 170.118 234.817 166C234.817 161.881 194.064 158.543 143.792 158.543C93.5194 158.543 52.7659 161.881 52.7659 166C52.7659 170.118 93.5194 173.456 143.792 173.456Z" fill="#000032" fill-opacity="0.2"/>
<path d="M69.1144 51.5897H216.773C217.409 51.5897 218.019 51.8712 218.469 52.3723C218.919 52.8735 219.172 53.5531 219.172 54.2618V158.377C219.172 159.136 219.038 159.887 218.777 160.588C218.517 161.289 218.135 161.925 217.653 162.462C217.171 162.998 216.6 163.424 215.971 163.714C215.341 164.004 214.667 164.154 213.986 164.154H71.5418C70.1664 164.154 68.8474 163.545 67.8748 162.462C66.9023 161.379 66.356 159.909 66.356 158.377V54.6622C66.356 53.8473 66.6466 53.0658 67.1639 52.4896C67.6812 51.9134 68.3828 51.5897 69.1144 51.5897Z" fill="#92989B"/>
<path d="M59.9668 155.828H225.532V160.237C225.532 160.951 225.406 161.658 225.16 162.318C224.915 162.978 224.555 163.578 224.102 164.083C223.648 164.588 223.11 164.989 222.517 165.262C221.925 165.535 221.29 165.676 220.649 165.676H64.8501C64.2088 165.676 63.5738 165.535 62.9813 165.262C62.3889 164.989 61.8505 164.588 61.3971 164.083C60.9436 163.578 60.5839 162.978 60.3385 162.318C60.0931 161.658 59.9668 160.951 59.9668 160.237V155.828V155.828Z" fill="#676F74"/>
<path d="M214.644 56.0616H70.4595V151.118H214.644V56.0616Z" fill="#E0E0E0"/>
<path d="M127.699 155.828L129.756 159.468H158.664L160.572 155.828H127.699Z" fill="#263238"/>
<path d="M210.715 61.5684H74.7378V151.118H210.715V61.5684Z" fill="#263238"/>
<path d="M85.1623 148.494C85.0914 148.494 85.0347 129.421 85.0347 105.899C85.0347 82.3779 85.0914 63.3008 85.1623 63.3008C85.2331 63.3008 85.2898 82.37 85.2898 105.899C85.2898 129.429 85.2402 148.494 85.1623 148.494Z" fill="#E0E0E0"/>
<path d="M82.4258 71.0237C82.4258 71.099 81.4363 71.1625 80.2191 71.1625C79.0018 71.1625 78.0088 71.099 78.0088 71.0237C78.0088 70.9484 78.9983 70.881 80.2191 70.881C81.4399 70.881 82.4258 70.9444 82.4258 71.0237Z" fill="#E0E0E0"/>
<path d="M82.5967 66.187C82.5967 66.2663 81.6072 66.3298 80.3864 66.3298C79.1656 66.3298 78.1797 66.2663 78.1797 66.187C78.1797 66.1077 79.1692 66.0443 80.3864 66.0443C81.6037 66.0443 82.5967 66.1077 82.5967 66.187Z" fill="#E0E0E0"/>
<path d="M82.4258 76.2331C82.4258 76.3123 81.4363 76.3758 80.2191 76.3758C79.0018 76.3758 78.0088 76.3123 78.0088 76.2331C78.0088 76.1538 78.9983 76.0903 80.2191 76.0903C81.4399 76.0903 82.4258 76.1538 82.4258 76.2331Z" fill="#E0E0E0"/>
<path d="M82.4258 81.4423C82.4258 81.5216 81.4363 81.585 80.2191 81.585C79.0018 81.585 78.0088 81.5216 78.0088 81.4423C78.0088 81.363 78.9983 81.2996 80.2191 81.2996C81.4399 81.2996 82.4258 81.363 82.4258 81.4423Z" fill="#E0E0E0"/>
<path d="M82.4258 86.6517C82.4258 86.731 81.4363 86.7944 80.2191 86.7944C79.0018 86.7944 78.0088 86.731 78.0088 86.6517C78.0088 86.5724 78.9983 86.5129 80.2191 86.5129C81.4399 86.5129 82.4258 86.5764 82.4258 86.6517Z" fill="#E0E0E0"/>
<path d="M82.4258 91.865C82.4258 91.9443 81.4363 92.0077 80.2191 92.0077C79.0018 92.0077 78.0088 91.9443 78.0088 91.865C78.0088 91.7857 78.9983 91.7223 80.2191 91.7223C81.4399 91.7223 82.4258 91.7857 82.4258 91.865Z" fill="#E0E0E0"/>
<path d="M82.4258 97.0625C82.4258 97.1418 81.4363 97.2052 80.2191 97.2052C79.0018 97.2052 78.0088 97.1418 78.0088 97.0625C78.0088 96.9832 78.9983 96.9198 80.2191 96.9198C81.4399 96.9198 82.4258 96.9951 82.4258 97.0625Z" fill="#E0E0E0"/>
<path d="M82.4258 102.284C82.4258 102.363 81.4363 102.426 80.2191 102.426C79.0018 102.426 78.0088 102.363 78.0088 102.284C78.0088 102.204 78.9983 102.145 80.2191 102.145C81.4399 102.145 82.4258 102.216 82.4258 102.284Z" fill="#E0E0E0"/>
<path d="M82.4258 107.497C82.4258 107.572 81.4363 107.636 80.2191 107.636C79.0018 107.636 78.0088 107.572 78.0088 107.497C78.0088 107.422 78.9983 107.354 80.2191 107.354C81.4399 107.354 82.4258 107.418 82.4258 107.497Z" fill="#E0E0E0"/>
<path d="M82.4258 112.706C82.4258 112.786 81.4363 112.849 80.2191 112.849C79.0018 112.849 78.0088 112.786 78.0088 112.706C78.0088 112.627 78.9983 112.564 80.2191 112.564C81.4399 112.564 82.4258 112.627 82.4258 112.706Z" fill="#E0E0E0"/>
<path d="M82.4258 117.916C82.4258 117.995 81.4363 118.059 80.2191 118.059C79.0018 118.059 78.0088 117.995 78.0088 117.916C78.0088 117.837 78.9983 117.773 80.2191 117.773C81.4399 117.773 82.4258 117.837 82.4258 117.916Z" fill="#E0E0E0"/>
<path d="M82.4258 123.129C82.4258 123.204 81.4363 123.268 80.2191 123.268C79.0018 123.268 78.0088 123.204 78.0088 123.129C78.0088 123.054 78.9983 122.986 80.2191 122.986C81.4399 122.986 82.4258 123.05 82.4258 123.129Z" fill="#E0E0E0"/>
<path d="M82.4258 128.339C82.4258 128.418 81.4363 128.481 80.2191 128.481C79.0018 128.481 78.0088 128.418 78.0088 128.339C78.0088 128.259 78.9983 128.196 80.2191 128.196C81.4399 128.196 82.4258 128.259 82.4258 128.339Z" fill="#E0E0E0"/>
<path d="M82.4258 133.536C82.4258 133.615 81.4363 133.679 80.2191 133.679C79.0018 133.679 78.0088 133.615 78.0088 133.536C78.0088 133.457 78.9983 133.393 80.2191 133.393C81.4399 133.393 82.4258 133.469 82.4258 133.536Z" fill="#E0E0E0"/>
<path d="M82.4258 138.757C82.4258 138.836 81.4363 138.9 80.2191 138.9C79.0018 138.9 78.0088 138.836 78.0088 138.757C78.0088 138.678 78.9983 138.618 80.2191 138.618C81.4399 138.618 82.4258 138.69 82.4258 138.757Z" fill="#E0E0E0"/>
<path d="M82.4258 143.97C82.4258 144.05 81.4363 144.113 80.2191 144.113C79.0018 144.113 78.0088 144.05 78.0088 143.97C78.0088 143.891 78.9983 143.828 80.2191 143.828C81.4399 143.828 82.4258 143.891 82.4258 143.97Z" fill="#E0E0E0"/>
<path d="M100.133 143.97C100.133 144.05 97.5668 144.113 94.3991 144.113C91.2313 144.113 88.6687 144.05 88.6687 143.97C88.6687 143.891 91.2349 143.828 94.3991 143.828C97.5632 143.828 100.133 143.891 100.133 143.97Z" fill="#FD0091"/>
<path d="M104.094 70.2427C104.094 70.322 101.528 70.3854 98.3638 70.3854C95.1997 70.3854 92.6299 70.322 92.6299 70.2427C92.6299 70.1634 95.1961 70.1 98.3638 70.1C101.532 70.1 104.094 70.1634 104.094 70.2427Z" fill="#FD0091"/>
<path d="M116.099 81.4423C116.099 81.5216 111.295 81.585 105.375 81.585C99.4565 81.585 94.6479 81.5216 94.6479 81.4423C94.6479 81.363 99.4494 81.2996 105.375 81.2996C111.302 81.2996 116.099 81.363 116.099 81.4423Z" fill="#FD0091"/>
<path d="M140.9 81.4423C140.9 81.5216 136.099 81.585 130.176 81.585C124.254 81.585 119.452 81.5216 119.452 81.4423C119.452 81.363 124.254 81.2996 130.176 81.2996C136.099 81.2996 140.9 81.363 140.9 81.4423Z" fill="#E0E0E0"/>
<path d="M131.433 86.6517C131.433 86.731 124.357 86.7944 115.626 86.7944C106.896 86.7944 99.8198 86.731 99.8198 86.6517C99.8198 86.5724 106.896 86.5129 115.626 86.5129C124.357 86.5129 131.433 86.5764 131.433 86.6517Z" fill="#E0E0E0"/>
<path d="M131.433 91.865C131.433 91.9443 124.357 92.0077 115.626 92.0077C106.896 92.0077 99.8198 91.9443 99.8198 91.865C99.8198 91.7857 106.896 91.7223 115.626 91.7223C124.357 91.7223 131.433 91.7857 131.433 91.865Z" fill="#FF7732"/>
<path d="M153.183 107.497C153.183 107.572 146.104 107.636 137.377 107.636C128.649 107.636 121.57 107.572 121.57 107.497C121.57 107.422 128.646 107.354 137.377 107.354C146.107 107.354 153.183 107.418 153.183 107.497Z" fill="#E0E0E0"/>
<path d="M143.794 97.0625C143.794 97.1418 136.715 97.2052 127.987 97.2052C119.26 97.2052 112.181 97.1418 112.181 97.0625C112.181 96.9832 119.257 96.9198 127.987 96.9198C136.718 96.9198 143.794 96.9951 143.794 97.0625Z" fill="#E0E0E0"/>
<path d="M182.422 97.0625C182.422 97.1418 175.346 97.2052 166.616 97.2052C157.885 97.2052 150.809 97.1418 150.809 97.0625C150.809 96.9832 157.885 96.9198 166.616 96.9198C175.346 96.9198 182.422 96.9951 182.422 97.0625Z" fill="#FD0091"/>
<path d="M168.99 86.6517C168.99 86.731 161.911 86.7944 153.183 86.7944C144.456 86.7944 137.377 86.731 137.377 86.6517C137.377 86.5724 144.452 86.5129 153.183 86.5129C161.914 86.5129 168.99 86.5764 168.99 86.6517Z" fill="#FAFAFA"/>
<path d="M190.826 107.497C190.826 107.572 183.746 107.636 175.019 107.636C166.292 107.636 159.213 107.572 159.213 107.497C159.213 107.422 166.288 107.354 175.019 107.354C183.75 107.354 190.826 107.418 190.826 107.497Z" fill="#FAFAFA"/>
<path d="M186.466 91.865C186.466 91.9443 175.475 92.0077 161.907 92.0077C148.339 92.0077 137.348 91.9443 137.348 91.865C137.348 91.7857 148.336 91.7223 161.907 91.7223C175.479 91.7223 186.466 91.7857 186.466 91.865Z" fill="#455A64"/>
<path d="M100.133 138.757C100.133 138.836 97.5668 138.9 94.3991 138.9C91.2313 138.9 88.6687 138.836 88.6687 138.757C88.6687 138.678 91.2349 138.618 94.3991 138.618C97.5632 138.618 100.133 138.69 100.133 138.757Z" fill="#FAFAFA"/>
<path d="M105.806 97.0625C105.806 97.1418 103.24 97.2052 100.072 97.2052C96.9047 97.2052 94.342 97.1418 94.342 97.0625C94.342 96.9832 96.9083 96.9198 100.072 96.9198C103.237 96.9198 105.806 96.9951 105.806 97.0625Z" fill="#FAFAFA"/>
<path d="M197.695 97.0625C197.695 97.1418 195.129 97.2052 191.965 97.2052C188.801 97.2052 186.245 97.1537 186.245 97.0625C186.245 96.9713 188.811 96.9198 191.979 96.9198C195.147 96.9198 197.695 96.9951 197.695 97.0625Z" fill="#FD0091"/>
<path d="M116.099 117.888C116.099 117.963 111.295 118.027 105.375 118.027C99.4565 118.027 94.6479 117.963 94.6479 117.888C94.6479 117.813 99.4494 117.745 105.375 117.745C111.302 117.745 116.099 117.809 116.099 117.888Z" fill="#FD0091"/>
<path d="M140.9 117.888C140.9 117.963 136.099 118.027 130.176 118.027C124.254 118.027 119.452 117.963 119.452 117.888C119.452 117.813 124.254 117.745 130.176 117.745C136.099 117.745 140.9 117.809 140.9 117.888Z" fill="#E0E0E0"/>
<path d="M131.433 123.097C131.433 123.177 124.357 123.24 115.626 123.24C106.896 123.24 99.8198 123.177 99.8198 123.097C99.8198 123.018 106.896 122.955 115.626 122.955C124.357 122.955 131.433 123.018 131.433 123.097Z" fill="#FF7732"/>
<path d="M131.433 128.307C131.433 128.386 124.357 128.449 115.626 128.449C106.896 128.449 99.8198 128.386 99.8198 128.307C99.8198 128.227 106.896 128.164 115.626 128.164C124.357 128.164 131.433 128.227 131.433 128.307Z" fill="#E0E0E0"/>
<path d="M143.794 133.536C143.794 133.615 136.715 133.679 127.987 133.679C119.26 133.679 112.181 133.615 112.181 133.536C112.181 133.457 119.257 133.397 127.987 133.397C136.718 133.397 143.794 133.441 143.794 133.536Z" fill="#E0E0E0"/>
<path d="M182.422 133.536C182.422 133.615 175.346 133.679 166.616 133.679C157.885 133.679 150.809 133.615 150.809 133.536C150.809 133.457 157.885 133.397 166.616 133.397C175.346 133.397 182.422 133.441 182.422 133.536Z" fill="#E0E0E0"/>
<path d="M137.099 138.626C137.099 138.706 130.023 138.769 121.296 138.769C112.569 138.769 105.486 138.706 105.486 138.626C105.486 138.547 112.562 138.484 121.296 138.484C130.03 138.484 137.099 138.547 137.099 138.626Z" fill="#FF7732"/>
<path d="M126.161 74.8612C126.161 74.9405 119.082 75.004 110.355 75.004C101.628 75.004 94.5483 74.9405 94.5483 74.8612C94.5483 74.7819 101.624 74.7185 110.355 74.7185C119.086 74.7185 126.161 74.7938 126.161 74.8612Z" fill="#E0E0E0"/>
<path d="M168.99 123.097C168.99 123.177 161.911 123.24 153.183 123.24C144.456 123.24 137.377 123.177 137.377 123.097C137.377 123.018 144.452 122.955 153.183 122.955C161.914 122.955 168.99 123.018 168.99 123.097Z" fill="#FAFAFA"/>
<path d="M186.466 128.307C186.466 128.386 175.475 128.449 161.907 128.449C148.339 128.449 137.348 128.386 137.348 128.307C137.348 128.227 148.336 128.164 161.907 128.164C175.479 128.164 186.466 128.227 186.466 128.307Z" fill="#455A64"/>
<path d="M105.806 133.536C105.806 133.615 103.24 133.679 100.072 133.679C96.9047 133.679 94.342 133.615 94.342 133.536C94.342 133.457 96.9083 133.397 100.072 133.397C103.237 133.397 105.806 133.441 105.806 133.536Z" fill="#FAFAFA"/>
<path d="M197.695 133.536C197.695 133.615 195.129 133.679 191.965 133.679C188.801 133.679 186.245 133.595 186.245 133.536C186.245 133.477 188.811 133.397 191.979 133.397C195.147 133.397 197.695 133.441 197.695 133.536Z" fill="#FD0091"/>
</g>
<defs>
<linearGradient id="paint0_linear_1794_847" x1="47.5146" y1="71.9738" x2="47.5146" y2="101.469" gradientUnits="userSpaceOnUse">
<stop stop-color="#FD0091"/>
<stop offset="0.0001" stop-color="#FD0091"/>
<stop offset="1" stop-color="#FF7732"/>
</linearGradient>
<linearGradient id="paint1_linear_1794_847" x1="47.7157" y1="109.361" x2="47.7157" y2="137.897" gradientUnits="userSpaceOnUse">
<stop stop-color="#FD0091"/>
<stop offset="0.0001" stop-color="#FD0091"/>
<stop offset="1" stop-color="#FF7732"/>
</linearGradient>
<clipPath id="clip0_1794_847">
<rect width="303" height="225" fill="white"/>
</clipPath>
</defs>
</svg>
