<svg width="297" height="212" viewBox="0 0 297 212" fill="none" xmlns="http://www.w3.org/2000/svg">
<g clip-path="url(#clip0_1794_847)">
<path d="M154.901 32.7016L153.937 33.7148C145.767 42.3139 142.578 54.9468 146.023 66.5557C146.468 68.0488 147.014 69.5067 147.658 70.9177C152.318 81.09 162.132 88.4923 172.824 89.8953C179.111 90.7213 185.886 89.6943 191.464 92.8563C198.717 96.9743 201.124 106.456 202.824 114.899C204.523 123.342 206.962 132.823 214.233 136.91C218.779 139.471 224.364 139.242 229.316 137.72C242.401 133.637 251.984 120.879 254.968 106.931C257.952 92.9841 255.074 78.1981 249.295 65.2048C241.217 47.0251 227.008 31.374 209.07 24.323C191.131 17.272 169.495 19.7999 154.901 32.7016Z" fill="#FFE7F3"/>
<path d="M58.5164 115.478C63.7775 115.478 68.0424 110.869 68.0424 105.184C68.0424 99.499 63.7775 94.8903 58.5164 94.8903C53.2554 94.8903 48.9905 99.499 48.9905 105.184C48.9905 110.869 53.2554 115.478 58.5164 115.478Z" fill="#FFE7F3"/>
<path d="M56.1351 94.8903C64.8158 94.8903 71.8529 87.2859 71.8529 77.9053C71.8529 68.5246 64.8158 60.9202 56.1351 60.9202C47.4543 60.9202 40.4172 68.5246 40.4172 77.9053C40.4172 87.2859 47.4543 94.8903 56.1351 94.8903Z" fill="#FFE7F3"/>
<path d="M288.37 189.717C288.37 189.781 228.135 189.827 153.85 189.827C79.5644 189.827 19.3215 189.781 19.3215 189.717C19.3215 189.654 79.5407 189.608 153.85 189.608C228.159 189.608 288.37 189.658 288.37 189.717Z" fill="#263238"/>
<path d="M138.157 194.917C193.95 194.917 239.179 192.053 239.179 188.52C239.179 184.987 193.95 182.123 138.157 182.123C82.3647 182.123 37.1357 184.987 37.1357 188.52C37.1357 192.053 82.3647 194.917 138.157 194.917Z" fill="#F5F5F5"/>
<path d="M55.2793 68.2628H219.153C219.859 68.2628 220.536 68.5625 221.036 69.096C221.535 69.6295 221.815 70.353 221.815 71.1075V181.947C221.815 182.755 221.666 183.554 221.377 184.3C221.088 185.047 220.664 185.724 220.13 186.295C219.595 186.866 218.961 187.319 218.262 187.628C217.564 187.937 216.816 188.097 216.06 188.097H57.9733C56.4469 188.097 54.983 187.449 53.9037 186.295C52.8244 185.142 52.218 183.578 52.218 181.947V71.5337C52.218 70.6662 52.5405 69.8343 53.1147 69.2208C53.6888 68.6074 54.4674 68.2628 55.2793 68.2628Z" fill="#92989B"/>
<path d="M45.1274 179.233H228.874V183.927C228.874 184.687 228.734 185.44 228.461 186.143C228.189 186.845 227.79 187.483 227.287 188.021C226.783 188.559 226.186 188.985 225.528 189.276C224.871 189.567 224.166 189.717 223.454 189.717H50.547C49.8353 189.717 49.1305 189.567 48.473 189.276C47.8155 188.985 47.218 188.559 46.7148 188.021C46.2115 187.483 45.8123 186.845 45.54 186.143C45.2676 185.44 45.1274 184.687 45.1274 183.927V179.233Z" fill="#676F74"/>
<path d="M216.791 73.0236H56.7725V174.219H216.791V73.0236Z" fill="#E0E0E0"/>
<path d="M120.298 179.233L122.581 183.108H154.664L156.781 179.233H120.298Z" fill="#263238"/>
<path d="M212.43 78.8859H61.5205V174.219H212.43V78.8859Z" fill="#263238"/>
<path d="M73.0896 171.425C73.0109 171.425 72.948 151.12 72.948 126.08C72.948 101.039 73.0109 80.7302 73.0896 80.7302C73.1683 80.7302 73.2312 101.031 73.2312 126.08C73.2312 151.129 73.1761 171.425 73.0896 171.425Z" fill="#E0E0E0"/>
<path d="M70.0527 88.9519C70.0527 89.0321 68.9546 89.0996 67.6036 89.0996C66.2527 89.0996 65.1506 89.0321 65.1506 88.9519C65.1506 88.8717 66.2488 88.7999 67.6036 88.7999C68.9585 88.7999 70.0527 88.8675 70.0527 88.9519Z" fill="#E0E0E0"/>
<path d="M70.2421 83.8028C70.2421 83.8872 69.144 83.9548 67.7891 83.9548C66.4343 83.9548 65.3401 83.8872 65.3401 83.8028C65.3401 83.7184 66.4382 83.6509 67.7891 83.6509C69.1401 83.6509 70.2421 83.7184 70.2421 83.8028Z" fill="#E0E0E0"/>
<path d="M70.0527 94.4976C70.0527 94.5821 68.9546 94.6496 67.6036 94.6496C66.2527 94.6496 65.1506 94.5821 65.1506 94.4976C65.1506 94.4132 66.2488 94.3457 67.6036 94.3457C68.9585 94.3457 70.0527 94.4132 70.0527 94.4976Z" fill="#E0E0E0"/>
<path d="M70.0527 100.043C70.0527 100.128 68.9546 100.195 67.6036 100.195C66.2527 100.195 65.1506 100.128 65.1506 100.043C65.1506 99.959 66.2488 99.8915 67.6036 99.8915C68.9585 99.8915 70.0527 99.959 70.0527 100.043Z" fill="#E0E0E0"/>
<path d="M70.0527 105.589C70.0527 105.674 68.9546 105.741 67.6036 105.741C66.2527 105.741 65.1506 105.674 65.1506 105.589C65.1506 105.505 66.2488 105.442 67.6036 105.442C68.9585 105.442 70.0527 105.509 70.0527 105.589Z" fill="#E0E0E0"/>
<path d="M70.0527 111.139C70.0527 111.224 68.9546 111.291 67.6036 111.291C66.2527 111.291 65.1506 111.224 65.1506 111.139C65.1506 111.055 66.2488 110.987 67.6036 110.987C68.9585 110.987 70.0527 111.055 70.0527 111.139Z" fill="#E0E0E0"/>
<path d="M70.0527 116.672C70.0527 116.757 68.9546 116.824 67.6036 116.824C66.2527 116.824 65.1506 116.757 65.1506 116.672C65.1506 116.588 66.2488 116.521 67.6036 116.521C68.9585 116.521 70.0527 116.601 70.0527 116.672Z" fill="#E0E0E0"/>
<path d="M70.0527 122.231C70.0527 122.315 68.9546 122.383 67.6036 122.383C66.2527 122.383 65.1506 122.315 65.1506 122.231C65.1506 122.146 66.2488 122.083 67.6036 122.083C68.9585 122.083 70.0527 122.159 70.0527 122.231Z" fill="#E0E0E0"/>
<path d="M70.0527 127.781C70.0527 127.861 68.9546 127.929 67.6036 127.929C66.2527 127.929 65.1506 127.861 65.1506 127.781C65.1506 127.701 66.2488 127.629 67.6036 127.629C68.9585 127.629 70.0527 127.696 70.0527 127.781Z" fill="#E0E0E0"/>
<path d="M70.0527 133.327C70.0527 133.411 68.9546 133.479 67.6036 133.479C66.2527 133.479 65.1506 133.411 65.1506 133.327C65.1506 133.242 66.2488 133.175 67.6036 133.175C68.9585 133.175 70.0527 133.242 70.0527 133.327Z" fill="#E0E0E0"/>
<path d="M70.0527 138.872C70.0527 138.957 68.9546 139.024 67.6036 139.024C66.2527 139.024 65.1506 138.957 65.1506 138.872C65.1506 138.788 66.2488 138.72 67.6036 138.72C68.9585 138.72 70.0527 138.788 70.0527 138.872Z" fill="#E0E0E0"/>
<path d="M70.0527 144.422C70.0527 144.503 68.9546 144.57 67.6036 144.57C66.2527 144.57 65.1506 144.503 65.1506 144.422C65.1506 144.342 66.2488 144.271 67.6036 144.271C68.9585 144.271 70.0527 144.338 70.0527 144.422Z" fill="#E0E0E0"/>
<path d="M70.0527 149.968C70.0527 150.053 68.9546 150.12 67.6036 150.12C66.2527 150.12 65.1506 150.053 65.1506 149.968C65.1506 149.884 66.2488 149.816 67.6036 149.816C68.9585 149.816 70.0527 149.884 70.0527 149.968Z" fill="#E0E0E0"/>
<path d="M70.0527 155.501C70.0527 155.586 68.9546 155.653 67.6036 155.653C66.2527 155.653 65.1506 155.586 65.1506 155.501C65.1506 155.417 66.2488 155.349 67.6036 155.349C68.9585 155.349 70.0527 155.43 70.0527 155.501Z" fill="#E0E0E0"/>
<path d="M70.0527 161.06C70.0527 161.144 68.9546 161.212 67.6036 161.212C66.2527 161.212 65.1506 161.144 65.1506 161.06C65.1506 160.975 66.2488 160.912 67.6036 160.912C68.9585 160.912 70.0527 160.988 70.0527 161.06Z" fill="#E0E0E0"/>
<path d="M70.0527 166.61C70.0527 166.694 68.9546 166.762 67.6036 166.762C66.2527 166.762 65.1506 166.694 65.1506 166.61C65.1506 166.525 66.2488 166.458 67.6036 166.458C68.9585 166.458 70.0527 166.525 70.0527 166.61Z" fill="#E0E0E0"/>
<path d="M89.7044 166.61C89.7044 166.694 86.8564 166.762 83.3408 166.762C79.8253 166.762 76.9812 166.694 76.9812 166.61C76.9812 166.525 79.8292 166.458 83.3408 166.458C86.8525 166.458 89.7044 166.525 89.7044 166.61Z" fill="#FD0091"/>
<path d="M94.1007 88.1204C94.1007 88.2049 91.2527 88.2724 87.741 88.2724C84.2294 88.2724 81.3774 88.2049 81.3774 88.1204C81.3774 88.036 84.2255 87.9685 87.741 87.9685C91.2566 87.9685 94.1007 88.036 94.1007 88.1204Z" fill="#FD0091"/>
<path d="M107.424 100.043C107.424 100.128 102.092 100.195 95.5228 100.195C88.9538 100.195 83.6172 100.128 83.6172 100.043C83.6172 99.959 88.9459 99.8915 95.5228 99.8915C102.1 99.8915 107.424 99.959 107.424 100.043Z" fill="#FD0091"/>
<path d="M134.949 100.043C134.949 100.128 129.62 100.195 123.047 100.195C116.474 100.195 111.146 100.128 111.146 100.043C111.146 99.959 116.474 99.8915 123.047 99.8915C129.62 99.8915 134.949 99.959 134.949 100.043Z" fill="#E0E0E0"/>
<path d="M124.441 105.589C124.441 105.674 116.589 105.741 106.899 105.741C97.2095 105.741 89.3567 105.674 89.3567 105.589C89.3567 105.505 97.2095 105.442 106.899 105.442C116.589 105.442 124.441 105.509 124.441 105.589Z" fill="#E0E0E0"/>
<path d="M124.441 111.139C124.441 111.224 116.589 111.291 106.899 111.291C97.2095 111.291 89.3567 111.224 89.3567 111.139C89.3567 111.055 97.2095 110.987 106.899 110.987C116.589 110.987 124.441 111.055 124.441 111.139Z" fill="#FF7732"/>
<path d="M148.581 127.781C148.581 127.861 140.724 127.929 131.038 127.929C121.353 127.929 113.496 127.861 113.496 127.781C113.496 127.701 121.349 127.629 131.038 127.629C140.728 127.629 148.581 127.696 148.581 127.781Z" fill="#E0E0E0"/>
<path d="M138.16 116.672C138.16 116.757 130.303 116.824 120.618 116.824C110.932 116.824 103.075 116.757 103.075 116.672C103.075 116.588 110.928 116.521 120.618 116.521C130.307 116.521 138.16 116.601 138.16 116.672Z" fill="#E0E0E0"/>
<path d="M181.031 116.672C181.031 116.757 173.178 116.824 163.488 116.824C153.799 116.824 145.946 116.757 145.946 116.672C145.946 116.588 153.799 116.521 163.488 116.521C173.178 116.521 181.031 116.601 181.031 116.672Z" fill="#FD0091"/>
<path d="M166.123 105.589C166.123 105.674 158.266 105.741 148.58 105.741C138.895 105.741 131.038 105.674 131.038 105.589C131.038 105.505 138.891 105.442 148.58 105.442C158.27 105.442 166.123 105.509 166.123 105.589Z" fill="#FAFAFA"/>
<path d="M190.357 127.781C190.357 127.861 182.5 127.929 172.814 127.929C163.129 127.929 155.272 127.861 155.272 127.781C155.272 127.701 163.125 127.629 172.814 127.629C182.504 127.629 190.357 127.696 190.357 127.781Z" fill="#FAFAFA"/>
<path d="M185.518 111.139C185.518 111.224 173.32 111.291 158.262 111.291C143.204 111.291 131.007 111.224 131.007 111.139C131.007 111.055 143.201 110.987 158.262 110.987C173.324 110.987 185.518 111.055 185.518 111.139Z" fill="#455A64"/>
<path d="M89.7044 161.06C89.7044 161.144 86.8564 161.212 83.3408 161.212C79.8253 161.212 76.9812 161.144 76.9812 161.06C76.9812 160.975 79.8292 160.912 83.3408 160.912C86.8525 160.912 89.7044 160.988 89.7044 161.06Z" fill="#FAFAFA"/>
<path d="M96.0008 116.672C96.0008 116.757 93.1528 116.824 89.6372 116.824C86.1217 116.824 83.2776 116.757 83.2776 116.672C83.2776 116.588 86.1256 116.521 89.6372 116.521C93.1489 116.521 96.0008 116.601 96.0008 116.672Z" fill="#FAFAFA"/>
<path d="M197.98 116.672C197.98 116.757 195.132 116.824 191.621 116.824C188.109 116.824 185.273 116.77 185.273 116.672C185.273 116.575 188.121 116.521 191.637 116.521C195.152 116.521 197.98 116.601 197.98 116.672Z" fill="#FD0091"/>
<path d="M107.424 138.843C107.424 138.923 102.092 138.991 95.5228 138.991C88.9538 138.991 83.6172 138.923 83.6172 138.843C83.6172 138.763 88.9459 138.691 95.5228 138.691C102.1 138.691 107.424 138.758 107.424 138.843Z" fill="#FD0091"/>
<path d="M134.949 138.843C134.949 138.923 129.62 138.991 123.047 138.991C116.474 138.991 111.146 138.923 111.146 138.843C111.146 138.763 116.474 138.691 123.047 138.691C129.62 138.691 134.949 138.758 134.949 138.843Z" fill="#E0E0E0"/>
<path d="M124.441 144.389C124.441 144.473 116.589 144.541 106.899 144.541C97.2095 144.541 89.3567 144.473 89.3567 144.389C89.3567 144.304 97.2095 144.237 106.899 144.237C116.589 144.237 124.441 144.304 124.441 144.389Z" fill="#FF7732"/>
<path d="M124.441 149.934C124.441 150.019 116.589 150.086 106.899 150.086C97.2095 150.086 89.3567 150.019 89.3567 149.934C89.3567 149.85 97.2095 149.782 106.899 149.782C116.589 149.782 124.441 149.85 124.441 149.934Z" fill="#E0E0E0"/>
<path d="M138.16 155.501C138.16 155.586 130.303 155.653 120.618 155.653C110.932 155.653 103.075 155.586 103.075 155.501C103.075 155.417 110.928 155.354 120.618 155.354C130.307 155.354 138.16 155.4 138.16 155.501Z" fill="#E0E0E0"/>
<path d="M181.031 155.501C181.031 155.586 173.178 155.653 163.488 155.653C153.799 155.653 145.946 155.586 145.946 155.501C145.946 155.417 153.799 155.354 163.488 155.354C173.178 155.354 181.031 155.4 181.031 155.501Z" fill="#E0E0E0"/>
<path d="M130.73 160.92C130.73 161.005 122.877 161.072 113.192 161.072C103.506 161.072 95.6453 161.005 95.6453 160.92C95.6453 160.836 103.498 160.769 113.192 160.769C122.885 160.769 130.73 160.836 130.73 160.92Z" fill="#FF7732"/>
<path d="M118.591 93.0373C118.591 93.1217 110.735 93.1893 101.049 93.1893C91.3633 93.1893 83.5066 93.1217 83.5066 93.0373C83.5066 92.9529 91.3594 92.8854 101.049 92.8854C110.739 92.8854 118.591 92.9656 118.591 93.0373Z" fill="#E0E0E0"/>
<path d="M166.123 144.389C166.123 144.473 158.266 144.541 148.58 144.541C138.895 144.541 131.038 144.473 131.038 144.389C131.038 144.304 138.891 144.237 148.58 144.237C158.27 144.237 166.123 144.304 166.123 144.389Z" fill="#FAFAFA"/>
<path d="M185.518 149.934C185.518 150.019 173.32 150.086 158.262 150.086C143.204 150.086 131.007 150.019 131.007 149.934C131.007 149.85 143.201 149.782 158.262 149.782C173.324 149.782 185.518 149.85 185.518 149.934Z" fill="#455A64"/>
<path d="M96.0008 155.501C96.0008 155.586 93.1528 155.653 89.6372 155.653C86.1217 155.653 83.2776 155.586 83.2776 155.501C83.2776 155.417 86.1256 155.354 89.6372 155.354C93.1489 155.354 96.0008 155.4 96.0008 155.501Z" fill="#FAFAFA"/>
<path d="M197.98 155.501C197.98 155.586 195.132 155.653 191.621 155.653C188.109 155.653 185.273 155.565 185.273 155.501C185.273 155.438 188.121 155.354 191.637 155.354C195.152 155.354 197.98 155.4 197.98 155.501Z" fill="#FD0091"/>
<path d="M45.0046 113.916H29.1718C28.9105 113.916 28.6518 113.86 28.4106 113.753C28.1694 113.646 27.9504 113.489 27.7663 113.291C27.5822 113.092 27.4365 112.857 27.3378 112.599C27.2391 112.341 27.1892 112.064 27.191 111.785V88.3686C27.191 87.8073 27.3997 87.269 27.7711 86.8721C28.1426 86.4752 28.6464 86.2522 29.1718 86.2522H39.2127L46.9854 94.8129V111.785C46.9872 112.064 46.9373 112.341 46.8386 112.599C46.7398 112.857 46.5942 113.092 46.4101 113.291C46.226 113.489 46.007 113.646 45.7658 113.753C45.5246 113.86 45.2659 113.916 45.0046 113.916Z" fill="url(#paint0_linear_1794_847)"/>
<g opacity="0.2">
<path d="M27.1909 105.508H46.9853V110.6C46.9853 111.473 46.661 112.31 46.0835 112.927C45.5061 113.543 44.723 113.89 43.9064 113.89H30.3212C29.4928 113.89 28.6981 113.539 28.1114 112.914C27.5246 112.289 27.1936 111.442 27.1909 110.556V105.508Z" fill="black"/>
</g>
<g opacity="0.2">
<path d="M39.2126 86.2522V92.8318C39.2126 93.3543 39.4069 93.8554 39.7527 94.2249C40.0985 94.5944 40.5676 94.802 41.0566 94.802H46.9854L39.2126 86.2522Z" fill="white"/>
</g>
<g opacity="0.2">
<path d="M39.295 93.4203C39.295 93.4203 39.2163 95.0177 40.92 95.544C40.9838 95.5651 41.049 95.5809 41.115 95.5915C41.8882 95.7378 46.9856 96.7101 46.9856 96.5821V94.813H41.0569C41.0569 94.813 39.5755 94.7581 39.295 93.4203Z" fill="black"/>
</g>
<path d="M32.8596 109.164C32.8903 108.815 33.0138 108.484 33.2156 108.208C33.4174 107.933 33.689 107.725 33.9981 107.609C34.3072 107.494 34.6408 107.476 34.9593 107.557C35.2778 107.638 35.5678 107.815 35.7949 108.067L35.3399 108.517C35.245 108.395 35.1261 108.298 34.9919 108.232C34.8576 108.165 34.7113 108.132 34.5633 108.133C34.302 108.133 34.0514 108.244 33.8666 108.441C33.6819 108.639 33.578 108.906 33.578 109.186C33.578 109.465 33.6819 109.733 33.8666 109.93C34.0514 110.127 34.302 110.238 34.5633 110.238C34.712 110.24 34.8591 110.206 34.9936 110.138C35.1281 110.07 35.2465 109.971 35.3399 109.847L35.7949 110.301C35.5687 110.562 35.2752 110.747 34.9513 110.831C34.6273 110.915 34.2873 110.895 33.9738 110.774C33.6604 110.653 33.3875 110.435 33.1892 110.149C32.991 109.862 32.8764 109.52 32.8596 109.164Z" fill="#FAFAFA"/>
<path d="M36.0071 110.487L36.2466 109.913C36.5477 110.137 36.9059 110.257 37.2729 110.257C37.6971 110.257 37.8682 110.107 37.8682 109.891C37.8682 109.273 36.0789 109.697 36.0789 108.477C36.0789 107.917 36.4997 107.453 37.3755 107.453C37.7491 107.445 38.1178 107.545 38.4429 107.742L38.2239 108.319C37.965 108.158 37.6718 108.07 37.3721 108.064C36.9479 108.064 36.7871 108.232 36.7871 108.429C36.7871 109.032 38.5763 108.615 38.5763 109.822C38.5763 110.374 38.1487 110.842 37.2695 110.842C36.8246 110.864 36.3839 110.741 36.0071 110.487Z" fill="#FAFAFA"/>
<path d="M38.8225 110.487L39.0654 109.913C39.3665 110.137 39.7248 110.257 40.0917 110.257C40.5159 110.257 40.687 110.107 40.687 109.891C40.687 109.273 38.8944 109.697 38.8944 108.477C38.8944 107.917 39.3186 107.453 40.1944 107.453C40.5679 107.445 40.9366 107.545 41.2617 107.742L41.0428 108.319C40.7828 108.158 40.4884 108.069 40.1875 108.063C39.7667 108.063 39.6025 108.232 39.6025 108.429C39.6025 109.032 41.3952 108.615 41.3952 109.822C41.3952 110.374 40.9675 110.842 40.0883 110.842C39.6424 110.864 39.2008 110.74 38.8225 110.487Z" fill="#FAFAFA"/>
<path d="M33.8619 98.5231C34.204 98.6291 34.3374 98.8448 34.3374 99.3675V100.577C34.3303 100.651 34.3388 100.726 34.3624 100.796C34.3859 100.866 34.4239 100.93 34.4735 100.982C34.5231 101.034 34.583 101.074 34.6489 101.098C34.7147 101.123 34.7848 101.131 34.854 101.122H34.9806V102.043H34.5701C33.6874 102.043 33.2324 101.561 33.2324 100.691V99.3237C33.2324 99.0824 33.1127 98.9581 32.9245 98.9581H32.6885V98.0333H32.9245C33.1127 98.0333 33.2324 97.92 33.2324 97.6678V96.3007C33.2324 95.4307 33.6874 94.9482 34.5701 94.9482H34.9806V95.8694H34.854C34.7836 95.8604 34.7121 95.8687 34.6451 95.8937C34.5781 95.9187 34.5173 95.9598 34.4675 96.0138C34.4176 96.0677 34.38 96.1332 34.3574 96.2051C34.3349 96.277 34.3281 96.3535 34.3374 96.4286V97.6386C34.3374 98.1978 34.1903 98.4171 33.8619 98.5231Z" fill="#FAFAFA"/>
<path d="M41.4877 98.0589V98.9837H41.2551C41.2105 98.9795 41.1656 98.9864 41.1239 99.0038C41.0822 99.0212 41.0448 99.0487 41.0147 99.0841C40.9846 99.1194 40.9625 99.1618 40.9502 99.2078C40.9379 99.2537 40.9357 99.3021 40.9437 99.3492V100.716C40.9437 101.586 40.4922 102.069 39.6061 102.069H39.1956V101.122H39.3256C39.3953 101.132 39.4662 101.125 39.5329 101.101C39.5996 101.077 39.6605 101.038 39.7109 100.985C39.7612 100.933 39.7998 100.869 39.8238 100.798C39.8477 100.728 39.8563 100.652 39.849 100.577V99.3675C39.849 98.8448 39.9961 98.6364 40.3211 98.5231C39.979 98.4171 39.849 98.1978 39.849 97.6751V96.4651C39.8584 96.39 39.8515 96.3135 39.829 96.2416C39.8064 96.1697 39.7688 96.1042 39.7189 96.0503C39.6691 95.9963 39.6083 95.9552 39.5413 95.9302C39.4743 95.9052 39.4029 95.8968 39.3324 95.9059H39.2024V94.9847H39.6129C40.499 94.9847 40.9506 95.4672 40.9506 96.3372V97.7043C40.9425 97.7513 40.9447 97.7997 40.957 97.8457C40.9693 97.8917 40.9914 97.934 41.0215 97.9694C41.0517 98.0048 41.089 98.0323 41.1307 98.0497C41.1724 98.0671 41.2173 98.074 41.2619 98.0698L41.4877 98.0589Z" fill="#FAFAFA"/>
<path d="M57.3752 119.322C57.2625 119.344 57.1477 119.353 57.0331 119.347L56.065 119.366L52.5583 119.399H52.507V119.318C52.507 117.246 52.507 114.669 52.507 111.876C52.507 110.14 52.507 108.484 52.507 106.974C52.507 106.225 52.507 105.512 52.507 104.836C52.5195 104.685 52.4988 104.534 52.4465 104.394C52.3942 104.253 52.3118 104.128 52.206 104.028C52.1047 103.937 51.9874 103.869 51.8611 103.828C51.7347 103.786 51.6019 103.772 51.4704 103.787L48.9457 103.758L48.2614 103.739C48.1819 103.75 48.1015 103.75 48.022 103.739C48.1008 103.723 48.1812 103.717 48.2614 103.721H48.9457L51.4704 103.692C51.6176 103.674 51.7667 103.688 51.9088 103.733C52.051 103.777 52.1834 103.851 52.2983 103.951C52.4169 104.067 52.5094 104.21 52.5686 104.37C52.6279 104.529 52.6525 104.701 52.6404 104.872C52.6404 105.545 52.6404 106.261 52.6404 107.011C52.6404 108.52 52.6404 110.176 52.6404 111.913C52.6404 114.705 52.6404 117.282 52.6404 119.355L52.5686 119.278L56.0752 119.311L57.0434 119.333C57.1536 119.32 57.2645 119.316 57.3752 119.322Z" fill="#263238"/>
<path d="M47.7378 134.692C47.8013 134.682 47.8659 134.682 47.9294 134.692L48.4767 134.674L50.4952 134.645C50.9194 134.616 51.4086 134.722 51.8226 134.455C52.0424 134.318 52.2204 134.116 52.3352 133.874C52.4499 133.631 52.4965 133.358 52.4692 133.088C52.4692 131.882 52.4692 130.558 52.4692 129.173C52.4692 126.406 52.4897 123.902 52.4965 122.06C52.4965 121.168 52.5171 120.437 52.5239 119.903C52.5239 119.665 52.5239 119.472 52.5239 119.318C52.5188 119.25 52.5188 119.182 52.5239 119.114C52.5395 119.18 52.5464 119.249 52.5444 119.318C52.5444 119.472 52.5444 119.665 52.5444 119.903C52.5444 120.437 52.5444 121.168 52.5718 122.06C52.5718 123.887 52.5889 126.406 52.5957 129.173C52.5957 130.558 52.5957 131.882 52.5957 133.088C52.6018 133.242 52.5926 133.396 52.5684 133.548C52.5416 133.698 52.4932 133.842 52.4247 133.976C52.3005 134.226 52.1133 134.435 51.8842 134.577C51.6551 134.72 51.3932 134.792 51.1281 134.784H50.4439L48.4254 134.755L47.8781 134.736C47.8299 134.727 47.7828 134.713 47.7378 134.692Z" fill="#263238"/>
<path d="M58.771 119.322C58.771 119.466 58.7309 119.608 58.6557 119.728C58.5805 119.848 58.4737 119.942 58.3486 119.997C58.2236 120.053 58.086 120.067 57.9533 120.039C57.8206 120.011 57.6987 119.941 57.603 119.839C57.5073 119.737 57.4421 119.606 57.4157 119.465C57.3893 119.323 57.4029 119.176 57.4547 119.042C57.5065 118.909 57.5942 118.794 57.7067 118.714C57.8192 118.634 57.9515 118.591 58.0868 118.591C58.2683 118.591 58.4423 118.668 58.5706 118.805C58.6989 118.942 58.771 119.128 58.771 119.322Z" fill="#263238"/>
<path d="M44.953 148.082H29.6197C29.1107 148.082 28.6225 147.866 28.2626 147.481C27.9026 147.097 27.7004 146.575 27.7004 146.031V123.368C27.7004 122.824 27.9026 122.303 28.2626 121.918C28.6225 121.534 29.1107 121.318 29.6197 121.318H39.3424L46.8688 129.608V146.057C46.8625 146.596 46.658 147.11 46.2995 147.489C45.941 147.868 45.4573 148.081 44.953 148.082Z" fill="url(#paint1_linear_1794_847)"/>
<g opacity="0.2">
<path d="M27.7004 139.956H46.8585V145.073C46.8585 145.869 46.5626 146.633 46.0359 147.196C45.5092 147.758 44.7947 148.075 44.0498 148.075H30.4681C29.7341 148.075 29.0301 147.763 28.5111 147.208C27.992 146.654 27.7004 145.902 27.7004 145.117V139.956Z" fill="black"/>
</g>
<path d="M34.4949 145.198L34.9772 144.58C35.0493 144.707 35.1493 144.813 35.2685 144.89C35.3878 144.966 35.5226 145.01 35.6615 145.019C36.0036 145.019 36.1952 144.796 36.1952 144.357V142.449H34.8849V141.718H37.0675V144.317C37.0675 145.307 36.5988 145.797 35.7162 145.797C35.4832 145.804 35.2518 145.754 35.0399 145.65C34.8281 145.546 34.6416 145.391 34.4949 145.198Z" fill="#FAFAFA"/>
<path d="M37.5842 145.424L37.8648 144.785C38.1674 144.98 38.5138 145.083 38.8671 145.085C39.2537 145.085 39.3974 144.975 39.3974 144.803C39.3974 144.299 37.6561 144.803 37.6561 143.582C37.6561 142.997 38.1487 142.584 38.9903 142.584C39.3749 142.577 39.7553 142.67 40.0987 142.855L39.8216 143.491C39.5683 143.337 39.2815 143.258 38.9903 143.261C38.614 143.261 38.4532 143.388 38.4532 143.549C38.4532 144.076 40.1945 143.549 40.1945 144.777C40.1945 145.351 39.6985 145.757 38.8261 145.757C38.392 145.764 37.9637 145.65 37.5842 145.424Z" fill="#FAFAFA"/>
<path d="M31.7615 135.69L32.3636 134.937C32.5236 135.213 32.7461 135.441 33.0104 135.6C33.2747 135.759 33.5723 135.844 33.8757 135.848C34.6933 135.848 35.121 135.314 35.121 134.276V129.933H32.497V128.968H36.1439V134.232C36.1439 135.957 35.357 136.809 33.8757 136.809C33.4647 136.82 33.0574 136.724 32.689 136.529C32.3206 136.334 32.0022 136.046 31.7615 135.69Z" fill="#FAFAFA"/>
<path d="M37.4199 136.1L37.8373 135.259C38.4102 135.658 39.0795 135.87 39.7634 135.869C40.6871 135.869 41.0702 135.57 41.0702 135.073C41.0702 133.753 37.5978 134.893 37.5978 132.558C37.5978 131.505 38.477 130.796 39.8865 130.796C40.5905 130.781 41.2856 130.965 41.9015 131.33L41.4773 132.17C41.0021 131.853 40.4502 131.692 39.8899 131.706C39.021 131.706 38.5968 132.05 38.5968 132.514C38.5968 133.899 42.0794 132.77 42.0794 135.051C42.0794 136.114 41.166 136.787 39.7052 136.787C38.8955 136.814 38.0977 136.574 37.4199 136.1Z" fill="#FAFAFA"/>
<g opacity="0.3">
<path d="M39.3428 121.303V127.685C39.3428 128.191 39.5309 128.677 39.8658 129.034C40.2007 129.392 40.655 129.593 41.1286 129.593H46.8726L39.3428 121.303Z" fill="white"/>
</g>
<g opacity="0.2">
<path d="M39.4211 128.245C39.4246 128.728 39.5825 129.195 39.8688 129.57C40.155 129.944 40.5523 130.202 40.9948 130.302L41.183 130.35C41.9322 130.493 46.8723 131.447 46.8723 131.308V129.593H41.1283C41.1283 129.593 39.6948 129.542 39.4211 128.245Z" fill="black"/>
</g>
</g>
<defs>
<linearGradient id="paint0_linear_1794_847" x1="37.0882" y1="86.2522" x2="37.0882" y2="113.916" gradientUnits="userSpaceOnUse">
<stop stop-color="#FD0091"/>
<stop offset="0.0001" stop-color="#FD0091"/>
<stop offset="1" stop-color="#FF7732"/>
</linearGradient>
<linearGradient id="paint1_linear_1794_847" x1="37.2846" y1="121.318" x2="37.2846" y2="148.082" gradientUnits="userSpaceOnUse">
<stop stop-color="#FD0091"/>
<stop offset="0.0001" stop-color="#FD0091"/>
<stop offset="1" stop-color="#FF7732"/>
</linearGradient>
<clipPath id="clip0_1794_847">
<rect width="296.257" height="211.027" fill="white" transform="translate(0.408447 0.185547)"/>
</clipPath>
</defs>
</svg>
