<svg width="234" height="69" viewBox="0 0 234 69" fill="none" xmlns="http://www.w3.org/2000/svg">
<path d="M14.7398 48.6786C11.3781 48.6786 8.54971 47.9351 6.2547 46.4482C3.9597 44.929 2.34349 42.8764 1.4061 40.2905L7.12745 36.9449C8.45274 40.4036 11.0548 42.1329 14.9337 42.1329C16.8085 42.1329 18.1823 41.7935 19.055 41.1147C19.9278 40.4359 20.3642 39.5793 20.3642 38.545C20.3642 37.349 19.8308 36.4277 18.7641 35.7813C17.6974 35.1025 15.7903 34.3752 13.0428 33.5994C11.5235 33.1469 10.2306 32.6943 9.16387 32.2418C8.1295 31.7892 7.07897 31.1912 6.01227 30.4478C4.9779 29.672 4.18596 28.7023 3.63646 27.5386C3.08695 26.375 2.81219 25.0174 2.81219 23.4658C2.81219 20.395 3.89505 17.9546 6.06076 16.1444C8.25879 14.3019 10.8932 13.3807 13.964 13.3807C16.7115 13.3807 19.1197 14.0595 21.1884 15.4171C23.2895 16.7424 24.9218 18.601 26.0855 20.993L20.4611 24.2416C19.1035 21.3324 16.9378 19.8778 13.964 19.8778C12.5741 19.8778 11.475 20.2011 10.6669 20.8476C9.89116 21.4617 9.50327 22.2698 9.50327 23.2719C9.50327 24.3386 9.93965 25.2113 10.8124 25.8901C11.7175 26.5366 13.4306 27.2477 15.9519 28.0235C16.9863 28.3467 17.7621 28.6053 18.2792 28.7993C18.8288 28.9609 19.5561 29.2356 20.4611 29.6235C21.3985 29.9791 22.1097 30.3185 22.5945 30.6417C23.1117 30.965 23.6935 31.4014 24.34 31.9509C24.9865 32.5004 25.4714 33.066 25.7946 33.6479C26.1502 34.2297 26.4411 34.9408 26.6673 35.7813C26.9259 36.5894 27.0552 37.4783 27.0552 38.448C27.0552 41.5834 25.9077 44.0724 23.6127 45.9149C21.35 47.7573 18.3924 48.6786 14.7398 48.6786ZM36.4134 38.448C37.2538 41.4865 39.5327 43.0057 43.25 43.0057C45.6419 43.0057 47.4521 42.1976 48.6804 40.5814L53.7229 43.4906C51.331 46.9492 47.8076 48.6786 43.153 48.6786C39.1448 48.6786 35.9286 47.4664 33.5043 45.0421C31.08 42.6178 29.8678 39.5632 29.8678 35.8782C29.8678 32.2256 31.0638 29.1872 33.4558 26.7629C35.8477 24.3062 38.9185 23.0779 42.6681 23.0779C46.2238 23.0779 49.1491 24.3062 51.4441 26.7629C53.7714 29.2195 54.9351 32.2579 54.9351 35.8782C54.9351 36.6863 54.8543 37.5429 54.6927 38.448H36.4134ZM36.3164 33.5994H48.6804C48.3248 31.9509 47.5814 30.7226 46.45 29.9144C45.351 29.1063 44.0904 28.7023 42.6681 28.7023C40.9873 28.7023 39.5973 29.1387 38.4983 30.0114C37.3993 30.8518 36.672 32.0478 36.3164 33.5994ZM73.1685 29.769H67.6896V39.8541C67.6896 40.6945 67.8997 41.3087 68.3199 41.6966C68.7401 42.0845 69.3543 42.3107 70.1624 42.3754C70.9705 42.4077 71.9725 42.3915 73.1685 42.3269V47.9998C68.8694 48.4846 65.831 48.0806 64.0531 46.7876C62.3076 45.4946 61.4349 43.1835 61.4349 39.8541V29.769H57.2166V23.7567H61.4349V18.8596L67.6896 16.9687V23.7567H73.1685V29.769ZM91.4364 23.0779C94.087 23.0779 96.2688 23.9668 97.982 25.7446C99.7275 27.5225 100.6 29.9791 100.6 33.1145V47.9998H94.3456V33.8903C94.3456 32.2741 93.9092 31.0458 93.0364 30.2054C92.1637 29.3326 91 28.8962 89.5454 28.8962C87.9292 28.8962 86.6363 29.3973 85.6666 30.3993C84.6968 31.4014 84.212 32.9044 84.212 34.9085V47.9998H77.9573V23.7567H84.212V26.4719C85.7312 24.2093 88.1393 23.0779 91.4364 23.0779ZM111.226 38.448C112.066 41.4865 114.345 43.0057 118.062 43.0057C120.454 43.0057 122.265 42.1976 123.493 40.5814L128.535 43.4906C126.143 46.9492 122.62 48.6786 117.965 48.6786C113.957 48.6786 110.741 47.4664 108.317 45.0421C105.892 42.6178 104.68 39.5632 104.68 35.8782C104.68 32.2256 105.876 29.1872 108.268 26.7629C110.66 24.3062 113.731 23.0779 117.481 23.0779C121.036 23.0779 123.962 24.3062 126.257 26.7629C128.584 29.2195 129.748 32.2579 129.748 35.8782C129.748 36.6863 129.667 37.5429 129.505 38.448H111.226ZM111.129 33.5994H123.493C123.137 31.9509 122.394 30.7226 121.263 29.9144C120.164 29.1063 118.903 28.7023 117.481 28.7023C115.8 28.7023 114.41 29.1387 113.311 30.0114C112.212 30.8518 111.485 32.0478 111.129 33.5994ZM152.684 23.7567H158.793V46.8361C158.793 50.5857 157.549 53.4464 155.06 55.4181C152.603 57.3899 149.63 58.3758 146.139 58.3758C143.52 58.3758 141.209 57.8748 139.205 56.8727C137.233 55.8707 135.714 54.3999 134.647 52.4605L139.981 49.4059C141.209 51.6685 143.326 52.7999 146.332 52.7999C148.304 52.7999 149.856 52.2827 150.987 51.2483C152.118 50.214 152.684 48.7432 152.684 46.8361V44.2178C150.842 46.6745 148.256 47.9028 144.926 47.9028C141.5 47.9028 138.623 46.7068 136.296 44.3148C134.001 41.8905 132.853 38.949 132.853 35.4903C132.853 32.064 134.017 29.1387 136.344 26.7144C138.672 24.2901 141.532 23.0779 144.926 23.0779C148.256 23.0779 150.842 24.3062 152.684 26.7629V23.7567ZM140.999 40.2905C142.292 41.5188 143.924 42.1329 145.896 42.1329C147.868 42.1329 149.484 41.5188 150.745 40.2905C152.038 39.0298 152.684 37.4298 152.684 35.4903C152.684 33.5832 152.038 32.0155 150.745 30.7872C149.484 29.5266 147.868 28.8962 145.896 28.8962C143.924 28.8962 142.292 29.5266 140.999 30.7872C139.738 32.0155 139.108 33.5832 139.108 35.4903C139.108 37.4298 139.738 39.0298 140.999 40.2905Z" fill="white"/>
<rect x="167.681" y="14.1418" width="65.546" height="33.6335" rx="8.30548" fill="#FFD202"/>
<path d="M194.707 35.691C193.533 36.8538 192.104 37.4352 190.421 37.4352C188.738 37.4352 187.309 36.8538 186.136 35.691C184.973 34.5172 184.391 33.0831 184.391 31.3888C184.391 29.6945 184.973 28.2659 186.136 27.1032C187.309 25.9293 188.738 25.3424 190.421 25.3424C192.104 25.3424 193.533 25.9293 194.707 27.1032C195.881 28.2659 196.468 29.6945 196.468 31.3888C196.468 33.0831 195.881 34.5172 194.707 35.691ZM187.747 34.1296C188.467 34.8383 189.358 35.1927 190.421 35.1927C191.484 35.1927 192.376 34.8383 193.096 34.1296C193.815 33.4098 194.175 32.4962 194.175 31.3888C194.175 30.2814 193.815 29.3678 193.096 28.648C192.376 27.9282 191.484 27.5683 190.421 27.5683C189.358 27.5683 188.467 27.9282 187.747 28.648C187.027 29.3678 186.667 30.2814 186.667 31.3888C186.667 32.4962 187.027 33.4098 187.747 34.1296ZM202.597 28.6646C203.505 28.6646 204.252 28.9691 204.839 29.5782C205.437 30.1873 205.736 31.0289 205.736 32.1031V37.2026H203.594V32.3688C203.594 31.8151 203.444 31.3943 203.145 31.1064C202.846 30.8074 202.447 30.6579 201.949 30.6579C201.395 30.6579 200.952 30.8296 200.62 31.1729C200.288 31.5161 200.122 32.0311 200.122 32.7177V37.2026H197.979V28.8972H200.122V29.8274C200.642 29.0522 201.467 28.6646 202.597 28.6646ZM209.377 33.9303C209.665 34.9712 210.445 35.4917 211.719 35.4917C212.538 35.4917 213.158 35.2149 213.579 34.6612L215.307 35.6578C214.487 36.8427 213.28 37.4352 211.686 37.4352C210.312 37.4352 209.211 37.0199 208.38 36.1894C207.549 35.3588 207.134 34.3123 207.134 33.0499C207.134 31.7985 207.544 30.7576 208.363 29.927C209.183 29.0854 210.235 28.6646 211.519 28.6646C212.738 28.6646 213.74 29.0854 214.526 29.927C215.323 30.7687 215.722 31.8096 215.722 33.0499C215.722 33.3267 215.694 33.6202 215.639 33.9303H209.377ZM209.343 32.2692H213.579C213.457 31.7044 213.203 31.2836 212.815 31.0067C212.439 30.7299 212.007 30.5915 211.519 30.5915C210.944 30.5915 210.467 30.741 210.091 31.04C209.714 31.3279 209.465 31.7376 209.343 32.2692Z" fill="white"/>
</svg>
