<svg width="265" height="45" viewBox="0 0 265 45" fill="none" xmlns="http://www.w3.org/2000/svg">
<g clip-path="url(#clip0_691_4839)">
<path d="M21.1215 -0.000244141H23.9167C28.7282 0.293987 33.4273 2.15889 37.0987 5.28726C36.6119 5.35649 36.1229 5.42572 35.6362 5.49495C34.8422 4.89351 34.0092 4.34399 33.1439 3.85072C27.9494 0.819708 21.3984 0.146871 15.715 2.11995C17.1104 2.06586 18.5015 1.87764 19.9013 1.94903C22.796 2.01394 25.628 2.81226 28.2479 4.0173C30.2189 5.04062 32.0751 6.31274 33.6198 7.91803C30.6753 8.14952 27.6984 7.73629 24.7713 8.17115C21.9479 6.99639 19.0056 6.06178 15.979 5.59014C15.6393 6.40144 15.3451 7.23004 15.0984 8.07379C13.3806 8.01754 11.6628 8.03053 9.94506 7.98942C8.40251 8.0262 6.85996 8.07596 5.31958 7.93101C9.22895 3.29038 15.0638 0.35889 21.1215 -0.000244141Z" fill="#7CC14B"/>
<path d="M158.534 7.80803C160.68 7.82534 162.831 7.79505 164.979 7.80587C165.26 9.52365 165.241 11.2674 165.234 13.0003C163.159 13.0587 161.087 12.8943 159.014 12.9874C159.014 11.2544 159.096 9.47389 158.534 7.80803Z" fill="#7CC14B"/>
<path d="M15.7151 2.12011C21.3985 0.147035 27.9495 0.819871 33.1439 3.85088C31.5105 3.93742 29.8728 3.80761 28.248 4.01747C25.6281 2.81242 22.7961 2.0141 19.9014 1.9492C18.5016 1.8778 17.1105 2.06603 15.7151 2.12011Z" fill="#9ACD68"/>
<path d="M28.248 4.01742C29.8728 3.80756 31.5105 3.93737 33.144 3.85083C34.0093 4.3441 34.8423 4.89362 35.6363 5.49506C36.798 6.38857 37.856 7.41189 38.8101 8.52391C37.3411 8.7316 35.8548 8.64073 34.375 8.6667C34.1283 8.41141 33.873 8.16694 33.6199 7.91814C32.0752 6.31285 30.219 5.04073 28.248 4.01742Z" fill="#94CA6E"/>
<path d="M215.844 7.25877C216.809 6.09483 217.791 4.94171 218.754 3.77344C220.32 4.88113 221.666 6.25925 223.016 7.61791C221.874 8.66286 220.87 9.84627 219.82 10.9799C218.637 9.59531 217.213 8.44868 215.844 7.25877Z" fill="#86C442"/>
<path d="M155.231 4.81128C157.07 4.81777 158.911 4.80479 160.752 4.81777C161.753 4.85239 162.833 4.90214 163.69 5.49061C164.44 6.03147 164.776 6.94013 164.979 7.80551C162.831 7.79469 160.68 7.82498 158.534 7.80767C157.989 6.51609 156.485 6.21753 155.228 6.31921C155.226 5.81729 155.226 5.3132 155.231 4.81128Z" fill="#85C442"/>
<path d="M188.972 4.82649C191.038 4.80053 193.104 4.81567 195.17 4.81567C196.313 4.83514 197.6 5.1813 198.208 6.23706C198.971 7.55245 198.963 9.1361 199.036 10.6116C199.043 15.2198 199.034 19.8279 199.041 24.4361C200.588 22.5258 202.143 20.6262 203.701 18.7246C204.956 17.1755 206.215 15.5378 207.984 14.5469C209.386 13.8049 211.015 13.8092 212.56 13.8481C212.558 14.2592 212.558 14.6702 212.558 15.0813C210.875 15.1051 209.244 15.832 208.14 17.1085C206.479 19.0707 204.871 21.0784 203.229 23.0558C205.395 25.9354 207.569 28.8085 209.741 31.6815C210.832 33.1029 212.153 34.4789 213.914 35.0198C213.908 35.4265 213.906 35.8332 213.904 36.2421C211.461 36.8717 208.718 36.9085 206.474 35.6212C204.512 34.5178 203.329 32.5448 201.979 30.8226C200.999 29.5397 200.016 28.2568 199.039 26.9717C199.039 30.0416 199.039 33.1116 199.039 36.1837C196.964 36.1837 194.891 36.1859 192.819 36.1815C192.816 27.7981 192.821 19.4125 192.816 11.0291C192.767 9.74404 192.734 8.35726 192.005 7.2474C191.319 6.30846 190.032 6.27168 188.981 6.26086C188.976 5.78274 188.974 5.30461 188.972 4.82649Z" fill="white"/>
<path d="M232.815 6.70654C234.104 6.70654 235.393 6.70654 236.683 6.70654C236.683 9.08635 236.683 11.4662 236.683 13.846C238.414 13.846 240.144 13.846 241.875 13.846C241.873 14.5664 241.873 15.289 241.875 16.0094C240.144 16.0094 238.414 16.0094 236.683 16.0094C236.692 20.9919 236.663 25.9722 236.696 30.9546C236.774 32.1791 236.945 33.7931 238.258 34.3166C239.865 34.7731 241.559 34.083 242.879 33.17C243.115 33.6351 243.349 34.1003 243.582 34.5676C241.607 36.3308 238.831 36.863 236.259 36.6142C234.751 36.4714 233.221 35.9176 232.17 34.7904C230.941 33.5594 230.474 31.7702 230.461 30.0763C230.465 25.388 230.463 20.6998 230.463 16.0094C229.507 16.0094 228.55 16.0094 227.596 16.0094C227.594 15.289 227.594 14.5664 227.596 13.846C228.55 13.846 229.507 13.846 230.463 13.846C230.461 12.4094 230.463 10.9751 230.461 9.53851C231.24 8.58875 232.029 7.64981 232.815 6.70654Z" fill="white"/>
<path d="M247.323 15.4011C248.207 14.077 249.917 13.7677 251.381 13.5405C253.967 13.2744 256.675 13.1424 259.165 14.0338C261.158 14.7326 262.843 16.2881 263.644 18.2503C264.507 20.2689 264.58 22.5037 264.537 24.665C264.537 28.5052 264.539 32.3431 264.537 36.1833C263.172 36.1833 261.809 36.1811 260.446 36.1833C259.866 35.4585 259.315 34.71 258.722 33.996C257.688 35.2378 256.303 36.2633 254.672 36.51C252.593 36.8388 250.386 36.6787 248.432 35.8652C246.581 35.0929 245.112 33.3664 244.858 31.3479C244.584 29.2429 244.995 26.8047 246.717 25.3876C248.294 24.1328 250.334 23.672 252.288 23.3864C254.287 23.1116 256.307 23.0684 258.324 23.0943C258.242 21.0564 258.229 18.8345 257.041 17.0821C255.741 15.2388 253.002 15.1501 251.169 16.1972C249.891 16.9328 249.43 18.4515 249.103 19.7951C248.205 19.7951 247.31 19.7951 246.416 19.7951C246.524 18.3131 246.416 16.6753 247.323 15.4011ZM254.507 25.6342C253.151 25.9631 251.922 26.9345 251.522 28.304C251.087 29.7946 251.093 31.5037 251.846 32.8905C252.72 34.4871 255.055 34.6169 256.403 33.5655C257.368 32.8407 258.395 31.8001 258.324 30.4999C258.311 28.7518 258.319 27.0037 258.317 25.2556C257.039 25.2535 255.743 25.2902 254.507 25.6342Z" fill="white"/>
<path d="M213.856 13.8478C215.914 13.8435 217.971 13.8435 220.029 13.8457C221.039 13.8543 222.157 14.0945 222.837 14.9101C223.577 15.8101 223.726 17.0195 223.832 18.1401C223.992 20.3836 223.89 22.6315 223.918 24.8793C223.918 28.6459 223.918 32.4147 223.918 36.1834C221.842 36.1747 219.767 36.2029 217.692 36.1683C217.703 30.8159 217.701 25.4613 217.694 20.1089C217.627 18.7848 217.631 17.3223 216.824 16.1995C216.113 15.3298 214.893 15.2779 213.858 15.2995C213.856 14.8149 213.856 14.3324 213.856 13.8478Z" fill="white"/>
<path d="M35.6365 5.49505C36.1233 5.42581 36.6122 5.35658 37.099 5.28735C38.9033 6.79529 40.4437 8.6061 41.6963 10.5922C41.3372 10.7047 40.9781 10.8172 40.6189 10.9297C40.0672 10.0902 39.4658 9.28327 38.8103 8.52389C37.8562 7.41187 36.7983 6.38856 35.6365 5.49505Z" fill="#76BF4F"/>
<path d="M15.9793 5.59009C19.0059 6.06172 21.9482 6.99634 24.7716 8.1711C26.4569 8.911 28.0297 9.88889 29.5052 10.9836C30.7903 12.0004 32.1403 13.0367 32.9689 14.4841C32.9624 15.6199 32.3004 16.5891 31.7769 17.5519C30.9158 18.9754 29.6026 20.1307 29.066 21.7425C28.7826 22.5798 28.7978 23.4819 28.8757 24.3538C29.0076 25.1305 29.2326 25.8877 29.5269 26.6189C29.8579 26.5995 30.1824 26.6665 30.336 26.991C30.7449 27.5535 31.1213 28.1398 31.554 28.685C31.5432 28.8192 31.5216 29.0896 31.5107 29.2237C32.7331 30.0047 33.962 30.7771 35.1843 31.5581C32.4519 31.8523 29.6934 32.4278 27.2639 33.7627C25.055 34.9959 23.2593 36.824 21.5999 38.7084C20.9639 39.3617 20.4187 40.2163 19.4819 40.4543C19.4343 38.3903 20.5831 36.5622 21.297 34.6886C20.9466 34.1434 20.7692 33.5139 20.7821 32.8648C20.7995 32.456 20.8341 32.0492 20.8644 31.6425C19.9708 31.1406 19.3196 30.2189 18.305 29.9528C17.286 29.6543 16.3665 30.5153 15.3519 30.312C14.8694 30.2146 14.348 30.0653 14.0192 29.6759C13.8439 29.3276 13.9348 28.9122 13.9002 28.5358C13.9564 27.9062 13.8158 27.2831 13.2814 26.8959C13.2663 26.6687 13.2511 26.4415 13.2382 26.2165C13.1083 26.0651 12.9785 25.9136 12.8487 25.7622C12.8855 25.217 12.6908 24.7108 12.4225 24.2478C12.0007 24.0812 11.6026 23.8627 11.2456 23.5836C11.5853 22.1211 12.4528 20.8771 13.0478 19.5185C12.7514 18.8997 12.5999 18.2247 12.6389 17.5367C12.7103 16.1802 13.5216 15.0076 13.6622 13.6576C14.0949 11.7862 14.5535 9.91701 15.0987 8.07374C15.3454 7.22999 15.6396 6.40139 15.9793 5.59009Z" fill="white"/>
<path d="M109.414 6.80409C110.704 6.69159 112.013 6.79327 113.311 6.76082C113.313 9.12116 113.309 11.4837 113.311 13.844C113.2 13.5736 113.09 13.3031 112.982 13.0349C111.024 12.851 109.055 13.0089 107.091 12.9613C107.091 11.8298 107.091 10.7005 107.089 9.57116C107.874 8.65818 108.614 7.70409 109.414 6.80409Z" fill="#7CC14A"/>
<path d="M1.81738 13.5607C2.70873 11.5292 3.877 9.6189 5.32003 7.9314C6.86041 8.07635 8.40296 8.02659 9.94551 7.98981C11.6633 8.03092 13.3811 8.01793 15.0989 8.07418C14.5537 9.91745 14.095 11.7867 13.6623 13.6581C11.3453 13.6105 9.0282 13.6429 6.71113 13.6126C5.07988 13.5953 3.44647 13.71 1.81738 13.5607Z" fill="#6EBD55"/>
<path d="M159.015 12.9882C161.087 12.8951 163.16 13.0596 165.234 13.0011C165.237 14.8098 165.232 16.6184 165.234 18.4249C163.162 18.3535 161.087 18.3773 159.015 18.3752C159.012 17.9014 159.01 17.4276 159.008 16.9538C157.578 15.9802 155.804 15.3117 154.06 15.6665C152.68 15.9759 151.715 17.1745 151.228 18.4422C149.253 18.3622 147.273 18.492 145.302 18.3362C146.317 16.4562 147.896 14.8249 149.932 14.0764C152.855 12.9817 156.323 13.105 159.015 14.7622C159.012 14.1716 159.012 13.5788 159.015 12.9882Z" fill="#6EBD55"/>
<path d="M85.7791 15.4539C87.9101 13.7188 90.7811 13.3121 93.4464 13.3662C95.6856 13.4635 98.0762 13.6215 100.008 14.8763C100.891 15.4301 101.399 16.3907 101.527 17.4075C100.536 17.5005 99.5431 17.5719 98.5479 17.613C97.5159 16.2522 95.7895 15.5686 94.1106 15.5707C92.938 15.5448 91.627 15.6681 90.7421 16.5248C90.0347 17.1436 89.814 18.1171 89.8097 19.0193C87.8279 19.0063 85.844 18.989 83.8623 19.0647C84.0116 17.6715 84.6714 16.3344 85.7791 15.4539Z" fill="#6EBD55"/>
<path d="M124.425 15.155C125.383 14.0322 126.941 13.7769 128.321 13.5584C131.119 13.2598 134.087 13.1495 136.711 14.3264C138.453 15.0901 139.82 16.5634 140.56 18.305C138.632 18.4392 136.7 18.2877 134.775 18.4435L134.637 18.4132C134.286 17.6906 133.949 16.9161 133.293 16.4142C131.915 15.3065 129.899 15.3562 128.352 16.0615C126.894 16.7495 126.316 18.3829 125.991 19.8497C125.117 19.8476 124.243 19.8497 123.371 19.8497C123.369 18.2509 123.335 16.4488 124.425 15.155Z" fill="#6EBD55"/>
<path d="M55.7073 13.8486C57.6241 13.8421 59.5388 13.8486 61.4556 13.8442C62.5481 13.8486 63.7662 14.0087 64.558 14.8459C65.4212 15.8152 65.538 17.1781 65.6549 18.4135C63.5671 18.3875 61.4772 18.4697 59.3916 18.3486C59.2207 17.5243 59.0736 16.6048 58.4311 15.999C57.6912 15.337 56.6419 15.3327 55.7094 15.2938C55.7094 14.8113 55.7073 14.3289 55.7073 13.8486Z" fill="#6EBD55"/>
<path d="M24.7717 8.17134C27.6989 7.73648 30.6758 8.1497 33.6203 7.91821C33.8734 8.16701 34.1287 8.41148 34.3753 8.66677C34.9898 9.30932 35.5198 10.0233 36.0261 10.7523C33.8561 10.9644 31.6624 10.616 29.5054 10.9838C28.0299 9.88913 26.4571 8.91124 24.7717 8.17134Z" fill="#72BE52"/>
<path d="M38.8101 8.52393C39.4656 9.2833 40.0671 10.0903 40.6188 10.9297C40.9195 11.4013 41.1899 11.8924 41.4538 12.3857C40.0454 12.6453 38.6111 12.5328 37.1875 12.5674C36.8305 11.9422 36.4325 11.3429 36.0257 10.7523C35.5195 10.0232 34.9894 9.30926 34.375 8.66671C35.8548 8.64075 37.3411 8.73162 38.8101 8.52393Z" fill="#8DC874"/>
<path d="M41.6961 10.5925C42.8946 12.5137 43.7989 14.6166 44.3744 16.8082C44.0023 16.8449 43.6324 16.8817 43.2602 16.9185C43.2473 16.8687 43.2191 16.7692 43.204 16.7195C42.7648 15.2223 42.198 13.7598 41.4537 12.386C41.1898 11.8928 40.9194 11.4017 40.6187 10.93C40.9778 10.8175 41.3369 10.705 41.6961 10.5925Z" fill="#69BB59"/>
<path d="M168.207 16.3367L168.233 16.3388C169.334 16.4016 170.433 16.473 171.536 16.5119L171.751 16.5184C170.115 17.1242 169.531 18.9566 169.542 20.5533C169.059 20.5533 168.579 20.5533 168.101 20.5533C168.133 19.147 168.012 17.7343 168.207 16.3367Z" fill="#69BB59"/>
<path d="M29.5051 10.9839C31.6621 10.6161 33.8558 10.9645 36.0258 10.7524C36.4325 11.3431 36.8306 11.9423 37.1876 12.5676C37.5272 13.1885 37.8215 13.8332 38.1027 14.4844C36.3914 14.5104 34.6801 14.5125 32.9688 14.4844C32.1402 13.0371 30.7902 12.0008 29.5051 10.9839Z" fill="#6BBC57"/>
<path d="M41.4541 12.3857C42.1983 13.7595 42.7651 15.222 43.2043 16.7192C41.8111 17.0264 40.381 16.9117 38.9683 16.8879C38.7411 16.0658 38.4382 15.2675 38.1029 14.4843C37.8216 13.8331 37.5274 13.1884 37.1877 12.5675C38.6113 12.5329 40.0457 12.6454 41.4541 12.3857Z" fill="#87C579"/>
<path d="M107.091 12.9612C109.056 13.0088 111.025 12.8509 112.983 13.0348C113.091 13.303 113.201 13.5735 113.311 13.8439C115.042 13.8461 116.773 13.8439 118.506 13.8461C118.504 14.5665 118.504 15.2869 118.506 16.0074C116.773 16.0117 115.042 16.0074 113.314 16.0095C113.309 16.8035 113.309 17.5953 113.311 18.3893C111.239 18.3417 109.164 18.3417 107.091 18.3807C107.094 17.591 107.091 16.7992 107.091 16.0095C106.135 16.0095 105.181 16.0095 104.225 16.0095C104.225 15.2869 104.225 14.5665 104.225 13.8461C105.179 13.8461 106.135 13.8461 107.091 13.8461C107.089 13.5497 107.089 13.2554 107.091 12.9612Z" fill="#70BD54"/>
<path d="M0.519043 17.5519C0.826254 16.1846 1.25678 14.8454 1.81712 13.5603C3.44621 13.7096 5.07962 13.5949 6.71087 13.6122C9.02794 13.6425 11.345 13.6101 13.6621 13.6577C13.5214 15.0077 12.7101 16.1803 12.6388 17.5367C8.59957 17.5757 4.55823 17.5584 0.519043 17.5519Z" fill="#64BA5C"/>
<path d="M134.775 18.4431C136.7 18.2874 138.632 18.4388 140.56 18.3047C140.897 19.1766 141.125 20.0874 141.278 21.0112C139.225 21.048 137.17 21.0588 135.119 21.0025C135.043 20.1847 134.838 19.3886 134.723 18.5773L134.775 18.4431Z" fill="#64BA5C"/>
<path d="M73.9365 13.8464C76.0091 13.8464 78.0839 13.8464 80.1565 13.8464C80.1565 15.6443 80.1565 17.4399 80.1565 19.2378C78.0839 19.2226 76.0091 19.2205 73.9365 19.2702C73.9365 17.4616 73.9343 15.6529 73.9365 13.8464Z" fill="#6CBC56"/>
<path d="M168.233 16.3385C168.56 14.6229 170.386 13.7705 171.995 13.8462C177.698 13.844 183.403 13.8462 189.108 13.8462C188.511 14.7008 187.936 15.5705 187.358 16.438C185.08 16.3731 182.789 16.5678 180.521 16.3017C180.495 16.2303 180.443 16.0854 180.418 16.014C178.178 16.0313 175.935 15.9383 173.702 16.0962C172.958 16.12 172.266 16.4315 171.537 16.5116C170.433 16.4726 169.334 16.4012 168.233 16.3385Z" fill="#71BE53"/>
<path d="M32.9689 14.4846C34.6802 14.5127 36.3915 14.5106 38.1028 14.4846C38.4382 15.2678 38.741 16.0661 38.9682 16.8882C39.0288 17.1176 39.085 17.3469 39.1413 17.5762C36.6857 17.5632 34.2324 17.6043 31.7769 17.5524C32.3004 16.5897 32.9624 15.6204 32.9689 14.4846Z" fill="#63BA5D"/>
<path d="M180.342 16.2756L180.521 16.3016C182.789 16.5677 185.08 16.373 187.358 16.4379C186.663 17.4785 185.971 18.5191 185.277 19.5576C182.964 19.2915 180.63 19.6939 178.325 19.3348C178.994 18.3136 179.693 17.3119 180.342 16.2756Z" fill="#6ABC58"/>
<path d="M43.2041 16.7188C43.2192 16.7685 43.2473 16.868 43.2603 16.9178C43.7817 18.8952 44.0284 20.9483 43.9678 22.9928C43.7428 23.8993 42.9272 24.65 41.9687 24.6478C41.3046 24.7149 40.7572 24.2887 40.1904 24.0204C39.9437 23.3952 39.7469 22.7418 39.7425 22.0647C39.7014 20.5524 39.5002 19.0466 39.1411 17.5755C39.0848 17.3462 39.0286 17.1168 38.968 16.8875C40.3808 16.9113 41.8108 17.026 43.2041 16.7188Z" fill="#7CC282"/>
<path d="M43.2605 16.9184C43.6326 16.8817 44.0026 16.8449 44.3747 16.8081C44.803 18.435 45.0216 20.1117 45.0973 21.7927C44.8333 21.8576 44.5694 21.9225 44.3076 21.9896C44.1929 22.3249 44.0826 22.6603 43.9679 22.9934C44.0285 20.949 43.7819 18.8958 43.2605 16.9184Z" fill="#5AB862"/>
<path d="M73.936 22.0609C76.0086 22.0457 78.0834 22.0479 80.156 22.0587C80.156 22.857 80.156 23.6553 80.156 24.4558C78.0834 24.4645 76.0086 24.4623 73.936 24.4407C73.936 23.6467 73.936 22.8527 73.936 22.0609Z" fill="#5AB862"/>
<path d="M101.527 17.4072C101.648 18.6144 101.708 19.826 101.68 21.0397C101.118 21.0397 100.557 21.0397 99.9971 21.0418C99.7527 19.8152 99.3243 18.6101 98.5476 17.6128C99.5428 17.5717 100.536 17.5003 101.527 17.4072Z" fill="#67BA5A"/>
<path d="M0.519231 17.5523C4.55841 17.5587 8.59976 17.5761 12.6389 17.5371C12.6 18.2251 12.7514 18.9001 13.0478 19.5188C12.4529 20.8775 11.5853 22.1215 11.2457 23.584C7.49639 23.5753 3.74928 23.5039 0 23.5624V21.1198C0.0995192 19.9212 0.248798 18.7248 0.519231 17.5523Z" fill="#57B665"/>
<path d="M31.7766 17.5522C34.2321 17.6042 36.6855 17.5631 39.141 17.576C39.5002 19.0472 39.7014 20.553 39.7425 22.0652C39.7468 22.7424 39.9437 23.3958 40.1903 24.021C37.1788 23.9085 34.1607 24.0188 31.147 23.9626C30.379 23.9799 29.518 23.8328 28.8754 24.3542C28.7975 23.4823 28.7824 22.5801 29.0658 21.7429C29.6023 20.1311 30.9155 18.9758 31.7766 17.5522Z" fill="#55B666"/>
<path d="M148.837 23.5819C149.356 23.6187 149.867 23.4889 150.328 23.2466C150.258 24.5165 150.276 25.7886 150.332 27.0564C150.232 26.8574 150.131 26.6605 150.031 26.4636C147.98 26.2495 145.916 26.4463 143.861 26.3706C143.796 25.436 143.798 24.4971 143.87 23.5624C145.525 23.5451 147.18 23.543 148.837 23.5819Z" fill="#55B666"/>
<path d="M59.3914 18.3481C61.4769 18.4693 63.5668 18.3871 65.6546 18.413C65.7563 20.1243 65.7022 21.8378 65.7152 23.5513C63.6426 23.5426 61.5678 23.5469 59.4952 23.5513C59.4779 21.8162 59.5579 20.0789 59.3914 18.3481Z" fill="#62B95E"/>
<path d="M107.091 18.381C109.164 18.342 111.239 18.342 113.311 18.3896C113.313 20.1009 113.309 21.8122 113.311 23.5257C111.239 23.5711 109.164 23.5344 107.091 23.5603C107.093 21.8339 107.089 20.1074 107.091 18.381Z" fill="#62B95E"/>
<path d="M159.014 18.3742C161.087 18.3764 163.161 18.3526 165.234 18.424C165.236 20.1309 165.232 21.8357 165.234 23.5405C163.159 23.5968 161.087 23.573 159.014 23.5557C159.016 21.8292 159.012 20.1006 159.014 18.3742Z" fill="#62B95E"/>
<path d="M143.87 23.5619C144.01 21.7489 144.46 19.9532 145.302 18.335C147.273 18.4907 149.252 18.3609 151.228 18.441C150.639 19.9727 150.414 21.6169 150.328 23.246C149.867 23.4883 149.356 23.6181 148.837 23.5814C147.18 23.5424 145.525 23.5446 143.87 23.5619Z" fill="#60B95E"/>
<path d="M83.862 19.0644C85.8437 18.9887 87.8276 19.006 89.8093 19.019C89.9716 20.4253 91.2221 21.2647 92.3795 21.851C93.5586 22.4503 94.8177 22.8678 96.012 23.4346C92.5374 23.8781 89.0153 23.4087 85.5278 23.7029C84.2665 22.526 83.6911 20.7649 83.862 19.0644Z" fill="#5FB85F"/>
<path d="M73.9363 19.27C76.0089 19.2202 78.0836 19.2224 80.1562 19.2375C80.1562 20.1765 80.1562 21.1176 80.1562 22.0587C78.0836 22.0479 76.0089 22.0457 73.9363 22.0609C73.9363 21.1306 73.9363 20.2003 73.9363 19.27Z" fill="#62B95D"/>
<path d="M174.955 24.3886C176.08 22.7032 177.198 21.0179 178.325 19.3347C180.629 19.6939 182.964 19.2914 185.276 19.5576C184.193 21.1888 183.107 22.8157 182.02 24.4426C179.664 24.3713 177.311 24.4362 174.955 24.3886Z" fill="#5FB860"/>
<path d="M135.119 21.0027C137.17 21.0589 139.225 21.0481 141.278 21.0113C141.562 23.8238 141.406 26.658 141.417 29.4791C141.384 29.1676 141.354 28.8539 141.328 28.5423C141.283 27.6964 141.278 26.8484 141.216 26.0046C139.219 25.8661 137.215 25.9613 135.216 25.9484C135.216 25.7731 135.214 25.4248 135.214 25.2496C133.563 25.282 131.865 25.3383 130.331 26.0262C127.947 25.8186 125.546 26.0976 123.166 25.8121C124.423 24.5464 126.175 23.9753 127.878 23.614C130.297 23.1575 132.769 23.071 135.225 23.0969C135.195 22.3981 135.156 21.6993 135.119 21.0027Z" fill="#57B664"/>
<path d="M44.3077 21.9896C44.5695 21.9225 44.8334 21.8576 45.0974 21.7927C45.1688 24.0903 44.8853 26.3966 44.2796 28.6141C41.7072 28.4367 39.1284 28.5708 36.5539 28.5297C34.888 28.5708 33.207 28.3891 31.5541 28.6855C31.1214 28.1403 30.745 27.554 30.3361 26.9915C30.1825 26.667 29.8579 26.5999 29.5269 26.6194C29.2327 25.8882 29.0077 25.1309 28.8757 24.3543C29.5183 23.8329 30.3793 23.98 31.1474 23.9627C34.1611 24.0189 37.1791 23.9086 40.1906 24.0211C40.7575 24.2894 41.3048 24.7156 41.969 24.6485C42.9274 24.6507 43.743 23.8999 43.968 22.9934C44.0827 22.6603 44.193 22.3249 44.3077 21.9896Z" fill="#44B36E"/>
<path d="M0 23.5623C3.74928 23.5039 7.49639 23.5753 11.2457 23.584C11.6026 23.863 12.0007 24.0816 12.4226 24.2481C12.6909 24.7111 12.8856 25.2174 12.8488 25.7626C12.9786 25.914 13.1084 26.0654 13.2382 26.2169C13.2512 26.4419 13.2663 26.6691 13.2815 26.8962C13.8159 27.2835 13.9565 27.9065 13.9002 28.5361C11.5724 28.6335 9.24663 28.4993 6.91875 28.5859C5.03437 28.627 3.14784 28.4799 1.26346 28.614C1.0774 28.296 0.876202 27.9888 0.651202 27.6989L0.272596 27.7659L0.543029 27.634C0.257452 26.4138 0.101683 25.1654 0 23.9171V23.5623Z" fill="#44B36E"/>
<path d="M59.4972 27.0649C61.5698 27.0974 63.6424 27.0736 65.715 27.0693C65.6869 28.4993 65.7085 29.9402 66.0157 31.3443C63.9604 31.3335 61.903 31.3508 59.8477 31.3464C59.5145 29.9445 59.4518 28.5015 59.4972 27.0649Z" fill="#44B36E"/>
<path d="M73.9364 27.0671C76.009 27.0844 78.0838 27.0952 80.1563 27.0649C80.1563 28.495 80.1563 29.925 80.1563 31.3551C78.0838 31.3529 76.0112 31.2967 73.9429 31.4048C73.9299 29.9575 73.9386 28.5123 73.9364 27.0671Z" fill="#44B36E"/>
<path d="M170.351 31.3142C171.285 29.8712 172.253 28.4498 173.204 27.0176C175.547 27.1322 177.897 27.0695 180.244 27.0782C179.269 28.545 178.291 30.0096 177.315 31.4743C174.994 31.3445 172.664 31.576 170.351 31.3142Z" fill="#44B36E"/>
<path d="M159.014 27.6768C161.087 27.6573 163.162 27.6703 165.234 27.6768C165.234 28.7672 165.232 29.8597 165.234 30.9501C163.166 30.9588 161.096 30.9479 159.027 30.9523C159.012 29.8597 159.01 28.7693 159.014 27.6768Z" fill="#44B36E"/>
<path d="M96.012 23.4343C97.4463 23.9795 98.831 24.6956 100.097 25.5697C101.146 26.2879 102.1 27.2961 102.379 28.5704C102.379 28.6786 102.377 28.8949 102.375 29.0031L102.329 29.1437C101.76 29.0074 101.18 28.9036 100.596 28.9252C98.8418 28.9641 97.085 28.8798 95.3326 29.0161C92.2129 26.9673 88.2906 26.3269 85.5278 23.7026C89.0153 23.4084 92.5375 23.8778 96.012 23.4343Z" fill="#50B568"/>
<path d="M59.4951 23.5519C61.5677 23.5475 63.6425 23.5432 65.7151 23.5519C65.7172 24.7245 65.7129 25.8971 65.7151 27.0697C63.6425 27.074 61.5699 27.0978 59.4973 27.0653C59.4951 25.8949 59.4951 24.7245 59.4951 23.5519Z" fill="#53B667"/>
<path d="M107.091 23.56C109.164 23.534 111.238 23.5708 113.311 23.5254C113.302 26.009 113.33 28.4949 113.294 30.9785C113.276 30.8682 113.24 30.6453 113.222 30.535C113.157 29.6004 113.183 28.6593 113.086 27.7268C111.091 27.5819 109.09 27.6965 107.091 27.6684C107.091 26.2989 107.089 24.9295 107.091 23.56Z" fill="#51B667"/>
<path d="M159.014 23.5559C161.087 23.5732 163.159 23.597 165.234 23.5408C165.236 24.9211 165.232 26.2992 165.234 27.6773C163.162 27.6708 161.087 27.6578 159.014 27.6773C159.014 26.3035 159.012 24.9297 159.014 23.5559Z" fill="#51B667"/>
<path d="M173.204 27.0173C173.786 26.1389 174.37 25.2627 174.955 24.3887C177.311 24.4363 179.664 24.3714 182.02 24.4428C181.443 25.3319 180.833 26.1973 180.244 27.0779C177.897 27.0692 175.547 27.1319 173.204 27.0173Z" fill="#51B667"/>
<path d="M73.9363 24.4404C76.0089 24.4621 78.0836 24.4642 80.1562 24.4556C80.1562 25.3253 80.1562 26.195 80.1562 27.0647C78.0836 27.095 76.0089 27.0842 73.9363 27.0669C73.9363 26.1907 73.9363 25.3145 73.9363 24.4404Z" fill="#51B668"/>
<path d="M123.14 25.8105L123.166 25.8127C125.546 26.0983 127.947 25.8192 130.331 26.0269C129.362 26.5634 128.622 27.4721 128.337 28.5473C126.165 28.5949 123.995 28.569 121.823 28.5387C122.054 27.5435 122.487 26.6024 123.14 25.8105Z" fill="#4CB46A"/>
<path d="M135.217 25.9487C137.216 25.9616 139.219 25.8664 141.216 26.0049C141.279 26.8487 141.283 27.6967 141.328 28.5426C139.29 28.5881 137.252 28.5773 135.217 28.5513C135.217 27.6837 135.217 26.8162 135.217 25.9487Z" fill="#4CB46A"/>
<path d="M143.861 26.3704C145.917 26.4462 147.981 26.2493 150.032 26.4635C150.131 26.6604 150.233 26.8572 150.332 27.0563C150.382 27.5604 150.425 28.0644 150.488 28.5664C148.381 28.5491 146.274 28.5772 144.166 28.5793C144.026 27.8481 143.922 27.1104 143.861 26.3704Z" fill="#4CB46A"/>
<path d="M0.651123 27.6987C0.876123 27.9886 1.07732 28.2958 1.26338 28.6139C2.07035 30.124 3.06771 31.5216 4.12132 32.8672C8.09559 37.9535 13.6124 41.8045 19.7199 43.8814C20.9768 44.3076 22.2706 44.6105 23.5405 44.9999H19.8021C17.1324 44.6343 14.5103 43.8619 12.1175 42.6093C6.64175 39.786 2.42083 34.6283 0.77444 28.6874C0.696556 28.3629 0.65545 28.0319 0.651123 27.6987Z" fill="#148A72"/>
<path d="M107.091 27.6688C109.09 27.6969 111.091 27.5822 113.086 27.7272C113.183 28.6597 113.157 29.6008 113.222 30.5354C111.184 30.6306 109.144 30.5916 107.104 30.5743C107.08 29.6051 107.091 28.6359 107.091 27.6688Z" fill="#44B36D"/>
<path d="M1.26343 28.614C3.1478 28.4799 5.03434 28.627 6.91872 28.5859C9.2466 28.4994 11.5723 28.6335 13.9002 28.5361C13.9348 28.9126 13.844 29.328 14.0192 29.6763C14.348 30.0657 14.8694 30.215 15.3519 30.3123C16.3666 30.5157 17.286 29.6546 18.305 29.9532C19.3197 30.2193 19.9709 31.1409 20.8644 31.6429C20.8341 32.0496 20.7995 32.4563 20.7822 32.8652C15.2286 32.8501 9.67497 32.8544 4.12136 32.8674C3.06775 31.5217 2.0704 30.1241 1.26343 28.614Z" fill="#33B075"/>
<path d="M31.554 28.6853C33.2069 28.3889 34.8879 28.5707 36.5538 28.5296C39.1283 28.5707 41.7071 28.4365 44.2795 28.6139C44.0091 29.568 43.6845 30.5048 43.2951 31.4178C40.593 31.5022 37.8756 31.2642 35.1843 31.5584C33.9619 30.7774 32.7331 30.005 31.5107 29.224C31.5216 29.0899 31.5432 28.8195 31.554 28.6853Z" fill="#38B173"/>
<path d="M159.027 30.9524C161.095 30.948 163.166 30.9588 165.234 30.9502C165.234 31.9605 165.234 32.9709 165.234 33.979C163.311 34.0072 161.383 33.8622 159.466 34.0504L159.319 34.0548C158.523 34.031 157.736 33.9141 156.95 33.7951C157.848 33.0574 158.874 32.1704 159.027 30.9524Z" fill="#38B173"/>
<path d="M59.8479 31.3461C61.9032 31.3504 63.9606 31.3331 66.0159 31.344C66.2431 32.2872 66.6974 33.1656 67.4157 33.8276C65.3323 34.1218 63.2272 33.8211 61.1395 34.0439L61.1027 34.0483C60.5294 33.2262 60.1054 32.3132 59.8479 31.3461Z" fill="#38B173"/>
<path d="M96.6938 31.364C98.6539 31.364 100.616 31.3337 102.576 31.3964C102.375 32.4089 101.895 33.3457 101.183 34.0943C99.2423 33.7589 97.2671 34.1635 95.3308 33.813C96.1464 33.2505 96.6419 32.3527 96.6938 31.364Z" fill="#38B173"/>
<path d="M121.747 31.3637C123.901 31.3464 126.058 31.3896 128.213 31.342C128.358 32.281 128.769 33.1961 129.531 33.7954C127.315 34.1437 125.065 33.856 122.835 33.9706C122.279 33.194 121.915 32.3026 121.747 31.3637Z" fill="#38B173"/>
<path d="M145.117 31.3983C147.114 31.3377 149.113 31.3788 151.112 31.3398C151.423 32.268 151.899 33.1572 152.652 33.8019C150.772 34.1978 148.851 33.7781 146.962 34.0788C146.235 33.2653 145.616 32.3632 145.117 31.3983Z" fill="#38B173"/>
<path d="M121.822 28.5376C123.994 28.5679 126.164 28.5938 128.336 28.5463C128.122 29.4614 128.079 30.4112 128.213 31.3414C126.058 31.389 123.901 31.3458 121.747 31.3631C121.656 30.422 121.673 29.4722 121.822 28.5376Z" fill="#41B36F"/>
<path d="M135.216 28.5504C137.252 28.5764 139.29 28.5872 141.328 28.5417C141.354 28.8533 141.384 29.167 141.417 29.4785C141.462 30.1016 141.43 30.7268 141.434 31.3521C139.346 31.3629 137.256 31.4192 135.168 31.3283C135.255 30.4045 135.21 29.4764 135.216 28.5504Z" fill="#41B36F"/>
<path d="M144.167 28.5786C146.274 28.5765 148.381 28.5484 150.488 28.5657C150.614 29.5068 150.81 30.4392 151.111 31.3392C149.112 31.3782 147.113 31.3371 145.116 31.3976C144.707 30.4911 144.392 29.5457 144.167 28.5786Z" fill="#41B36F"/>
<path d="M95.333 29.0158C97.0854 28.8795 98.8421 28.9639 100.597 28.9249C101.181 28.9033 101.761 29.0072 102.33 29.1435L102.375 29.0028C102.414 28.9509 102.492 28.8449 102.531 28.793C102.639 29.6562 102.689 30.5302 102.576 31.3956C100.616 31.3329 98.6539 31.3632 96.6938 31.3632C96.6852 30.3874 96.1162 29.5545 95.333 29.0158Z" fill="#41B36F"/>
<path d="M84.1045 29.0448C84.6713 29.0427 85.236 29.0427 85.8028 29.0448C86.0732 30.7107 86.8759 32.3073 88.1869 33.3934C86.9537 33.5859 85.7054 33.5903 84.4614 33.573C84.098 32.0932 84.0915 30.5593 84.1045 29.0448Z" fill="#39B173"/>
<path d="M107.104 30.5741C109.144 30.5914 111.185 30.6303 113.223 30.5352C113.24 30.6455 113.277 30.8683 113.294 30.9787C113.469 32.1945 113.558 33.8279 114.917 34.332C116.524 34.7539 118.194 34.0854 119.514 33.1789C119.748 33.6419 119.979 34.1049 120.211 34.57C118.134 36.4111 115.193 36.9303 112.511 36.5604C111.046 36.3743 109.605 35.734 108.627 34.6046C107.641 33.5034 107.238 32.0171 107.104 30.5741Z" fill="#30B076"/>
<path d="M35.1843 31.5587C37.8757 31.2644 40.593 31.5024 43.2951 31.418C42.1182 34.144 40.4177 36.645 38.2824 38.7111C34.6586 42.2613 29.8016 44.5156 24.7521 45.0003H23.5406C22.2706 44.6108 20.9769 44.3079 19.7199 43.8817C13.6124 41.8048 8.09562 37.9539 4.12134 32.8676C9.67494 32.8546 15.2285 32.8503 20.7822 32.8654C20.7692 33.5144 20.9466 34.144 21.2971 34.6892C20.5831 36.5628 19.4343 38.3909 19.4819 40.4548C20.4187 40.2168 20.9639 39.3623 21.5999 38.7089C23.2593 36.8245 25.055 34.9964 27.2639 33.7632C29.6934 32.4284 32.4519 31.8529 35.1843 31.5587Z" fill="#25AE7A"/>
<path d="M73.9427 31.4054C76.011 31.2972 78.0836 31.3535 80.1562 31.3556C80.1562 32.2297 80.1562 33.1059 80.1562 33.9799C78.248 34.0167 76.3355 33.8696 74.4316 34.0665L74.2434 34.0708C73.4602 34.0383 72.6879 33.9129 71.9155 33.796C72.7787 33.1773 73.4451 32.3379 73.9427 31.4054Z" fill="#37B174"/>
<path d="M135.169 31.3289C137.256 31.4197 139.346 31.3635 141.434 31.3527C141.438 32.2202 141.436 33.0878 141.436 33.9553C139.515 33.9834 137.592 33.8861 135.677 34.0591L135.519 34.0635C134.647 34.044 133.784 33.899 132.914 33.8471C133.873 33.2219 134.691 32.3781 135.169 31.3289Z" fill="#37B174"/>
<path d="M170.331 31.312L170.351 31.3142C172.664 31.576 174.994 31.3445 177.315 31.4743C176.75 32.3245 176.181 33.1704 175.619 34.0207C179.766 34.025 183.914 34.012 188.061 34.0272C188.057 34.7454 188.057 35.4637 188.057 36.182C181.406 36.1841 174.754 36.1841 168.103 36.1841C168.103 35.6736 168.066 35.163 168.127 34.6567C168.798 33.5036 169.613 32.437 170.331 31.312Z" fill="#2EB077"/>
<path d="M88.1867 33.3931C89.74 34.5116 91.7542 34.6089 93.5867 34.3558C94.173 34.2714 94.7355 34.0702 95.2633 33.8041L95.3304 33.8128C97.2667 34.1633 99.242 33.7587 101.183 34.094C98.9477 36.1666 95.7458 36.6577 92.8121 36.675C90.4583 36.6188 87.9573 36.489 85.8912 35.2342C85.2335 34.8621 84.7684 34.252 84.4612 33.5726C85.7052 33.5899 86.9535 33.5856 88.1867 33.3931Z" fill="#2CB078"/>
<path d="M67.4154 33.8279C68.7697 34.6738 70.5783 34.6911 71.9154 33.7954C72.6877 33.9122 73.4601 34.0377 74.2432 34.0702C72.811 35.5608 70.8747 36.6187 68.774 36.6598C66.0697 36.7312 62.9327 36.3029 61.1392 34.0442C63.2269 33.8214 65.3319 34.1221 67.4154 33.8279Z" fill="#2CB078"/>
<path d="M129.53 33.7954C130.569 34.3904 131.85 34.3579 132.914 33.8473C133.784 33.8993 134.647 34.0442 135.519 34.0637C134.407 35.5024 132.721 36.4911 130.891 36.6079C128.031 36.8675 124.734 36.3418 122.834 33.9706C125.065 33.856 127.315 34.1437 129.53 33.7954Z" fill="#2CB078"/>
<path d="M152.651 33.8019C153.9 34.7322 155.685 34.6435 156.95 33.7954C157.735 33.9144 158.523 34.0312 159.319 34.055C158.335 35.299 156.95 36.2812 155.36 36.53C152.396 37.0125 149.11 36.2682 146.961 34.0788C148.85 33.7781 150.771 34.1978 152.651 33.8019Z" fill="#2CB078"/>
<path d="M74.4316 34.0656C76.3355 33.8687 78.248 34.0158 80.1562 33.979C80.1562 34.7125 80.1562 35.448 80.154 36.1836C78.7975 36.1858 77.4389 36.1793 76.0824 36.1858C75.522 35.487 74.9768 34.7752 74.4316 34.0656Z" fill="#2CB078"/>
<path d="M135.677 34.0589C137.591 33.8859 139.515 33.9832 141.436 33.9551C141.436 34.6972 141.436 35.4392 141.434 36.1835C140.066 36.1835 138.701 36.1791 137.334 36.1856C136.776 35.4803 136.228 34.7664 135.677 34.0589Z" fill="#2CB078"/>
<path d="M159.466 34.051C161.383 33.8628 163.311 34.0078 165.234 33.9796C165.234 34.7152 165.234 35.4486 165.232 36.1842C163.865 36.1842 162.497 36.182 161.132 36.1864C160.57 35.4789 160.024 34.7606 159.466 34.051Z" fill="#2CB078"/>
</g>
<defs>
<clipPath id="clip0_691_4839">
<rect width="264.591" height="45" fill="white"/>
</clipPath>
</defs>
</svg>
