<svg width="27" height="26" viewBox="0 0 27 26" fill="none" xmlns="http://www.w3.org/2000/svg">
<path d="M26.4681 7.51086C26.4519 6.44292 26.2454 5.38344 25.8502 4.38463C25.1587 2.67902 23.7505 1.33034 21.9678 0.670109C20.9371 0.29908 19.8474 0.100164 18.7444 0.0775916C17.3259 0.0169292 16.8762 0 13.2753 0C9.67449 0 9.21296 9.45985e-08 7.80477 0.0775916C6.70328 0.100164 5.61359 0.29908 4.58289 0.670109C2.80016 1.33034 1.3905 2.67902 0.700409 4.38463C0.312603 5.37075 0.103218 6.41329 0.0825745 7.46713C0.0191691 8.82569 0 9.25597 0 12.701C0 16.1461 -1.09862e-08 16.5863 0.0825745 17.9349C0.104693 18.9902 0.312603 20.0313 0.700409 21.0203C1.39197 22.7244 2.80016 24.0731 4.58436 24.7334C5.61064 25.1171 6.70033 25.3343 7.80624 25.3682C9.22623 25.4289 9.67596 25.4472 13.2768 25.4472C16.8776 25.4472 17.3392 25.4472 18.7474 25.3682C19.8489 25.347 20.9385 25.1481 21.9707 24.7771C23.7534 24.1155 25.1616 22.7668 25.8532 21.0626C26.241 20.075 26.4489 19.0339 26.471 17.9773C26.5344 16.6201 26.5536 16.1898 26.5536 12.7434C26.5507 9.29829 26.5507 8.86096 26.4681 7.51086ZM13.2665 19.2159C9.50049 19.2159 6.44966 16.297 6.44966 12.694C6.44966 9.09091 9.50049 6.17205 13.2665 6.17205C17.0295 6.17205 20.0833 9.09091 20.0833 12.694C20.0833 16.297 17.0295 19.2159 13.2665 19.2159ZM20.3546 7.45161C19.4743 7.45161 18.7651 6.77163 18.7651 5.93082C18.7651 5.09001 19.4743 4.41002 20.3546 4.41002C21.232 4.41002 21.9427 5.09001 21.9427 5.93082C21.9427 6.77163 21.232 7.45161 20.3546 7.45161Z" fill="white"/>
<path d="M13.2664 16.9305C15.712 16.9305 17.6945 15.0338 17.6945 12.694C17.6945 10.3543 15.712 8.45752 13.2664 8.45752C10.8209 8.45752 8.83838 10.3543 8.83838 12.694C8.83838 15.0338 10.8209 16.9305 13.2664 16.9305Z" fill="white"/>
</svg>
