<svg width="25" height="23" viewBox="0 0 25 23" fill="none" xmlns="http://www.w3.org/2000/svg">
<path d="M20.1914 3.83325H4.0383C2.92778 3.83325 2.01917 4.69575 2.01917 5.74992V17.2499C2.01917 18.3041 2.92778 19.1666 4.0383 19.1666H20.1914C21.3019 19.1666 22.2106 18.3041 22.2106 17.2499V5.74992C22.2106 4.69575 21.3019 3.83325 20.1914 3.83325ZM19.7876 7.90617L13.185 11.8258C12.5288 12.2187 11.7009 12.2187 11.0447 11.8258L4.44213 7.90617C4.18974 7.75284 4.0383 7.49409 4.0383 7.21617C4.0383 6.57409 4.77529 6.19075 5.35074 6.52617L12.1149 10.5416L18.879 6.52617C19.4544 6.19075 20.1914 6.57409 20.1914 7.21617C20.1914 7.49409 20.04 7.75284 19.7876 7.90617Z" fill="white"/>
</svg>
