<svg width="24" height="24" viewBox="0 0 24 24" fill="none" xmlns="http://www.w3.org/2000/svg">
<path d="M23.7028 19.7256V19.7204C23.7028 19.7204 19.1603 15.1867 19.1575 15.1845C18.7973 14.8244 18.2214 14.8322 17.867 15.1869L15.7761 17.2847C14.9633 18.0972 13.9151 17.3762 11.9032 15.737C10.572 14.6524 9.04049 13.194 7.71257 11.5497C6.78065 10.396 5.95656 9.18448 6.80791 8.33401C6.81011 8.33181 8.90742 6.24156 8.90702 6.23936L8.90862 6.23495C9.285 5.85888 9.24852 5.28275 8.90481 4.93891V4.93371C8.90481 4.93371 4.23101 0.269405 4.22841 0.266602C3.86827 -0.0932538 3.29249 -0.0852436 2.93796 0.269005L0.831632 2.37367C-0.036151 3.45884 -1.96471 8.63078 6.30327 17.0991C15.0132 26.0206 20.6335 24.1122 21.6011 23.1055C21.6011 23.1055 23.7052 21.0279 23.7052 21.0259L23.707 21.0217C24.0834 20.6454 24.0463 20.0697 23.7028 19.7256V19.7256Z" fill="white"/>
</svg>
