<svg width="1018" height="1208" viewBox="0 0 1018 1208" fill="none" xmlns="http://www.w3.org/2000/svg">
<path fill-rule="evenodd" clip-rule="evenodd" d="M759.162 188.379C832.172 224.113 897.434 264.225 966.549 307.009C1056.35 362.595 1179.37 382.634 1226.02 477.38C1273.66 574.126 1251.69 695.943 1206.21 793.723C1162.59 887.496 1072.31 947.962 982.939 1000.01C902.604 1046.8 813.505 1080.44 720.62 1076.53C634.057 1072.88 562.047 1019.37 485.356 979.059C409.142 938.998 334.777 901.332 273.073 841.28C192.899 763.251 79.2702 690.959 74.4849 579.184C69.7313 468.151 184.21 393.255 250.06 303.73C314.926 215.542 351.054 82.2122 457.823 58.0208C566.766 33.3367 658.829 139.273 759.162 188.379Z" stroke="white" stroke-opacity="0.05" stroke-width="4.96751"/>
<path fill-rule="evenodd" clip-rule="evenodd" d="M826.659 155.3C899.669 191.034 964.931 231.146 1034.05 273.93C1123.84 329.516 1246.87 349.555 1293.52 444.301C1341.16 541.047 1319.18 662.864 1273.7 760.644C1230.09 854.417 1139.8 914.883 1050.44 966.931C970.101 1013.72 881.002 1047.36 788.117 1043.45C701.554 1039.8 629.544 986.292 552.853 945.98C476.639 905.919 402.274 868.253 340.57 808.201C260.396 730.172 146.767 657.88 141.982 546.105C137.228 435.072 251.707 360.176 317.557 270.651C382.423 182.463 418.551 49.1333 525.32 24.9418C634.263 0.257735 726.327 106.194 826.659 155.3Z" stroke="white" stroke-opacity="0.05" stroke-width="4.96751"/>
<path fill-rule="evenodd" clip-rule="evenodd" d="M889.852 115.832C962.863 151.566 1028.12 191.678 1097.24 234.462C1187.04 290.048 1310.06 310.088 1356.72 404.833C1404.35 501.579 1382.38 623.397 1336.9 721.176C1293.28 814.949 1203 875.415 1113.63 927.463C1033.29 974.25 944.195 1007.89 851.311 1003.98C764.748 1000.34 692.738 946.824 616.047 906.512C539.832 866.451 465.468 828.786 403.764 768.733C323.589 690.704 209.961 618.412 205.176 506.637C200.422 395.604 314.901 320.709 380.751 231.183C445.617 142.995 481.745 9.66539 588.514 -14.5261C697.457 -39.2101 789.52 66.7263 889.852 115.832Z" stroke="white" stroke-opacity="0.05" stroke-width="4.96751"/>
<path fill-rule="evenodd" clip-rule="evenodd" d="M933.14 83.5803C1006.15 119.314 1071.41 159.426 1140.53 202.21C1230.32 257.796 1353.35 277.836 1400 372.581C1447.64 469.327 1425.66 591.145 1380.19 688.924C1336.57 782.697 1246.29 843.163 1156.92 895.211C1076.58 941.998 987.483 975.64 894.599 971.729C808.036 968.084 736.026 914.572 659.335 874.26C583.12 834.199 508.756 796.534 447.052 736.481C366.877 658.452 253.249 586.16 248.464 474.385C243.71 363.352 358.189 288.457 424.039 198.931C488.905 110.743 525.033 -22.5866 631.802 -46.778C740.745 -71.4621 832.808 34.4743 933.14 83.5803Z" stroke="white" stroke-opacity="0.05" stroke-width="4.96751"/>
<path fill-rule="evenodd" clip-rule="evenodd" d="M998.116 44.4602C1071.13 80.1941 1136.39 120.306 1205.5 163.09C1295.3 218.676 1418.33 238.715 1464.98 333.461C1512.62 430.207 1490.64 552.024 1445.16 649.804C1401.55 743.577 1311.26 804.043 1221.89 856.091C1141.56 902.878 1052.46 936.52 959.575 932.609C873.012 928.964 801.002 875.452 724.311 835.14C648.096 795.079 573.732 757.414 512.028 697.361C431.853 619.332 318.225 547.04 313.44 435.265C308.686 324.232 423.165 249.337 489.015 159.811C553.881 71.6228 590.009 -61.7067 696.778 -85.8981C805.721 -110.582 897.784 -4.64579 998.116 44.4602Z" stroke="white" stroke-opacity="0.05" stroke-width="4.96751"/>
<path fill-rule="evenodd" clip-rule="evenodd" d="M788.629 170.08C861.639 205.814 926.901 245.925 996.017 288.71C1085.81 344.296 1208.84 364.335 1255.49 459.08C1303.13 555.826 1281.15 677.644 1235.67 775.423C1192.06 869.197 1101.78 929.662 1012.41 981.711C932.071 1028.5 842.972 1062.14 750.088 1058.23C663.525 1054.58 591.514 1001.07 514.824 960.76C438.609 920.698 364.244 883.033 302.541 822.981C222.366 744.952 108.738 672.66 103.952 560.885C99.1987 449.852 213.678 374.956 279.527 285.431C344.394 197.242 380.521 63.9127 487.29 39.7213C596.233 15.0372 688.297 120.974 788.629 170.08Z" stroke="white" stroke-opacity="0.05" stroke-width="4.96751"/>
<path fill-rule="evenodd" clip-rule="evenodd" d="M856.126 137.001C929.136 172.735 994.398 212.846 1063.51 255.631C1153.31 311.217 1276.34 331.256 1322.99 426.001C1370.63 522.747 1348.65 644.565 1303.17 742.344C1259.55 836.118 1169.27 896.583 1079.9 948.632C999.568 995.419 910.469 1029.06 817.585 1025.15C731.021 1021.5 659.011 967.992 582.321 927.681C506.106 887.619 431.741 849.954 370.038 789.902C289.863 711.873 176.234 639.581 171.449 527.806C166.696 416.773 281.174 341.877 347.024 252.352C411.89 164.163 448.018 30.8338 554.787 6.64232C663.73 -18.0418 755.794 87.8947 856.126 137.001Z" stroke="white" stroke-opacity="0.05" stroke-width="4.96751"/>
<path fill-rule="evenodd" clip-rule="evenodd" d="M919.32 97.5328C992.33 133.267 1057.59 173.378 1126.71 216.163C1216.5 271.749 1339.53 291.788 1386.18 386.534C1433.82 483.279 1411.84 605.097 1366.36 702.876C1322.75 796.65 1232.47 857.115 1143.1 909.164C1062.76 955.951 973.663 989.592 880.778 985.681C794.215 982.037 722.205 928.524 645.514 888.213C569.3 848.151 494.935 810.486 433.231 750.434C353.057 672.405 239.428 600.113 234.643 488.338C229.889 377.305 344.368 302.409 410.218 212.884C475.084 124.695 511.212 -8.63409 617.981 -32.8255C726.924 -57.5096 818.988 48.4268 919.32 97.5328Z" stroke="white" stroke-opacity="0.05" stroke-width="4.96751"/>
<path fill-rule="evenodd" clip-rule="evenodd" d="M962.608 65.2809C1035.62 101.015 1100.88 141.126 1170 183.911C1259.79 239.497 1382.82 259.536 1429.47 354.282C1477.11 451.028 1455.13 572.845 1409.65 670.624C1366.04 764.398 1275.75 824.863 1186.38 876.912C1106.05 923.699 1016.95 957.341 924.066 953.43C837.503 949.785 765.493 896.272 688.802 855.961C612.588 815.9 538.223 778.234 476.52 718.182C396.345 640.153 282.716 567.861 277.931 456.086C273.177 345.053 387.656 270.157 453.506 180.632C518.372 92.4436 554.5 -40.8859 661.269 -65.0774C770.212 -89.7615 862.276 16.175 962.608 65.2809Z" stroke="white" stroke-opacity="0.05" stroke-width="4.96751"/>
<path fill-rule="evenodd" clip-rule="evenodd" d="M1027.58 26.1606C1100.59 61.8945 1165.86 102.006 1234.97 144.79C1324.77 200.377 1447.79 220.416 1494.45 315.161C1542.08 411.907 1520.11 533.725 1474.63 631.504C1431.01 725.278 1340.73 785.743 1251.36 837.792C1171.03 884.579 1081.93 918.22 989.042 914.309C902.479 910.664 830.469 857.152 753.778 816.84C677.563 776.779 603.199 739.114 541.495 679.062C461.32 601.033 347.692 528.74 342.907 416.966C338.153 305.932 452.632 231.037 518.482 141.512C583.348 53.3232 619.476 -80.0063 726.245 -104.198C835.188 -128.882 927.251 -22.9454 1027.58 26.1606Z" stroke="white" stroke-opacity="0.05" stroke-width="4.96751"/>
</svg>
