<svg width="368" height="115" viewBox="0 0 368 115" fill="none" xmlns="http://www.w3.org/2000/svg">
<ellipse cx="58.8837" cy="56.9415" rx="40.25" ry="40.5" fill="white"/>
<path d="M34.1511 24.38C46.9592 14.3695 65.9199 13.3509 79.7224 21.9266C91.6343 28.9252 99.2295 42.3747 99.4153 56.1747C94.6068 55.5285 90.5415 52.4728 85.6893 51.9581C85.9625 52.7904 86.498 54.4552 86.7712 55.2766C91.1535 56.2624 95.0768 58.5624 99.4481 59.6028C99.306 60.3257 99.0219 61.7714 98.8798 62.5052C95.0768 61.4866 91.5797 59.6028 87.8203 58.4747C88.8913 63.3266 94.7489 63.7976 98.6175 65.32C98.2569 66.4371 97.8853 67.5543 97.5247 68.6714C94.6287 67.4009 91.7764 66.01 88.7711 64.9914C89.241 68.9781 93.9948 69.4381 96.8034 71.2233C96.4428 72.0228 95.7106 73.6219 95.35 74.4214C93.1971 73.4138 90.5852 69.9419 88.17 72.2638C90.1153 73.8081 92.2354 75.1224 94.2899 76.5243C93.9183 77.2252 93.1643 78.6162 92.7818 79.3171C91.1316 78.2109 89.4705 77.1157 87.7766 76.0862C87.864 75.6809 88.0498 74.8595 88.1372 74.4543C85.7876 73.4795 82.4436 73.1838 81.6786 70.2705C80.4109 66.9957 78.0285 64.389 76.4002 61.3333C76.9685 55.4628 79.5148 48.6504 74.9358 43.6562C74.3675 44.2695 73.8102 44.8938 73.2528 45.5181C72.3348 43.6781 71.3513 41.8709 70.4114 40.0419C70.3131 40.699 70.1054 42.0243 69.9962 42.6814C68.2258 41.619 67.1001 39.4833 65.2751 38.3662C65.5483 39.1985 66.0838 40.8743 66.3461 41.7176C62.6304 37.9938 56.292 36.9424 52.3687 40.9509C51.8551 40.4471 51.3414 39.9433 50.8278 39.4395C47.2761 42.5609 45.6915 47.7962 47.2979 52.2976C48.1613 55.2766 50.0082 58.1133 49.6475 61.3114C48.6749 64.9585 44.9374 67.3133 44.5768 71.1795C45.1888 75.6262 49.6476 78.7038 49.5929 83.26C48.3143 87.3452 45.8882 90.9923 45.0249 95.2309C44.085 94.8366 43.1342 94.4424 42.1944 94.0481C43.2872 90.2366 45.5822 86.9181 46.7297 83.1395C47.145 78.2876 41.7245 75.1114 42.0086 70.2924C42.9812 66.9738 46.074 64.7724 47.0247 61.4647C47.4728 57.2043 44.6642 53.4585 44.5659 49.2528C44.6861 46.3504 46.0084 43.7 46.7843 40.9509C46.2707 41.8162 45.2216 43.5685 44.697 44.4338C44.2599 43.8314 43.8227 43.2181 43.3856 42.6047C42.0086 45.08 40.0634 47.4019 39.7465 50.3152C39.2765 54.0609 41.1671 57.5876 41.1453 61.3114C39.1126 64.8381 36.2057 67.9157 35.2768 72.0119C33.5829 72.8114 31.8671 73.5781 30.1623 74.3447C28.982 76.5681 26.8182 77.9262 24.9385 79.4814C24.4905 78.7366 23.5943 77.2581 23.1353 76.5133C25.0915 74.8814 28.1624 74.0709 29.0476 71.5081C26.4138 70.7962 24.4358 73.1838 22.3376 74.279C21.7365 73.2824 21.1464 72.2857 20.5453 71.2781C23.2228 70.0514 25.8128 68.6495 28.4575 67.3462C28.2607 66.7657 27.8673 65.6047 27.6815 65.0243C25.3101 66.2181 23.0042 67.5214 20.5344 68.4852C20.0208 67.7514 18.9826 66.2728 18.4689 65.5281C22.0425 64.4766 25.4303 62.9104 28.8509 61.4757C28.9383 60.4462 29.0148 59.4276 29.0804 58.3981C25.6926 59.8219 22.3704 61.4538 18.8296 62.4943C18.6329 61.7604 18.2394 60.3038 18.0427 59.57C22.3594 58.6062 26.2281 56.3062 30.5448 55.3533C30.9928 54.2471 31.4409 53.1409 31.889 52.0238C26.9931 52.4838 22.8621 55.4738 18.0427 56.2514C18.2504 43.8862 24.25 31.8057 34.1511 24.38ZM56.6089 23.5804C54.915 23.7447 53.2211 23.909 51.5272 24.0843C52.7731 25.2124 54.008 26.3295 55.2538 27.4576C54.7183 28.969 54.1719 30.4914 53.6255 32.0028C50.7732 30.1738 47.6695 28.7938 44.4129 27.8847C45.5057 30.2066 46.6423 32.5066 47.8116 34.7957C45.3855 33.6128 42.872 32.6381 40.3147 31.7728C41.7573 34.4233 43.3091 37.0081 44.8172 39.6257C53.5708 35.3543 63.9637 35.5514 72.761 39.5709C74.2364 36.9533 75.7554 34.3685 77.2526 31.7509C74.6954 32.6162 72.1709 33.5909 69.712 34.7409C70.8704 32.4628 72.0179 30.1847 73.1326 27.8957C69.8432 28.7828 66.7286 30.1847 63.8107 31.9371C63.2971 30.4585 62.7725 28.98 62.2479 27.5014C63.4938 26.3624 64.7396 25.2233 65.9855 24.0733C64.2697 23.8981 62.543 23.7338 60.8273 23.5695C60.1497 21.9814 59.4831 20.3824 58.8055 18.7943C58.0733 20.3933 57.3411 21.9924 56.6089 23.5804ZM27.2007 35.8033C27.0914 42.4404 23.4195 48.0262 19.3213 52.9219C24.1735 52.1004 28.4793 49.0447 33.561 49.5157C35.9215 46.6681 38.5662 44.0943 41.2436 41.5424C38.0198 41.1371 34.8068 41.5533 31.7578 42.6376C30.7087 40.0638 29.1897 37.7309 27.2007 35.8033ZM85.733 42.6266C82.7058 41.5862 79.5257 41.1262 76.3346 41.5424C78.9902 44.1162 81.613 46.7338 84.0172 49.5485C89.0443 49.0228 93.2954 52.1333 98.1039 52.9C93.9511 47.9385 90.4322 42.2324 90.2246 35.5624C88.4214 37.709 86.8695 40.0638 85.733 42.6266Z" fill="#106E33"/>
<path d="M54.2593 33.6128C55.7346 32.4628 57.2209 31.3237 58.6962 30.1847C60.2699 31.3347 61.8326 32.4847 63.4172 33.6237C60.3682 33.4814 57.3083 33.4704 54.2593 33.6128Z" fill="#106E33"/>
<path d="M48.828 42.8566C51.5601 40.9728 54.5545 43.5466 57.3412 44.138C57.4505 45.4195 57.5598 46.6899 57.669 47.9604C55.3085 47.9823 52.9371 47.9823 50.5765 47.9714C50.9044 52.0676 52.4125 56.4595 56.1281 58.6609C58.7947 60.4461 62.2152 58.7923 63.9091 56.4485C65.9746 54.1266 66.4554 50.9942 66.9035 48.0371C65.2424 48.0152 63.5813 47.9933 61.9202 47.9604C61.4175 48.3985 60.3902 49.2966 59.8766 49.7457C59.7454 46.4928 59.7673 42.5061 64.2916 42.5938C63.6687 43.8095 63.0349 45.0142 62.3682 46.208C64.0075 46.0547 65.6358 45.8904 67.2641 45.7261L64.9801 45.2333C65.8216 44.1271 66.4117 42.7799 67.4499 41.849C70.4115 47.2266 67.7559 52.878 65.7451 58.0038C63.8108 62.7242 68.6083 65.9552 69.9853 69.9638C70.5973 75.0676 64.991 78.2328 65.002 83.2052C65.6577 87.6519 69.4826 91.299 68.9252 95.9647C68.3242 96.2933 67.1002 96.9504 66.4882 97.279C66.215 92.6133 63.8217 88.5828 62.3573 84.2785C61.2098 78.868 67.7122 75.5385 67.3188 70.2595C66.2806 67.1052 63.8763 64.5971 62.6961 61.4866C60.117 61.6947 57.527 61.6947 54.9588 61.4428C53.549 64.4328 51.3634 67.0176 50.1613 70.1171C49.7023 75.1552 55.3085 78.2547 55.4069 83.1942C54.2485 87.8599 51.2978 91.978 51.112 96.9285C50.347 96.7095 48.8171 96.2714 48.0521 96.0414C48.6422 91.8685 50.9372 88.2761 52.2595 84.3442C53.5709 78.9447 47.1013 75.5714 47.3745 70.3252C48.4892 66.218 53.4616 63.2171 51.9207 58.5295C50.0192 53.4804 47.7242 48.4095 48.828 42.8566ZM51.6584 45.5399C52.7731 46.3942 53.8878 46.3942 55.0244 45.5399C55.232 43.908 51.3743 43.8095 51.6584 45.5399Z" fill="#106E33"/>
<path d="M69.9962 42.6814H70.5864C72.8376 45.321 73.5479 49.1433 72.4005 52.4181C71.7011 55.5395 69.7995 58.661 70.5973 61.9357C72.1163 65.1557 74.5971 67.8171 75.974 71.1248C74.4113 74.9143 71.5808 78.1343 70.6519 82.1757C71.3404 86.4362 74.2692 89.93 75.2528 94.1357C74.5971 94.4314 73.2857 95.0119 72.63 95.2967C71.6355 91.0033 69.0782 87.3124 67.8871 83.1067C67.9526 78.6381 72.3021 75.6043 72.8485 71.2124C72.5863 67.3243 68.8378 64.9257 67.8106 61.3005C67.4936 57.029 70.488 53.4476 70.8814 49.2967C70.9907 47.0514 69.5919 44.8938 69.9962 42.6814Z" fill="#106E33"/>
<path d="M73.9196 46.4052C74.5753 46.3504 75.1108 46.5366 75.5479 46.9856C77.9084 51.7061 74.6408 56.4375 74.7064 61.2347C75.7009 64.5642 78.7499 66.8204 79.8209 70.128C80.1815 72.5704 78.7281 74.8156 78.0286 77.0718C80.3127 78.6271 82.7934 79.8209 85.4162 80.6861C85.9298 80.0071 86.9462 78.6599 87.4598 77.9809C88.8805 79.0542 90.2903 80.1604 91.6891 81.2885C89.8203 84.4537 87.1538 81.6828 84.7824 80.8832C85.7768 82.3618 86.8478 83.7856 87.9188 85.1985C87.4598 85.7023 86.52 86.7099 86.061 87.2137C84.8261 86.458 83.5912 85.7023 82.3563 84.9794C82.9245 86.2171 83.4928 87.4437 84.083 88.6594C83.2087 89.3604 82.3453 90.0504 81.482 90.7513C79.4384 87.0604 77.0888 83.5337 75.373 79.6675C75.2747 84.2018 78.0833 87.9147 79.799 91.9014C79.198 92.1752 77.9849 92.7118 77.3839 92.9856C76.1599 89.2947 73.9196 85.9871 73.0562 82.1756C73.4606 78.1233 77.3183 75.2537 77.5369 71.1356C77.5587 66.8313 72.6082 64.4547 72.335 60.2709C72.9907 55.649 75.8211 51.1804 73.9196 46.4052Z" fill="#106E33"/>
<path d="M41.495 46.2409C42.0196 46.9857 42.5332 47.7414 43.0359 48.4971C42.6206 52.6043 44.544 56.339 45.156 60.3038C44.8172 62.4614 43.5386 64.3014 42.6862 66.2619C42.1507 65.7362 41.6262 65.1995 41.0907 64.6738C45.2544 59.0114 39.1236 52.4509 41.495 46.2409Z" fill="#106E33"/>
<path d="M55.057 54.0718C57.5596 54.028 60.0513 54.0718 62.5539 54.1704C61.3955 54.9152 60.2917 55.7695 59.0131 56.3171C57.4394 56.2623 56.3356 54.8385 55.057 54.0718Z" fill="#106E33"/>
<path d="M39.2876 66.0647C39.8012 66.6999 40.3149 67.3461 40.8176 68.0033C38.4461 71.968 41.6809 75.6042 43.4295 78.9885C46.2927 83.8514 41.0689 88.4514 40.0745 93.139C39.4953 92.7775 38.3259 92.0437 37.7467 91.6823C39.386 87.838 42.435 84.2675 41.7574 79.8428C40.4242 83.7528 38.0527 87.148 35.9545 90.6637C35.2988 90.1599 33.9874 89.1633 33.3317 88.6594C33.9655 87.4328 34.5884 86.1952 35.1895 84.9575C33.9436 85.6914 32.7197 86.4361 31.4957 87.2137C30.8072 86.4033 30.1078 85.6037 29.4193 84.8042C30.5668 83.7528 31.7033 82.6904 32.829 81.6061C30.7854 80.8066 29.3319 82.548 27.8128 83.5118C27.3101 82.6904 26.8511 81.858 26.4031 81.0147C27.4303 79.8647 28.6215 78.8899 29.769 77.8604C30.4247 78.7585 31.0695 79.6566 31.7252 80.5656C34.348 79.8866 37.0145 79.0761 39.1237 77.2909C38.1401 73.5123 36.7304 69.6461 39.2876 66.0647Z" fill="#106E33"/>
<path d="M85.722 93.4348C87.0772 93.4567 88.4432 93.4786 89.8093 93.4676C89.5579 94.0262 89.0661 95.1543 88.8148 95.7129C88.4104 95.6472 87.5908 95.5267 87.1864 95.461C86.8258 94.9572 86.0827 93.9386 85.722 93.4348Z" fill="#106E33"/>
<path d="M345.828 48.957C346.801 48.9242 347.784 48.9023 348.768 48.8804C349.074 49.2308 349.675 49.9099 349.981 50.2494C350.145 50.5561 350.473 51.1694 350.637 51.4761C350.473 51.7718 350.145 52.3742 349.981 52.6808L349.533 53.2175C348.91 53.1408 347.653 52.9875 347.03 52.9108L347.282 51.7827C346.528 51.6842 345.009 51.498 344.255 51.3994C344.899 51.3885 346.2 51.3775 346.845 51.3775C346.593 50.7642 346.08 49.5594 345.828 48.957Z" fill="white"/>
<path d="M121.775 49.8442C126.452 47.4238 131.851 48.9571 136.506 50.6109C135.818 52.2757 135.14 53.9404 134.452 55.6052C131.414 54.3676 127.337 52.3523 124.769 55.5504C127.753 56.6676 130.955 57.1823 133.818 58.6171C138.014 60.7419 138.036 67.5323 134.047 69.898C128.911 73.0852 122.409 71.6614 117.316 69.1095C118.114 67.4666 118.912 65.8347 119.709 64.1919C122.649 65.2761 126.736 68.0799 129.184 64.6409C126.441 63.1623 123.283 62.6476 120.562 61.1142C116.638 58.4966 117.622 51.7609 121.775 49.8442Z" fill="white"/>
<path d="M140.003 49.0228C147.096 48.979 154.199 49.0119 161.292 48.99C161.292 50.8957 161.292 52.8014 161.292 54.6961C159.095 54.6961 156.909 54.6962 154.724 54.6852C154.691 60.2162 154.702 65.7362 154.724 71.2671C152.035 71.289 149.358 71.3 146.681 71.3109C146.691 65.8238 146.691 60.3476 146.681 54.8714C144.462 54.8276 142.244 54.7947 140.036 54.74C140.014 52.8342 140.003 50.9285 140.003 49.0228Z" fill="white"/>
<path d="M169.772 49.3623C173.051 48.6942 176.427 49.0446 179.75 48.9461C182.514 56.3718 185.159 63.8304 187.826 71.2889C185.192 71.2999 182.558 71.3218 179.935 71.3546C179.455 69.9746 178.974 68.6056 178.504 67.2365C176.023 67.2256 173.542 67.2146 171.062 67.2037C170.57 68.5837 170.089 69.9637 169.597 71.3437C166.952 71.3218 164.308 71.3108 161.674 71.2889C164.406 63.9946 166.745 56.5361 169.772 49.3623ZM174.613 54.5975C174.012 56.9742 173.422 59.3508 172.843 61.7275C174.154 61.7165 175.477 61.7056 176.788 61.7056C176.078 59.3289 175.367 56.9523 174.613 54.5975Z" fill="white"/>
<path d="M192.361 49.0228C197.935 49.2857 203.792 48.1247 209.169 50.0085C214.557 52.5385 213.879 60.5119 209.06 63.3376C210.808 65.988 212.557 68.6385 214.272 71.3109C211.464 71.3109 208.666 71.3 205.869 71.2452C204.35 68.5619 202.907 65.6923 200.284 63.918C200.109 66.3714 200.055 68.8466 200.011 71.3109C197.487 71.3109 194.962 71.3109 192.438 71.3109C192.274 63.8852 192.164 56.4595 192.361 49.0228ZM200 54.4333C200.055 56.0652 200.12 57.6971 200.197 59.329C201.738 59.0442 203.289 58.8142 204.798 58.3761C204.94 57.1166 204.929 55.8461 204.951 54.5757C203.3 54.5209 201.65 54.4771 200 54.4333Z" fill="white"/>
<path d="M219.453 49.0228C225.19 49.2857 231.146 48.1905 236.719 49.8662C240.938 51.4981 240.96 57.6205 237.156 59.7781C241.145 61.8481 241.746 68.31 237.353 70.2595C231.627 72.22 225.387 70.9933 219.453 71.3C219.442 63.8743 219.442 56.4486 219.453 49.0228ZM227.212 53.6776C227.201 55.1233 227.19 56.58 227.19 58.0257C228.829 57.4781 232.075 58.3543 232.271 55.89C232.49 53.2286 228.84 54.3457 227.212 53.6776ZM227.07 62.1C227.168 63.5786 227.277 65.0571 227.397 66.5467C229.069 66.3824 230.742 66.229 232.414 66.0428C232.315 65.09 232.173 64.1371 231.998 63.1952C230.643 62.1328 228.665 62.5162 227.07 62.1Z" fill="white"/>
<path d="M245.659 49.0119C248.336 49.0009 251.014 49.0009 253.702 49.0009C253.8 53.82 253.33 58.6828 254.019 63.469C254.095 66.0976 258.707 66.24 259.254 63.7647C260.248 58.9238 259.571 53.9185 259.756 49.0119C262.401 49.0009 265.057 49.0009 267.712 49.0009C267.603 54.1924 268.171 59.4495 267.286 64.5971C265.286 74.279 248.424 74.2462 246.14 64.7614C245.167 59.57 245.79 54.2581 245.659 49.0119Z" fill="white"/>
<path d="M277.602 50.37C282.378 47.369 288.225 48.7381 293.197 50.4357C292.465 52.2867 291.733 54.1376 290.99 55.9886C288.771 55.3205 286.52 53.7652 284.127 54.4333C279.252 55.7586 279.263 64.2576 284.214 65.4952C286.596 66.1524 288.858 64.8052 291.055 64.0824C291.787 66.0319 292.509 67.9814 293.219 69.9419C288.247 71.6724 282.356 72.8771 277.591 69.92C270.761 65.8567 270.728 54.4114 277.602 50.37Z" fill="white"/>
<path d="M298.41 49.0228C300.978 49.0009 303.546 49.0009 306.125 49.0009C306.136 51.5857 306.147 54.1704 306.191 56.7552C307.71 54.3457 308.956 51.739 310.737 49.4938C313.447 48.4752 316.551 49.1652 319.425 49.0009C317.065 52.7247 314.606 56.3828 312.212 60.0847C314.977 63.7976 317.677 67.5542 320.42 71.289C317.327 71.3109 314.245 71.3219 311.152 71.3438C309.458 68.6823 307.808 65.999 306.158 63.3157C306.147 65.9771 306.147 68.6385 306.147 71.3109C303.557 71.3109 300.989 71.3109 298.41 71.3109C298.432 63.8852 298.421 56.4485 298.41 49.0228Z" fill="white"/>
<path d="M327.162 49.8005C331.818 47.4129 337.085 49.0995 341.785 50.4029C341.14 52.1333 340.495 53.8529 339.85 55.5833C336.779 54.4333 332.67 52.2976 330.124 55.5724C333.14 56.6676 336.364 57.2262 339.238 58.6829C343.577 60.95 343.194 68.1786 338.845 70.2267C333.698 72.9319 327.545 71.6395 322.638 69.0438C323.403 67.4557 324.168 65.8676 324.922 64.2686C328.102 65.4624 332.004 67.7514 334.9 64.6409C331.927 63.3376 328.681 62.7024 325.851 61.0814C321.917 58.4638 322.966 51.6624 327.162 49.8005Z" fill="white"/>
</svg>
