<svg width="235" height="67" viewBox="0 0 235 67" fill="none" xmlns="http://www.w3.org/2000/svg">
<path d="M16.7157 0C16.7627 6.38579 16.7157 12.7246 16.7157 19.0634C20.519 19.0634 24.3223 19.0634 28.1726 19.0634C34.4645 18.7817 40.2398 23.9936 41.3198 30.0038C41.5076 33.4784 41.3667 37 41.4137 40.4746C44.3249 40.4746 47.1891 40.4746 50.1002 40.4746C50.2411 35.6853 49.4429 30.6142 51.4619 26.1066C52.8236 22.9137 55.7348 20.566 59.0216 19.6739C63.0596 18.453 67.3325 19.0165 71.5114 18.8756C73.6713 13.6637 78.2259 9.53172 83.7195 8.07614C83.7195 18.8756 83.7195 29.6751 83.7195 40.4746C87.0533 40.4746 90.387 40.4746 93.7208 40.4746C93.7208 37.5634 93.7208 34.6992 93.7208 31.7881C90.9035 31.7881 88.1332 31.7881 85.316 31.835C85.316 26.1535 88.8845 20.9886 93.7208 18.1713C93.7208 14.6967 93.7208 11.269 93.7208 7.79441C98.7918 9.67259 103.346 13.2411 105.647 18.2183C113.16 18.2183 120.673 18.2183 128.232 18.2183C125.368 23.8058 121.189 29.0647 115.367 31.7411C112.174 31.9289 108.934 31.7881 105.694 31.835C105.694 39.6764 105.694 47.5178 105.788 55.3591C105.788 57.6599 109.075 58.4581 110.483 56.9086C111 56.3921 111.188 55.6408 111.141 54.9365C111.141 50.1002 111.141 45.2639 111.141 40.4746C116.024 40.4746 120.954 40.4746 125.884 40.4746C126.072 35.8261 125.227 30.9429 127.105 26.4822C128.232 23.5241 130.674 21.1294 133.632 20.0495C138.14 18.2652 143.07 19.0165 147.765 18.8287C149.878 13.7107 154.245 9.76649 159.504 8.02919C159.504 18.8287 159.504 29.6282 159.504 40.4277C162.462 40.4277 165.467 40.4277 168.425 40.4277C168.425 29.5812 168.425 18.7348 168.425 7.88832C172.322 8.78045 176.032 10.7995 178.473 13.9924C179.459 15.2132 180.304 16.5749 181.15 17.9365C188.85 17.1853 196.832 19.2513 203.124 23.8528C203.124 21.9277 203.124 20.0025 203.124 18.0305C208.383 17.9835 214.018 17.8896 218.619 20.8008C221.953 22.8198 223.972 26.6231 224.113 30.4733C224.207 33.7132 224.113 37 224.16 40.2398C227.681 44.3718 231.203 48.5507 234.771 52.6358C226.977 52.6358 219.183 52.6358 211.341 52.6358C211.341 47.8934 211.341 43.198 211.341 38.4556C211.341 36.5774 210.872 34.5584 209.322 33.3376C207.585 31.9289 205.284 31.882 203.124 31.835C203.124 38.7843 203.124 45.7335 203.124 52.6827C198.664 52.6827 194.203 52.6827 189.742 52.6827C189.742 47.7995 189.742 42.9162 189.742 38.033C189.742 36.2957 189.226 34.3705 187.77 33.2906C185.798 31.835 183.263 31.835 180.915 31.7881C180.915 38.7373 180.915 45.7335 180.915 52.6827C161.194 52.6827 141.473 52.6827 121.752 52.6827C121.706 54.9835 121.846 57.3312 121.706 59.632C121.424 63.0596 118.419 65.8769 115.038 66.1586H100.858C97.5241 66.0177 94.4721 63.4353 93.9086 60.1015C93.6269 57.6129 93.8616 55.1243 93.8147 52.6358C70.901 52.6358 48.0342 52.6358 25.1675 52.6358C25.1675 47.0952 25.1675 41.5546 25.1675 36.0609C25.1675 34.5114 24.8858 32.7271 23.4771 31.7881C21.5051 30.5203 19.0165 30.6142 16.7157 30.4733C16.6688 37.9391 16.7157 45.4048 16.7157 52.8705C11.1282 52.8705 5.54061 52.8705 0 52.8705V13.9924C5.54061 9.29695 11.1751 4.74238 16.7157 0ZM63.6231 35.0279C62.4492 36.5774 62.5901 38.6434 62.637 40.4746C65.5952 40.4746 68.5533 40.4746 71.5114 40.4746C71.5114 37.5634 71.5114 34.6992 71.5114 31.7881C68.6472 31.7881 65.3604 32.4924 63.6231 35.0279ZM140.018 34.887C138.75 36.4835 138.844 38.5495 138.891 40.4746C141.849 40.4746 144.807 40.4746 147.812 40.4746C147.812 37.6104 147.812 34.6992 147.812 31.835C144.995 31.7881 141.802 32.4454 140.018 34.887Z" fill="#1A5BFF"/>
</svg>
