<svg width="335" height="105" viewBox="0 0 335 105" fill="none" xmlns="http://www.w3.org/2000/svg">
<circle cx="54" cy="52" r="37" fill="white"/>
<path d="M31.1568 22.2425C42.8419 13.1097 60.1403 12.1804 72.7327 20.0043C83.6003 26.3893 90.5296 38.6596 90.6991 51.2497C86.3122 50.6602 82.6033 47.8724 78.1765 47.4028C78.4257 48.1622 78.9143 49.681 79.1635 50.4304C83.1616 51.3297 86.7409 53.428 90.729 54.3773C90.5994 55.0368 90.3402 56.3557 90.2105 57.0252C86.7409 56.0959 83.5504 54.3773 80.1207 53.3481C81.0977 57.7746 86.4418 58.2043 89.9713 59.5932C89.6422 60.6124 89.3033 61.6316 88.9742 62.6508C86.3321 61.4917 83.7299 60.2227 80.9881 59.2934C81.4168 62.9306 85.7538 63.3502 88.3162 64.9789C87.9872 65.7084 87.3192 67.1672 86.9902 67.8967C85.026 66.9774 82.6431 63.8099 80.4397 65.9282C82.2144 67.3371 84.1486 68.5362 86.023 69.8152C85.6841 70.4547 84.9961 71.7236 84.6471 72.3631C83.1416 71.3539 81.6262 70.3547 80.0808 69.4155C80.1605 69.0458 80.33 68.2963 80.4098 67.9266C78.2662 67.0373 75.2153 66.7675 74.5174 64.1096C73.3608 61.122 71.1873 58.7438 69.7018 55.956C70.2202 50.6002 72.5433 44.3851 68.3657 39.8287C67.8473 40.3883 67.3388 40.9578 66.8303 41.5274C65.9928 39.8487 65.0955 38.2 64.2381 36.5313C64.1483 37.1308 63.9589 38.3399 63.8592 38.9394C62.244 37.9702 61.2171 36.0217 59.5521 35.0025C59.8013 35.7619 60.2899 37.2907 60.5291 38.0601C57.1393 34.6628 51.3565 33.7035 47.7772 37.3606C47.3086 36.901 46.84 36.4414 46.3714 35.9817C43.1311 38.8295 41.6854 43.6057 43.151 47.7125C43.9387 50.4304 45.6236 53.0183 45.2946 55.9361C44.4073 59.2634 40.9974 61.4117 40.6684 64.939C41.2268 68.9958 45.2946 71.8036 45.2448 75.9603C44.0783 79.6874 41.8649 83.0148 41.0772 86.8817C40.2198 86.522 39.3524 86.1623 38.4949 85.8026C39.4919 82.3253 41.5857 79.2977 42.6326 75.8504C43.0114 71.4239 38.0662 68.5262 38.3254 64.1296C39.2128 61.102 42.0344 59.0936 42.9018 56.0759C43.3105 52.189 40.7482 48.7717 40.6585 44.9347C40.7681 42.2868 41.9745 39.8687 42.6824 37.3606C42.2138 38.15 41.2567 39.7488 40.7781 40.5381C40.3793 39.9886 39.9805 39.429 39.5817 38.8695C38.3254 41.1277 36.5507 43.246 36.2616 45.9039C35.8329 49.3212 37.5577 52.5387 37.5378 55.9361C35.6833 59.1535 33.0312 61.9613 32.1838 65.6984C30.6384 66.4278 29.073 67.1273 27.5177 67.8267C26.4409 69.8551 24.4668 71.0941 22.7519 72.513C22.3431 71.8336 21.5256 70.4846 21.1068 69.8052C22.8915 68.3163 25.6931 67.5769 26.5007 65.2387C24.0979 64.5893 22.2933 66.7675 20.379 67.7668C19.8306 66.8575 19.2922 65.9482 18.7439 65.0289C21.1866 63.9098 23.5495 62.6308 25.9623 61.4417C25.7829 60.9121 25.4239 59.853 25.2544 59.3234C23.0909 60.4125 20.9872 61.6016 18.7339 62.4809C18.2653 61.8114 17.3181 60.4625 16.8495 59.783C20.1098 58.8238 23.2006 57.3949 26.3213 56.0859C26.401 55.1467 26.4708 54.2174 26.5306 53.2781C23.4399 54.5771 20.4089 56.066 17.1785 57.0152C16.9991 56.3457 16.6402 55.0168 16.4607 54.3473C20.3989 53.468 23.9284 51.3696 27.8666 50.5003C28.2754 49.4911 28.6842 48.4819 29.093 47.4627C24.6263 47.8824 20.8576 50.6102 16.4607 51.3197C16.6501 40.0385 22.1238 29.0172 31.1568 22.2425ZM51.6457 21.5131C50.1003 21.663 48.5549 21.8129 47.0095 21.9727C48.1461 23.0019 49.2728 24.0211 50.4094 25.0503C49.9208 26.4292 49.4223 27.8181 48.9238 29.1971C46.3216 27.5284 43.49 26.2694 40.5189 25.44C41.5159 27.5583 42.5528 29.6567 43.6196 31.7451C41.4062 30.6659 39.1131 29.7766 36.78 28.9872C38.0961 31.4053 39.5119 33.7635 40.8878 36.1516C48.8739 32.2547 58.3556 32.4345 66.3817 36.1016C67.7277 33.7135 69.1135 31.3554 70.4794 28.9672C68.1464 29.7566 65.8433 30.6459 63.6 31.6951C64.6568 29.6167 65.7037 27.5384 66.7207 25.45C63.7196 26.2594 60.8781 27.5384 58.216 29.1371C57.7474 27.7882 57.2689 26.4392 56.7903 25.0903C57.9269 24.0511 59.0635 23.0119 60.2001 21.9627C58.6348 21.8029 57.0595 21.653 55.4942 21.5031C54.876 20.0542 54.2678 18.5954 53.6497 17.1465C52.9817 18.6054 52.3137 20.0642 51.6457 21.5131ZM24.8158 32.6643C24.7161 38.7196 21.3661 43.8156 17.6272 48.2821C22.054 47.5327 25.9823 44.7448 30.6184 45.1745C32.772 42.5765 35.1848 40.2284 37.6275 37.9002C34.6863 37.5305 31.755 37.9102 28.9733 38.8994C28.0162 36.5513 26.6303 34.423 24.8158 32.6643ZM78.2163 38.8894C75.4546 37.9402 72.5532 37.5205 69.6419 37.9002C72.0647 40.2484 74.4576 42.6365 76.651 45.2045C81.2373 44.7249 85.1157 47.5626 89.5027 48.2621C85.714 43.7356 82.5035 38.5297 82.3141 32.4445C80.669 34.403 79.2533 36.5513 78.2163 38.8894Z" fill="#106E33"/>
<path d="M49.5022 30.6659C50.8482 29.6167 52.2041 28.5775 53.5501 27.5383C54.9858 28.5875 56.4116 29.6367 57.8573 30.6759C55.0756 30.546 52.2839 30.536 49.5022 30.6659Z" fill="#106E33"/>
<path d="M44.5469 39.0992C47.0394 37.3806 49.7713 39.7287 52.3137 40.2683C52.4134 41.4374 52.5131 42.5965 52.6128 43.7556C50.4592 43.7755 48.2957 43.7755 46.1421 43.7655C46.4412 47.5026 47.8171 51.5095 51.207 53.5179C53.6397 55.1466 56.7604 53.6378 58.3058 51.4995C60.1902 49.3811 60.6289 46.5234 61.0376 43.8255C59.5222 43.8055 58.0067 43.7855 56.4912 43.7556C56.0326 44.1552 55.0954 44.9746 54.6268 45.3843C54.5071 42.4166 54.5271 38.7795 58.6548 38.8594C58.0865 39.9685 57.5082 41.0677 56.9 42.1568C58.3955 42.0169 59.8811 41.867 61.3667 41.7172L59.2829 41.2675C60.0506 40.2583 60.589 39.0293 61.5362 38.1799C64.2381 43.0861 61.8153 48.242 59.9808 52.9184C58.2161 57.225 62.593 60.1727 63.8492 63.8298C64.4076 68.4861 59.2928 71.3739 59.3028 75.9103C59.901 79.9671 63.3906 83.2945 62.8821 87.5512C62.3338 87.8509 61.2171 88.4504 60.6588 88.7502C60.4095 84.4936 58.226 80.8164 56.89 76.8895C55.8431 71.9534 61.7754 68.9158 61.4165 64.0996C60.4693 61.2218 58.2759 58.9336 57.1991 56.0959C54.8461 56.2857 52.4832 56.2857 50.1402 56.0559C48.854 58.7837 46.86 61.1419 45.7632 63.9697C45.3445 68.5661 50.4592 71.3938 50.549 75.9003C49.4921 80.157 46.8001 83.914 46.6306 88.4305C45.9327 88.2306 44.5369 87.8309 43.839 87.6211C44.3774 83.8141 46.4711 80.5367 47.6775 76.9495C48.8739 72.0233 42.9716 68.9458 43.2208 64.1595C44.2378 60.4125 48.7742 57.6746 47.3684 53.398C45.6336 48.7916 43.5399 44.1652 44.5469 39.0992ZM47.1292 41.5473C48.1461 42.3267 49.1631 42.3267 50.2 41.5473C50.3894 40.0585 46.8699 39.9685 47.1292 41.5473Z" fill="#106E33"/>
<path d="M63.8592 38.9395H64.3976C66.4514 41.3476 67.0995 44.8348 66.0526 47.8225C65.4145 50.6702 63.6797 53.518 64.4075 56.5057C65.7934 59.4433 68.0567 61.8714 69.3129 64.8891C67.8872 68.3464 65.3049 71.284 64.4574 74.9711C65.0855 78.8581 67.7576 82.0456 68.6549 85.8826C68.0567 86.1524 66.8602 86.682 66.262 86.9417C65.3547 83.0248 63.0217 79.6575 61.9349 75.8205C61.9948 71.7437 65.9629 68.9759 66.4614 64.969C66.2221 61.4218 62.8023 59.2335 61.8651 55.9261C61.576 52.0292 64.3078 48.7617 64.6668 44.9747C64.7665 42.9263 63.4903 40.9579 63.8592 38.9395Z" fill="#106E33"/>
<path d="M67.4386 42.3367C68.0368 42.2868 68.5254 42.4566 68.9242 42.8663C71.0777 47.1729 68.0966 51.4895 68.1565 55.8661C69.0638 58.9037 71.8454 60.9621 72.8225 63.9797C73.1515 66.208 71.8255 68.2564 71.1874 70.3148C73.2712 71.7336 75.5344 72.8228 77.9273 73.6122C78.3959 72.9927 79.3231 71.7636 79.7917 71.1441C81.0879 72.1233 82.374 73.1325 83.6502 74.1617C81.9453 77.0495 79.5126 74.5215 77.349 73.792C78.2563 75.141 79.2334 76.4399 80.2105 77.7289C79.7917 78.1886 78.9343 79.1078 78.5155 79.5675C77.3889 78.878 76.2623 78.1886 75.1356 77.5291C75.6541 78.6582 76.1725 79.7773 76.7109 80.8865C75.9133 81.5259 75.1257 82.1555 74.338 82.795C72.4736 79.4276 70.33 76.2101 68.7646 72.6829C68.6749 76.8196 71.2373 80.207 72.8026 83.8441C72.2542 84.0939 71.1475 84.5835 70.5992 84.8334C69.4825 81.466 67.4386 78.4484 66.651 74.9711C67.0199 71.274 70.5393 68.6561 70.7387 64.899C70.7587 60.9721 66.2422 58.8038 65.9929 54.9868C66.5911 50.7701 69.1734 46.6933 67.4386 42.3367Z" fill="#106E33"/>
<path d="M37.8568 42.1869C38.3353 42.8664 38.8039 43.5558 39.2626 44.2453C38.8837 47.9923 40.6385 51.3997 41.1968 55.0168C40.8877 56.9853 39.7212 58.6639 38.9435 60.4525C38.455 59.9729 37.9764 59.4833 37.4879 59.0037C41.2865 53.8377 35.6932 47.8524 37.8568 42.1869Z" fill="#106E33"/>
<path d="M50.23 49.3312C52.5132 49.2912 54.7864 49.3312 57.0696 49.4211C56.0127 50.1006 55.0057 50.8799 53.8392 51.3796C52.4035 51.3296 51.3965 50.0306 50.23 49.3312Z" fill="#106E33"/>
<path d="M35.843 60.2726C36.3116 60.8521 36.7802 61.4417 37.2389 62.0412C35.0753 65.6584 38.0265 68.9757 39.6218 72.0633C42.234 76.4998 37.4682 80.6965 36.5609 84.9732C36.0325 84.6434 34.9657 83.974 34.4372 83.6442C35.9328 80.137 38.7145 76.8795 38.0963 72.8427C36.8799 76.4099 34.7164 79.5075 32.8021 82.715C32.2039 82.2553 31.0075 81.346 30.4093 80.8864C30.9875 79.7673 31.5558 78.6382 32.1042 77.509C30.9676 78.1785 29.8509 78.858 28.7343 79.5674C28.1061 78.828 27.468 78.0986 26.8399 77.3692C27.8868 76.4099 28.9237 75.4407 29.9506 74.4514C28.0862 73.722 26.7602 75.3108 25.3743 76.1901C24.9157 75.4407 24.4969 74.6813 24.0881 73.9119C25.0253 72.8627 26.1121 71.9734 27.159 71.0341C27.7572 71.8535 28.3454 72.6728 28.9436 73.5022C31.3365 72.8827 33.7692 72.1433 35.6935 70.5145C34.7962 67.0672 33.51 63.54 35.843 60.2726Z" fill="#106E33"/>
<path d="M78.2065 85.243C79.4429 85.263 80.6891 85.283 81.9354 85.273C81.7061 85.7826 81.2574 86.8118 81.0281 87.3214C80.6592 87.2615 79.9114 87.1515 79.5426 87.0916C79.2135 86.632 78.5356 85.7027 78.2065 85.243Z" fill="#106E33"/>
<path d="M315.508 44.6648C316.396 44.6348 317.293 44.6148 318.19 44.5948C318.469 44.9146 319.018 45.5341 319.297 45.8439C319.446 46.1236 319.746 46.6832 319.895 46.963C319.746 47.2328 319.446 47.7823 319.297 48.0621L318.888 48.5517C318.32 48.4818 317.173 48.3419 316.605 48.272L316.834 47.2428C316.146 47.1528 314.76 46.983 314.073 46.893C314.661 46.8831 315.847 46.8731 316.435 46.8731C316.206 46.3135 315.738 45.2144 315.508 44.6648Z" fill="white"/>
<path d="M111.098 45.4742C115.366 43.266 120.291 44.6649 124.538 46.1737C123.91 47.6925 123.292 49.2113 122.664 50.7301C119.892 49.601 116.173 47.7624 113.83 50.6801C116.552 51.6993 119.473 52.169 122.086 53.4779C125.914 55.4164 125.934 61.6116 122.295 63.7699C117.609 66.6776 111.677 65.3786 107.031 63.0504C107.758 61.5516 108.486 60.0628 109.214 58.5639C111.896 59.5532 115.625 62.1112 117.858 58.9736C115.356 57.6247 112.474 57.1551 109.992 55.7562C106.412 53.368 107.31 47.2229 111.098 45.4742Z" fill="white"/>
<path d="M127.729 44.7248C134.199 44.6848 140.68 44.7148 147.151 44.6948C147.151 46.4335 147.151 48.1721 147.151 49.9007C145.147 49.9007 143.153 49.9007 141.159 49.8907C141.129 54.9368 141.139 59.9728 141.159 65.0189C138.706 65.0388 136.263 65.0488 133.821 65.0588C133.831 60.0528 133.831 55.0567 133.821 50.0606C131.797 50.0206 129.773 49.9907 127.759 49.9407C127.739 48.2021 127.729 46.4634 127.729 44.7248Z" fill="white"/>
<path d="M154.888 45.0346C157.879 44.425 160.96 44.7448 163.991 44.6549C166.513 51.4295 168.926 58.2342 171.359 65.0388C168.956 65.0488 166.553 65.0688 164.16 65.0988C163.721 63.8398 163.283 62.5908 162.854 61.3417C160.591 61.3318 158.327 61.3218 156.064 61.3118C155.616 62.5708 155.177 63.8298 154.728 65.0888C152.315 65.0688 149.903 65.0588 147.5 65.0388C149.992 58.3841 152.126 51.5794 154.888 45.0346ZM159.305 49.8108C158.756 51.9791 158.218 54.1474 157.689 56.3157C158.886 56.3057 160.092 56.2957 161.289 56.2957C160.641 54.1274 159.992 51.9591 159.305 49.8108Z" fill="white"/>
<path d="M175.496 44.7249C180.581 44.9647 185.925 43.9055 190.83 45.6242C195.746 47.9324 195.128 55.2066 190.731 57.7846C192.326 60.2027 193.921 62.6208 195.486 65.0589C192.924 65.0589 190.372 65.0489 187.819 64.999C186.433 62.5509 185.117 59.9329 182.725 58.3142C182.565 60.5524 182.515 62.8107 182.475 65.0589C180.172 65.0589 177.869 65.0589 175.566 65.0589C175.416 58.2842 175.317 51.5095 175.496 44.7249ZM182.465 49.661C182.515 51.1498 182.575 52.6387 182.645 54.1275C184.051 53.8677 185.466 53.6579 186.842 53.2582C186.972 52.1091 186.962 50.95 186.982 49.7909C185.476 49.7409 183.971 49.701 182.465 49.661Z" fill="white"/>
<path d="M200.213 44.7249C205.447 44.9647 210.881 43.9655 215.966 45.4943C219.814 46.9831 219.834 52.5688 216.364 54.5372C220.003 56.4257 220.552 62.3211 216.544 64.0997C211.319 65.8883 205.626 64.7692 200.213 65.0489C200.203 58.2743 200.203 51.4996 200.213 44.7249ZM207.291 48.9716C207.281 50.2905 207.271 51.6195 207.271 52.9385C208.767 52.4389 211.728 53.2382 211.908 50.99C212.107 48.5619 208.777 49.5811 207.291 48.9716ZM207.162 56.6555C207.252 58.0045 207.351 59.3534 207.461 60.7124C208.986 60.5625 210.512 60.4226 212.037 60.2527C211.948 59.3834 211.818 58.5141 211.658 57.6548C210.422 56.6855 208.617 57.0352 207.162 56.6555Z" fill="white"/>
<path d="M224.121 44.7148C226.564 44.7048 229.006 44.7048 231.459 44.7048C231.549 49.1014 231.12 53.5379 231.748 57.9045C231.818 60.3026 236.025 60.4325 236.524 58.1743C237.431 53.7577 236.813 49.1913 236.983 44.7148C239.395 44.7048 241.818 44.7048 244.241 44.7048C244.141 49.4411 244.66 54.2373 243.852 58.9337C242.028 67.7667 226.643 67.7367 224.56 59.0835C223.672 54.3473 224.241 49.5011 224.121 44.7148Z" fill="white"/>
<path d="M253.264 45.9539C257.621 43.2161 262.955 44.4651 267.492 46.0139C266.824 47.7026 266.156 49.3912 265.478 51.0799C263.454 50.4704 261.4 49.0515 259.216 49.661C254.77 50.8701 254.78 58.624 259.296 59.7531C261.47 60.3526 263.533 59.1236 265.537 58.4641C266.205 60.2427 266.863 62.0213 267.512 63.8099C262.975 65.3887 257.601 66.4878 253.254 63.7899C247.023 60.0828 246.993 49.641 253.264 45.9539Z" fill="white"/>
<path d="M272.247 44.7249C274.59 44.7049 276.933 44.7049 279.286 44.7049C279.296 47.063 279.306 49.4212 279.346 51.7793C280.732 49.5811 281.869 47.2029 283.494 45.1545C285.966 44.2253 288.798 44.8548 291.42 44.7049C289.267 48.1022 287.023 51.4396 284.84 54.8169C287.362 58.2043 289.825 61.6316 292.327 65.0389C289.506 65.0589 286.694 65.0689 283.873 65.0889C282.327 62.6608 280.822 60.2127 279.316 57.7646C279.306 60.1927 279.306 62.6208 279.306 65.0589C276.943 65.0589 274.6 65.0589 272.247 65.0589C272.267 58.2842 272.257 51.4995 272.247 44.7249Z" fill="white"/>
<path d="M298.479 45.4343C302.726 43.256 307.532 44.7948 311.819 45.9839C311.231 47.5626 310.643 49.1314 310.054 50.7101C307.253 49.661 303.504 47.7125 301.181 50.7002C303.933 51.6994 306.874 52.209 309.496 53.5379C313.454 55.6063 313.105 62.2011 309.137 64.0697C304.441 66.5377 298.828 65.3586 294.351 62.9905C295.049 61.5416 295.747 60.0928 296.435 58.6339C299.336 59.7231 302.896 61.8114 305.538 58.9737C302.826 57.7846 299.865 57.205 297.283 55.7262C293.693 53.3381 294.65 47.133 298.479 45.4343Z" fill="white"/>
</svg>
