<svg width="81" height="81" viewBox="0 0 81 81" fill="none" xmlns="http://www.w3.org/2000/svg">
<g clip-path="url(#clip0_694_39)">
<rect x="0.78125" y="0.661621" width="80" height="80" rx="40" fill="#191949"/>
<g clip-path="url(#clip1_694_39)">
<path d="M64.0853 22.6616H71.8255C72.3903 22.8011 72.9118 23.1749 73.1251 23.7304C73.3091 24.0913 73.2599 24.5015 73.2646 24.8917C73.2646 27.0761 73.2634 29.2604 73.2657 31.446C73.2915 32.114 72.8884 32.7749 72.2872 33.0655C71.6474 33.3948 70.8095 33.28 70.2927 32.7784C69.9212 32.4456 69.7079 31.9499 69.7255 31.4519C69.7185 30.512 69.7208 29.5722 69.7255 28.6335C66.8614 31.1167 63.7021 33.2413 60.4243 35.1362C56.0802 37.6101 51.5017 39.6749 46.7825 41.3237C46.7626 40.071 46.8142 38.8159 46.7485 37.5632C54.0458 34.8175 61.131 31.2374 67.1134 26.1808C66.1524 26.1714 65.1927 26.1831 64.2329 26.1761C63.2403 26.1022 62.454 25.0394 62.6942 24.0679C62.8196 23.3694 63.4114 22.8304 64.0853 22.6616Z" fill="url(#paint0_linear_694_39)"/>
<path d="M64.6007 36.6679C66.9902 36.7066 69.3808 36.5847 71.7679 36.6655C70.5047 36.703 69.2343 36.6105 67.9757 36.7124C67.9476 50.8558 67.9664 65.0015 67.9664 79.146C66.2027 79.146 64.439 79.146 62.6754 79.146C62.6742 65.7878 62.6754 52.4308 62.6742 39.0726C62.6777 38.6027 62.625 38.1046 62.8488 37.671C63.15 37.0124 63.8836 36.6081 64.6007 36.6679Z" fill="#FFA8A7"/>
<path d="M39.7217 50.7866C40.9451 50.7877 42.1697 50.7842 43.3932 50.7877C44.285 50.8159 45.0455 51.6514 45.0209 52.5385C45.0197 61.4084 45.0209 70.2772 45.0209 79.1459C43.2549 79.1459 41.4889 79.1459 39.7217 79.1459C39.7182 69.6924 39.7194 60.2401 39.7217 50.7866Z" fill="url(#paint1_linear_694_39)"/>
<path d="M67.9757 36.7124C69.2343 36.6104 70.5046 36.703 71.7679 36.6655C72.3866 36.7628 72.9386 37.2081 73.1519 37.7987C73.3312 38.1995 73.2456 38.6471 73.2644 39.0702C73.2644 52.4296 73.2644 65.7878 73.2644 79.146C71.4984 79.146 69.7323 79.146 67.9663 79.146C67.9663 65.0014 67.9476 50.8557 67.9757 36.7124Z" fill="url(#paint2_linear_694_39)"/>
<path d="M19.0031 43.7845C28.4473 42.8024 37.8352 40.8782 46.7484 37.563C46.8141 38.8157 46.7625 40.0708 46.7824 41.3235C37.9711 44.4325 28.7566 46.304 19.473 47.2696C18.975 47.3118 18.4582 47.4372 17.9707 47.2603C17.3215 47.0481 16.8598 46.4306 16.7812 45.7603V45.4603C16.8387 44.9153 17.1422 44.3997 17.6121 44.1126C18.0188 43.8313 18.5332 43.8431 19.0031 43.7845Z" fill="#FC6659"/>
<path d="M48.6456 44.9377C48.8636 44.2334 49.569 43.7295 50.3015 43.7271C51.4792 43.7119 52.6569 43.7412 53.8347 43.7119C53.8417 55.5232 53.8475 67.3346 53.8311 79.1459C52.0722 79.1459 50.3132 79.1459 48.553 79.1459C48.553 68.0916 48.5542 57.0373 48.553 45.983C48.5577 45.6338 48.5225 45.2717 48.6456 44.9377Z" fill="#FFA8A7"/>
<path d="M53.8348 43.7121C55.0336 43.691 56.2348 43.6945 57.4336 43.7097C58.3782 43.7203 59.1692 44.5793 59.1575 45.5121C59.161 56.7234 59.1575 67.9347 59.1586 79.146C57.3833 79.146 55.6067 79.146 53.8313 79.146C53.8477 67.3347 53.8418 55.5234 53.8348 43.7121Z" fill="url(#paint3_linear_694_39)"/>
<path d="M34.4343 52.5433C34.4167 51.6328 35.2077 50.8078 36.1195 50.7914C37.3195 50.7796 38.5206 50.7902 39.7218 50.7867C39.7195 60.2402 39.7183 69.6925 39.7218 79.146C37.9593 79.146 36.1968 79.146 34.4331 79.146C34.4331 70.2785 34.4308 61.4109 34.4343 52.5433Z" fill="#FFA8A7"/>
<path d="M20.3146 59.5708C20.3146 58.6919 21.0681 57.8985 21.9458 57.854C23.1657 57.8329 24.3868 57.8692 25.6067 57.8364C25.5892 64.9392 25.6067 72.0431 25.5974 79.1458C23.836 79.1458 22.0735 79.1458 20.311 79.1458C20.3134 72.6208 20.3087 66.0958 20.3146 59.5708Z" fill="#FFA8A7"/>
<path d="M25.6065 57.8368C26.7702 57.811 27.9339 57.8344 29.0976 57.8251C29.7573 57.8122 30.4089 58.1989 30.7042 58.7907C30.9128 59.1751 30.928 59.6251 30.9175 60.0528C30.914 66.4173 30.9175 72.7805 30.9151 79.145C29.1433 79.1473 27.3702 79.145 25.5972 79.1462C25.6065 72.0434 25.589 64.9395 25.6065 57.8368Z" fill="url(#paint4_linear_694_39)"/>
<path d="M16.7812 80.6848C16.9043 79.8844 17.5887 79.2001 18.409 79.1544C19.043 79.1333 19.677 79.152 20.3109 79.1462C22.0734 79.1462 23.8359 79.1462 25.5973 79.1462C27.3703 79.145 29.1434 79.1473 30.9152 79.145C32.0883 79.1473 33.2602 79.1462 34.4332 79.1462C36.1969 79.1462 37.9594 79.1462 39.7219 79.1462C41.4891 79.1462 43.2551 79.1462 45.0211 79.1462C45.6082 79.1462 46.1941 79.1462 46.7812 79.1462C46.7812 80.318 46.7801 81.4899 46.7824 82.6618H18.3586C17.5547 82.5622 16.8879 81.9012 16.7812 81.0985V80.6848Z" fill="url(#paint5_linear_694_39)"/>
<path d="M46.7813 79.1459C47.3719 79.1459 47.9625 79.1459 48.5532 79.1459C50.3133 79.1459 52.0723 79.1459 53.8313 79.1459C55.6067 79.1459 57.3832 79.1459 59.1586 79.1459C60.3305 79.1459 61.5036 79.1459 62.6754 79.1459C64.4391 79.1459 66.2028 79.1459 67.9665 79.1459C69.7325 79.1459 71.4985 79.1459 73.2645 79.1459C73.9301 79.1494 74.5969 79.1377 75.2625 79.1494C76.0067 79.2244 76.5997 79.8361 76.7813 80.5439V81.2506C76.6172 81.942 76.0688 82.4892 75.3809 82.6615H46.7825C46.7801 81.4896 46.7813 80.3178 46.7813 79.1459Z" fill="url(#paint6_linear_694_39)"/>
</g>
</g>
<defs>
<linearGradient id="paint0_linear_694_39" x1="60.0079" y1="22.6616" x2="60.0079" y2="41.3237" gradientUnits="userSpaceOnUse">
<stop stop-color="#FD0091"/>
<stop offset="0.0001" stop-color="#FD0091"/>
<stop offset="1" stop-color="#FF7732"/>
</linearGradient>
<linearGradient id="paint1_linear_694_39" x1="42.3705" y1="50.7861" x2="42.3705" y2="79.1459" gradientUnits="userSpaceOnUse">
<stop stop-color="#FD0091"/>
<stop offset="0.0001" stop-color="#FD0091"/>
<stop offset="1" stop-color="#FF7732"/>
</linearGradient>
<linearGradient id="paint2_linear_694_39" x1="70.6145" y1="36.6626" x2="70.6145" y2="79.146" gradientUnits="userSpaceOnUse">
<stop stop-color="#FD0091"/>
<stop offset="0.0001" stop-color="#FD0091"/>
<stop offset="1" stop-color="#FF7732"/>
</linearGradient>
<linearGradient id="paint3_linear_694_39" x1="56.4952" y1="43.6973" x2="56.4952" y2="79.146" gradientUnits="userSpaceOnUse">
<stop stop-color="#FD0091"/>
<stop offset="0.0001" stop-color="#FD0091"/>
<stop offset="1" stop-color="#FF7732"/>
</linearGradient>
<linearGradient id="paint4_linear_694_39" x1="28.2586" y1="57.8242" x2="28.2586" y2="79.1462" gradientUnits="userSpaceOnUse">
<stop stop-color="#FD0091"/>
<stop offset="0.0001" stop-color="#FD0091"/>
<stop offset="1" stop-color="#FF7732"/>
</linearGradient>
<linearGradient id="paint5_linear_694_39" x1="31.7818" y1="79.144" x2="31.7818" y2="82.6618" gradientUnits="userSpaceOnUse">
<stop stop-color="#FD0091"/>
<stop offset="0.0001" stop-color="#FD0091"/>
<stop offset="1" stop-color="#FF7732"/>
</linearGradient>
<linearGradient id="paint6_linear_694_39" x1="61.7811" y1="79.144" x2="61.7811" y2="82.6615" gradientUnits="userSpaceOnUse">
<stop stop-color="#FD0091"/>
<stop offset="0.0001" stop-color="#FD0091"/>
<stop offset="1" stop-color="#FF7732"/>
</linearGradient>
<clipPath id="clip0_694_39">
<rect x="0.78125" y="0.661621" width="80" height="80" rx="40" fill="white"/>
</clipPath>
<clipPath id="clip1_694_39">
<rect width="60" height="60" fill="white" transform="translate(16.7812 22.6616)"/>
</clipPath>
</defs>
</svg>
