<svg width="81" height="80" viewBox="0 0 81 80" fill="none" xmlns="http://www.w3.org/2000/svg">
<g clip-path="url(#clip0_595_303)">
<rect x="0.27417" width="80" height="80" rx="40" fill="#191949"/>
<g clip-path="url(#clip1_595_303)">
<path d="M22.3689 24.3852C23.8239 23.4868 25.6505 23.2343 27.2984 23.6822C28.9476 24.1146 30.3755 25.2641 31.1949 26.7541C28.8467 27.123 26.6201 28.2428 24.9295 29.914C23.5301 31.2784 22.4854 33.0001 21.9223 34.872C20.2433 33.6332 19.2207 31.5516 19.3501 29.4583C19.4317 27.4027 20.6084 25.4428 22.3689 24.3852Z" fill="#FFC269"/>
<path d="M56.284 24.9044C57.2341 24.4863 58.2892 24.4967 59.3054 24.5044C59.3377 27.4482 59.2911 30.3919 59.3248 33.3369C59.3351 33.6333 59.273 33.9246 59.2018 34.2107C58.9546 33.2502 58.2206 32.4579 57.3079 32.0851C56.605 31.8158 55.8425 31.8857 55.1073 31.8819C54.1027 31.8857 53.1603 31.1 53.0309 30.0967C52.8263 27.9012 54.2412 25.7031 56.284 24.9044Z" fill="#785353"/>
<path d="M59.3052 24.5042C61.2405 24.5158 63.1771 24.5054 65.1124 24.5093C66.3538 24.5093 67.6264 24.4485 68.8251 24.8355C70.9507 25.4673 72.7332 27.1242 73.5319 29.1916C73.906 30.1366 74.0627 31.1592 74.0458 32.1728C74.0342 34.591 74.0588 37.0091 74.0342 39.426C73.9889 41.2318 72.6361 42.8785 70.8911 43.3173C70.271 43.4636 69.6316 43.4584 69.0011 43.4545C67.4024 43.4364 65.8024 43.4817 64.2062 43.4299C61.9292 43.3121 59.88 41.5283 59.436 39.2953C59.1266 37.6176 59.5007 35.8881 59.2017 34.2104C59.2729 33.9243 59.335 33.6331 59.3246 33.3366C59.291 30.3916 59.3376 27.4479 59.3052 24.5042Z" fill="#9F6E50"/>
<path d="M31.1949 26.7543C33.1522 26.4643 35.2001 26.6261 37.0357 27.3925C38.8765 28.1433 40.4442 29.4987 41.5225 31.1608C42.9814 33.4003 43.6015 36.1266 43.4785 38.7816C43.3866 40.6444 42.6345 42.4839 41.2973 43.7979C41.4435 42.5603 41.3801 41.3111 41.3995 40.0684C41.3995 39.5156 41.4151 38.924 41.1212 38.4321C40.7989 37.8314 40.1646 37.4366 39.4901 37.3719C35.7568 36.9576 31.9172 36.1421 28.7741 33.9777C27.7114 33.2929 26.7431 32.4579 25.9482 31.4715C25.5612 30.9848 25.2984 30.4139 24.9294 29.9142C26.6201 28.243 28.8466 27.1232 31.1949 26.7543Z" fill="#FFA95F"/>
<path d="M24.9294 29.9141C25.2983 30.4137 25.5611 30.9846 25.9482 31.4714C26.743 32.4578 27.7113 33.2927 28.7741 33.9775C28.0582 34.7788 27.3178 35.5568 26.6291 36.3827C25.4291 37.7549 24.6938 39.5336 24.6135 41.3589C24.5605 42.3556 24.6058 43.3602 24.8025 44.3401C23.3954 43.3809 22.2523 41.9828 21.7578 40.3388C21.2206 38.5588 21.4277 36.6378 21.9222 34.872C22.4854 33.0002 23.53 31.2785 24.9294 29.9141Z" fill="#FF8B5A"/>
<path d="M55.107 31.8816C55.8423 31.8855 56.6048 31.8156 57.3077 32.0849C57.2559 32.3697 57.2041 32.6558 57.2067 32.9457C57.2274 34.8034 57.2041 36.661 57.2145 38.5173C57.1912 39.4494 57.2287 40.3995 57.5511 41.2837C58.232 43.3238 60.0365 44.9355 62.1401 45.3834C62.5971 45.4999 63.1977 45.5375 63.3984 46.0488C63.8424 46.7245 63.1369 47.654 62.3848 47.566C62.056 47.5465 61.7362 47.4676 61.4191 47.3886C58.6928 46.7012 56.3964 44.5562 55.5342 41.8792C55.1808 40.8423 55.0837 39.7393 55.1057 38.6507C55.1083 36.3943 55.1057 34.138 55.107 31.8816Z" fill="#FEAFAE"/>
<path d="M57.2069 32.9458C57.2043 32.6558 57.2561 32.3698 57.3079 32.085C58.2205 32.4578 58.9545 33.25 59.2017 34.2106C59.5008 35.8882 59.1266 37.6177 59.436 39.2954C59.88 41.5284 61.9293 43.3123 64.2063 43.4301C65.8024 43.4819 67.4025 43.4365 69.0012 43.4547C69.6316 43.4586 70.2711 43.4637 70.8912 43.3175C70.8847 44.9964 70.8886 46.6754 70.8886 48.3544C70.8808 48.8619 71.0245 49.3771 71.352 49.7719C71.7624 50.3001 72.4252 50.5085 72.9961 50.8101C68.7954 50.8153 64.5947 50.8205 60.394 50.8075C60.8354 50.6043 61.3674 50.3298 61.4024 49.7784C61.4477 48.9835 61.4063 48.1848 61.4192 47.3887C61.7364 47.4677 62.0561 47.5466 62.3849 47.566C63.137 47.6541 63.8426 46.7246 63.3985 46.0489C63.1979 45.5375 62.5972 45.5 62.1403 45.3835C60.0367 44.9356 58.2321 43.3239 57.5512 41.2838C57.2289 40.3996 57.1913 39.4494 57.2146 38.5174C57.2043 36.6611 57.2276 34.8034 57.2069 32.9458Z" fill="#FFC3BD"/>
<path d="M28.7742 33.9775C31.9172 36.142 35.7568 36.9575 39.4901 37.3718C40.1646 37.4365 40.7989 37.8313 41.1212 38.432C41.4151 38.9239 41.3995 39.5155 41.3995 40.0682C41.3801 41.311 41.4436 42.5602 41.2973 43.7977C41.1173 44.5382 40.9309 45.2851 40.5918 45.9725C39.7128 47.8651 38.0959 49.3887 36.1697 50.1861C35.5354 50.4386 34.87 50.612 34.1995 50.7363C31.9043 50.5279 29.7437 49.2709 28.3819 47.4198C27.3321 46.0644 26.7715 44.3634 26.6926 42.6598C26.6356 40.5679 26.7586 38.4708 26.6292 36.3827C27.3178 35.5568 28.0583 34.7788 28.7742 33.9775ZM30.4648 39.8676C29.7658 40.1588 29.6505 41.2178 30.2706 41.6527C30.8531 42.142 31.8499 41.7498 31.9431 40.9964C32.1218 40.2016 31.1871 39.4844 30.4648 39.8676ZM36.8014 39.8572C36.2888 40.0682 36.0221 40.7181 36.2552 41.2268C36.4532 41.7317 37.0759 42.0048 37.582 41.8055C38.1089 41.6268 38.4144 40.9873 38.2099 40.4656C38.0286 39.9077 37.3335 39.6061 36.8014 39.8572ZM31.6376 44.5434C30.8156 44.7362 30.602 45.957 31.3205 46.4075C32.7302 47.1363 34.4389 47.1919 35.9458 46.7427C36.3833 46.6029 36.9011 46.4437 37.094 45.9816C37.3594 45.4301 37.0267 44.7103 36.439 44.5472C35.982 44.3997 35.5535 44.6858 35.1199 44.788C34.2745 44.9938 33.3606 44.968 32.5425 44.6599C32.2551 44.5576 31.9431 44.4411 31.6376 44.5434Z" fill="#FFC3BD"/>
<path d="M24.6135 41.3589C24.6938 39.5337 25.4291 37.755 26.6291 36.3828C26.7586 38.4709 26.6356 40.568 26.6925 42.6599C26.7715 44.3635 27.332 46.0645 28.3819 47.4198C29.7437 49.271 31.9042 50.528 34.1994 50.7364C32.9774 50.928 31.7114 50.7985 30.5295 50.4503C29.5288 50.1538 28.6473 49.5856 27.7644 49.0457C27.49 48.6846 27.112 48.4231 26.8155 48.0813C25.8265 47.0379 25.178 45.7188 24.8025 44.3402C24.6058 43.3602 24.5605 42.3557 24.6135 41.3589Z" fill="#FFD6D3"/>
<path d="M27.7555 51.5647C28.4494 51.8611 29.129 52.1951 29.85 52.4256C31.1135 52.8502 32.4636 52.9731 33.7892 52.8786C34.5944 52.8217 35.3802 52.6249 36.1711 52.4812C36.1711 52.5887 36.1698 52.8048 36.1685 52.9123C36.1724 54.221 35.5342 55.5104 34.4792 56.2871C33.1743 57.2864 31.2701 57.3991 29.8578 56.5563C29.2066 56.1887 28.6785 55.6321 28.2966 54.9926C27.9458 54.3557 27.7581 53.6359 27.7542 52.9084C27.749 52.4605 27.7555 52.0113 27.7555 51.5647Z" fill="#FFD6D3"/>
<path d="M30.4647 39.8675C31.1871 39.4843 32.1217 40.2015 31.9431 40.9963C31.8499 41.7497 30.8531 42.142 30.2706 41.6526C29.6505 41.2177 29.7657 40.1588 30.4647 39.8675Z" fill="#191949"/>
<path d="M36.8015 39.857C37.3335 39.6059 38.0287 39.9075 38.2099 40.4654C38.4144 40.9871 38.1089 41.6266 37.5821 41.8052C37.0759 42.0046 36.4533 41.7314 36.2552 41.2266C36.0222 40.7178 36.2889 40.068 36.8015 39.857Z" fill="#191949"/>
<path opacity="0.8" d="M22.0686 55.1363C23.5922 53.7072 25.6699 52.924 27.7541 52.9084C27.758 53.636 27.9457 54.3557 28.2965 54.9926C27.1172 55.0276 25.9094 55.1596 24.8531 55.7292C23.0395 56.6509 21.7411 58.5007 21.4977 60.5189C21.4356 61.0794 21.4511 61.6438 21.4498 62.2056C21.4563 65.2685 21.4537 68.3313 21.4498 71.3941C21.4407 72.2498 21.4899 73.108 21.4097 73.9611C20.7184 73.9598 20.0284 73.9598 19.3372 73.9598C19.3397 69.7397 19.3359 65.5183 19.3397 61.2982C19.3346 58.9836 20.3456 56.6858 22.0686 55.1363Z" fill="url(#paint0_linear_595_303)"/>
<path d="M31.6377 44.5435C31.9432 44.4412 32.2552 44.5577 32.5426 44.66C33.3607 44.9681 34.2746 44.994 35.12 44.7882C35.5536 44.6859 35.9821 44.3998 36.4391 44.5474C37.0268 44.7105 37.3595 45.4302 37.0941 45.9817C36.9012 46.4438 36.3834 46.6031 35.9459 46.7429C34.439 47.1921 32.7303 47.1364 31.3206 46.4076C30.6021 45.9571 30.8157 44.7364 31.6377 44.5435Z" fill="white"/>
<path d="M35.5135 64.5902C36.2462 64.3792 37.1006 64.5229 37.6404 65.0886C38.5608 65.9314 38.4533 67.5909 37.4125 68.2913C36.3963 69.0926 34.7135 68.6421 34.2475 67.4304C33.7076 66.3508 34.3911 64.9475 35.5135 64.5902Z" fill="white"/>
<path d="M27.7645 49.0457C28.6474 49.5855 29.5289 50.1538 30.5296 50.4502C31.7115 50.7984 32.9775 50.9279 34.1995 50.7363C34.8701 50.612 35.5355 50.4385 36.1698 50.1861C36.1711 50.9512 36.1685 51.7162 36.1711 52.4813C35.3801 52.625 34.5944 52.8218 33.7892 52.8787C32.4636 52.9732 31.1134 52.8502 29.85 52.4256C29.1289 52.1952 28.4493 51.8612 27.7554 51.5648C27.7554 50.7246 27.7464 49.8858 27.7645 49.0457Z" fill="#FFC3BD"/>
<path d="M16.1812 74.9035C16.2472 74.4465 16.6006 74.0219 17.0782 73.9792C17.8291 73.9287 18.5851 73.9753 19.3372 73.9598C20.0284 73.9598 20.7184 73.9598 21.4097 73.9611C23.0485 73.9533 24.6874 73.9727 26.3263 73.9507C31.3438 73.9481 36.3613 73.9572 41.3801 73.9456C44.9038 73.9624 48.4275 73.9585 51.9511 73.9598C51.9537 74.6614 51.946 75.3643 51.9485 76.066C40.4157 76.0647 28.8829 76.0686 17.3501 76.0647C16.7973 76.1139 16.2964 75.7165 16.1812 75.1831V74.9035Z" fill="#ECBD83"/>
<path d="M54.3834 53.8055C56.3873 52.8074 58.386 51.799 60.3938 50.8074C64.5945 50.8203 68.7952 50.8151 72.9959 50.81C74.3189 51.4753 75.6484 52.1317 76.9701 52.8022C78.0277 53.3252 78.8419 54.3116 79.1513 55.4521C79.3494 56.133 79.2989 56.8476 79.3041 57.5466C79.3054 59.5531 79.3002 61.5609 79.3067 63.5674C78.939 63.4858 78.5636 63.4457 78.1882 63.4392C73.6393 63.4366 69.0904 63.4444 64.5414 63.4341C63.5822 63.4289 62.5738 63.3991 61.6987 63.8561C60.5194 64.4088 59.6728 65.5415 59.3841 66.8024C59.2288 65.4923 59.3517 64.1693 59.3077 62.8528C59.3297 61.5428 58.8197 60.2444 57.9472 59.2735C57.5174 58.7971 56.988 58.4282 56.4948 58.023C55.2701 57.0353 54.0287 56.0683 52.8145 55.0689C53.23 54.5317 53.775 54.1045 54.3834 53.8055Z" fill="url(#paint1_linear_595_303)"/>
<path d="M36.1684 52.9124C38.2047 52.9059 40.1736 54.1745 40.9762 56.0503C41.4461 57.0406 41.4539 58.1552 41.4293 59.2283C36.5115 59.2309 31.5936 59.2231 26.6757 59.2322C25.9107 59.2348 25.1728 59.6879 24.8298 60.374C24.6071 60.774 24.5942 61.2439 24.5916 61.6905C24.6084 65.1028 24.5825 68.5151 24.6045 71.9275C24.6045 72.9126 25.3929 73.7346 26.3262 73.9508C24.6874 73.9728 23.0485 73.9534 21.4097 73.9612C21.4899 73.1081 21.4407 72.2498 21.4498 71.3941C21.4537 68.3313 21.4563 65.2685 21.4498 62.2057C21.4511 61.6439 21.4356 61.0795 21.4977 60.5189C21.7411 58.5008 23.0395 56.6509 24.8531 55.7292C25.9094 55.1597 27.1172 55.0276 28.2965 54.9927C28.6784 55.6322 29.2065 56.1888 29.8577 56.5564C31.27 57.3992 33.1742 57.2865 34.4791 56.2872C35.5341 55.5105 36.1723 54.2211 36.1684 52.9124Z" fill="url(#paint2_linear_595_303)"/>
<path d="M52.8146 55.0691C54.0288 56.0685 55.2703 57.0355 56.4949 58.0232C56.9881 58.4284 57.5175 58.7973 57.9473 59.2737C58.8198 60.2446 59.3298 61.543 59.3078 62.853C59.3519 64.1695 59.2289 65.4925 59.3842 66.8026C59.2328 69.2634 59.3635 71.7321 59.3104 74.1968C59.282 75.5211 59.2975 76.8467 59.3027 78.171C57.5305 78.1645 55.757 78.1839 53.9848 78.1632C52.8832 78.1567 51.9317 77.1625 51.9485 76.0661C51.9459 75.3645 51.9537 74.6615 51.9511 73.9599C51.9511 68.5307 51.9498 63.1015 51.9511 57.6711C51.9408 56.739 52.2502 55.8108 52.8146 55.0691Z" fill="url(#paint3_linear_595_303)" fill-opacity="0.8"/>
<path d="M24.8297 60.3739C25.1728 59.6878 25.9107 59.2348 26.6757 59.2322C26.7133 61.9053 26.6783 64.5785 26.6951 67.2517C26.7133 68.0866 26.6045 68.9501 26.888 69.754C27.3294 70.9902 28.5851 71.8783 29.8991 71.8744C34.9502 71.8744 40.0014 71.8692 45.0526 71.877C45.9484 71.8822 46.8442 71.8407 47.7387 71.9132C47.7297 72.9398 46.8624 73.9042 45.8177 73.9236C44.3393 73.9547 42.8584 73.9107 41.3801 73.9456C36.3613 73.9573 31.3437 73.9482 26.3262 73.9508C25.3929 73.7346 24.6045 72.9126 24.6045 71.9275C24.5825 68.5151 24.6084 65.1028 24.5916 61.6905C24.5941 61.2438 24.6071 60.7739 24.8297 60.3739Z" fill="#DAD8DB"/>
<path d="M26.6758 59.2321C31.5936 59.2231 36.5115 59.2308 41.4293 59.2283C42.8585 59.2334 44.2876 59.2166 45.7155 59.2347C46.7938 59.2438 47.7427 60.2082 47.7375 61.2865C47.7466 64.8283 47.744 68.3714 47.7388 71.9132C46.8443 71.8407 45.9485 71.8821 45.0527 71.8769C40.0015 71.8692 34.9503 71.8743 29.8991 71.8743C28.5852 71.8782 27.3295 70.9902 26.8881 69.7539C26.6046 68.95 26.7133 68.0866 26.6952 67.2516C26.6784 64.5785 26.7133 61.9053 26.6758 59.2321ZM35.5134 64.5901C34.3911 64.9474 33.7076 66.3507 34.2474 67.4303C34.7134 68.6419 36.3963 69.0924 37.4125 68.2911C38.4533 67.5908 38.5607 65.9312 37.6403 65.0885C37.1005 64.5228 36.2461 64.3791 35.5134 64.5901Z" fill="#ECEAEC"/>
<path d="M61.6988 63.8562C62.5739 63.3992 63.5823 63.429 64.5416 63.4342C64.0354 63.8135 63.3972 63.9779 62.9364 64.4219C61.9862 65.1999 61.4192 66.4038 61.4088 67.6284C61.4075 70.8284 61.4153 74.0272 61.4063 77.2259C61.4101 77.5431 61.4464 77.8576 61.4891 78.1709C60.7681 78.1709 60.047 78.1696 59.326 78.1735C59.3053 76.8479 59.3324 75.5223 59.3104 74.1967C59.3635 71.732 59.2328 69.2634 59.3842 66.8025C59.6729 65.5416 60.5195 64.4089 61.6988 63.8562Z" fill="#857E87"/>
<path d="M64.5416 63.4341C69.0905 63.4444 73.6394 63.4367 78.1883 63.4393C78.5637 63.4457 78.9391 63.4859 79.3068 63.5674C81.0854 64.014 82.4395 65.7098 82.4602 67.5468V76.2472C82.367 77.2906 81.4363 78.176 80.3799 78.1643C74.0834 78.1799 67.7856 78.1669 61.4891 78.1708C61.4464 77.8575 61.4101 77.543 61.4062 77.2258C61.4153 74.0271 61.4075 70.8283 61.4088 67.6283C61.4192 66.4037 61.9862 65.1998 62.9364 64.4218C63.3972 63.9778 64.0354 63.8134 64.5416 63.4341Z" fill="#9B959D"/>
</g>
</g>
<defs>
<linearGradient id="paint0_linear_595_303" x1="23.8168" y1="52.9084" x2="23.8168" y2="73.9611" gradientUnits="userSpaceOnUse">
<stop stop-color="#FD0091"/>
<stop offset="0.0001" stop-color="#FD0091"/>
<stop offset="1" stop-color="#FF7732"/>
</linearGradient>
<linearGradient id="paint1_linear_595_303" x1="66.0606" y1="50.8074" x2="66.0606" y2="66.8024" gradientUnits="userSpaceOnUse">
<stop stop-color="#FD0091"/>
<stop offset="0.0001" stop-color="#FD0091"/>
<stop offset="1" stop-color="#FF7732"/>
</linearGradient>
<linearGradient id="paint2_linear_595_303" x1="31.4233" y1="52.9124" x2="31.4233" y2="73.9617" gradientUnits="userSpaceOnUse">
<stop stop-color="#FD0091"/>
<stop offset="0.0001" stop-color="#FD0091"/>
<stop offset="1" stop-color="#FF7732"/>
</linearGradient>
<linearGradient id="paint3_linear_595_303" x1="55.6661" y1="55.0691" x2="55.6661" y2="78.1731" gradientUnits="userSpaceOnUse">
<stop stop-color="#FD0091"/>
<stop offset="1" stop-color="#FF7732"/>
</linearGradient>
<clipPath id="clip0_595_303">
<rect x="0.27417" width="80" height="80" rx="40" fill="white"/>
</clipPath>
<clipPath id="clip1_595_303">
<rect width="66.2791" height="66.2791" fill="white" transform="translate(16.1812 17.6743)"/>
</clipPath>
</defs>
</svg>
