<svg width="81" height="81" viewBox="0 0 81 81" fill="none" xmlns="http://www.w3.org/2000/svg">
<g clip-path="url(#clip0_634_320)">
<rect x="0.03125" y="0.661621" width="80" height="80" rx="40" fill="#191949"/>
<path d="M46.1847 19.977C46.6709 19.7942 47.2625 20.0494 47.491 20.5102C48.1817 21.7683 48.8672 23.0277 49.5578 24.2858C49.6962 24.5486 49.9311 24.7632 50.2205 24.8457C51.6754 25.1846 53.143 25.4715 54.5928 25.827C55.2923 26.0073 55.5945 26.9607 55.1311 27.513C54.1485 28.6898 53.1303 29.8387 52.1401 31.0105C51.9712 31.2149 51.8798 31.4841 51.8989 31.7494C52.041 33.3185 52.2315 34.8839 52.3686 36.4543C52.3838 37.1944 51.537 37.7606 50.8616 37.4356C49.6861 36.8935 48.5143 36.3387 47.345 35.7814C46.9832 35.6024 46.563 35.4171 46.1606 35.5897C44.8377 36.1978 43.525 36.8326 42.2022 37.4432C41.5281 37.7593 40.6838 37.202 40.6965 36.4619C40.8349 34.8915 41.019 33.3236 41.1624 31.7532C41.1853 31.4523 41.0609 31.1578 40.8616 30.9382C39.8891 29.7981 38.8976 28.6733 37.9327 27.5269C37.4541 26.9721 37.7626 26.0086 38.471 25.8296C39.8878 25.4995 41.3135 25.2075 42.7316 24.8774C43.0655 24.8063 43.3524 24.5778 43.5047 24.2718C44.1928 23.0188 44.8745 21.762 45.5614 20.5077C45.687 20.255 45.9156 20.0646 46.1847 19.977Z" fill="url(#paint0_linear_634_320)"/>
<path d="M24.2361 26.4861C24.6575 26.2449 25.225 26.354 25.5475 26.7095C26.3524 27.6033 27.1471 28.5059 27.9482 29.4035C28.178 29.6751 28.5347 29.811 28.8876 29.7907C30.0315 29.778 31.1766 29.7678 32.3217 29.7577C33.1774 29.6916 33.7652 30.7492 33.2751 31.4499C32.7241 32.4998 32.1719 33.5472 31.6197 34.5958C31.4648 34.8675 31.4102 35.2001 31.513 35.4998C31.9218 36.7452 32.3712 37.9766 32.7699 39.2233C32.9527 39.9368 32.2646 40.6744 31.5397 40.522C30.4047 40.2872 29.2748 40.032 28.1411 39.792C27.8212 39.707 27.467 39.7641 27.2017 39.9647C26.2432 40.6998 25.3088 41.4653 24.3452 42.1953C23.7473 42.6091 22.837 42.2346 22.7025 41.5199C22.5235 40.23 22.3813 38.9338 22.2061 37.6427C22.1642 37.3672 22.0144 37.1108 21.7897 36.9432C20.7753 36.1751 19.7318 35.4464 18.7174 34.6784C18.1195 34.2455 18.2032 33.2286 18.8609 32.8959C19.9387 32.3653 21.033 31.8664 22.1121 31.3382C22.4194 31.2024 22.6542 30.9269 22.7393 30.6032C23.0617 29.4606 23.3766 28.318 23.699 27.1754C23.7714 26.8847 23.9695 26.627 24.2361 26.4861Z" fill="url(#paint1_linear_634_320)"/>
<path d="M67.8886 26.4454C68.432 26.189 69.1391 26.5 69.3321 27.0649C69.6761 28.2405 69.9922 29.425 70.3286 30.6031C70.4073 30.8875 70.5914 31.1465 70.8568 31.2849C71.9663 31.8282 73.0937 32.336 74.1982 32.8908C74.8672 33.2196 74.9459 34.2492 74.3454 34.6847C73.3565 35.4286 72.3535 36.1535 71.3544 36.8835C71.0967 37.0612 70.8999 37.3367 70.8606 37.6516C70.6879 38.9351 70.5445 40.2211 70.368 41.5033C70.2474 42.2282 69.3257 42.6205 68.7214 42.199C67.7629 41.4665 66.8273 40.7022 65.8688 39.9697C65.6034 39.7653 65.2467 39.7082 64.9255 39.7907C63.7867 40.0319 62.6518 40.2896 61.513 40.5245C60.7945 40.6616 60.1114 39.9367 60.2905 39.2271C60.6916 37.9791 61.1398 36.7451 61.5511 35.4997C61.6349 35.2331 61.612 34.9348 61.4863 34.6859C60.9024 33.5459 60.2841 32.4236 59.7077 31.2798C59.3789 30.6336 59.8994 29.7817 60.6193 29.7652C61.8469 29.7525 63.0771 29.7906 64.3047 29.7868C64.6208 29.7868 64.9217 29.6319 65.1274 29.3971C65.9056 28.5287 66.6762 27.6553 67.4506 26.7844C67.5725 26.6447 67.7134 26.5152 67.8886 26.4454Z" fill="url(#paint2_linear_634_320)"/>
<path d="M15.4646 71.6472C19.0663 68.3959 22.6845 65.1624 26.2861 61.9111C25.9268 66.6071 27.9479 71.3933 31.5458 74.4287L31.641 74.5887C29.1248 76.8281 26.6378 79.0993 24.1165 81.3324C23.5858 81.7971 22.6565 81.5444 22.4331 80.8767C21.9557 79.2529 21.533 77.6127 21.0696 75.9852C20.9719 75.6132 20.6659 75.3301 20.3066 75.212C18.7933 74.6141 17.2775 74.0237 15.7655 73.4245C15.0736 73.149 14.8959 72.1334 15.4646 71.6472Z" fill="url(#paint3_linear_634_320)"/>
<path d="M66.7739 61.9048C70.3794 65.1611 74.0052 68.3934 77.6068 71.6548C78.1642 72.1474 77.9852 73.1592 77.2895 73.4271C75.7533 74.0504 74.2045 74.642 72.6633 75.2501C72.3408 75.3745 72.0831 75.6513 71.993 75.9852C71.5283 77.6114 71.1068 79.2504 70.6295 80.8716C70.4099 81.547 69.4679 81.8034 68.9372 81.3286C66.4235 79.0892 63.9314 76.8243 61.4165 74.5849L61.5168 74.4313C65.1159 71.3945 67.1345 66.6033 66.7739 61.9048Z" fill="url(#paint4_linear_634_320)"/>
<path d="M41.598 43.3584C43.3575 42.5916 45.0295 41.6141 46.5288 40.4131C49.4043 42.7008 52.8663 44.162 56.4375 44.9542C58.8839 45.4988 61.3887 45.7604 63.8935 45.7984C64.5587 49.2389 65.1655 52.692 65.8079 56.1375C66.1266 58.0596 66.5963 59.9613 66.774 61.905C67.1346 66.6035 65.116 71.3947 61.5169 74.4314C60.4391 75.3442 59.2381 76.111 57.9508 76.6899C54.1447 78.3226 50.3399 79.9577 46.5288 81.5776C42.8751 80.0047 39.2163 78.4457 35.5613 76.8778C34.1026 76.2837 32.7468 75.4458 31.5458 74.4289C27.948 71.3935 25.9269 66.6073 26.2861 61.9113C26.375 60.6405 26.6708 59.3989 26.8854 58.1459C27.6547 54.0313 28.3771 49.9054 29.1743 45.7972C33.4107 45.7286 37.6916 45.052 41.598 43.3584ZM46.1099 45.9254C42.0474 48.2207 37.4745 49.5893 32.8242 49.9435C32.6947 50.3078 32.677 50.7014 32.5919 51.0771C31.9749 54.4274 31.3605 57.7777 30.7422 61.1268C30.3144 63.5236 30.7485 66.064 31.9406 68.1866C33.1086 70.2991 35.0167 71.9952 37.26 72.8915C40.3513 74.208 43.435 75.5474 46.5314 76.8524C49.6354 75.5601 52.7152 74.2105 55.8104 72.8979C57.8492 72.0765 59.6101 70.5975 60.7907 68.7452C62.2596 66.4626 62.8093 63.6087 62.285 60.9439C61.5918 57.2801 60.971 53.5946 60.2347 49.9422C55.4232 49.5893 50.7183 48.0976 46.5364 45.7032C46.3904 45.7705 46.2482 45.8441 46.1099 45.9254Z" fill="#F28F8F"/>
<path d="M46.1096 45.9253C46.248 45.844 46.3902 45.7704 46.5362 45.7031C50.718 48.0975 55.4229 49.5892 60.2344 49.9421C60.9708 53.5945 61.5916 57.28 62.2847 60.9438C62.809 63.6086 62.2593 66.4625 60.7905 68.7451C59.6098 70.5974 57.849 72.0764 55.8101 72.8978C52.715 74.2104 49.6351 75.56 46.5311 76.8523C43.4347 75.5473 40.351 74.2079 37.2597 72.8914C35.0164 71.9951 33.1083 70.299 31.9404 68.1865C30.7483 66.0639 30.3141 63.5235 30.7419 61.1267C31.3602 57.7776 31.9747 54.4273 32.5916 51.077C32.6767 50.7013 32.6945 50.3077 32.824 49.9434C37.4743 49.5892 42.0471 48.2206 46.1096 45.9253ZM37.3003 54.633C36.8065 54.9123 36.6173 55.6055 36.9157 56.0917C37.8843 57.723 38.8619 59.3493 39.8432 60.9718C39.0244 62.4228 38.1319 63.8358 37.2851 65.2717C37.0464 65.697 36.6592 66.1324 36.7989 66.6605C36.9182 67.2966 37.6761 67.6952 38.269 67.4261C38.6943 67.2636 38.8733 66.8167 39.0993 66.46C39.7823 65.3479 40.4208 64.2091 41.1292 63.1135C41.8897 64.4046 42.6666 65.6843 43.4373 66.969C43.7051 67.4527 44.3665 67.6533 44.8566 67.3943C45.3784 67.1493 45.6158 66.4511 45.3377 65.9433C44.378 64.2726 43.3255 62.6501 42.3912 60.968C43.3573 59.3645 44.3221 57.7611 45.2793 56.1526C45.6361 55.6182 45.386 54.8158 44.7868 54.5835C44.3018 54.3613 43.6835 54.5746 43.4258 55.0393C42.6705 56.291 41.9214 57.5478 41.1673 58.8009C40.9947 58.8174 40.9617 58.5939 40.8728 58.4911C40.1771 57.3244 39.4814 56.1564 38.7743 54.9961C38.4873 54.501 37.7828 54.3258 37.3003 54.633ZM47.6165 55.627C47.6153 59.2198 47.6127 62.8139 47.6178 66.4066C47.5988 66.9805 48.1117 67.4997 48.6855 67.4921C49.2657 67.5149 49.7862 66.9982 49.7786 66.4206C49.7824 65.3453 49.7849 64.2713 49.776 63.1973C50.9465 63.0614 52.178 63.3369 53.3193 62.9345C55.1944 62.3479 56.4855 60.3561 56.257 58.4035C56.0957 56.3621 54.3044 54.6114 52.2567 54.5099C51.0633 54.4807 49.8687 54.4984 48.6753 54.4997C48.0863 54.4908 47.5772 55.0405 47.6165 55.627Z" fill="#FFC3BD"/>
<path d="M49.7914 56.6602C50.5645 56.6678 51.3376 56.6488 52.1108 56.6704C53.1937 56.7237 54.1217 57.7076 54.1128 58.7918C54.1585 59.9039 53.2153 60.9347 52.1019 60.9868C51.33 61.0046 50.5569 60.9931 49.7837 60.9919C49.7837 59.5484 49.7698 58.1037 49.7914 56.6602Z" fill="#FFC3BD"/>
<path d="M37.3006 54.6329C37.783 54.3257 38.4876 54.5009 38.7745 54.996C39.4816 56.1564 40.1773 57.3243 40.873 58.491C40.9619 58.5939 40.9949 58.8173 41.1676 58.8008C41.9217 57.5478 42.6707 56.2909 43.4261 55.0392C43.6838 54.5745 44.302 54.3612 44.787 54.5834C45.3862 54.8157 45.6363 55.6181 45.2796 56.1526C44.3224 57.7611 43.3575 59.3645 42.3914 60.9679C43.3258 62.65 44.3782 64.2725 45.338 65.9432C45.616 66.451 45.3786 67.1492 44.8568 67.3943C44.3668 67.6532 43.7054 67.4527 43.4375 66.969C42.6669 65.6842 41.8899 64.4045 41.1295 63.1134C40.4211 64.209 39.7825 65.3478 39.0995 66.4599C38.8735 66.8166 38.6945 67.2635 38.2692 67.426C37.6764 67.6951 36.9184 67.2965 36.7991 66.6605C36.6595 66.1323 37.0467 65.6969 37.2853 65.2716C38.1321 63.8358 39.0246 62.4228 39.8434 60.9717C38.8621 59.3492 37.8846 57.723 36.9159 56.0916C36.6176 55.6054 36.8067 54.9122 37.3006 54.6329Z" fill="#285680"/>
<path d="M47.6169 55.627C47.5775 55.0405 48.0866 54.4908 48.6757 54.4997C49.869 54.4984 51.0637 54.4806 52.257 54.5098C54.3048 54.6114 56.0961 56.3621 56.2573 58.4035C56.4858 60.356 55.1947 62.3479 53.3196 62.9344C52.1783 63.3369 50.9469 63.0614 49.7764 63.1972C49.7852 64.2713 49.7827 65.3453 49.7789 66.4206C49.7865 66.9982 49.266 67.5149 48.6858 67.4921C48.112 67.4997 47.5991 66.9804 47.6182 66.4066C47.6131 62.8138 47.6156 59.2198 47.6169 55.627ZM49.7916 56.6604C49.77 58.1039 49.784 59.5486 49.784 60.9921C50.5571 60.9933 51.3303 61.0048 52.1021 60.987C53.2155 60.9349 54.1588 59.9041 54.1131 58.792C54.122 57.7078 53.1939 56.7239 52.111 56.6706C51.3379 56.649 50.5647 56.668 49.7916 56.6604Z" fill="#285680"/>
</g>
<defs>
<linearGradient id="paint0_linear_634_320" x1="46.5276" y1="19.9175" x2="46.5276" y2="37.5336" gradientUnits="userSpaceOnUse">
<stop stop-color="#FD0091"/>
<stop offset="0.0001" stop-color="#FD0091"/>
<stop offset="1" stop-color="#FF7732"/>
</linearGradient>
<linearGradient id="paint1_linear_634_320" x1="25.8838" y1="26.3569" x2="25.8838" y2="42.3674" gradientUnits="userSpaceOnUse">
<stop stop-color="#FD0091"/>
<stop offset="0.0001" stop-color="#FD0091"/>
<stop offset="1" stop-color="#FF7732"/>
</linearGradient>
<linearGradient id="paint2_linear_634_320" x1="67.1793" y1="26.3545" x2="67.1793" y2="42.3722" gradientUnits="userSpaceOnUse">
<stop stop-color="#FD0091"/>
<stop offset="0.0001" stop-color="#FD0091"/>
<stop offset="1" stop-color="#FF7732"/>
</linearGradient>
<linearGradient id="paint3_linear_634_320" x1="23.3832" y1="61.9111" x2="23.3832" y2="81.5697" gradientUnits="userSpaceOnUse">
<stop stop-color="#FD0091"/>
<stop offset="0.0001" stop-color="#FD0091"/>
<stop offset="1" stop-color="#FF7732"/>
</linearGradient>
<linearGradient id="paint4_linear_634_320" x1="69.6764" y1="61.9048" x2="69.6764" y2="81.5718" gradientUnits="userSpaceOnUse">
<stop stop-color="#FD0091"/>
<stop offset="0.0001" stop-color="#FD0091"/>
<stop offset="1" stop-color="#FF7732"/>
</linearGradient>
<clipPath id="clip0_634_320">
<rect x="0.03125" y="0.661621" width="80" height="80" rx="40" fill="white"/>
</clipPath>
</defs>
</svg>
