<svg width="81" height="80" viewBox="0 0 81 80" fill="none" xmlns="http://www.w3.org/2000/svg">
<g clip-path="url(#clip0_595_372)">
<rect x="0.733398" width="80" height="80" rx="40" fill="#191949"/>
<g clip-path="url(#clip1_595_372)">
<path d="M48.1615 16.8H48.4524C48.9717 16.8803 49.3863 17.3465 49.3469 17.8821C49.3537 19.8328 49.355 21.7849 49.3469 23.7356C49.3849 24.297 48.9024 24.8176 48.3382 24.8068C47.7659 24.8272 47.2738 24.297 47.3146 23.7301C47.3133 21.7441 47.3024 19.758 47.32 17.772C47.3173 17.2867 47.7143 16.9142 48.1615 16.8Z" fill="url(#paint0_linear_595_372)"/>
<path d="M38.172 22.4101C38.6559 22.2021 39.2731 22.4522 39.4716 22.9402C39.7217 23.5098 39.9229 24.1011 40.1635 24.6748C40.3157 25.0554 40.5128 25.4904 40.3089 25.8928C40.0887 26.4243 39.3818 26.6649 38.8843 26.3672C38.5078 26.1769 38.3936 25.7432 38.2468 25.383C38.0293 24.7835 37.7574 24.2031 37.5657 23.5954C37.4216 23.121 37.7152 22.5827 38.172 22.4101Z" fill="url(#paint1_linear_595_372)"/>
<path d="M57.7371 22.4116C58.4562 22.0772 59.3357 22.8344 59.0978 23.5929C58.8355 24.365 58.5174 25.1181 58.2156 25.8739C58.013 26.4095 57.313 26.661 56.8141 26.381C56.356 26.158 56.1317 25.5626 56.3424 25.0937C56.5857 24.4384 56.8535 23.7914 57.1036 23.1375C57.2124 22.8276 57.4136 22.5258 57.7371 22.4116Z" fill="url(#paint2_linear_595_372)"/>
<path d="M26.3413 25.8154C26.7369 25.6319 27.2222 25.7502 27.5131 26.0655C28.8562 27.3991 30.1897 28.7422 31.5328 30.0757C31.768 30.3041 32.0004 30.58 31.9977 30.9267C32.0371 31.5017 31.5083 32.0264 30.9347 31.9829C30.5894 31.9829 30.3134 31.7518 30.0864 31.518C28.7298 30.1477 27.3527 28.7965 26.0001 27.4222C25.5271 26.9491 25.7255 26.0615 26.3413 25.8154Z" fill="url(#paint3_linear_595_372)"/>
<path d="M69.4493 25.8384C69.9917 25.538 70.7394 25.8711 70.8889 26.4692C71.0181 26.8756 70.8264 27.3011 70.5246 27.5744C69.1639 28.9351 67.8004 30.2931 66.437 31.6511C66.0686 32.0657 65.3699 32.0984 64.977 31.7014C64.5801 31.3412 64.5542 30.6574 64.9403 30.2795C66.2426 28.95 67.5761 27.6518 68.8838 26.3265C69.0619 26.1538 69.2305 25.9635 69.4493 25.8384Z" fill="url(#paint4_linear_595_372)"/>
<path d="M45.2485 36.5137C45.3219 36.023 45.799 35.656 46.2898 35.6886C47.6532 35.6845 49.0167 35.6845 50.3788 35.6886C50.8682 35.6573 51.3385 36.0257 51.4133 36.511C51.5669 37.4368 51.6811 38.3693 51.8156 39.2977C52.5157 39.5288 53.1968 39.8129 53.8561 40.1446C54.5317 39.6349 55.21 39.1305 55.8842 38.6181C56.1371 38.425 56.4307 38.2334 56.7665 38.2796C57.1553 38.2945 57.4299 38.5949 57.6881 38.8478C58.5649 39.7436 59.4648 40.6163 60.3416 41.5108C60.6924 41.8411 60.763 42.4202 60.4721 42.8131C59.9297 43.5798 59.3384 44.3138 58.7865 45.0751C59.1168 45.7276 59.3955 46.4032 59.6253 47.0978C60.5388 47.2324 61.455 47.352 62.3671 47.4948C62.8442 47.5492 63.2466 47.9774 63.2439 48.4627C63.2643 49.8302 63.2493 51.1991 63.2521 52.5666C63.2901 53.0573 62.9584 53.5657 62.4609 53.6527C61.5202 53.8186 60.57 53.9301 59.6266 54.0701C59.3955 54.7647 59.1182 55.4417 58.7865 56.0928C59.3371 56.8541 59.927 57.5868 60.4694 58.3535C60.7671 58.7477 60.691 59.3349 60.3348 59.6666C59.3656 60.6427 58.3937 61.6173 57.4149 62.5825C57.0859 62.9278 56.5096 63.0012 56.1208 62.7157C55.3541 62.1679 54.6132 61.5861 53.8561 61.0246C53.1981 61.3522 52.5212 61.6418 51.8197 61.8661C51.6783 62.7918 51.5696 63.723 51.416 64.6487C51.3439 65.1354 50.8763 65.5079 50.3856 65.482C49.1594 65.4943 47.9346 65.4752 46.7085 65.4888C46.3238 65.4834 45.8806 65.5228 45.5775 65.2373C45.3151 65.0307 45.239 64.6895 45.1982 64.3769C45.0813 63.5395 44.9657 62.7035 44.8434 61.8675C44.146 61.6364 43.4677 61.3522 42.8098 61.0246C42.16 61.514 41.5102 62.002 40.8618 62.4941C40.5818 62.6994 40.2718 62.9359 39.9007 62.8897C39.5418 62.8788 39.274 62.6178 39.0375 62.3799C38.1376 61.4651 37.2173 60.572 36.3188 59.6557C35.9653 59.3227 35.8987 58.7327 36.1991 58.3426C36.7415 57.58 37.3315 56.8527 37.878 56.0942C37.5436 55.443 37.2649 54.7634 37.0365 54.0687C36.0917 53.9097 35.1348 53.8295 34.1941 53.65C33.7509 53.5685 33.4111 53.1389 33.4179 52.6903C33.4015 51.3269 33.4151 49.9634 33.4124 48.5999C33.373 48.1147 33.6965 47.6103 34.1886 47.5206C35.1307 47.3425 36.0877 47.2582 37.0338 47.1033C37.2649 46.4073 37.5436 45.7262 37.8793 45.0737C37.3247 44.3111 36.7307 43.5771 36.1869 42.8077C35.896 42.4148 35.9721 41.8316 36.3269 41.5054C37.3002 40.5253 38.2749 39.5479 39.2591 38.5786C39.584 38.2347 40.159 38.1708 40.5437 38.4549C41.3158 38.9797 42.0227 39.5968 42.7975 40.1174C43.4786 39.8578 44.142 39.5139 44.8461 39.2991C44.9821 38.3707 45.0949 37.4381 45.2485 36.5137ZM47.4344 46.1123C45.8561 46.4168 44.4913 47.6212 43.9979 49.1519C43.499 50.6118 43.8198 52.3151 44.8176 53.4923C46.1199 55.1182 48.579 55.6252 50.4155 54.641C52.3757 53.6799 53.3993 51.2059 52.6625 49.1464C51.9978 47.0136 49.6189 45.627 47.4344 46.1123Z" fill="#FFC3BD"/>
<path d="M22.9563 37.6434C23.5857 37.3294 24.2096 37.816 24.8023 37.9955C25.3583 38.2687 26.1413 38.3285 26.4227 38.962C26.7489 39.6417 26.1032 40.4954 25.3624 40.3649C24.7575 40.2153 24.2001 39.9244 23.6142 39.7205C23.2268 39.5574 22.7483 39.4541 22.5362 39.0503C22.2413 38.5732 22.452 37.884 22.9563 37.6434Z" fill="url(#paint5_linear_595_372)"/>
<path d="M72.7161 37.6611C73.1715 37.4259 73.7887 37.5238 74.0769 37.9683C74.4317 38.4441 74.2468 39.2067 73.7003 39.45C72.9907 39.7572 72.2648 40.0264 71.543 40.3023C71.0523 40.5103 70.4378 40.2507 70.2407 39.7586C70.0151 39.2678 70.2652 38.6289 70.7695 38.4318C71.4139 38.1627 72.0691 37.9221 72.7161 37.6611Z" fill="url(#paint6_linear_595_372)"/>
<path d="M17.6466 47.299C19.6762 47.2514 21.7098 47.2868 23.7407 47.28C24.3171 47.2419 24.85 47.7544 24.8105 48.3349C24.8065 48.8922 24.2817 49.3544 23.7285 49.3136C21.7805 49.3177 19.8311 49.3177 17.8818 49.3136C17.4237 49.3422 16.9724 49.039 16.8419 48.5972C16.6502 48.0358 17.0567 47.3711 17.6466 47.299Z" fill="url(#paint7_linear_595_372)"/>
<path d="M72.6987 47.2989C74.6834 47.2486 76.6722 47.2921 78.6596 47.2758C79.1014 47.2391 79.5785 47.4376 79.7675 47.8603C80.0883 48.4693 79.6098 49.2917 78.9206 49.3053C76.9264 49.3298 74.9294 49.3121 72.9339 49.3135C72.435 49.3475 71.9483 48.9777 71.8681 48.4816C71.7526 47.946 72.1522 47.3682 72.6987 47.2989Z" fill="url(#paint8_linear_595_372)"/>
<path d="M42.5055 28.0828C47.1192 26.7928 52.1584 27.0864 56.5927 28.8998C60.8094 30.6112 64.4444 33.6984 66.8559 37.5536C68.7863 40.6217 69.9118 44.1846 70.1157 47.8019C70.3672 51.9725 69.3749 56.2069 67.3045 59.8351C65.7902 62.5049 63.7076 64.8525 61.2281 66.6646C60.785 66.9949 60.3309 67.3239 59.9693 67.7453C52.2155 67.7358 44.4616 67.7412 36.7077 67.7426C36.1844 67.1526 35.5074 66.7339 34.8916 66.2527C32.9137 64.703 31.2022 62.8121 29.866 60.6847C27.3783 56.7575 26.2079 52.02 26.5763 47.3873C26.8944 43.1406 28.5243 39.0095 31.1751 35.679C34.0365 32.0481 38.044 29.3185 42.5055 28.0828ZM45.2487 36.5136C45.0951 37.438 44.9822 38.3706 44.8463 39.299C44.1421 39.5138 43.4788 39.8577 42.7977 40.1173C42.0229 39.5967 41.316 38.9796 40.5439 38.4548C40.1592 38.1707 39.5842 38.2346 39.2593 38.5785C38.2751 39.5478 37.3004 40.5252 36.3271 41.5053C35.9723 41.8315 35.8962 42.4147 36.1871 42.8076C36.7308 43.577 37.3249 44.311 37.8795 45.0736C37.5437 45.7261 37.2651 46.4072 37.034 47.1032C36.0878 47.2581 35.1308 47.3424 34.1888 47.5205C33.6967 47.6102 33.3732 48.1145 33.4126 48.5998C33.4153 49.9633 33.4017 51.3268 33.418 52.6902C33.4112 53.1388 33.7511 53.5684 34.1942 53.6499C35.1349 53.8294 36.0919 53.9096 37.0367 54.0686C37.2651 54.7633 37.5437 55.4429 37.8781 56.0941C37.3317 56.8526 36.7417 57.5799 36.1993 58.3425C35.8989 58.7326 35.9655 59.3226 36.3189 59.6556C37.2175 60.5719 38.1378 61.465 39.0377 62.3798C39.2742 62.6177 39.542 62.8787 39.9009 62.8896C40.272 62.9358 40.5819 62.6993 40.862 62.494C41.5104 62.0019 42.1602 61.5139 42.8099 61.0245C43.4679 61.3521 44.1462 61.6363 44.8436 61.8673C44.9659 62.7034 45.0815 63.5394 45.1984 64.3768C45.2392 64.6894 45.3153 65.0306 45.5776 65.2372C45.8808 65.5227 46.3239 65.4833 46.7086 65.4887C47.9348 65.4751 49.1596 65.4942 50.3857 65.4819C50.8765 65.5078 51.3441 65.1353 51.4162 64.6486C51.5698 63.7229 51.6785 62.7917 51.8199 61.866C52.5213 61.6417 53.1983 61.3521 53.8562 61.0245C54.6134 61.586 55.3543 62.1678 56.121 62.7156C56.5097 63.0011 57.0861 62.9277 57.4151 62.5824C58.3938 61.6172 59.3658 60.6426 60.335 59.6665C60.6912 59.3348 60.7673 58.7476 60.4696 58.3534C59.9272 57.5867 59.3372 56.854 58.7867 56.0927C59.1184 55.4416 59.3957 54.7646 59.6268 54.07C60.5702 53.93 61.5204 53.8185 62.4611 53.6526C62.9586 53.5656 63.2903 53.0572 63.2522 52.5665C63.2495 51.199 63.2645 49.8301 63.2441 48.4626C63.2468 47.9773 62.8444 47.5491 62.3673 47.4947C61.4551 47.3519 60.5389 47.2323 59.6254 47.0977C59.3957 46.4031 59.117 45.7275 58.7867 45.075C59.3386 44.3137 59.9299 43.5797 60.4723 42.813C60.7632 42.4201 60.6925 41.841 60.3418 41.5107C59.465 40.6162 58.5651 39.7435 57.6883 38.8477C57.43 38.5948 57.1554 38.2944 56.7667 38.2795C56.4309 38.2333 56.1373 38.4249 55.8844 38.618C55.2102 39.1304 54.5318 39.6348 53.8562 40.1445C53.1969 39.8128 52.5159 39.5287 51.8158 39.2976C51.6812 38.3692 51.567 37.4367 51.4134 36.5109C51.3387 36.0256 50.8683 35.6572 50.379 35.6885C49.0169 35.6844 47.6534 35.6844 46.29 35.6885C45.7992 35.6559 45.3221 36.0229 45.2487 36.5136Z" fill="url(#paint9_linear_595_372)"/>
<path d="M47.434 46.1121C49.6186 45.6268 51.9975 47.0134 52.6622 49.1462C53.399 51.2057 52.3754 53.6797 50.4152 54.6408C48.5786 55.625 46.1195 55.118 44.8172 53.4922C43.8195 52.3149 43.4987 50.6116 43.9975 49.1517C44.491 47.621 45.8558 46.4166 47.434 46.1121Z" fill="url(#paint10_linear_595_372)"/>
<path d="M36.708 67.7425C44.4619 67.7412 52.2158 67.7357 59.9696 67.7452C59.1187 68.7172 58.6021 69.9624 58.5396 71.2551C58.4077 70.7685 57.9836 70.3539 57.4534 70.3987C51.6938 70.3906 45.9341 70.4001 40.1744 70.3947C39.7381 70.3987 39.2963 70.3593 38.8653 70.4395C38.4861 70.5224 38.274 70.8786 38.1258 71.2049C38.0484 69.9311 37.5454 68.7036 36.708 67.7425Z" fill="#FD0091"/>
<path d="M38.865 70.4394C39.2959 70.3592 39.7377 70.3987 40.1741 70.3946C45.9337 70.4 51.6934 70.3905 57.4531 70.3987C57.9832 70.3538 58.4074 70.7684 58.5392 71.2551C58.5134 71.9891 58.5311 72.7232 58.5243 73.4573C58.3326 74.8425 57.5115 76.1407 56.2609 76.7986C55.3936 77.3247 54.3523 77.3682 53.3654 77.3491C50.2389 77.3396 47.111 77.3451 43.9844 77.3451C42.8765 77.3437 41.7047 77.4416 40.677 76.9413C39.3285 76.3446 38.4069 75.026 38.1418 73.5945C38.1309 72.798 38.1527 72 38.1255 71.2048C38.2737 70.8785 38.4857 70.5224 38.865 70.4394Z" fill="#9C8F9A"/>
<path d="M56.2608 76.7989C57.5114 76.1409 58.3325 74.8427 58.5242 73.4575C58.5323 74.8699 58.5255 76.285 58.531 77.6988C58.5622 79.311 57.559 80.858 56.129 81.5743C55.7538 81.7755 55.3228 81.8408 54.9517 82.0474C51.2488 82.0637 47.5445 82.0488 43.8416 82.0515C43.132 82.0338 42.421 82.095 41.7128 82.0338C41.0059 81.7728 40.2691 81.5336 39.6982 81.0197C38.7317 80.2123 38.1036 78.9711 38.1349 77.7001C38.1403 76.3326 38.1335 74.9637 38.1417 73.5948C38.4068 75.0262 39.3284 76.3448 40.6769 76.9416C41.7046 77.4418 42.8764 77.344 43.9843 77.3453C47.1109 77.3453 50.2388 77.3399 53.3653 77.3494C54.3522 77.3684 55.3935 77.3249 56.2608 76.7989Z" fill="#8C808A"/>
</g>
</g>
<defs>
<linearGradient id="paint0_linear_595_372" x1="48.3313" y1="16.8" x2="48.3313" y2="24.8073" gradientUnits="userSpaceOnUse">
<stop stop-color="#FF6ABF"/>
<stop offset="1" stop-color="#FF4DB3"/>
</linearGradient>
<linearGradient id="paint1_linear_595_372" x1="38.9625" y1="22.3364" x2="38.9625" y2="26.4965" gradientUnits="userSpaceOnUse">
<stop stop-color="#FF6ABF"/>
<stop offset="1" stop-color="#FF4DB3"/>
</linearGradient>
<linearGradient id="paint2_linear_595_372" x1="57.7001" y1="22.3303" x2="57.7001" y2="26.4966" gradientUnits="userSpaceOnUse">
<stop stop-color="#FF6ABF"/>
<stop offset="1" stop-color="#FF4DB3"/>
</linearGradient>
<linearGradient id="paint3_linear_595_372" x1="28.8688" y1="25.7285" x2="28.8688" y2="31.9854" gradientUnits="userSpaceOnUse">
<stop stop-color="#FF6ABF"/>
<stop offset="1" stop-color="#FF4DB3"/>
</linearGradient>
<linearGradient id="paint4_linear_595_372" x1="67.7972" y1="25.7261" x2="67.7972" y2="31.9814" gradientUnits="userSpaceOnUse">
<stop stop-color="#FF6ABF"/>
<stop offset="1" stop-color="#FF4DB3"/>
</linearGradient>
<linearGradient id="paint5_linear_595_372" x1="24.4554" y1="37.5403" x2="24.4554" y2="40.3782" gradientUnits="userSpaceOnUse">
<stop stop-color="#FF6ABF"/>
<stop offset="1" stop-color="#FF4DB3"/>
</linearGradient>
<linearGradient id="paint6_linear_595_372" x1="72.208" y1="37.5371" x2="72.208" y2="40.3745" gradientUnits="userSpaceOnUse">
<stop stop-color="#FF6ABF"/>
<stop offset="1" stop-color="#FF4DB3"/>
</linearGradient>
<linearGradient id="paint7_linear_595_372" x1="20.8033" y1="47.2737" x2="20.8033" y2="49.3167" gradientUnits="userSpaceOnUse">
<stop stop-color="#FF6ABF"/>
<stop offset="1" stop-color="#FF4DB3"/>
</linearGradient>
<linearGradient id="paint8_linear_595_372" x1="75.8588" y1="47.2715" x2="75.8588" y2="49.3184" gradientUnits="userSpaceOnUse">
<stop stop-color="#FF6ABF"/>
<stop offset="1" stop-color="#FF4DB3"/>
</linearGradient>
<linearGradient id="paint9_linear_595_372" x1="48.3319" y1="27.2903" x2="48.3319" y2="67.7453" gradientUnits="userSpaceOnUse">
<stop stop-color="#FD0091"/>
<stop offset="0.0001" stop-color="#FD0091"/>
<stop offset="1" stop-color="#FF7732"/>
</linearGradient>
<linearGradient id="paint10_linear_595_372" x1="48.3336" y1="46.0151" x2="48.3336" y2="55.1423" gradientUnits="userSpaceOnUse">
<stop stop-color="#FD0091"/>
<stop offset="0.0001" stop-color="#FD0091"/>
<stop offset="1" stop-color="#FF7732"/>
</linearGradient>
<clipPath id="clip0_595_372">
<rect x="0.733398" width="80" height="80" rx="40" fill="white"/>
</clipPath>
<clipPath id="clip1_595_372">
<rect width="69.6" height="69.6" fill="white" transform="translate(13.5332 16.8)"/>
</clipPath>
</defs>
</svg>
