<svg width="69" height="64" viewBox="0 0 69 64" fill="none" xmlns="http://www.w3.org/2000/svg">
<g clip-path="url(#clip0_595_373)">
<path d="M35.472 0.800049H35.763C36.2822 0.880252 36.6968 1.34652 36.6574 1.88211C36.6642 3.83281 36.6656 5.78488 36.6574 7.73558C36.6955 8.297 36.2129 8.81764 35.6488 8.80677C35.0765 8.82716 34.5844 8.297 34.6252 7.73014C34.6238 5.7441 34.6129 3.75805 34.6306 1.772C34.6279 1.28671 35.0248 0.914236 35.472 0.800049Z" fill="url(#paint0_linear_595_373)"/>
<path d="M25.4825 6.41006C25.9665 6.20207 26.5836 6.4522 26.7821 6.94021C27.0322 7.50979 27.2334 8.10112 27.474 8.67478C27.6263 9.0554 27.8234 9.4904 27.6195 9.89278C27.3993 10.4243 26.6924 10.6649 26.1949 10.3672C25.8183 10.1769 25.7041 9.74325 25.5573 9.38301C25.3398 8.78353 25.0679 8.20307 24.8763 7.59543C24.7322 7.12101 25.0258 6.5827 25.4825 6.41006Z" fill="url(#paint1_linear_595_373)"/>
<path d="M45.0476 6.41161C45.7667 6.0772 46.6463 6.83437 46.4084 7.59291C46.146 8.36503 45.8279 9.11812 45.5261 9.87394C45.3236 10.4095 44.6235 10.661 44.1246 10.381C43.6665 10.158 43.4422 9.56264 43.6529 9.09366C43.8962 8.43844 44.164 7.79137 44.4142 7.13751C44.5229 6.82758 44.7241 6.5258 45.0476 6.41161Z" fill="url(#paint2_linear_595_373)"/>
<path d="M13.6519 9.81542C14.0475 9.6319 14.5328 9.75017 14.8237 10.0655C16.1667 11.3991 17.5003 12.7422 18.8433 14.0757C19.0785 14.3041 19.311 14.58 19.3082 14.9267C19.3477 15.5017 18.8189 16.0264 18.2452 15.9829C17.8999 15.9829 17.624 15.7518 17.397 15.518C16.0403 14.1477 14.6633 12.7965 13.3107 11.4222C12.8376 10.9491 13.0361 10.0615 13.6519 9.81542Z" fill="url(#paint3_linear_595_373)"/>
<path d="M56.7599 9.83843C57.3023 9.53801 58.0499 9.87106 58.1995 10.4692C58.3286 10.8756 58.1369 11.3011 57.8352 11.5744C56.4744 12.9351 55.111 14.2931 53.7475 15.6511C53.3791 16.0657 52.6804 16.0984 52.2875 15.7014C51.8906 15.3412 51.8648 14.6574 52.2508 14.2795C53.5531 12.95 54.8867 11.6518 56.1944 10.3265C56.3725 10.1538 56.541 9.9635 56.7599 9.83843Z" fill="url(#paint4_linear_595_373)"/>
<path d="M32.559 20.5137C32.6325 20.023 33.1096 19.656 33.6003 19.6886C34.9638 19.6845 36.3272 19.6845 37.6893 19.6886C38.1787 19.6573 38.649 20.0257 38.7238 20.511C38.8774 21.4368 38.9916 22.3693 39.1262 23.2977C39.8263 23.5288 40.5073 23.8129 41.1666 24.1446C41.8422 23.6349 42.5205 23.1305 43.1948 22.6181C43.4476 22.425 43.7413 22.2334 44.077 22.2796C44.4658 22.2945 44.7404 22.5949 44.9987 22.8478C45.8755 23.7436 46.7754 24.6163 47.6522 25.5108C48.0029 25.8411 48.0736 26.4202 47.7827 26.8131C47.2403 27.5798 46.649 28.3138 46.0971 29.0751C46.4274 29.7276 46.7061 30.4032 46.9358 31.0978C47.8493 31.2324 48.7655 31.352 49.6777 31.4948C50.1548 31.5492 50.5572 31.9774 50.5545 32.4627C50.5748 33.8302 50.5599 35.1991 50.5626 36.5666C50.6007 37.0573 50.269 37.5657 49.7715 37.6527C48.8308 37.8186 47.8806 37.9301 46.9372 38.0701C46.7061 38.7647 46.4287 39.4417 46.0971 40.0928C46.6476 40.8541 47.2376 41.5868 47.78 42.3535C48.0777 42.7477 48.0015 43.3349 47.6454 43.6666C46.6762 44.6427 45.7042 45.6173 44.7255 46.5825C44.3965 46.9278 43.8201 47.0012 43.4313 46.7157C42.6646 46.1679 41.9238 45.5861 41.1666 45.0246C40.5087 45.3522 39.8317 45.6418 39.1303 45.8661C38.9889 46.7918 38.8801 47.723 38.7265 48.6487C38.6545 49.1354 38.1869 49.5079 37.6961 49.482C36.47 49.4943 35.2452 49.4752 34.019 49.4888C33.6343 49.4834 33.1912 49.5228 32.888 49.2373C32.6257 49.0307 32.5495 48.6895 32.5087 48.3769C32.3918 47.5395 32.2763 46.7035 32.154 45.8675C31.4566 45.6364 30.7783 45.3522 30.1203 45.0246C29.4705 45.514 28.8208 46.002 28.1723 46.4941C27.8923 46.6994 27.5824 46.9359 27.2113 46.8897C26.8524 46.8788 26.5846 46.6178 26.3481 46.3799C25.4482 45.4651 24.5279 44.572 23.6293 43.6557C23.2759 43.3227 23.2093 42.7327 23.5097 42.3426C24.0521 41.58 24.642 40.8527 25.1885 40.0942C24.8541 39.443 24.5754 38.7634 24.3471 38.0687C23.4023 37.9097 22.4453 37.8295 21.5046 37.65C21.0615 37.5685 20.7216 37.1389 20.7284 36.6903C20.7121 35.3269 20.7257 33.9634 20.723 32.5999C20.6835 32.1147 21.0071 31.6103 21.4992 31.5206C22.4412 31.3425 23.3982 31.2582 24.3443 31.1033C24.5754 30.4073 24.8541 29.7262 25.1899 29.0737C24.6353 28.3111 24.0412 27.5771 23.4975 26.8077C23.2065 26.4148 23.2827 25.8316 23.6375 25.5054C24.6108 24.5253 25.5855 23.5479 26.5696 22.5786C26.8945 22.2347 27.4695 22.1708 27.8542 22.4549C28.6264 22.9797 29.3333 23.5968 30.1081 24.1174C30.7891 23.8578 31.4525 23.5139 32.1567 23.2991C32.2926 22.3707 32.4054 21.4381 32.559 20.5137ZM34.7449 30.1123C33.1667 30.4168 31.8019 31.6212 31.3084 33.1519C30.8095 34.6118 31.1303 36.3151 32.1281 37.4923C33.4304 39.1182 35.8895 39.6252 37.726 38.641C39.6863 37.6799 40.7099 35.2059 39.9731 33.1464C39.3083 31.0136 36.9294 29.627 34.7449 30.1123Z" fill="#FFC3BD"/>
<path d="M10.2668 21.6434C10.8962 21.3294 11.5202 21.816 12.1129 21.9955C12.6688 22.2687 13.4518 22.3285 13.7332 22.962C14.0595 23.6417 13.4138 24.4954 12.6729 24.3649C12.068 24.2153 11.5107 23.9244 10.9248 23.7205C10.5373 23.5574 10.0588 23.4541 9.84678 23.0503C9.5518 22.5732 9.7625 21.884 10.2668 21.6434Z" fill="url(#paint5_linear_595_373)"/>
<path d="M60.0267 21.6611C60.4821 21.4259 61.0992 21.5238 61.3874 21.9683C61.7422 22.4441 61.5573 23.2067 61.0109 23.45C60.3013 23.7572 59.5754 24.0264 58.8536 24.3023C58.3628 24.5103 57.7484 24.2507 57.5513 23.7586C57.3256 23.2678 57.5757 22.6289 58.0801 22.4318C58.7244 22.1627 59.3796 21.9221 60.0267 21.6611Z" fill="url(#paint6_linear_595_373)"/>
<path d="M4.95717 31.299C6.98672 31.2514 9.02035 31.2868 11.0513 31.28C11.6276 31.2419 12.1605 31.7544 12.1211 32.3349C12.117 32.8922 11.5923 33.3544 11.039 33.3136C9.09103 33.3177 7.14169 33.3177 5.19235 33.3136C4.73424 33.3422 4.28292 33.039 4.15242 32.5972C3.96075 32.0358 4.36721 31.3711 4.95717 31.299Z" fill="url(#paint7_linear_595_373)"/>
<path d="M60.0093 31.2989C61.9939 31.2486 63.9827 31.2921 65.9701 31.2758C66.4119 31.2391 66.8891 31.4376 67.078 31.8603C67.3988 32.4693 66.9203 33.2917 66.2311 33.3053C64.2369 33.3298 62.24 33.3121 60.2444 33.3135C59.7455 33.3475 59.2589 32.9777 59.1787 32.4816C59.0631 31.946 59.4628 31.3682 60.0093 31.2989Z" fill="url(#paint8_linear_595_373)"/>
<path d="M29.816 12.0828C34.4297 10.7928 39.4689 11.0864 43.9032 12.8998C48.12 14.6112 51.755 17.6984 54.1665 21.5536C56.0968 24.6217 57.2224 28.1846 57.4263 31.8019C57.6777 35.9725 56.6854 40.2069 54.6151 43.8351C53.1007 46.5049 51.0182 48.8525 48.5387 50.6646C48.0955 50.9949 47.6415 51.3239 47.2799 51.7453C39.526 51.7358 31.7721 51.7412 24.0183 51.7426C23.4949 51.1526 22.8179 50.7339 22.2021 50.2527C20.2242 48.703 18.5128 46.8121 17.1765 44.6847C14.6889 40.7575 13.5185 36.02 13.8868 31.3873C14.2049 27.1406 15.8348 23.0095 18.4856 19.679C21.3471 16.0481 25.3545 13.3185 29.816 12.0828ZM32.5592 20.5136C32.4056 21.438 32.2928 22.3706 32.1568 23.299C31.4527 23.5138 30.7893 23.8577 30.1083 24.1173C29.3334 23.5967 28.6265 22.9796 27.8544 22.4548C27.4697 22.1707 26.8947 22.2346 26.5698 22.5785C25.5856 23.5478 24.611 24.5252 23.6376 25.5053C23.2828 25.8315 23.2067 26.4147 23.4976 26.8076C24.0414 27.577 24.6354 28.311 25.19 29.0736C24.8543 29.7261 24.5756 30.4072 24.3445 31.1032C23.3984 31.2581 22.4414 31.3424 21.4993 31.5205C21.0072 31.6102 20.6837 32.1145 20.7231 32.5998C20.7259 33.9633 20.7123 35.3268 20.7286 36.6902C20.7218 37.1388 21.0616 37.5684 21.5048 37.6499C22.4455 37.8294 23.4025 37.9096 24.3472 38.0686C24.5756 38.7633 24.8543 39.4429 25.1887 40.0941C24.6422 40.8526 24.0522 41.5799 23.5099 42.3425C23.2094 42.7326 23.276 43.3226 23.6295 43.6556C24.528 44.5719 25.4483 45.465 26.3482 46.3798C26.5848 46.6177 26.8526 46.8787 27.2114 46.8896C27.5825 46.9358 27.8925 46.6993 28.1725 46.494C28.8209 46.0019 29.4707 45.5139 30.1205 45.0245C30.7784 45.3521 31.4568 45.6363 32.1541 45.8673C32.2765 46.7034 32.392 47.5394 32.5089 48.3768C32.5497 48.6894 32.6258 49.0306 32.8882 49.2372C33.1913 49.5227 33.6345 49.4833 34.0192 49.4887C35.2453 49.4751 36.4701 49.4942 37.6963 49.4819C38.187 49.5078 38.6547 49.1353 38.7267 48.6486C38.8803 47.7229 38.9891 46.7917 39.1304 45.866C39.8319 45.6417 40.5088 45.3521 41.1668 45.0245C41.924 45.586 42.6648 46.1678 43.4315 46.7156C43.8203 47.0011 44.3967 46.9277 44.7256 46.5824C45.7044 45.6172 46.6763 44.6426 47.6456 43.6665C48.0017 43.3348 48.0778 42.7476 47.7801 42.3534C47.2377 41.5867 46.6478 40.854 46.0972 40.0927C46.4289 39.4416 46.7062 38.7646 46.9373 38.07C47.8807 37.93 48.8309 37.8185 49.7716 37.6526C50.2692 37.5656 50.6008 37.0572 50.5628 36.5665C50.5601 35.199 50.575 33.8301 50.5546 32.4626C50.5573 31.9773 50.155 31.5491 49.6778 31.4947C48.7657 31.3519 47.8495 31.2323 46.936 31.0977C46.7062 30.4031 46.4276 29.7275 46.0972 29.075C46.6491 28.3137 47.2405 27.5797 47.7829 26.813C48.0738 26.4201 48.0031 25.841 47.6524 25.5107C46.7756 24.6162 45.8757 23.7435 44.9989 22.8477C44.7406 22.5948 44.466 22.2944 44.0772 22.2795C43.7414 22.2333 43.4478 22.4249 43.195 22.618C42.5207 23.1304 41.8424 23.6348 41.1668 24.1445C40.5075 23.8128 39.8264 23.5287 39.1264 23.2976C38.9918 22.3692 38.8776 21.4367 38.724 20.5109C38.6492 20.0256 38.1789 19.6572 37.6895 19.6885C36.3274 19.6844 34.964 19.6844 33.6005 19.6885C33.1098 19.6559 32.6326 20.0229 32.5592 20.5136Z" fill="url(#paint9_linear_595_373)"/>
<path d="M34.7446 30.1121C36.9291 29.6268 39.308 31.0134 39.9727 33.1462C40.7095 35.2057 39.6859 37.6797 37.7257 38.6408C35.8892 39.625 33.4301 39.118 32.1278 37.4922C31.13 36.3149 30.8092 34.6116 31.3081 33.1517C31.8015 31.621 33.1664 30.4166 34.7446 30.1121Z" fill="url(#paint10_linear_595_373)"/>
<path d="M24.0186 51.7425C31.7724 51.7412 39.5263 51.7357 47.2802 51.7452C46.4292 52.7172 45.9126 53.9624 45.8501 55.2551C45.7183 54.7685 45.2941 54.3539 44.764 54.3987C39.0043 54.3906 33.2446 54.4001 27.485 54.3947C27.0486 54.3987 26.6068 54.3593 26.1759 54.4395C25.7966 54.5224 25.5846 54.8786 25.4364 55.2049C25.3589 53.9311 24.8559 52.7036 24.0186 51.7425Z" fill="#FD0091"/>
<path d="M26.1755 54.4394C26.6065 54.3592 27.0483 54.3987 27.4846 54.3946C33.2443 54.4 39.004 54.3905 44.7636 54.3987C45.2938 54.3538 45.7179 54.7684 45.8498 55.2551C45.8239 55.9891 45.8416 56.7232 45.8348 57.4573C45.6431 58.8425 44.8221 60.1407 43.5715 60.7986C42.7042 61.3247 41.6629 61.3682 40.676 61.3491C37.5494 61.3396 34.4215 61.3451 31.2949 61.3451C30.187 61.3437 29.0153 61.4416 27.9876 60.9413C26.6391 60.3446 25.7174 59.026 25.4523 57.5945C25.4415 56.798 25.4632 56 25.436 55.2048C25.5842 54.8785 25.7963 54.5224 26.1755 54.4394Z" fill="#9C8F9A"/>
<path d="M43.5714 60.7989C44.822 60.1409 45.643 58.8427 45.8347 57.4575C45.8429 58.8699 45.8361 60.285 45.8415 61.6988C45.8728 63.311 44.8696 64.858 43.4395 65.5743C43.0643 65.7755 42.6334 65.8408 42.2623 66.0474C38.5593 66.0637 34.855 66.0488 31.1521 66.0515C30.4425 66.0338 29.7316 66.095 29.0233 66.0338C28.3165 65.7728 27.5797 65.5336 27.0087 65.0197C26.0422 64.2123 25.4142 62.9711 25.4455 61.7001C25.4509 60.3326 25.4441 58.9637 25.4522 57.5948C25.7173 59.0262 26.639 60.3448 27.9875 60.9416C29.0152 61.4418 30.187 61.344 31.2948 61.3453C34.4214 61.3453 37.5493 61.3399 40.6759 61.3494C41.6628 61.3684 42.7041 61.3249 43.5714 60.7989Z" fill="#8C808A"/>
</g>
<defs>
<linearGradient id="paint0_linear_595_373" x1="35.6418" y1="0.800049" x2="35.6418" y2="8.80734" gradientUnits="userSpaceOnUse">
<stop stop-color="#FF6ABF"/>
<stop offset="1" stop-color="#FF4DB3"/>
</linearGradient>
<linearGradient id="paint1_linear_595_373" x1="26.2731" y1="6.33643" x2="26.2731" y2="10.4965" gradientUnits="userSpaceOnUse">
<stop stop-color="#FF6ABF"/>
<stop offset="1" stop-color="#FF4DB3"/>
</linearGradient>
<linearGradient id="paint2_linear_595_373" x1="45.0106" y1="6.33032" x2="45.0106" y2="10.4966" gradientUnits="userSpaceOnUse">
<stop stop-color="#FF6ABF"/>
<stop offset="1" stop-color="#FF4DB3"/>
</linearGradient>
<linearGradient id="paint3_linear_595_373" x1="16.1793" y1="9.72852" x2="16.1793" y2="15.9854" gradientUnits="userSpaceOnUse">
<stop stop-color="#FF6ABF"/>
<stop offset="1" stop-color="#FF4DB3"/>
</linearGradient>
<linearGradient id="paint4_linear_595_373" x1="55.1077" y1="9.72607" x2="55.1077" y2="15.9814" gradientUnits="userSpaceOnUse">
<stop stop-color="#FF6ABF"/>
<stop offset="1" stop-color="#FF4DB3"/>
</linearGradient>
<linearGradient id="paint5_linear_595_373" x1="11.766" y1="21.5403" x2="11.766" y2="24.3782" gradientUnits="userSpaceOnUse">
<stop stop-color="#FF6ABF"/>
<stop offset="1" stop-color="#FF4DB3"/>
</linearGradient>
<linearGradient id="paint6_linear_595_373" x1="59.5185" y1="21.5371" x2="59.5185" y2="24.3745" gradientUnits="userSpaceOnUse">
<stop stop-color="#FF6ABF"/>
<stop offset="1" stop-color="#FF4DB3"/>
</linearGradient>
<linearGradient id="paint7_linear_595_373" x1="8.11382" y1="31.2737" x2="8.11382" y2="33.3167" gradientUnits="userSpaceOnUse">
<stop stop-color="#FF6ABF"/>
<stop offset="1" stop-color="#FF4DB3"/>
</linearGradient>
<linearGradient id="paint8_linear_595_373" x1="63.1693" y1="31.2715" x2="63.1693" y2="33.3184" gradientUnits="userSpaceOnUse">
<stop stop-color="#FF6ABF"/>
<stop offset="1" stop-color="#FF4DB3"/>
</linearGradient>
<linearGradient id="paint9_linear_595_373" x1="35.6424" y1="11.2903" x2="35.6424" y2="51.7453" gradientUnits="userSpaceOnUse">
<stop stop-color="#FD0091"/>
<stop offset="0.0001" stop-color="#FD0091"/>
<stop offset="1" stop-color="#FF7732"/>
</linearGradient>
<linearGradient id="paint10_linear_595_373" x1="35.6442" y1="30.0151" x2="35.6442" y2="39.1423" gradientUnits="userSpaceOnUse">
<stop stop-color="#FD0091"/>
<stop offset="0.0001" stop-color="#FD0091"/>
<stop offset="1" stop-color="#FF7732"/>
</linearGradient>
<clipPath id="clip0_595_373">
<rect width="69.6" height="69.6" fill="white" transform="translate(0.84375 0.800049)"/>
</clipPath>
</defs>
</svg>
