<svg width="581" height="350" viewBox="0 0 581 350" fill="none" xmlns="http://www.w3.org/2000/svg">
<path d="M465.644 -31.2136C443.09 -46.979 424.042 -71.986 406.855 -92.5421C328.967 -185.979 195.421 -175.786 98.8904 -109.921C62.5367 -85.1521 36.952 -58.1064 23.0336 -14.7858C12.7726 17.2715 17.6322 56.1241 42.8613 78.1412C59.1502 92.3945 81.1284 97.6949 100.601 107.022C183.315 146.877 103.056 218.84 65.6692 259.272C37.0705 290.191 25.0316 321.11 34.0735 363.853C48.0934 429.531 121.58 472.308 180.352 488.651C267.858 512.978 354.026 495.854 387.315 484.064C454.181 460.416 514.765 420.204 566.391 371.804C602.83 337.623 635.645 299.297 675.639 269.38C699.937 251.203 726.588 236.372 750.937 218.245C775.285 200.118 797.771 177.965 809.624 149.968C826.692 109.621 813.011 60.3373 780.213 32.0684C747.415 3.79961 700.529 -7.6846 658.588 -8.94174C587.811 -11.0313 522.672 8.65831 465.644 -31.2136Z" fill="#0F0F44"/>
<path opacity="0.3" d="M171.734 94.4268C163.533 94.4268 155.517 91.9882 148.699 87.4192C141.88 82.8503 136.566 76.3562 133.428 68.7584C130.29 61.1605 129.469 52.8 131.068 44.7341C132.668 36.6682 136.617 29.2593 142.416 23.4441C148.214 17.6289 155.602 13.6688 163.645 12.0644C171.688 10.46 180.024 11.2834 187.6 14.4305C195.177 17.5777 201.652 22.9072 206.208 29.7451C210.764 36.583 213.196 44.6222 213.196 52.8461C213.196 63.874 208.827 74.4502 201.052 82.2481C193.276 90.046 182.73 94.4268 171.734 94.4268ZM171.734 12.3194C163.724 12.3194 155.894 14.7014 149.234 19.1641C142.575 23.6268 137.384 29.9698 134.319 37.3909C131.254 44.8121 130.452 52.9782 132.014 60.8565C133.577 68.7348 137.434 75.9715 143.097 81.6514C148.761 87.3313 155.977 91.1994 163.833 92.7665C171.689 94.3336 179.831 93.5293 187.231 90.4553C194.631 87.3814 200.956 82.1758 205.406 75.4969C209.856 68.818 212.231 60.9658 212.231 52.9331C212.231 42.1617 207.965 31.8315 200.37 24.2149C192.775 16.5984 182.474 12.3194 171.734 12.3194Z" fill="white"/>
<path opacity="0.2" d="M171.734 97.4439C162.948 97.4439 154.359 94.8311 147.054 89.936C139.749 85.0408 134.055 78.0831 130.693 69.9428C127.331 61.8025 126.451 52.8451 128.165 44.2033C129.879 35.5616 134.11 27.6237 140.322 21.3933C146.535 15.163 154.45 10.9201 163.067 9.20111C171.684 7.48216 180.616 8.36439 188.733 11.7362C196.85 15.1081 203.788 20.8181 208.669 28.1442C213.55 35.4703 216.156 44.0835 216.156 52.8945C216.143 64.7058 211.459 76.0297 203.131 84.3815C194.803 92.7334 183.511 97.4311 171.734 97.4439ZM171.734 9.3121C163.138 9.3121 154.736 11.8682 147.59 16.6571C140.443 21.446 134.873 28.2526 131.584 36.2162C128.295 44.1799 127.434 52.9428 129.111 61.397C130.788 69.8511 134.927 77.6168 141.004 83.7119C147.082 89.807 154.825 93.9578 163.255 95.6395C171.685 97.3211 180.423 96.458 188.364 93.1594C196.305 89.8607 203.092 84.2747 207.868 77.1076C212.643 69.9405 215.192 61.5143 215.192 52.8945C215.181 41.3389 210.599 30.2595 202.452 22.0884C194.304 13.9173 183.256 9.32234 171.734 9.3121Z" fill="white"/>
<path opacity="0.1" d="M171.734 101.118C162.215 101.118 152.911 98.2879 144.997 92.9848C137.083 87.6816 130.915 80.144 127.272 71.3251C123.63 62.5063 122.677 52.8023 124.534 43.4403C126.391 34.0782 130.974 25.4786 137.704 18.729C144.435 11.9793 153.01 7.38277 162.345 5.52055C171.68 3.65832 181.357 4.61408 190.15 8.26697C198.944 11.9199 206.46 18.1058 211.748 26.0426C217.036 33.9793 219.858 43.3104 219.858 52.8558C219.835 65.6488 214.758 77.9112 205.738 86.9573C196.717 96.0033 184.49 101.095 171.734 101.118ZM171.734 5.56019C162.406 5.56019 153.288 8.33403 145.533 13.5309C137.777 18.7279 131.732 26.1144 128.163 34.7566C124.594 43.3987 123.66 52.9083 125.479 62.0828C127.299 71.2572 131.791 79.6845 138.386 86.2989C144.982 92.9133 153.385 97.4178 162.533 99.2427C171.681 101.068 181.164 100.131 189.781 96.5513C198.399 92.9716 205.764 86.9096 210.946 79.1319C216.128 71.3542 218.894 62.21 218.894 52.8558C218.861 40.326 213.881 28.3195 205.042 19.4631C196.204 10.6068 184.228 5.62184 171.734 5.59887V5.56019Z" fill="white"/>
<path opacity="0.1" d="M171.734 105.77C161.304 105.77 151.108 102.668 142.435 96.8563C133.763 91.0448 127.004 82.7848 123.013 73.1208C119.022 63.4568 117.978 52.8229 120.014 42.564C122.05 32.305 127.073 22.8819 134.449 15.4862C141.825 8.09048 151.222 3.05445 161.452 1.01497C171.682 -1.02451 182.285 0.024161 191.921 4.02837C201.556 8.03259 209.792 14.8125 215.585 23.5106C221.378 32.2088 224.469 42.4345 224.468 52.8945C224.452 66.9149 218.891 80.3564 209.005 90.2694C199.118 100.182 185.714 105.757 171.734 105.77ZM171.734 0.976641C161.495 0.976641 151.486 4.02157 142.972 9.72638C134.459 15.4312 127.823 23.5397 123.905 33.0264C119.987 42.5132 118.961 52.9521 120.959 63.0232C122.957 73.0943 127.887 82.3452 135.127 89.606C142.367 96.8668 151.592 101.812 161.634 103.815C171.676 105.818 182.085 104.79 191.545 100.86C201.005 96.9308 209.09 90.2764 214.779 81.7385C220.467 73.2007 223.503 63.1629 223.503 52.8945C223.488 39.1298 218.029 25.9332 208.323 16.2C198.618 6.46684 185.459 0.991998 171.734 0.976641Z" fill="white"/>
<path d="M171.733 91.0326C192.736 91.0326 209.763 73.9575 209.763 52.8944C209.763 31.8312 192.736 14.7561 171.733 14.7561C150.73 14.7561 133.704 31.8312 133.704 52.8944C133.704 73.9575 150.73 91.0326 171.733 91.0326Z" fill="url(#paint0_linear_1074_513)"/>
<path opacity="0.7" d="M171.733 91.0326C192.736 91.0326 209.763 73.9575 209.763 52.8944C209.763 31.8312 192.736 14.7561 171.733 14.7561C150.73 14.7561 133.704 31.8312 133.704 52.8944C133.704 73.9575 150.73 91.0326 171.733 91.0326Z" fill="white"/>
<path d="M167.481 30.0056C167.211 29.3481 166.922 28.7099 166.632 28.0716C166.102 26.9596 160.278 16.4677 159.883 16.6224C157.582 17.376 155.357 18.3474 153.239 19.5234C155.553 22.9659 158.456 26.2924 160.51 29.8896C161.907 32.5695 163.047 35.3768 163.913 38.2734C164.279 39.5089 164.822 40.6847 165.524 41.7643C165.881 42.3035 166.342 42.7654 166.88 43.1225C167.418 43.4797 168.023 43.7248 168.657 43.8433C168.861 43.8805 169.07 43.8639 169.265 43.795C169.718 43.6016 169.843 43.0214 169.882 42.5282C170.042 38.2252 169.221 33.9423 167.481 30.0056Z" fill="url(#paint1_linear_1074_513)"/>
<path d="M199.6 78.8775C193.158 72.6017 181.163 60.8527 176.121 55.5439C172.264 51.5309 167.018 49.742 163.161 45.874C160.519 43.2341 159.488 39.4338 158.437 35.8463C157.848 33.8253 156.768 27.4624 153.75 28.178C153.654 29.2224 154.281 31.6205 153.162 32.3264C152.044 33.0323 151.234 30.9243 150.838 30.3151C150.443 29.7059 146.981 24.0006 147.049 23.9523C145.958 24.8849 144.922 25.8793 143.944 26.9306C147.29 33.1194 152.622 43.06 153.895 45.1101C155.698 48.1368 153.895 51.4826 151.648 48.2335C150.26 46.2124 144.05 38.3024 139.567 32.6165C138.096 34.9461 136.883 37.4299 135.951 40.0237C139.48 45.2164 143.501 51.6276 149.257 54.5286C150.194 55.0654 151.243 55.3763 152.321 55.4367C153.399 55.4971 154.476 55.3054 155.467 54.8767C156.768 54.2191 157.8 53.0104 159.218 52.6816C160.992 52.2658 162.737 53.3585 164.212 54.4319C167.269 56.6463 170.248 58.9767 173.074 61.4813C174.543 62.5784 175.885 63.8369 177.075 65.2332C177.654 66.0842 177.769 67.9505 176.805 68.6467C176.805 69.0045 175.417 68.9464 175.224 68.8981C174.715 68.7115 174.244 68.4329 173.835 68.0762C172.572 67.2252 171.222 66.4806 169.921 65.6877C168.956 65.0688 167.626 64.4403 166.623 65.0592C166.633 65.5862 166.754 66.1051 166.978 66.5818C167.203 67.0585 167.525 67.4821 167.925 67.8248C170.473 70.6119 173.286 73.1444 176.323 75.3866C176.884 75.8392 177.516 76.1954 178.194 76.4407C178.533 76.5623 178.897 76.6029 179.255 76.5592C179.613 76.5156 179.956 76.3889 180.257 76.1892C180.855 75.7444 181.135 74.9515 181.781 74.5744C182.094 74.4215 182.441 74.3519 182.789 74.3723C183.137 74.3926 183.473 74.5021 183.767 74.6904C185.136 75.4737 186.177 76.9822 187.489 77.9202C189.729 79.7884 191.827 81.8215 193.766 84.0025C195.879 82.4967 197.833 80.7795 199.6 78.8775Z" fill="url(#paint2_linear_1074_513)"/>
<path d="M171.733 91.0326C176.479 91.0363 181.183 90.144 185.599 88.4024C179.351 82.7551 169.41 73.8975 166.43 71.9635C163.779 70.2422 161.947 72.9305 160.384 74.7388C159.623 75.6284 158.726 76.7501 157.492 77.0015C155.718 77.3593 153.992 75.5123 153.943 73.8008C153.993 72.446 154.535 71.1561 155.467 70.1745C156.364 69.1399 157.501 68.2406 157.955 66.9545C158.668 64.9528 157.501 62.806 156.373 60.9978C156.011 60.2158 155.356 59.6081 154.551 59.3055C153.394 59.0541 152.401 60.0598 151.571 60.8914C150.583 61.8946 149.483 62.7804 148.293 63.5313C147.573 64.0645 146.709 64.3678 145.815 64.4016C144.84 64.2654 143.926 63.8489 143.183 63.2025C141.268 61.8854 139.572 60.2732 138.159 58.4256C137.378 57.4586 136.616 56.4239 135.854 55.4085C135.43 54.838 133.695 53.1651 133.695 52.5076C133.695 52.6333 133.695 52.759 133.695 52.8847C133.693 57.8947 134.676 62.8559 136.588 67.4848C138.499 72.1137 141.301 76.3196 144.833 79.8622C148.366 83.4048 152.559 86.2147 157.175 88.1313C161.791 90.048 166.738 91.0339 171.733 91.0326Z" fill="url(#paint3_linear_1074_513)"/>
<path d="M187.286 18.0826C187.103 20.1423 187.99 22.5792 190.922 26.4858C192.455 28.5262 194.055 30.5278 195.675 32.5102C196.938 34.0574 199.214 35.885 199.195 38.0414C199.195 39.4822 198.105 40.6813 196.996 41.5902C196.041 42.3797 195.011 43.0728 193.92 43.6596C193.024 44.1334 191.992 44.7426 191.934 45.7676C191.876 46.7927 192.821 47.3535 193.631 47.8273C196.697 49.626 199.809 51.3343 202.965 52.9524C204.334 53.6583 206.147 54.2192 207.294 55.2539C208.094 55.9791 208.586 57.0138 209.444 57.7197C209.725 56.1242 209.841 54.504 209.792 52.8847C209.79 45.5243 207.664 38.3216 203.671 32.146C199.677 25.9705 193.987 21.0862 187.286 18.0826Z" fill="url(#paint4_linear_1074_513)"/>
<path d="M187.045 40.9133C187.523 40.5602 188.022 40.2373 188.54 39.9464C189.668 39.3372 190.979 38.6602 191.278 37.4128C191.664 35.7303 189.986 34.3571 188.511 33.4578L183.921 30.6439C183.158 30.2256 182.46 29.6979 181.848 29.0773C181.265 28.3598 180.805 27.5491 180.489 26.6792C179.557 24.4475 178.771 22.1574 178.136 19.8232C177.895 18.9626 177.422 15.1333 176.101 14.9882C173.088 14.6447 170.045 14.6674 167.038 15.0559C167.809 15.0076 169.564 19.6588 169.815 20.3454C170.986 23.3728 171.924 26.486 172.62 29.6575C173.199 32.7713 177.056 34.3281 179.486 36.0203C179.852 36.2308 180.15 36.5431 180.344 36.9197C180.468 37.4154 180.392 37.9403 180.132 38.3798C179.352 39.7759 178.493 41.1255 177.557 42.4219C176.625 43.7395 176.244 45.371 176.497 46.9667C176.987 48.3764 177.866 49.6173 179.033 50.5446C187.151 58.3386 195.733 65.8424 203.418 74.0039C205.058 71.5365 206.404 68.885 207.429 66.1035C207.709 65.3493 203.273 61.7617 202.695 61.2685C200.082 59.1895 197.141 57.4876 194.518 55.3602L187.219 49.4229C186.039 48.6499 185.124 47.5328 184.596 46.2221C184.443 45.5686 184.44 44.8888 184.587 44.2339C184.734 43.579 185.027 42.966 185.445 42.4412C185.9 41.855 186.439 41.34 187.045 40.9133Z" fill="url(#paint5_linear_1074_513)"/>
<g opacity="0.2">
<path d="M175.995 75.7831C176.265 76.4407 176.545 77.0692 176.844 77.7171C177.374 78.8292 183.198 89.321 183.593 89.1663C185.897 88.421 188.123 87.4493 190.237 86.2653C187.923 82.8228 185.02 79.4964 182.966 75.9088C181.565 73.2275 180.425 70.4166 179.563 67.5153C179.196 66.2786 178.65 65.1025 177.943 64.0245C177.586 63.4881 177.126 63.0287 176.589 62.6733C176.053 62.3179 175.451 62.0737 174.819 61.9551C174.62 61.8974 174.41 61.8974 174.211 61.9551C173.758 62.1389 173.633 62.7191 173.594 63.2122C173.417 67.5321 174.239 71.8345 175.995 75.7831Z" fill="white"/>
<path d="M143.896 26.9403C150.337 33.2258 162.322 44.9651 167.375 50.2739C171.232 54.2966 176.477 56.0758 180.334 59.9438C182.966 62.5837 184.008 66.384 185.049 69.9715C185.637 71.9925 186.727 78.3554 189.745 77.6398C189.841 76.5954 189.215 74.1973 190.333 73.4914C191.452 72.7855 192.262 74.8838 192.647 75.5027C193.033 76.1216 196.504 81.8075 196.446 81.8655C197.526 80.9241 198.556 79.9268 199.532 78.8775C196.186 72.6791 190.796 62.7481 189.581 60.6981C187.778 57.6617 189.581 54.3159 191.818 57.565C193.216 59.586 199.416 67.5057 203.909 73.1819C205.378 70.8513 206.591 68.3677 207.525 65.7748C203.996 60.582 199.966 54.1708 194.219 51.2699C193.282 50.7331 192.233 50.4222 191.155 50.3617C190.077 50.3013 189 50.493 188.009 50.9217C186.708 51.5793 185.676 52.7881 184.258 53.1168C182.484 53.5326 180.739 52.4303 179.264 51.3569C176.207 49.1425 173.228 46.812 170.402 44.3172C169.13 43.1858 167.365 41.9674 166.401 40.5556C165.822 39.7046 165.707 37.8383 166.671 37.1421C166.671 36.7843 168.05 36.8423 168.252 36.8907C168.757 37.0871 169.226 37.3647 169.641 37.7126C170.904 38.5636 172.254 39.3178 173.555 40.1108C174.52 40.7296 175.841 41.3485 176.853 40.7296C176.844 40.2028 176.723 39.6841 176.496 39.2086C176.27 38.7331 175.945 38.3119 175.542 37.9737C173.004 35.1792 170.193 32.646 167.153 30.4118C166.591 29.9583 165.959 29.5991 165.282 29.3481C164.94 29.2308 164.576 29.1924 164.217 29.236C163.858 29.2795 163.514 29.4038 163.209 29.5995C162.621 30.0444 162.332 30.847 161.695 31.2144C161.384 31.3715 161.037 31.4442 160.688 31.4256C160.34 31.4069 160.002 31.2975 159.709 31.1081C158.34 30.3151 157.289 28.8066 155.987 27.8783C153.738 26.0203 151.63 23.9969 149.681 21.8249C147.586 23.3303 145.648 25.0441 143.896 26.9403Z" fill="white"/>
<path d="M171.733 14.7562C166.989 14.7558 162.286 15.6446 157.867 17.3767C164.125 23.0336 174.067 31.8816 177.046 33.8156C179.698 35.5369 181.53 32.8486 183.092 31.0307C183.853 30.1507 184.75 29.0193 185.984 28.7776C187.759 28.4101 189.485 30.2667 189.533 31.9783C189.48 33.3314 188.935 34.6182 188 35.5949C187.113 36.6296 185.975 37.5289 185.512 38.8053C184.798 40.8166 185.975 42.9634 187.103 44.762C187.465 45.5463 188.119 46.1572 188.925 46.4639C190.073 46.7153 191.076 45.7096 191.905 44.8684C192.89 43.8685 193.987 42.9859 195.174 42.2381C195.895 41.6997 196.762 41.3929 197.661 41.3582C198.635 41.4965 199.549 41.9127 200.294 42.5572C202.208 43.8744 203.904 45.4866 205.317 47.3342C206.089 48.3012 206.86 49.3455 207.622 50.3609C208.046 50.9217 209.782 52.5946 209.782 53.2618C209.782 53.1361 209.782 53.0104 209.782 52.8847C209.78 47.8755 208.795 42.9157 206.882 38.2884C204.969 33.6611 202.166 29.457 198.633 25.9163C195.1 22.3756 190.905 19.5677 186.29 17.6528C181.674 15.7379 176.728 14.7536 171.733 14.7562Z" fill="white"/>
<path d="M156.209 87.7062C156.392 85.6465 155.505 83.2 152.574 79.303C151.041 77.253 149.44 75.261 147.82 73.2786C146.557 71.7314 144.272 69.8942 144.301 67.7378C144.301 66.2969 145.39 65.1075 146.499 64.1889C147.454 63.4025 148.485 62.7126 149.575 62.1292C150.462 61.6457 151.503 61.0365 151.503 60.0212C151.503 59.0058 150.616 58.4353 149.816 57.9615C146.75 56.1628 143.635 54.4513 140.473 52.8267C139.103 52.1208 137.3 51.5696 136.153 50.5253C135.343 49.8 134.851 48.775 134.003 48.0594C133.723 49.6551 133.607 51.2751 133.656 52.8944C133.662 60.2613 135.795 67.4689 139.797 73.6464C143.799 79.8239 149.499 84.7071 156.209 87.7062Z" fill="white"/>
<path d="M156.431 64.8754C155.956 65.2331 155.457 65.5562 154.936 65.8424C153.818 66.4613 152.497 67.1285 152.207 68.3856C151.812 70.0682 153.5 71.4413 154.975 72.3406L159.565 75.1546C160.328 75.5694 161.026 76.0939 161.638 76.7114C162.221 77.429 162.681 78.2396 162.997 79.1096C163.931 81.344 164.717 83.6375 165.35 85.9752C165.581 86.8358 166.063 90.6651 167.375 90.8102C168.825 90.9802 170.283 91.0674 171.743 91.0713C173.319 91.0696 174.894 90.9695 176.458 90.7715C175.687 90.8199 173.922 86.1686 173.681 85.4724C172.509 82.4442 171.568 79.3312 170.865 76.1602C170.296 73.0562 166.44 71.4993 164.01 69.7974C163.639 69.5926 163.339 69.2787 163.152 68.8981C163.087 68.653 163.072 68.3972 163.108 68.1463C163.145 67.8953 163.232 67.6543 163.364 67.438C164.146 66.0486 165.002 64.7025 165.928 63.4056C166.864 62.0894 167.249 60.4578 166.999 58.8607C166.509 57.4511 165.629 56.2102 164.463 55.2829C156.334 47.4405 147.753 39.9463 140.039 31.7849C138.401 34.2533 137.055 36.9046 136.028 39.6853C135.758 40.4395 140.193 44.0174 140.772 44.5202C143.385 46.6089 146.326 48.3108 148.939 50.4382L156.248 56.3756C157.422 57.1501 158.336 58.2624 158.87 59.5666C159.021 60.2219 159.023 60.9027 158.876 61.5588C158.729 62.2149 158.437 62.8296 158.022 63.3572C157.569 63.9388 157.033 64.4504 156.431 64.8754Z" fill="white"/>
</g>
<path opacity="0.1" d="M209.338 58.619C206.571 72.7178 181.173 85.6465 160.857 76.9435C139.248 67.6701 135.179 38.3605 145.757 25.0837C141.328 29.2394 137.955 34.3972 135.918 40.1264C133.882 45.8557 133.242 51.9904 134.05 58.0185C134.859 64.0465 137.094 69.7931 140.568 74.7787C144.043 79.7643 148.656 83.8442 154.022 86.678C159.389 89.5118 165.353 91.0173 171.418 91.0688C177.483 91.1203 183.472 89.7163 188.886 86.974C194.299 84.2318 198.98 80.2307 202.538 75.3049C206.096 70.379 208.428 64.6711 209.338 58.6577V58.619Z" fill="black"/>
<path opacity="0.6" d="M194.295 37.5866C195.713 28.8253 189.781 20.5699 181.044 19.1477C172.308 17.7256 164.076 23.6751 162.658 32.4365C161.24 41.1978 167.173 49.4532 175.909 50.8753C184.645 52.2975 192.877 46.3479 194.295 37.5866Z" fill="white"/>
<path opacity="0.6" d="M198.597 59.6247C202.649 59.6247 205.935 56.33 205.935 52.2658C205.935 48.2017 202.649 44.907 198.597 44.907C194.544 44.907 191.259 48.2017 191.259 52.2658C191.259 56.33 194.544 59.6247 198.597 59.6247Z" fill="white"/>
<path opacity="0.1" d="M133.704 52.8944C133.707 61.1918 136.407 69.2621 141.396 75.8818C146.384 82.5014 153.388 87.3095 161.347 89.5772C169.306 91.8448 177.785 91.4483 185.499 88.4478C193.212 85.4473 199.74 80.0063 204.093 72.9498C203.235 74.294 192.474 91.2647 165.89 86.3814C138.207 81.295 133.704 52.9041 134.177 46.9087C133.863 48.8884 133.705 50.8898 133.704 52.8944Z" fill="black"/>
<path d="M448.086 154.553C457.714 134.437 449.258 110.303 429.2 100.648C409.141 90.993 385.076 99.473 375.449 119.589C365.821 139.704 374.277 163.838 394.335 173.494C414.393 183.149 438.459 174.669 448.086 154.553Z" fill="url(#paint6_linear_1074_513)"/>
<path opacity="0.116667" d="M441.719 149.232C449.528 131.09 441.194 110.035 423.104 102.203C405.014 94.3709 384.019 102.729 376.209 120.87C368.4 139.012 376.734 160.068 394.824 167.9C412.914 175.732 433.909 167.374 441.719 149.232Z" fill="white"/>
<path opacity="0.233333" d="M434.365 146.366C441.641 130.776 434.936 112.223 419.391 104.927C403.846 97.631 385.346 104.354 378.071 119.944C370.796 135.534 377.5 154.087 393.045 161.383C408.59 168.679 427.09 161.955 434.365 146.366Z" fill="white"/>
<path opacity="0.35" d="M427.904 141.241C433.46 127.681 427.004 112.172 413.483 106.6C399.962 101.028 384.497 107.503 378.941 121.062C373.384 134.622 379.841 150.131 393.362 155.703C406.882 161.275 422.348 154.8 427.904 141.241Z" fill="white"/>
<path opacity="0.466667" d="M420.901 137.469C425.453 126.256 420.079 113.465 408.897 108.9C397.716 104.335 384.961 109.725 380.41 120.939C375.858 132.152 381.232 144.943 392.414 149.508C403.595 154.073 416.35 148.683 420.901 137.469Z" fill="white"/>
<path opacity="0.583333" d="M404.679 143.153C413.443 139.392 417.506 129.218 413.756 120.429C410.005 111.641 399.861 107.565 391.097 111.327C382.334 115.088 378.27 125.262 382.021 134.05C385.771 142.839 395.916 146.914 404.679 143.153Z" fill="white"/>
<path opacity="0.7" d="M404.062 134.258C409.003 129.304 409.003 121.271 404.062 116.316C399.122 111.362 391.112 111.362 386.171 116.316C381.231 121.271 381.231 129.304 386.171 134.258C391.112 139.213 399.122 139.213 404.062 134.258Z" fill="white"/>
<path opacity="0.05" d="M449.152 152.069C447.185 156.995 444.27 161.483 440.573 165.278C436.877 169.074 432.471 172.102 427.607 174.19C422.743 176.277 417.517 177.384 412.227 177.446C406.937 177.508 401.687 176.525 396.775 174.552C396.12 174.291 395.483 174.01 394.847 173.72C404.05 173.775 412.995 170.67 420.193 164.919C427.392 159.168 432.411 151.12 434.416 142.112C436.42 133.104 435.289 123.679 431.211 115.405C427.133 107.13 420.354 100.506 412.001 96.6316C418.562 96.6815 425.013 98.3366 430.793 101.453C436.572 104.57 441.506 109.054 445.166 114.517C448.825 119.979 451.1 126.255 451.793 132.799C452.487 139.343 451.577 145.958 449.143 152.069H449.152Z" fill="#455A64"/>
<path opacity="0.1" d="M436.058 108.574C442.023 113.825 446.168 120.843 447.895 128.612C449.621 136.38 448.84 144.499 445.664 151.794C442.489 159.088 437.082 165.181 430.227 169.192C423.371 173.203 415.422 174.924 407.527 174.107C415.004 172.971 422.001 169.717 427.697 164.728C433.392 159.738 437.548 153.222 439.675 145.944C441.802 138.666 441.812 130.931 439.704 123.647C437.596 116.364 433.458 109.836 427.775 104.832C426.153 103.405 424.418 102.111 422.588 100.964C427.559 102.527 432.148 105.12 436.058 108.574Z" fill="#455A64"/>
<path opacity="0.5" d="M406.387 157.147C409.244 150.753 406.392 143.246 400.016 140.381C393.641 137.515 386.156 140.376 383.298 146.77C380.441 153.164 383.293 160.67 389.669 163.536C396.045 166.401 403.53 163.541 406.387 157.147Z" fill="white"/>
<path opacity="0.5" d="M410.983 123.573C415.293 118.059 414.329 110.084 408.83 105.761C403.331 101.439 395.379 102.405 391.069 107.92C386.759 113.435 387.723 121.409 393.222 125.732C398.721 130.054 406.672 129.088 410.983 123.573Z" fill="white"/>
<path opacity="0.5" d="M379.034 136.259C377.888 135.799 376.904 135.009 376.206 133.988C375.509 132.968 375.128 131.762 375.114 130.525C375.099 129.287 375.451 128.073 376.124 127.036C376.797 125.999 377.762 125.186 378.897 124.699C380.031 124.212 381.284 124.073 382.497 124.3C383.71 124.528 384.829 125.111 385.711 125.975C386.594 126.84 387.201 127.948 387.456 129.159C387.711 130.37 387.602 131.629 387.143 132.778C386.527 134.318 385.328 135.549 383.807 136.202C382.286 136.855 380.569 136.875 379.034 136.259Z" fill="white"/>
<g opacity="0.1">
<path d="M492.186 98.3431C490.855 95.9837 487.461 92.0383 479.651 92.0383C471.532 92.0383 458.245 96.1577 440.117 104.29L437.929 105.257L437.08 105.625C437.36 105.847 437.639 106.069 437.909 106.321L438.314 106.147L440.513 105.18C458.496 97.1054 471.657 93.015 479.632 93.015C486.941 93.015 490.094 96.6606 491.318 98.817C496.718 108.371 486.323 121.126 456.606 141.471C454.864 142.67 453.08 143.866 451.254 145.059C443.328 150.28 434.766 155.512 425.731 160.637C416.465 165.907 407.064 170.848 398.212 175.093C396.235 176.06 394.288 176.96 392.378 177.83C373.161 186.649 359.18 191.117 350.801 191.117C343.482 191.117 340.339 187.471 339.114 185.315C333.907 176.099 342.778 164.573 369.719 145.542L371.696 144.15L372.052 143.889C371.985 143.54 371.937 143.192 371.889 142.835L371.136 143.366L369.208 144.759C341.756 164.099 332.808 176.031 338.353 185.788C339.674 188.148 343.077 192.093 350.888 192.093C359.402 192.093 373.528 187.597 392.87 178.72C395.069 177.753 397.315 176.65 399.62 175.548C408.221 171.39 417.333 166.594 426.319 161.488C435.065 156.517 443.357 151.47 451.071 146.412C453.186 145.026 455.249 143.647 457.262 142.274C487.413 121.57 497.885 108.429 492.186 98.3431Z" fill="white"/>
</g>
<g opacity="0.1">
<path d="M454.967 139.073C453.935 139.779 452.894 140.475 451.843 141.181C443.367 146.848 434.13 152.543 424.295 158.171C414.257 163.867 404.046 169.185 394.596 173.643C393.439 174.194 392.292 174.726 391.164 175.248C378.214 181.185 360.704 188.264 350.791 188.264C345.237 188.264 342.74 185.904 341.622 183.922C337.446 176.525 346.626 165.433 371.378 147.96L372.699 146.993C372.776 147.321 372.872 147.65 372.969 147.96L371.937 148.695C347.677 165.83 338.584 176.534 342.46 183.4C343.425 185.15 345.7 187.268 350.791 187.268C360.53 187.268 377.906 180.238 390.768 174.339L393.487 173.072C403.13 168.547 413.553 163.132 423.822 157.301C433.869 151.586 443.319 145.765 451.949 139.972C452.788 139.421 453.607 138.86 454.427 138.299C489.843 114.125 490.547 105.276 487.992 100.751C487.027 99.0007 484.752 96.883 479.661 96.883C470.404 96.883 454.138 103.314 442.123 108.709L440.976 109.232C440.735 108.98 440.503 108.729 440.253 108.487L441.728 107.829C453.829 102.395 470.24 95.916 479.661 95.916C485.215 95.916 487.712 98.2755 488.831 100.258C491.569 105.102 491.019 114.405 454.967 139.073Z" fill="white"/>
</g>
<g opacity="0.2">
<path d="M453.337 136.675L452.045 137.555C443.135 143.589 433.329 149.652 422.867 155.589C412.174 161.662 401.326 167.29 391.376 171.912L389.968 172.56C372.033 180.779 358.148 185.315 350.791 185.315C347.455 185.315 345.208 184.348 344.138 182.414C340.946 176.766 350.405 166.245 373.065 150.251L373.586 149.884C373.692 150.203 373.798 150.512 373.923 150.851L373.614 151.064C346.385 170.297 343.01 178.478 344.977 181.969C345.864 183.545 347.821 184.348 350.762 184.348C357.955 184.348 371.725 179.851 389.534 171.68L390.354 171.303C400.439 166.642 411.499 160.937 422.366 154.748C432.972 148.694 442.981 142.525 452.016 136.375L452.768 135.862C476.826 119.424 488.445 107.433 485.446 102.143C484.559 100.567 482.601 99.7646 479.661 99.7646C472.834 99.7646 459.923 103.874 443.299 111.369L442.972 111.514L442.335 110.75L442.914 110.489C459.653 102.965 472.708 98.8267 479.661 98.8267C482.997 98.8267 485.243 99.7937 486.314 101.728C489.679 107.636 478.59 119.414 453.337 136.675Z" fill="white"/>
</g>
<g opacity="0.3">
<path d="M461.707 114.037L461.514 114.569C461.128 115.623 459.277 118.795 450.416 125.709L449.943 126.077C439.764 133.734 429.078 140.69 417.96 146.896C405.02 154.245 392.475 160.366 382.621 164.128L382.042 164.35C376.093 166.584 371.435 167.822 368.88 167.822C368.557 167.825 368.235 167.799 367.916 167.744L367.366 167.628L367.559 167.096C367.906 166.129 369.488 163.354 376.922 157.33C377.076 157.62 377.24 157.9 377.414 158.181C371.435 163.016 369.42 165.675 368.736 166.884H368.871C371.281 166.884 375.688 165.723 381.348 163.606L382.312 163.257C392.118 159.506 404.624 153.404 417.516 146.084C428.586 139.885 439.224 132.939 449.355 125.293L450.117 124.703C457.291 119.066 459.595 116.078 460.328 114.801H460.164C457.724 114.801 453.193 116.01 447.369 118.205C447.224 117.915 447.07 117.625 446.906 117.345C452.884 115.082 457.589 113.834 460.164 113.834C460.487 113.831 460.81 113.857 461.128 113.912L461.707 114.037Z" fill="white"/>
</g>
<path d="M484.27 102.869C486.786 107.336 473.509 119.984 452.026 134.673C443.155 140.746 432.876 147.157 421.73 153.491C410.159 160.047 399.041 165.762 389.013 170.355C365.93 180.944 348.767 185.653 346.279 181.253C343.926 177.076 355.4 165.733 374.483 152.243C375.013 153.539 375.601 154.806 376.257 156.044C369.025 161.846 365.149 166.371 366.229 168.295C367.309 170.22 373.759 169.079 383.18 165.482C395.416 160.559 407.287 154.768 418.702 148.153C429.871 141.915 440.605 134.923 450.83 127.227C459.354 120.623 464.069 115.459 462.893 113.37C461.716 111.282 455.488 112.558 446.202 116.087C445.488 114.908 444.717 113.767 443.897 112.674C465.757 102.859 481.821 98.6236 484.27 102.869Z" fill="url(#paint7_linear_1074_513)"/>
<path d="M151.288 195.066C151.204 193.528 150.76 192.032 149.993 190.698C149.226 189.364 148.157 188.23 146.872 187.388C146.468 187.114 146.009 186.933 145.527 186.857C145.045 186.782 144.553 186.815 144.085 186.953L124.955 194.418L134.317 210.538L150.285 197.696C150.635 197.358 150.906 196.948 151.079 196.493C151.253 196.038 151.324 195.551 151.288 195.066Z" fill="#F5F5F5"/>
<path d="M140.691 188.21C141.184 188.097 141.694 188.086 142.192 188.178C142.689 188.269 143.163 188.461 143.584 188.742C145.003 189.672 146.185 190.925 147.032 192.398C147.88 193.871 148.37 195.524 148.463 197.222C148.489 197.718 148.417 198.214 148.252 198.682C148.086 199.15 147.83 199.58 147.498 199.949L149.051 198.692L150.295 197.657C150.638 197.323 150.904 196.918 151.076 196.471C151.247 196.024 151.319 195.544 151.288 195.066C151.204 193.528 150.76 192.032 149.993 190.698C149.226 189.364 148.157 188.23 146.872 187.388C146.468 187.114 146.009 186.933 145.527 186.857C145.045 186.782 144.553 186.815 144.085 186.953L142.465 187.562L140.691 188.21Z" fill="url(#paint8_linear_1074_513)"/>
<path opacity="0.1" d="M150.892 192.697L130.74 204.358L134.317 210.538L150.285 197.696C150.635 197.359 150.906 196.948 151.079 196.493C151.253 196.039 151.324 195.551 151.288 195.066C151.28 194.26 151.146 193.461 150.892 192.697Z" fill="#455A64"/>
<path d="M129.207 195.066C131.134 196.327 132.739 198.027 133.889 200.026C135.04 202.025 135.705 204.268 135.831 206.573C135.831 210.808 132.861 212.52 129.207 210.441C127.279 209.179 125.675 207.48 124.524 205.481C123.373 203.482 122.708 201.239 122.583 198.934C122.583 194.621 125.552 192.909 129.207 195.066Z" fill="#E0E0E0"/>
<path d="M145.31 176.944C145.225 175.408 144.781 173.914 144.014 172.582C143.247 171.25 142.178 170.117 140.894 169.276C140.491 169 140.031 168.818 139.549 168.743C139.067 168.667 138.574 168.701 138.107 168.841L118.977 176.306L128.359 192.484L144.307 179.594C144.658 179.253 144.93 178.839 145.104 178.381C145.277 177.923 145.347 177.433 145.31 176.944Z" fill="#F5F5F5"/>
<path d="M134.713 170.137C135.198 170.027 135.7 170.018 136.189 170.109C136.678 170.2 137.144 170.391 137.557 170.668C138.979 171.595 140.163 172.845 141.012 174.317C141.861 175.789 142.353 177.441 142.446 179.139C142.473 179.635 142.402 180.132 142.236 180.6C142.071 181.068 141.814 181.498 141.482 181.866L143.034 180.619L144.278 179.584C144.621 179.241 144.885 178.827 145.052 178.371C145.218 177.915 145.283 177.428 145.242 176.944C145.157 175.408 144.713 173.914 143.946 172.582C143.179 171.25 142.11 170.117 140.826 169.276C140.423 169 139.964 168.818 139.482 168.743C139 168.667 138.507 168.701 138.039 168.841L136.419 169.44L134.713 170.137Z" fill="url(#paint9_linear_1074_513)"/>
<path opacity="0.1" d="M144.904 174.614L124.762 186.285L128.339 192.455L144.307 179.594C144.65 179.251 144.914 178.837 145.081 178.381C145.247 177.925 145.312 177.438 145.271 176.954C145.268 176.16 145.144 175.371 144.904 174.614Z" fill="#455A64"/>
<path d="M127.907 192.741C130.494 191.243 130.496 186.388 127.91 181.897C125.325 177.407 121.132 174.98 118.544 176.478C115.957 177.976 115.956 182.831 118.541 187.322C121.127 191.813 125.32 194.239 127.907 192.741Z" fill="#E0E0E0"/>
<path d="M28.3098 234.993L49.9086 209.977L55.3083 169.324L66.1076 163.068L109.315 188.094L28.3098 234.993Z" fill="url(#paint10_linear_1074_513)"/>
<path opacity="0.6" d="M28.3098 234.993L49.9086 209.977L55.3083 169.324L66.1076 163.068L109.315 188.094L28.3098 234.993Z" fill="white"/>
<path d="M66.1075 163.068L55.3081 169.324L98.5153 194.34L109.315 188.094L66.1075 163.068Z" fill="url(#paint11_linear_1074_513)"/>
<path opacity="0.3" d="M66.1075 163.068L55.3081 169.324L98.5153 194.34L109.315 188.094L66.1075 163.068Z" fill="#455A64"/>
<path d="M125.523 172.38C121.744 170.195 118.244 169.556 115.37 170.253C114.644 170.418 113.946 170.689 113.297 171.055L112.873 171.287L47.9897 208.865C37.3367 215.036 28.2695 223.619 21.5119 233.929L0.645996 265.743L4.82112 271.623L36.8818 266.459C46.8668 264.858 56.4749 261.437 65.2301 256.363L138.174 214.135C140.729 212.549 142.446 209.561 142.938 205.432C143.031 204.591 143.08 203.745 143.082 202.898C143.072 191.652 135.214 177.998 125.523 172.38Z" fill="url(#paint12_linear_1074_513)"/>
<path opacity="0.9" d="M125.523 172.38C121.744 170.195 118.244 169.556 115.37 170.253C114.644 170.418 113.946 170.689 113.297 171.055L112.873 171.287L47.9897 208.865C37.3367 215.036 28.2695 223.619 21.5119 233.929L0.645996 265.743L4.82112 271.623L36.8818 266.459C46.8668 264.858 56.4749 261.437 65.2301 256.363L138.174 214.135C140.729 212.549 142.446 209.561 142.938 205.432C143.031 204.591 143.08 203.745 143.082 202.898C143.072 191.652 135.214 177.998 125.523 172.38Z" fill="white"/>
<path d="M129.824 218.941C132.379 217.355 134.095 214.367 134.587 210.238C134.681 209.396 134.729 208.551 134.732 207.704C134.732 196.477 126.873 182.823 117.183 177.215C113.403 175.02 109.913 174.382 107.039 175.078C106.313 175.242 105.614 175.512 104.966 175.88L113.297 171.045C113.946 170.679 114.644 170.409 115.37 170.243C118.263 169.547 121.744 170.185 125.523 172.37C135.166 177.988 143.072 191.642 143.072 202.869C143.07 203.716 143.022 204.561 142.928 205.403C142.436 209.551 140.72 212.539 138.165 214.106L129.824 218.941Z" fill="url(#paint13_linear_1074_513)"/>
<path d="M7.14497 260.057C6.44461 259.608 5.62248 259.389 4.79225 259.429L2.43952 263.016L0.646051 265.753C0.266149 266.335 0.0499213 267.009 0.0201533 267.705C-0.00961479 268.4 0.148181 269.09 0.476911 269.703C0.805641 270.316 1.29313 270.828 1.888 271.187C2.48286 271.545 3.16307 271.736 3.85694 271.739C4.18269 271.734 4.50657 271.688 4.82117 271.603L7.55958 271.168L11.2526 270.568C11.5825 270.075 11.7847 269.507 11.8408 268.915C11.8408 268.702 11.8408 268.47 11.8408 268.228C11.7528 266.592 11.2818 265 10.466 263.58C9.65016 262.161 8.51245 260.954 7.14497 260.057Z" fill="url(#paint14_linear_1074_513)"/>
<path opacity="0.6" d="M49.9086 225.613C59.387 219.995 105.188 193.528 132.292 177.882C130.32 175.73 128.046 173.877 125.543 172.38C121.763 170.195 118.263 169.556 115.389 170.253C114.663 170.418 113.965 170.689 113.316 171.055L112.892 171.287L48.0091 208.865C37.356 215.036 28.2889 223.619 21.5313 233.929L1.37888 264.621L0.646059 265.753C0.225894 266.386 0.00118425 267.129 2.63531e-05 267.89C-0.00346515 268.828 0.340095 269.734 0.964257 270.433C-0.964204 266.265 16.1702 255.068 25.6582 246.084C35.1462 237.101 44.5764 228.775 49.9086 225.613Z" fill="white"/>
<path d="M40.4303 247.158C37.7111 241.549 33.6035 236.859 29.1584 234.297C27.1924 233.087 24.9537 232.395 22.6499 232.285C22.2738 232.836 21.8785 233.368 21.5121 233.929L12.834 247.158L13.885 247.061C14.0166 247.051 14.1487 247.051 14.2803 247.061C15.5381 247.115 16.7605 247.495 17.8287 248.163C20.5636 249.906 22.7919 252.341 24.289 255.222L24.9062 256.344L41.0088 248.366L40.4303 247.158Z" fill="url(#paint15_linear_1074_513)"/>
<path d="M28.493 235.447C26.4826 234.161 24.1253 233.53 21.7434 233.639L13.7595 245.736C15.4265 245.652 17.0781 246.091 18.4843 246.993C21.4375 248.851 23.8438 251.465 25.4556 254.565L39.2345 247.738C36.7468 242.603 32.8609 237.971 28.493 235.447Z" fill="#455A64"/>
<path opacity="0.1" d="M28.493 235.447C26.4826 234.161 24.1253 233.53 21.7434 233.639L13.7595 245.736C14.3338 245.692 14.9114 245.727 15.4759 245.842C16.5654 244.624 17.6647 242.671 19.5449 243.019C21.7241 243.425 23.4018 245.63 25.176 246.751C25.637 247.069 26.1584 247.288 26.7075 247.394C27.2566 247.501 27.8218 247.493 28.3676 247.37C29.3059 246.965 30.1522 246.373 30.8553 245.63C31.2084 245.262 31.6429 244.983 32.1238 244.814C32.6046 244.646 33.1181 244.594 33.6227 244.663C34.7026 244.953 35.1269 245.997 35.5511 246.916C35.9277 247.625 36.2501 248.362 36.5154 249.121L39.2731 247.747C36.7468 242.603 32.8609 237.971 28.493 235.447Z" fill="white"/>
<path opacity="0.05" d="M21.6661 240.514L21.7336 240.563C22.6119 241.15 23.523 241.685 24.4624 242.168C25.2434 242.574 26.2848 242.912 26.9405 242.323C27.5962 241.733 27.4515 240.592 28.1458 240.108C28.4379 239.938 28.7723 239.854 29.11 239.866C30.6843 239.887 32.2319 240.277 33.6286 241.006C35.0252 241.734 36.2319 242.782 37.1517 244.063C34.96 240.553 31.9903 237.598 28.4736 235.428C26.4633 234.142 24.1059 233.511 21.724 233.62L17.0571 240.717C18.7445 239.47 19.9402 239.412 21.6661 240.514Z" fill="white"/>
<path opacity="0.15" d="M142.928 205.412C143.022 204.571 143.07 203.725 143.073 202.879C143.06 201.887 142.996 200.896 142.88 199.91C120.346 212.907 65.3652 244.634 55.3083 250.629C42.5901 258.21 11.2912 269.002 3.23983 269.389C1.31136 269.495 0.636401 268.016 0.684613 265.704V265.753C0.306408 266.332 0.0903226 267.003 0.058921 267.695C0.0275193 268.387 0.181955 269.075 0.5061 269.686C0.830245 270.298 1.3122 270.811 1.90163 271.172C2.49107 271.533 3.16635 271.729 3.85693 271.739C4.18268 271.734 4.50656 271.688 4.82116 271.603L36.8818 266.439C46.8669 264.839 56.475 261.417 65.2302 256.344L138.174 214.115C140.72 212.549 142.436 209.571 142.928 205.412Z" fill="url(#paint16_linear_1074_513)"/>
<path opacity="0.6" d="M4.82106 271.603L7.55947 271.168L11.2525 270.568C11.5824 270.075 11.7846 269.507 11.8407 268.915C11.8407 268.702 11.8407 268.47 11.8407 268.228C11.8407 267.987 11.8407 267.842 11.8407 267.648C9.03506 268.485 6.15948 269.064 3.24937 269.379C1.3209 269.485 0.645942 268.006 0.694153 265.695V265.743C0.313825 266.322 0.0956765 266.993 0.0625392 267.686C0.0294018 268.378 0.182491 269.067 0.50579 269.68C0.829089 270.293 1.31071 270.807 1.90024 271.169C2.48978 271.531 3.16554 271.728 3.85683 271.739C4.15289 271.735 4.44748 271.696 4.73428 271.622L4.82106 271.603Z" fill="#455A64"/>
<path d="M179.53 228.746L136.323 203.72L55.3081 250.629L98.5153 241.249L168.731 238.126L179.53 231.869V228.746Z" fill="url(#paint17_linear_1074_513)"/>
<path opacity="0.6" d="M179.53 228.746L136.323 203.72L55.3081 250.629L98.5153 241.249L168.731 238.126L179.53 231.869V228.746Z" fill="white"/>
<path d="M98.5153 241.249V238.126L55.3081 250.629L98.5153 241.249Z" fill="url(#paint18_linear_1074_513)"/>
<path d="M98.5154 238.126L168.731 234.993V238.126L98.5154 241.249V238.126Z" fill="url(#paint19_linear_1074_513)"/>
<path opacity="0.3" d="M98.5154 238.126L168.731 234.993V238.126L98.5154 241.249V238.126Z" fill="white"/>
<path d="M125.523 209.977L168.731 234.993L179.53 228.746L136.323 203.72L125.523 209.977Z" fill="url(#paint20_linear_1074_513)"/>
<path opacity="0.3" d="M125.523 209.977L168.731 234.993L179.53 228.746L136.323 203.72L125.523 209.977Z" fill="#455A64"/>
<path d="M179.53 228.746L168.731 234.993V238.126L179.53 231.869V228.746Z" fill="url(#paint21_linear_1074_513)"/>
<path opacity="0.5" d="M179.53 228.746L168.731 234.993V238.126L179.53 231.869V228.746Z" fill="#455A64"/>
<path d="M133.633 133.381L128.233 136.514L101.225 183.413L103.915 184.961L125.581 172.419L136.323 134.928L133.633 133.381Z" fill="url(#paint22_linear_1074_513)"/>
<path d="M103.915 184.961L125.581 172.419L136.323 134.928L130.923 138.052L103.915 184.961Z" fill="url(#paint23_linear_1074_513)"/>
<path opacity="0.5" d="M128.233 136.514L130.923 138.052L136.323 134.928L133.633 133.381L128.233 136.514Z" fill="white"/>
<path opacity="0.6" d="M130.923 138.052L103.915 184.961L125.581 172.419L136.323 134.928L130.923 138.052Z" fill="#455A64"/>
<path opacity="0.8" d="M142.706 174.536C140.556 170.804 139.389 163.899 145.763 159.683C152.136 155.467 157.208 157.827 157.208 157.827C157.208 157.827 154.807 159.761 154.875 161.617C154.875 161.617 161.788 155.525 166.976 158.097C166.976 158.097 162.733 160.186 163.341 162.052C163.948 163.919 171.315 160.505 173.87 157.072C173.87 157.072 174.236 160.08 171.238 163.783C168.239 167.487 161.836 170.446 161.836 170.446C162.61 170.762 163.444 170.902 164.277 170.855C165.111 170.808 165.924 170.576 166.658 170.175C166.658 170.175 162.637 176.47 157.064 179.168C154.538 180.407 151.631 180.617 148.954 179.753C146.277 178.89 144.038 177.02 142.706 174.536Z" fill="url(#paint24_linear_1074_513)"/>
<path opacity="0.8" d="M145.869 172.67C143.892 169.237 147.238 164.102 153.872 164.702C153.872 164.702 150.815 166.742 151.751 168.493C152.686 170.243 158.905 166.887 160.159 165.882C160.159 165.882 158.066 171.249 153.959 173.618C151.018 175.329 147.72 175.9 145.869 172.67Z" fill="white"/>
<path opacity="0.8" d="M148.231 191.758C150.381 195.491 155.743 199.959 162.589 196.526C169.435 193.093 169.907 187.513 169.907 187.513C169.907 187.513 167.014 188.616 165.472 187.649C165.472 187.649 174.15 184.69 174.555 178.897C174.555 178.897 170.64 181.537 169.319 180.077C167.998 178.617 174.651 173.927 178.894 173.424C178.894 173.424 176.483 171.606 171.778 172.351C167.072 173.096 161.075 178.211 161.075 178.211C161 177.339 161.112 176.46 161.403 175.635C161.694 174.809 162.157 174.056 162.762 173.424C158.725 173.563 154.798 174.778 151.384 176.944C149.048 178.523 147.413 180.95 146.825 183.713C146.237 186.476 146.741 189.36 148.231 191.758Z" fill="url(#paint25_linear_1074_513)"/>
<path opacity="0.8" d="M151.384 189.97C153.361 193.393 159.464 193.054 162.261 186.991C162.261 186.991 158.973 188.635 157.931 186.933C156.89 185.231 162.897 181.528 164.392 180.948C164.392 180.948 158.703 180.077 154.605 182.456C151.683 184.158 149.552 186.74 151.384 189.97Z" fill="white"/>
<path opacity="0.5" d="M402.005 240.507C400.449 240.507 398.928 240.044 397.634 239.177C396.34 238.31 395.332 237.078 394.737 235.636C394.141 234.195 393.985 232.608 394.289 231.078C394.592 229.547 395.342 228.141 396.442 227.038C397.542 225.934 398.944 225.183 400.47 224.879C401.996 224.574 403.578 224.73 405.016 225.328C406.453 225.925 407.682 226.936 408.547 228.234C409.411 229.531 409.872 231.056 409.872 232.617C409.872 234.709 409.044 236.716 407.568 238.196C406.093 239.676 404.092 240.507 402.005 240.507ZM402.005 225.366C400.575 225.366 399.177 225.792 397.988 226.588C396.8 227.385 395.873 228.517 395.326 229.842C394.778 231.167 394.635 232.625 394.914 234.031C395.193 235.438 395.882 236.73 396.893 237.744C397.904 238.758 399.192 239.448 400.595 239.728C401.997 240.008 403.451 239.864 404.772 239.315C406.093 238.767 407.222 237.837 408.016 236.645C408.811 235.453 409.235 234.051 409.235 232.617C409.232 230.695 408.47 228.852 407.114 227.493C405.759 226.134 403.922 225.369 402.005 225.366Z" fill="url(#paint26_linear_1074_513)"/>
<path d="M404.218 232.617C404.218 233.056 404.088 233.485 403.845 233.85C403.602 234.215 403.256 234.499 402.852 234.667C402.447 234.835 402.003 234.879 401.573 234.793C401.144 234.708 400.75 234.496 400.44 234.186C400.131 233.876 399.92 233.48 399.835 233.05C399.749 232.619 399.793 232.173 399.96 231.767C400.128 231.362 400.412 231.015 400.776 230.771C401.139 230.528 401.567 230.397 402.005 230.397C402.592 230.397 403.155 230.631 403.57 231.047C403.985 231.464 404.218 232.028 404.218 232.617Z" fill="white"/>
<path opacity="0.5" d="M302.317 98.7049C299.865 98.7049 297.468 97.9755 295.429 96.6091C293.39 95.2426 291.802 93.3004 290.864 91.0283C289.926 88.7561 289.681 86.2559 290.16 83.8441C290.639 81.4323 291.82 79.2171 293.555 77.4788C295.29 75.7406 297.499 74.5573 299.905 74.0787C302.31 73.6 304.803 73.8476 307.068 74.7899C309.333 75.7323 311.268 77.3272 312.629 79.3729C313.99 81.4186 314.716 83.8231 314.714 86.2823C314.709 89.5771 313.401 92.7354 311.077 95.0642C308.753 97.3931 305.603 98.7024 302.317 98.7049ZM302.317 74.4898C299.991 74.4917 297.716 75.1858 295.783 76.4844C293.85 77.783 292.344 79.6276 291.457 81.7847C290.569 83.9419 290.34 86.3146 290.798 88.6026C291.256 90.8905 292.38 92.9907 294.029 94.6375C295.677 96.2843 297.776 97.4035 300.059 97.8535C302.342 98.3035 304.707 98.064 306.855 97.1654C309.002 96.2668 310.836 94.7495 312.123 92.8055C313.41 90.8615 314.093 88.5782 314.086 86.2447C314.083 83.1163 312.842 80.1168 310.635 77.9056C308.429 75.6943 305.437 74.4522 302.317 74.4522V74.4898Z" fill="url(#paint27_linear_1074_513)"/>
<path d="M305.862 86.2447C305.862 86.9477 305.654 87.635 305.265 88.2195C304.875 88.8041 304.322 89.2597 303.674 89.5288C303.026 89.7978 302.314 89.8682 301.626 89.7311C300.939 89.5939 300.307 89.2553 299.811 88.7582C299.316 88.2611 298.978 87.6277 298.841 86.9382C298.705 86.2486 298.775 85.5339 299.043 84.8843C299.311 84.2348 299.766 83.6796 300.348 83.2891C300.931 82.8985 301.617 82.69 302.318 82.69C302.784 82.6887 303.245 82.7798 303.676 82.958C304.106 83.1362 304.497 83.398 304.827 83.7284C305.156 84.0587 305.417 84.451 305.595 84.8829C305.773 85.3147 305.863 85.7775 305.862 86.2447Z" fill="white"/>
<path opacity="0.5" d="M401.489 50.5191C399.933 50.5191 398.412 50.0564 397.118 49.1894C395.825 48.3225 394.816 47.0902 394.221 45.6485C393.625 44.2069 393.469 42.6205 393.773 41.09C394.077 39.5595 394.826 38.1536 395.926 37.0502C397.026 35.9468 398.428 35.1954 399.954 34.8909C401.48 34.5865 403.062 34.7427 404.5 35.3399C405.937 35.9371 407.166 36.9483 408.031 38.2458C408.895 39.5433 409.357 41.0687 409.357 42.6292C409.354 44.721 408.524 46.7264 407.05 48.2055C405.575 49.6846 403.575 50.5166 401.489 50.5191ZM401.489 35.3788C400.059 35.3788 398.661 35.804 397.473 36.6007C396.284 37.3974 395.357 38.5297 394.81 39.8546C394.263 41.1794 394.119 42.6373 394.398 44.0437C394.677 45.4501 395.366 46.742 396.377 47.756C397.388 48.77 398.676 49.4606 400.079 49.7403C401.481 50.0201 402.935 49.8765 404.256 49.3277C405.577 48.779 406.706 47.8497 407.5 46.6573C408.295 45.465 408.719 44.0632 408.719 42.6292C408.716 40.707 407.954 38.8643 406.599 37.5051C405.243 36.1459 403.406 35.3813 401.489 35.3788Z" fill="url(#paint28_linear_1074_513)"/>
<path d="M403.712 42.6292C403.713 43.0704 403.585 43.5023 403.342 43.87C403.099 44.2378 402.752 44.5249 402.346 44.695C401.94 44.8652 401.493 44.9106 401.061 44.8257C400.63 44.7408 400.233 44.5293 399.921 44.2179C399.609 43.9066 399.397 43.5095 399.31 43.0769C399.224 42.6443 399.267 42.1957 399.435 41.7879C399.603 41.3802 399.888 41.0315 400.254 40.7862C400.619 40.5409 401.049 40.4099 401.489 40.4099C401.781 40.4087 402.069 40.4652 402.339 40.5762C402.609 40.6871 402.854 40.8504 403.06 41.0566C403.267 41.2628 403.43 41.5079 403.542 41.7778C403.654 42.0477 403.712 42.337 403.712 42.6292Z" fill="white"/>
<path opacity="0.5" d="M116.867 105.034C115.311 105.034 113.79 104.571 112.496 103.704C111.203 102.837 110.194 101.605 109.599 100.163C109.003 98.7215 108.848 97.1351 109.151 95.6046C109.455 94.0741 110.204 92.6683 111.304 91.5648C112.405 90.4614 113.806 89.71 115.333 89.4055C116.859 89.1011 118.44 89.2574 119.878 89.8545C121.316 90.4517 122.544 91.463 123.409 92.7604C124.273 94.0579 124.735 95.5834 124.735 97.1438C124.735 99.2364 123.906 101.243 122.43 102.723C120.955 104.202 118.954 105.034 116.867 105.034ZM116.867 89.8934C115.437 89.8934 114.04 90.3186 112.851 91.1153C111.662 91.912 110.735 93.0444 110.188 94.3692C109.641 95.6941 109.498 97.1519 109.777 98.5583C110.056 99.9648 110.744 101.257 111.755 102.271C112.766 103.285 114.054 103.975 115.457 104.255C116.859 104.535 118.313 104.391 119.634 103.842C120.955 103.294 122.084 102.364 122.879 101.172C123.673 99.9796 124.097 98.5778 124.097 97.1438C124.095 95.2217 123.332 93.3789 121.977 92.0198C120.622 90.6606 118.784 89.8959 116.867 89.8934Z" fill="url(#paint29_linear_1074_513)"/>
<path d="M119.043 97.1438C119.047 97.5851 118.919 98.0175 118.676 98.3857C118.434 98.7539 118.087 99.0413 117.681 99.211C117.275 99.3807 116.827 99.4251 116.396 99.3385C115.964 99.2519 115.568 99.0382 115.258 98.7248C114.949 98.4114 114.739 98.0125 114.656 97.579C114.574 97.1456 114.622 96.6972 114.794 96.2913C114.967 95.8854 115.257 95.5403 115.626 95.3002C115.995 95.0601 116.427 94.9358 116.867 94.9433C117.445 94.9507 117.997 95.1855 118.404 95.5971C118.811 96.0087 119.04 96.5642 119.043 97.1438Z" fill="white"/>
<path d="M436.437 32.4166C436.245 32.2613 436.104 32.0524 436.03 31.8162C435.956 31.5801 435.954 31.3274 436.024 31.0901C436.093 30.8528 436.232 30.6415 436.421 30.4829C436.61 30.3244 436.842 30.2257 437.088 30.1994C437.333 30.1731 437.58 30.2203 437.799 30.3351C438.018 30.4499 438.197 30.6271 438.315 30.8443C438.433 31.0615 438.485 31.309 438.462 31.5553C438.44 31.8017 438.346 32.036 438.191 32.2285C437.983 32.4866 437.682 32.6514 437.353 32.6867C437.024 32.722 436.695 32.6248 436.437 32.4166Z" fill="#F0F0F0"/>
<path d="M432.743 36.0183C432.668 35.9588 432.605 35.885 432.559 35.801C432.512 35.7171 432.483 35.6248 432.473 35.5294C432.462 35.434 432.471 35.3375 432.498 35.2455C432.525 35.1535 432.57 35.0677 432.63 34.9933C432.751 34.8434 432.927 34.7475 433.118 34.7263C433.309 34.7052 433.501 34.7606 433.652 34.8804C433.8 35.0035 433.894 35.179 433.915 35.3702C433.936 35.5614 433.882 35.7532 433.765 35.9055C433.705 35.9808 433.632 36.0435 433.548 36.09C433.464 36.1364 433.372 36.1658 433.277 36.1763C433.182 36.1868 433.086 36.1782 432.994 36.1511C432.902 36.124 432.817 36.0788 432.743 36.0183Z" fill="#FAFAFA"/>
<path d="M331.405 229.514C331.546 229.656 331.642 229.837 331.681 230.034C331.72 230.231 331.7 230.435 331.623 230.62C331.546 230.805 331.416 230.964 331.25 231.075C331.083 231.187 330.888 231.246 330.688 231.246C330.487 231.246 330.292 231.187 330.125 231.075C329.959 230.964 329.829 230.805 329.752 230.62C329.675 230.435 329.655 230.231 329.694 230.034C329.733 229.837 329.829 229.656 329.97 229.514C330.161 229.325 330.419 229.219 330.688 229.219C330.956 229.219 331.214 229.325 331.405 229.514Z" fill="#FAFAFA"/>
<path d="M340.763 233.962C340.921 234.112 341.047 234.291 341.135 234.491C341.223 234.69 341.27 234.905 341.275 235.123C341.279 235.34 341.24 235.557 341.161 235.76C341.081 235.962 340.962 236.147 340.81 236.303C340.584 236.539 340.293 236.702 339.975 236.773C339.656 236.843 339.323 236.816 339.02 236.697C338.716 236.578 338.454 236.371 338.267 236.103C338.08 235.834 337.977 235.516 337.971 235.189C337.964 234.862 338.055 234.54 338.23 234.264C338.406 233.989 338.659 233.771 338.958 233.64C339.257 233.509 339.588 233.469 339.91 233.526C340.231 233.584 340.528 233.735 340.763 233.962Z" fill="#FAFAFA"/>
<g opacity="0.5">
<path d="M368.801 112.265C368.987 112.191 369.19 112.173 369.386 112.215C369.582 112.256 369.761 112.355 369.901 112.499C370.04 112.642 370.135 112.824 370.172 113.021C370.209 113.218 370.187 113.422 370.108 113.606C370.03 113.791 369.899 113.948 369.732 114.058C369.564 114.168 369.368 114.226 369.168 114.224C368.968 114.223 368.773 114.162 368.608 114.049C368.442 113.936 368.314 113.777 368.238 113.591C368.139 113.341 368.143 113.061 368.248 112.812C368.353 112.564 368.552 112.368 368.801 112.265Z" fill="#FAFAFA"/>
<path d="M376.668 105.513C376.974 105.393 377.308 105.367 377.628 105.437C377.949 105.507 378.241 105.671 378.469 105.908C378.696 106.145 378.849 106.444 378.907 106.768C378.965 107.092 378.927 107.425 378.796 107.727C378.665 108.029 378.448 108.285 378.172 108.463C377.896 108.641 377.574 108.733 377.246 108.728C376.918 108.722 376.599 108.619 376.33 108.432C376.06 108.245 375.851 107.982 375.731 107.676C375.571 107.265 375.579 106.806 375.755 106.401C375.931 105.996 376.259 105.677 376.668 105.513Z" fill="#FAFAFA"/>
</g>
<g opacity="0.5">
<path d="M383.551 267.571C383.553 267.901 383.457 268.224 383.276 268.499C383.094 268.774 382.836 268.988 382.533 269.116C382.229 269.243 381.895 269.278 381.573 269.214C381.25 269.151 380.954 268.993 380.721 268.761C380.488 268.529 380.329 268.232 380.264 267.909C380.199 267.586 380.231 267.251 380.357 266.946C380.482 266.641 380.695 266.381 380.968 266.197C381.241 266.014 381.562 265.916 381.891 265.916C382.329 265.916 382.75 266.09 383.061 266.4C383.372 266.711 383.548 267.132 383.551 267.571Z" fill="#FAFAFA"/>
<path d="M378.609 272.104C378.611 272.302 378.554 272.496 378.445 272.661C378.337 272.827 378.181 272.956 377.999 273.033C377.817 273.109 377.617 273.13 377.423 273.092C377.23 273.053 377.052 272.958 376.912 272.818C376.772 272.678 376.678 272.5 376.639 272.306C376.601 272.111 376.622 271.91 376.698 271.728C376.775 271.545 376.904 271.39 377.068 271.281C377.233 271.172 377.427 271.115 377.624 271.117C377.755 271.11 377.886 271.131 378.009 271.178C378.131 271.225 378.243 271.298 378.335 271.391C378.428 271.484 378.5 271.595 378.548 271.718C378.595 271.841 378.615 271.973 378.609 272.104Z" fill="#FAFAFA"/>
<path d="M375.805 265.916C375.813 266.077 375.772 266.236 375.687 266.373C375.603 266.51 375.48 266.618 375.333 266.684C375.187 266.749 375.024 266.769 374.866 266.74C374.708 266.711 374.563 266.635 374.449 266.522C374.335 266.409 374.257 266.264 374.227 266.106C374.196 265.948 374.214 265.785 374.277 265.637C374.34 265.489 374.447 265.364 374.582 265.278C374.718 265.192 374.876 265.149 375.036 265.154C375.236 265.161 375.427 265.244 375.569 265.385C375.712 265.526 375.796 265.716 375.805 265.916Z" fill="#FAFAFA"/>
</g>
<path d="M254.804 33.6015C254.804 33.8024 254.744 33.9987 254.633 34.1658C254.522 34.3328 254.364 34.463 254.179 34.5398C253.994 34.6167 253.79 34.6368 253.593 34.5976C253.397 34.5584 253.217 34.4617 253.075 34.3197C252.933 34.1776 252.837 33.9967 252.798 33.7997C252.759 33.6026 252.779 33.3984 252.855 33.2129C252.932 33.0273 253.062 32.8686 253.228 32.757C253.395 32.6455 253.591 32.5859 253.791 32.5859C254.06 32.5859 254.317 32.6929 254.507 32.8834C254.697 33.0738 254.804 33.3322 254.804 33.6015Z" fill="#FAFAFA"/>
<path d="M259.577 20.2761L261.865 22.5425L265.015 21.9312C265.083 21.9185 265.152 21.9249 265.216 21.9497C265.279 21.9745 265.335 22.0167 265.376 22.0715C265.417 22.1264 265.442 22.1916 265.448 22.2599C265.454 22.3282 265.44 22.3967 265.409 22.4578L263.975 25.3542L265.522 28.1754C265.556 28.2355 265.573 28.3042 265.571 28.3735C265.568 28.4428 265.545 28.5099 265.506 28.567C265.467 28.6241 265.412 28.6689 265.349 28.6961C265.285 28.7233 265.215 28.7319 265.147 28.7208L261.977 28.2412L259.774 30.5922C259.727 30.6425 259.666 30.6784 259.6 30.6958C259.533 30.7133 259.463 30.7117 259.398 30.691C259.332 30.6704 259.274 30.6317 259.229 30.5793C259.184 30.5269 259.155 30.4629 259.145 30.3947L258.62 27.2162L255.713 25.8526C255.652 25.8224 255.6 25.7756 255.564 25.7174C255.528 25.6592 255.509 25.592 255.509 25.5235C255.509 25.455 255.528 25.3878 255.564 25.3296C255.6 25.2715 255.652 25.2246 255.713 25.1944L258.527 23.7086L258.93 20.5112C258.93 20.4357 258.953 20.362 258.996 20.3002C259.039 20.2383 259.1 20.1914 259.171 20.1656C259.242 20.1399 259.319 20.1367 259.391 20.1565C259.464 20.1763 259.529 20.2181 259.577 20.2761Z" fill="#FAFAFA"/>
<path d="M179.993 167.081L180.35 169.554L182.572 170.654C182.62 170.678 182.66 170.714 182.688 170.759C182.716 170.803 182.731 170.855 182.731 170.908C182.731 170.961 182.716 171.013 182.688 171.058C182.66 171.103 182.62 171.139 182.572 171.162L180.35 172.263L179.984 174.736C179.975 174.787 179.953 174.835 179.919 174.874C179.885 174.913 179.84 174.942 179.791 174.958C179.741 174.973 179.689 174.975 179.638 174.962C179.588 174.95 179.542 174.923 179.506 174.886L177.771 173.099L175.324 173.523C175.271 173.533 175.217 173.528 175.167 173.508C175.117 173.489 175.074 173.455 175.042 173.412C175.011 173.368 174.992 173.317 174.989 173.263C174.986 173.209 174.998 173.156 175.024 173.109L176.177 170.908L175.024 168.698C175.005 168.653 174.997 168.604 175.002 168.555C175.008 168.506 175.025 168.459 175.053 168.418C175.081 168.378 175.119 168.346 175.163 168.324C175.207 168.302 175.256 168.292 175.305 168.294L177.752 168.717L179.487 166.94C179.523 166.898 179.57 166.867 179.623 166.851C179.676 166.836 179.732 166.835 179.785 166.85C179.838 166.864 179.886 166.894 179.923 166.935C179.96 166.976 179.984 167.027 179.993 167.081Z" fill="#FAFAFA"/>
<path d="M400.401 7.89117L402.84 7.44918L403.862 5.17343C403.885 5.12573 403.921 5.08551 403.965 5.05736C404.01 5.02921 404.062 5.01428 404.115 5.01428C404.168 5.01428 404.219 5.02921 404.264 5.05736C404.309 5.08551 404.345 5.12573 404.368 5.17343L405.55 7.37395L408.016 7.64666C408.067 7.65223 408.116 7.67201 408.157 7.70384C408.199 7.73566 408.23 7.77827 408.249 7.82695C408.267 7.87563 408.272 7.92849 408.262 7.97966C408.252 8.03083 408.229 8.07831 408.194 8.11686L406.478 9.92241L406.984 12.358C406.994 12.4102 406.989 12.464 406.97 12.5136C406.952 12.5632 406.92 12.6068 406.879 12.6397C406.837 12.6726 406.788 12.6935 406.735 12.7002C406.683 12.7069 406.629 12.6992 406.581 12.6778L404.34 11.5963L402.23 12.8094C402.184 12.8365 402.132 12.8501 402.079 12.8487C402.026 12.8473 401.975 12.8309 401.931 12.8015C401.886 12.772 401.852 12.7306 401.83 12.6821C401.808 12.6336 401.801 12.5799 401.808 12.5273L402.146 10.0541L400.27 8.38017C400.231 8.34541 400.202 8.30025 400.186 8.24978C400.171 8.19932 400.17 8.14558 400.184 8.09467C400.198 8.04375 400.225 7.9977 400.264 7.96173C400.302 7.92576 400.35 7.90131 400.401 7.89117Z" fill="#FAFAFA"/>
<path d="M252.075 270.139C252.288 270.263 252.459 270.448 252.567 270.671C252.675 270.893 252.715 271.142 252.682 271.387C252.649 271.632 252.544 271.862 252.381 272.047C252.217 272.233 252.003 272.365 251.764 272.428C251.526 272.491 251.274 272.482 251.041 272.402C250.808 272.321 250.604 272.173 250.454 271.977C250.305 271.78 250.217 271.543 250.202 271.296C250.186 271.05 250.244 270.804 250.368 270.59C250.45 270.447 250.559 270.322 250.689 270.221C250.82 270.121 250.968 270.048 251.127 270.006C251.286 269.964 251.452 269.954 251.614 269.977C251.777 269.999 251.934 270.054 252.075 270.139Z" fill="#F0F0F0"/>
<path d="M255.169 266.01C255.336 266.107 255.459 266.266 255.51 266.452C255.561 266.639 255.536 266.838 255.441 267.007C255.394 267.09 255.33 267.163 255.254 267.222C255.178 267.28 255.091 267.323 254.999 267.347C254.907 267.372 254.81 267.377 254.715 267.364C254.621 267.351 254.529 267.319 254.447 267.27C254.365 267.223 254.292 267.159 254.234 267.084C254.176 267.008 254.133 266.922 254.109 266.83C254.084 266.738 254.077 266.641 254.09 266.547C254.102 266.452 254.132 266.361 254.18 266.278C254.227 266.195 254.29 266.123 254.366 266.065C254.441 266.006 254.527 265.964 254.619 265.939C254.711 265.914 254.807 265.907 254.901 265.92C254.996 265.932 255.087 265.963 255.169 266.01Z" fill="#FAFAFA"/>
<path d="M291.44 288.824L289.086 289.642L288.43 292.04C288.416 292.091 288.388 292.137 288.349 292.173C288.311 292.209 288.263 292.233 288.211 292.243C288.159 292.253 288.106 292.248 288.056 292.229C288.007 292.209 287.965 292.177 287.933 292.134L286.433 290.15L283.948 290.263C283.894 290.267 283.84 290.255 283.793 290.229C283.746 290.203 283.707 290.163 283.681 290.116C283.655 290.068 283.644 290.014 283.648 289.96C283.652 289.906 283.671 289.855 283.704 289.812L285.12 287.771L284.248 285.439C284.227 285.389 284.221 285.334 284.231 285.281C284.24 285.228 284.265 285.179 284.301 285.139C284.338 285.1 284.385 285.071 284.437 285.058C284.489 285.044 284.544 285.046 284.595 285.063L286.977 285.787L288.918 284.235C288.959 284.201 289.008 284.18 289.061 284.173C289.114 284.167 289.167 284.175 289.215 284.198C289.263 284.221 289.304 284.256 289.333 284.301C289.361 284.346 289.377 284.398 289.377 284.451V286.943L291.449 288.316C291.497 288.34 291.536 288.377 291.563 288.423C291.591 288.468 291.604 288.52 291.604 288.573C291.603 288.626 291.587 288.678 291.558 288.722C291.529 288.767 291.488 288.802 291.44 288.824Z" fill="#FAFAFA"/>
<path d="M452.735 112.688C453.04 112.569 453.374 112.542 453.694 112.612C454.015 112.682 454.307 112.846 454.535 113.083C454.763 113.32 454.915 113.619 454.973 113.943C455.032 114.267 454.993 114.6 454.862 114.902C454.731 115.204 454.514 115.46 454.238 115.638C453.963 115.816 453.641 115.908 453.313 115.903C452.985 115.897 452.666 115.794 452.396 115.607C452.126 115.42 451.918 115.157 451.797 114.851C451.716 114.648 451.677 114.43 451.68 114.211C451.684 113.992 451.731 113.776 451.818 113.575C451.905 113.374 452.031 113.192 452.188 113.04C452.345 112.888 452.531 112.768 452.735 112.688Z" fill="#FAFAFA"/>
<path d="M180.65 291.814C180.234 291.394 180 290.825 180 290.233C180 289.64 180.234 289.072 180.65 288.652C181.069 288.234 181.636 288 182.226 288C182.817 288 183.384 288.234 183.803 288.652C183.803 288.652 228.293 334.661 227.415 335.541C226.538 336.421 180.65 291.814 180.65 291.814Z" fill="url(#paint30_linear_1074_513)"/>
<path d="M181.489 289.483C181.714 289.259 182.019 289.133 182.336 289.134C182.653 289.135 182.957 289.262 183.181 289.488C183.405 289.714 183.53 290.019 183.529 290.338C183.528 290.656 183.401 290.961 183.176 291.185C183.065 291.296 182.933 291.384 182.787 291.444C182.642 291.504 182.486 291.535 182.329 291.534C182.172 291.534 182.017 291.502 181.872 291.442C181.727 291.381 181.595 291.292 181.484 291.18C181.373 291.069 181.285 290.936 181.226 290.79C181.166 290.645 181.136 290.488 181.136 290.331C181.136 290.173 181.168 290.017 181.228 289.872C181.289 289.727 181.377 289.594 181.489 289.483Z" fill="#FAFAFA"/>
<path d="M180.37 300.546C180.134 300.308 180.002 299.987 180.002 299.651C180.002 299.316 180.134 298.994 180.37 298.757C180.487 298.637 180.627 298.542 180.781 298.477C180.935 298.412 181.1 298.378 181.267 298.378C181.434 298.378 181.6 298.412 181.754 298.477C181.908 298.542 182.047 298.637 182.164 298.757C182.164 298.757 200.369 317.903 199.867 318.406C199.366 318.909 180.37 300.546 180.37 300.546Z" fill="url(#paint31_linear_1074_513)"/>
<path d="M499.468 24.8821C499.052 24.4618 498.818 23.8934 498.818 23.301C498.818 22.7086 499.052 22.1403 499.468 21.72C499.674 21.511 499.92 21.345 500.19 21.2318C500.461 21.1185 500.751 21.0602 501.045 21.0602C501.338 21.0602 501.628 21.1185 501.899 21.2318C502.169 21.345 502.415 21.511 502.621 21.72C502.621 21.72 547.111 67.7296 546.233 68.6095C545.356 69.4895 499.468 24.8821 499.468 24.8821Z" fill="url(#paint32_linear_1074_513)"/>
<path d="M500.297 22.5226C500.464 22.3544 500.677 22.2397 500.91 22.193C501.142 22.1464 501.382 22.1698 501.601 22.2604C501.82 22.3511 502.007 22.5047 502.138 22.702C502.27 22.8993 502.34 23.1314 502.34 23.3687C502.34 23.6061 502.27 23.8381 502.138 24.0354C502.007 24.2327 501.82 24.3864 501.601 24.477C501.382 24.5676 501.142 24.5911 500.91 24.5444C500.677 24.4977 500.464 24.383 500.297 24.2148C500.074 23.9901 499.949 23.6859 499.949 23.3687C499.949 23.0516 500.074 22.7473 500.297 22.5226Z" fill="#FAFAFA"/>
<path d="M527.595 39.7642C527.362 39.5287 527.231 39.2107 527.231 38.8794C527.231 38.548 527.362 38.23 527.595 37.9946C527.831 37.7578 528.152 37.6248 528.486 37.6248C528.821 37.6248 529.142 37.7578 529.378 37.9946C529.378 37.9946 547.583 57.1507 547.082 57.6535C546.58 58.1564 527.595 39.7642 527.595 39.7642Z" fill="url(#paint33_linear_1074_513)"/>
<path d="M499.188 33.614C498.952 33.3766 498.82 33.0549 498.82 32.7196C498.82 32.3842 498.952 32.0625 499.188 31.8251C499.304 31.7055 499.443 31.6104 499.596 31.5455C499.749 31.4806 499.914 31.4471 500.08 31.4471C500.247 31.4471 500.411 31.4806 500.564 31.5455C500.718 31.6104 500.856 31.7055 500.972 31.8251C500.972 31.8251 519.186 50.9716 518.685 51.4744C518.184 51.9772 499.188 33.614 499.188 33.614Z" fill="url(#paint34_linear_1074_513)"/>
<defs>
<linearGradient id="paint0_linear_1074_513" x1="171.733" y1="14.7561" x2="171.733" y2="91.0326" gradientUnits="userSpaceOnUse">
<stop stop-color="#FD0091"/>
<stop offset="0.0001" stop-color="#FD0091"/>
<stop offset="1" stop-color="#FF7732"/>
</linearGradient>
<linearGradient id="paint1_linear_1074_513" x1="161.57" y1="16.6207" x2="161.57" y2="43.8627" gradientUnits="userSpaceOnUse">
<stop stop-color="#FD0091"/>
<stop offset="0.0001" stop-color="#FD0091"/>
<stop offset="1" stop-color="#FF7732"/>
</linearGradient>
<linearGradient id="paint2_linear_1074_513" x1="167.775" y1="23.9523" x2="167.775" y2="84.0025" gradientUnits="userSpaceOnUse">
<stop stop-color="#FD0091"/>
<stop offset="0.0001" stop-color="#FD0091"/>
<stop offset="1" stop-color="#FF7732"/>
</linearGradient>
<linearGradient id="paint3_linear_1074_513" x1="159.647" y1="52.5076" x2="159.647" y2="91.0326" gradientUnits="userSpaceOnUse">
<stop stop-color="#FD0091"/>
<stop offset="0.0001" stop-color="#FD0091"/>
<stop offset="1" stop-color="#FF7732"/>
</linearGradient>
<linearGradient id="paint4_linear_1074_513" x1="198.533" y1="18.0826" x2="198.533" y2="57.7197" gradientUnits="userSpaceOnUse">
<stop stop-color="#FD0091"/>
<stop offset="0.0001" stop-color="#FD0091"/>
<stop offset="1" stop-color="#FF7732"/>
</linearGradient>
<linearGradient id="paint5_linear_1074_513" x1="187.24" y1="14.7465" x2="187.24" y2="74.0039" gradientUnits="userSpaceOnUse">
<stop stop-color="#FD0091"/>
<stop offset="0.0001" stop-color="#FD0091"/>
<stop offset="1" stop-color="#FF7732"/>
</linearGradient>
<linearGradient id="paint6_linear_1074_513" x1="375.449" y1="119.589" x2="448.164" y2="154.391" gradientUnits="userSpaceOnUse">
<stop stop-color="#FD0091"/>
<stop offset="0.0001" stop-color="#FD0091"/>
<stop offset="1" stop-color="#FF7732"/>
</linearGradient>
<linearGradient id="paint7_linear_1074_513" x1="415.275" y1="101.226" x2="415.275" y2="182.896" gradientUnits="userSpaceOnUse">
<stop stop-color="#FD0091"/>
<stop offset="0.0001" stop-color="#FD0091"/>
<stop offset="1" stop-color="#FF7732"/>
</linearGradient>
<linearGradient id="paint8_linear_1074_513" x1="145.993" y1="186.818" x2="145.993" y2="199.949" gradientUnits="userSpaceOnUse">
<stop stop-color="#FD0091"/>
<stop offset="0.0001" stop-color="#FD0091"/>
<stop offset="1" stop-color="#FF7732"/>
</linearGradient>
<linearGradient id="paint9_linear_1074_513" x1="139.983" y1="168.703" x2="139.983" y2="181.866" gradientUnits="userSpaceOnUse">
<stop stop-color="#FD0091"/>
<stop offset="0.0001" stop-color="#FD0091"/>
<stop offset="1" stop-color="#FF7732"/>
</linearGradient>
<linearGradient id="paint10_linear_1074_513" x1="68.8123" y1="163.068" x2="68.8123" y2="234.993" gradientUnits="userSpaceOnUse">
<stop stop-color="#FD0091"/>
<stop offset="0.0001" stop-color="#FD0091"/>
<stop offset="1" stop-color="#FF7732"/>
</linearGradient>
<linearGradient id="paint11_linear_1074_513" x1="82.3114" y1="163.068" x2="82.3114" y2="194.34" gradientUnits="userSpaceOnUse">
<stop stop-color="#FD0091"/>
<stop offset="0.0001" stop-color="#FD0091"/>
<stop offset="1" stop-color="#FF7732"/>
</linearGradient>
<linearGradient id="paint12_linear_1074_513" x1="71.8641" y1="169.984" x2="71.8641" y2="271.623" gradientUnits="userSpaceOnUse">
<stop stop-color="#FD0091"/>
<stop offset="0.0001" stop-color="#FD0091"/>
<stop offset="1" stop-color="#FF7732"/>
</linearGradient>
<linearGradient id="paint13_linear_1074_513" x1="124.019" y1="169.974" x2="124.019" y2="218.941" gradientUnits="userSpaceOnUse">
<stop stop-color="#FD0091"/>
<stop offset="0.0001" stop-color="#FD0091"/>
<stop offset="1" stop-color="#FF7732"/>
</linearGradient>
<linearGradient id="paint14_linear_1074_513" x1="5.92868" y1="259.424" x2="5.92868" y2="271.739" gradientUnits="userSpaceOnUse">
<stop stop-color="#FD0091"/>
<stop offset="0.0001" stop-color="#FD0091"/>
<stop offset="1" stop-color="#FF7732"/>
</linearGradient>
<linearGradient id="paint15_linear_1074_513" x1="26.9214" y1="232.285" x2="26.9214" y2="256.344" gradientUnits="userSpaceOnUse">
<stop stop-color="#FD0091"/>
<stop offset="0.0001" stop-color="#FD0091"/>
<stop offset="1" stop-color="#FF7732"/>
</linearGradient>
<linearGradient id="paint16_linear_1074_513" x1="71.5637" y1="199.91" x2="71.5637" y2="271.739" gradientUnits="userSpaceOnUse">
<stop stop-color="#FD0091"/>
<stop offset="0.0001" stop-color="#FD0091"/>
<stop offset="1" stop-color="#FF7732"/>
</linearGradient>
<linearGradient id="paint17_linear_1074_513" x1="117.419" y1="203.72" x2="117.419" y2="250.629" gradientUnits="userSpaceOnUse">
<stop stop-color="#FD0091"/>
<stop offset="0.0001" stop-color="#FD0091"/>
<stop offset="1" stop-color="#FF7732"/>
</linearGradient>
<linearGradient id="paint18_linear_1074_513" x1="76.9117" y1="238.126" x2="76.9117" y2="250.629" gradientUnits="userSpaceOnUse">
<stop stop-color="#FD0091"/>
<stop offset="0.0001" stop-color="#FD0091"/>
<stop offset="1" stop-color="#FF7732"/>
</linearGradient>
<linearGradient id="paint19_linear_1074_513" x1="133.623" y1="234.993" x2="133.623" y2="241.249" gradientUnits="userSpaceOnUse">
<stop stop-color="#FD0091"/>
<stop offset="0.0001" stop-color="#FD0091"/>
<stop offset="1" stop-color="#FF7732"/>
</linearGradient>
<linearGradient id="paint20_linear_1074_513" x1="152.527" y1="203.72" x2="152.527" y2="234.993" gradientUnits="userSpaceOnUse">
<stop stop-color="#FD0091"/>
<stop offset="0.0001" stop-color="#FD0091"/>
<stop offset="1" stop-color="#FF7732"/>
</linearGradient>
<linearGradient id="paint21_linear_1074_513" x1="174.13" y1="228.746" x2="174.13" y2="238.126" gradientUnits="userSpaceOnUse">
<stop stop-color="#FD0091"/>
<stop offset="0.0001" stop-color="#FD0091"/>
<stop offset="1" stop-color="#FF7732"/>
</linearGradient>
<linearGradient id="paint22_linear_1074_513" x1="118.774" y1="133.381" x2="118.774" y2="184.961" gradientUnits="userSpaceOnUse">
<stop stop-color="#FD0091"/>
<stop offset="0.0001" stop-color="#FD0091"/>
<stop offset="1" stop-color="#FF7732"/>
</linearGradient>
<linearGradient id="paint23_linear_1074_513" x1="120.119" y1="134.928" x2="120.119" y2="184.961" gradientUnits="userSpaceOnUse">
<stop stop-color="#FD0091"/>
<stop offset="0.0001" stop-color="#FD0091"/>
<stop offset="1" stop-color="#FF7732"/>
</linearGradient>
<linearGradient id="paint24_linear_1074_513" x1="157.441" y1="157.072" x2="157.441" y2="180.277" gradientUnits="userSpaceOnUse">
<stop stop-color="#FD0091"/>
<stop offset="0.0001" stop-color="#FD0091"/>
<stop offset="1" stop-color="#FF7732"/>
</linearGradient>
<linearGradient id="paint25_linear_1074_513" x1="162.74" y1="172.172" x2="162.74" y2="197.754" gradientUnits="userSpaceOnUse">
<stop stop-color="#FD0091"/>
<stop offset="0.0001" stop-color="#FD0091"/>
<stop offset="1" stop-color="#FF7732"/>
</linearGradient>
<linearGradient id="paint26_linear_1074_513" x1="402.005" y1="224.727" x2="402.005" y2="240.507" gradientUnits="userSpaceOnUse">
<stop stop-color="#FD0091"/>
<stop offset="0.0001" stop-color="#FD0091"/>
<stop offset="1" stop-color="#FF7732"/>
</linearGradient>
<linearGradient id="paint27_linear_1074_513" x1="302.317" y1="73.8409" x2="302.317" y2="98.7049" gradientUnits="userSpaceOnUse">
<stop stop-color="#FD0091"/>
<stop offset="0.0001" stop-color="#FD0091"/>
<stop offset="1" stop-color="#FF7732"/>
</linearGradient>
<linearGradient id="paint28_linear_1074_513" x1="401.489" y1="34.7393" x2="401.489" y2="50.5191" gradientUnits="userSpaceOnUse">
<stop stop-color="#FD0091"/>
<stop offset="0.0001" stop-color="#FD0091"/>
<stop offset="1" stop-color="#FF7732"/>
</linearGradient>
<linearGradient id="paint29_linear_1074_513" x1="116.867" y1="89.2539" x2="116.867" y2="105.034" gradientUnits="userSpaceOnUse">
<stop stop-color="#FD0091"/>
<stop offset="0.0001" stop-color="#FD0091"/>
<stop offset="1" stop-color="#FF7732"/>
</linearGradient>
<linearGradient id="paint30_linear_1074_513" x1="203.714" y1="288" x2="203.714" y2="335.554" gradientUnits="userSpaceOnUse">
<stop stop-color="#FD0091"/>
<stop offset="0.0001" stop-color="#FD0091"/>
<stop offset="1" stop-color="#FF7732"/>
</linearGradient>
<linearGradient id="paint31_linear_1074_513" x1="189.94" y1="298.378" x2="189.94" y2="318.416" gradientUnits="userSpaceOnUse">
<stop stop-color="#FD0091"/>
<stop offset="0.0001" stop-color="#FD0091"/>
<stop offset="1" stop-color="#FF7732"/>
</linearGradient>
<linearGradient id="paint32_linear_1074_513" x1="522.532" y1="21.0602" x2="522.532" y2="68.6224" gradientUnits="userSpaceOnUse">
<stop stop-color="#FD0091"/>
<stop offset="0.0001" stop-color="#FD0091"/>
<stop offset="1" stop-color="#FF7732"/>
</linearGradient>
<linearGradient id="paint33_linear_1074_513" x1="537.162" y1="37.6248" x2="537.162" y2="57.6637" gradientUnits="userSpaceOnUse">
<stop stop-color="#FD0091"/>
<stop offset="0.0001" stop-color="#FD0091"/>
<stop offset="1" stop-color="#FF7732"/>
</linearGradient>
<linearGradient id="paint34_linear_1074_513" x1="508.757" y1="31.4471" x2="508.757" y2="51.4845" gradientUnits="userSpaceOnUse">
<stop stop-color="#FD0091"/>
<stop offset="0.0001" stop-color="#FD0091"/>
<stop offset="1" stop-color="#FF7732"/>
</linearGradient>
</defs>
</svg>
