<svg width="175" height="152" viewBox="0 0 175 152" fill="none" xmlns="http://www.w3.org/2000/svg">
<path opacity="0.3" d="M66.6896 57.26C63.8047 57.7831 60.8313 57.4501 58.1457 56.3031C55.46 55.1561 53.1827 53.2466 51.6016 50.816C50.0205 48.3854 49.2067 45.543 49.2631 42.6481C49.3195 39.7532 50.2435 36.9359 51.9184 34.5525C53.5933 32.1691 55.9437 30.3265 58.6725 29.2579C61.4013 28.1893 64.386 27.9425 67.2489 28.5489C70.1119 29.1553 72.7247 30.5875 74.7568 32.6645C76.789 34.7415 78.1493 37.37 78.6656 40.2175C79.358 44.0359 78.4853 47.9766 76.2394 51.1727C73.9934 54.3688 70.5583 56.5584 66.6896 57.26V57.26ZM61.5343 28.8302C58.7164 29.3412 56.1113 30.6654 54.0485 32.6355C51.9858 34.6056 50.5579 37.133 49.9455 39.8982C49.3331 42.6633 49.5637 45.542 50.6081 48.1702C51.6525 50.7983 53.4638 53.058 55.813 54.6633C58.1622 56.2687 60.9437 57.1477 63.8058 57.1891C66.668 57.2305 69.4822 56.4326 71.8926 54.8961C74.303 53.3597 76.2013 51.1538 77.3475 48.5573C78.4936 45.9608 78.8362 43.0904 78.3319 40.3091C77.6555 36.5795 75.5059 33.2748 72.3557 31.1221C69.2055 28.9694 65.313 28.145 61.5343 28.8302V28.8302Z" fill="white"/>
<path opacity="0.2" d="M66.879 58.3047C63.788 58.8652 60.6025 58.5085 57.7251 57.2795C54.8477 56.0506 52.4077 54.0048 50.7137 51.4007C49.0197 48.7966 48.1478 45.7512 48.2083 42.6496C48.2687 39.548 49.2587 36.5296 51.0532 33.976C52.8476 31.4224 55.3659 29.4483 58.2895 28.3034C61.2132 27.1585 64.4109 26.8942 67.4782 27.5438C70.5456 28.1935 73.3449 29.728 75.5222 31.9533C77.6994 34.1785 79.1568 36.9946 79.71 40.0455C80.4471 44.136 79.5102 48.3557 77.1047 51.7788C74.6992 55.202 71.0217 57.5489 66.879 58.3047ZM61.3454 27.789C58.3215 28.3373 55.5261 29.7584 53.3125 31.8725C51.0989 33.9865 49.5667 36.6987 48.9095 39.666C48.2523 42.6332 48.4998 45.7223 49.6205 48.5426C50.7413 51.3629 52.685 53.7877 55.2059 55.5104C57.7268 57.2331 60.7116 58.1763 63.783 58.2208C66.8543 58.2653 69.8742 57.409 72.4608 55.7602C75.0474 54.1115 77.0845 51.7443 78.3144 48.958C79.5444 46.1718 79.912 43.0916 79.3708 40.107C78.6416 36.1065 76.334 32.5625 72.9545 30.2531C69.575 27.9436 65.3998 27.0574 61.3454 27.789V27.789Z" fill="white"/>
<path opacity="0.1" d="M67.1098 59.5768C63.7613 60.1841 60.3101 59.7976 57.1929 58.4662C54.0757 57.1349 51.4323 54.9185 49.5972 52.0973C47.762 49.2762 46.8174 45.977 46.8829 42.6169C46.9483 39.2568 48.0209 35.9868 49.9649 33.2203C51.9089 30.4539 54.6371 28.3153 57.8044 27.0749C60.9717 25.8346 64.436 25.5482 67.759 26.252C71.0821 26.9558 74.1147 28.6182 76.4734 31.029C78.8321 33.4397 80.411 36.4906 81.0103 39.7957C81.8055 44.2267 80.7891 48.7965 78.1837 52.5042C75.5783 56.2118 71.5963 58.7551 67.1098 59.5768ZM61.1099 26.4897C57.8284 27.0847 54.7948 28.6269 52.3926 30.9211C49.9905 33.2153 48.3277 36.1585 47.6145 39.3786C46.9013 42.5987 47.1699 45.951 48.3861 49.0115C49.6023 52.0721 51.7117 54.7035 54.4473 56.573C57.183 58.4425 60.4222 59.4661 63.7552 59.5143C67.0882 59.5626 70.3655 58.6333 73.1724 56.8441C75.9794 55.0549 78.19 52.486 79.5247 49.4624C80.8595 46.4387 81.2584 43.0961 80.6711 39.8572C79.8727 35.5208 77.3667 31.6813 73.7012 29.1786C70.0357 26.676 65.5093 25.714 61.1124 26.5031L61.1099 26.4897Z" fill="white"/>
<path opacity="0.1" d="M67.4019 61.1874C63.7324 61.8528 59.9506 61.4293 56.5348 59.9703C53.1189 58.5113 50.2224 56.0824 48.2115 52.9909C46.2006 49.8993 45.1658 46.2839 45.2377 42.6019C45.3097 38.9199 46.4853 35.3366 48.6159 32.3053C50.7465 29.274 53.7363 26.9307 57.2072 25.5719C60.6782 24.2131 64.4744 23.8998 68.1158 24.6715C71.7571 25.4433 75.08 27.2654 77.6643 29.9076C80.2486 32.5497 81.9782 35.8932 82.6343 39.5151C83.5092 44.3706 82.3967 49.3796 79.541 53.4427C76.6852 57.5058 72.3195 60.2911 67.4019 61.1874V61.1874ZM60.8221 24.9027C57.2199 25.5559 53.8898 27.2488 51.2529 29.7672C48.6159 32.2856 46.7906 35.5165 46.0078 39.0513C45.2249 42.586 45.5197 46.2659 46.8548 49.6256C48.1899 52.9853 50.5054 55.8739 53.5084 57.9261C56.5114 59.9783 60.0672 61.1019 63.7259 61.1549C67.3847 61.2078 70.9822 60.1878 74.0635 58.2237C77.1448 56.2596 79.5714 53.4397 81.0366 50.1205C82.5018 46.8014 82.9398 43.1321 82.295 39.5766C81.4254 34.8115 78.6762 30.5905 74.6506 27.8395C70.625 25.0886 65.6519 24.0324 60.8221 24.9027V24.9027Z" fill="white"/>
<path d="M66.476 56.0848C73.865 54.7449 78.7829 47.7464 77.4604 40.4532C76.1379 33.1601 69.0758 28.3341 61.6867 29.674C54.2976 31.0139 49.3797 38.0123 50.7022 45.3055C52.0248 52.5986 59.0869 57.4247 66.476 56.0848Z" fill="url(#paint0_linear_1432_175)"/>
<path opacity="0.7" d="M66.476 56.0848C73.865 54.7449 78.7829 47.7464 77.4604 40.4532C76.1379 33.1601 69.0758 28.3341 61.6867 29.674C54.2976 31.0139 49.3797 38.0123 50.7022 45.3055C52.0248 52.5986 59.0869 57.4247 66.476 56.0848Z" fill="white"/>
<path d="M61.1484 35.2254C61.0121 35.0149 60.8703 34.8124 60.7284 34.6099C60.472 34.2587 57.7644 30.9974 57.635 31.0762C56.8727 31.4839 56.1511 31.9622 55.4799 32.5045C56.5102 33.5488 57.7401 34.5154 58.6885 35.6299C59.3484 36.4687 59.9256 37.368 60.4124 38.3157C60.6187 38.7202 60.8833 39.0927 61.1981 39.4217C61.3575 39.5856 61.5488 39.7161 61.7606 39.8055C61.9724 39.8948 62.2004 39.9411 62.4311 39.9416C62.5049 39.9416 62.5775 39.9224 62.6418 39.8861C62.7891 39.7903 62.7967 39.5814 62.7793 39.4082C62.5654 37.908 62.0076 36.4775 61.1484 35.2254V35.2254Z" fill="url(#paint1_linear_1432_175)"/>
<path d="M75.5163 50.0982C72.8562 48.3361 67.8985 45.0332 65.7911 43.5168C64.1822 42.3733 62.2245 42.0885 60.6247 40.9953C59.5295 40.2498 58.9279 38.9998 58.3329 37.8246C57.999 37.1624 57.2196 35.0281 56.2027 35.4684C56.2344 35.8362 56.6055 36.6266 56.2563 36.9423C55.9071 37.2581 55.4898 36.5799 55.3125 36.3942C55.1351 36.2084 53.5591 34.4538 53.5798 34.4328C53.2546 34.8253 52.9524 35.2357 52.6745 35.6621C54.2402 37.5915 56.7403 40.6933 57.3168 41.3219C58.1412 42.2549 57.7169 43.5284 56.7225 42.5468C56.1071 41.9356 53.4258 39.5929 51.4914 37.9101C51.1203 38.8106 50.8496 39.748 50.6844 40.7056C52.252 42.2784 54.0691 44.2418 56.2764 44.879C56.6399 45.0051 57.0284 45.0458 57.4114 44.998C57.7943 44.9501 58.1612 44.8151 58.4829 44.6034C58.8996 44.2927 59.1867 43.8083 59.6647 43.6041C60.2628 43.3469 60.9454 43.6139 61.5318 43.8914C62.7462 44.4632 63.9407 45.08 65.0919 45.767C65.6776 46.0531 66.2289 46.4033 66.7353 46.8108C66.9922 47.0685 67.1501 47.7074 66.8546 48.0099C66.8771 48.1338 66.3849 48.2023 66.3141 48.1979C66.1233 48.1657 65.9402 48.0993 65.774 48.0019C65.2761 47.7878 64.7545 47.6161 64.2467 47.4246C63.8686 47.2718 63.361 47.1391 63.0471 47.4174C63.0837 47.5992 63.1589 47.7711 63.2678 47.9219C63.3766 48.0726 63.5167 48.1987 63.6787 48.2919C64.7505 49.0944 65.899 49.7918 67.1082 50.3744C67.334 50.4953 67.5788 50.5783 67.8325 50.62C67.9596 50.6405 68.09 50.6313 68.2133 50.5934C68.3365 50.5554 68.4493 50.4897 68.5426 50.4013C68.725 50.2092 68.7736 49.9168 68.9772 49.745C69.0778 49.6721 69.1956 49.6259 69.3192 49.6107C69.4429 49.5955 69.5682 49.612 69.6833 49.6585C70.2142 49.8423 70.6753 50.2982 71.1955 50.5393C72.1009 51.0433 72.9667 51.6134 73.7858 52.2449C74.4344 51.5887 75.0143 50.8695 75.5163 50.0982V50.0982Z" fill="url(#paint2_linear_1432_175)"/>
<path d="M66.4765 56.0846C68.1462 55.7831 69.745 55.1741 71.1894 54.2893C68.6366 52.7325 64.583 50.2998 63.4134 49.8202C62.3724 49.3934 61.8967 50.4411 61.4607 51.1668C61.2486 51.5235 61.0035 51.9691 60.5851 52.1349C59.9834 52.3719 59.2602 51.8425 59.1358 51.253C59.068 50.7807 59.1777 50.2995 59.4441 49.9002C59.6946 49.4847 60.0384 49.1007 60.1171 48.6265C60.2424 47.8879 59.6972 47.219 59.1867 46.6649C59.0101 46.4173 58.7416 46.2486 58.4394 46.1952C58.0165 46.182 57.7302 46.5936 57.4907 46.9344C57.2061 47.3448 56.8747 47.7217 56.5031 48.0576C56.2832 48.2882 55.9985 48.4483 55.6859 48.5171C55.3345 48.5321 54.9867 48.4462 54.6846 48.2698C53.9282 47.9359 53.2305 47.4859 52.6173 46.9363C52.2818 46.6513 51.9488 46.3416 51.6171 46.0386C51.432 45.8682 50.7163 45.3996 50.675 45.172C50.6829 45.2155 50.6908 45.259 50.6987 45.3025C51.0129 47.0373 51.6702 48.6924 52.6332 50.1733C53.5962 51.6541 54.846 52.9317 56.3112 53.9329C57.7764 54.9342 59.4283 55.6396 61.1725 56.0088C62.9167 56.378 64.719 56.4037 66.4765 56.0846V56.0846Z" fill="url(#paint3_linear_1432_175)"/>
<path d="M67.3674 29.8334C67.4323 30.5583 67.8974 31.3455 69.174 32.5111C69.8414 33.1198 70.5302 33.7108 71.2246 34.2938C71.7661 34.749 72.6815 35.2366 72.8101 35.9845C72.9005 36.4834 72.5925 36.9681 72.2595 37.3535C71.973 37.6878 71.6541 37.9935 71.3073 38.2663C71.0215 38.4876 70.6968 38.7643 70.7408 39.1229C70.7848 39.4815 71.1525 39.6154 71.4672 39.7278C72.6588 40.155 73.8607 40.548 75.0727 40.9069C75.5987 41.064 76.2717 41.1425 76.7403 41.4276C77.0674 41.6277 77.3054 41.9545 77.6516 42.1442C77.6501 41.5739 77.5893 41.0055 77.4701 40.448C77.0075 37.8995 75.8074 35.5412 74.0147 33.6576C72.222 31.7741 69.9134 30.446 67.3674 29.8334V29.8334Z" fill="url(#paint4_linear_1432_175)"/>
<path d="M68.7163 37.7539C68.8622 37.6012 69.0175 37.4575 69.1814 37.3237C69.5401 37.0408 69.9589 36.7228 69.9858 36.2718C70.0158 35.6646 69.3393 35.2962 68.7638 35.0789L66.9724 34.3974C66.6776 34.3013 66.3988 34.1631 66.1447 33.9872C65.8944 33.776 65.6818 33.5247 65.5159 33.2436C65.0479 32.5304 64.6276 31.7875 64.2577 31.0198C64.1188 30.7372 63.7122 29.4415 63.2383 29.4755C62.1568 29.5488 61.0875 29.7508 60.0539 30.0772C60.3222 30.0112 61.2316 31.5098 61.3629 31.7315C61.9653 32.705 62.4907 33.7231 62.9348 34.7768C63.3338 35.8181 64.7885 36.1111 65.7496 36.542C65.8918 36.5915 66.0162 36.6806 66.108 36.7986C66.1829 36.9623 66.189 37.149 66.125 37.3177C65.9384 37.8509 65.7207 38.373 65.4731 38.8815C65.2277 39.3973 65.1962 39.9864 65.3853 40.5229C65.6461 40.9797 66.0335 41.3533 66.5021 41.5999C69.8477 43.7807 73.338 45.8314 76.5541 48.167C76.9762 47.2081 77.2833 46.2041 77.4692 45.1756C77.5202 44.8966 75.7345 43.9374 75.5 43.8036C74.4502 43.2504 73.3087 42.8487 72.2524 42.2794L69.3117 40.6893C68.8481 40.4969 68.4559 40.1685 68.188 39.7483C68.0932 39.5318 68.0495 39.2966 68.06 39.0605C68.0706 38.8243 68.1353 38.5934 68.2492 38.3851C68.3724 38.1531 68.5298 37.9403 68.7163 37.7539V37.7539Z" fill="url(#paint5_linear_1432_175)"/>
<g opacity="0.2">
<path d="M67.0176 50.5327C67.1539 50.7432 67.2917 50.943 67.4375 51.1482C67.6939 51.4994 70.4016 54.7607 70.531 54.6819C71.2949 54.2769 72.0168 53.7984 72.6861 53.2536C71.6558 52.2093 70.4259 51.2427 69.4781 50.1315C68.8167 49.2925 68.2392 48.3919 67.7536 47.4424C67.5468 47.0376 67.281 46.6652 66.9645 46.337C66.8053 46.174 66.6146 46.0443 66.4035 45.9555C66.1924 45.8667 65.9653 45.8205 65.7355 45.8198C65.6621 45.8125 65.588 45.8259 65.5218 45.8586C65.3739 45.9511 65.3662 46.16 65.3836 46.3332C65.5927 47.8402 66.1519 49.2775 67.0176 50.5327Z" fill="white"/>
<path d="M52.6586 35.6685C55.3193 37.434 60.2729 40.7341 62.3838 42.2499C63.9933 43.3968 65.9504 43.6782 67.5502 44.7714C68.642 45.5176 69.247 46.767 69.8386 47.9427C70.1724 48.605 70.9553 50.7386 71.9721 50.2983C71.9405 49.9305 71.5694 49.1402 71.9186 48.8244C72.2678 48.5086 72.6845 49.1835 72.859 49.3732C73.0336 49.5629 74.6118 51.3102 74.5951 51.3339C74.9158 50.9391 75.2155 50.5281 75.493 50.1025C73.9267 48.1697 71.4069 45.075 70.8507 44.4427C70.0257 43.5064 70.45 42.2328 71.441 43.2151C72.0598 43.8257 74.7383 46.1724 76.6755 47.8511C77.0459 46.9504 77.3165 46.0131 77.4825 45.0557C75.9149 43.4828 74.0944 41.5201 71.8904 40.8823C71.527 40.7562 71.1384 40.7155 70.7555 40.7633C70.3726 40.8111 70.0057 40.9462 69.684 41.1579C69.2673 41.4686 68.9802 41.9529 68.5022 42.1572C67.9041 42.4144 67.2209 42.144 66.6345 41.8665C65.4201 41.2947 64.2256 40.6779 63.075 39.9943C62.5562 39.6837 61.8589 39.3744 61.431 38.9471C61.174 38.6894 61.0162 38.0505 61.3117 37.748C61.2892 37.6241 61.7779 37.5562 61.8522 37.56C62.042 37.5959 62.2244 37.6621 62.3923 37.756C62.8901 37.9701 63.4124 38.1451 63.9201 38.3367C64.2982 38.4894 64.8018 38.6194 65.1192 38.3406C65.083 38.1587 65.0076 37.9869 64.8982 37.8367C64.7887 37.6864 64.6477 37.5614 64.4848 37.47C63.4163 36.6643 62.2686 35.9665 61.0587 35.3868C60.8324 35.2657 60.5876 35.1816 60.3338 35.1379C60.2061 35.1191 60.0756 35.129 59.952 35.167C59.8285 35.205 59.7151 35.27 59.6203 35.3572C59.4413 35.5487 59.3899 35.8451 59.1891 36.0129C59.0893 36.0872 58.9717 36.1345 58.848 36.1503C58.7243 36.1661 58.5987 36.1497 58.4836 36.1028C57.9521 35.9156 57.4876 35.4603 56.9714 35.2219C56.0635 34.7221 55.1949 34.1559 54.3728 33.5283C53.7301 34.1832 53.1558 34.9002 52.6586 35.6685V35.6685Z" fill="white"/>
<path d="M61.6867 29.6738C60.0176 29.9764 58.4189 30.5841 56.9731 31.4658C59.5299 33.0253 63.5829 35.4547 64.7525 35.9342C65.7935 36.3611 66.2692 35.3134 66.7046 34.5843C66.9173 34.231 67.1618 33.782 67.5808 33.6196C68.1819 33.3792 68.9057 33.9119 69.0301 34.5015C69.0967 34.9733 68.9856 35.4537 68.7178 35.8515C68.4707 36.2664 68.1269 36.6503 68.0442 37.1218C67.9195 37.8638 68.4681 38.532 68.9779 39.0828C69.1547 39.3313 69.4232 39.5011 69.7259 39.5559C70.1454 39.5697 70.4351 39.1575 70.674 38.8133C70.9578 38.4043 71.2882 38.0287 71.6588 37.6941C71.8789 37.4616 72.1647 37.3001 72.4788 37.2307C72.8301 37.2164 73.1777 37.3023 73.4801 37.4779C74.2365 37.8118 74.9342 38.2619 75.5474 38.8115C75.8795 39.0971 76.2165 39.4095 76.5482 39.7124C76.7327 39.8796 77.4484 40.3481 77.4903 40.5791C77.4824 40.5356 77.4745 40.4921 77.4666 40.4485C77.1516 38.7142 76.4936 37.0597 75.5301 35.5795C74.5665 34.0993 73.3164 32.8225 71.851 31.822C70.3857 30.8214 68.7338 30.1167 66.9898 29.7481C65.2458 29.3795 63.4438 29.3543 61.6867 29.6738V29.6738Z" fill="white"/>
<path d="M60.8056 55.9233C60.7407 55.1985 60.275 54.408 58.9991 53.2456C58.331 52.6336 57.6428 52.046 56.9484 51.463C56.4069 51.0078 55.4876 50.5174 55.3623 49.7689C55.2719 49.2701 55.5805 48.7887 55.913 48.3999C56.1996 48.0667 56.5188 47.7621 56.8658 47.4905C57.1475 47.2665 57.4756 46.9891 57.4119 46.6375C57.3481 46.286 57.0002 46.145 56.6889 46.032C55.4972 45.6049 54.294 45.2109 53.0794 44.8502C52.5534 44.6931 51.8844 44.6173 51.4151 44.3289C51.0847 44.1294 50.8473 43.8059 50.5038 43.6123C50.5057 44.1826 50.5665 44.751 50.6853 45.3085C51.15 47.8589 52.353 50.2185 54.1489 52.1021C55.9448 53.9858 58.2568 55.313 60.8056 55.9233V55.9233Z" fill="white"/>
<path d="M59.4501 48.004C59.3056 48.1581 59.1501 48.3018 58.985 48.4341C58.6303 48.7198 58.2075 49.0351 58.1847 49.4888C58.1512 50.0966 58.8311 50.4644 59.4066 50.6817L61.198 51.3632C61.4924 51.4582 61.7711 51.5952 62.0251 51.77C62.2754 51.9813 62.488 52.2326 62.6539 52.5137C63.1226 53.2278 63.5431 53.9717 63.9127 54.7408C64.0482 55.024 64.4582 56.3192 64.9287 56.2857C65.4494 56.2521 65.968 56.1892 66.4818 56.0975C67.0363 55.9963 67.584 55.8612 68.1218 55.6929C67.8534 55.7588 66.9406 54.2609 66.8121 54.0352C66.2097 53.0614 65.6831 52.0436 65.2368 50.9905C64.8418 49.952 63.3871 49.659 62.4254 49.2247C62.2821 49.1775 62.157 49.0879 62.0671 48.9681C62.0288 48.8873 62.0076 48.7997 62.0047 48.7105C62.0018 48.6213 62.0172 48.5323 62.05 48.449C62.2379 47.918 62.4546 47.3973 62.6992 46.8891C62.9458 46.3737 62.9785 45.7842 62.7903 45.2472C62.5295 44.7903 62.1421 44.4168 61.6735 44.1701C58.3214 41.9733 54.8318 39.9259 51.6055 37.5921C51.1842 38.5513 50.8771 39.5552 50.6904 40.5835C50.6428 40.8619 52.4279 41.8177 52.663 41.9549C53.7134 42.5115 54.8549 42.9131 55.9078 43.483L58.8519 45.0726C59.3138 45.2658 59.7053 45.5926 59.975 46.0102C60.0692 46.2274 60.1127 46.463 60.1022 46.6996C60.0917 46.9361 60.0276 47.1676 59.9145 47.3768C59.7915 47.6071 59.6351 47.8184 59.4501 48.004V48.004Z" fill="white"/>
</g>
<path opacity="0.1" d="M77.6707 42.4624C77.5823 47.5207 69.4589 53.6175 61.7649 51.9002C53.5806 50.0678 50.3088 40.1789 53.1965 34.907C51.8993 36.6285 51.0364 38.6295 50.6797 40.7432C50.323 42.8569 50.4829 45.0219 51.1459 47.0575C51.809 49.0931 52.9561 50.9403 54.4914 52.445C56.0267 53.9496 57.9057 55.068 59.9716 55.7068C62.0376 56.3457 64.2305 56.4864 66.3674 56.1173C68.5043 55.7483 70.5232 54.88 72.2556 53.5852C73.988 52.2903 75.3836 50.6063 76.326 48.6737C77.2685 46.7411 77.7303 44.616 77.6731 42.4758L77.6707 42.4624Z" fill="black"/>
<path opacity="0.6" d="M71.0579 36.1396C71.0067 33.0155 68.4012 30.5356 65.2384 30.6005C62.0756 30.6654 59.5531 33.2506 59.6043 36.3747C59.6555 39.4988 62.261 41.9787 65.4238 41.9138C68.5866 41.8489 71.1091 39.2637 71.0579 36.1396Z" fill="white"/>
<path opacity="0.6" d="M73.9548 43.496C75.3806 43.2375 76.3295 41.8871 76.0743 40.4799C75.8191 39.0727 74.4565 38.1415 73.0307 38.4C71.605 38.6585 70.6561 40.0089 70.9113 41.4161C71.1664 42.8234 72.5291 43.7545 73.9548 43.496Z" fill="white"/>
<path opacity="0.1" d="M50.703 45.3053C51.2249 48.1781 52.6816 50.8002 54.8522 52.774C57.0229 54.7479 59.789 55.9658 62.7314 56.2433C65.6737 56.5207 68.6318 55.8425 71.1572 54.3114C73.6826 52.7804 75.6376 50.48 76.7258 47.759C76.5082 48.2792 73.788 54.8418 64.1289 54.8469C54.0704 54.8518 50.7036 45.3087 50.4934 43.2026C50.5072 43.9081 50.5773 44.6112 50.703 45.3053V45.3053Z" fill="black"/>
<path d="M167.689 60.4485C169.813 52.8692 165.323 45.0522 157.66 42.9888C149.997 40.9253 142.063 45.3968 139.939 52.9761C137.815 60.5554 142.305 68.3724 149.968 70.4358C157.631 72.4993 165.565 68.0278 167.689 60.4485Z" fill="url(#paint6_linear_1432_175)"/>
<path opacity="0.116667" d="M165.114 59.0123C166.723 52.2325 162.469 45.4736 155.613 43.9158C148.757 42.3581 141.895 46.5915 140.287 53.3713C138.678 60.1511 142.932 66.91 149.788 68.4677C156.644 70.0254 163.506 65.7921 165.114 59.0123Z" fill="white"/>
<path opacity="0.233333" d="M162.347 58.4891C163.928 52.627 160.404 46.6309 154.477 45.0963C148.55 43.5617 142.464 47.0699 140.883 52.932C139.302 58.7941 142.826 64.7903 148.753 66.3248C154.68 67.8594 160.766 64.3513 162.347 58.4891Z" fill="white"/>
<path opacity="0.35" d="M159.753 57.1267C160.856 52.0773 157.611 47.119 152.504 46.0522C147.397 44.9854 142.363 48.214 141.26 53.2635C140.156 58.3129 143.402 63.2712 148.508 64.338C153.615 65.4048 158.649 62.1762 159.753 57.1267Z" fill="white"/>
<path opacity="0.466667" d="M157.052 56.2676C157.949 52.0945 155.255 48.0086 151.035 47.1413C146.814 46.2741 142.666 48.9541 141.768 53.1271C140.871 57.3002 143.565 61.3862 147.785 62.2534C152.006 63.1206 156.155 60.4407 157.052 56.2676Z" fill="white"/>
<path opacity="0.583333" d="M151.702 59.2704C154.549 57.4089 155.339 53.627 153.468 50.8233C151.597 48.0195 147.772 47.2556 144.925 49.117C142.078 50.9785 141.287 54.7604 143.159 57.5641C145.03 60.3679 148.855 61.1318 151.702 59.2704Z" fill="white"/>
<path opacity="0.7" d="M150.926 56.23C152.353 54.1993 151.849 51.4179 149.8 50.0175C147.75 48.6172 144.932 49.1282 143.505 51.1589C142.078 53.1896 142.583 55.971 144.632 57.3714C146.681 58.7717 149.499 58.2607 150.926 56.23Z" fill="white"/>
<path opacity="0.05" d="M167.908 59.5205C167.525 61.3514 166.781 63.0915 165.719 64.6415C164.657 66.1915 163.297 67.521 161.717 68.5542C160.137 69.5873 158.368 70.3039 156.51 70.6629C154.653 71.0219 152.744 71.0163 150.893 70.6466C150.646 70.598 150.404 70.5415 150.162 70.4816C153.403 69.9136 156.355 68.2675 158.527 65.8172C160.698 63.3668 161.958 60.2598 162.098 57.0128C162.238 53.7659 161.248 50.5747 159.294 47.9699C157.34 45.3651 154.539 43.5037 151.357 42.6953C153.668 42.2939 156.042 42.4555 158.271 43.1659C160.5 43.8764 162.517 45.1143 164.147 46.7722C165.778 48.4301 166.972 50.4579 167.627 52.6796C168.282 54.9013 168.377 57.2497 167.904 59.5211L167.908 59.5205Z" fill="#455A64"/>
<path opacity="0.1" d="M160.57 45.2956C162.998 46.7334 164.897 48.8987 165.993 51.4786C167.088 54.0584 167.323 56.9192 166.663 59.6476C166.004 62.376 164.485 64.8306 162.325 66.6568C160.165 68.483 157.476 69.5861 154.647 69.8068C157.206 68.9365 159.464 67.3633 161.154 65.2724C162.845 63.1815 163.898 60.6599 164.189 58.0043C164.48 55.3487 163.998 52.6695 162.799 50.2822C161.6 47.8948 159.735 45.8986 157.421 44.5283C156.761 44.1377 156.069 43.8005 155.353 43.5199C157.201 43.7442 158.978 44.3492 160.57 45.2956V45.2956Z" fill="#455A64"/>
<path opacity="0.5" d="M153.181 64.0068C153.785 61.6106 152.31 59.1934 149.887 58.608C147.464 58.0225 145.011 59.4905 144.407 61.8867C143.803 64.283 145.278 66.7001 147.701 67.2855C150.124 67.871 152.577 66.4031 153.181 64.0068Z" fill="white"/>
<path opacity="0.5" d="M152.69 52.0888C153.86 49.9043 153.02 47.2046 150.814 46.0588C148.608 44.9129 145.872 45.7548 144.701 47.9392C143.531 50.1237 144.371 52.8234 146.577 53.9693C148.783 55.1151 151.52 54.2732 152.69 52.0888Z" fill="white"/>
<path opacity="0.5" d="M142.246 58.5195C141.814 58.4333 141.419 58.2225 141.109 57.9136C140.8 57.6047 140.59 57.2116 140.507 56.7841C140.424 56.3566 140.472 55.9138 140.644 55.5118C140.815 55.1097 141.104 54.7665 141.472 54.5255C141.841 54.2845 142.273 54.1566 142.714 54.1579C143.155 54.1591 143.585 54.2896 143.95 54.5327C144.315 54.7759 144.598 55.1207 144.764 55.5237C144.929 55.9267 144.97 56.3698 144.881 56.7968C144.761 57.3692 144.416 57.8723 143.922 58.1953C143.428 58.5184 142.825 58.635 142.246 58.5195V58.5195Z" fill="white"/>
<g opacity="0.1">
<path d="M179.674 38.1724C179.058 37.4403 177.616 36.2907 174.868 36.789C172.012 37.307 167.596 39.581 161.729 43.5533L161.02 44.0277L160.745 44.2091C160.857 44.2683 160.969 44.3275 161.08 44.3973L161.212 44.3112L161.924 43.8361C167.744 39.8931 172.117 37.6371 174.923 37.1284C177.494 36.6621 178.832 37.7233 179.399 38.3918C181.898 41.3554 179.042 46.4348 169.865 55.3753C169.327 55.9016 168.775 56.4295 168.207 56.9589C165.747 59.2726 163.063 61.6302 160.206 63.9812C157.277 66.3971 154.28 68.7078 151.432 70.7424C150.797 71.2033 150.169 71.639 149.552 72.0621C143.345 76.3417 138.706 78.7805 135.758 79.3151C133.184 79.782 131.849 78.7202 131.283 78.0517C128.872 75.193 131.269 70.636 139.553 62.328L140.16 61.7197L140.27 61.6066C140.224 61.4903 140.185 61.3729 140.146 61.2521L139.915 61.4842L139.324 62.0894C130.88 70.5371 128.481 75.2397 131.044 78.2643C131.657 78.997 133.103 80.146 135.85 79.6477C138.846 79.1045 143.533 76.6464 149.78 72.3388C150.493 71.8637 151.214 71.3387 151.956 70.81C154.721 68.8215 157.625 66.5795 160.466 64.2383C163.231 61.9594 165.831 59.6826 168.228 57.4394C168.885 56.8245 169.524 56.2152 170.146 55.6114C179.453 46.5193 182.312 41.301 179.674 38.1724Z" fill="white"/>
</g>
<g opacity="0.1">
<path d="M169.137 54.6496C168.819 54.9598 168.496 55.2673 168.171 55.5788C165.545 58.0816 162.652 60.643 159.546 63.2191C156.372 65.8316 153.113 68.3245 150.069 70.4709C149.696 70.7356 149.326 70.9929 148.962 71.2457C144.779 74.1277 139.063 77.6956 135.576 78.328C133.622 78.6823 132.595 78.0247 132.077 77.4097C130.144 75.1146 132.677 70.6886 140.288 63.0593L140.692 62.6402C140.74 62.7491 140.794 62.8568 140.847 62.9578L140.531 63.2781C133.072 70.7588 130.545 75.0454 132.34 77.1753C132.789 77.7199 133.722 78.3079 135.513 77.9831C138.939 77.3619 144.611 73.8192 148.766 70.9562L149.643 70.3441C152.751 68.162 156.078 65.622 159.325 62.9479C162.501 60.3281 165.46 57.7097 168.132 55.1535C168.392 54.9092 168.646 54.6627 168.899 54.4162C179.841 43.7862 179.533 40.6777 178.35 39.2737C177.901 38.7292 176.967 38.1411 175.176 38.4659C171.919 39.0564 166.6 42.3208 162.712 44.9555L162.341 45.2095C162.241 45.1379 162.144 45.0656 162.04 44.9979L162.518 44.6761C166.434 42.0224 171.801 38.7321 175.115 38.1311C177.069 37.7768 178.096 38.4344 178.614 39.0494C179.881 40.5522 180.272 43.8083 169.137 54.6496Z" fill="white"/>
</g>
<g opacity="0.2">
<path d="M168.414 53.9231L168.014 54.3102C165.259 56.9679 162.189 59.6928 158.882 62.4161C155.501 65.2009 152.038 67.8416 148.827 70.0769L148.373 70.3911C142.579 74.3812 137.979 76.8373 135.391 77.3067C134.217 77.5195 133.366 77.328 132.868 76.7267C131.391 74.9749 134.058 70.7286 141.025 63.745L141.186 63.5846C141.243 63.6883 141.3 63.7887 141.365 63.8979L141.27 63.9912C132.898 72.388 132.224 75.4359 133.135 76.5191C133.546 77.0083 134.285 77.1613 135.32 76.9737C137.851 76.5148 142.412 74.0795 148.165 70.1141L148.43 69.9312C151.685 67.6739 155.218 64.9929 158.652 62.1567C162.004 59.3841 165.138 56.6094 167.93 53.9036L168.162 53.6781C175.594 46.4514 178.929 41.5583 177.542 39.9181C177.131 39.429 176.392 39.2759 175.357 39.4636C172.955 39.8991 168.671 42.1458 163.293 45.8011L163.187 45.8723L162.915 45.6484L163.102 45.5211C168.519 41.8483 172.852 39.5823 175.298 39.1388C176.472 38.926 177.323 39.1174 177.821 39.7188C179.376 41.5499 176.214 46.3354 168.414 53.9231Z" fill="white"/>
</g>
<g opacity="0.3">
<path d="M169.936 45.5511L169.902 45.7475C169.832 46.1371 169.38 47.3534 166.697 50.3127L166.553 50.4701C163.453 53.7708 160.13 56.861 156.609 59.7192C152.518 63.0894 148.489 66.0091 145.258 67.9403L145.068 68.0542C143.115 69.2072 141.555 69.9329 140.656 70.0959C140.542 70.1176 140.427 70.1292 140.312 70.1306L140.111 70.1255L140.145 69.929C140.207 69.5721 140.589 68.5102 142.826 65.95C142.899 66.0406 142.974 66.1273 143.053 66.2133C141.253 68.2688 140.711 69.3181 140.546 69.7803L140.593 69.7717C141.442 69.6179 142.919 68.935 144.777 67.8407L145.095 67.6586C148.309 65.7339 152.326 62.8233 156.401 59.4663C159.907 56.6137 163.213 53.5299 166.297 50.2364L166.528 49.9836C168.698 47.5739 169.321 46.3923 169.499 45.9035L169.441 45.914C168.583 46.0696 167.065 46.7773 165.153 47.9089C165.084 47.8176 165.012 47.727 164.937 47.6404C166.898 46.4755 168.475 45.7434 169.381 45.5792C169.494 45.5573 169.609 45.5456 169.725 45.5444L169.936 45.5511Z" fill="white"/>
</g>
<path d="M177.173 41.2444C178.339 42.6307 174.462 47.8573 167.827 54.3138C165.087 56.9824 161.873 59.858 158.35 62.7622C154.691 65.7705 151.138 68.4585 147.899 70.6887C140.442 75.8276 134.7 78.5532 133.548 77.1884C132.458 75.8921 135.783 71.2326 141.649 65.3445C141.917 65.7593 142.204 66.1604 142.512 66.5471C140.332 69.0174 139.252 70.8317 139.753 71.4291C140.254 72.0265 142.452 71.2199 145.54 69.3733C149.536 66.8882 153.349 64.1258 156.949 61.1071C160.487 58.2346 163.824 55.129 166.938 51.8119C169.522 48.9813 170.857 46.8925 170.312 46.2444C169.767 45.5962 167.656 46.4355 164.611 48.25C164.286 47.8871 163.943 47.5412 163.586 47.2151C170.66 42.4221 176.045 39.9308 177.173 41.2444Z" fill="url(#paint7_linear_1432_175)"/>
<path d="M65.8153 93.4106C65.6893 92.8836 65.4393 92.3939 65.0857 91.981C64.732 91.5681 64.2846 91.2437 63.7796 91.0339C63.6203 90.9648 63.4474 90.9313 63.2732 90.936C63.099 90.9407 62.9278 90.9834 62.7719 91.061V91.061L56.5104 94.8663L60.8164 99.8505L65.6277 94.3853C65.7296 94.2462 65.7993 94.0867 65.8317 93.9182C65.8641 93.7497 65.8585 93.5764 65.8153 93.4106V93.4106Z" fill="#F5F5F5"/>
<path d="M61.6567 91.7128C61.8231 91.6424 62.002 91.6061 62.1827 91.606C62.3634 91.606 62.542 91.6422 62.7078 91.7124C63.2657 91.9441 63.7599 92.3024 64.1506 92.7585C64.5413 93.2145 64.8175 93.7555 64.9568 94.3376C64.9971 94.5076 65.003 94.6839 64.9742 94.8565C64.9454 95.0291 64.8823 95.1945 64.7888 95.3433L65.256 94.809L65.6286 94.3714C65.7283 94.2339 65.7966 94.0767 65.8289 93.9108C65.8611 93.7449 65.8565 93.5743 65.8153 93.4107C65.6892 92.8837 65.4393 92.394 65.0856 91.9811C64.732 91.5682 64.2846 91.2437 63.7796 91.0339C63.6203 90.9648 63.4474 90.9314 63.2732 90.9361C63.099 90.9408 62.9278 90.9834 62.7719 91.061L62.2402 91.3753L61.6567 91.7128Z" fill="url(#paint8_linear_1432_175)"/>
<path opacity="0.1" d="M65.5273 92.6156L59.1697 97.9392L60.8162 99.8505L65.6275 94.3854C65.7294 94.2462 65.7991 94.0867 65.8315 93.9182C65.864 93.7498 65.8584 93.5764 65.8152 93.4107C65.7618 93.1323 65.6647 92.864 65.5273 92.6156V92.6156Z" fill="#455A64"/>
<path d="M58.0472 94.8193C58.8045 95.1331 59.4756 95.6191 60.006 96.238C60.5364 96.8568 60.9113 97.5909 61.1002 98.381C61.3661 99.8476 60.4287 100.63 59.0125 100.143C58.2552 99.8291 57.5841 99.343 57.0537 98.7242C56.5233 98.1054 56.1484 97.3712 55.9595 96.5811C55.6887 95.0878 56.6261 94.3057 58.0472 94.8193Z" fill="#E0E0E0"/>
<path d="M62.5747 87.5174C62.4484 86.9909 62.1984 86.5018 61.8449 86.0895C61.4914 85.6772 61.0442 85.3533 60.5395 85.144C60.3805 85.0741 60.2074 85.0403 60.0331 85.045C59.8588 85.0497 59.6875 85.0928 59.5319 85.1711L53.2703 88.9763L57.5868 93.9794L62.3882 88.4988C62.4905 88.3585 62.5602 88.1978 62.5925 88.0282C62.6247 87.8585 62.6186 87.6841 62.5747 87.5174V87.5174Z" fill="#F5F5F5"/>
<path d="M58.4188 85.8363C58.5827 85.7674 58.7589 85.7321 58.9367 85.7326C59.1145 85.733 59.2901 85.7692 59.453 85.839C60.0113 86.0692 60.5063 86.4266 60.8975 86.882C61.2888 87.3375 61.5653 87.8782 61.7047 88.4602C61.7454 88.6301 61.7515 88.8066 61.7227 88.9792C61.6939 89.1519 61.6306 89.3173 61.5367 89.4659L62.0045 88.9349L62.3772 88.4973C62.4764 88.3567 62.5433 88.1966 62.5733 88.028C62.6032 87.8595 62.5955 87.6867 62.5506 87.5217C62.4244 86.9953 62.1744 86.5062 61.8209 86.0939C61.4673 85.6816 61.0202 85.3576 60.5155 85.1483C60.3564 85.0785 60.1834 85.0447 60.0091 85.0494C59.8348 85.0541 59.6635 85.0971 59.5078 85.1754L58.9756 85.4864L58.4188 85.8363Z" fill="url(#paint9_linear_1432_175)"/>
<path opacity="0.1" d="M62.2857 86.7363L55.9321 92.0627L57.578 93.9706L62.388 88.4988C62.4872 88.3582 62.5542 88.1981 62.5841 88.0295C62.6141 87.861 62.6064 87.6882 62.5615 87.5232C62.5105 87.2484 62.4175 86.9831 62.2857 86.7363V86.7363Z" fill="#455A64"/>
<path d="M57.4439 94.0974C58.2601 93.4136 57.9558 91.7325 56.7642 90.3425C55.5727 88.9524 53.9451 88.3798 53.1289 89.0636C52.3128 89.7473 52.6171 91.4285 53.8086 92.8185C55.0002 94.2086 56.6278 94.7811 57.4439 94.0974Z" fill="#E0E0E0"/>
<path d="M25.0575 115.081L31.0855 105.041L30.4327 90.6207L33.8392 87.7655L50.6113 93.6742L25.0575 115.081Z" fill="url(#paint10_linear_1432_175)"/>
<path opacity="0.6" d="M25.0575 115.081L31.0855 105.041L30.4327 90.6207L33.8392 87.7655L50.6113 93.6742L25.0575 115.081Z" fill="white"/>
<path d="M33.8389 87.7656L30.4324 90.6209L47.2038 96.5263L50.611 93.6744L33.8389 87.7656Z" fill="url(#paint11_linear_1432_175)"/>
<path opacity="0.3" d="M33.8389 87.7656L30.4324 90.6209L47.2038 96.5263L50.611 93.6744L33.8389 87.7656Z" fill="#455A64"/>
<path d="M55.3269 87.1994C53.8599 86.6839 52.5884 86.6862 51.6212 87.1106C51.3762 87.2143 51.1475 87.3525 50.9423 87.5207L50.8076 87.6282L30.3404 104.779C26.9801 107.595 24.3291 111.145 22.599 115.146L17.2557 127.493L19.0937 129.263L30.0488 125.429C33.4611 124.238 36.6265 122.441 39.3882 120.125L62.3992 100.85C63.1986 100.138 63.6148 98.9938 63.5286 97.5327C63.5088 97.2355 63.4727 96.9395 63.4204 96.6463C62.7108 92.7529 59.0888 88.5265 55.3269 87.1994Z" fill="url(#paint12_linear_1432_175)"/>
<path opacity="0.9" d="M55.3269 87.1994C53.8599 86.6839 52.5884 86.6862 51.6212 87.1106C51.3762 87.2143 51.1475 87.3525 50.9423 87.5207L50.8076 87.6282L30.3404 104.779C26.9801 107.595 24.3291 111.145 22.599 115.146L17.2557 127.493L19.0937 129.263L30.0488 125.429C33.4611 124.238 36.6265 122.441 39.3882 120.125L62.3992 100.85C63.1986 100.138 63.6148 98.9938 63.5286 97.5327C63.5088 97.2355 63.4727 96.9395 63.4204 96.6463C62.7108 92.7529 59.0888 88.5265 55.3269 87.1994Z" fill="white"/>
<path d="M59.7634 103.047C60.5628 102.335 60.979 101.19 60.8927 99.7294C60.8729 99.4321 60.8368 99.1362 60.7845 98.8429C60.0796 94.9556 56.4576 90.7293 52.6962 89.4055C51.2286 88.8866 49.9606 88.8883 48.9934 89.3127C48.7481 89.4159 48.5193 89.5541 48.3145 89.7229L50.9418 87.5173C51.147 87.349 51.3757 87.2108 51.6207 87.1071C52.5947 86.6815 53.8594 86.6804 55.3264 87.196C59.0714 88.5261 62.7104 92.7494 63.4153 96.6367C63.4676 96.93 63.5037 97.2259 63.5235 97.5232C63.6109 98.9909 63.1947 100.135 62.3941 100.84L59.7634 103.047Z" fill="url(#paint13_linear_1432_175)"/>
<path d="M19.185 125.11C18.9105 124.999 18.6074 124.975 18.3179 125.042L17.7154 126.435L17.2563 127.497C17.1592 127.722 17.1254 127.97 17.1586 128.212C17.1918 128.455 17.2907 128.684 17.4448 128.875C17.5989 129.066 17.8026 129.213 18.0344 129.299C18.2662 129.385 18.5174 129.407 18.7617 129.364C18.876 129.342 18.9871 129.305 19.0925 129.256V129.256L20.0285 128.93L21.2901 128.487C21.3752 128.295 21.4106 128.086 21.3932 127.877C21.3799 127.804 21.3653 127.723 21.3501 127.639C21.2164 127.079 20.9508 126.557 20.5746 126.118C20.1985 125.678 19.7224 125.333 19.185 125.11V125.11Z" fill="url(#paint14_linear_1432_175)"/>
<path opacity="0.6" d="M32.0668 110.455C35.0487 107.905 49.5002 95.8194 58.0535 88.6728C57.2244 88.0534 56.3082 87.5567 55.3334 87.1982C53.8664 86.6827 52.595 86.685 51.6278 87.1094C51.3828 87.2131 51.1541 87.3512 50.9488 87.5195L50.8141 87.6269L30.347 104.777C26.9866 107.594 24.3356 111.144 22.6056 115.145L17.4428 127.058L17.2561 127.497C17.148 127.743 17.1156 128.014 17.163 128.278C17.2206 128.603 17.3984 128.895 17.6619 129.097C16.7217 127.777 22.0467 122.806 24.8206 119.091C27.5946 115.375 30.3895 111.89 32.0668 110.455Z" fill="white"/>
<path d="M30.0856 118.52C28.7768 116.751 27.0372 115.39 25.3125 114.786C24.5449 114.492 23.7139 114.396 22.8964 114.505C22.7988 114.719 22.6931 114.929 22.5994 115.146L20.3769 120.28L20.7406 120.18C20.7863 120.168 20.8328 120.16 20.8797 120.155C21.3256 120.093 21.7795 120.147 22.1973 120.31C23.2688 120.739 24.2057 121.44 24.9133 122.342L25.2008 122.691L30.365 118.901L30.0856 118.52Z" fill="url(#paint15_linear_1432_175)"/>
<path d="M25.1505 115.227C24.3625 114.91 23.4935 114.841 22.6623 115.031L20.6131 119.729C21.1943 119.593 21.8029 119.64 22.3542 119.863C23.5099 120.318 24.5205 121.069 25.2822 122.04L29.7011 118.797C28.5035 117.178 26.8456 115.822 25.1505 115.227Z" fill="#455A64"/>
<path opacity="0.1" d="M25.1505 115.227C24.3625 114.91 23.4935 114.841 22.6623 115.031L20.6131 119.729C20.8123 119.677 21.0178 119.652 21.2236 119.656C21.5304 119.165 21.7945 118.418 22.4778 118.419C23.27 118.421 23.9987 119.077 24.6933 119.352C24.8754 119.433 25.0726 119.475 25.2725 119.477C25.4723 119.479 25.6706 119.44 25.855 119.363C26.1596 119.163 26.4202 118.904 26.6209 118.601C26.722 118.452 26.8574 118.327 27.016 118.238C27.1746 118.149 27.352 118.099 27.5338 118.09C27.9319 118.122 28.1468 118.456 28.3537 118.747C28.5307 118.969 28.6904 119.203 28.8313 119.449L29.7153 118.798C28.5035 117.178 26.8456 115.822 25.1505 115.227Z" fill="white"/>
<path opacity="0.05" d="M23.0666 117.417L23.0934 117.429C23.4393 117.576 23.7934 117.704 24.1542 117.811C24.4545 117.902 24.8421 117.952 25.0357 117.706C25.2294 117.46 25.1069 117.074 25.3207 116.863C25.4128 116.785 25.5252 116.735 25.6448 116.717C26.1999 116.624 26.7689 116.66 27.306 116.824C27.8431 116.987 28.3334 117.272 28.7374 117.658C27.746 116.582 26.5157 115.748 25.1422 115.221C24.3542 114.904 23.4852 114.836 22.6541 115.026L21.4579 117.781C21.9732 117.241 22.3902 117.145 23.0666 117.417Z" fill="white"/>
<path opacity="0.15" d="M63.524 97.5266C63.5042 97.2293 63.4681 96.9334 63.4158 96.6401C63.3493 96.2973 63.2644 95.9583 63.1616 95.6245C56.0499 101.562 38.6993 116.055 35.5376 118.773C31.5392 122.209 21.2055 127.942 18.3972 128.59C17.7254 128.75 17.3951 128.281 17.2669 127.477L17.27 127.494C17.1733 127.719 17.1394 127.965 17.1718 128.206C17.2042 128.448 17.3017 128.676 17.4541 128.867C17.6066 129.059 17.8083 129.205 18.0384 129.293C18.2684 129.38 18.5183 129.405 18.7618 129.364C18.8761 129.342 18.9872 129.305 19.0926 129.256V129.256L30.0476 125.423C33.46 124.231 36.6254 122.434 39.387 120.118L62.3981 100.843C63.1953 100.138 63.6121 98.9977 63.524 97.5266Z" fill="url(#paint16_linear_1432_175)"/>
<path opacity="0.6" d="M19.0925 129.256L20.0286 128.93L21.2902 128.487C21.3753 128.295 21.4107 128.086 21.3933 127.877C21.38 127.803 21.3654 127.723 21.3502 127.639C21.335 127.556 21.3259 127.505 21.3138 127.439C20.3793 127.907 19.404 128.291 18.3999 128.586C17.7282 128.746 17.3978 128.277 17.2697 127.473L17.2727 127.49C17.1753 127.715 17.1406 127.961 17.1725 128.203C17.2043 128.445 17.3014 128.674 17.4536 128.865C17.6058 129.057 17.8076 129.204 18.0377 129.292C18.2679 129.38 18.5179 129.405 18.7618 129.364C18.8657 129.344 18.9669 129.312 19.0632 129.268L19.0925 129.256Z" fill="#455A64"/>
<path d="M77.8659 103.271L61.0939 97.3618L35.5374 118.772L50.1492 112.768L74.6555 107.207L78.062 104.352L77.8659 103.271Z" fill="url(#paint17_linear_1432_175)"/>
<path opacity="0.6" d="M77.8659 103.271L61.0939 97.3618L35.5374 118.772L50.1492 112.768L74.6555 107.207L78.062 104.352L77.8659 103.271Z" fill="white"/>
<path d="M50.1493 112.768L49.9532 111.687L35.5375 118.773L50.1493 112.768Z" fill="url(#paint18_linear_1432_175)"/>
<path d="M49.9533 111.687L74.4591 106.123L74.6558 107.207L50.1494 112.768L49.9533 111.687Z" fill="url(#paint19_linear_1432_175)"/>
<path opacity="0.3" d="M49.9533 111.687L74.4591 106.123L74.6558 107.207L50.1494 112.768L49.9533 111.687Z" fill="white"/>
<path d="M57.6875 100.217L74.459 106.123L77.8661 103.271L61.094 97.3619L57.6875 100.217Z" fill="url(#paint20_linear_1432_175)"/>
<path opacity="0.3" d="M57.6875 100.217L74.459 106.123L77.8661 103.271L61.094 97.3619L57.6875 100.217Z" fill="#455A64"/>
<path d="M77.866 103.271L74.4589 106.123L74.6556 107.208L78.0621 104.352L77.866 103.271Z" fill="url(#paint21_linear_1432_175)"/>
<path opacity="0.5" d="M77.866 103.271L74.4589 106.123L74.6556 107.208L78.0621 104.352L77.866 103.271Z" fill="#455A64"/>
<path d="M55.7312 73.1788L54.0283 74.6081L47.4713 92.57L48.5148 92.9341L55.3498 87.2092L56.7748 73.5429L55.7312 73.1788Z" fill="url(#paint22_linear_1432_175)"/>
<path d="M48.5147 92.934L55.3497 87.2091L56.7747 73.5428L55.0711 74.9687L48.5147 92.934Z" fill="url(#paint23_linear_1432_175)"/>
<path opacity="0.5" d="M54.0283 74.608L55.0712 74.9687L56.7748 73.5428L55.7312 73.1787L54.0283 74.608Z" fill="white"/>
<path opacity="0.6" d="M55.0711 74.9687L48.5147 92.934L55.3497 87.2091L56.7747 73.5428L55.0711 74.9687Z" fill="#455A64"/>
<path opacity="0.8" d="M61.5072 86.8498C60.5164 85.6946 59.6724 83.3784 61.65 81.5119C63.6275 79.6455 65.56 80.1389 65.56 80.1389C65.56 80.1389 64.8368 80.9617 64.9771 81.6003C64.9771 81.6003 67.0268 79.0498 69.0134 79.6095C69.0134 79.6095 67.6519 80.6034 67.9828 81.2108C68.3137 81.8183 70.6911 80.1664 71.3745 78.8148C71.3745 78.8148 71.6922 79.8327 70.8698 81.3064C70.0473 82.78 67.9806 84.2131 67.9806 84.2131C68.2725 84.2732 68.5747 84.2684 68.8651 84.199C69.1555 84.1296 69.4269 83.9973 69.6598 83.8117C69.6598 83.8117 68.6404 86.2479 66.8491 87.5376C66.0382 88.1278 65.0289 88.3858 64.0329 88.2575C63.037 88.1293 62.1317 87.6248 61.5072 86.8498V86.8498Z" fill="url(#paint24_linear_1432_175)"/>
<path opacity="0.8" d="M62.5029 86.0018C61.5919 84.9393 62.4466 82.9479 64.8182 82.7323C64.8182 82.7323 63.8709 83.6338 64.3099 84.1801C64.7488 84.7265 66.7262 83.1679 67.104 82.7397C67.104 82.7397 66.7049 84.7315 65.4085 85.8138C64.4813 86.5941 63.357 87.002 62.5029 86.0018Z" fill="white"/>
<path opacity="0.8" d="M64.5324 92.4605C65.5232 93.6157 67.6898 94.8206 69.8828 93.1952C72.0757 91.5699 71.8916 89.6078 71.8916 89.6078C71.8916 89.6078 70.9432 90.174 70.3397 89.9376C70.3397 89.9376 73.207 88.3594 72.9857 86.328C72.9857 86.328 71.7742 87.4918 71.2178 87.0705C70.6614 86.6492 72.7076 84.6009 74.1686 84.1561C74.1686 84.1561 73.2064 83.6804 71.5977 84.2384C69.989 84.7964 68.2002 86.9503 68.2002 86.9503C68.1192 86.653 68.1034 86.3418 68.154 86.0374C68.2045 85.733 68.3202 85.4425 68.4933 85.1852C67.0817 85.4907 65.7763 86.162 64.7115 87.1299C63.9886 87.8256 63.566 88.7701 63.5326 89.7644C63.4992 90.7587 63.8576 91.7252 64.5324 92.4605V92.4605Z" fill="url(#paint25_linear_1432_175)"/>
<path opacity="0.8" d="M65.5295 91.6399C66.4398 92.6991 68.5659 92.1925 69.1689 89.9148C69.1689 89.9148 68.1154 90.6937 67.6422 90.1709C67.1689 89.648 69.0498 87.9824 69.5392 87.6862C69.5392 87.6862 67.4831 87.7478 66.1907 88.8329C65.2697 89.6085 64.6822 90.6385 65.5295 91.6399Z" fill="white"/>
<path opacity="0.5" d="M156.874 93.15C156.326 93.2493 155.762 93.1861 155.253 92.9685C154.743 92.7508 154.311 92.3885 154.011 91.9273C153.711 91.4661 153.556 90.9267 153.567 90.3774C153.578 89.8281 153.753 89.2935 154.071 88.8413C154.389 88.389 154.835 88.0394 155.353 87.8366C155.87 87.6339 156.437 87.5871 156.98 87.7021C157.523 87.8172 158.019 88.0889 158.405 88.4831C158.79 88.8772 159.048 89.3759 159.146 89.9162C159.278 90.6408 159.112 91.3885 158.686 91.995C158.26 92.6014 157.608 93.0169 156.874 93.15V93.15ZM155.923 87.9077C155.42 87.9989 154.955 88.2353 154.587 88.587C154.219 88.9387 153.964 89.3899 153.854 89.8835C153.745 90.3772 153.786 90.8911 153.973 91.3603C154.159 91.8294 154.482 92.2328 154.902 92.5194C155.321 92.806 155.818 92.9629 156.329 92.9703C156.84 92.9777 157.342 92.8353 157.772 92.561C158.203 92.2867 158.542 91.8929 158.746 91.4294C158.951 90.9658 159.012 90.4534 158.922 89.9569C158.8 89.2915 158.416 88.7021 157.854 88.318C157.292 87.9338 156.598 87.7862 155.923 87.9077V87.9077Z" fill="url(#paint26_linear_1432_175)"/>
<path d="M157.157 90.2768C157.184 90.4288 157.165 90.5857 157.103 90.7276C157.04 90.8694 156.937 90.99 156.805 91.0739C156.673 91.1579 156.519 91.2015 156.363 91.1992C156.206 91.197 156.054 91.149 155.926 91.0612C155.798 90.9735 155.699 90.85 155.642 90.7064C155.585 90.5628 155.572 90.4055 155.605 90.2544C155.639 90.1033 155.717 89.9652 155.83 89.8575C155.942 89.7499 156.085 89.6775 156.239 89.6496C156.445 89.6121 156.658 89.6572 156.83 89.7748C157.002 89.8925 157.12 90.073 157.157 90.2768V90.2768Z" fill="white"/>
<path opacity="0.5" d="M112.899 50.4105C112.036 50.567 111.147 50.4674 110.344 50.1243C109.541 49.7812 108.86 49.2101 108.387 48.4832C107.915 47.7563 107.672 46.9062 107.689 46.0406C107.706 45.1749 107.982 44.3325 108.484 43.62C108.985 42.9075 109.688 42.3568 110.504 42.0376C111.32 41.7184 112.213 41.6451 113.069 41.8269C113.925 42.0087 114.706 42.4375 115.313 43.059C115.92 43.6805 116.326 44.4667 116.48 45.3184C116.685 46.4595 116.423 47.6365 115.752 48.5911C115.081 49.5458 114.055 50.2001 112.899 50.4105ZM111.379 42.026C110.56 42.1751 109.804 42.5606 109.205 43.1335C108.606 43.7065 108.192 44.4413 108.016 45.2448C107.839 46.0483 107.907 46.8845 108.212 47.6475C108.517 48.4105 109.044 49.066 109.727 49.531C110.411 49.996 111.22 50.2497 112.051 50.2598C112.883 50.27 113.7 50.0362 114.399 49.588C115.098 49.1399 115.647 48.4976 115.978 47.7423C116.309 46.9871 116.406 46.1529 116.257 45.3454C116.059 44.2624 115.435 43.303 114.519 42.6781C113.604 42.0532 112.474 41.814 111.376 42.013L111.379 42.026Z" fill="url(#paint27_linear_1432_175)"/>
<path d="M113.364 45.87C113.408 46.1135 113.378 46.3647 113.278 46.592C113.177 46.8192 113.011 47.0123 112.8 47.1468C112.589 47.2812 112.343 47.3511 112.092 47.3474C111.842 47.3438 111.598 47.2669 111.393 47.1264C111.187 46.9859 111.029 46.7881 110.937 46.5581C110.846 46.328 110.826 46.0761 110.879 45.8341C110.933 45.5921 111.058 45.3708 111.238 45.1984C111.419 45.026 111.647 44.9101 111.893 44.8654C112.057 44.8352 112.225 44.8373 112.388 44.8715C112.551 44.9058 112.705 44.9715 112.841 45.0648C112.978 45.1582 113.095 45.2774 113.184 45.4156C113.274 45.5538 113.335 45.7082 113.364 45.87Z" fill="white"/>
<path opacity="0.5" d="M144.763 27.3994C144.216 27.4986 143.652 27.4354 143.142 27.2178C142.632 27.0002 142.2 26.6378 141.9 26.1766C141.6 25.7154 141.446 25.1761 141.457 24.6268C141.467 24.0775 141.643 23.5429 141.96 23.0906C142.278 22.6384 142.724 22.2888 143.242 22.086C143.76 21.8832 144.326 21.8364 144.869 21.9515C145.413 22.0665 145.908 22.3383 146.294 22.7324C146.68 23.1265 146.938 23.6253 147.036 24.1656C147.166 24.89 147 25.6373 146.574 26.2435C146.148 26.8498 145.497 27.2654 144.763 27.3994ZM143.813 22.157C143.31 22.2482 142.844 22.4846 142.476 22.8363C142.108 23.188 141.853 23.6392 141.744 24.1329C141.634 24.6265 141.676 25.1404 141.862 25.6096C142.048 26.0788 142.372 26.4822 142.791 26.7688C143.211 27.0554 143.707 27.2123 144.218 27.2197C144.729 27.2271 145.231 27.0846 145.662 26.8103C146.092 26.5361 146.431 26.1422 146.636 25.6787C146.84 25.2152 146.901 24.7028 146.811 24.2062C146.69 23.5409 146.306 22.9515 145.744 22.5673C145.182 22.1831 144.487 22.0356 143.813 22.157V22.157Z" fill="url(#paint28_linear_1432_175)"/>
<path d="M145.05 24.5257C145.078 24.6783 145.06 24.836 144.998 24.9789C144.935 25.1217 144.831 25.2432 144.699 25.328C144.567 25.4128 144.413 25.4571 144.256 25.4552C144.098 25.4534 143.945 25.4055 143.816 25.3176C143.687 25.2297 143.587 25.1057 143.53 24.9615C143.472 24.8172 143.459 24.6591 143.493 24.5072C143.526 24.3553 143.604 24.2164 143.718 24.1081C143.831 23.9998 143.974 23.9271 144.129 23.899C144.231 23.88 144.336 23.8811 144.438 23.9023C144.54 23.9236 144.636 23.9645 144.722 24.0227C144.808 24.0809 144.881 24.1553 144.937 24.2416C144.993 24.3279 145.032 24.4245 145.05 24.5257V24.5257Z" fill="white"/>
<path opacity="0.5" d="M48.0533 64.4329C47.5059 64.5322 46.9417 64.469 46.4321 64.2514C45.9225 64.0337 45.4903 63.6714 45.1903 63.2102C44.8903 62.749 44.7359 62.2097 44.7466 61.6604C44.7573 61.1111 44.9326 60.5765 45.2505 60.1242C45.5683 59.672 46.0143 59.3224 46.532 59.1196C47.0498 58.9168 47.6162 58.87 48.1594 58.9851C48.7027 59.1001 49.1984 59.3719 49.584 59.766C49.9696 60.1601 50.2277 60.6588 50.3257 61.1992C50.4571 61.9237 50.2915 62.6714 49.8653 63.2779C49.4392 63.8844 48.7874 64.2998 48.0533 64.4329V64.4329ZM47.1027 59.1906C46.5996 59.2818 46.1345 59.5182 45.7663 59.8699C45.398 60.2216 45.1431 60.6728 45.0338 61.1665C44.9245 61.6601 44.9656 62.174 45.1521 62.6432C45.3385 63.1124 45.6619 63.5158 46.0813 63.8024C46.5007 64.089 46.9972 64.2459 47.5082 64.2533C48.0191 64.2607 48.5215 64.1182 48.9518 63.8439C49.3821 63.5696 49.721 63.1758 49.9256 62.7123C50.1303 62.2488 50.1914 61.7364 50.1014 61.2398C49.9798 60.5744 49.5959 59.985 49.0337 59.6009C48.4716 59.2167 47.7771 59.0692 47.1027 59.1906V59.1906Z" fill="url(#paint29_linear_1432_175)"/>
<path d="M48.3232 61.5623C48.3522 61.7149 48.3344 61.8727 48.2722 62.0157C48.21 62.1587 48.1061 62.2803 47.9739 62.365C47.8416 62.4496 47.687 62.4936 47.5297 62.4911C47.3725 62.4887 47.2197 62.4399 47.0911 62.3512C46.9624 62.2624 46.8636 62.1377 46.8073 61.9929C46.751 61.848 46.7398 61.6897 46.7751 61.5382C46.8103 61.3866 46.8905 61.2487 47.0053 61.142C47.1201 61.0353 47.2644 60.9647 47.4197 60.9392C47.6235 60.9049 47.8324 60.951 48.0014 61.0675C48.1704 61.1841 48.286 61.3618 48.3232 61.5623Z" fill="white"/>
<path d="M155.922 18.9019C155.845 18.8603 155.782 18.7971 155.741 18.72C155.7 18.6429 155.684 18.5556 155.693 18.469C155.703 18.3823 155.738 18.3004 155.795 18.2334C155.851 18.1664 155.927 18.1175 156.011 18.0927C156.096 18.0679 156.186 18.0685 156.27 18.0943C156.354 18.1201 156.429 18.17 156.484 18.2377C156.539 18.3053 156.573 18.3878 156.58 18.4745C156.588 18.5612 156.569 18.6483 156.527 18.7249C156.47 18.8275 156.374 18.9038 156.261 18.937C156.147 18.9702 156.025 18.9575 155.922 18.9019Z" fill="#F0F0F0"/>
<path d="M154.848 20.3847C154.818 20.3689 154.791 20.3473 154.77 20.3212C154.748 20.2951 154.732 20.265 154.722 20.2326C154.713 20.2003 154.71 20.1663 154.713 20.1327C154.717 20.0991 154.728 20.0666 154.744 20.0369C154.777 19.9773 154.833 19.9329 154.899 19.9134C154.965 19.8938 155.036 19.9008 155.097 19.9327C155.156 19.9658 155.2 20.0206 155.22 20.0855C155.239 20.1503 155.232 20.2202 155.201 20.2804C155.184 20.3102 155.162 20.3367 155.136 20.3581C155.109 20.3795 155.079 20.3956 155.046 20.4053C155.013 20.415 154.979 20.4181 154.945 20.4146C154.911 20.4111 154.878 20.4009 154.848 20.3847V20.3847Z" fill="#FAFAFA"/>
<path d="M131.346 93.8476C131.404 93.8878 131.449 93.9443 131.475 94.01C131.502 94.0758 131.507 94.1477 131.492 94.2168C131.476 94.2859 131.441 94.349 131.389 94.3982C131.338 94.4474 131.272 94.4805 131.202 94.4933C131.132 94.506 131.059 94.4979 130.994 94.4699C130.928 94.442 130.872 94.3954 130.834 94.3361C130.795 94.2768 130.775 94.2075 130.776 94.1368C130.778 94.0662 130.8 93.9974 130.841 93.9391C130.896 93.8615 130.98 93.8084 131.075 93.7913C131.169 93.7741 131.267 93.7944 131.346 93.8476Z" fill="#FAFAFA"/>
<path d="M134.917 94.7906C134.982 94.8325 135.038 94.8867 135.081 94.9501C135.125 95.0135 135.155 95.0848 135.17 95.16C135.185 95.2351 135.185 95.3126 135.17 95.3878C135.155 95.4631 135.124 95.5347 135.081 95.5984C135.016 95.6945 134.924 95.7696 134.816 95.8142C134.709 95.8588 134.59 95.871 134.476 95.8491C134.361 95.8272 134.256 95.7722 134.174 95.6912C134.091 95.6102 134.035 95.5067 134.012 95.3938C133.989 95.2809 134.001 95.1637 134.045 95.057C134.09 94.9504 134.165 94.859 134.262 94.7944C134.359 94.7299 134.473 94.695 134.59 94.6944C134.706 94.6937 134.82 94.7272 134.917 94.7906V94.7906Z" fill="#FAFAFA"/>
<g opacity="0.5">
<path d="M137.14 50.8645C137.201 50.8269 137.271 50.8078 137.343 50.8097C137.414 50.8116 137.483 50.8344 137.542 50.8751C137.6 50.9159 137.644 50.9728 137.67 51.0387C137.695 51.1046 137.7 51.1765 137.684 51.2454C137.668 51.3143 137.632 51.3771 137.58 51.4258C137.528 51.4746 137.463 51.5071 137.392 51.5193C137.322 51.5315 137.249 51.5229 137.184 51.4944C137.119 51.466 137.064 51.419 137.025 51.3595C136.975 51.279 136.958 51.1819 136.98 51.0892C137.001 50.9965 137.059 50.9158 137.14 50.8645Z" fill="#FAFAFA"/>
<path d="M139.484 48.0246C139.584 47.9636 139.7 47.9331 139.817 47.937C139.934 47.9408 140.047 47.9789 140.142 48.0464C140.237 48.1139 140.31 48.2077 140.35 48.3161C140.391 48.4245 140.399 48.5425 140.372 48.6553C140.344 48.7681 140.284 48.8706 140.198 48.9498C140.113 49.0291 140.005 49.0816 139.889 49.1006C139.774 49.1197 139.655 49.1044 139.548 49.0569C139.442 49.0093 139.352 48.9315 139.29 48.8333C139.208 48.701 139.182 48.5417 139.219 48.3902C139.255 48.2387 139.35 48.1073 139.484 48.0246Z" fill="#FAFAFA"/>
</g>
<g opacity="0.5">
<path d="M152.08 103.698C152.102 103.812 152.088 103.93 152.042 104.037C151.995 104.144 151.918 104.235 151.819 104.298C151.721 104.362 151.605 104.395 151.488 104.394C151.37 104.392 151.256 104.357 151.159 104.291C151.063 104.225 150.988 104.133 150.945 104.025C150.902 103.917 150.892 103.799 150.917 103.686C150.942 103.572 151.001 103.468 151.085 103.388C151.17 103.307 151.277 103.252 151.393 103.231C151.547 103.203 151.706 103.237 151.835 103.324C151.964 103.412 152.052 103.546 152.08 103.698V103.698Z" fill="#FAFAFA"/>
<path d="M150.626 105.583C150.64 105.652 150.632 105.722 150.604 105.787C150.576 105.851 150.53 105.905 150.47 105.943C150.411 105.982 150.342 106.002 150.271 106.001C150.201 106 150.132 105.978 150.074 105.939C150.016 105.899 149.972 105.843 149.946 105.779C149.921 105.714 149.915 105.643 149.931 105.575C149.946 105.507 149.982 105.444 150.033 105.396C150.084 105.348 150.148 105.316 150.218 105.304C150.264 105.293 150.311 105.292 150.357 105.301C150.403 105.309 150.447 105.327 150.485 105.354C150.524 105.38 150.556 105.414 150.581 105.453C150.605 105.493 150.621 105.537 150.626 105.583Z" fill="#FAFAFA"/>
<path d="M149.251 103.619C149.264 103.675 149.26 103.732 149.239 103.785C149.218 103.838 149.181 103.883 149.134 103.915C149.086 103.947 149.03 103.964 148.973 103.965C148.915 103.965 148.86 103.948 148.812 103.916C148.765 103.884 148.729 103.839 148.708 103.786C148.687 103.733 148.683 103.676 148.696 103.62C148.709 103.565 148.739 103.515 148.781 103.477C148.823 103.438 148.876 103.413 148.933 103.405C149.004 103.394 149.076 103.411 149.135 103.451C149.194 103.49 149.236 103.551 149.251 103.619V103.619Z" fill="#FAFAFA"/>
</g>
<path d="M92.0957 30.8995C92.1083 30.9691 92.0997 31.0409 92.0711 31.1058C92.0424 31.1707 91.9949 31.2259 91.9347 31.2643C91.8744 31.3027 91.804 31.3227 91.7324 31.3217C91.6609 31.3206 91.5913 31.2986 91.5326 31.2585C91.4738 31.2183 91.4285 31.1618 91.4024 31.0961C91.3763 31.0304 91.3705 30.9584 91.3858 30.8893C91.4011 30.8201 91.4368 30.7569 91.4884 30.7076C91.54 30.6584 91.6052 30.6253 91.6756 30.6125C91.7701 30.5954 91.8675 30.616 91.9462 30.6698C92.025 30.7236 92.0788 30.8063 92.0957 30.8995V30.8995Z" fill="#FAFAFA"/>
<path d="M92.9382 25.9811L93.8854 26.6199L94.9555 26.2072C94.9783 26.1986 95.0031 26.1964 95.0271 26.2009C95.051 26.2054 95.0732 26.2165 95.0911 26.2328C95.109 26.2492 95.1218 26.2702 95.1282 26.2935C95.1345 26.3167 95.1342 26.3413 95.1271 26.3645L94.8042 27.4589L95.5257 28.337C95.5416 28.3556 95.5519 28.3783 95.5552 28.4025C95.5586 28.4267 95.555 28.4513 95.5448 28.4736C95.5345 28.4959 95.5181 28.5149 95.4975 28.5283C95.4768 28.5418 95.4527 28.5493 95.428 28.5498L94.2828 28.5859L93.6552 29.5405C93.6418 29.5609 93.6228 29.5772 93.6005 29.5875C93.5782 29.5978 93.5535 29.6017 93.5291 29.5987C93.5048 29.5958 93.4818 29.5861 93.4628 29.5708C93.4438 29.5555 93.4296 29.5352 93.4217 29.5122L93.0374 28.4452L91.9291 28.1585C91.9057 28.1519 91.8845 28.139 91.8682 28.1212C91.8518 28.1033 91.8409 28.0813 91.8366 28.0576C91.8323 28.0338 91.8348 28.0093 91.8438 27.9869C91.8529 27.9645 91.8681 27.9449 91.8878 27.9306L92.7842 27.2366L92.7253 26.1038C92.7205 26.0777 92.724 26.0507 92.7353 26.0265C92.7466 26.0024 92.7651 25.9822 92.7884 25.9688C92.8117 25.9554 92.8386 25.9493 92.8654 25.9516C92.8922 25.9538 92.9176 25.9641 92.9382 25.9811Z" fill="#FAFAFA"/>
<path d="M74.1574 81.8896L74.4381 82.7232L75.289 82.9624C75.3072 82.9674 75.3236 82.9773 75.3363 82.9911C75.3489 83.0048 75.3574 83.0219 75.3608 83.0402C75.3641 83.0586 75.3621 83.0775 75.3551 83.0948C75.348 83.1122 75.3362 83.1272 75.3209 83.1383L74.6081 83.661L74.6347 84.5407C74.6349 84.559 74.63 84.577 74.6204 84.5928C74.6109 84.6085 74.5972 84.6214 74.5807 84.6299C74.5643 84.6385 74.5458 84.6424 74.5273 84.6412C74.5088 84.64 74.4911 84.6339 74.476 84.6233L73.7535 84.1153L72.919 84.418C72.9011 84.4249 72.8817 84.4267 72.8629 84.423C72.8441 84.4194 72.8268 84.4106 72.813 84.3975C72.7991 84.3845 72.7894 84.3678 72.7849 84.3494C72.7804 84.3311 72.7813 84.3118 72.7875 84.2938L73.0551 83.4583L72.5105 82.7667C72.501 82.7522 72.4953 82.7356 72.4941 82.7183C72.4928 82.701 72.496 82.6837 72.5033 82.6679C72.5107 82.6521 72.5219 82.6384 72.5361 82.6281C72.5502 82.6178 72.5667 82.6111 72.5841 82.6088L73.4717 82.5992L73.9704 81.8731C73.9805 81.8563 73.9951 81.8427 74.0126 81.8338C74.0302 81.8249 74.0499 81.8211 74.0695 81.8228C74.0891 81.8246 74.1077 81.8318 74.1233 81.8436C74.1389 81.8554 74.1507 81.8714 74.1574 81.8896V81.8896Z" fill="#FAFAFA"/>
<path d="M141.704 12.7089L142.534 12.4003L142.751 11.5471C142.756 11.5291 142.766 11.5129 142.78 11.5003C142.794 11.4877 142.811 11.4792 142.83 11.4759C142.848 11.4725 142.867 11.4744 142.885 11.4813C142.902 11.4881 142.918 11.4998 142.929 11.5148L143.483 12.2014L144.367 12.1385C144.386 12.1371 144.404 12.1408 144.421 12.1492C144.437 12.1576 144.451 12.1704 144.461 12.186C144.47 12.2017 144.475 12.2197 144.475 12.2381C144.475 12.2564 144.469 12.2743 144.46 12.2899L143.969 13.0246L144.3 13.8356C144.307 13.853 144.309 13.872 144.305 13.8903C144.302 13.9087 144.293 13.9258 144.281 13.9399C144.268 13.9539 144.252 13.9643 144.234 13.97C144.216 13.9756 144.197 13.9764 144.178 13.972L143.322 13.7405L142.656 14.2952C142.642 14.3075 142.624 14.3155 142.605 14.3184C142.587 14.3213 142.568 14.3189 142.55 14.3115C142.533 14.3041 142.518 14.292 142.507 14.2766C142.497 14.2612 142.491 14.2431 142.49 14.2244L142.453 13.3465L141.688 12.8866C141.672 12.8771 141.659 12.8633 141.651 12.8468C141.642 12.8303 141.639 12.8117 141.64 12.7932C141.642 12.7747 141.649 12.757 141.66 12.7421C141.671 12.7272 141.686 12.7157 141.704 12.7089V12.7089Z" fill="#FAFAFA"/>
<path d="M105.987 112.975C106.07 113.004 106.142 113.058 106.194 113.128C106.246 113.198 106.276 113.282 106.28 113.369C106.283 113.456 106.261 113.542 106.215 113.616C106.169 113.691 106.102 113.75 106.022 113.787C105.942 113.825 105.853 113.837 105.766 113.824C105.679 113.811 105.598 113.773 105.533 113.715C105.468 113.656 105.422 113.58 105.401 113.495C105.38 113.411 105.385 113.322 105.415 113.24C105.435 113.185 105.466 113.135 105.505 113.092C105.545 113.049 105.592 113.014 105.646 112.989C105.699 112.965 105.757 112.951 105.815 112.948C105.874 112.946 105.932 112.955 105.987 112.975V112.975Z" fill="#F0F0F0"/>
<path d="M106.817 111.348C106.882 111.371 106.935 111.418 106.964 111.48C106.994 111.541 106.998 111.612 106.975 111.676C106.963 111.708 106.946 111.737 106.923 111.762C106.9 111.787 106.872 111.808 106.841 111.822C106.81 111.836 106.776 111.844 106.742 111.846C106.708 111.847 106.674 111.842 106.642 111.831C106.61 111.819 106.58 111.802 106.555 111.78C106.53 111.757 106.51 111.73 106.495 111.7C106.481 111.669 106.472 111.636 106.471 111.603C106.469 111.569 106.474 111.536 106.486 111.504C106.497 111.472 106.515 111.443 106.538 111.418C106.56 111.393 106.588 111.373 106.619 111.358C106.649 111.344 106.683 111.336 106.717 111.334C106.751 111.332 106.785 111.337 106.817 111.348Z" fill="#FAFAFA"/>
<path d="M121.009 116.934L120.233 117.367L120.152 118.239C120.151 118.258 120.144 118.275 120.132 118.29C120.121 118.305 120.106 118.317 120.088 118.323C120.07 118.33 120.051 118.332 120.033 118.328C120.014 118.325 119.997 118.316 119.983 118.303L119.331 117.712L118.464 117.91C118.445 117.914 118.425 117.914 118.407 117.908C118.389 117.902 118.373 117.891 118.361 117.876C118.349 117.861 118.341 117.843 118.339 117.824C118.337 117.805 118.341 117.786 118.35 117.769L118.72 116.972L118.266 116.22C118.256 116.204 118.251 116.186 118.251 116.167C118.251 116.148 118.256 116.129 118.266 116.113C118.277 116.097 118.292 116.084 118.309 116.076C118.326 116.068 118.346 116.065 118.365 116.068L119.248 116.167L119.834 115.505C119.846 115.491 119.862 115.481 119.88 115.475C119.899 115.469 119.918 115.469 119.936 115.474C119.955 115.478 119.971 115.488 119.984 115.502C119.997 115.516 120.006 115.533 120.009 115.551L120.165 116.414L120.981 116.757C120.999 116.762 121.015 116.773 121.027 116.787C121.04 116.801 121.048 116.818 121.051 116.836C121.054 116.855 121.052 116.874 121.044 116.891C121.037 116.908 121.025 116.923 121.009 116.934V116.934Z" fill="#FAFAFA"/>
<path d="M166.695 45.6563C166.795 45.5953 166.911 45.5648 167.028 45.5687C167.145 45.5726 167.259 45.6106 167.353 45.6781C167.448 45.7456 167.521 45.8394 167.562 45.9478C167.602 46.0562 167.61 46.1742 167.583 46.287C167.556 46.3998 167.495 46.5023 167.41 46.5816C167.324 46.6608 167.216 46.7133 167.1 46.7323C166.985 46.7514 166.866 46.7361 166.759 46.6886C166.653 46.641 166.563 46.5632 166.501 46.465C166.46 46.3996 166.432 46.3268 166.42 46.2507C166.408 46.1746 166.41 46.0968 166.428 46.0216C166.446 45.9465 166.479 45.8755 166.525 45.8128C166.571 45.7502 166.629 45.697 166.695 45.6563V45.6563Z" fill="#FAFAFA"/>
<path d="M82.2198 125.036C82.047 124.918 81.9291 124.736 81.8919 124.531C81.8547 124.325 81.9012 124.114 82.0213 123.942V123.942C82.1425 123.77 82.3272 123.653 82.535 123.615C82.7428 123.578 82.9569 123.623 83.1306 123.74C83.1306 123.74 101.671 136.833 101.418 137.194C101.164 137.554 82.2198 125.036 82.2198 125.036Z" fill="url(#paint30_linear_1432_175)"/>
<path d="M82.3685 124.176C82.4336 124.084 82.5329 124.021 82.6446 124.001C82.7563 123.981 82.8712 124.006 82.9641 124.07C83.057 124.134 83.1203 124.231 83.1399 124.342C83.1596 124.452 83.1341 124.566 83.069 124.658C83.0368 124.703 82.9958 124.742 82.9484 124.772C82.901 124.802 82.8482 124.823 82.7929 124.833C82.7376 124.842 82.6809 124.841 82.6261 124.83C82.5712 124.818 82.5193 124.796 82.4733 124.764C82.4273 124.732 82.3881 124.692 82.358 124.645C82.3278 124.599 82.3073 124.547 82.2975 124.492C82.2878 124.437 82.2891 124.381 82.3012 124.327C82.3134 124.273 82.3363 124.222 82.3685 124.176V124.176Z" fill="#FAFAFA"/>
<path d="M82.6699 128.078C82.5719 128.011 82.505 127.908 82.484 127.792C82.4629 127.676 82.4894 127.556 82.5575 127.458V127.458C82.5911 127.409 82.6342 127.368 82.6843 127.335C82.7344 127.303 82.7905 127.281 82.8492 127.27C82.908 127.259 82.9683 127.26 83.0266 127.273C83.0849 127.286 83.1399 127.31 83.1885 127.344C83.1885 127.344 90.7953 132.812 90.6504 133.018C90.5056 133.224 82.6699 128.078 82.6699 128.078Z" fill="url(#paint31_linear_1432_175)"/>
<defs>
<linearGradient id="paint0_linear_1432_175" x1="61.6867" y1="29.674" x2="66.476" y2="56.0848" gradientUnits="userSpaceOnUse">
<stop stop-color="#FD0091"/>
<stop offset="0.0001" stop-color="#FD0091"/>
<stop offset="1" stop-color="#FF7732"/>
</linearGradient>
<linearGradient id="paint1_linear_1432_175" x1="58.2286" y1="30.9679" x2="59.939" y2="40.4005" gradientUnits="userSpaceOnUse">
<stop stop-color="#FD0091"/>
<stop offset="0.0001" stop-color="#FD0091"/>
<stop offset="1" stop-color="#FF7732"/>
</linearGradient>
<linearGradient id="paint2_linear_1432_175" x1="60.8715" y1="33.1105" x2="64.6419" y2="53.903" gradientUnits="userSpaceOnUse">
<stop stop-color="#FD0091"/>
<stop offset="0.0001" stop-color="#FD0091"/>
<stop offset="1" stop-color="#FF7732"/>
</linearGradient>
<linearGradient id="paint3_linear_1432_175" x1="59.8053" y1="43.5163" x2="62.2242" y2="56.8557" gradientUnits="userSpaceOnUse">
<stop stop-color="#FD0091"/>
<stop offset="0.0001" stop-color="#FD0091"/>
<stop offset="1" stop-color="#FF7732"/>
</linearGradient>
<linearGradient id="paint4_linear_1432_175" x1="71.3241" y1="29.1159" x2="73.8129" y2="42.8403" gradientUnits="userSpaceOnUse">
<stop stop-color="#FD0091"/>
<stop offset="0.0001" stop-color="#FD0091"/>
<stop offset="1" stop-color="#FF7732"/>
</linearGradient>
<linearGradient id="paint5_linear_1432_175" x1="67.1418" y1="28.6812" x2="70.8624" y2="49.1991" gradientUnits="userSpaceOnUse">
<stop stop-color="#FD0091"/>
<stop offset="0.0001" stop-color="#FD0091"/>
<stop offset="1" stop-color="#FF7732"/>
</linearGradient>
<linearGradient id="paint6_linear_1432_175" x1="139.939" y1="52.9761" x2="167.61" y2="60.7306" gradientUnits="userSpaceOnUse">
<stop stop-color="#FD0091"/>
<stop offset="0.0001" stop-color="#FD0091"/>
<stop offset="1" stop-color="#FF7732"/>
</linearGradient>
<linearGradient id="paint7_linear_1432_175" x1="152.797" y1="45.0774" x2="157.925" y2="73.3555" gradientUnits="userSpaceOnUse">
<stop stop-color="#FD0091"/>
<stop offset="0.0001" stop-color="#FD0091"/>
<stop offset="1" stop-color="#FF7732"/>
</linearGradient>
<linearGradient id="paint8_linear_1432_175" x1="63.4347" y1="90.8927" x2="64.2591" y2="95.4393" gradientUnits="userSpaceOnUse">
<stop stop-color="#FD0091"/>
<stop offset="0.0001" stop-color="#FD0091"/>
<stop offset="1" stop-color="#FF7732"/>
</linearGradient>
<linearGradient id="paint9_linear_1432_175" x1="60.1831" y1="85.0038" x2="61.0096" y2="89.5615" gradientUnits="userSpaceOnUse">
<stop stop-color="#FD0091"/>
<stop offset="0.0001" stop-color="#FD0091"/>
<stop offset="1" stop-color="#FF7732"/>
</linearGradient>
<linearGradient id="paint10_linear_1432_175" x1="34.7907" y1="87.5929" x2="39.3067" y2="112.497" gradientUnits="userSpaceOnUse">
<stop stop-color="#FD0091"/>
<stop offset="0.0001" stop-color="#FD0091"/>
<stop offset="1" stop-color="#FF7732"/>
</linearGradient>
<linearGradient id="paint11_linear_1432_175" x1="39.5396" y1="86.7319" x2="41.5031" y2="97.56" gradientUnits="userSpaceOnUse">
<stop stop-color="#FD0091"/>
<stop offset="0.0001" stop-color="#FD0091"/>
<stop offset="1" stop-color="#FF7732"/>
</linearGradient>
<linearGradient id="paint12_linear_1432_175" x1="36.2984" y1="89.793" x2="42.6801" y2="124.986" gradientUnits="userSpaceOnUse">
<stop stop-color="#FD0091"/>
<stop offset="0.0001" stop-color="#FD0091"/>
<stop offset="1" stop-color="#FF7732"/>
</linearGradient>
<linearGradient id="paint13_linear_1432_175" x1="54.6467" y1="86.4623" x2="57.7212" y2="103.417" gradientUnits="userSpaceOnUse">
<stop stop-color="#FD0091"/>
<stop offset="0.0001" stop-color="#FD0091"/>
<stop offset="1" stop-color="#FF7732"/>
</linearGradient>
<linearGradient id="paint14_linear_1432_175" x1="18.7174" y1="124.968" x2="19.4906" y2="129.232" gradientUnits="userSpaceOnUse">
<stop stop-color="#FD0091"/>
<stop offset="0.0001" stop-color="#FD0091"/>
<stop offset="1" stop-color="#FF7732"/>
</linearGradient>
<linearGradient id="paint15_linear_1432_175" x1="24.3992" y1="114.232" x2="25.9098" y2="122.562" gradientUnits="userSpaceOnUse">
<stop stop-color="#FD0091"/>
<stop offset="0.0001" stop-color="#FD0091"/>
<stop offset="1" stop-color="#FF7732"/>
</linearGradient>
<linearGradient id="paint16_linear_1432_175" x1="38.0719" y1="100.174" x2="42.5818" y2="125.045" gradientUnits="userSpaceOnUse">
<stop stop-color="#FD0091"/>
<stop offset="0.0001" stop-color="#FD0091"/>
<stop offset="1" stop-color="#FF7732"/>
</linearGradient>
<linearGradient id="paint17_linear_1432_175" x1="54.4433" y1="98.5678" x2="57.3886" y2="114.81" gradientUnits="userSpaceOnUse">
<stop stop-color="#FD0091"/>
<stop offset="0.0001" stop-color="#FD0091"/>
<stop offset="1" stop-color="#FF7732"/>
</linearGradient>
<linearGradient id="paint18_linear_1432_175" x1="42.3528" y1="113.065" x2="43.1379" y2="117.394" gradientUnits="userSpaceOnUse">
<stop stop-color="#FD0091"/>
<stop offset="0.0001" stop-color="#FD0091"/>
<stop offset="1" stop-color="#FF7732"/>
</linearGradient>
<linearGradient id="paint19_linear_1432_175" x1="62.1078" y1="108.362" x2="62.5007" y2="110.529" gradientUnits="userSpaceOnUse">
<stop stop-color="#FD0091"/>
<stop offset="0.0001" stop-color="#FD0091"/>
<stop offset="1" stop-color="#FF7732"/>
</linearGradient>
<linearGradient id="paint20_linear_1432_175" x1="66.7947" y1="96.3282" x2="68.7583" y2="107.156" gradientUnits="userSpaceOnUse">
<stop stop-color="#FD0091"/>
<stop offset="0.0001" stop-color="#FD0091"/>
<stop offset="1" stop-color="#FF7732"/>
</linearGradient>
<linearGradient id="paint21_linear_1432_175" x1="75.9663" y1="103.615" x2="76.5553" y2="106.863" gradientUnits="userSpaceOnUse">
<stop stop-color="#FD0091"/>
<stop offset="0.0001" stop-color="#FD0091"/>
<stop offset="1" stop-color="#FF7732"/>
</linearGradient>
<linearGradient id="paint22_linear_1432_175" x1="50.5038" y1="74.1267" x2="53.7423" y2="91.9861" gradientUnits="userSpaceOnUse">
<stop stop-color="#FD0091"/>
<stop offset="0.0001" stop-color="#FD0091"/>
<stop offset="1" stop-color="#FF7732"/>
</linearGradient>
<linearGradient id="paint23_linear_1432_175" x1="51.074" y1="74.5765" x2="54.2154" y2="91.9002" gradientUnits="userSpaceOnUse">
<stop stop-color="#FD0091"/>
<stop offset="0.0001" stop-color="#FD0091"/>
<stop offset="1" stop-color="#FF7732"/>
</linearGradient>
<linearGradient id="paint24_linear_1432_175" x1="65.5945" y1="79.8629" x2="67.0515" y2="87.8976" gradientUnits="userSpaceOnUse">
<stop stop-color="#FD0091"/>
<stop offset="0.0001" stop-color="#FD0091"/>
<stop offset="1" stop-color="#FF7732"/>
</linearGradient>
<linearGradient id="paint25_linear_1432_175" x1="68.4068" y1="84.753" x2="70.0131" y2="93.6109" gradientUnits="userSpaceOnUse">
<stop stop-color="#FD0091"/>
<stop offset="0.0001" stop-color="#FD0091"/>
<stop offset="1" stop-color="#FF7732"/>
</linearGradient>
<linearGradient id="paint26_linear_1432_175" x1="155.883" y1="87.6862" x2="156.874" y2="93.15" gradientUnits="userSpaceOnUse">
<stop stop-color="#FD0091"/>
<stop offset="0.0001" stop-color="#FD0091"/>
<stop offset="1" stop-color="#FF7732"/>
</linearGradient>
<linearGradient id="paint27_linear_1432_175" x1="111.338" y1="41.8014" x2="112.899" y2="50.4105" gradientUnits="userSpaceOnUse">
<stop stop-color="#FD0091"/>
<stop offset="0.0001" stop-color="#FD0091"/>
<stop offset="1" stop-color="#FF7732"/>
</linearGradient>
<linearGradient id="paint28_linear_1432_175" x1="143.772" y1="21.9356" x2="144.763" y2="27.3994" gradientUnits="userSpaceOnUse">
<stop stop-color="#FD0091"/>
<stop offset="0.0001" stop-color="#FD0091"/>
<stop offset="1" stop-color="#FF7732"/>
</linearGradient>
<linearGradient id="paint29_linear_1432_175" x1="47.0625" y1="58.9692" x2="48.0533" y2="64.4329" gradientUnits="userSpaceOnUse">
<stop stop-color="#FD0091"/>
<stop offset="0.0001" stop-color="#FD0091"/>
<stop offset="1" stop-color="#FF7732"/>
</linearGradient>
<linearGradient id="paint30_linear_1432_175" x1="90.0945" y1="122.245" x2="93.0804" y2="138.71" gradientUnits="userSpaceOnUse">
<stop stop-color="#FD0091"/>
<stop offset="0.0001" stop-color="#FD0091"/>
<stop offset="1" stop-color="#FF7732"/>
</linearGradient>
<linearGradient id="paint31_linear_1432_175" x1="85.9003" y1="126.717" x2="87.1584" y2="133.655" gradientUnits="userSpaceOnUse">
<stop stop-color="#FD0091"/>
<stop offset="0.0001" stop-color="#FD0091"/>
<stop offset="1" stop-color="#FF7732"/>
</linearGradient>
</defs>
</svg>
