<svg width="1268" height="898" viewBox="0 0 1268 898" fill="none" xmlns="http://www.w3.org/2000/svg">
<path fill-rule="evenodd" clip-rule="evenodd" d="M104.001 453.91C208.221 495.708 302.003 541.596 401.347 590.51C530.416 654.061 702.964 682.576 775.05 784.318C848.659 888.208 827.413 1013.95 771.661 1113.16C718.193 1208.31 597.31 1265.82 477.055 1314.6C368.956 1358.45 247.67 1388.04 118.255 1378.22C-2.35367 1369.07 -106.541 1308.78 -216.225 1261.98C-325.23 1215.46 -431.479 1171.57 -521.838 1105.09C-639.247 1018.72 -802.721 936.265 -817.909 819.343C-832.997 703.198 -679.581 632.129 -594.882 542.79C-511.448 454.785 -471.41 317.903 -324.84 299.263C-175.285 280.243 -39.2188 396.469 104.001 453.91Z" stroke="white" stroke-opacity="0.06" stroke-width="5.12602"/>
<path fill-rule="evenodd" clip-rule="evenodd" d="M195.304 423.568C299.524 465.367 393.306 511.254 492.65 560.169C621.719 623.719 794.266 652.235 866.353 753.976C939.962 857.866 918.716 983.612 862.964 1082.82C809.495 1177.97 688.613 1235.48 568.358 1284.26C460.258 1328.11 338.972 1357.7 209.557 1347.88C88.9491 1338.72 -15.2379 1278.44 -124.923 1231.63C-233.927 1185.12 -340.176 1141.22 -430.536 1074.75C-547.944 988.379 -711.418 905.924 -726.606 789.002C-741.694 672.856 -588.279 601.788 -503.579 512.449C-420.145 424.443 -380.107 287.561 -233.537 268.921C-83.9822 249.901 52.084 366.127 195.304 423.568Z" stroke="white" stroke-opacity="0.06" stroke-width="5.12602"/>
<path fill-rule="evenodd" clip-rule="evenodd" d="M280.134 386.295C384.353 428.094 478.136 473.981 577.479 522.896C706.548 586.446 879.096 614.962 951.183 716.703C1024.79 820.593 1003.55 946.339 947.793 1045.55C894.325 1140.7 773.442 1198.2 653.187 1246.99C545.088 1290.84 423.802 1320.43 294.387 1310.61C173.779 1301.45 69.5917 1241.16 -40.0931 1194.36C-149.097 1147.85 -255.347 1103.95 -345.706 1037.48C-463.115 951.106 -626.588 868.651 -641.777 751.729C-656.864 635.583 -503.449 564.515 -418.75 475.176C-335.315 387.17 -295.277 250.288 -148.707 231.648C0.847362 212.628 136.914 328.855 280.134 386.295Z" stroke="white" stroke-opacity="0.06" stroke-width="5.12602"/>
<path fill-rule="evenodd" clip-rule="evenodd" d="M337.843 355.318C442.063 397.117 535.845 443.005 635.189 491.919C764.258 555.47 936.805 583.985 1008.89 685.727C1082.5 789.617 1061.25 915.363 1005.5 1014.57C952.034 1109.72 831.152 1167.23 710.897 1216.01C602.797 1259.86 481.512 1289.45 352.096 1279.63C231.488 1270.47 127.301 1210.19 17.6164 1163.39C-91.3879 1116.87 -197.637 1072.98 -287.997 1006.5C-405.405 920.129 -568.879 837.674 -584.067 720.752C-599.155 604.607 -445.74 533.538 -361.04 444.199C-277.606 356.194 -237.568 219.312 -90.9979 200.672C58.5568 181.652 194.623 297.878 337.843 355.318Z" stroke="white" stroke-opacity="0.06" stroke-width="5.12602"/>
<path fill-rule="evenodd" clip-rule="evenodd" d="M425.177 318.519C529.397 360.318 623.179 406.205 722.523 455.119C851.592 518.67 1024.14 547.185 1096.23 648.927C1169.84 752.817 1148.59 878.563 1092.84 977.774C1039.37 1072.92 918.486 1130.43 798.231 1179.21C690.132 1223.06 568.846 1252.65 439.431 1242.83C318.823 1233.67 214.636 1173.39 104.951 1126.59C-4.05338 1080.07 -110.303 1036.18 -200.662 969.702C-318.071 883.329 -481.545 800.874 -496.733 683.953C-511.82 567.807 -358.405 496.739 -273.706 407.399C-190.271 319.394 -150.233 182.512 -3.66342 163.872C145.891 144.852 281.958 261.078 425.177 318.519Z" stroke="white" stroke-opacity="0.06" stroke-width="5.12602"/>
<path fill-rule="evenodd" clip-rule="evenodd" d="M143.568 436.637C247.788 478.436 341.57 524.324 440.914 573.238C569.983 636.789 742.53 665.304 814.617 767.046C888.226 870.936 866.98 996.681 811.228 1095.89C757.76 1191.04 636.877 1248.55 516.622 1297.33C408.523 1341.18 287.237 1370.77 157.821 1360.95C37.2132 1351.79 -66.9737 1291.51 -176.659 1244.7C-285.663 1198.19 -391.912 1154.29 -482.271 1087.82C-599.68 1001.45 -763.154 918.993 -778.342 802.071C-793.43 685.925 -640.015 614.857 -555.315 525.518C-471.881 437.513 -431.843 300.63 -285.273 281.99C-135.718 262.971 0.348141 379.197 143.568 436.637Z" stroke="white" stroke-opacity="0.06" stroke-width="5.12602"/>
<path fill-rule="evenodd" clip-rule="evenodd" d="M234.865 406.296C339.085 448.095 432.867 493.982 532.211 542.897C661.28 606.447 833.828 634.963 905.915 736.705C979.523 840.595 958.277 966.34 902.525 1065.55C849.057 1160.7 728.174 1218.21 607.919 1266.99C499.82 1310.84 378.534 1340.43 249.119 1330.61C128.511 1321.45 24.3237 1261.17 -85.3611 1214.36C-194.365 1167.85 -300.615 1123.95 -390.974 1057.48C-508.383 971.107 -671.857 888.652 -687.045 771.73C-702.132 655.584 -548.717 584.516 -464.018 495.177C-380.583 407.172 -340.545 270.289 -193.975 251.649C-44.4207 232.63 91.6455 348.856 234.865 406.296Z" stroke="white" stroke-opacity="0.06" stroke-width="5.12602"/>
<path fill-rule="evenodd" clip-rule="evenodd" d="M319.698 369.022C423.918 410.821 517.7 456.708 617.044 505.623C746.113 569.173 918.66 597.688 990.747 699.43C1064.36 803.32 1043.11 929.066 987.358 1028.28C933.889 1123.42 813.007 1180.93 692.752 1229.71C584.652 1273.56 463.367 1303.16 333.951 1293.33C213.343 1284.18 109.156 1223.89 -0.528626 1177.09C-109.533 1130.58 -215.782 1086.68 -306.142 1020.21C-423.55 933.833 -587.024 851.377 -602.212 734.456C-617.3 618.31 -463.885 547.242 -379.185 457.903C-295.751 369.897 -255.713 233.015 -109.143 214.375C40.4118 195.355 176.478 311.581 319.698 369.022Z" stroke="white" stroke-opacity="0.06" stroke-width="5.12602"/>
<path fill-rule="evenodd" clip-rule="evenodd" d="M377.407 338.048C481.627 379.847 575.409 425.734 674.753 474.649C803.822 538.199 976.37 566.715 1048.46 668.457C1122.07 772.347 1100.82 898.092 1045.07 997.303C991.599 1092.45 870.716 1149.96 750.461 1198.74C642.362 1242.59 521.076 1272.18 391.661 1262.36C271.053 1253.2 166.866 1192.92 57.1808 1146.11C-51.8234 1099.6 -158.073 1055.7 -248.432 989.231C-365.841 902.859 -529.315 820.404 -544.503 703.482C-559.59 587.336 -406.175 516.268 -321.476 426.929C-238.041 338.924 -198.003 202.041 -51.4334 183.401C98.1213 164.382 234.187 280.608 377.407 338.048Z" stroke="white" stroke-opacity="0.06" stroke-width="5.12602"/>
<path fill-rule="evenodd" clip-rule="evenodd" d="M464.742 301.247C568.962 343.046 662.744 388.933 762.088 437.848C891.157 501.398 1063.7 529.913 1135.79 631.655C1209.4 735.545 1188.15 861.291 1132.4 960.502C1078.93 1055.65 958.051 1113.16 837.796 1161.94C729.696 1205.79 608.41 1235.38 478.995 1225.56C358.387 1216.4 254.2 1156.12 144.515 1109.31C35.5111 1062.8 -70.7383 1018.9 -161.098 952.43C-278.506 866.058 -441.98 783.603 -457.168 666.681C-472.256 550.535 -318.841 479.467 -234.141 390.128C-150.707 302.122 -110.669 165.24 35.901 146.6C185.456 127.58 321.522 243.806 464.742 301.247Z" stroke="white" stroke-opacity="0.06" stroke-width="5.12602"/>
</svg>
