<svg width="902" height="727" viewBox="0 0 902 727" fill="none" xmlns="http://www.w3.org/2000/svg">
<path fill-rule="evenodd" clip-rule="evenodd" d="M699.998 -209.337C767.319 -176.387 827.494 -139.402 891.223 -99.9518C974.022 -48.6975 1087.46 -30.2201 1130.48 57.1417C1174.4 146.348 1154.14 258.672 1112.2 348.831C1071.99 435.297 988.74 491.05 906.336 539.042C832.261 582.183 750.106 613.203 664.461 609.596C584.643 606.236 518.245 556.894 447.531 519.724C377.256 482.784 308.687 448.054 251.792 392.682C177.865 320.734 73.0923 254.076 68.6799 151.012C64.2968 48.632 169.854 -20.4268 230.572 -102.975C290.383 -184.291 323.695 -307.23 422.143 -329.536C522.596 -352.296 607.485 -254.616 699.998 -209.337Z" stroke="white" stroke-opacity="0.06" stroke-width="5.73698"/>
<path fill-rule="evenodd" clip-rule="evenodd" d="M762.235 -239.838C829.556 -206.889 889.731 -169.903 953.46 -130.453C1036.26 -79.1986 1149.7 -60.7211 1192.71 26.6406C1236.64 115.847 1216.38 228.171 1174.44 318.33C1134.22 404.796 1050.98 460.549 968.573 508.541C894.498 551.682 812.343 582.701 726.697 579.095C646.88 575.735 580.482 526.392 509.768 489.223C439.493 452.283 370.924 417.553 314.029 362.181C240.102 290.233 135.329 223.575 130.917 120.511C126.534 18.131 232.091 -50.9278 292.809 -133.476C352.62 -214.792 385.932 -337.731 484.38 -360.037C584.833 -382.797 669.722 -285.117 762.235 -239.838Z" stroke="white" stroke-opacity="0.06" stroke-width="5.73698"/>
<path fill-rule="evenodd" clip-rule="evenodd" d="M808.725 -276.23C876.046 -243.281 936.221 -206.295 999.951 -166.845C1082.75 -115.591 1196.19 -97.1132 1239.2 -9.7514C1283.13 79.4549 1262.87 191.779 1220.93 281.938C1180.71 368.404 1097.47 424.157 1015.06 472.149C940.988 515.29 858.833 546.309 773.188 542.703C693.371 539.343 626.972 490 556.258 452.831C485.983 415.891 417.414 381.161 360.519 325.789C286.592 253.841 181.819 187.183 177.407 84.119C173.024 -18.2611 278.581 -87.3199 339.299 -169.868C399.11 -251.184 432.422 -374.123 530.87 -396.429C631.323 -419.189 716.212 -321.509 808.725 -276.23Z" stroke="white" stroke-opacity="0.06" stroke-width="5.73698"/>
<path fill-rule="evenodd" clip-rule="evenodd" d="M848.64 -305.968C915.96 -273.019 976.136 -236.033 1039.87 -196.583C1122.66 -145.329 1236.1 -126.852 1279.12 -39.4899C1323.04 49.7163 1302.78 162.04 1260.85 252.199C1220.63 338.665 1137.38 394.418 1054.98 442.41C980.903 485.551 898.748 516.571 813.102 512.965C733.285 509.604 666.887 460.262 596.173 423.092C525.898 386.153 457.329 351.423 400.434 296.051C326.507 224.103 221.734 157.444 217.322 54.3805C212.938 -47.9996 318.496 -117.058 379.214 -199.607C439.025 -280.922 472.337 -403.861 570.785 -426.167C671.238 -448.928 756.127 -351.247 848.64 -305.968Z" stroke="white" stroke-opacity="0.06" stroke-width="5.73698"/>
<path fill-rule="evenodd" clip-rule="evenodd" d="M897.558 -342.04C964.879 -309.09 1025.05 -272.105 1088.78 -232.655C1171.58 -181.4 1285.02 -162.923 1328.04 -75.5613C1371.96 13.645 1351.7 125.969 1309.76 216.128C1269.55 302.594 1186.3 358.347 1103.9 406.339C1029.82 449.48 947.666 480.5 862.021 476.893C782.204 473.533 715.805 424.191 645.091 387.021C574.816 350.081 506.247 315.352 449.352 259.979C375.426 188.031 270.652 121.373 266.24 18.3091C261.857 -84.071 367.414 -153.13 428.132 -235.678C487.943 -316.994 521.255 -439.933 619.703 -462.239C720.156 -484.999 805.045 -387.319 897.558 -342.04Z" stroke="white" stroke-opacity="0.06" stroke-width="5.73698"/>
<path fill-rule="evenodd" clip-rule="evenodd" d="M727.169 -226.21C794.49 -193.261 854.665 -156.275 918.394 -116.825C1001.19 -65.5709 1114.63 -47.0934 1157.65 40.2683C1201.57 129.475 1181.31 241.799 1139.37 331.958C1099.16 418.423 1015.91 474.176 933.507 522.169C859.432 565.309 777.277 596.329 691.631 592.723C611.814 589.362 545.416 540.02 474.702 502.85C404.427 465.911 335.858 431.181 278.963 375.809C205.036 303.861 100.263 237.203 95.8508 134.139C91.4677 31.7586 197.025 -37.3001 257.743 -119.848C317.554 -201.164 350.866 -324.103 449.314 -346.409C549.767 -369.169 634.656 -271.489 727.169 -226.21Z" stroke="white" stroke-opacity="0.06" stroke-width="5.73698"/>
<path fill-rule="evenodd" clip-rule="evenodd" d="M777.627 -256.711C844.948 -223.762 905.123 -186.776 968.852 -147.326C1051.65 -96.0719 1165.09 -77.5945 1208.11 9.76728C1252.03 98.9735 1231.77 211.298 1189.83 301.457C1149.62 387.922 1066.37 443.675 983.965 491.668C909.89 534.808 827.735 565.828 742.089 562.222C662.272 558.861 595.874 509.519 525.16 472.349C454.885 435.41 386.316 400.68 329.421 345.308C255.494 273.36 150.721 206.702 146.309 103.638C141.926 1.2576 247.483 -67.8012 308.201 -150.35C368.012 -231.665 401.324 -354.604 499.772 -376.91C600.225 -399.671 685.114 -301.99 777.627 -256.711Z" stroke="white" stroke-opacity="0.06" stroke-width="5.73698"/>
<path fill-rule="evenodd" clip-rule="evenodd" d="M835.896 -293.103C903.217 -260.154 963.392 -223.168 1027.12 -183.718C1109.92 -132.464 1223.36 -113.987 1266.38 -26.6247C1310.3 62.5815 1290.04 174.906 1248.1 265.064C1207.88 351.53 1124.64 407.283 1042.23 455.275C968.159 498.416 886.004 529.436 800.358 525.83C720.541 522.469 654.143 473.127 583.429 435.957C513.154 399.018 444.585 364.288 387.69 308.916C313.763 236.968 208.99 170.31 204.578 67.2456C200.195 -35.1344 305.752 -104.193 366.47 -186.742C426.281 -268.057 459.593 -390.996 558.041 -413.302C658.494 -436.063 743.383 -338.382 835.896 -293.103Z" stroke="white" stroke-opacity="0.06" stroke-width="5.73698"/>
<path fill-rule="evenodd" clip-rule="evenodd" d="M875.811 -322.841C943.131 -289.892 1003.31 -252.907 1067.04 -213.457C1149.83 -162.202 1263.27 -143.725 1306.29 -56.3632C1350.21 32.8431 1329.95 145.167 1288.02 235.326C1247.8 321.792 1164.55 377.545 1082.15 425.537C1008.07 468.678 925.918 499.698 840.273 496.092C760.456 492.731 694.058 443.389 623.344 406.219C553.069 369.28 484.499 334.55 427.605 279.178C353.678 207.23 248.905 140.571 244.492 37.5072C240.109 -64.8728 345.667 -133.932 406.384 -216.48C466.196 -297.796 499.508 -420.734 597.956 -443.041C698.409 -465.801 783.298 -368.12 875.811 -322.841Z" stroke="white" stroke-opacity="0.06" stroke-width="5.73698"/>
<path fill-rule="evenodd" clip-rule="evenodd" d="M924.729 -358.913C992.05 -325.964 1052.23 -288.978 1115.95 -249.528C1198.75 -198.274 1312.19 -179.797 1355.21 -92.4347C1399.13 -3.22849 1378.87 109.096 1336.93 199.255C1296.72 285.72 1213.47 341.473 1131.07 389.465C1056.99 432.606 974.837 463.626 889.191 460.02C809.374 456.659 742.976 407.317 672.262 370.147C601.987 333.208 533.418 298.478 476.523 243.106C402.596 171.158 297.823 104.5 293.411 1.43563C289.028 -100.944 394.585 -170.003 455.303 -252.552C515.114 -333.867 548.426 -456.806 646.874 -479.112C747.327 -501.873 832.216 -404.192 924.729 -358.913Z" stroke="white" stroke-opacity="0.06" stroke-width="5.73698"/>
</svg>
