<svg width="1291" height="1146" viewBox="0 0 1291 1146" fill="none" xmlns="http://www.w3.org/2000/svg">
<path fill-rule="evenodd" clip-rule="evenodd" d="M611.302 324.814C670.093 353.588 722.644 385.888 778.298 420.339C850.604 465.099 949.67 481.235 987.236 557.527C1025.6 635.43 1007.9 733.522 971.278 812.257C936.157 887.766 863.458 936.455 791.495 978.366C726.807 1016.04 655.061 1043.13 580.268 1039.98C510.564 1037.05 452.579 993.956 390.825 961.496C329.455 929.237 269.574 898.908 219.888 850.552C155.329 787.72 63.8312 729.508 59.9779 639.503C56.1502 550.096 148.332 489.787 201.357 417.699C253.589 346.686 282.68 239.325 368.654 219.845C456.379 199.969 530.512 285.272 611.302 324.814Z" stroke="white" stroke-opacity="0.05" stroke-width="4"/>
<path fill-rule="evenodd" clip-rule="evenodd" d="M665.653 298.178C724.444 326.952 776.994 359.251 832.648 393.703C904.955 438.463 1004.02 454.599 1041.59 530.891C1079.95 608.794 1062.25 706.885 1025.63 785.621C990.507 861.13 917.809 909.819 845.846 951.73C781.157 989.405 709.412 1016.49 634.618 1013.34C564.915 1010.41 506.93 967.32 445.176 934.86C383.805 902.601 323.925 872.272 274.239 823.916C209.679 761.084 118.182 702.872 114.329 612.867C110.501 523.46 202.683 463.151 255.708 391.062C307.94 320.05 337.031 212.689 423.005 193.209C510.73 173.333 584.862 258.636 665.653 298.178Z" stroke="white" stroke-opacity="0.05" stroke-width="4"/>
<path fill-rule="evenodd" clip-rule="evenodd" d="M716.539 266.397C775.329 295.171 827.88 327.47 883.534 361.922C955.841 406.682 1054.91 422.818 1092.47 499.11C1130.83 577.013 1113.14 675.105 1076.51 753.84C1041.39 829.349 968.694 878.038 896.731 919.949C832.043 957.624 760.297 984.713 685.504 981.564C615.8 978.629 557.815 935.539 496.062 903.079C434.691 870.82 374.81 840.491 325.124 792.135C260.565 729.303 169.068 671.091 165.214 581.086C161.387 491.679 253.569 431.37 306.593 359.282C358.826 288.269 387.917 180.908 473.891 161.428C561.615 141.552 635.748 226.855 716.539 266.397Z" stroke="white" stroke-opacity="0.05" stroke-width="4"/>
<path fill-rule="evenodd" clip-rule="evenodd" d="M751.396 240.427C810.186 269.201 862.737 301.5 918.391 335.951C990.698 380.711 1089.76 396.848 1127.33 473.14C1165.69 551.043 1147.99 649.134 1111.37 727.869C1076.25 803.379 1003.55 852.068 931.589 893.979C866.9 931.653 795.155 958.743 720.361 955.593C650.658 952.658 592.673 909.568 530.919 877.108C469.548 844.85 409.667 814.52 359.982 766.164C295.422 703.333 203.925 645.121 200.071 555.116C196.244 465.708 288.426 405.4 341.45 333.311C393.683 262.299 422.774 154.938 508.748 135.458C596.472 115.581 670.605 200.885 751.396 240.427Z" stroke="white" stroke-opacity="0.05" stroke-width="4"/>
<path fill-rule="evenodd" clip-rule="evenodd" d="M803.716 208.926C862.507 237.7 915.058 269.999 970.712 304.451C1043.02 349.211 1142.08 365.347 1179.65 441.639C1218.01 519.542 1200.31 617.633 1163.69 696.368C1128.57 771.878 1055.87 820.567 983.909 862.478C919.221 900.152 847.475 927.242 772.682 924.093C702.978 921.158 644.993 878.068 583.239 845.608C521.869 813.349 461.988 783.02 412.302 734.664C347.743 671.832 256.245 613.62 252.392 523.615C248.564 434.207 340.746 373.899 393.771 301.81C446.003 230.798 475.095 123.437 561.068 103.957C648.793 84.0806 722.926 169.384 803.716 208.926Z" stroke="white" stroke-opacity="0.05" stroke-width="4"/>
<path fill-rule="evenodd" clip-rule="evenodd" d="M635.03 310.079C693.821 338.853 746.372 371.152 802.026 405.604C874.333 450.363 973.398 466.5 1010.96 542.792C1049.32 620.695 1031.63 718.786 995.006 797.521C959.885 873.031 887.186 921.72 815.223 963.631C750.535 1001.31 678.789 1028.39 603.996 1025.25C534.292 1022.31 476.307 979.221 414.553 946.76C353.183 914.502 293.302 884.172 243.616 835.816C179.057 772.985 87.5592 714.773 83.706 624.768C79.8783 535.36 172.06 475.052 225.085 402.963C277.317 331.951 306.408 224.59 392.382 205.11C480.107 185.234 554.24 270.537 635.03 310.079Z" stroke="white" stroke-opacity="0.05" stroke-width="4"/>
<path fill-rule="evenodd" clip-rule="evenodd" d="M689.381 283.443C748.171 312.217 800.722 344.516 856.376 378.967C928.683 423.727 1027.75 439.863 1065.31 516.156C1103.67 594.059 1085.98 692.15 1049.36 770.885C1014.24 846.395 941.537 895.084 869.574 936.995C804.885 974.669 733.14 1001.76 658.346 998.609C588.643 995.674 530.658 952.584 468.904 920.124C407.533 887.866 347.652 857.536 297.967 809.18C233.407 746.349 141.91 688.137 138.057 598.132C134.229 508.724 226.411 448.416 279.435 376.327C331.668 305.315 360.759 197.954 446.733 178.474C534.458 158.597 608.59 243.901 689.381 283.443Z" stroke="white" stroke-opacity="0.05" stroke-width="4"/>
<path fill-rule="evenodd" clip-rule="evenodd" d="M740.267 251.662C799.057 280.436 851.608 312.735 907.262 347.186C979.569 391.946 1078.63 408.083 1116.2 484.375C1154.56 562.278 1136.86 660.369 1100.24 739.104C1065.12 814.614 992.422 863.303 920.459 905.214C855.771 942.888 784.025 969.978 709.232 966.828C639.528 963.893 581.543 920.803 519.79 888.343C458.419 856.085 398.538 825.755 348.852 777.399C284.293 714.568 192.796 656.356 188.942 566.351C185.115 476.943 277.297 416.635 330.321 344.546C382.554 273.534 411.645 166.173 497.619 146.693C585.343 126.816 659.476 212.12 740.267 251.662Z" stroke="white" stroke-opacity="0.05" stroke-width="4"/>
<path fill-rule="evenodd" clip-rule="evenodd" d="M775.124 225.692C833.914 254.466 886.465 286.765 942.119 321.216C1014.43 365.976 1113.49 382.112 1151.06 458.405C1189.42 536.308 1171.72 634.399 1135.1 713.134C1099.98 788.644 1027.28 837.332 955.316 879.244C890.628 916.918 818.882 944.007 744.089 940.858C674.385 937.923 616.4 894.833 554.647 862.373C493.276 830.114 433.395 799.785 383.709 751.429C319.15 688.598 227.653 630.385 223.799 540.381C219.972 450.973 312.154 390.665 365.178 318.576C417.411 247.564 446.502 140.202 532.476 120.723C620.2 100.846 694.333 186.15 775.124 225.692Z" stroke="white" stroke-opacity="0.05" stroke-width="4"/>
<path fill-rule="evenodd" clip-rule="evenodd" d="M827.444 194.19C886.235 222.965 938.786 255.264 994.44 289.715C1066.75 334.475 1165.81 350.611 1203.38 426.903C1241.74 504.806 1224.04 602.898 1187.42 681.633C1152.3 757.143 1079.6 805.831 1007.64 847.742C942.949 885.417 871.203 912.506 796.41 909.357C726.706 906.422 668.721 863.332 606.967 830.872C545.597 798.613 485.716 768.284 436.03 719.928C371.471 657.097 279.973 598.884 276.12 508.88C272.292 419.472 364.475 359.164 417.499 287.075C469.731 216.063 498.823 108.701 584.796 89.2216C672.521 69.3451 746.654 154.649 827.444 194.19Z" stroke="white" stroke-opacity="0.05" stroke-width="4"/>
</svg>
