<svg width="26" height="33" viewBox="0 0 26 33" fill="none" xmlns="http://www.w3.org/2000/svg">
<path fill-rule="evenodd" clip-rule="evenodd" d="M12.6359 31.9217C12.6363 31.9219 12.6366 31.922 13.141 31.1934L12.6359 31.9217ZM13.6461 31.9217L13.6492 31.9194L13.6572 31.9137L13.6851 31.8933C13.709 31.8759 13.7434 31.8506 13.7876 31.8176C13.8759 31.7515 14.0034 31.6548 14.1646 31.5289C14.4867 31.277 14.9435 30.9076 15.4903 30.4321C16.5827 29.4822 18.0399 28.1033 19.4995 26.3859C22.3976 22.976 25.4085 18.1095 25.4085 12.5459C25.4085 9.22022 24.1172 6.02968 21.8173 3.67645C19.517 1.32308 16.3962 0 13.141 0C9.88584 0 6.76499 1.32308 4.46475 3.67645C2.16477 6.02968 0.873535 9.22022 0.873535 12.5459C0.873535 18.1095 3.88441 22.976 6.78252 26.3859C8.24208 28.1033 9.69937 29.4822 10.7917 30.4321C11.3385 30.9076 11.7954 31.277 12.1175 31.5289C12.2786 31.6548 12.4061 31.7515 12.4944 31.8176C12.5386 31.8506 12.573 31.8759 12.5969 31.8933L12.6248 31.9137L12.6328 31.9194L12.6359 31.9217C12.9385 32.1383 13.3435 32.1383 13.6461 31.9217ZM13.141 31.1934L13.6461 31.9217C13.6457 31.9219 13.6455 31.922 13.141 31.1934ZM17.5223 12.4773C17.5223 14.9384 15.5607 16.9335 13.141 16.9335C10.7213 16.9335 8.75977 14.9384 8.75977 12.4773C8.75977 10.0163 10.7213 8.02115 13.141 8.02115C15.5607 8.02115 17.5223 10.0163 17.5223 12.4773Z" fill="white"/>
</svg>
