<svg width="21" height="16" viewBox="0 0 21 16" fill="none" xmlns="http://www.w3.org/2000/svg">
<path d="M18.5014 0.137695H2.34824C1.23771 0.137695 0.329102 1.0002 0.329102 2.05436V13.5544C0.329102 14.6085 1.23771 15.471 2.34824 15.471H18.5014C19.6119 15.471 20.5205 14.6085 20.5205 13.5544V2.05436C20.5205 1.0002 19.6119 0.137695 18.5014 0.137695ZM18.0975 4.21061L11.4949 8.13019C10.8387 8.52311 10.0109 8.52311 9.35465 8.13019L2.75207 4.21061C2.49968 4.05728 2.34824 3.79853 2.34824 3.52061C2.34824 2.87853 3.08523 2.4952 3.66068 2.83061L10.4248 6.84603L17.1889 2.83061C17.7644 2.4952 18.5014 2.87853 18.5014 3.52061C18.5014 3.79853 18.3499 4.05728 18.0975 4.21061Z" fill="white"/>
</svg>
