<svg width="27" height="26" viewBox="0 0 27 26" fill="none" xmlns="http://www.w3.org/2000/svg">
<path d="M26.7781 8.03821C26.7619 6.97026 26.5555 5.91079 26.1603 4.91197C25.4687 3.20637 24.0606 1.85769 22.2778 1.19745C21.2471 0.826424 20.1574 0.627507 19.0545 0.604935C17.636 0.544273 17.1862 0.527344 13.5854 0.527344C9.98455 0.527344 9.52302 0.527344 8.11482 0.604935C7.01334 0.627507 5.92365 0.826424 4.89294 1.19745C3.11022 1.85769 1.70055 3.20637 1.01047 4.91197C0.622662 5.89809 0.413277 6.94064 0.392633 7.99447C0.329228 9.35303 0.310059 9.78331 0.310059 13.2284C0.310059 16.6734 0.310059 17.1136 0.392633 18.4623C0.414751 19.5175 0.622662 20.5587 1.01047 21.5476C1.70203 23.2518 3.11022 24.6005 4.89442 25.2607C5.9207 25.6444 7.01039 25.8617 8.1163 25.8955C9.53629 25.9562 9.98602 25.9745 13.5869 25.9745C17.1877 25.9745 17.6492 25.9745 19.0574 25.8955C20.1589 25.8744 21.2486 25.6755 22.2808 25.3044C24.0635 24.6428 25.4717 23.2941 26.1633 21.5899C26.5511 20.6024 26.759 19.5613 26.7811 18.5046C26.8445 17.1475 26.8637 16.7172 26.8637 13.2707C26.8607 9.82563 26.8607 9.3883 26.7781 8.03821ZM13.5765 19.7432C9.81055 19.7432 6.75972 16.8244 6.75972 13.2213C6.75972 9.61825 9.81055 6.6994 13.5765 6.6994C17.3396 6.6994 20.3934 9.61825 20.3934 13.2213C20.3934 16.8244 17.3396 19.7432 13.5765 19.7432ZM20.6647 7.97895C19.7844 7.97895 19.0751 7.29897 19.0751 6.45816C19.0751 5.61735 19.7844 4.93737 20.6647 4.93737C21.542 4.93737 22.2528 5.61735 22.2528 6.45816C22.2528 7.29897 21.542 7.97895 20.6647 7.97895Z" fill="white"/>
<path d="M13.5765 17.4579C16.022 17.4579 18.0046 15.5611 18.0046 13.2214C18.0046 10.8816 16.022 8.98486 13.5765 8.98486C11.1309 8.98486 9.14844 10.8816 9.14844 13.2214C9.14844 15.5611 11.1309 17.4579 13.5765 17.4579Z" fill="white"/>
</svg>
