<svg width="187" height="45" viewBox="0 0 187 45" fill="none" xmlns="http://www.w3.org/2000/svg">
<path d="M27.2484 1.77588C27.5634 0.550616 28.9013 -0.187662 30.0879 0.0735752C30.7332 -0.0201296 31.3938 -0.0258083 32.0405 0.0650569C33.2354 -0.0357467 34.4414 0.0139454 35.6405 0.0253036C35.8626 0.090613 36.0957 0.111909 36.3275 0.097711C36.5454 -0.0101914 36.7896 -0.000252711 37.0255 0.0182043C37.428 0.216972 37.8582 -0.0314879 38.2773 0.00684588C40.0357 0.0210436 41.7927 -0.00309086 43.551 0.0196254C43.9077 0.204195 44.2921 0.00258795 44.6654 0.00826703C45.401 0.021045 46.1407 -0.031486 46.8735 0.0664781C47.3356 0.0011687 47.8116 -0.0471048 48.2682 0.0806745C48.6762 -0.0300675 49.1009 0.0096868 49.5186 0.00826703C53.6377 0.0096868 57.7567 0.0096862 61.8757 0.00542689C62.843 0.0224641 63.8145 -0.0471054 64.7776 0.0778344C69.1451 0.275182 73.5403 1.90934 76.7336 5.02147C79.9894 8.14071 81.8491 12.5832 82.2696 17.0867C82.9094 23.8391 80.725 30.8002 76.4089 35.9483C72.609 40.5526 67.0453 43.6122 61.1735 44.1958C60.4005 44.3775 59.5983 44.2454 58.8184 44.3945C54.7909 44.4116 50.7635 44.3931 46.7347 44.403C46.4099 44.403 46.0782 44.4272 45.7632 44.325C45.4454 44.413 45.1054 44.4598 44.7945 44.3221C44.6918 44.3235 44.4878 44.3235 44.3851 44.325C44.1173 44.4613 43.8286 44.3534 43.5524 44.3377C42.9529 44.4371 42.345 44.4201 41.7469 44.3377C41.0571 44.4158 40.3466 44.4641 39.6638 44.325C39.3043 44.4882 38.9255 44.2753 38.5577 44.3832C38.0858 44.4953 37.6168 44.2369 37.1477 44.3619C36.5995 44.4897 36.0513 44.325 35.5017 44.3136C34.7287 44.5564 33.9238 44.2454 33.1397 44.3974C32.6872 44.1617 32.2015 44.4769 31.7324 44.3534C31.1079 44.3548 30.4071 44.3931 29.8797 43.9856C29.3565 43.6037 28.8902 43.05 28.8499 42.3657C28.7542 42.0902 28.7528 41.7921 28.8472 41.5167C28.9873 40.4504 29.9852 39.5034 31.0593 39.5701C33.5574 39.5701 36.0569 39.5701 38.5549 39.5701C39.4348 39.5517 40.3327 39.6482 41.1945 39.4083C42.4949 39.0108 43.2846 37.4022 42.76 36.1045C42.3617 35.2115 41.4874 34.4831 40.4965 34.4987C31.6575 34.503 22.8185 34.5001 13.9809 34.5016C13.2745 34.5229 12.5903 34.1495 12.156 33.5915C11.5814 32.8774 11.5065 31.7997 11.895 30.9805C12.2864 30.194 13.1122 29.6247 13.9893 29.6488C20.9713 29.6488 27.9548 29.6559 34.9369 29.6502C36.0111 29.6133 36.9048 28.7586 37.206 27.7335C37.2448 27.2153 37.2948 26.663 37.0644 26.1803C36.6703 25.2007 35.6724 24.6143 34.6593 24.5788C31.5159 24.5703 28.3725 24.5745 25.2305 24.5774C24.2424 24.6441 23.3431 23.8292 23.0878 22.8864C23.0267 22.2362 22.9573 21.5064 23.3362 20.9357C23.7372 20.2826 24.4589 19.7686 25.2375 19.8325C30.8317 19.8382 36.426 19.8339 42.0203 19.8354C43.0653 19.8197 44.1381 19.922 45.1512 19.6068C46.0491 19.2135 46.7694 18.2693 46.6972 17.2358C46.743 15.8926 45.5273 14.7256 44.2338 14.7583C36.0457 14.7554 27.8577 14.7597 19.6696 14.7597C18.6287 14.7767 17.6184 13.9987 17.3852 12.9566C17.3589 12.3532 17.2548 11.6731 17.6031 11.1421C18.0153 10.3953 18.8327 9.86857 19.6807 9.90974C24.724 9.90406 29.7673 9.91258 34.8106 9.90832C35.7238 9.8998 36.5634 9.31202 36.9742 8.48855C37.3225 7.86101 37.2712 7.1057 37.0602 6.44266C36.6272 5.49568 35.6821 4.8582 34.6593 4.83974C32.9065 4.83974 31.1523 4.83974 29.3995 4.83974C28.4128 4.90505 27.5121 4.10004 27.254 3.15874C27.1901 2.70157 27.1943 2.23304 27.2484 1.77588ZM52.2165 11.1904C51.8099 15.3972 51.2867 19.5997 50.8371 23.8064C50.6011 25.6351 50.4762 27.4865 50.1834 29.3024C50.1653 30.6554 49.8073 31.9786 49.842 33.3345C50.2417 33.3246 50.6455 33.3402 51.0424 33.2735C51.592 33.3686 52.1499 33.3033 52.705 33.3203C53.6765 33.3033 54.6535 33.37 55.6222 33.2479C56.4049 33.3587 57.2016 33.3445 57.9843 33.2408C59.2291 33.2735 60.4865 33.2749 61.7189 33.0577C64.8012 32.5522 67.6448 30.6796 69.3324 27.9877C70.7563 25.7388 71.4807 23.0369 71.3989 20.3607C71.3933 17.886 70.5204 15.3404 68.7343 13.6224C67.2271 12.1516 65.1662 11.4005 63.1178 11.2131C61.4566 11.1236 59.7926 11.2003 58.13 11.1606C57.7109 11.0711 57.2918 11.1038 56.874 11.1677C55.854 11.0299 54.8215 11.1038 53.7986 11.1109C53.2727 11.1137 52.7203 10.9902 52.2165 11.1904Z" fill="url(#paint0_linear_1074_76)"/>
<path d="M5.85013 12.3248C7.86801 12.2793 9.89005 12.3162 11.9093 12.3106C13.3249 12.2822 14.4768 13.7985 14.1687 15.1984C13.9758 16.2774 12.9932 17.1576 11.9135 17.1591C10.0108 17.1619 8.10948 17.1576 6.20679 17.1647C5.34219 17.1761 4.51922 16.6195 4.13063 15.8401C3.83225 15.319 3.86556 14.6858 3.94327 14.1108C4.17365 13.2107 4.94666 12.471 5.85013 12.3248Z" fill="url(#paint1_linear_1074_76)"/>
<path d="M0.221047 23.5467C0.55551 22.824 1.26191 22.2575 2.05712 22.2135C2.70245 22.0346 3.35056 22.3342 3.99867 22.2093C5.19635 22.0815 6.4093 22.3754 7.60421 22.1638C8.01361 22.2817 8.43689 22.2377 8.85185 22.1809C9.54298 22.2419 10.248 22.2888 10.935 22.1681C11.1195 22.2036 11.3041 22.2277 11.4929 22.2362C13.5704 22.2263 15.648 22.2377 17.7241 22.232C18.654 22.1397 19.538 22.8254 19.8669 23.6887C20.3235 24.7407 19.8905 26.0838 18.9218 26.6673C18.2959 27.1415 17.4868 26.93 16.7665 26.9754C15.4259 27.0166 14.0728 26.8917 12.7391 27.0436C12.3297 26.9314 11.9078 26.9669 11.4956 27.0351C10.205 26.9641 8.89626 26.9172 7.60421 27.0436C6.96165 26.9626 6.30244 26.9144 5.66266 27.0436C5.2935 26.913 4.91185 27.1131 4.53992 27.0067C4.16937 26.9059 3.79744 27.0904 3.42689 27.0038C2.66359 26.8817 1.80315 27.1813 1.12729 26.6886C0.0878173 26.0824 -0.278565 24.6314 0.221047 23.5467Z" fill="url(#paint2_linear_1074_76)"/>
<g clip-path="url(#clip0_1074_76)">
<path d="M104.138 5.86673H99.3336V17.877H104.138C107.449 17.877 109.971 15.2691 109.971 11.8719C109.971 8.47469 107.449 5.86673 104.138 5.86673ZM104.138 15.2348H102.079V8.50901H104.138C106.025 8.50901 107.329 9.81297 107.329 11.8719C107.329 13.9308 106.025 15.2348 104.138 15.2348ZM117.657 9.29824V10.1047C117.091 9.45268 116.25 9.05804 115.101 9.05804C112.853 9.05804 111 11.0312 111 13.5877C111 16.1441 112.853 18.1172 115.101 18.1172C116.25 18.1172 117.091 17.7226 117.657 17.0706V17.877H120.231V9.29824H117.657ZM115.615 15.6809C114.432 15.6809 113.574 14.8745 113.574 13.5877C113.574 12.3008 114.432 11.4944 115.615 11.4944C116.799 11.4944 117.657 12.3008 117.657 13.5877C117.657 14.8745 116.799 15.6809 115.615 15.6809ZM131.641 7.92564V5.45495C128.793 5.28338 127.472 6.72461 127.472 9.12667V9.29824H125.242C125.242 8.3031 125.876 8.01144 126.837 8.09721V5.62653C123.989 5.45495 122.668 6.89619 122.668 9.29824H121.518V11.7689H122.668V17.877H125.242V11.7689H127.472V17.877H130.046V11.7689H131.641V9.29824H130.046V9.12667C130.046 8.13153 130.681 7.83985 131.641 7.92564ZM138.568 9.29824V10.1047C138.002 9.45268 137.161 9.05804 136.011 9.05804C133.764 9.05804 131.911 11.0312 131.911 13.5877C131.911 16.1441 133.764 18.1172 136.011 18.1172C137.161 18.1172 138.002 17.7226 138.568 17.0706V17.877H141.142V9.29824H138.568ZM136.526 15.6809C135.342 15.6809 134.485 14.8745 134.485 13.5877C134.485 12.3008 135.342 11.4944 136.526 11.4944C137.71 11.4944 138.568 12.3008 138.568 13.5877C138.568 14.8745 137.71 15.6809 136.526 15.6809ZM145.382 11.8033C145.382 11.4944 145.657 11.3228 146.103 11.3228C146.669 11.3228 147.012 11.6317 147.253 12.0778L149.449 10.8939C148.728 9.67572 147.493 9.05804 146.103 9.05804C144.319 9.05804 142.74 10.0017 142.74 11.8719C142.74 14.8402 146.961 14.3426 146.961 15.2863C146.961 15.6294 146.652 15.8181 146.034 15.8181C145.279 15.8181 144.799 15.4578 144.576 14.8058L142.345 16.0755C143.015 17.4653 144.319 18.1172 146.034 18.1172C147.887 18.1172 149.603 17.2765 149.603 15.3034C149.603 12.1293 145.382 12.7812 145.382 11.8033ZM154.922 18.1172C156.604 18.1172 158.062 17.2422 158.8 15.9039L156.552 14.6171C156.278 15.2176 155.643 15.5779 154.888 15.5779C153.773 15.5779 152.949 14.7715 152.949 13.5877C152.949 12.4038 153.773 11.5974 154.888 11.5974C155.643 11.5974 156.26 11.9577 156.552 12.5582L158.8 11.2542C158.062 9.93309 156.586 9.05804 154.922 9.05804C152.314 9.05804 150.375 11.0312 150.375 13.5877C150.375 16.1441 152.314 18.1172 154.922 18.1172ZM162.493 10.8253V9.29824H159.919V17.877H162.493V13.9994C162.493 12.3008 164.003 11.8719 165.067 12.0435V9.12667C163.986 9.12667 162.836 9.67572 162.493 10.8253ZM167.556 8.54331C168.397 8.54331 169.101 7.83985 169.101 6.99913C169.101 6.15841 168.397 5.45495 167.556 5.45495C166.716 5.45495 166.012 6.15841 166.012 6.99913C166.012 7.83985 166.716 8.54331 167.556 8.54331ZM166.27 17.877H168.843V9.29824H166.27V17.877ZM175.857 9.05804C174.707 9.05804 173.866 9.45268 173.3 10.1047V9.29824H170.727V21.3086H173.3V17.0706C173.866 17.7226 174.707 18.1172 175.857 18.1172C178.104 18.1172 179.957 16.1441 179.957 13.5877C179.957 11.0312 178.104 9.05804 175.857 9.05804ZM175.342 15.6809C174.158 15.6809 173.3 14.8745 173.3 13.5877C173.3 12.3008 174.158 11.4944 175.342 11.4944C176.526 11.4944 177.384 12.3008 177.384 13.5877C177.384 14.8745 176.526 15.6809 175.342 15.6809ZM186.276 11.7689V9.29824H184.509V6.89619L181.935 7.66828V9.29824H180.563V11.7689H181.935V14.8058C181.935 17.2079 182.913 18.2202 186.276 17.877V15.5436C185.144 15.6122 184.509 15.5436 184.509 14.8058V11.7689H186.276ZM107.501 38.7806L106.523 36.0868H101.118L100.14 38.7806H98.4414L102.92 26.7702H104.721L109.199 38.7806H107.501ZM101.667 34.5941H105.974L103.812 28.6746L101.667 34.5941ZM111.954 31.6429C112.446 30.5791 113.338 30.0473 114.631 30.0473V31.6086C113.899 31.5744 113.27 31.7687 112.744 32.1921C112.217 32.6152 111.954 33.2958 111.954 34.2337V38.7806H110.462V30.2017H111.954V31.6429ZM120.758 31.6429H118.476V36.2926C118.476 36.716 118.556 37.0189 118.717 37.202C118.888 37.3736 119.146 37.465 119.489 37.4765C119.832 37.4765 120.255 37.465 120.758 37.4423V38.7806C119.454 38.9522 118.499 38.849 117.893 38.4716C117.287 38.0827 116.984 37.3564 116.984 36.2926V31.6429H115.285V30.2017H116.984V28.2457L118.476 27.7996V30.2017H120.758V31.6429ZM132.682 30.2017H134.243L131.584 38.7806H130.056L128.049 32.4321L126.042 38.7806H124.515L121.855 30.2017H123.417L125.304 36.7215L127.328 30.2017H128.77L130.794 36.7387L132.682 30.2017ZM143.02 37.6996C142.139 38.5688 141.069 39.0036 139.811 39.0036C138.553 39.0036 137.483 38.5688 136.603 37.6996C135.733 36.8303 135.299 35.7608 135.299 34.491C135.299 33.2214 135.733 32.1519 136.603 31.2827C137.483 30.4132 138.553 29.9786 139.811 29.9786C141.069 29.9786 142.139 30.4132 143.02 31.2827C143.9 32.1519 144.341 33.2214 144.341 34.491C144.341 35.7608 143.9 36.8303 143.02 37.6996ZM139.811 37.5452C140.669 37.5452 141.39 37.2535 141.973 36.67C142.556 36.0868 142.848 35.3604 142.848 34.491C142.848 33.6218 142.556 32.8954 141.973 32.312C141.39 31.7288 140.669 31.437 139.811 31.437C138.965 31.437 138.25 31.7288 137.666 32.312C137.083 32.8954 136.792 33.6218 136.792 34.491C136.792 35.3604 137.083 36.0868 137.666 36.67C138.25 37.2535 138.965 37.5452 139.811 37.5452ZM147.593 31.6429C148.085 30.5791 148.977 30.0473 150.27 30.0473V31.6086C149.538 31.5744 148.909 31.7687 148.382 32.1921C147.856 32.6152 147.593 33.2958 147.593 34.2337V38.7806H146.1V30.2017H147.593V31.6429ZM158.988 38.7806H157.135L153.223 34.7141V38.7806H151.73V26.7702H153.223V33.9935L156.929 30.2017H158.851L154.75 34.3539L158.988 38.7806ZM161.663 32.518C161.663 32.8497 161.829 33.1185 162.16 33.3243C162.492 33.5189 162.893 33.679 163.362 33.8049C163.83 33.9193 164.3 34.0564 164.768 34.2165C165.237 34.3654 165.638 34.6284 165.97 35.0058C166.301 35.3719 166.467 35.8465 166.467 36.43C166.467 37.2078 166.164 37.8312 165.558 38.3C164.963 38.7691 164.197 39.0036 163.258 39.0036C162.424 39.0036 161.709 38.8205 161.114 38.4544C160.519 38.0885 160.096 37.6024 159.844 36.9962L161.131 36.2584C161.268 36.67 161.526 36.9962 161.903 37.2362C162.281 37.4765 162.732 37.5967 163.258 37.5967C163.751 37.5967 164.156 37.505 164.477 37.3222C164.797 37.1276 164.957 36.8303 164.957 36.43C164.957 36.0983 164.791 35.835 164.46 35.6407C164.128 35.4346 163.728 35.2745 163.258 35.1601C162.79 35.0345 162.321 34.8914 161.852 34.7313C161.383 34.5712 160.982 34.3082 160.651 33.942C160.319 33.5761 160.153 33.107 160.153 32.535C160.153 31.7917 160.439 31.1798 161.011 30.6992C161.594 30.2189 162.321 29.9786 163.19 29.9786C163.888 29.9786 164.505 30.1387 165.043 30.4592C165.592 30.7679 166.004 31.2025 166.278 31.763L165.026 32.4666C164.717 31.7345 164.105 31.3683 163.19 31.3683C162.767 31.3683 162.407 31.4713 162.109 31.6773C161.812 31.8716 161.663 32.1519 161.663 32.518ZM169.178 38.9692C168.869 38.9692 168.606 38.8605 168.389 38.6432C168.171 38.4259 168.063 38.1629 168.063 37.8539C168.063 37.5452 168.171 37.282 168.389 37.0647C168.606 36.8473 168.869 36.7387 169.178 36.7387C169.498 36.7387 169.762 36.8473 169.967 37.0647C170.185 37.282 170.293 37.5452 170.293 37.8539C170.293 38.1629 170.185 38.4259 169.967 38.6432C169.762 38.8605 169.498 38.9692 169.178 38.9692Z" fill="url(#paint3_linear_1074_76)"/>
</g>
<defs>
<linearGradient id="paint0_linear_1074_76" x1="47.0163" y1="0" x2="47.0163" y2="44.4133" gradientUnits="userSpaceOnUse">
<stop stop-color="#FD0091"/>
<stop offset="0.0001" stop-color="#FD0091"/>
<stop offset="1" stop-color="#FF7732"/>
</linearGradient>
<linearGradient id="paint1_linear_1074_76" x1="9.05429" y1="12.3018" x2="9.05429" y2="17.1649" gradientUnits="userSpaceOnUse">
<stop stop-color="#FD0091"/>
<stop offset="0.0001" stop-color="#FD0091"/>
<stop offset="1" stop-color="#FF7732"/>
</linearGradient>
<linearGradient id="paint2_linear_1074_76" x1="10.0246" y1="22.1549" x2="10.0246" y2="27.0436" gradientUnits="userSpaceOnUse">
<stop stop-color="#FD0091"/>
<stop offset="0.0001" stop-color="#FD0091"/>
<stop offset="1" stop-color="#FF7732"/>
</linearGradient>
<linearGradient id="paint3_linear_1074_76" x1="142.866" y1="1.56776" x2="142.866" y2="44.9384" gradientUnits="userSpaceOnUse">
<stop stop-color="white"/>
<stop offset="1" stop-color="#A4A4A4"/>
</linearGradient>
<clipPath id="clip0_1074_76">
<rect width="87.9782" height="33.9968" fill="white" transform="translate(98.3755 5.20825)"/>
</clipPath>
</defs>
</svg>
