<svg width="278" height="226" viewBox="0 0 278 226" fill="none" xmlns="http://www.w3.org/2000/svg">
<path d="M183.112 116.147C192.337 126.038 198.901 139.942 205.033 151.534C232.798 204.201 298.288 213.604 351.767 192.63C371.903 184.747 387.084 174.636 398.345 155.553C406.659 141.428 408.393 122.464 398.534 109.32C392.173 100.816 382.127 95.9558 373.713 89.4511C337.997 61.7079 384.266 36.1023 406.545 20.8938C423.586 9.26467 432.639 -4.13053 432.764 -25.3876C432.895 -58.064 401.936 -86.2103 375.301 -100.237C335.643 -121.12 292.279 -122.18 274.983 -120.133C240.246 -116.037 206.8 -103.407 176.816 -85.9349C155.651 -73.5933 135.799 -58.8974 113.366 -48.9595C99.7369 -42.9208 85.3238 -38.7221 71.6757 -32.7131C58.0276 -26.704 44.8553 -18.5848 36.1991 -6.55699C23.7307 10.7782 25.1572 35.6353 38.0111 52.5542C50.8651 69.4731 72.2765 79.9258 92.3764 84.9958C126.299 93.5363 159.787 91.1356 183.112 116.147Z" fill="#0F0F44"/>
</svg>
