<svg width="28" height="27" viewBox="0 0 28 27" fill="none" xmlns="http://www.w3.org/2000/svg">
<path d="M6.15151 3.18258C6.15113 3.94559 5.84773 4.6772 5.30805 5.21646C4.76837 5.75572 4.03662 6.05846 3.27378 6.05808C2.51094 6.0577 1.7795 5.75423 1.24036 5.21443C0.701216 4.67463 0.398545 3.94271 0.398926 3.1797C0.399308 2.41669 0.70271 1.68508 1.24239 1.14582C1.78207 0.606557 2.51382 0.303818 3.27666 0.3042C4.0395 0.304581 4.77094 0.608052 5.31008 1.14785C5.84922 1.68765 6.15189 2.41957 6.15151 3.18258ZM6.2378 8.18846H0.485215V26.1981H6.2378V8.18846ZM15.3269 8.18846H9.60306V26.1981H15.2694V16.7474C15.2694 11.4826 22.1293 10.9935 22.1293 16.7474V26.1981H27.81V14.791C27.81 5.91567 17.6567 6.24652 15.2694 10.6051L15.3269 8.18846Z" fill="white"/>
</svg>
