<svg width="29" height="24" viewBox="0 0 29 24" fill="none" xmlns="http://www.w3.org/2000/svg">
<path d="M28.9223 3.38486C27.8713 3.85071 26.7421 4.16548 25.5551 4.30776C26.766 3.58253 27.695 2.43174 28.1331 1.06187C27.0002 1.73422 25.7452 2.22274 24.4096 2.48462C23.3396 1.34642 21.8165 0.633789 20.1297 0.633789C16.8921 0.633789 14.2663 3.26021 14.2663 6.50106C14.2663 6.95936 14.3191 7.40507 14.4173 7.83567C9.54206 7.59015 5.22317 5.25458 2.33047 1.70652C1.82696 2.57528 1.53744 3.58253 1.53744 4.65526C1.53744 6.68992 2.57342 8.48661 4.14564 9.53794C3.18393 9.50646 2.28012 9.24331 1.4896 8.8039V8.87944C1.4896 11.7212 3.50996 14.092 6.19369 14.6309C5.70025 14.7643 5.18288 14.8348 4.64916 14.8348C4.27152 14.8348 3.9027 14.7996 3.5452 14.7316C4.29166 17.0609 6.45678 18.7581 9.02344 18.8034C7.01568 20.3773 4.48677 21.3153 1.7401 21.3153C1.2668 21.3153 0.799787 21.2876 0.340332 21.2334C2.93595 22.8992 6.01746 23.8687 9.32807 23.8687C20.1159 23.8687 26.0133 14.9318 26.0133 7.18096C26.0133 6.92914 26.007 6.67481 25.9957 6.423C27.1412 5.59453 28.1356 4.56335 28.9198 3.38864L28.9223 3.38486Z" fill="white"/>
</svg>
