<svg width="25" height="25" viewBox="0 0 25 25" fill="none" xmlns="http://www.w3.org/2000/svg">
<path d="M24.0129 20.0298V20.0246C24.0129 20.0246 19.4703 15.4909 19.4675 15.4887C19.1074 15.1286 18.5314 15.1364 18.1771 15.4911L16.0862 17.5889C15.2733 18.4014 14.2252 17.6804 12.2132 16.0412C10.8821 14.9566 9.35055 13.4982 8.02262 11.8539C7.09071 10.7002 6.26662 9.48868 7.11797 8.63821C7.12017 8.636 9.21748 6.54576 9.21708 6.54356L9.21868 6.53915C9.59505 6.16308 9.55858 5.58695 9.21487 5.24311V5.23791C9.21487 5.23791 4.54107 0.573604 4.53847 0.570801C4.17833 0.210945 3.60255 0.218956 3.24802 0.573204L1.14169 2.67787C0.273908 3.76304 -1.65465 8.93498 6.61333 17.4033C15.3232 26.3248 20.9436 24.4164 21.9112 23.4097C21.9112 23.4097 24.0153 21.3321 24.0153 21.3301L24.0171 21.3259C24.3935 20.9496 24.3564 20.3739 24.0129 20.0298Z" fill="white"/>
</svg>
