<svg width="318" height="95" viewBox="0 0 318 95" fill="none" xmlns="http://www.w3.org/2000/svg">
<circle cx="48.5" cy="46.5" r="43.5" fill="white"/>
<path d="M29.6933 6.88C44.4 -0.266663 62.6 2 75.6266 11.72C68.08 16.5867 61.8933 23.8267 59.5866 32.6267C57.64 38.7333 57.84 45.2267 56.5866 51.44C55.3866 56.52 49.1066 59.2267 44.6 56.5333C40.8133 54.4533 36.5333 53.4533 32.76 51.4C31.2 48.6933 32.2533 45.4267 32.36 42.5067C33.12 38.0533 31.6666 33.7067 30.4266 29.4933C32.4533 30.3733 34.4933 31.2 36.5733 31.96C36.7066 29.8 36.84 27.64 36.8533 25.48C37.12 25.2 37.6666 24.6667 37.9333 24.3867C37.3333 22.56 36.9066 20.68 36.68 18.7733C35.6133 18.16 34.5466 17.5467 33.48 16.92C31.2133 16.9067 28.9466 16.72 26.6933 16.8267C24.6666 18.3333 23.2933 20.5067 21.9066 22.56C21.0666 22.8267 20.2266 23.1067 19.3866 23.3733C17.2933 22.9733 15.2 22.8933 13.08 23.12C12.6533 22.5733 12.2133 22.04 11.7866 21.4933C17.1466 15.9467 22.4133 9.93334 29.6933 6.88Z" fill="#E20514"/>
<path d="M10.6001 23.48C12.6001 25.08 14.7601 26.4533 16.9201 27.84C14.6267 28.5466 12.3734 29.32 10.1334 30.1733C12.1601 31.08 14.2401 31.88 16.3334 32.6133C15.4934 33.6533 14.6667 34.6933 13.8401 35.7466C14.0801 36.9333 14.3201 38.12 14.5467 39.3066C13.4267 41.1333 11.9201 42.88 11.8134 45.1333C13.0667 46.8533 15.9734 47.5066 17.1734 45.3733C16.9601 44.1733 16.7067 42.9866 16.4267 41.8C17.2001 41.4133 18.7467 40.64 19.5201 40.2666C18.3201 38.8 17.1334 37.32 15.9467 35.8533C17.5201 34.6533 19.0934 33.4666 20.6667 32.28C21.2801 34.3066 22.5867 36.3466 21.9467 38.5333C21.3334 46.8666 11.1467 50.2933 10.5334 58.64C9.6134 63.2 13.7467 66.0266 16.6667 68.68C21.8267 73.5066 28.8267 75.3866 35.5467 76.8266C39.7201 78.3066 38.6267 83.56 39.0001 87.0133C37.2001 87.5733 35.4001 88.1067 33.6001 88.64C24.3201 84.56 15.7334 78.3333 10.5867 69.4133C2.00007 55.6 2.84007 37.48 10.6001 23.48Z" fill="#E20514"/>
<path d="M86.3602 41.5334C88.4802 42.3734 90.6135 43.2001 92.8002 43.8401C93.5468 58.6668 86.8535 73.8401 74.5735 82.3868C67.1735 88.0935 57.8935 90.6401 48.6668 91.1468C46.4002 88.2934 43.6802 85.5068 44.0935 81.5201C45.3868 79.6535 46.5335 77.6535 48.0002 75.9068C50.9202 75.4268 53.8802 75.4668 56.8002 75.0268C61.2002 73.7468 65.0802 71.1734 68.6402 68.3468C66.0802 67.4934 63.5468 66.6001 61.0268 65.6535C64.0002 63.0801 67.0002 59.7068 71.3602 60.7068C70.6002 59.2534 69.8135 57.8268 68.9735 56.4268C69.1868 55.3601 69.4135 54.3068 69.6268 53.2401C70.5202 53.2934 72.3202 53.4001 73.2135 53.4534C73.6135 55.2001 74.0135 56.9468 74.4268 58.6934C74.8268 57.0668 75.1868 55.4401 75.5335 53.8001C76.6802 53.3334 78.9735 52.4268 80.1202 51.9601C79.7602 53.1468 79.0535 55.5068 78.7068 56.6801C82.2668 54.1334 83.1335 49.9868 83.1335 45.8401C83.8268 45.5734 85.2135 45.0401 85.9068 44.7735C86.0135 43.9601 86.2535 42.3468 86.3602 41.5334Z" fill="#E20514"/>
<path d="M112.72 17.6533C115.84 23.1733 116.387 29.6267 118.72 35.4667C114.4 35.0933 110.307 33.3467 105.947 33.12C104.787 35 103.6 36.8533 102.4 38.72C101.84 38.3467 100.72 37.6267 100.147 37.2667C101.067 35.6933 101.987 34.12 102.893 32.5333C107.067 28.2133 109.733 22.8 112.72 17.6533ZM107.627 30.9333C109.867 31.1867 112.107 31.44 114.36 31.7067C113.68 28.7867 113.08 25.84 112.493 22.8933C110.893 25.5867 109.253 28.2533 107.627 30.9333Z" fill="white"/>
<path d="M169.587 24.3599C174.307 20.8533 180.84 18.7733 186.533 21.0533C188.947 21.5733 189.96 25.1866 188.08 26.7999C184.56 30.1066 179.627 31.0933 175.227 32.7066C174.6 34.9733 173.987 37.2533 173.227 39.4799C172.587 37.0933 172.04 34.7066 171.48 32.3066C172.547 29.7466 173.533 27.1599 174.573 24.5866C173.333 24.5333 170.84 24.4133 169.587 24.3599ZM176.693 22.9066C176.253 25.3733 175.773 27.8533 175.32 30.3199C179.707 28.7333 183.987 26.7733 187.64 23.8266C184.107 22.5999 180.373 22.5866 176.693 22.9066Z" fill="white"/>
<path d="M242.64 29.1734C243.853 25.4134 245.04 21.3334 248.493 18.9734C248.04 22.3467 246.893 25.5467 245.64 28.6934C248.107 29.0934 250.573 29.5201 253.013 30.0667C250.4 31.0934 247.68 31.7734 244.96 32.4401C244.267 35.0001 244.32 38.2001 241.56 39.5601C241.6 36.8801 241.72 34.2001 241.853 31.5201C238.4 31.1601 236.253 33.7601 234.32 36.1334C234.36 35.1334 234.453 33.1201 234.493 32.1201C232.72 32.3334 230.947 32.5201 229.173 32.7067C230.253 33.0934 232.413 33.8401 233.493 34.2134C232.373 35.0667 231.24 35.8934 230.08 36.6934C231.573 36.9067 234.573 37.3334 236.067 37.5467C232.16 40.9067 227.373 38.0401 224.587 34.8001C220.787 40.0134 220.213 47.1601 215.467 51.6134C215.467 46.8134 217.533 42.4267 219.56 38.2001C217.24 37.6934 213.2 38.7867 212.493 35.6267C212.12 33.7067 211.933 31.7601 211.947 29.8001C213.44 31.6534 214.707 33.6801 215.947 35.7201C218.907 34.4667 221.827 33.0801 224.64 31.5201C224.827 32.1467 225.2 33.4001 225.373 34.0267C229.053 28.1334 236.827 30.1734 242.64 29.1734Z" fill="white"/>
<path d="M151.253 32.0934C153.293 30.9067 155.36 29.7601 157.467 28.6667C158.307 30.5334 159.147 32.4001 159.933 34.2801C162.413 33.1201 164.747 30.4134 167.747 31.3334C170.427 33.8267 169.027 37.8667 169.067 41.0267C167.267 39.0134 166.667 36.3734 166 33.8401C163.08 36.0134 160.027 38.0801 156.547 39.2534C156.613 36.7467 156.68 34.2534 156.773 31.7467C153.733 34.0001 150.8 36.3867 147.613 38.4401C147.6 36.0401 147.693 33.6534 147.827 31.2667C148.68 31.4667 150.387 31.8934 151.253 32.0934Z" fill="white"/>
<path d="M188.8 31.4534C191.24 29.4134 194.627 30.2667 197.533 30.2L196.427 32.4134C198.12 32.0667 199.813 31.7334 201.493 31.32C203.667 30.7467 205.84 30.1334 208 29.52C210.453 32.3867 211.493 35.9734 210.907 39.7334C208.227 38.04 207.667 34.9467 206.76 32.1734C204.813 33.6934 203.16 35.7067 200.867 36.7334C198.293 36.56 195.8 35.7067 193.227 35.48L197.093 38.9734C193.893 38.8934 189.787 39.4 187.693 36.3467C185.64 34.8534 187.653 32.8 188.8 31.4534ZM191.573 32.4C191.2 34.2934 194.427 34.5334 195.213 33.1867C195.6 31.28 192.333 31 191.573 32.4Z" fill="white"/>
<path d="M120.16 29.72C121.48 31.4933 122.56 33.4266 123.587 35.3866C126.8 34.6933 129.76 33.2933 132.453 31.4266C133.053 32.7733 133.653 34.12 134.293 35.44C136.013 31.3466 143.64 29.52 143.587 35.5866C144.693 36.9333 145.8 38.2933 146.88 39.6666C144.933 39.0533 143.013 38.4 141.093 37.7333C140.093 38.08 138.107 38.7733 137.12 39.1066C135.32 37.9466 133.547 36.7466 131.8 35.5066C130.213 39.2133 128.48 42.8533 126.907 46.56C129 48.4666 131.413 50.4 131.947 53.3733C130.68 57.0666 127.413 59.68 124.04 61.3866C118.067 64.4133 111.627 66.3333 105.24 68.24C104.813 72.0933 104.347 75.9466 103.627 79.76C99.72 76.7733 100.893 71.3733 99.6 67.1466C102.04 62.1066 103.293 56.6133 105.507 51.4666C103.427 52.72 101.373 53.9733 99.2933 55.2C98.6667 53.2666 97.9467 50.7066 100.307 49.6133C107.613 45.8266 116.24 44.4533 124.36 45.8266C125.413 43.3066 126.48 40.7866 127.6 38.3066C125.413 37.8266 122.533 38.4933 121.027 36.3866C119.507 34.56 120.467 31.8533 120.16 29.72ZM108.573 50.8133C108.213 55.2133 107.08 59.4933 106.013 63.76C113.56 60.92 122.84 58.8266 127.627 51.9733C122.08 47.44 114.867 49.7066 108.573 50.8133Z" fill="white"/>
<path d="M235.067 64.1333C236.64 56.9066 234.24 49 237.293 42.2C240.053 44.2133 239.28 47.7466 239.4 50.6933C239.107 56.8 239.947 63.0266 238.453 69.0266C230.2 69.2 221.493 68.0666 213.96 72.4266C215.773 73.7333 217.507 75.72 219.96 75.5866C226.027 75.5466 231.933 73.7466 238.013 73.72C233.213 79.08 225.173 79.3733 218.48 79.9066C212.76 80.92 206.973 72.08 212.707 68.5733C219.36 64.5466 227.507 64.4 235.067 64.1333Z" fill="white"/>
<path d="M295.96 62.08C297.813 55.84 299.387 49.2933 303.747 44.24C304.693 45.36 305.627 46.48 306.56 47.6133C304.067 52.0533 302.28 56.8667 301.227 61.8533C305.573 61.76 310.12 61.4933 314.04 63.7733C309.6 66.12 304.6 66.68 299.667 66.88C298.667 71.2267 298.133 75.6533 297.307 80.04C296.493 79.6 294.867 78.72 294.053 78.2933C293.507 74.4533 294.253 70.6 294.56 66.7733C290.72 66.64 284.987 67.7067 284.733 62.2C288.467 62.0133 292.213 62.0267 295.96 62.08Z" fill="white"/>
<path d="M204.173 54.2532C205.12 54.2132 207.027 54.1066 207.973 54.0532C207.453 55.9466 207.667 58.4532 205.373 59.1599C204.6 57.6266 204.413 55.9199 204.173 54.2532Z" fill="white"/>
<path d="M178.413 64.0134C184.107 62.0134 190.093 61.16 196.067 60.52C196.613 61.1334 197.707 62.3467 198.253 62.96C198.027 63.48 197.587 64.52 197.36 65.04C193.533 65.5334 189.707 66.0934 185.92 66.8C190.56 68.32 195.747 69.5734 198.52 74.0267C192.627 77.6934 185.507 79.8934 178.533 79.0134C178.333 78.3467 177.933 77.0267 177.747 76.36C182.12 75.2267 186.587 74.4667 190.973 73.3734C186.92 71.4267 182.8 69.6134 178.707 67.76C178.64 66.8267 178.48 64.9467 178.413 64.0134Z" fill="white"/>
<path d="M130.307 67.5333C133.8 65.56 137.427 63.6133 141.347 62.64C146.72 62.5066 151.96 64.2133 157.267 64.8933C157.213 65.4933 157.12 66.6666 157.067 67.2666C161.4 63.7066 167.493 62.2666 172.813 64.1466C175.88 65.7866 176.307 69.1866 176.4 72.32C171.773 73.1333 167.107 73.76 162.453 74.44C166.28 75.44 170.147 76.2666 173.96 77.3333C167.68 82.92 153.613 78.3733 155.64 68.84C150.68 67.2266 145.16 66.64 140.027 67.6666C134.667 68.9733 134.107 75.1466 133.067 79.5866C132.12 79.3333 130.213 78.8266 129.253 78.5733C128.84 74.96 128.467 70.7866 130.307 67.5333ZM161.36 69.32C164.813 69.56 168.267 69.5866 171.733 69.5066C171.413 68.8266 170.76 67.4666 170.44 66.7866C167.347 67.36 164.24 68.0266 161.36 69.32Z" fill="white"/>
<path d="M269.453 66.0399C272.413 64.8132 275.28 63.1732 278.493 62.7065C284.707 65.6532 286.107 73.6132 284.333 79.6799C283.053 79.1065 281.787 78.5332 280.507 77.9599C279.813 74.3732 279.173 70.7599 278.28 67.1999C273.693 69.1199 270.427 72.9199 267.12 76.4665C265.907 74.7465 263.88 73.1999 264 70.8932C264.44 68.3732 265.573 66.0399 266.52 63.6932C267.253 64.2799 268.72 65.4532 269.453 66.0399Z" fill="white"/>
<path d="M241.893 74.1601C239.667 69.1201 244.893 64.7334 249.4 63.8267C253.16 63.3334 258.16 62.3734 260.72 65.9601C262.533 67.5467 262.107 70.0267 261.733 72.1201C257.547 73.5067 253.08 73.6667 248.773 74.5201C251.907 76.0001 257.107 74.9334 258.8 78.2401C253.347 81.5067 245.333 79.4267 241.893 74.1601ZM247.427 69.3334C251.027 69.5867 254.64 69.6001 258.227 69.3467C255.52 65.4801 250.76 67.8534 247.427 69.3334Z" fill="white"/>
<path d="M203.693 65.1733L205.04 64.3733C208.013 68.2133 206.373 74.12 206.387 78.7866C199.76 78.6 202.453 69.3733 203.693 65.1733Z" fill="white"/>
</svg>
