<svg width="23" height="24" viewBox="0 0 23 24" fill="none" xmlns="http://www.w3.org/2000/svg">
<path d="M22.7234 10.284H20.1236C19.9759 10.284 19.8347 10.3497 19.7352 10.4646L12.7093 18.7463V0.262599C12.7093 0.11817 12.5938 0 12.4525 0H10.5268C10.3855 0 10.27 0.11817 10.27 0.262599V18.7463L3.2441 10.4646C3.14781 10.3497 3.00659 10.284 2.85574 10.284H0.255932C0.037677 10.284 -0.0810795 10.5499 0.0633541 10.7173L10.7161 23.2728C10.8124 23.3864 10.9315 23.4776 11.0652 23.54C11.1989 23.6025 11.3442 23.6348 11.4913 23.6348C11.6383 23.6348 11.7836 23.6025 11.9173 23.54C12.051 23.4776 12.1701 23.3864 12.2664 23.2728L22.916 10.7173C23.0604 10.5466 22.9416 10.284 22.7234 10.284Z" fill="white" fill-opacity="0.65"/>
</svg>
