<svg width="83" height="45" viewBox="0 0 83 45" fill="none" xmlns="http://www.w3.org/2000/svg">
<path d="M27.2484 1.77588C27.5634 0.550616 28.9013 -0.187662 30.0879 0.0735752C30.7332 -0.0201296 31.3938 -0.0258083 32.0405 0.065057C33.2354 -0.0357467 34.4414 0.0139454 35.6405 0.0253036C35.8626 0.090613 36.0957 0.111909 36.3275 0.097711C36.5454 -0.0101914 36.7896 -0.000252709 37.0255 0.0182043C37.428 0.216972 37.8582 -0.0314879 38.2773 0.00684588C40.0357 0.0210436 41.7927 -0.00309086 43.551 0.0196255C43.9077 0.204195 44.2921 0.00258796 44.6654 0.00826703C45.401 0.021045 46.1407 -0.031486 46.8735 0.0664781C47.3356 0.00116871 47.8116 -0.0471048 48.2682 0.0806745C48.6762 -0.0300675 49.1009 0.0096868 49.5186 0.00826703C53.6377 0.0096868 57.7567 0.0096862 61.8757 0.00542689C62.843 0.0224641 63.8145 -0.0471054 64.7776 0.0778344C69.1451 0.275182 73.5403 1.90934 76.7336 5.02147C79.9894 8.14071 81.8491 12.5832 82.2696 17.0867C82.9094 23.8391 80.725 30.8002 76.4089 35.9483C72.609 40.5526 67.0453 43.6122 61.1735 44.1958C60.4005 44.3775 59.5983 44.2454 58.8184 44.3945C54.7909 44.4116 50.7635 44.3931 46.7347 44.403C46.4099 44.403 46.0782 44.4272 45.7632 44.325C45.4454 44.413 45.1054 44.4598 44.7945 44.3221C44.6918 44.3235 44.4878 44.3235 44.3851 44.325C44.1173 44.4613 43.8286 44.3534 43.5524 44.3377C42.9529 44.4371 42.345 44.4201 41.7469 44.3377C41.0571 44.4158 40.3466 44.4641 39.6638 44.325C39.3043 44.4882 38.9255 44.2753 38.5577 44.3832C38.0858 44.4953 37.6168 44.2369 37.1477 44.3619C36.5995 44.4897 36.0513 44.325 35.5017 44.3136C34.7287 44.5564 33.9238 44.2454 33.1397 44.3974C32.6872 44.1617 32.2015 44.4769 31.7324 44.3534C31.1079 44.3548 30.4071 44.3931 29.8797 43.9856C29.3565 43.6037 28.8902 43.05 28.8499 42.3657C28.7542 42.0902 28.7528 41.7921 28.8472 41.5167C28.9873 40.4504 29.9852 39.5034 31.0593 39.5701C33.5574 39.5701 36.0568 39.5701 38.5549 39.5701C39.4348 39.5517 40.3327 39.6482 41.1945 39.4083C42.4949 39.0108 43.2846 37.4022 42.76 36.1045C42.3617 35.2115 41.4874 34.4831 40.4965 34.4987C31.6575 34.503 22.8185 34.5001 13.9809 34.5016C13.2745 34.5229 12.5903 34.1495 12.156 33.5915C11.5814 32.8774 11.5065 31.7997 11.895 30.9805C12.2864 30.194 13.1122 29.6247 13.9893 29.6488C20.9713 29.6488 27.9548 29.6559 34.9369 29.6502C36.0111 29.6133 36.9048 28.7586 37.206 27.7335C37.2448 27.2153 37.2948 26.663 37.0644 26.1803C36.6703 25.2007 35.6724 24.6143 34.6593 24.5788C31.5159 24.5703 28.3725 24.5745 25.2305 24.5774C24.2424 24.6441 23.3431 23.8292 23.0878 22.8864C23.0267 22.2362 22.9573 21.5064 23.3362 20.9357C23.7372 20.2826 24.4589 19.7686 25.2375 19.8325C30.8317 19.8382 36.426 19.8339 42.0203 19.8354C43.0653 19.8197 44.1381 19.922 45.1512 19.6068C46.0491 19.2135 46.7694 18.2693 46.6972 17.2358C46.743 15.8926 45.5273 14.7256 44.2338 14.7583C36.0457 14.7554 27.8577 14.7597 19.6696 14.7597C18.6287 14.7767 17.6184 13.9987 17.3852 12.9566C17.3589 12.3532 17.2548 11.6731 17.6031 11.1421C18.0153 10.3953 18.8327 9.86857 19.6807 9.90974C24.724 9.90406 29.7673 9.91258 34.8106 9.90832C35.7238 9.8998 36.5634 9.31202 36.9742 8.48855C37.3225 7.86101 37.2712 7.1057 37.0602 6.44266C36.6272 5.49568 35.6821 4.8582 34.6593 4.83974C32.9065 4.83974 31.1523 4.83974 29.3995 4.83974C28.4128 4.90505 27.5121 4.10004 27.254 3.15874C27.1901 2.70157 27.1943 2.23304 27.2484 1.77588ZM52.2165 11.1904C51.8099 15.3972 51.2867 19.5997 50.8371 23.8064C50.6011 25.6351 50.4762 27.4865 50.1834 29.3024C50.1653 30.6554 49.8073 31.9786 49.842 33.3345C50.2417 33.3246 50.6455 33.3402 51.0424 33.2735C51.592 33.3686 52.1499 33.3033 52.705 33.3203C53.6765 33.3033 54.6535 33.37 55.6222 33.2479C56.4049 33.3587 57.2016 33.3445 57.9843 33.2408C59.2291 33.2735 60.4865 33.2749 61.7189 33.0577C64.8012 32.5522 67.6448 30.6796 69.3324 27.9877C70.7563 25.7388 71.4808 23.0369 71.3989 20.3607C71.3933 17.886 70.5204 15.3404 68.7343 13.6224C67.2271 12.1516 65.1662 11.4005 63.1178 11.2131C61.4566 11.1236 59.7926 11.2003 58.13 11.1606C57.7109 11.0711 57.2918 11.1038 56.874 11.1677C55.854 11.0299 54.8215 11.1038 53.7986 11.1109C53.2727 11.1137 52.7203 10.9902 52.2165 11.1904Z" fill="url(#paint0_linear_1074_76)"/>
<path d="M5.85013 12.3248C7.86801 12.2793 9.89005 12.3162 11.9093 12.3106C13.3249 12.2822 14.4768 13.7985 14.1687 15.1984C13.9758 16.2774 12.9932 17.1576 11.9135 17.1591C10.0108 17.1619 8.10948 17.1576 6.20679 17.1647C5.34219 17.1761 4.51922 16.6195 4.13063 15.8401C3.83225 15.319 3.86556 14.6858 3.94327 14.1108C4.17365 13.2107 4.94666 12.471 5.85013 12.3248Z" fill="url(#paint1_linear_1074_76)"/>
<path d="M0.221047 23.5467C0.55551 22.824 1.26191 22.2575 2.05712 22.2135C2.70245 22.0346 3.35056 22.3342 3.99867 22.2093C5.19635 22.0815 6.4093 22.3754 7.60421 22.1638C8.01361 22.2817 8.43689 22.2377 8.85185 22.1809C9.54298 22.2419 10.248 22.2888 10.935 22.1681C11.1195 22.2036 11.3041 22.2277 11.4929 22.2362C13.5704 22.2263 15.648 22.2377 17.7241 22.232C18.654 22.1397 19.538 22.8254 19.8669 23.6887C20.3235 24.7407 19.8905 26.0838 18.9218 26.6673C18.2959 27.1415 17.4868 26.93 16.7665 26.9754C15.4259 27.0166 14.0728 26.8917 12.7391 27.0436C12.3297 26.9314 11.9078 26.9669 11.4956 27.0351C10.205 26.9641 8.89626 26.9172 7.60421 27.0436C6.96165 26.9626 6.30244 26.9144 5.66266 27.0436C5.2935 26.913 4.91185 27.1131 4.53992 27.0067C4.16937 26.9059 3.79744 27.0904 3.42689 27.0038C2.66359 26.8817 1.80315 27.1813 1.12729 26.6886C0.0878173 26.0824 -0.278565 24.6314 0.221047 23.5467Z" fill="url(#paint2_linear_1074_76)"/>
<defs>
<linearGradient id="paint0_linear_1074_76" x1="47.0163" y1="0" x2="47.0163" y2="44.4133" gradientUnits="userSpaceOnUse">
<stop stop-color="#FD0091"/>
<stop offset="0.0001" stop-color="#FD0091"/>
<stop offset="1" stop-color="#FF7732"/>
</linearGradient>
<linearGradient id="paint1_linear_1074_76" x1="9.05429" y1="12.3018" x2="9.05429" y2="17.1649" gradientUnits="userSpaceOnUse">
<stop stop-color="#FD0091"/>
<stop offset="0.0001" stop-color="#FD0091"/>
<stop offset="1" stop-color="#FF7732"/>
</linearGradient>
<linearGradient id="paint2_linear_1074_76" x1="10.0246" y1="22.1549" x2="10.0246" y2="27.0436" gradientUnits="userSpaceOnUse">
<stop stop-color="#FD0091"/>
<stop offset="0.0001" stop-color="#FD0091"/>
<stop offset="1" stop-color="#FF7732"/>
</linearGradient>
</defs>
</svg>
