<svg width="28" height="26" viewBox="0 0 28 26" fill="none" xmlns="http://www.w3.org/2000/svg">
<path d="M5.84145 2.87838C5.84107 3.64139 5.53767 4.373 4.99799 4.91226C4.45831 5.45152 3.72656 5.75426 2.96372 5.75388C2.20088 5.7535 1.46944 5.45003 0.930297 4.91023C0.391157 4.37043 0.0884861 3.63852 0.0888675 2.8755C0.089249 2.11249 0.392652 1.38088 0.932331 0.841619C1.47201 0.302358 2.20376 -0.000381146 2.9666 3.60138e-07C3.72944 0.000381866 4.46088 0.303853 5.00002 0.843654C5.53916 1.38345 5.84184 2.11537 5.84145 2.87838V2.87838ZM5.92774 7.88426H0.175156V25.8939H5.92774V7.88426ZM15.0168 7.88426H9.29301V25.8939H14.9593V16.4432C14.9593 11.1784 21.8193 10.6893 21.8193 16.4432V25.8939H27.4999V14.4868C27.4999 5.61147 17.3466 5.94232 14.9593 10.3009L15.0168 7.88426Z" fill="white"/>
</svg>
