<svg width="29" height="24" viewBox="0 0 29 24" fill="none" xmlns="http://www.w3.org/2000/svg">
<path d="M28.6123 2.75107C27.5612 3.21693 26.4321 3.53169 25.245 3.67397C26.456 2.94874 27.385 1.79795 27.823 0.428084C26.6901 1.10043 25.4351 1.58895 24.0995 1.85083C23.0296 0.712634 21.5064 0 19.8197 0C16.5821 0 13.9562 2.62642 13.9562 5.86727C13.9562 6.32557 14.0091 6.77128 14.1073 7.20188C9.23201 6.95637 4.91311 4.62079 2.02041 1.07273C1.5169 1.94149 1.22738 2.94874 1.22738 4.02147C1.22738 6.05613 2.26336 7.85282 3.83558 8.90415C2.87387 8.87267 1.97006 8.60953 1.17954 8.17011V8.24565C1.17954 11.0874 3.1999 13.4582 5.88363 13.9971C5.39019 14.1305 4.87283 14.201 4.3391 14.201C3.96146 14.201 3.59264 14.1658 3.23514 14.0978C3.9816 16.4271 6.14672 18.1243 8.71339 18.1696C6.70562 19.7435 4.17672 20.6815 1.43004 20.6815C0.956739 20.6815 0.489728 20.6538 0.0302734 20.5996C2.62589 22.2654 5.7074 23.2349 9.01801 23.2349C19.8058 23.2349 25.7032 14.298 25.7032 6.54717C25.7032 6.29535 25.6969 6.04102 25.6856 5.78921C26.8311 4.96074 27.8255 3.92956 28.6098 2.75485L28.6123 2.75107Z" fill="white"/>
</svg>
