<svg width="213" height="83" viewBox="0 0 213 83" fill="none" xmlns="http://www.w3.org/2000/svg">
<path d="M37.4745 30.2408L35.7372 30.9466C37.055 28.6836 35.8971 24.2358 35.8971 24.2358L34.6664 25.9379C34.1964 24.2642 33.3682 22.7161 32.241 21.4037C33.8481 33.8908 29.6521 36.5445 29.6521 36.5445C28.664 25.9443 20.0305 27.0143 20.0305 27.0143C20.0305 27.0143 19.8939 25.0054 19.8921 24.8934C32.5581 21.1705 32.179 16.5944 32.179 16.5944L24.4537 14.4088C23.2652 13.316 24.7546 9.93102 24.7546 9.93102C23.391 9.84724 20.8165 12.4709 20.8165 12.4709C20.0206 11.5921 18.1755 11.7423 18.1755 11.7423C18.1755 11.7423 17.9824 6.82472 18.4594 6.36938C16.3971 7.86355 14.4401 9.50156 12.6025 11.2715C9.37895 14.4266 6.71497 18.1204 4.72712 22.1914C4.03942 23.5865 3.4297 25.0197 2.90088 26.4843L3.1551 27.4323C4.6681 33.3731 7.29054 38.9648 10.8804 43.9045C13.6386 44.2403 16.4208 43.5164 18.6786 41.8756C19.4283 41.3356 20.3589 41.1198 21.2657 41.2754C22.1724 41.4311 22.981 41.9456 23.5136 42.7057C24.0462 43.4657 24.2592 44.4092 24.1056 45.3284C23.9521 46.2477 23.4446 47.0674 22.6948 47.6073C22.2529 47.9261 21.7965 48.2184 21.3393 48.4925C22.2447 49.0321 23.2463 49.3849 24.2866 49.5307C26.0878 49.5049 27.8769 49.2263 29.6027 48.7029C30.2199 48.5193 30.8755 48.5142 31.4954 48.6883C31.0089 47.2266 30.0816 45.9568 28.8446 45.0584C28.2436 44.1768 29.424 39.904 29.424 39.904C39.0259 43.2853 37.4745 30.2408 37.4745 30.2408Z" fill="#FF9E18"/>
<path d="M74.2868 60.4786C71.0932 64.6944 66.7145 67.8301 61.7277 69.4724C61.1645 69.6613 60.5628 69.7006 59.9803 69.5867C59.3978 69.4727 58.8538 69.2093 58.4003 68.8216C57.9467 68.4339 57.5988 67.9348 57.3896 67.372C57.1805 66.8091 57.1172 66.2013 57.2057 65.6066C56.3206 65.7202 55.4223 65.79 54.5108 65.8161C53.7862 65.8413 53.0725 65.6324 52.4727 65.2196C51.8728 64.8068 51.4179 64.2114 51.1737 63.5194C48.4778 64.7357 45.8699 66.1432 43.3692 67.7312C43.3692 67.7312 43.5148 64.9081 41.0921 64.5202L40.7013 59.9741C40.7013 59.9741 38.134 62.412 37.7549 64.013C37.7549 64.013 35.7005 63.3992 33.1053 65.5128C33.1053 65.5128 31.4498 62.7735 32.5726 61.5669C32.5726 61.5669 25.4518 66.4016 29.7547 73.8409C30.3509 74.8473 31.1935 75.6805 32.2007 76.2597C33.3281 76.9227 34.5363 77.8005 32.9301 77.7596C30.5353 77.6967 22.4362 74.8317 19.3003 72.1498C19.3003 72.1498 26.8253 89.3888 54.9142 79.5882C54.9142 79.5882 58.0339 80.5708 63.2494 78.8924C68.4649 77.2141 69.9624 78.856 70.7116 82.3257C70.7116 82.3257 77.4605 75.9409 68.6707 70.5907C68.6707 70.5907 78.9274 60.0761 79.6748 51.6396L79.6622 51.6551C78.8717 52.6167 78.2058 53.6768 77.6806 54.8097C76.7614 56.8217 75.623 58.7232 74.2868 60.4786Z" fill="#FF671D"/>
<path d="M60.3299 34.4573C60.3405 34.442 60.352 34.4321 60.3618 34.4169L60.3281 34.4043L60.3299 34.4573Z" fill="black"/>
<path d="M31.0032 56.5334C27.0246 56.9987 22.9983 56.287 19.4097 54.4844C23.3049 55.2525 27.3262 55.0437 31.1235 53.8761C31.3572 53.8057 31.5748 53.6894 31.7641 53.5337C31.9534 53.378 32.1106 53.1861 32.2267 52.9688C32.3428 52.7516 32.4156 52.5133 32.4408 52.2676C32.4661 52.0218 32.4434 51.7734 32.374 51.5366C32.3045 51.2997 32.1898 51.079 32.0362 50.8872C31.8827 50.6953 31.6934 50.5359 31.4791 50.4182C31.2648 50.3005 31.0297 50.2267 30.7873 50.2011C30.5449 50.1755 30.2999 50.1985 30.0662 50.2689C25.0887 51.7777 19.7368 51.3698 15.0377 49.1233C17.4652 48.7046 19.7664 47.7297 21.766 46.2729C21.9685 46.1314 22.1413 45.9505 22.2743 45.7407C22.4073 45.5309 22.4978 45.2965 22.5406 45.0509C22.5834 44.8054 22.5776 44.5536 22.5236 44.3103C22.4695 44.0671 22.3683 43.8371 22.2259 43.6338C22.0834 43.4306 21.9025 43.258 21.6937 43.1263C21.4849 42.9945 21.2523 42.9061 21.0095 42.8663C20.7667 42.8265 20.5185 42.836 20.2793 42.8942C20.0401 42.9525 19.8148 43.0584 19.6164 43.2057C16.8319 45.2049 13.3808 46.0072 10.0154 45.4378C6.08191 40.2068 3.22067 34.2309 1.60014 27.8618C-0.0998178 33.8652 -0.450662 40.1786 0.573392 46.3375C0.959659 46.9586 1.3561 47.5697 1.76273 48.1707C2.48136 49.2247 3.23295 50.2443 4.01746 51.2297C4.85363 53.8544 6.05736 56.3438 7.59177 58.6216C10.3692 62.7419 14.312 65.9132 18.9013 67.7183C19.3568 67.8901 19.8605 67.8739 20.3043 67.6733C20.7481 67.4727 21.0966 67.1036 21.2749 66.6454C21.4532 66.1871 21.4471 65.6762 21.258 65.2225C21.0688 64.7687 20.7116 64.4083 20.2631 64.2186C17.5765 63.1585 15.1369 61.5434 13.0992 59.4758C16.8029 62.3038 21.2262 64.0008 25.8488 64.367C26.3349 64.4008 26.8146 64.2395 27.1844 63.9177C27.5542 63.596 27.7843 63.1398 27.8251 62.6475C27.8659 62.1553 27.7141 61.6665 27.4025 61.2867C27.0909 60.907 26.6444 60.6667 26.1595 60.6178C22.2778 60.3069 18.5606 58.8949 15.433 56.5434C20.1776 59.6098 25.8183 60.9282 31.4083 60.2772C31.6547 60.2554 31.8942 60.1839 32.113 60.067C32.3317 59.95 32.5252 59.7899 32.682 59.5961C32.8389 59.4022 32.9559 59.1786 33.0263 58.9382C33.0967 58.6979 33.1189 58.4457 33.0918 58.1965C33.0647 57.9473 32.9887 57.7061 32.8684 57.4871C32.748 57.2681 32.5857 57.0757 32.3909 56.9212C32.1962 56.7667 31.9729 56.6532 31.7343 56.5874C31.4957 56.5216 31.2465 56.5048 31.0014 56.538L31.0032 56.5334Z" fill="#592E2C"/>
<path d="M80.2021 30.5259C78.232 36.2643 75.2179 41.5773 71.3162 46.1894C67.9245 46.5669 64.523 45.5705 61.8526 43.4174C61.4679 43.1062 60.9769 42.9626 60.4878 43.0184C59.9986 43.0742 59.5514 43.3246 59.2444 43.7147C58.9374 44.1047 58.7959 44.6025 58.8509 45.0983C58.9059 45.5942 59.153 46.0476 59.5377 46.3588C61.453 47.9258 63.6958 49.029 66.0953 49.5844C61.2802 51.5623 55.9141 51.6674 51.0273 49.8795C50.5658 49.7187 50.0606 49.7487 49.6207 49.9628C49.1809 50.1769 48.842 50.558 48.6773 51.0236C48.5125 51.4891 48.5353 52.0017 48.7405 52.4504C48.9458 52.8991 49.3172 53.2479 49.7742 53.4211C53.5011 54.8018 57.5046 55.2376 61.4358 54.6906C57.7539 56.2878 53.6947 56.7707 49.7481 56.0812C49.5063 56.037 49.2583 56.0419 49.0184 56.0956C48.7785 56.1494 48.5516 56.2509 48.3507 56.3942C48.1498 56.5376 47.9789 56.7199 47.8481 56.9307C47.7172 57.1415 47.629 57.3766 47.5884 57.6222C47.5479 57.8679 47.5559 58.1192 47.6119 58.3617C47.6679 58.6042 47.7708 58.833 47.9147 59.0349C48.0586 59.2367 48.2406 59.4076 48.4502 59.5376C48.6597 59.6676 48.8926 59.7541 49.1354 59.7922C54.6807 60.7589 60.3852 59.762 65.2913 56.9691C62.0392 59.1401 58.2501 60.3393 54.3572 60.4296C54.1115 60.4335 53.869 60.4867 53.6438 60.5864C53.4186 60.686 53.2151 60.8299 53.0452 61.0099C52.8753 61.1898 52.7423 61.4022 52.654 61.6347C52.5657 61.8672 52.5238 62.1151 52.5307 62.3641C52.5377 62.6131 52.5934 62.8583 52.6945 63.0853C52.7957 63.3123 52.9403 63.5167 53.12 63.6867C53.2997 63.8566 53.5109 63.9886 53.7413 64.0752C53.9717 64.1617 54.2168 64.201 54.4623 64.1907C59.0977 64.0861 63.6072 62.6419 67.4607 60.028C65.3125 61.9771 62.7877 63.4517 60.047 64.3583C59.5839 64.5185 59.202 64.8577 58.9843 65.3021C58.7667 65.7464 58.7309 66.2599 58.8849 66.7308C59.0389 67.2017 59.3701 67.5919 59.8065 67.8165C60.2428 68.0411 60.749 68.0818 61.2148 67.9299C65.8964 66.3871 70.0074 63.4434 73.0067 59.4862C74.6639 57.2988 76.0026 54.8815 76.9817 52.3083C77.8201 51.3672 78.6268 50.3916 79.4017 49.3813C79.6829 49.0171 79.9587 48.6382 80.2317 48.2603C81.472 42.4157 81.4606 36.3693 80.1985 30.5295L80.2021 30.5259Z" fill="#592E2C"/>
<path d="M60.3126 28.0065L60.2878 27.9805C60.2763 27.9957 60.2692 28.011 60.2568 28.0271L60.3126 28.0065Z" fill="#789904"/>
<path d="M78.1457 29.7529C78.0729 29.762 77.869 29.6236 77.7073 29.5944C77.6067 29.5753 77.3642 29.15 77.5142 29.008C77.7675 28.7694 78.7009 28.1884 78.0208 27.8933C77.9304 27.8654 77.8343 27.8616 77.7419 27.8824C77.6496 27.9032 77.5641 27.9478 77.4938 28.0119C77.4235 28.0761 77.3707 28.1576 77.3406 28.2485C77.3105 28.3394 77.3041 28.4366 77.322 28.5308C77.171 28.9861 76.8099 28.6565 76.4237 28.7029C75.5343 28.794 75.688 26.8815 74.7043 26.816C74.3342 26.6448 72.9365 27.3114 71.5603 28.0836C71.5018 27.5645 71.5048 27.0402 71.5693 26.5218C71.8954 25.3516 71.0689 23.0932 70.3063 22.2353C69.7061 21.5599 69.0627 20.9253 68.3803 20.3356C68.2438 20.23 67.8306 19.8803 67.3742 19.4933C67.4003 19.4814 67.1946 19.3202 67.2179 19.3111C67.7646 19.2164 68.3208 19.1916 68.8735 19.2374C69.2139 19.1846 69.3388 18.8731 69.4403 18.7693C69.5979 18.2129 69.7274 17.6488 69.8284 17.0791C69.8637 16.9644 69.9048 16.8517 69.9515 16.7412C69.9928 16.692 70.1805 16.7002 70.282 16.6902C70.3835 16.6802 70.5129 16.8396 70.6611 17.0044C70.7505 17.117 70.8739 17.1966 71.0123 17.2312C71.4705 17.3641 71.8693 16.886 71.5675 16.5664C71.3762 16.4857 71.1667 16.4602 70.962 16.4926C70.7402 16.5081 70.5129 16.2003 70.3754 16.0746C70.238 15.9489 70.3512 15.9371 70.3512 15.9371C70.7168 15.7158 71.0366 15.5883 71.369 15.408C71.4814 15.3561 71.6053 15.3351 71.7283 15.347C72.278 15.1557 72.0876 14.6785 71.7741 14.6184C71.6468 14.5988 71.5168 14.6242 71.4058 14.6904C71.3309 14.7772 71.2702 14.8756 71.2261 14.9818C71.1489 15.1284 71.0384 15.1485 70.8345 15.2441C70.6409 15.3554 70.4324 15.4376 70.2155 15.4881C70.0754 15.4881 70.088 15.2541 70.1069 15.0009C70.1848 14.7282 70.3142 14.4734 70.4877 14.2505C70.5338 14.1865 70.5635 14.1119 70.574 14.0333C70.5845 13.9548 70.5755 13.8748 70.5479 13.8007C70.5275 13.7373 70.4903 13.6809 70.4405 13.6375C70.3906 13.5941 70.33 13.5654 70.2651 13.5545C70.2003 13.5436 70.1337 13.5509 70.0727 13.5757C70.0117 13.6005 69.9586 13.6418 69.9191 13.695C69.8168 13.7816 69.7467 13.901 69.7202 14.0334C69.6938 14.1658 69.7126 14.3034 69.7736 14.4236C69.7242 14.5765 69.6757 14.7295 69.6263 14.8789C69.6202 15.0043 69.5922 15.1277 69.5436 15.2432C69.4735 15.3725 69.3801 15.1976 69.3801 15.1976C69.3801 15.1976 69.0594 14.6512 69.0163 14.5902C68.9609 14.5077 68.9224 14.4148 68.9031 14.317C69.0648 13.787 67.8557 13.8507 68.1585 14.6922C68.1822 14.7576 68.2234 14.8149 68.2775 14.8579C68.3316 14.9008 68.3965 14.9277 68.4648 14.9354C68.5654 14.9099 68.6875 15.2614 68.7989 15.3488C68.9319 15.4399 68.7837 15.622 68.745 15.7131C68.7783 16.0209 67.8647 15.8624 67.7686 15.8469C67.7015 15.7919 67.6219 15.7547 67.537 15.7388C67.4521 15.7229 67.3647 15.7288 67.2826 15.7559C66.4445 16.0792 67.3338 16.7913 67.721 16.4498C67.721 16.4498 67.9384 16.3861 68.0731 16.336C68.2121 16.2874 68.3597 16.2694 68.5061 16.2832C68.5555 16.3023 68.5762 18.0927 68.0767 17.9615C67.5938 17.854 67.1043 17.7798 66.6116 17.7393C65.954 17.7056 66.0223 18.3768 65.4681 18.0553C65.2905 17.5274 65.0693 17.0156 64.8069 16.5254C64.315 15.7625 63.5721 15.2013 62.7103 14.9417C62.2702 14.8194 61.8228 14.7257 61.3709 14.6612C60.6397 14.6421 59.8986 14.1795 59.1422 14.215C57.9367 14.2724 57.1094 14.8407 57.5029 16.2677C57.7292 17.0873 58.2592 17.7393 58.4856 18.5826C58.5563 18.9615 58.7006 19.3223 58.9102 19.6441C59.1198 19.9658 59.3904 20.2421 59.7064 20.4568C60.2505 20.7784 60.8559 20.9793 61.4823 21.046C61.6889 21.0687 62.2441 21.0159 62.2207 21.3192C62.192 21.7017 61.3035 22.4812 61.3691 23.0076C61.3952 23.1797 61.1203 26.8852 60.2912 27.9844L60.3163 28.0099L60.2597 28.0308C60.2723 28.0153 60.2795 27.9999 60.2912 27.9835L59.383 27.0218L59.3444 26.3561C59.6848 26.153 60.3199 26.1412 60.496 25.8188C60.7412 25.3707 60.1969 25.0957 59.8923 25.5274C59.6228 25.7031 59.4998 26.0893 58.9599 25.8762C58.7021 25.491 59.7746 24.6987 59.0497 24.4291C58.6266 24.2716 58.1954 24.7524 58.4541 25.0748C58.4982 25.3298 58.6338 25.613 58.544 25.7469L58.031 25.7906C57.7113 25.4992 58.0311 25.0402 57.4921 24.8407C56.6073 24.5111 56.3243 25.6858 57.2316 25.7514C57.4535 25.8844 57.5621 25.9882 57.5082 26.245C57.4597 26.4745 57.1615 26.4144 56.9693 26.4271C56.5318 26.4444 56.6468 26.184 56.3108 26.0629C56.1683 26.0104 56.0124 26.0089 55.869 26.0586C55.7255 26.1083 55.6031 26.2062 55.5221 26.3361C55.267 26.8023 55.8275 27.1994 56.2991 26.9835C56.6917 26.9234 57.1489 26.7695 57.4202 26.9007C57.4481 27.0427 57.0178 27.3314 56.5929 27.5035C56.1159 27.6975 55.9317 28.0281 56.3764 28.2758C56.6459 28.4251 57.0052 28.2275 57.1795 27.8724C57.2611 27.7471 57.3668 27.6398 57.4903 27.5569C57.6138 27.4739 57.7525 27.4171 57.8981 27.3897C58.7425 27.55 59.1467 29.1856 60.5768 29.3795C61.8255 29.5498 62.4866 24.2333 62.9411 23.5785C63.0635 23.4174 63.2161 23.2824 63.3903 23.1815C63.4298 23.309 63.4559 23.4055 63.4666 23.4547C63.5377 23.6438 63.5821 23.8422 63.5987 24.0439C63.9068 26.1384 68.4782 27.8296 67.4398 29.456C66.2864 29.4433 63.5071 29.3649 63.2178 30.4268C63.1567 30.6545 63.5681 31.2464 63.6616 31.4959C63.7298 31.6781 64.6946 32.6088 64.6955 32.6434L63.9769 32.5277C63.9019 32.47 63.8136 32.4326 63.7204 32.4189C63.6272 32.4052 63.5321 32.4158 63.4441 32.4495C63.356 32.4833 63.2778 32.5392 63.2169 32.612C63.1559 32.6847 63.1142 32.772 63.0956 32.8656C63.0687 33.2854 63.755 33.2198 64.011 32.9958L64.5401 33.0869C64.5967 33.4602 63.9652 33.4065 63.5664 33.4284C62.8217 32.9475 62.2755 34.2398 63.1262 34.1788C63.2901 34.1568 63.4394 34.0717 63.543 33.9411C63.6858 33.8849 63.8339 33.8437 63.985 33.8181C64.7512 33.7626 63.9706 34.3336 63.7739 34.5558C62.7435 35.0412 64.2374 35.8262 64.4027 34.8472C64.4072 34.8162 64.3721 34.7334 64.391 34.707C64.4386 34.6414 65.124 33.7134 65.0198 34.3372C64.983 34.5139 64.9533 34.6951 64.9075 34.8709C64.5482 35.2042 64.8078 35.6158 65.2902 35.5812C65.7259 35.5502 66.2837 35.0521 65.8705 34.7425C65.8543 34.5731 65.7016 34.4201 65.7411 34.187C65.8498 33.5604 66.2675 33.4156 66.8245 33.7872C66.8631 34.3536 67.9545 34.1733 68.0479 33.6333C68.171 32.9157 66.7805 33.4457 66.4732 33.0231C66.1867 32.9193 65.8822 31.8456 66.308 31.852C67.0377 31.777 67.7748 31.8704 68.4639 32.1252C68.7801 32.331 69.5876 32.5942 69.7305 32.8273C70.1104 33.4754 70.3602 34.1932 70.4653 34.9395C70.5705 35.6858 70.5289 36.4458 70.3431 37.1758C70.0881 38.309 69.5113 39.3417 68.6839 40.1464C67.8513 40.992 66.8186 41.6068 65.6845 41.9322C65.0231 42.0935 64.3316 42.0766 63.6786 41.883C62.6144 41.5214 61.6501 40.9087 60.8652 40.0954C60.6577 39.9215 59.3659 38.5473 59.3659 38.5473C59.2518 38.428 59.0964 38.4899 59.1108 38.6666C59.1341 38.7729 59.1835 38.8716 59.2545 38.9534C60.147 40.6304 61.578 41.9478 63.3103 42.6872C64.3848 43.0567 65.5525 43.0358 66.6134 42.628C67.7392 42.2208 68.7764 41.596 69.6676 40.7884C70.431 40.0652 71.0403 39.1913 71.4579 38.2203C71.9131 37.4084 72.1817 36.5029 72.2439 35.5712C72.3337 34.2425 72.5134 31.6954 71.8846 30.7109C72.744 30.2512 73.4613 29.5594 73.9569 28.712C74.5902 28.2813 75.3044 28.8714 75.5532 29.3959C75.5892 29.4706 75.4823 29.6946 75.5038 29.7602C75.1723 29.9314 74.8543 29.7993 74.5768 29.9542C73.8491 30.3576 74.919 30.9095 75.1247 30.2374C75.2785 30.1447 75.4407 30.0669 75.6089 30.0052C75.7338 30.2019 76.0275 30.2219 75.944 30.4377C75.8604 30.6536 75.0089 31.4304 75.7401 31.5305C75.8151 31.5378 75.8907 31.524 75.9586 31.4908C76.0265 31.4575 76.0841 31.406 76.1251 31.3419C76.1661 31.2778 76.189 31.2034 76.1913 31.127C76.1936 31.0506 76.1751 30.9751 76.138 30.9085C76.1889 30.7813 76.249 30.658 76.3177 30.5397C76.3608 30.4377 76.6725 30.4487 76.7084 30.5607C76.7785 30.7792 76.447 31.8566 77.1576 31.5624C77.2295 31.54 77.2927 31.4953 77.3382 31.4345C77.3837 31.3738 77.4093 31.3001 77.4112 31.2238C77.4132 31.1476 77.3916 31.0726 77.3493 31.0095C77.307 30.9464 77.2462 30.8983 77.1755 30.8721C77.0094 30.3385 77.3758 30.364 77.5106 30.078C77.9472 30.0689 78.0262 30.3995 78.3945 30.4286C79.3907 30.5088 78.8976 29.1856 78.1457 29.7529Z" fill="#789904"/>
<path d="M35.1461 3.28902C34.1731 3.07239 33.1564 3.19782 32.2631 3.64468C31.3698 4.09154 30.653 4.83323 30.2306 5.74783C30.1474 5.91281 30.106 6.09627 30.1104 6.28154C30.1148 6.46681 30.1648 6.64803 30.2558 6.80876C30.6277 7.45442 31.7434 8.43705 33.9586 8.64377C33.9586 8.64377 35.4982 9.42513 34.5874 10.7438C33.6765 12.0624 32.4045 14.4775 32.4045 14.4775C32.4045 14.4775 31.7002 16.5484 33.1833 15.3363C35.4803 13.4603 42.1151 4.08222 56.0243 15.3363C55.9237 15.2261 57.4014 15.859 56.1411 13.8592C54.8808 11.8593 56.036 10.6017 55.2733 10.5908C54.5107 10.5798 50.7118 10.3176 51.9388 7.90976C53.1659 5.50194 53.6249 5.22874 52.1922 4.03576C52.1257 4.1842 51.4583 5.71869 50.586 5.03205C49.7138 4.3454 47.3809 0.721829 38.3036 5.10763C38.362 5.06118 37.2158 5.07029 37.0271 4.69601C36.8321 4.37584 36.5989 4.08129 36.3328 3.81903C37.1483 3.54043 37.9863 3.33444 38.8372 3.20341C39.6043 3.16425 41.8492 1.68896 41.6839 0.326597C41.5186 -1.03577 35.7462 2.2381 35.1461 3.28902Z" fill="#98989A"/>
<path d="M56.8607 38.7688C53.7167 33.7701 45.1344 35.9548 45.1344 35.9548L40.9457 34.3074L41.0597 38.155C39.9162 39.1633 38.8485 40.2567 37.8654 41.4261L36.0005 41.6082L36.5251 43.7401C35.2316 48.4501 37.0443 51.2987 37.4162 52.4689C37.6794 53.3013 36.8333 54.2757 36.3069 54.7301C35.7595 55.1965 35.2868 55.7461 34.9055 56.3593C33.0685 59.3645 34.6953 60.8935 34.6953 60.8935C34.6953 60.8935 34.4007 59.665 36.4838 58.6369C38.567 57.6087 38.4771 54.8476 38.4771 54.8476C38.8364 56.8401 42.3811 56.8119 43.6199 56.8201C43.9425 56.7954 44.266 56.8545 44.5599 56.9917C44.8538 57.1289 45.1084 57.3397 45.2997 57.6042C44.9961 53.6573 43.3701 53.0672 42.4117 53.0727C42.1146 53.079 41.8221 53.1481 41.5529 53.2758C40.6017 53.3369 39.6498 53.1683 38.7754 52.784C37.7082 52.193 37.9031 50.4117 37.816 50.2177C37.8735 49.3394 38.0773 48.4772 38.4187 47.6678C38.6751 47.726 38.9105 47.8554 39.0985 48.0415C39.2865 48.2276 39.4197 48.463 39.4832 48.7215L39.9054 45.7017C41.3106 44.7217 43.017 44.2875 44.7122 44.4787C44.7965 44.9314 44.8266 45.3928 44.802 45.8529C45.5415 45.7241 46.2179 45.3504 46.7253 44.7901L46.7998 44.8102C53.405 45.7208 56.6245 41.5536 56.6245 41.5536L54.9177 40.2231L56.8607 38.7688Z" fill="#1DCAD3"/>
<path d="M52.0107 30.0366C51.5355 30.0503 46.833 28.6943 47.8983 25.5507C48.9637 22.407 53.5001 22.5327 55.8833 23.3651C55.8833 23.3651 51.6945 17.7189 44.9717 19.5921C44.2719 19.9637 43.3503 19.6969 42.7008 18.5822C42.1456 17.6306 41.3228 15.8383 38.9585 16.0633V16.0706C38.0602 16.1143 37.0721 16.6844 36.2124 18.4247C36.2124 18.4247 38.3288 17.5832 38.6423 19.5111C38.6612 19.6274 38.6885 19.7422 38.724 19.8544C38.7312 19.9892 38.7492 20.1176 38.7474 20.2569C38.724 22.4426 38.5246 27.4658 42.2382 29.2362C45.9517 31.0065 48.5702 31.307 52.0161 31.9317C55.462 32.5565 59.0659 33.509 61.0081 35.9542C61.0072 35.9542 58.6977 31.4482 52.0107 30.0366Z" fill="#D05559"/>
<path d="M107.574 29.7414C109.038 30.6342 110.225 31.9252 111.001 33.4679C111.856 35.1818 112.282 37.0821 112.244 39.002C112.28 40.9322 111.853 42.8425 111.001 44.569C110.232 46.1253 109.044 47.4287 107.574 48.3282C106.047 49.2312 104.304 49.69 102.537 49.6542C101.219 49.6722 99.9116 49.4262 98.6884 48.9302C97.6084 48.5037 96.6604 47.7926 95.9423 46.8702V58.2673H91.0349V29.0511H95.0997L95.4671 31.9225C96.2025 30.8155 97.2184 29.9296 98.4081 29.358C99.7148 28.7175 101.151 28.3947 102.602 28.4155C104.348 28.3851 106.069 28.8439 107.574 29.7414ZM105.661 43.4297C106.648 42.1812 107.185 40.6292 107.185 39.0294C107.185 37.4296 106.648 35.8775 105.661 34.629C105.151 34.0731 104.529 33.6355 103.836 33.3462C103.144 33.0568 102.398 32.9225 101.65 32.9524C100.899 32.9238 100.151 33.0587 99.4551 33.3479C98.7597 33.637 98.1334 34.0739 97.6185 34.629C96.5482 35.8547 95.9933 37.4563 96.0726 39.0913C95.9946 40.7003 96.5463 42.2754 97.6077 43.4743C98.6891 44.5366 100.138 45.1269 101.644 45.1187C103.149 45.1105 104.592 44.5045 105.662 43.4306L105.661 43.4297Z" fill="white"/>
<path d="M130.255 47.77C128.39 49.0549 126.175 49.7142 123.921 49.6551C122.044 49.6946 120.19 49.2295 118.548 48.3073C117.014 47.4254 115.762 46.1172 114.938 44.5371C114.055 42.8161 113.612 40.8978 113.651 38.9583C113.607 37.0233 114.058 35.1096 114.959 33.4032C115.795 31.8547 117.047 30.5781 118.57 29.7214C120.169 28.8355 121.969 28.3861 123.791 28.4173C125.565 28.3822 127.318 28.8086 128.883 29.6558C130.317 30.4368 131.505 31.6102 132.313 33.0426C133.139 34.5492 133.557 36.2506 133.524 37.9739C133.539 38.805 133.467 39.6353 133.309 40.4509H118.516C118.516 41.1388 118.656 41.8192 118.925 42.4505C119.195 43.0817 119.589 43.6505 120.083 44.1218C121.135 45.0747 122.512 45.5743 123.922 45.5142C124.984 45.5429 126.037 45.2979 126.981 44.8021C127.789 44.3833 128.417 43.6771 128.744 42.8186H133.565C133.144 44.8449 131.956 46.6229 130.255 47.77ZM128.482 37.0741C128.498 36.4536 128.384 35.8367 128.148 35.2643C127.911 34.6918 127.557 34.177 127.109 33.7538C126.154 32.9182 124.921 32.4833 123.661 32.5381C122.363 32.4874 121.093 32.9268 120.097 33.7711C119.632 34.1826 119.258 34.6895 119.001 35.2583C118.744 35.8271 118.609 36.4448 118.605 37.0705L128.482 37.0741Z" fill="white"/>
<path d="M146.299 33.1726H142.537V49.0629H137.587V33.1726H133.824V29.0518H137.587V23.7917H142.537V29.0518H146.299V33.1726Z" fill="white"/>
<path d="M148.16 44.7019L157.952 33.436H148.16V29.052H164.094V33.4797L154.149 44.6145H164.094V49.064H148.16V44.7019Z" fill="white"/>
<path d="M166.529 48.6464C166.229 48.3512 165.99 47.9973 165.829 47.6059C165.667 47.2146 165.586 46.794 165.589 46.3697C165.581 45.9347 165.66 45.5025 165.822 45.0994C165.983 44.6963 166.224 44.3307 166.529 44.0248C166.841 43.706 167.214 43.4559 167.625 43.2899C168.036 43.124 168.477 43.0458 168.919 43.0604C169.367 43.0446 169.813 43.122 170.23 43.2879C170.647 43.4537 171.027 43.7045 171.344 44.0248C171.653 44.3289 171.896 44.6939 172.06 45.0972C172.224 45.5006 172.304 45.9337 172.296 46.3697C172.297 46.7935 172.213 47.2131 172.05 47.603C171.886 47.993 171.646 48.3452 171.344 48.6382C171.028 48.9613 170.649 49.2147 170.232 49.3825C169.815 49.5504 169.368 49.629 168.919 49.6136C168.476 49.6276 168.036 49.549 167.625 49.3826C167.214 49.2162 166.841 48.9655 166.529 48.6464Z" fill="white"/>
<path d="M175.957 47.9015C175.218 47.3589 174.61 46.6523 174.181 45.8356C173.753 45.0188 173.513 44.1135 173.482 43.1888H178.346C178.357 43.5819 178.459 43.9669 178.643 44.3132C178.827 44.6595 179.088 44.9574 179.406 45.1832C180.141 45.6764 181.011 45.9218 181.892 45.8844C182.715 45.9342 183.534 45.7276 184.238 45.2924C184.508 45.103 184.727 44.8465 184.873 44.5474C185.019 44.2483 185.087 43.9163 185.07 43.5831C185.094 43.2969 185.045 43.0093 184.93 42.7469C184.815 42.4844 184.637 42.2556 184.412 42.0814C183.891 41.7342 183.306 41.4992 182.692 41.3911L179.363 40.5797C177.81 40.3214 176.376 39.5736 175.266 38.4424C174.397 37.4508 173.93 36.163 173.958 34.837C173.931 33.9378 174.115 33.0449 174.497 32.2328C174.879 31.4206 175.447 30.7127 176.153 30.168C177.798 28.9401 179.809 28.3214 181.85 28.415C183.881 28.3177 185.883 28.9372 187.514 30.168C188.211 30.7154 188.775 31.4164 189.164 32.2178C189.553 33.0192 189.757 33.9 189.76 34.7933H184.896C184.91 34.4288 184.84 34.066 184.689 33.7345C184.539 33.4031 184.313 33.1124 184.031 32.8864C183.377 32.3933 182.575 32.1451 181.761 32.1842C181.042 32.1465 180.33 32.3424 179.728 32.7434C179.481 32.9235 179.283 33.1631 179.151 33.4407C179.019 33.7182 178.957 34.0247 178.972 34.3325C178.942 34.6032 178.982 34.8771 179.086 35.1282C179.19 35.3793 179.355 35.5994 179.566 35.7677C180.104 36.0963 180.692 36.33 181.306 36.4589L185.112 37.3359C186.581 37.6168 187.92 38.3743 188.927 39.4942C189.76 40.5205 190.201 41.8158 190.171 43.1442C190.199 44.0575 190.01 44.9644 189.621 45.7885C189.231 46.6125 188.652 47.3297 187.932 47.8797C186.188 49.1428 184.073 49.7688 181.932 49.6555C179.805 49.7516 177.705 49.1353 175.957 47.9015Z" fill="white"/>
<path d="M212.422 29.0523V49.0643C212.482 50.3947 212.26 51.7227 211.771 52.9589C211.283 54.1952 210.539 55.311 209.589 56.2313C207.701 58.0138 205.135 58.905 201.893 58.905C199.364 59.0067 196.88 58.2123 194.866 56.6584C193.955 55.9213 193.201 55.0038 192.651 53.9619C192.101 52.9199 191.766 51.7753 191.666 50.5979H196.574C196.663 51.1789 196.868 51.7353 197.177 52.2329C197.486 52.7305 197.892 53.1587 198.37 53.4911C199.415 54.1865 200.645 54.5385 201.894 54.4992C202.64 54.547 203.388 54.4448 204.095 54.1985C204.802 53.9521 205.454 53.5666 206.013 53.064C206.505 52.5641 206.889 51.9658 207.14 51.3073C207.391 50.6488 207.505 49.9445 207.473 49.2391V45.5965C206.81 46.597 205.88 47.3864 204.792 47.8731C203.552 48.4439 202.202 48.7285 200.84 48.7064C199.123 48.7363 197.43 48.2932 195.942 47.4242C194.52 46.5817 193.368 45.3409 192.624 43.8507C191.848 42.2112 191.449 40.4149 191.457 38.5966C191.464 36.7783 191.878 34.9853 192.667 33.3525C193.429 31.8429 194.594 30.5807 196.029 29.7098C197.512 28.827 199.207 28.3757 200.926 28.4057C202.315 28.3816 203.691 28.6817 204.947 29.2827C206.047 29.7943 206.973 30.6261 207.607 31.6723L207.888 29.0413L212.422 29.0523ZM205.752 42.6641C206.266 42.1112 206.668 41.4606 206.933 40.7498C207.198 40.039 207.322 39.282 207.298 38.5224C207.322 37.7676 207.197 37.0156 206.932 36.31C206.666 35.6045 206.265 34.9595 205.752 34.4125C205.244 33.8747 204.63 33.4512 203.951 33.1697C203.271 32.8882 202.54 32.755 201.806 32.7787C201.084 32.749 200.364 32.8798 199.697 33.162C199.029 33.4443 198.431 33.8711 197.944 34.4125C196.95 35.5562 196.428 37.0431 196.484 38.5661C196.427 40.0866 196.96 41.5692 197.969 42.696C198.457 43.2274 199.053 43.6462 199.715 43.9241C200.377 44.2021 201.09 44.3326 201.806 44.3069C202.541 44.3306 203.273 44.1964 203.953 43.9131C204.633 43.6298 205.246 43.2038 205.752 42.6632V42.6641Z" fill="white"/>
</svg>
